<?xml version="1.0" encoding="utf-8"?>
<!-- Generator: Adobe Illustrator 15.0.0, SVG Export Plug-In . SVG Version: 6.00 Build 0)  -->
<!DOCTYPE svg PUBLIC "-//W3C//DTD SVG 1.1//EN" "http://www.w3.org/Graphics/SVG/1.1/DTD/svg11.dtd">
<svg version="1.1" id="Layer_1" xmlns="http://www.w3.org/2000/svg" xmlns:xlink="http://www.w3.org/1999/xlink" x="0px" y="0px"
	 width="600px" height="330px" viewBox="0 0 600 330" enable-background="new 0 0 600 330" xml:space="preserve">
<g>
	<g>
		<path fill="none" stroke="#B3B3B3" stroke-width="2" stroke-miterlimit="10" d="M271.215,143.519c0,0,0.732-0.788,2.127-2.111"/>
		<path fill="none" stroke="#B3B3B3" stroke-width="2" stroke-miterlimit="10" stroke-dasharray="5.9848,5.9848" d="
			M277.808,137.431c9.957-8.365,30.457-22.59,56.4-24.399c20.957-1.461,40.96,5.327,52.74,10.459"/>
		<path fill="none" stroke="#B3B3B3" stroke-width="2" stroke-miterlimit="10" d="M389.688,124.719
			c0.981,0.454,1.888,0.886,2.705,1.288"/>
		<g>
			<path fill="#B3B3B3" d="M397.73,128.817c-3.007-0.377-6.962-0.41-9.777,0.271l3.722-3.424l0.672-5.012
				C393.403,123.35,395.697,126.572,397.73,128.817z"/>
		</g>
	</g>
</g>
<g>
	<g>
		<path fill="none" stroke="#B3B3B3" stroke-width="2" stroke-miterlimit="10" d="M403.832,239.236c0,0-0.86,0.645-2.471,1.693"/>
		<path fill="none" stroke="#B3B3B3" stroke-width="2" stroke-miterlimit="10" stroke-dasharray="5.9848,5.9848" d="
			M396.252,244.042c-11.298,6.438-34.018,16.75-59.864,13.867c-20.878-2.328-39.338-12.601-50.003-19.765"/>
		<path fill="none" stroke="#B3B3B3" stroke-width="2" stroke-miterlimit="10" d="M283.911,236.443
			c-0.886-0.623-1.698-1.211-2.432-1.752"/>
		<g>
			<path fill="#B3B3B3" d="M276.734,230.968c2.889,0.911,6.773,1.654,9.667,1.49l-4.276,2.699l-1.561,4.811
				C280.008,237.122,278.33,233.542,276.734,230.968z"/>
		</g>
	</g>
</g>
<g>
	<path fill="#CC8C21" d="M164.902,218.536c2.768,0,5.025-2.25,5.025-5.017c0.002-2.761-2.258-5.011-5.025-5.011
		c-2.769,0-5.02,2.25-5.02,5.011C159.882,216.286,162.133,218.536,164.902,218.536z"/>
	<path fill="#CC8C21" d="M169.734,219.516h-9.354c-2.478,0-4.487,2.188-4.487,4.668l-0.012,14.332h4.105l1,18h9l1-18h3.237
		l-0.009-14.332C174.215,221.704,172.211,219.516,169.734,219.516z"/>
</g>
<g>
	<path fill="#CC8C21" d="M142.902,212.536c2.768,0,5.025-2.25,5.025-5.017c0.002-2.761-2.258-5.011-5.025-5.011
		c-2.769,0-5.02,2.25-5.02,5.011C137.882,210.286,140.133,212.536,142.902,212.536z"/>
	<path fill="#CC8C21" d="M147.734,213.516h-9.354c-2.478,0-4.487,2.188-4.487,4.668l-0.012,14.332h4.105l1,18h9l1-18h3.237
		l-0.009-14.332C152.215,215.704,150.211,213.516,147.734,213.516z"/>
</g>
<g>
	<path fill="#CC8C21" d="M49.912,105.709c1.584,0,2.877-1.289,2.877-2.871c0.001-1.583-1.293-2.871-2.877-2.871
		c-1.587,0-2.876,1.288-2.876,2.871C47.036,104.42,48.325,105.709,49.912,105.709z"/>
	<path fill="#CC8C21" d="M52.677,106.517h-5.356c-1.419,0-2.57,1.312-2.57,2.733l-0.008,8.267h2.243v10h6v-10h2.264l-0.004-8.267
		C55.246,107.829,54.095,106.517,52.677,106.517z"/>
</g>
<g>
	<path fill="#CC8C21" d="M33.923,112.604c1.98,0,3.597-1.611,3.597-3.59c0.001-1.979-1.616-3.588-3.597-3.588
		c-1.983,0-3.595,1.609-3.595,3.588S31.939,112.604,33.923,112.604z"/>
	<path fill="#CC8C21" d="M37.38,113.517h-6.695c-1.774,0-3.213,1.266-3.213,3.041l-0.01,9.959h2.524v13h8v-13h2.608l-0.005-9.959
		C40.59,114.783,39.152,113.517,37.38,113.517z"/>
</g>
<g>
	<path fill="#CC8C21" d="M72.725,174.152c5.684,0,10.322-4.625,10.322-10.303c0.002-5.68-4.639-10.299-10.322-10.299
		c-5.693,0-10.318,4.619-10.318,10.299C62.407,169.527,67.032,174.152,72.725,174.152z"/>
	<path fill="#CC8C21" d="M82.647,176.518H63.43c-5.092,0-9.221,3.978-9.221,9.072l-0.029,28.924h6.806l2,39h19l2-39h7.888
		l-0.016-28.924C91.858,180.495,87.733,176.518,82.647,176.518z"/>
</g>
<g>
	<path fill="#B88161" d="M156.986,64.615v-0.123c0-2.479-1.051-4.08-2.499-4.08c-1.448,0-2.501,1.6-2.501,4.08v0.122
		c-27,13.512-26.688,15.637-26.688,16.549c0,0.586-0.017,2.303,5.447,4.203c-0.06,2.213-0.091,3.869-0.091,5.127
		c-4.848-2.549-8.902-4.628-10.989-5.692c0.002-0.076-0.001-0.152-0.001-0.227c0-4.524-1.695-7.446-4.335-7.446
		c-2.646,0-4.344,2.922-4.344,7.446c0,0.074,0,0.148,0,0.227c-2,1.177-7.02,3.592-12.58,6.529c0.002-1.408-0.018-3.303-0.046-5.92
		c5.407-1.891,5.348-3.601,5.348-4.185c0-0.912,0.278-3.039-26.722-16.55c0-0.041,0-0.081,0-0.121c0-2.479-0.869-4.081-2.316-4.081
		c-1.448,0-2.352,1.603-2.352,4.081c0,0.04,0.017,0.081,0.018,0.121c-26.65,13.511-26.644,15.638-26.644,16.55
		c0,0.584,0.011,2.302,5.472,4.203c-0.258,9.512,0.086,9.811,0.747,10.321c1.076,0.837,10.774,2.535,18.401,3.006l1.365,0.086
		l0.127-1.354c0.002-0.021,0.006-0.04,0.009-0.06c0.171,0.007,0.343,0.019,0.513,0.024l-0.006,1.404
		c0.854,0.032,1.702-0.003,2.533-0.003c1.715,0,3.698-0.336,5.767-0.336h0.019c1.724,0,3.504-0.279,5.24-0.498
		c-23.54,12.988-23.545,15.016-23.545,16.949c0,1.069,0.012,4.214,9.975,7.682c-0.476,17.412,0.152,17.908,1.355,18.838
		c1.966,1.535,19.664,4.643,33.58,5.503l2.492,0.156l0.23-2.473c0.003-0.037,0.008-0.069,0.013-0.11
		c0.273,0.015,0.549,0.034,0.823,0.043l-0.014,2.564c1.6,0.061,3.184,0.096,4.738,0.096c3.109,0,6.655-0.188,10.411-0.499
		l0.048-0.003v-0.006c14-1.166,30.07-4.039,31.486-5.433c0.965-0.954,1.098-1.065,0.916-18.695c9.867-3.451,9.895-6.567,9.895-7.633
		c0-1.855-0.012-3.939-23.168-16.719c1.551,0.169,3.153,0.313,4.75,0.412l1.367,0.087l0.128-1.354
		c0.002-0.021,0.007-0.039,0.011-0.059c0.168,0.005,0.342,0.018,0.51,0.023l-0.008,1.407c0.855,0.03,1.705,0.055,2.535,0.055
		c1.717,0,3.701-0.104,5.768-0.276l0.018-0.002c7.655-0.638,16.466-2.218,17.223-2.975c0.541-0.528,0.592-0.609,0.49-10.25
		c5.41-1.891,5.574-3.601,5.574-4.183C183.48,80.251,182.986,78.125,156.986,64.615z M69.167,95.864
		c-6.884-0.527-13.238-1.758-15.177-2.278c-0.064-0.786-0.131-2.705-0.021-7.304c0.102,0.025,0.213,0.049,0.315,0.076
		c0.216,0.057,0.442,0.107,0.663,0.162c0.541,0.132,1.092,0.259,1.662,0.379c0.254,0.054,0.51,0.105,0.769,0.157
		c0.579,0.115,1.171,0.224,1.774,0.326c0.248,0.044,0.492,0.086,0.744,0.126c0.72,0.115,1.455,0.223,2.203,0.32
		c0.143,0.018,0.278,0.039,0.42,0.058c0.916,0.115,1.85,0.218,2.801,0.306c0.133,0.013,0.268,0.021,0.398,0.033
		c0.801,0.072,1.609,0.133,2.432,0.188c0.28,0.016,0.561,0.032,0.844,0.048c0.688,0.037,1.38,0.068,2.078,0.093
		c0.314,0.013,0.63,0.023,0.947,0.03c0.268,0.007,0.53,0.02,0.799,0.025C71.062,89.714,69.721,92.332,69.167,95.864z M80.332,95.864
		c-0.556-3.53-1.901-6.149-3.657-7.256c0.274-0.006,0.545-0.018,0.818-0.026c0.304-0.006,0.605-0.017,0.909-0.028
		c0.719-0.024,1.431-0.058,2.138-0.096c0.27-0.018,0.539-0.03,0.808-0.045c0.849-0.055,1.688-0.119,2.516-0.196
		c0.108-0.011,0.219-0.018,0.325-0.026c0.959-0.092,1.898-0.194,2.82-0.311c0.145-0.021,0.281-0.04,0.422-0.059
		c0.75-0.099,1.486-0.205,2.207-0.32c0.251-0.041,0.496-0.086,0.744-0.126c0.605-0.104,1.198-0.215,1.777-0.33
		c0.259-0.054,0.514-0.104,0.766-0.158c0.578-0.123,1.138-0.252,1.688-0.388c0.21-0.051,0.428-0.1,0.633-0.154
		c0.098-0.027,0.202-0.048,0.297-0.074c0.031,3.45,0.026,5.423,0.011,6.569c-0.745,0.397-1.498,0.799-2.261,1.208
		C90.236,94.642,85.304,95.462,80.332,95.864z M105.148,141.714c-12.559-0.958-24.154-3.21-27.692-4.163
		c-0.117-1.435-0.241-4.931-0.037-13.326c0.103,0.026,0.216,0.049,0.319,0.076c1.023,0.269,2.074,0.525,3.158,0.771
		c0.188,0.042,0.381,0.083,0.571,0.124c1.056,0.231,2.135,0.453,3.239,0.66c0.125,0.026,0.246,0.049,0.372,0.073
		c1.188,0.22,2.407,0.425,3.646,0.616c0.23,0.035,0.459,0.072,0.688,0.105c1.254,0.192,2.529,0.369,3.828,0.529
		c0.131,0.02,0.263,0.03,0.393,0.047c1.306,0.158,2.633,0.306,3.977,0.436c0.092,0.008,0.181,0.018,0.271,0.027
		c1.391,0.135,2.805,0.248,4.23,0.347c0.176,0.015,0.354,0.026,0.531,0.037c1.453,0.098,2.918,0.183,4.396,0.248
		c0.016,0.002,0.029,0.002,0.045,0.002c1.529,0.067,3.07,0.114,4.621,0.141c0.035,0,0.072,0.002,0.109,0.003
		C108.609,130.481,106.16,135.263,105.148,141.714z M145.765,125.886c1.234-0.232,2.436-0.48,3.611-0.741
		c0.119-0.027,0.242-0.052,0.36-0.078c1.149-0.258,2.265-0.534,3.346-0.819c0.065-0.017,0.135-0.03,0.2-0.049
		c0.066,7.913,0.035,11.61-0.008,13.335c-4.096,0.941-15.871,3.213-27.754,4.172c-1.016-6.444-3.477-11.225-6.681-13.239
		c0.052-0.002,0.103,0.096,0.157,0.096c1.535-0.031,3.066-0.045,4.58-0.045c0.016,0,0.029,0,0.044,0c1.49,0,2.967-0.249,4.431-0.351
		c0.16-0.008,0.321-0.069,0.48-0.083c1.457-0.1,2.894-0.242,4.31-0.38c0.04-0.002,0.079-0.019,0.116-0.024
		c1.418-0.137,2.819-0.296,4.195-0.465c0.083-0.009,0.166-0.023,0.248-0.034c1.346-0.165,2.667-0.353,3.967-0.548
		c0.172-0.028,0.341-0.055,0.513-0.083c1.3-0.202,2.579-0.418,3.821-0.652C145.722,125.893,145.744,125.891,145.765,125.886z
		 M148.72,95.8c-3.889-0.297-7.698-0.832-10.615-1.339c-1.033-0.555-2.098-1.125-3.203-1.713c-0.189-0.104-0.392-0.178-0.6-0.229
		c-0.076-0.019-0.148-0.038-0.219-0.054c-0.173-0.185-0.381-0.334-0.604-0.462c-0.025-1.168-0.025-2.967,0.042-5.786
		c0.098,0.027,0.202,0.049,0.3,0.074c0.234,0.061,0.479,0.116,0.717,0.174c0.521,0.126,1.051,0.247,1.598,0.364
		c0.271,0.057,0.547,0.114,0.826,0.17c0.553,0.108,1.116,0.212,1.69,0.312c0.274,0.047,0.546,0.095,0.828,0.14
		c0.667,0.106,1.348,0.206,2.038,0.296c0.195,0.027,0.387,0.056,0.584,0.081c0.893,0.112,1.805,0.211,2.73,0.3
		c0.212,0.018,0.431,0.034,0.643,0.052c0.715,0.062,1.436,0.12,2.165,0.168c0.34,0.021,0.684,0.037,1.028,0.059
		c0.615,0.03,1.236,0.061,1.863,0.083c0.374,0.015,0.752,0.027,1.128,0.035c0.237,0.005,0.472,0.017,0.71,0.021
		C150.615,89.652,149.275,92.27,148.72,95.8z M175.089,93.513c-2.237,0.518-8.689,1.761-15.207,2.287
		c-0.558-3.53-1.902-6.151-3.658-7.255c0.243-0.005,0.483-0.017,0.727-0.021c0.369-0.01,0.735-0.021,1.104-0.035
		c0.633-0.022,1.262-0.053,1.891-0.085c0.342-0.021,0.687-0.036,1.025-0.058c0.727-0.048,1.445-0.104,2.156-0.167
		c0.221-0.019,0.444-0.036,0.662-0.055c0.922-0.087,1.828-0.187,2.717-0.3c0.23-0.03,0.452-0.063,0.678-0.094
		c0.661-0.09,1.309-0.181,1.942-0.284c0.303-0.05,0.597-0.102,0.892-0.152c0.551-0.094,1.09-0.194,1.621-0.299
		c0.297-0.06,0.594-0.12,0.885-0.181c0.529-0.114,1.037-0.23,1.539-0.354c0.258-0.062,0.514-0.122,0.766-0.188
		c0.084-0.023,0.178-0.041,0.261-0.064C175.127,90.524,175.113,92.559,175.089,93.513z"/>
</g>
<g>
	<polygon fill="#576E60" points="555.988,89.517 544.988,89.517 544.988,105.178 525.264,89.174 475.988,129.568 475.988,135.517 
		573.988,135.517 573.988,129.568 555.988,114.977 	"/>
	<path fill="#576E60" d="M484.988,139.517v61.999h33v-21.998h14v21.998h34v-61.999h-40.854H484.988z M537.988,154.517v8h-9v9h-8v-9
		h-9v-8h9v-9h8v9H537.988z"/>
</g>
<g>
	<path fill="#CC8C21" d="M115.464,172.507c4.471,0,8.091-3.739,8.091-8.359c0-4.618-3.62-8.367-8.091-8.367
		c-4.472,0-8.093,3.749-8.093,8.367C107.371,168.768,110.992,172.507,115.464,172.507z"/>
	<path fill="#CC8C21" d="M129.814,179.598c-0.404-1.217-2.694-4.912-8.917-4.947l-12.187,0.026c-6.041-0.337-8.449,3.234-8.826,4.82
		c0,0-4.087,13.024-3.383,16.04c0.431,1.879,5.406,4.07,8.861,5.773l-6.331,25.205h8.955v29.043c0,1.676,1.324,3.033,3,3.033
		c1.676,0,3-1.355,3-3.033v-29.043h4v29.043c0,1.676,1.325,3.033,3,3.033c1.673,0,3-1.355,3-3.033v-29.043h7.553l-6.205-25.701
		c3.088-1.629,7.523-3.623,7.918-5.326C133.958,192.434,129.814,179.598,129.814,179.598z M116.215,196.654
		c-0.175,0-0.339-0.137-0.495-0.137h-0.01c-0.605,0-1.154,0.071-1.64,0.018c-3.126-0.367-4.015-1.467-4.05-2.641
		c-0.57,0.248-1.191,0.428-1.854,0.428c-2.537,0-4.589-2.074-4.589-4.648c0-2.584,2.052-4.665,4.589-4.665
		c2.492,0,4.542,2.03,4.607,4.55c0.795-0.567,1.211-0.84,2.211-0.949v0.019c1-0.174,1.628,0,1.628,0
		c3.061,0.679,9.844,3.621,9.844,3.621S122.822,196.689,116.215,196.654z"/>
</g>
<g>
	<path fill="#808080" d="M83.687,39.4H80.76l-2.219-3.478h-0.024V39.4h-2.351v-9.043h3.514c1.787,0,3.143,0.852,3.143,2.782
		c0,1.248-0.695,2.327-1.979,2.555L83.687,39.4z M78.517,34.411h0.228c0.768,0,1.632-0.144,1.632-1.127
		c0-0.983-0.864-1.127-1.632-1.127h-0.228V34.411z"/>
	<path fill="#808080" d="M86.402,33.247v3.287c0,0.779,0.192,1.331,1.092,1.331s1.091-0.552,1.091-1.331v-3.287h2.184v3.706
		c0,2.027-1.428,2.651-3.274,2.651c-1.848,0-3.274-0.624-3.274-2.651v-3.706H86.402z"/>
	<path fill="#808080" d="M94.509,34.255h0.024c0.419-0.756,1.139-1.091,1.99-1.091h0.42v2.099c-0.3-0.168-0.588-0.204-0.923-0.204
		c-1.212,0-1.512,0.804-1.512,1.859V39.4h-2.183v-6.153h2.183L94.509,34.255L94.509,34.255z"/>
	<path fill="#808080" d="M104.757,39.4h-2.184v-0.683h-0.023c-0.384,0.612-1.14,0.888-1.859,0.888c-1.822,0-3.106-1.523-3.106-3.287
		c0-1.763,1.26-3.274,3.083-3.274c0.707,0,1.451,0.264,1.906,0.804v-0.6h2.184L104.757,39.4L104.757,39.4z M99.839,36.33
		c0,0.78,0.516,1.379,1.403,1.379c0.887,0,1.403-0.6,1.403-1.379c0-0.755-0.516-1.391-1.403-1.391
		C100.355,34.939,99.839,35.575,99.839,36.33z"/>
	<path fill="#808080" d="M108.546,39.4h-2.183v-9.955h2.183V39.4z"/>
	<path fill="#808080" d="M117.605,36.402l1.463-3.154h2.446l-3.214,6.153h-1.392l-3.226-6.153h2.446L117.605,36.402z"/>
	<path fill="#808080" d="M124.613,30.885c0,0.671-0.552,1.223-1.224,1.223c-0.671,0-1.223-0.552-1.223-1.223
		c0-0.672,0.552-1.224,1.223-1.224C124.062,29.662,124.613,30.213,124.613,30.885z M124.481,39.4h-2.183v-6.153h2.183V39.4z"/>
	<path fill="#808080" d="M128.249,39.4h-2.183v-9.955h2.183V39.4z"/>
	<path fill="#808080" d="M132.014,39.4h-2.183v-9.955h2.183V39.4z"/>
	<path fill="#808080" d="M140.389,39.4h-2.184v-0.683h-0.023c-0.384,0.612-1.14,0.888-1.859,0.888c-1.822,0-3.106-1.523-3.106-3.287
		c0-1.763,1.26-3.274,3.083-3.274c0.707,0,1.451,0.264,1.906,0.804v-0.6h2.184L140.389,39.4L140.389,39.4z M135.471,36.33
		c0,0.78,0.516,1.379,1.403,1.379c0.887,0,1.403-0.6,1.403-1.379c0-0.755-0.516-1.391-1.403-1.391
		C135.987,34.939,135.471,35.575,135.471,36.33z"/>
	<path fill="#808080" d="M148.788,38.801c0,2.614-1.295,3.67-3.562,3.67c-1.416,0-3.311-0.731-3.502-2.351h2.446
		c0.06,0.216,0.216,0.372,0.407,0.468c0.192,0.096,0.42,0.144,0.624,0.144c1.176,0,1.403-0.768,1.403-1.763v-0.288
		c-0.563,0.564-1.14,0.84-1.955,0.84c-1.799,0-3.034-1.367-3.034-3.143c0-1.799,1.271-3.334,3.154-3.334
		c0.72,0,1.379,0.24,1.811,0.852h0.024v-0.649h2.183L148.788,38.801L148.788,38.801z M143.871,36.282
		c0,0.779,0.516,1.379,1.403,1.379c0.887,0,1.403-0.6,1.403-1.379c0-0.756-0.516-1.392-1.403-1.392
		C144.387,34.89,143.871,35.526,143.871,36.282z"/>
	<path fill="#808080" d="M156.751,36.69h-4.594c0,0.887,0.468,1.367,1.367,1.367c0.468,0,0.804-0.156,1.044-0.563h2.099
		c-0.348,1.451-1.727,2.111-3.13,2.111c-2.039,0-3.562-1.151-3.562-3.274c0-2.051,1.403-3.286,3.406-3.286
		c2.135,0,3.37,1.319,3.37,3.418V36.69L156.751,36.69z M154.724,35.431c-0.108-0.588-0.648-0.972-1.235-0.972
		c-0.636,0-1.164,0.336-1.296,0.972H154.724z"/>
</g>
<g>
	<path d="M247.591,80.418h-2.926l-2.219-3.478h-0.024v3.478h-2.351v-9.043h3.514c1.787,0,3.143,0.852,3.143,2.782
		c0,1.248-0.695,2.327-1.979,2.555L247.591,80.418z M242.423,75.429h0.228c0.768,0,1.632-0.144,1.632-1.127
		c0-0.983-0.864-1.127-1.632-1.127h-0.228V75.429z"/>
	<path d="M254.519,77.707h-4.594c0,0.887,0.468,1.367,1.367,1.367c0.468,0,0.804-0.156,1.044-0.563h2.099
		c-0.348,1.451-1.727,2.111-3.13,2.111c-2.039,0-3.562-1.151-3.562-3.274c0-2.051,1.403-3.286,3.406-3.286
		c2.135,0,3.37,1.319,3.37,3.418V77.707L254.519,77.707z M252.492,76.448c-0.108-0.588-0.648-0.972-1.235-0.972
		c-0.636,0-1.164,0.336-1.296,0.972H252.492z"/>
	<path d="M262.518,79.818c0,2.614-1.295,3.67-3.562,3.67c-1.416,0-3.311-0.731-3.502-2.351h2.446
		c0.06,0.216,0.216,0.372,0.407,0.468c0.192,0.096,0.42,0.144,0.624,0.144c1.176,0,1.403-0.768,1.403-1.763v-0.288
		c-0.563,0.564-1.14,0.84-1.955,0.84c-1.799,0-3.034-1.367-3.034-3.143c0-1.799,1.271-3.334,3.154-3.334
		c0.72,0,1.379,0.24,1.811,0.852h0.024v-0.648h2.183L262.518,79.818L262.518,79.818z M257.6,77.3c0,0.779,0.516,1.379,1.403,1.379
		c0.887,0,1.403-0.6,1.403-1.379c0-0.756-0.516-1.392-1.403-1.392C258.116,75.908,257.6,76.544,257.6,77.3z"/>
	<path d="M266.407,71.903c0,0.671-0.552,1.223-1.224,1.223c-0.671,0-1.223-0.552-1.223-1.223c0-0.672,0.552-1.224,1.223-1.224
		C265.855,70.679,266.407,71.231,266.407,71.903z M266.275,80.418h-2.183v-6.153h2.183V80.418z"/>
	<path d="M271.848,75.849c-0.336-0.18-0.804-0.3-1.175-0.3c-0.252,0-0.684,0.108-0.684,0.419c0,0.42,0.684,0.48,0.983,0.54
		c1.02,0.204,1.787,0.684,1.787,1.823c0,1.619-1.476,2.291-2.902,2.291c-0.876,0-1.739-0.252-2.483-0.708l0.792-1.523
		c0.443,0.312,1.188,0.624,1.727,0.624c0.276,0,0.684-0.132,0.684-0.468c0-0.479-0.684-0.503-1.367-0.684
		c-0.684-0.18-1.367-0.516-1.367-1.619c0-1.511,1.367-2.183,2.711-2.183c0.695,0,1.391,0.108,2.026,0.396L271.848,75.849z"/>
	<path d="M276.458,80.418h-2.183v-4.354h-0.708v-1.799h0.708v-1.847h2.183v1.847h1.235v1.799h-1.235V80.418z"/>
	<path d="M285.012,77.707h-4.594c0,0.887,0.468,1.367,1.367,1.367c0.468,0,0.804-0.156,1.044-0.563h2.099
		c-0.348,1.451-1.727,2.111-3.13,2.111c-2.039,0-3.562-1.151-3.562-3.274c0-2.051,1.403-3.286,3.406-3.286
		c2.135,0,3.37,1.319,3.37,3.418V77.707z M282.986,76.448c-0.108-0.588-0.648-0.972-1.235-0.972c-0.636,0-1.164,0.336-1.296,0.972
		H282.986z"/>
	<path d="M288.424,75.273h0.024c0.419-0.756,1.139-1.091,1.99-1.091h0.42v2.099c-0.3-0.168-0.588-0.204-0.924-0.204
		c-1.211,0-1.511,0.804-1.511,1.859v2.482h-2.183v-6.153h2.183L288.424,75.273L288.424,75.273z"/>
	<path d="M300.712,76.268c-0.325-0.24-0.708-0.432-1.128-0.432c-0.839,0-1.499,0.648-1.499,1.499c0,0.888,0.636,1.511,1.535,1.511
		c0.384,0,0.804-0.156,1.093-0.419v1.847c-0.479,0.24-1.009,0.348-1.536,0.348c-1.823,0-3.347-1.355-3.347-3.214
		c0-1.979,1.512-3.346,3.442-3.346c0.504,0,1.008,0.12,1.439,0.36L300.712,76.268L300.712,76.268z"/>
	<path d="M304.428,70.463v4.582h0.024c0.503-0.672,1.114-0.983,1.968-0.983c1.559,0,2.313,1.031,2.313,2.59v3.766h-2.184v-3.154
		c0-0.72-0.107-1.463-0.983-1.463c-0.862,0-1.14,0.744-1.14,1.463v3.154h-2.184v-9.955H304.428z"/>
	<path d="M312.617,71.903c0,0.671-0.552,1.223-1.225,1.223c-0.671,0-1.224-0.552-1.224-1.223c0-0.672,0.553-1.224,1.224-1.224
		C312.065,70.679,312.617,71.231,312.617,71.903z M312.485,80.418h-2.184v-6.153h2.184V80.418z"/>
	<path d="M316.252,80.418h-2.183v-9.955h2.183V80.418z"/>
	<path d="M322.485,79.734h-0.023c-0.384,0.612-1.14,0.888-1.858,0.888c-1.821,0-3.105-1.523-3.105-3.287
		c0-1.763,1.26-3.274,3.083-3.274c0.707,0,1.451,0.264,1.906,0.804v-4.402h2.184v9.955h-2.184L322.485,79.734L322.485,79.734z
		 M319.751,77.348c0,0.78,0.517,1.379,1.403,1.379c0.886,0,1.402-0.6,1.402-1.379c0-0.755-0.517-1.391-1.402-1.391
		C320.268,75.957,319.751,76.592,319.751,77.348z"/>
	<path d="M337.364,80.418h-2.185v-0.684h-0.022c-0.384,0.612-1.141,0.888-1.859,0.888c-1.821,0-3.104-1.523-3.104-3.287
		c0-1.763,1.26-3.274,3.083-3.274c0.707,0,1.45,0.264,1.905,0.804v-0.6h2.185L337.364,80.418L337.364,80.418z M332.446,77.348
		c0,0.78,0.516,1.379,1.402,1.379c0.888,0,1.402-0.6,1.402-1.379c0-0.755-0.516-1.391-1.402-1.391S332.446,76.592,332.446,77.348z"
		/>
	<path d="M341.157,75.057h0.023c0.503-0.744,1.114-0.996,1.968-0.996c1.654,0,2.312,1.043,2.312,2.555v3.802h-2.183v-2.999
		c0-0.587,0.096-1.619-0.983-1.619c-0.888,0-1.14,0.66-1.14,1.427v3.19h-2.184v-6.153h2.184L341.157,75.057L341.157,75.057z"/>
	<path d="M351.682,79.734h-0.022c-0.384,0.612-1.141,0.888-1.859,0.888c-1.821,0-3.104-1.523-3.104-3.287
		c0-1.763,1.26-3.274,3.083-3.274c0.707,0,1.45,0.264,1.905,0.804v-4.402h2.185v9.955h-2.185L351.682,79.734L351.682,79.734z
		 M348.947,77.348c0,0.78,0.516,1.379,1.402,1.379c0.888,0,1.402-0.6,1.402-1.379c0-0.755-0.516-1.391-1.402-1.391
		S348.947,76.592,348.947,77.348z"/>
	<path d="M363.898,75.849c-0.336-0.18-0.805-0.3-1.176-0.3c-0.252,0-0.685,0.108-0.685,0.419c0,0.42,0.685,0.48,0.983,0.54
		c1.02,0.204,1.786,0.684,1.786,1.823c0,1.619-1.477,2.291-2.901,2.291c-0.876,0-1.739-0.252-2.483-0.708l0.792-1.523
		c0.443,0.312,1.188,0.624,1.729,0.624c0.275,0,0.684-0.132,0.684-0.468c0-0.479-0.684-0.503-1.367-0.684
		c-0.684-0.18-1.366-0.516-1.366-1.619c0-1.511,1.366-2.183,2.712-2.183c0.693,0,1.391,0.108,2.024,0.396L363.898,75.849z"/>
	<path d="M372.448,77.707h-4.595c0,0.887,0.469,1.367,1.367,1.367c0.469,0,0.805-0.156,1.044-0.563h2.1
		c-0.349,1.451-1.728,2.111-3.13,2.111c-2.039,0-3.562-1.151-3.562-3.274c0-2.051,1.403-3.286,3.406-3.286
		c2.135,0,3.37,1.319,3.37,3.418V77.707z M370.422,76.448c-0.106-0.588-0.646-0.972-1.234-0.972c-0.636,0-1.163,0.336-1.296,0.972
		H370.422z"/>
	<path d="M375.859,75.057h0.022c0.504-0.744,1.115-0.996,1.968-0.996c1.654,0,2.313,1.043,2.313,2.555v3.802h-2.183v-2.999
		c0-0.587,0.096-1.619-0.983-1.619c-0.888,0-1.14,0.66-1.14,1.427v3.19h-2.185v-6.153h2.185L375.859,75.057L375.859,75.057z"/>
	<path d="M386.385,79.734h-0.022c-0.385,0.612-1.141,0.888-1.859,0.888c-1.821,0-3.104-1.523-3.104-3.287
		c0-1.763,1.26-3.274,3.083-3.274c0.706,0,1.45,0.264,1.905,0.804v-4.402h2.185v9.955h-2.185L386.385,79.734L386.385,79.734z
		 M383.649,77.348c0,0.78,0.516,1.379,1.402,1.379c0.888,0,1.402-0.6,1.402-1.379c0-0.755-0.516-1.391-1.402-1.391
		S383.649,76.592,383.649,77.348z"/>
	<path d="M242.339,87.903c0,0.671-0.552,1.223-1.224,1.223c-0.671,0-1.223-0.552-1.223-1.223c0-0.672,0.552-1.224,1.223-1.224
		C241.787,86.679,242.339,87.231,242.339,87.903z M242.208,96.418h-2.183v-6.153h2.183V96.418z"/>
	<path d="M245.979,91.033h0.024c0.516-0.684,1.151-0.971,1.942-0.971c0.888,0,1.655,0.36,2.099,1.175
		c0.42-0.768,1.248-1.175,2.087-1.175c1.56,0,2.1,1.02,2.1,2.435v3.922h-2.184v-2.938c0-0.636,0.024-1.679-0.899-1.679
		c-1.007,0-1.043,0.948-1.043,1.679v2.938h-2.183v-2.938c0-0.684,0-1.727-0.972-1.727c-0.972,0-0.972,1.043-0.972,1.727v2.938
		h-2.183v-6.153h2.183L245.979,91.033L245.979,91.033z"/>
	<path d="M258.016,91.033h0.024c0.516-0.684,1.151-0.971,1.942-0.971c0.888,0,1.655,0.36,2.099,1.175
		c0.42-0.768,1.248-1.175,2.087-1.175c1.56,0,2.1,1.02,2.1,2.435v3.922h-2.184v-2.938c0-0.636,0.024-1.679-0.899-1.679
		c-1.007,0-1.043,0.948-1.043,1.679v2.938h-2.183v-2.938c0-0.684,0-1.727-0.972-1.727c-0.972,0-0.972,1.043-0.972,1.727v2.938
		h-2.183v-6.153h2.183L258.016,91.033L258.016,91.033z"/>
	<path d="M269.985,90.265v3.287c0,0.779,0.192,1.331,1.092,1.331c0.9,0,1.091-0.552,1.091-1.331v-3.287h2.184v3.706
		c0,2.027-1.428,2.651-3.274,2.651c-1.848,0-3.274-0.624-3.274-2.651v-3.706H269.985z"/>
	<path d="M278.092,91.057h0.024c0.503-0.744,1.115-0.996,1.967-0.996c1.655,0,2.314,1.043,2.314,2.555v3.802h-2.183v-2.999
		c0-0.587,0.096-1.619-0.983-1.619c-0.888,0-1.14,0.66-1.14,1.427v3.19h-2.183v-6.153h2.183L278.092,91.057L278.092,91.057z"/>
	<path d="M286.281,87.903c0,0.671-0.552,1.223-1.224,1.223c-0.671,0-1.223-0.552-1.223-1.223c0-0.672,0.552-1.224,1.223-1.224
		C285.729,86.679,286.281,87.231,286.281,87.903z M286.149,96.418h-2.183v-6.153h2.183V96.418z"/>
	<path d="M293.317,94.607v1.811h-6.236l2.891-4.342h-2.507v-1.811h6.141l-2.878,4.342H293.317z"/>
	<path d="M301.256,96.418h-2.185v-0.684h-0.023c-0.384,0.612-1.14,0.888-1.859,0.888c-1.822,0-3.106-1.523-3.106-3.287
		c0-1.763,1.26-3.274,3.083-3.274c0.707,0,1.451,0.264,1.906,0.804v-0.6h2.185L301.256,96.418L301.256,96.418z M296.337,93.348
		c0,0.78,0.516,1.379,1.403,1.379c0.887,0,1.403-0.6,1.403-1.379c0-0.755-0.516-1.391-1.403-1.391
		C296.854,91.957,296.337,92.592,296.337,93.348z"/>
	<path d="M305.354,96.418h-2.184v-4.354h-0.709v-1.799h0.709v-1.847h2.184v1.847h1.234v1.799h-1.234V96.418z"/>
	<path d="M309.84,87.903c0,0.671-0.552,1.223-1.224,1.223c-0.671,0-1.225-0.552-1.225-1.223c0-0.672,0.554-1.224,1.225-1.224
		C309.288,86.679,309.84,87.231,309.84,87.903z M309.708,96.418h-2.183v-6.153h2.183V96.418z"/>
	<path d="M318.277,93.348c0,2.087-1.729,3.274-3.706,3.274c-1.968,0-3.706-1.176-3.706-3.274c0-2.098,1.729-3.286,3.706-3.286
		C316.548,90.062,318.277,91.249,318.277,93.348z M313.168,93.348c0,0.78,0.517,1.379,1.403,1.379c0.886,0,1.402-0.6,1.402-1.379
		c0-0.755-0.517-1.391-1.402-1.391C313.685,91.957,313.168,92.592,313.168,93.348z"/>
	<path d="M321.662,91.057h0.023c0.504-0.744,1.114-0.996,1.968-0.996c1.654,0,2.312,1.043,2.312,2.555v3.802h-2.183v-2.999
		c0-0.587,0.096-1.619-0.983-1.619c-0.888,0-1.14,0.66-1.14,1.427v3.19h-2.184v-6.153h2.184L321.662,91.057L321.662,91.057z"/>
	<path d="M336.445,92.268c-0.324-0.24-0.708-0.432-1.128-0.432c-0.839,0-1.499,0.648-1.499,1.499c0,0.888,0.636,1.511,1.535,1.511
		c0.384,0,0.804-0.156,1.092-0.419v1.847c-0.479,0.24-1.008,0.348-1.535,0.348c-1.823,0-3.347-1.355-3.347-3.214
		c0-1.979,1.512-3.346,3.44-3.346c0.505,0,1.009,0.12,1.439,0.36L336.445,92.268L336.445,92.268z"/>
	<path d="M344.866,93.348c0,2.087-1.728,3.274-3.706,3.274c-1.967,0-3.706-1.176-3.706-3.274c0-2.098,1.729-3.286,3.706-3.286
		C343.14,90.061,344.866,91.249,344.866,93.348z M339.757,93.348c0,0.78,0.518,1.379,1.403,1.379s1.403-0.6,1.403-1.379
		c0-0.755-0.518-1.391-1.403-1.391S339.757,92.592,339.757,93.348z"/>
	<path d="M348.251,91.057h0.024c0.503-0.744,1.114-0.996,1.967-0.996c1.655,0,2.313,1.043,2.313,2.555v3.802h-2.184v-2.999
		c0-0.587,0.097-1.619-0.982-1.619c-0.889,0-1.141,0.66-1.141,1.427v3.19h-2.183v-6.153h2.183L348.251,91.057L348.251,91.057z"/>
	<path d="M356.57,96.418h-2.184v-4.354h-0.769v-1.799h0.769v-0.779c0-0.852,0.022-1.475,0.624-2.159
		c0.538-0.636,1.318-0.983,2.146-0.983c0.336,0,0.636,0.06,0.937,0.216v1.883c-0.253-0.108-0.479-0.204-0.769-0.204
		c-0.562,0-0.756,0.336-0.756,1.032v0.995h1.521v1.799h-1.521L356.57,96.418L356.57,96.418z"/>
	<path d="M361.336,87.903c0,0.671-0.552,1.223-1.224,1.223c-0.671,0-1.224-0.552-1.224-1.223c0-0.672,0.553-1.224,1.224-1.224
		C360.784,86.679,361.336,87.231,361.336,87.903z M361.204,96.418h-2.183v-6.153h2.183V96.418z"/>
	<path d="M364.977,91.273H365c0.419-0.756,1.14-1.091,1.99-1.091h0.42v2.099c-0.3-0.168-0.588-0.204-0.924-0.204
		c-1.211,0-1.512,0.804-1.512,1.859v2.482h-2.184v-6.153h2.184L364.977,91.273L364.977,91.273z"/>
	<path d="M370.562,91.033h0.022c0.517-0.684,1.151-0.971,1.942-0.971c0.888,0,1.654,0.36,2.099,1.175
		c0.42-0.768,1.248-1.175,2.087-1.175c1.562,0,2.102,1.02,2.102,2.435v3.922h-2.186v-2.938c0-0.636,0.024-1.679-0.897-1.679
		c-1.008,0-1.043,0.948-1.043,1.679v2.938h-2.185v-2.938c0-0.684,0-1.727-0.972-1.727s-0.972,1.043-0.972,1.727v2.938h-2.185v-6.153
		h2.185L370.562,91.033L370.562,91.033z"/>
	<path d="M387.182,96.418h-2.185v-0.684h-0.022c-0.385,0.612-1.141,0.888-1.858,0.888c-1.822,0-3.105-1.523-3.105-3.287
		c0-1.763,1.261-3.274,3.082-3.274c0.707,0,1.451,0.264,1.906,0.804v-0.6h2.185L387.182,96.418L387.182,96.418z M382.264,93.348
		c0,0.78,0.517,1.379,1.402,1.379c0.888,0,1.403-0.6,1.403-1.379c0-0.755-0.517-1.391-1.403-1.391S382.264,92.592,382.264,93.348z"
		/>
	<path d="M391.276,96.418h-2.184v-4.354h-0.709v-1.799h0.709v-1.847h2.184v1.847h1.234v1.799h-1.234V96.418z"/>
	<path d="M395.765,87.903c0,0.671-0.553,1.223-1.225,1.223c-0.671,0-1.223-0.552-1.223-1.223c0-0.672,0.552-1.224,1.223-1.224
		C395.213,86.679,395.765,87.231,395.765,87.903z M395.633,96.418h-2.183v-6.153h2.183V96.418z"/>
	<path d="M404.201,93.348c0,2.087-1.729,3.274-3.706,3.274c-1.967,0-3.706-1.176-3.706-3.274c0-2.098,1.729-3.286,3.706-3.286
		C402.474,90.062,404.201,91.249,404.201,93.348z M399.092,93.348c0,0.78,0.518,1.379,1.403,1.379c0.888,0,1.403-0.6,1.403-1.379
		c0-0.755-0.517-1.391-1.403-1.391S399.092,92.592,399.092,93.348z"/>
	<path d="M407.587,91.057h0.024c0.503-0.744,1.114-0.996,1.967-0.996c1.655,0,2.313,1.043,2.313,2.555v3.802h-2.184v-2.999
		c0-0.587,0.097-1.619-0.982-1.619c-0.889,0-1.141,0.66-1.141,1.427v3.19h-2.183v-6.153h2.183L407.587,91.057L407.587,91.057z"/>
</g>
<g>
	<path d="M328.375,276.366c-0.432-0.36-0.982-0.601-1.559-0.601c-0.433,0-1.009,0.252-1.009,0.754c0,0.528,0.637,0.732,1.044,0.864
		l0.601,0.181c1.259,0.371,2.229,1.006,2.229,2.472c0,0.897-0.216,1.821-0.937,2.435c-0.707,0.602-1.654,0.854-2.565,0.854
		c-1.141,0-2.255-0.385-3.18-1.031l1.009-1.896c0.588,0.518,1.282,0.938,2.087,0.938c0.553,0,1.141-0.275,1.141-0.912
		c0-0.66-0.924-0.887-1.429-1.031c-1.476-0.42-2.445-0.804-2.445-2.555c0-1.836,1.308-3.034,3.118-3.034
		c0.91,0,2.026,0.288,2.829,0.744L328.375,276.366z"/>
	<path d="M337.342,280.372h-4.594c0,0.887,0.468,1.367,1.367,1.367c0.468,0,0.804-0.156,1.044-0.563h2.099
		c-0.348,1.45-1.727,2.11-3.13,2.11c-2.039,0-3.562-1.149-3.562-3.272c0-2.052,1.402-3.287,3.405-3.287
		c2.136,0,3.369,1.319,3.369,3.418L337.342,280.372L337.342,280.372z M335.315,279.111c-0.108-0.588-0.648-0.971-1.235-0.971
		c-0.636,0-1.164,0.336-1.296,0.971H335.315z"/>
	<path d="M340.754,277.723h0.024c0.503-0.744,1.114-0.996,1.967-0.996c1.655,0,2.313,1.043,2.313,2.555v3.803h-2.184v-3
		c0-0.586,0.097-1.618-0.982-1.618c-0.889,0-1.141,0.659-1.141,1.427v3.189h-2.183v-6.152h2.183L340.754,277.723L340.754,277.723z"
		/>
	<path d="M351.278,282.398h-0.023c-0.384,0.611-1.14,0.888-1.857,0.888c-1.822,0-3.106-1.522-3.106-3.287
		c0-1.763,1.261-3.272,3.083-3.272c0.707,0,1.451,0.264,1.906,0.805v-4.402h2.184v9.955h-2.184L351.278,282.398L351.278,282.398z
		 M348.544,280.012c0,0.78,0.517,1.379,1.403,1.379c0.886,0,1.402-0.601,1.402-1.379c0-0.755-0.517-1.392-1.402-1.392
		C349.061,278.62,348.544,279.257,348.544,280.012z"/>
	<path d="M366.157,283.081h-2.185v-0.685h-0.022c-0.384,0.612-1.141,0.89-1.859,0.89c-1.821,0-3.104-1.522-3.104-3.287
		s1.26-3.274,3.083-3.274c0.707,0,1.45,0.266,1.905,0.805v-0.6h2.185L366.157,283.081L366.157,283.081z M361.239,280.012
		c0,0.78,0.516,1.379,1.402,1.379c0.888,0,1.402-0.601,1.402-1.379c0-0.755-0.516-1.392-1.402-1.392
		S361.239,279.257,361.239,280.012z"/>
	<path d="M369.917,276.93v3.287c0,0.778,0.192,1.331,1.093,1.331c0.899,0,1.091-0.553,1.091-1.331v-3.287h2.185v3.706
		c0,2.027-1.428,2.65-3.273,2.65c-1.849,0-3.273-0.623-3.273-2.65v-3.706H369.917z"/>
	<path d="M378.305,283.081h-2.184v-4.354h-0.708v-1.799h0.708v-1.848h2.184v1.848h1.234v1.799h-1.234V283.081z"/>
	<path d="M387.478,280.012c0,2.088-1.728,3.274-3.705,3.274c-1.968,0-3.706-1.177-3.706-3.274s1.728-3.285,3.706-3.285
		S387.478,277.913,387.478,280.012z M382.368,280.012c0,0.78,0.517,1.379,1.403,1.379c0.886,0,1.401-0.601,1.401-1.379
		c0-0.755-0.516-1.392-1.401-1.392C382.885,278.62,382.368,279.257,382.368,280.012z"/>
	<path d="M390.862,277.695h0.023c0.517-0.684,1.15-0.971,1.941-0.971c0.888,0,1.655,0.359,2.1,1.176
		c0.42-0.769,1.247-1.176,2.087-1.176c1.561,0,2.101,1.021,2.101,2.437v3.922h-2.185v-2.938c0-0.636,0.023-1.679-0.898-1.679
		c-1.007,0-1.043,0.947-1.043,1.679v2.938h-2.184v-2.938c0-0.685,0-1.728-0.973-1.728c-0.972,0-0.972,1.043-0.972,1.728v2.938
		h-2.184v-6.153h2.184L390.862,277.695L390.862,277.695z"/>
	<path d="M407.482,283.081h-2.186v-0.685h-0.021c-0.385,0.612-1.142,0.89-1.859,0.89c-1.821,0-3.105-1.522-3.105-3.287
		s1.261-3.274,3.083-3.274c0.707,0,1.451,0.266,1.905,0.805v-0.6h2.186L407.482,283.081L407.482,283.081z M402.564,280.012
		c0,0.78,0.516,1.379,1.401,1.379c0.888,0,1.403-0.601,1.403-1.379c0-0.755-0.516-1.392-1.403-1.392
		C403.08,278.62,402.564,279.257,402.564,280.012z"/>
	<path d="M411.578,283.081h-2.184v-4.354h-0.708v-1.799h0.708v-1.848h2.184v1.848h1.234v1.799h-1.234V283.081z"/>
	<path d="M420.133,280.372h-4.594c0,0.887,0.468,1.367,1.367,1.367c0.468,0,0.804-0.156,1.044-0.563h2.099
		c-0.348,1.45-1.727,2.11-3.13,2.11c-2.039,0-3.562-1.149-3.562-3.272c0-2.052,1.402-3.287,3.405-3.287
		c2.136,0,3.369,1.319,3.369,3.418L420.133,280.372L420.133,280.372z M418.106,279.111c-0.108-0.588-0.648-0.971-1.235-0.971
		c-0.636,0-1.164,0.336-1.296,0.971H418.106z"/>
	<path d="M425.979,282.398h-0.022c-0.384,0.611-1.14,0.888-1.858,0.888c-1.821,0-3.105-1.522-3.105-3.287
		c0-1.763,1.26-3.272,3.083-3.272c0.707,0,1.451,0.264,1.906,0.805v-4.402h2.184v9.955h-2.184L425.979,282.398L425.979,282.398z
		 M423.244,280.012c0,0.78,0.517,1.379,1.403,1.379c0.886,0,1.402-0.601,1.402-1.379c0-0.755-0.517-1.392-1.402-1.392
		C423.761,278.62,423.244,279.257,423.244,280.012z"/>
	<path d="M436.312,277.938h0.022c0.419-0.756,1.14-1.092,1.99-1.092h0.42v2.1c-0.3-0.168-0.588-0.203-0.923-0.203
		c-1.212,0-1.513,0.803-1.513,1.857v2.481h-2.184v-6.151h2.184L436.312,277.938L436.312,277.938z"/>
	<path d="M446.162,280.372h-4.594c0,0.887,0.468,1.367,1.366,1.367c0.469,0,0.805-0.156,1.044-0.563h2.1
		c-0.348,1.45-1.728,2.11-3.13,2.11c-2.039,0-3.562-1.149-3.562-3.272c0-2.052,1.402-3.287,3.405-3.287
		c2.136,0,3.37,1.319,3.37,3.418L446.162,280.372L446.162,280.372z M444.136,279.111c-0.107-0.588-0.647-0.971-1.234-0.971
		c-0.637,0-1.164,0.336-1.296,0.971H444.136z"/>
	<path d="M449.573,277.695h0.023c0.517-0.684,1.15-0.971,1.941-0.971c0.889,0,1.655,0.359,2.1,1.176
		c0.42-0.769,1.248-1.176,2.087-1.176c1.561,0,2.101,1.021,2.101,2.437v3.922h-2.185v-2.938c0-0.636,0.023-1.679-0.898-1.679
		c-1.007,0-1.043,0.947-1.043,1.679v2.938h-2.184v-2.938c0-0.685,0-1.728-0.973-1.728c-0.972,0-0.972,1.043-0.972,1.728v2.938
		h-2.184v-6.153h2.184L449.573,277.695L449.573,277.695z"/>
	<path d="M461.731,274.566c0,0.67-0.553,1.224-1.226,1.224c-0.671,0-1.223-0.554-1.223-1.224c0-0.672,0.552-1.225,1.223-1.225
		C461.18,273.344,461.731,273.895,461.731,274.566z M461.6,283.081h-2.184v-6.151h2.184V283.081z"/>
	<path d="M465.373,277.723h0.023c0.504-0.744,1.115-0.996,1.968-0.996c1.654,0,2.313,1.043,2.313,2.555v3.803h-2.184v-3
		c0-0.586,0.096-1.618-0.982-1.618c-0.889,0-1.141,0.659-1.141,1.427v3.189h-2.184v-6.152h2.184L465.373,277.723L465.373,277.723z"
		/>
	<path d="M475.899,282.398h-0.023c-0.384,0.611-1.14,0.888-1.858,0.888c-1.821,0-3.105-1.522-3.105-3.287
		c0-1.763,1.26-3.272,3.083-3.272c0.707,0,1.451,0.264,1.906,0.805v-4.402h2.184v9.955H475.9L475.899,282.398L475.899,282.398z
		 M473.165,280.012c0,0.78,0.517,1.379,1.403,1.379c0.886,0,1.402-0.601,1.402-1.379c0-0.755-0.517-1.392-1.402-1.392
		C473.682,278.62,473.165,279.257,473.165,280.012z"/>
	<path d="M486.046,280.372h-4.594c0,0.887,0.468,1.367,1.367,1.367c0.468,0,0.804-0.156,1.044-0.563h2.099
		c-0.348,1.45-1.727,2.11-3.13,2.11c-2.039,0-3.562-1.149-3.562-3.272c0-2.052,1.402-3.287,3.406-3.287
		c2.135,0,3.369,1.319,3.369,3.418L486.046,280.372L486.046,280.372z M484.02,279.111c-0.107-0.588-0.647-0.971-1.234-0.971
		c-0.636,0-1.164,0.336-1.296,0.971H484.02z"/>
	<path d="M489.458,277.938h0.024c0.419-0.756,1.139-1.092,1.989-1.092h0.42v2.1c-0.301-0.168-0.588-0.203-0.923-0.203
		c-1.213,0-1.513,0.803-1.513,1.857v2.481h-2.183v-6.151h2.183L489.458,277.938L489.458,277.938z"/>
	<path d="M496.838,278.514c-0.336-0.181-0.804-0.301-1.175-0.301c-0.252,0-0.684,0.107-0.684,0.419c0,0.421,0.684,0.479,0.981,0.54
		c1.021,0.204,1.787,0.684,1.787,1.823c0,1.619-1.476,2.291-2.901,2.291c-0.876,0-1.738-0.252-2.482-0.709l0.792-1.522
		c0.442,0.312,1.188,0.625,1.727,0.625c0.276,0,0.686-0.133,0.686-0.47c0-0.479-0.686-0.502-1.367-0.685
		c-0.685-0.18-1.367-0.516-1.367-1.618c0-1.511,1.367-2.183,2.711-2.183c0.695,0,1.392,0.107,2.026,0.396L496.838,278.514z"/>
	<path d="M505.922,283.081h-2.183v-4.354h-0.769v-1.799h0.769v-0.779c0-0.852,0.022-1.475,0.624-2.157
		c0.539-0.638,1.318-0.983,2.146-0.983c0.337,0,0.637,0.061,0.938,0.217v1.883c-0.252-0.107-0.479-0.203-0.769-0.203
		c-0.562,0-0.757,0.336-0.757,1.031v0.994h1.523v1.799h-1.523L505.922,283.081L505.922,283.081z"/>
	<path d="M515.4,280.012c0,2.088-1.729,3.274-3.706,3.274c-1.968,0-3.706-1.177-3.706-3.274s1.728-3.285,3.706-3.285
		C513.672,276.727,515.4,277.913,515.4,280.012z M510.291,280.012c0,0.78,0.517,1.379,1.403,1.379c0.886,0,1.402-0.601,1.402-1.379
		c0-0.755-0.517-1.392-1.402-1.392C510.808,278.62,510.291,279.257,510.291,280.012z"/>
	<path d="M518.786,277.938h0.023c0.419-0.756,1.14-1.092,1.989-1.092h0.421v2.1c-0.301-0.168-0.589-0.203-0.924-0.203
		c-1.212,0-1.512,0.803-1.512,1.857v2.481h-2.184v-6.151h2.184L518.786,277.938L518.786,277.938z"/>
	<path d="M330.091,299.081h-2.184v-0.685h-0.022c-0.385,0.612-1.141,0.89-1.858,0.89c-1.822,0-3.106-1.522-3.106-3.287
		s1.261-3.274,3.083-3.274c0.707,0,1.451,0.266,1.906,0.805v-0.6h2.184L330.091,299.081L330.091,299.081z M325.173,296.012
		c0,0.78,0.518,1.379,1.403,1.379s1.403-0.601,1.403-1.379c0-0.755-0.518-1.392-1.403-1.392S325.173,295.257,325.173,296.012z"/>
	<path d="M333.848,293.624h0.023c0.396-0.61,1.141-0.897,1.859-0.897c1.835,0,3.104,1.534,3.104,3.297
		c0,1.775-1.259,3.264-3.082,3.264c-0.707,0-1.438-0.252-1.906-0.793v3.658h-2.184v-9.223h2.184L333.848,293.624L333.848,293.624z
		 M333.776,296.012c0,0.78,0.516,1.379,1.402,1.379c0.888,0,1.402-0.601,1.402-1.379c0-0.755-0.517-1.392-1.402-1.392
		C334.292,294.62,333.776,295.257,333.776,296.012z"/>
	<path d="M342.234,293.624h0.022c0.396-0.61,1.142-0.897,1.859-0.897c1.835,0,3.104,1.534,3.104,3.297
		c0,1.775-1.26,3.264-3.082,3.264c-0.707,0-1.438-0.252-1.906-0.793v3.658h-2.185v-9.223h2.185L342.234,293.624L342.234,293.624z
		 M342.163,296.012c0,0.78,0.517,1.379,1.403,1.379c0.886,0,1.402-0.601,1.402-1.379c0-0.755-0.518-1.392-1.402-1.392
		C342.679,294.62,342.163,295.257,342.163,296.012z"/>
	<path d="M355.487,296.012c0,2.088-1.728,3.274-3.706,3.274c-1.967,0-3.706-1.177-3.706-3.274s1.729-3.285,3.706-3.285
		C353.761,292.727,355.487,293.913,355.487,296.012z M350.378,296.012c0,0.78,0.517,1.379,1.403,1.379
		c0.886,0,1.402-0.601,1.402-1.379c0-0.755-0.517-1.392-1.402-1.392C350.895,294.62,350.378,295.257,350.378,296.012z"/>
	<path d="M358.979,290.566c0,0.67-0.553,1.224-1.225,1.224c-0.671,0-1.223-0.554-1.223-1.224c0-0.672,0.552-1.225,1.223-1.225
		C358.426,289.344,358.979,289.895,358.979,290.566z M358.847,299.081h-2.184v-6.151h2.184V299.081z"/>
	<path d="M362.619,293.723h0.023c0.503-0.744,1.114-0.996,1.968-0.996c1.654,0,2.312,1.043,2.312,2.555v3.803h-2.183v-3
		c0-0.586,0.096-1.618-0.983-1.618c-0.888,0-1.14,0.659-1.14,1.427v3.189h-2.184v-6.152h2.184L362.619,293.723L362.619,293.723z"/>
	<path d="M370.929,299.081h-2.184v-4.354h-0.708v-1.799h0.708v-1.848h2.184v1.848h1.234v1.799h-1.234V299.081z"/>
	<path d="M375.325,293.695h0.023c0.517-0.684,1.15-0.971,1.941-0.971c0.889,0,1.655,0.359,2.1,1.176
		c0.42-0.769,1.248-1.176,2.087-1.176c1.561,0,2.101,1.021,2.101,2.437v3.922h-2.185v-2.938c0-0.636,0.023-1.679-0.898-1.679
		c-1.007,0-1.043,0.947-1.043,1.679v2.938h-2.184v-2.938c0-0.685,0-1.728-0.973-1.728c-0.972,0-0.972,1.043-0.972,1.728v2.938
		h-2.184v-6.153h2.184L375.325,293.695L375.325,293.695z"/>
	<path d="M391.562,296.372h-4.594c0,0.887,0.468,1.367,1.366,1.367c0.469,0,0.805-0.156,1.044-0.563h2.1
		c-0.349,1.45-1.728,2.11-3.13,2.11c-2.039,0-3.562-1.149-3.562-3.272c0-2.052,1.403-3.287,3.406-3.287
		c2.135,0,3.369,1.319,3.369,3.418V296.372z M389.537,295.111c-0.107-0.588-0.647-0.971-1.234-0.971
		c-0.637,0-1.164,0.336-1.297,0.971H389.537z"/>
	<path d="M394.979,293.723h0.023c0.503-0.744,1.115-0.996,1.968-0.996c1.654,0,2.313,1.043,2.313,2.555v3.803H397.1v-3
		c0-0.586,0.097-1.618-0.982-1.618c-0.889,0-1.141,0.659-1.141,1.427v3.189h-2.184v-6.152h2.184L394.979,293.723L394.979,293.723z"
		/>
	<path d="M403.287,299.081h-2.184v-4.354h-0.708v-1.799h0.708v-1.848h2.184v1.848h1.234v1.799h-1.234V299.081z"/>
	<path d="M409.4,294.514c-0.336-0.181-0.805-0.301-1.176-0.301c-0.252,0-0.685,0.107-0.685,0.419c0,0.421,0.685,0.479,0.983,0.54
		c1.02,0.204,1.786,0.684,1.786,1.823c0,1.619-1.477,2.291-2.901,2.291c-0.876,0-1.739-0.252-2.483-0.709l0.793-1.522
		c0.442,0.312,1.188,0.625,1.728,0.625c0.275,0,0.684-0.133,0.684-0.47c0-0.479-0.684-0.502-1.366-0.685
		c-0.685-0.18-1.367-0.516-1.367-1.618c0-1.511,1.367-2.183,2.712-2.183c0.693,0,1.391,0.107,2.024,0.396L409.4,294.514z"/>
	<path d="M422.815,299.081h-2.186v-0.685h-0.021c-0.385,0.612-1.141,0.89-1.859,0.89c-1.821,0-3.105-1.522-3.105-3.287
		s1.261-3.274,3.083-3.274c0.707,0,1.451,0.266,1.905,0.805v-0.6h2.186L422.815,299.081L422.815,299.081z M417.897,296.012
		c0,0.78,0.516,1.379,1.402,1.379c0.888,0,1.402-0.601,1.402-1.379c0-0.755-0.517-1.392-1.402-1.392
		C418.413,294.62,417.897,295.257,417.897,296.012z"/>
	<path d="M426.608,293.723h0.022c0.503-0.744,1.115-0.996,1.968-0.996c1.654,0,2.313,1.043,2.313,2.555v3.803h-2.184v-3
		c0-0.586,0.097-1.618-0.982-1.618c-0.888,0-1.141,0.659-1.141,1.427v3.189h-2.184v-6.152h2.184L426.608,293.723L426.608,293.723z"
		/>
	<path d="M437.133,298.398h-0.021c-0.385,0.611-1.141,0.888-1.859,0.888c-1.821,0-3.105-1.522-3.105-3.287
		c0-1.763,1.261-3.272,3.084-3.272c0.706,0,1.45,0.264,1.905,0.805v-4.402h2.185v9.955h-2.185v-0.686H437.133L437.133,298.398z
		 M434.398,296.012c0,0.78,0.516,1.379,1.402,1.379c0.888,0,1.402-0.601,1.402-1.379c0-0.755-0.516-1.392-1.402-1.392
		S434.398,295.257,434.398,296.012z"/>
	<path d="M447.683,299.081h-2.184v-4.354h-0.768v-1.799h0.768v-0.779c0-0.852,0.024-1.475,0.624-2.157
		c0.539-0.638,1.318-0.983,2.146-0.983c0.337,0,0.637,0.061,0.937,0.217v1.883c-0.252-0.107-0.479-0.203-0.768-0.203
		c-0.563,0-0.757,0.336-0.757,1.031v0.994h1.522v1.799h-1.522L447.683,299.081L447.683,299.081z"/>
	<path d="M457.161,296.012c0,2.088-1.728,3.274-3.706,3.274c-1.967,0-3.706-1.177-3.706-3.274s1.729-3.285,3.706-3.285
		C455.435,292.727,457.161,293.913,457.161,296.012z M452.051,296.012c0,0.78,0.518,1.379,1.403,1.379
		c0.888,0,1.403-0.601,1.403-1.379c0-0.755-0.517-1.392-1.403-1.392S452.051,295.257,452.051,296.012z"/>
	<path d="M460.54,299.081h-2.183v-9.955h2.183V299.081z"/>
	<path d="M464.305,299.081h-2.184v-9.955h2.184V299.081z"/>
	<path d="M472.913,296.012c0,2.088-1.728,3.274-3.706,3.274c-1.967,0-3.706-1.177-3.706-3.274s1.729-3.285,3.706-3.285
		C471.188,292.727,472.913,293.913,472.913,296.012z M467.804,296.012c0,0.78,0.517,1.379,1.402,1.379
		c0.888,0,1.403-0.601,1.403-1.379c0-0.755-0.517-1.392-1.403-1.392S467.804,295.257,467.804,296.012z"/>
	<path d="M476.894,296.264l1.548-3.334h1.295l1.548,3.334l1.547-3.334h2.41l-3.214,6.153h-1.415l-1.523-3.37l-1.521,3.37h-1.415
		l-3.214-6.153h2.423L476.894,296.264z"/>
	<path d="M492.529,292.93v3.287c0,0.778,0.191,1.331,1.092,1.331s1.091-0.553,1.091-1.331v-3.287h2.186v3.706
		c0,2.027-1.429,2.65-3.274,2.65s-3.273-0.623-3.273-2.65v-3.706H492.529z"/>
	<path d="M500.6,293.624h0.023c0.396-0.61,1.141-0.897,1.859-0.897c1.835,0,3.104,1.534,3.104,3.297
		c0,1.775-1.259,3.264-3.082,3.264c-0.707,0-1.438-0.252-1.906-0.793v3.658h-2.184v-9.223h2.184L500.6,293.624L500.6,293.624z
		 M500.528,296.012c0,0.78,0.516,1.379,1.402,1.379c0.888,0,1.402-0.601,1.402-1.379c0-0.755-0.517-1.392-1.402-1.392
		C501.044,294.62,500.528,295.257,500.528,296.012z"/>
	<path d="M510.777,294.514c-0.336-0.181-0.805-0.301-1.176-0.301c-0.252,0-0.685,0.107-0.685,0.419c0,0.421,0.685,0.479,0.983,0.54
		c1.02,0.204,1.787,0.684,1.787,1.823c0,1.619-1.478,2.291-2.902,2.291c-0.876,0-1.739-0.252-2.482-0.709l0.792-1.522
		c0.442,0.312,1.188,0.625,1.728,0.625c0.275,0,0.684-0.133,0.684-0.47c0-0.479-0.684-0.502-1.366-0.685
		c-0.685-0.18-1.366-0.516-1.366-1.618c0-1.511,1.366-2.183,2.711-2.183c0.694,0,1.391,0.107,2.024,0.396L510.777,294.514z"/>
</g>
<g>
	<path fill="#808080" d="M180.037,265.05c-0.48-0.646-1.26-0.995-2.063-0.995c-1.439,0-2.41,1.104-2.41,2.506
		c0,1.428,0.983,2.459,2.446,2.459c0.768,0,1.535-0.373,2.027-0.959v2.818c-0.78,0.239-1.344,0.419-2.075,0.419
		c-1.26,0-2.459-0.479-3.395-1.331c-0.995-0.898-1.451-2.074-1.451-3.418c0-1.234,0.468-2.423,1.332-3.31
		c0.887-0.912,2.17-1.464,3.441-1.464c0.756,0,1.451,0.166,2.147,0.455L180.037,265.05L180.037,265.05z"/>
	<path fill="#808080" d="M188.528,267.986c0,2.089-1.727,3.274-3.706,3.274c-1.967,0-3.706-1.177-3.706-3.274
		c0-2.096,1.728-3.284,3.706-3.284C186.801,264.702,188.528,265.891,188.528,267.986z M183.419,267.986
		c0,0.781,0.516,1.38,1.403,1.38c0.887,0,1.403-0.601,1.403-1.38c0-0.754-0.516-1.391-1.403-1.391
		C183.936,266.598,183.419,267.232,183.419,267.986z"/>
	<path fill="#808080" d="M191.915,265.673h0.024c0.516-0.684,1.151-0.971,1.942-0.971c0.888,0,1.655,0.358,2.099,1.174
		c0.42-0.769,1.248-1.174,2.087-1.174c1.56,0,2.1,1.021,2.1,2.435v3.922h-2.184v-2.938c0-0.635,0.024-1.68-0.899-1.68
		c-1.007,0-1.043,0.949-1.043,1.68v2.938h-2.183v-2.938c0-0.684,0-1.727-0.972-1.727c-0.972,0-0.972,1.043-0.972,1.727v2.938h-2.183
		v-6.152h2.183L191.915,265.673L191.915,265.673L191.915,265.673z"/>
	<path fill="#808080" d="M203.951,265.673h0.024c0.516-0.684,1.151-0.971,1.942-0.971c0.888,0,1.655,0.358,2.099,1.174
		c0.42-0.769,1.248-1.174,2.087-1.174c1.56,0,2.1,1.021,2.1,2.435v3.922h-2.184v-2.938c0-0.635,0.024-1.68-0.899-1.68
		c-1.007,0-1.043,0.949-1.043,1.68v2.938h-2.183v-2.938c0-0.684,0-1.727-0.972-1.727c-0.972,0-0.972,1.043-0.972,1.727v2.938h-2.183
		v-6.152h2.183L203.951,265.673L203.951,265.673z"/>
	<path fill="#808080" d="M215.92,264.904v3.287c0,0.779,0.192,1.332,1.092,1.332c0.9,0,1.091-0.553,1.091-1.332v-3.287h2.184v3.707
		c0,2.027-1.428,2.65-3.274,2.65c-1.846,0-3.274-0.623-3.274-2.65v-3.707H215.92z"/>
	<path fill="#808080" d="M224.027,265.698h0.024c0.503-0.744,1.115-0.996,1.967-0.996c1.655,0,2.314,1.043,2.314,2.555v3.802h-2.183
		v-2.998c0-0.588,0.096-1.619-0.983-1.619c-0.888,0-1.14,0.66-1.14,1.428v3.189h-2.183v-6.152h2.183L224.027,265.698
		L224.027,265.698z"/>
	<path fill="#808080" d="M232.215,262.542c0,0.672-0.552,1.224-1.224,1.224c-0.671,0-1.223-0.552-1.223-1.224
		s0.552-1.224,1.223-1.224C231.665,261.318,232.215,261.87,232.215,262.542z M232.084,271.059h-2.183v-6.152h2.183V271.059z"/>
	<path fill="#808080" d="M236.132,271.059h-2.183v-4.354h-0.708v-1.8h0.708v-1.848h2.183v1.848h1.235v1.8h-1.235V271.059z"/>
	<path fill="#808080" d="M237.766,264.904h2.519l1.643,3.154l1.607-3.154h2.482l-4.929,9.224h-2.447l2.1-3.909L237.766,264.904z"/>
	<path fill="#808080" d="M177.962,282.909c-0.324-0.24-0.708-0.433-1.127-0.433c-0.84,0-1.5,0.646-1.5,1.498
		c0,0.889,0.636,1.512,1.535,1.512c0.384,0,0.804-0.155,1.092-0.42v1.849c-0.479,0.239-1.008,0.348-1.535,0.348
		c-1.823,0-3.347-1.354-3.347-3.214c0-1.979,1.512-3.347,3.442-3.347c0.504,0,1.008,0.12,1.439,0.36L177.962,282.909
		L177.962,282.909z"/>
	<path fill="#808080" d="M186.176,287.059h-2.184v-0.685h-0.023c-0.384,0.61-1.14,0.888-1.859,0.888
		c-1.822,0-3.106-1.521-3.106-3.287c0-1.763,1.26-3.273,3.083-3.273c0.707,0,1.451,0.265,1.906,0.805v-0.6h2.184L186.176,287.059
		L186.176,287.059z M181.258,283.986c0,0.781,0.516,1.38,1.403,1.38c0.887,0,1.403-0.601,1.403-1.38
		c0-0.754-0.516-1.391-1.403-1.391C181.774,282.598,181.258,283.232,181.258,283.986z"/>
	<path fill="#808080" d="M189.969,281.913h0.024c0.419-0.756,1.139-1.093,1.99-1.093h0.42v2.101c-0.3-0.168-0.588-0.204-0.923-0.204
		c-1.212,0-1.512,0.805-1.512,1.858v2.481h-2.183v-6.152h2.183L189.969,281.913L189.969,281.913z"/>
	<path fill="#808080" d="M199.82,284.348h-4.594c0,0.889,0.468,1.367,1.367,1.367c0.468,0,0.804-0.156,1.044-0.562h2.099
		c-0.348,1.451-1.727,2.111-3.13,2.111c-2.039,0-3.562-1.15-3.562-3.273c0-2.053,1.403-3.287,3.406-3.287
		c2.135,0,3.37,1.318,3.37,3.418V284.348L199.82,284.348z M197.794,283.089c-0.108-0.588-0.648-0.973-1.235-0.973
		c-0.636,0-1.164,0.336-1.296,0.973H197.794z"/>
	<path fill="#808080" d="M209.854,282.909c-0.324-0.24-0.708-0.433-1.128-0.433c-0.839,0-1.499,0.646-1.499,1.498
		c0,0.889,0.636,1.512,1.535,1.512c0.384,0,0.804-0.155,1.092-0.42v1.849c-0.479,0.239-1.008,0.348-1.535,0.348
		c-1.823,0-3.347-1.354-3.347-3.214c0-1.979,1.512-3.347,3.442-3.347c0.504,0,1.008,0.12,1.439,0.36L209.854,282.909
		L209.854,282.909z"/>
	<path fill="#808080" d="M218.274,283.986c0,2.089-1.727,3.274-3.706,3.274c-1.967,0-3.706-1.177-3.706-3.274
		c0-2.096,1.728-3.284,3.706-3.284C216.548,280.702,218.274,281.891,218.274,283.986z M213.166,283.986
		c0,0.781,0.516,1.38,1.403,1.38c0.887,0,1.403-0.601,1.403-1.38c0-0.754-0.516-1.391-1.403-1.391
		C213.681,282.598,213.166,283.232,213.166,283.986z"/>
	<path fill="#808080" d="M226.459,283.986c0,2.089-1.728,3.274-3.706,3.274c-1.967,0-3.706-1.177-3.706-3.274
		c0-2.096,1.728-3.284,3.706-3.284S226.459,281.891,226.459,283.986z M221.349,283.986c0,0.781,0.516,1.38,1.403,1.38
		c0.887,0,1.403-0.601,1.403-1.38c0-0.754-0.516-1.391-1.403-1.391C221.865,282.598,221.349,283.232,221.349,283.986z"/>
	<path fill="#808080" d="M229.843,281.913h0.024c0.419-0.756,1.139-1.093,1.99-1.093h0.42v2.101c-0.3-0.168-0.588-0.204-0.924-0.204
		c-1.211,0-1.511,0.805-1.511,1.858v2.481h-2.183v-6.152h2.183L229.843,281.913L229.843,281.913z"/>
	<path fill="#808080" d="M237.949,286.374h-0.023c-0.384,0.612-1.14,0.89-1.859,0.89c-1.822,0-3.106-1.523-3.106-3.287
		s1.26-3.273,3.083-3.273c0.707,0,1.451,0.264,1.906,0.804v-4.401h2.184v9.955h-2.184L237.949,286.374L237.949,286.374z
		 M235.215,283.986c0,0.781,0.516,1.38,1.403,1.38c0.887,0,1.403-0.601,1.403-1.38c0-0.754-0.516-1.391-1.403-1.391
		C235.731,282.598,235.215,283.232,235.215,283.986z"/>
	<path fill="#808080" d="M244.021,278.542c0,0.672-0.552,1.224-1.224,1.224c-0.671,0-1.223-0.552-1.223-1.224
		s0.552-1.224,1.223-1.224C243.469,277.318,244.021,277.87,244.021,278.542z M243.889,287.059h-2.183v-6.152h2.183V287.059z"/>
	<path fill="#808080" d="M247.662,281.698h0.024c0.503-0.744,1.115-0.996,1.967-0.996c1.655,0,2.314,1.043,2.314,2.555v3.802h-2.183
		v-2.998c0-0.588,0.096-1.619-0.983-1.619c-0.888,0-1.14,0.66-1.14,1.428v3.189h-2.183v-6.152h2.183L247.662,281.698
		L247.662,281.698z"/>
	<path fill="#808080" d="M260.328,287.059h-2.184v-0.685h-0.023c-0.384,0.61-1.14,0.888-1.859,0.888
		c-1.822,0-3.106-1.521-3.106-3.287c0-1.763,1.26-3.273,3.083-3.273c0.707,0,1.451,0.265,1.906,0.805v-0.6h2.184L260.328,287.059
		L260.328,287.059z M255.41,283.986c0,0.781,0.516,1.38,1.403,1.38s1.403-0.601,1.403-1.38c0-0.754-0.516-1.391-1.403-1.391
		C255.926,282.598,255.41,283.232,255.41,283.986z"/>
	<path fill="#808080" d="M264.424,287.059h-2.183v-4.354h-0.708v-1.8h0.708v-1.848h2.183v1.848h1.235v1.8h-1.235V287.059z"/>
	<path fill="#808080" d="M273.595,283.986c0,2.089-1.728,3.274-3.706,3.274c-1.967,0-3.706-1.177-3.706-3.274
		c0-2.096,1.728-3.284,3.706-3.284S273.595,281.891,273.595,283.986z M268.486,283.986c0,0.781,0.516,1.38,1.403,1.38
		c0.887,0,1.403-0.601,1.403-1.38c0-0.754-0.516-1.391-1.403-1.391C269.002,282.598,268.486,283.232,268.486,283.986z"/>
	<path fill="#808080" d="M276.981,281.913h0.024c0.419-0.756,1.139-1.093,1.99-1.093h0.42v2.101c-0.3-0.168-0.588-0.204-0.923-0.204
		c-1.212,0-1.512,0.805-1.512,1.858v2.481h-2.183v-6.152h2.183L276.981,281.913L276.981,281.913z"/>
</g>
<g>
	<path fill="#808080" d="M455.354,72.903h2.817v1.991h-5.169v-9.043h2.352V72.903L455.354,72.903z"/>
	<path fill="#808080" d="M466.179,71.823c0,2.087-1.729,3.274-3.706,3.274c-1.968,0-3.706-1.176-3.706-3.274
		c0-2.098,1.729-3.286,3.706-3.286S466.179,69.725,466.179,71.823z M461.069,71.823c0,0.78,0.516,1.379,1.402,1.379
		c0.888,0,1.402-0.6,1.402-1.379c0-0.755-0.516-1.391-1.402-1.391S461.069,71.068,461.069,71.823z"/>
	<path fill="#808080" d="M471.844,70.744c-0.324-0.24-0.708-0.432-1.128-0.432c-0.84,0-1.5,0.648-1.5,1.499
		c0,0.888,0.637,1.511,1.535,1.511c0.385,0,0.805-0.156,1.093-0.419v1.847c-0.479,0.24-1.009,0.348-1.535,0.348
		c-1.822,0-3.348-1.355-3.348-3.214c0-1.979,1.513-3.346,3.442-3.346c0.504,0,1.008,0.12,1.438,0.36v1.846H471.844z"/>
	<path fill="#808080" d="M480.06,74.893h-2.185v-0.684h-0.022c-0.384,0.612-1.141,0.888-1.858,0.888
		c-1.822,0-3.105-1.523-3.105-3.287c0-1.763,1.261-3.274,3.083-3.274c0.707,0,1.45,0.264,1.905,0.804v-0.6h2.185L480.06,74.893
		L480.06,74.893z M475.142,71.823c0,0.78,0.517,1.379,1.402,1.379c0.888,0,1.403-0.6,1.403-1.379c0-0.755-0.517-1.391-1.403-1.391
		S475.142,71.068,475.142,71.823z"/>
	<path fill="#808080" d="M483.849,74.893h-2.184v-9.955h2.184V74.893z"/>
	<path fill="#808080" d="M492.068,64.939v4.582h0.022c0.504-0.672,1.115-0.983,1.968-0.983c1.56,0,2.313,1.031,2.313,2.59v3.766
		h-2.183V71.74c0-0.72-0.108-1.463-0.983-1.463c-0.863,0-1.14,0.744-1.14,1.463v3.154h-2.185v-9.955H492.068L492.068,64.939z"/>
	<path fill="#808080" d="M504.332,72.183h-4.594c0,0.887,0.468,1.367,1.367,1.367c0.468,0,0.804-0.156,1.044-0.563h2.099
		c-0.348,1.451-1.727,2.111-3.13,2.111c-2.039,0-3.562-1.151-3.562-3.274c0-2.051,1.402-3.286,3.405-3.286
		c2.136,0,3.37,1.319,3.37,3.418L504.332,72.183L504.332,72.183z M502.306,70.924c-0.107-0.588-0.647-0.972-1.234-0.972
		c-0.637,0-1.164,0.336-1.296,0.972H502.306z"/>
	<path fill="#808080" d="M512.319,74.893h-2.185v-0.684h-0.022c-0.385,0.612-1.141,0.888-1.859,0.888
		c-1.821,0-3.104-1.523-3.104-3.287c0-1.763,1.26-3.274,3.082-3.274c0.707,0,1.451,0.264,1.906,0.804v-0.6h2.185L512.319,74.893
		L512.319,74.893z M507.401,71.823c0,0.78,0.516,1.379,1.402,1.379c0.888,0,1.402-0.6,1.402-1.379c0-0.755-0.516-1.391-1.402-1.391
		S507.401,71.068,507.401,71.823z"/>
	<path fill="#808080" d="M516.108,74.893h-2.185v-9.955h2.185V74.893z"/>
	<path fill="#808080" d="M520.189,74.893h-2.185v-4.354h-0.708V68.74h0.708v-1.847h2.185v1.847h1.233v1.799h-1.233V74.893z"/>
	<path fill="#808080" d="M524.586,64.939v4.582h0.024c0.503-0.672,1.114-0.983,1.967-0.983c1.56,0,2.313,1.031,2.313,2.59v3.766
		h-2.184V71.74c0-0.72-0.107-1.463-0.982-1.463c-0.862,0-1.141,0.744-1.141,1.463v3.154h-2.183v-9.955H524.586L524.586,64.939z"/>
	<path fill="#808080" d="M455.354,90.893h-2.184v-4.354h-0.768V84.74h0.768v-0.779c0-0.852,0.024-1.475,0.624-2.159
		c0.539-0.636,1.318-0.983,2.146-0.983c0.336,0,0.636,0.06,0.936,0.216v1.883c-0.252-0.108-0.479-0.204-0.768-0.204
		c-0.563,0-0.757,0.336-0.757,1.032v0.995h1.522v1.799h-1.522L455.354,90.893L455.354,90.893z"/>
	<path fill="#808080" d="M464.604,90.893h-2.185v-0.684h-0.021c-0.385,0.612-1.142,0.888-1.859,0.888
		c-1.822,0-3.105-1.523-3.105-3.287c0-1.763,1.261-3.274,3.083-3.274c0.707,0,1.45,0.264,1.905,0.804v-0.6h2.186L464.604,90.893
		L464.604,90.893z M459.688,87.823c0,0.78,0.516,1.379,1.401,1.379c0.888,0,1.403-0.6,1.403-1.379c0-0.755-0.517-1.391-1.403-1.391
		S459.688,87.068,459.688,87.823z"/>
	<path fill="#808080" d="M470.7,86.744c-0.324-0.24-0.708-0.432-1.128-0.432c-0.839,0-1.499,0.648-1.499,1.499
		c0,0.888,0.636,1.511,1.535,1.511c0.384,0,0.804-0.156,1.092-0.419v1.847c-0.479,0.24-1.008,0.348-1.535,0.348
		c-1.822,0-3.347-1.355-3.347-3.214c0-1.979,1.512-3.346,3.441-3.346c0.504,0,1.008,0.12,1.438,0.36L470.7,86.744L470.7,86.744z"/>
	<path fill="#808080" d="M474.519,82.378c0,0.671-0.553,1.223-1.225,1.223c-0.671,0-1.223-0.552-1.223-1.223
		c0-0.672,0.552-1.224,1.223-1.224C473.967,81.155,474.519,81.706,474.519,82.378z M474.387,90.893h-2.184V84.74h2.184V90.893z"/>
	<path fill="#808080" d="M478.155,90.893h-2.184v-9.955h2.184V90.893z"/>
	<path fill="#808080" d="M482.057,82.378c0,0.671-0.553,1.223-1.225,1.223c-0.671,0-1.223-0.552-1.223-1.223
		c0-0.672,0.552-1.224,1.223-1.224C481.505,81.155,482.057,81.706,482.057,82.378z M481.926,90.893h-2.184V84.74h2.184V90.893z"/>
	<path fill="#808080" d="M485.974,90.893h-2.184v-4.354h-0.708V84.74h0.708v-1.847h2.184v1.847h1.234v1.799h-1.234V90.893z"/>
	<path fill="#808080" d="M487.607,84.741h2.519l1.644,3.154l1.606-3.154h2.482l-4.93,9.223h-2.446l2.1-3.91L487.607,84.741z"/>
</g>
<g>
	<rect x="463.406" y="186.317" fill="#FFFFFF" width="75.443" height="47.257"/>
	<g>
		<g>
			<path d="M484.326,221.153h-0.01l-0.48,2.722h-0.531l0.842-4.295l1.414,3.245l1.415-3.245l0.842,4.295h-0.529l-0.481-2.722h-0.012
				l-1.235,2.81L484.326,221.153z"/>
			<path d="M488.305,219.755h2.213v0.47h-1.699v1.154h1.65v0.469h-1.65v1.557h1.699v0.471h-2.213V219.755z"/>
			<path d="M491.096,219.755h0.852c1.261,0,2.311,0.665,2.311,2.038c0,1.404-1.027,2.082-2.328,2.082h-0.834V219.755z
				 M491.607,223.404h0.18c1.051,0,1.955-0.393,1.955-1.588c0-1.202-0.904-1.592-1.955-1.592h-0.18V223.404z"/>
			<path d="M495.326,223.875h-0.514v-4.12h0.514V223.875z"/>
			<path d="M499.131,220.541c-0.297-0.263-0.699-0.404-1.088-0.404c-0.922,0-1.628,0.77-1.628,1.684c0,0.902,0.699,1.67,1.618,1.67
				c0.404,0,0.791-0.152,1.098-0.426v0.607c-0.316,0.188-0.721,0.291-1.082,0.291c-1.176,0-2.146-0.935-2.146-2.127
				c0-1.219,0.977-2.17,2.188-2.17c0.363,0,0.729,0.089,1.041,0.28v0.597h-0.002V220.541z"/>
			<path d="M504.938,220.466h-0.012l-1.438,3.546l-1.434-3.546h-0.01l-0.705,3.409h-0.25l0.884-4.257l1.515,3.747l1.518-3.747
				l0.885,4.257h-0.25L504.938,220.466z"/>
			<path d="M510.49,221.814c0,1.158-0.978,2.115-2.135,2.115c-1.158,0-2.137-0.957-2.137-2.115s0.974-2.115,2.137-2.115
				C509.513,219.699,510.49,220.656,510.49,221.814z M506.48,221.814c0,1.016,0.846,1.869,1.875,1.869
				c1.021,0,1.875-0.859,1.875-1.869c0-1.016-0.854-1.869-1.875-1.869C507.326,219.945,506.48,220.799,506.48,221.814z"/>
			<path d="M511.224,223.875v-4.12h0.825c0.311,0,0.607,0.022,0.854,0.241c0.25,0.219,0.344,0.523,0.344,0.85
				c0,0.379-0.147,0.656-0.476,0.842c0.508,0.105,0.853,0.514,0.853,1.037c0,0.332-0.126,0.635-0.383,0.854
				c-0.289,0.244-0.595,0.294-0.962,0.294h-1.055V223.875L511.224,223.875z M511.486,221.622h0.453c0.279,0,0.503,0.017,0.737-0.151
				c0.235-0.17,0.306-0.379,0.306-0.662c0-0.268-0.103-0.531-0.338-0.678c-0.207-0.133-0.464-0.133-0.705-0.133h-0.453V221.622z
				 M511.486,223.627h0.629c0.288,0,0.588,0.014,0.84-0.158c0.25-0.168,0.402-0.426,0.402-0.732c0-0.299-0.146-0.6-0.424-0.736
				c-0.252-0.125-0.596-0.132-0.871-0.132h-0.578v1.759H511.486z"/>
			<path d="M514.637,223.875h-0.262v-4.12h0.262V223.875z"/>
			<path d="M515.863,223.627h1.049v0.245H515.6v-4.117h0.264V223.627z"/>
			<path d="M517.712,220v1.498h1.659v0.246h-1.659v1.883h1.704v0.245h-1.967v-4.118h1.967v0.243h-1.704V220z"/>
		</g>
		<rect x="467.662" y="190.586" fill="#58595B" width="66.929" height="3.793"/>
		<rect x="467.662" y="194.379" fill="#64A2C8" width="66.929" height="2.275"/>
		<path fill="#58595B" d="M505.906,204.7c-0.019-0.594-0.477-0.401-0.631-0.353c0.62-0.385,1.152-1.514,1.012-2.004
			c-0.109-0.379-0.359-0.25-0.665,0.049c0.896-2.021-0.431-3.106-0.431-3.105c-0.229-0.15-0.391,0.051-0.389,0.352
			c0.047,2.432-1.729,3.838-3.672,5.002c-1.457,0.942-1.975,2.529-2.152,3.662c-0.045,0.141-0.15,0.072-0.2,0.03l-1.122-1.273
			c-0.121-0.14-0.295-0.204-0.467-0.2c-0.131,0.005-0.266,0.052-0.371,0.148l-0.051,0.045v-0.001l-0.002,0.001l-0.27-0.309
			c-0.078-0.09-0.189-0.138-0.296-0.139c-0.083,0-0.163,0.025-0.227,0.082l-0.149,0.131c-0.147,0.132-0.152,0.366-0.01,0.527
			l0.27,0.309l-1.845,1.627c-0.247,0.217-0.269,0.591-0.054,0.84l6.395,7.244c0.119,0.14,0.292,0.207,0.463,0.202
			c0.135-0.005,0.268-0.052,0.375-0.148l2.578-2.276c0.244-0.215,0.268-0.591,0.051-0.838l-2.163-2.449
			c0-0.002-0.001-0.004-0.003-0.006c-0.079-0.127,0.144-0.104,0.144-0.104v-0.003c0.351,0.013,0.61-0.067,0.796-0.191
			c0.278-0.188-0.041-0.327-0.089-0.462c0.431,0.205,1.28,0.031,1.492-0.242c0.164-0.213-0.118-0.304-0.391-0.366
			c0.683-0.317,1.231-0.636,1.523-1.392c0.173-0.443-0.3-0.455-0.772-0.275c0.387-0.387,0.772-0.911,0.965-1.582
			c0.219-0.764-0.067-1.145-0.68-0.633C505.427,206.051,505.928,205.326,505.906,204.7z M499.544,210.471l-2.229,1.964
			c-0.066,0.06-0.169,0.055-0.229-0.013l-2.046-2.322c-0.059-0.064-0.052-0.169,0.015-0.229l2.227-1.965
			c0.067-0.059,0.172-0.051,0.231,0.014l2.044,2.322C499.615,210.309,499.611,210.41,499.544,210.471z"/>
		<rect x="491.178" y="191.346" fill="#64A2C8" width="4.551" height="3.033"/>
		<rect x="497.246" y="191.346" fill="#CC8C21" width="4.551" height="3.033"/>
		<rect x="503.314" y="191.346" fill="#78B1B1" width="4.551" height="3.033"/>
		<g>
			<path fill="#B3B3B3" d="M538.85,186.317h-75.443v47.257h75.443V186.317z M534.58,229.309h-66.9V190.59h66.9V229.309z
				 M534.58,229.309"/>
			<path fill="#B3B3B3" d="M458.898,236.637c0,0,1.695,8.227,7.762,8.227v0.004h68.934v-0.004c6.068,0,7.763-8.227,7.763-8.227
				H458.898z M509.012,242.045h-15.769v-2.586h15.769V242.045z M509.012,242.045"/>
			<path fill="#B3B3B3" d="M515.984,217.625"/>
		</g>
	</g>
</g>
<g>
	<g>
		<path fill="#B3B3B3" d="M279.326,157.357c-1.328,0-2.408-1.078-2.408-2.406v-3.033c0-1.338-1.076-2.414-2.412-2.414h-1.609
			c-1.33,0-2.406,1.076-2.406,2.414v3.033c0,1.328-1.084,2.406-2.414,2.406h-15.273c-1.336,0-2.414,1.082-2.414,2.414v54.317
			c0,1.337,1.078,2.415,2.414,2.415h26.523c1.332,0,2.416-1.078,2.416-2.415v-54.317
			C281.742,158.439,280.663,157.357,279.326,157.357L279.326,157.357z"/>
		<path fill="#FFFFFF" d="M255.664,204.09c0-1.332,1.076-2.412,2.414-2.412c1.33,0,2.408,1.08,2.408,2.412s-1.078,2.416-2.408,2.416
			C256.74,206.506,255.664,205.422,255.664,204.09L255.664,204.09z"/>
		<path fill="#FFFFFF" d="M258.078,193.693c1.33,0,2.408,1.078,2.408,2.406c0,1.33-1.078,2.415-2.408,2.415
			c-1.338,0-2.414-1.085-2.414-2.415C255.664,194.771,256.74,193.693,258.078,193.693L258.078,193.693z"/>
		<path fill="#FFFFFF" d="M255.664,188.111c0-1.331,1.076-2.408,2.414-2.408c1.33,0,2.408,1.077,2.408,2.408
			c0,1.334-1.078,2.412-2.408,2.412C256.74,190.523,255.664,189.445,255.664,188.111L255.664,188.111z"/>
		<path fill="#FFFFFF" d="M270.961,212.398h-10.098c-0.666,0-1.208-0.537-1.208-1.2c0-0.673,0.542-1.21,1.208-1.21h10.098
			c0.671,0,1.205,0.537,1.205,1.21C272.166,211.861,271.632,212.398,270.961,212.398L270.961,212.398z"/>
		<path fill="#FFFFFF" d="M265.914,193.693c1.332,0,2.408,1.078,2.408,2.406c0,1.33-1.076,2.415-2.408,2.415
			c-1.336,0-2.414-1.085-2.414-2.415C263.5,194.771,264.578,193.693,265.914,193.693L265.914,193.693z"/>
		<path fill="#FFFFFF" d="M263.5,188.111c0-1.331,1.078-2.408,2.414-2.408c1.332,0,2.408,1.077,2.408,2.408
			c0,1.334-1.076,2.412-2.408,2.412C264.578,190.523,263.5,189.445,263.5,188.111L263.5,188.111z"/>
		<path fill="#FFFFFF" d="M265.914,201.678c1.332,0,2.408,1.08,2.408,2.412s-1.076,2.416-2.408,2.416
			c-1.336,0-2.414-1.084-2.414-2.416S264.578,201.678,265.914,201.678L265.914,201.678z"/>
		<path fill="#FFFFFF" d="M273.75,206.506c-1.328,0-2.412-1.084-2.412-2.416s1.084-2.412,2.412-2.412
			c1.332,0,2.416,1.08,2.416,2.412S275.082,206.506,273.75,206.506L273.75,206.506z"/>
		<path fill="#FFFFFF" d="M273.75,198.515c-1.328,0-2.412-1.085-2.412-2.415c0-1.328,1.084-2.406,2.412-2.406
			c1.332,0,2.416,1.078,2.416,2.406C276.166,197.43,275.082,198.515,273.75,198.515L273.75,198.515z"/>
		<path fill="#FFFFFF" d="M273.75,190.523c-1.328,0-2.412-1.078-2.412-2.412c0-1.331,1.084-2.408,2.412-2.408
			c1.332,0,2.416,1.077,2.416,2.408C276.166,189.445,275.082,190.523,273.75,190.523L273.75,190.523z"/>
		<path fill="#FFFFFF" d="M277.674,178.73c0,1.332-1.084,2.409-2.416,2.409h-18.387c-1.337,0-2.414-1.077-2.414-2.409v-13.299
			c0-1.332,1.077-2.41,2.414-2.41h18.387c1.332,0,2.416,1.078,2.416,2.41V178.73z"/>
		<path fill="#FFFFFF" d="M277.674,178.73"/>
	</g>
	<path fill="#787878" d="M269.953,169.27c-0.016-0.426-0.344-0.29-0.453-0.254c0.444-0.275,0.828-1.088,0.727-1.438
		c-0.078-0.274-0.258-0.181-0.48,0.032c0.645-1.453-0.309-2.234-0.309-2.232c-0.164-0.109-0.281,0.036-0.277,0.252
		c0.031,1.749-1.246,2.761-2.643,3.598c-1.049,0.679-1.42,1.819-1.549,2.636c-0.032,0.101-0.106,0.051-0.145,0.021l-0.807-0.916
		c-0.088-0.1-0.211-0.148-0.335-0.143c-0.097,0.003-0.191,0.038-0.269,0.105l-0.035,0.031h-0.001h-0.001l-0.195-0.221
		c-0.058-0.064-0.137-0.1-0.213-0.1c-0.06,0-0.117,0.02-0.162,0.059l-0.109,0.098c-0.105,0.09-0.108,0.262-0.006,0.378l0.195,0.222
		l-1.328,1.17c-0.177,0.155-0.193,0.425-0.037,0.604l4.598,5.212c0.088,0.099,0.211,0.148,0.334,0.146
		c0.098-0.004,0.191-0.039,0.269-0.106l1.855-1.638c0.177-0.156,0.194-0.426,0.038-0.602l-1.555-1.766
		c-0.003-0.002-0.003-0.003-0.004-0.004c-0.057-0.092,0.105-0.073,0.105-0.073v-0.001c0.25,0.008,0.438-0.051,0.57-0.139
		c0.2-0.137-0.027-0.236-0.064-0.336c0.312,0.152,0.922,0.023,1.074-0.173c0.119-0.153-0.086-0.218-0.282-0.262
		c0.493-0.229,0.888-0.457,1.098-1.001c0.124-0.318-0.216-0.328-0.556-0.199c0.278-0.277,0.556-0.654,0.693-1.14
		c0.156-0.548-0.048-0.821-0.488-0.453C269.608,170.242,269.969,169.721,269.953,169.27z M265.375,173.421l-1.603,1.413
		c-0.048,0.043-0.122,0.039-0.165-0.01l-1.472-1.67c-0.042-0.049-0.038-0.123,0.011-0.164l1.602-1.414
		c0.049-0.042,0.123-0.038,0.166,0.012l1.472,1.666C265.428,173.304,265.424,173.378,265.375,173.421z"/>
</g>
<g>
	<g>
		<ellipse fill-rule="evenodd" clip-rule="evenodd" fill="#64A2C8" cx="219.534" cy="138.831" rx="9.996" ry="10.115"/>
		<path fill-rule="evenodd" clip-rule="evenodd" fill="#64A2C8" d="M239.458,164.045c-1.618-7.428-8.037-13.545-14.208-13.545
			h-5.179l-5.067,0.268c-6.171,0-12.59,5.987-14.207,13.416l-5.52,30.316c0,7,8.787,7,8.787,0l5.263-27.674l-0.315,22.479
			l-3.492,57.521c0,3.129,1.768,5.608,4.859,5.608c3.101,0,5.252-1.807,5.252-4.936l3.299-46.999h2.393l3.299,46.99
			c0,3.129,2.292,5.265,5.391,5.265c3.092,0,4.72-2.736,4.72-5.866l-3.491-57.607l-0.315-22.429l5.262,27.647c0,7,8.786,7,8.786,0
			L239.458,164.045z"/>
	</g>
	<g>
		
			<rect x="218.125" y="165.55" fill-rule="evenodd" clip-rule="evenodd" fill="#FFFFFF" stroke="#FFFFFF" stroke-width="0.3712" stroke-miterlimit="10" width="3.652" height="3.652"/>
		
			<rect x="218.125" y="158.271" fill-rule="evenodd" clip-rule="evenodd" fill="#FFFFFF" stroke="#FFFFFF" stroke-width="0.3712" stroke-miterlimit="10" width="3.652" height="3.652"/>
		
			<rect x="221.769" y="161.906" fill-rule="evenodd" clip-rule="evenodd" fill="#FFFFFF" stroke="#FFFFFF" stroke-width="0.3712" stroke-miterlimit="10" width="3.652" height="3.652"/>
		
			<rect x="218.125" y="161.906" fill-rule="evenodd" clip-rule="evenodd" fill="#FFFFFF" stroke="#FFFFFF" stroke-width="0.3712" stroke-miterlimit="10" width="3.652" height="3.652"/>
		
			<rect x="214.463" y="161.906" fill-rule="evenodd" clip-rule="evenodd" fill="#FFFFFF" stroke="#FFFFFF" stroke-width="0.3712" stroke-miterlimit="10" width="3.652" height="3.652"/>
	</g>
</g>
<g>
	<path fill="#89AC96" d="M426.507,130.976c4.782,0,9.022,2.169,11.745,5.556l6.205-11.506c-4.609-4.874-13.133-7.787-18.195-7.787
		c-5.268,0-12.393,2.891-17.723,8.039l6.329,11.144C417.585,133.104,421.783,130.976,426.507,130.976z M435.654,143.096
		c0,5.125-4.098,9.276-9.162,9.276c-5.062,0-9.154-4.151-9.154-9.276c0-5.127,4.09-9.278,9.154-9.278
		C431.557,133.817,435.654,137.969,435.654,143.096z M456.715,191.506c1.771,6.344-6.193,9.807-8.087,3.629l-4.794-15.094
		l-4.122-8.695h-2.376l13.807,46.907h-15.909v31.944c0,3.352-0.634,5.391-3.493,5.379c-3.094,0.012-3.312-1.893-3.312-5.275
		l-0.204-32.048h-3.93l-0.132,32.048c0,3.383-0.302,5.158-3.112,5.148c-2.6,0.01-3.219-1.9-3.219-5.253v-31.943h-15.707
		l13.806-46.907h-2.376l-4.122,8.953l-4.792,14.574c-1.896,6.179-9.859,4.001-8.091-2.342l8.851-28.365
		c1.094-3.314,5.025-7.196,12.23-7.196h0.575h16.854h0.574c7.205,0,11.136,3.847,12.23,7.161L456.715,191.506z"/>
	<g>
		
			<rect x="424.877" y="125.838" fill-rule="evenodd" clip-rule="evenodd" fill="#FFFFFF" stroke="#FFFFFF" stroke-width="0.3245" stroke-miterlimit="10" width="3.191" height="3.193"/>
		
			<rect x="424.877" y="119.476" fill-rule="evenodd" clip-rule="evenodd" fill="#FFFFFF" stroke="#FFFFFF" stroke-width="0.3245" stroke-miterlimit="10" width="3.191" height="3.193"/>
		
			<rect x="428.062" y="122.652" fill-rule="evenodd" clip-rule="evenodd" fill="#FFFFFF" stroke="#FFFFFF" stroke-width="0.3245" stroke-miterlimit="10" width="3.192" height="3.193"/>
		
			<rect x="424.877" y="122.652" fill-rule="evenodd" clip-rule="evenodd" fill="#FFFFFF" stroke="#FFFFFF" stroke-width="0.3245" stroke-miterlimit="10" width="3.191" height="3.193"/>
		
			<rect x="421.675" y="122.652" fill-rule="evenodd" clip-rule="evenodd" fill="#FFFFFF" stroke="#FFFFFF" stroke-width="0.3245" stroke-miterlimit="10" width="3.193" height="3.193"/>
	</g>
</g>
</svg>
