<?xml version="1.0" standalone="no"?><!DOCTYPE svg PUBLIC "-//W3C//DTD SVG 1.1//EN" "http://www.w3.org/Graphics/SVG/1.1/DTD/svg11.dtd"><svg width="100%" height="100%" viewBox="0 0 733 632" version="1.1" xmlns="http://www.w3.org/2000/svg" xmlns:xlink="http://www.w3.org/1999/xlink" xml:space="preserve" style="fill-rule:evenodd;clip-rule:evenodd;stroke-linejoin:round;stroke-miterlimit:1.41421;"><g id="Tree"><g id="Layer 1"><path d="M561.674,318.973c0.0199275,-0.0199275 41.6883,-0.039855 41.6883,-0.039855c-1.34511,6.77535 -5.54981,18.7155 -18.5326,29.2272c-19.7183,15.9719 -52.6385,24.0625 -97.864,24.0625c-19.3795,0 -34.5941,5.97825 -46.5208,18.2934c-17.8152,18.403 -24.74,46.9691 -27.4202,67.8233l9.94382,159.789l0,0.039855c0,7.43296 -29.2536,13.4411 -65.3423,13.4411c-36.0887,0 -65.3522,-6.00814 -65.3522,-13.4411c0,-0.00996375 0.00996375,-0.0199275 0.00996375,-0.039855l-0.0298913,0l13.9891,-206.967l-0.0996375,-0.00996375c0.0199275,-0.587861 1.65398,-62.4628 -29.0443,-94.1774c-11.9166,-12.3152 -27.1413,-18.2835 -46.5208,-18.2835c-45.2255,0 -78.1457,-8.11049 -97.864,-24.0625c-13.74,-11.1395 -17.9383,-23.8322 -19.0244,-30.4182l40.4927,0.00996375c1.33514,1.22554 3.35141,3.22713 5.62315,4.61209c9.79437,5.97825 30.0208,13.0924 70.7725,13.0924c29.5126,0 54.0832,9.96375 73.0343,29.6123c13.1322,13.6105 21.8904,30.3695 27.7391,47.0389c0.777173,-15.2047 3.27807,-28.855 7.47281,-40.7517c2.82971,-8.04075 6.47644,-15.3342 10.8505,-21.8505c-9.06701,-4.41394 -18.3732,-10.5317 -26.9519,-19.0308c-3.75633,-3.74637 -7.86059,-7.38327 -10.3324,-12.0661c-4.91047,-9.30282 -15.4699,-28.9845 -19.1304,-43.7508c-1.4074,-5.67732 -1.52219,-16.8432 -2.1822,-22.8495l28.7008,0c2.97097,22.4747 10.2443,45.7477 23.0311,58.4599c8.97734,8.89763 19.2799,14.2083 28.4864,17.3867c4.55343,-3.09873 9.4556,-5.74908 14.6965,-7.87136c26.3342,-10.731 48.5633,-26.1947 64.2562,-44.7372c10.442,-12.3152 17.307,-25.9336 19.9175,-38.1392l58.537,-0.00996375c-5.54981,54.5117 -52.7481,108.752 -120.87,136.501c-23.6141,9.61502 -20.9239,59.3043 -14.0788,94.2272c5.19111,-10.4121 11.7772,-20.3559 20.1367,-29.0344c18.961,-19.6485 43.5416,-29.6023 73.0542,-29.6023c47.9755,0 67.4147,-10.5552 74.7281,-16.4836Z" style="fill:#d0b069;"/><path d="M700.868,318.904l-241.033,0c10.2228,-22.6277 33.7871,-41.2499 64.4057,-51.6421c5.52988,-12.8732 22,-22.2092 41.4592,-22.2092c15.3143,0 28.7753,5.78894 36.5072,14.5272c8.91756,1.07609 17.4963,2.76992 25.6567,5.04166c4.95198,-2.37137 10.8306,-3.74637 17.1576,-3.74637c17.5163,0 31.7246,10.5118 31.7246,23.4945c0,1.39493 -0.189311,2.75996 -0.488224,4.0951c11,8.79799 19.4791,19.1204 24.6105,30.4393ZM254.163,178.484c14.5072,6.00814 38.7116,20.4436 39.0974,22c3.66055,14.7663 14.2199,34.448 19.1304,43.7508c0.257786,0.488372 0.533326,0.965367 0.825334,1.43174c-0.358988,-0.473485 -0.713399,-0.95081 -1.06408,-1.43174l-311.746,-0.00996375c8.84781,-19.6087 25.0489,-37.0253 46.4112,-50.7554c-2.59058,-4.57336 -4.01539,-9.5652 -4.01539,-14.7862c0,-22.0597 25.2282,-39.9248 56.355,-39.9248c11.7473,0 22.6277,2.54076 31.6449,6.89492c9.66484,-9.5652 21.2826,-18.1141 34.4746,-25.4076c2.57065,-12.1558 15.5634,-21.4121 31.2264,-21.4121c5.38043,0 10.442,1.09601 14.8759,3.01902c20.1866,-5.45017 42.1965,-8.45923 65.2526,-8.45923c9.27625,0 18.3831,0.488224 27.2808,1.42482c3.12862,-1.88315 6.98459,-3.02898 11.1793,-3.02898c6.85506,0 12.8333,2.98913 16.1114,7.45289c0.109601,0.0298913 0.209239,0.0498188 0.308876,0.0697463c27.5498,-19.7482 62.3133,-34.7835 101.431,-43.1331c-0.199275,-0.87681 -0.348731,-1.75362 -0.468296,-2.64039c-3.08876,-24.451 21.5018,-47.7164 54.97,-51.961c27.1014,-3.43749 51.7019,6.67571 61.7055,23.634c5.27082,-0.986411 10.8904,-1.52445 16.7092,-1.52445c31.1268,0 56.355,15.2445 56.355,34.0461c0,3.88586 -1.08605,7.61231 -3.0788,11.0797c53.6548,20.1467 94.7055,53.9637 113.049,94.566l-294.907,0.00996375c3.31793,4.87227 6.17753,9.91393 8.50904,15.105l-191.623,-0.00996375Z" style="fill:#5c8561;"/></g></g></svg>