<?xml version="1.0" standalone="no"?><!DOCTYPE svg PUBLIC "-//W3C//DTD SVG 1.1//EN" "http://www.w3.org/Graphics/SVG/1.1/DTD/svg11.dtd"><svg width="100%" height="100%" viewBox="0 0 60 56" version="1.1" xmlns="http://www.w3.org/2000/svg" xmlns:xlink="http://www.w3.org/1999/xlink" xml:space="preserve" style="fill-rule:evenodd;clip-rule:evenodd;stroke-linejoin:round;stroke-miterlimit:1.41421;"><g id="resources"><path d="M60,11.293c0,-5.992 -4.858,-10.849 -10.85,-10.849l-38.3,0c-5.992,0 -10.85,4.857 -10.85,10.849l0,21.7c0,5.992 4.858,10.85 10.85,10.85l3.398,0l0.072,11.713l13.892,-11.713l20.938,0c5.992,0 10.85,-4.858 10.85,-10.85l0,-21.7ZM25.918,30.548l0,6.463l6.383,0l0,-6.463l-6.383,0ZM19.374,16.701l5.975,0c0,-0.756 0.082,-1.462 0.244,-2.12c0.163,-0.657 0.413,-1.23 0.752,-1.72c0.339,-0.49 0.773,-0.881 1.301,-1.175c0.529,-0.294 1.159,-0.441 1.89,-0.441c1.084,0 1.931,0.308 2.541,0.924c0.61,0.615 0.915,1.566 0.915,2.853c0.027,0.755 -0.102,1.385 -0.387,1.888c-0.284,0.504 -0.657,0.966 -1.117,1.385c-0.461,0.42 -0.963,0.839 -1.505,1.259c-0.542,0.42 -1.056,0.916 -1.544,1.49c-0.488,0.573 -0.915,1.266 -1.281,2.077c-0.366,0.811 -0.589,1.818 -0.67,3.021l0,1.889l5.487,0l0,-1.595c0.109,-0.839 0.373,-1.539 0.793,-2.098c0.42,-0.56 0.901,-1.056 1.443,-1.49c0.542,-0.433 1.118,-0.867 1.728,-1.301c0.609,-0.433 1.165,-0.958 1.666,-1.573c0.502,-0.616 0.922,-1.357 1.261,-2.224c0.338,-0.868 0.508,-1.973 0.508,-3.315c0,-0.812 -0.17,-1.686 -0.508,-2.623c-0.339,-0.937 -0.902,-1.811 -1.687,-2.623c-0.786,-0.811 -1.823,-1.489 -3.11,-2.035c-1.287,-0.545 -2.893,-0.818 -4.817,-0.818c-1.491,0 -2.839,0.259 -4.045,0.776c-1.206,0.518 -2.236,1.238 -3.089,2.161c-0.854,0.923 -1.518,2.014 -1.992,3.273c-0.475,1.259 -0.725,2.644 -0.752,4.155Z" style="fill:#ebebeb;"/></g></svg>