<?xml version="1.0" encoding="utf-8"?>
<!-- Generator: Adobe Illustrator 15.0.0, SVG Export Plug-In . SVG Version: 6.00 Build 0)  -->
<!DOCTYPE svg PUBLIC "-//W3C//DTD SVG 1.1//EN" "http://www.w3.org/Graphics/SVG/1.1/DTD/svg11.dtd">
<svg version="1.1" id="Layer_1" xmlns="http://www.w3.org/2000/svg" xmlns:xlink="http://www.w3.org/1999/xlink" x="0px" y="0px"
	 width="600px" height="330px" viewBox="0 0 600 330" enable-background="new 0 0 600 330" xml:space="preserve">
<g>
	<g>
		<path fill="none" stroke="#B3B3B3" stroke-width="2" stroke-miterlimit="10" d="M173.869,161.247
			c0.796-0.635,1.59-1.242,2.383-1.823"/>
		<path fill="none" stroke="#B3B3B3" stroke-width="2" stroke-miterlimit="10" stroke-dasharray="6.4533,6.4533" d="M181.63,155.853
			c18.729-11.167,35.935-8.504,46.554-4.694"/>
		<path fill="none" stroke="#B3B3B3" stroke-width="2" stroke-miterlimit="10" d="M231.188,152.332
			c0.992,0.42,1.903,0.839,2.727,1.241"/>
		<g>
			<path fill="#B3B3B3" d="M239.155,156.56c-2.992-0.47-6.945-0.624-9.781-0.031l3.826-3.307l0.824-4.989
				C234.998,150.961,237.193,154.252,239.155,156.56z"/>
		</g>
	</g>
</g>
<g>
	<g>
		<path fill="none" stroke="#B3B3B3" stroke-width="2" stroke-miterlimit="10" d="M243.113,209.452
			c-0.688,0.75-1.379,1.474-2.071,2.17"/>
		<path fill="none" stroke="#B3B3B3" stroke-width="2" stroke-miterlimit="10" stroke-dasharray="6.4533,6.4533" d="
			M236.282,215.982c-16.771,13.937-34.181,13.973-45.263,11.854"/>
		<path fill="none" stroke="#B3B3B3" stroke-width="2" stroke-miterlimit="10" d="M187.869,227.145
			c-1.045-0.262-2.01-0.535-2.885-0.804"/>
		<g>
			<path fill="#B3B3B3" d="M179.343,224.203c3.029,0,6.958-0.46,9.668-1.486l-3.267,3.861l-0.042,5.056
				C184.317,229.089,181.639,226.178,179.343,224.203z"/>
		</g>
	</g>
</g>
<g>
	<g>
		<path fill="none" stroke="#B3B3B3" stroke-width="2" stroke-miterlimit="10" d="M350.501,179.5c0.977-0.289,1.94-0.555,2.892-0.8"
			/>
		<path fill="none" stroke="#B3B3B3" stroke-width="2" stroke-miterlimit="10" stroke-dasharray="5.7828,5.7828" d="
			M359.047,177.466c25.98-4.621,41.604,7.408,49.54,16.795"/>
		<path fill="none" stroke="#B3B3B3" stroke-width="2" stroke-miterlimit="10" d="M410.392,196.514
			c0.651,0.858,1.231,1.678,1.744,2.438"/>
		<g>
			<path fill="#B3B3B3" d="M415.168,204.167c-2.353-1.908-5.693-4.026-8.444-4.937l4.974-0.94l3.217-3.899
				C414.383,197.238,414.629,201.186,415.168,204.167z"/>
		</g>
	</g>
</g>
<g>
	<g>
		<path fill="none" stroke="#B3B3B3" stroke-width="2" stroke-miterlimit="10" d="M403.268,241.027
			c-0.992,0.213-1.978,0.404-2.941,0.576"/>
		<path fill="none" stroke="#B3B3B3" stroke-width="2" stroke-miterlimit="10" stroke-dasharray="5.7828,5.7828" d="
			M394.592,242.398c-26.259,2.615-40.912-10.576-48.104-20.545"/>
		<path fill="none" stroke="#B3B3B3" stroke-width="2" stroke-miterlimit="10" d="M344.858,219.471
			c-0.583-0.906-1.104-1.768-1.556-2.562"/>
		<g>
			<path fill="#B3B3B3" d="M340.683,211.475c2.199,2.082,5.368,4.45,8.04,5.569L343.7,217.6l-3.507,3.646
				C340.934,218.441,340.992,214.486,340.683,211.475z"/>
		</g>
	</g>
</g>
<g>
	<polygon fill="#576E60" points="365,47.5 354,47.5 354,63.161 334.275,47.157 285,87.551 285,93.5 383,93.5 383,87.551 365,72.96 	
		"/>
	<path fill="#576E60" d="M294,97.5v62h33v-22h14v22h34v-62h-40.854H294z M347,112.5v8h-9v9h-8v-9h-9v-8h9v-9h8v9H347z"/>
</g>
<g>
	<polygon fill="#CC8C21" points="84.5,91.5 76.5,91.5 76.5,102.786 62.842,91.583 28.5,119.858 28.5,124.5 96.5,124.5 96.5,119.858 
		84.5,109.645 	"/>
	<path fill="#CC8C21" d="M34.5,126.5v44h23v-16h10v16h24v-44H62.598H34.5z M71.5,137.5v5h-6v7h-6v-7h-6v-5h6v-6h6v6H71.5z"/>
</g>
<rect x="56.579" y="223.5" fill="#CC8C21" width="36" height="32"/>
<polygon fill="#CC8C21" points="74.651,222.5 79.717,222.5 81.376,224.5 84.795,224.5 81.284,220.5 74.651,220.5 67.876,220.5 
	64.364,224.5 67.786,224.5 69.442,222.5 "/>
<g>
	<circle fill="#FFFFFF" cx="69.916" cy="234.632" r="1.479"/>
	<circle fill="#FFFFFF" cx="74.866" cy="234.632" r="1.479"/>
	<circle fill="#FFFFFF" cx="69.916" cy="239.264" r="1.479"/>
	<circle fill="#FFFFFF" cx="74.866" cy="239.264" r="1.479"/>
	<circle fill="#FFFFFF" cx="69.916" cy="243.862" r="1.479"/>
	<path fill="#FFFFFF" d="M83.809,244.544h-5.183v-14.492H66.155v18.388h6.862c0.256,1.606,1.639,2.845,3.314,2.845h7.477
		c1.859,0,3.37-1.515,3.37-3.369C87.179,246.055,85.667,244.544,83.809,244.544z M66.791,230.688h11.202v13.857h-1.661
		c-0.059,0-0.113,0.014-0.17,0.016c0.113-0.207,0.186-0.44,0.186-0.694c0-0.817-0.662-1.479-1.481-1.479
		c-0.816,0-1.48,0.662-1.48,1.479c0,0.618,0.386,1.147,0.929,1.366c-0.788,0.599-1.308,1.521-1.341,2.576h-6.183L66.791,230.688
		L66.791,230.688z M76.332,250.646c-1.508,0-2.734-1.229-2.734-2.735c0-1.507,1.227-2.733,2.734-2.733h3.498l0.026,5.469H76.332
		L76.332,250.646z"/>
</g>
<g>
	<path d="M150.886,105.685c-0.432-0.36-0.983-0.6-1.559-0.6c-0.432,0-1.008,0.252-1.008,0.755c0,0.528,0.636,0.732,1.044,0.864
		l0.6,0.18c1.259,0.372,2.23,1.007,2.23,2.471c0,0.899-0.216,1.823-0.936,2.435c-0.707,0.6-1.655,0.852-2.566,0.852
		c-1.14,0-2.255-0.384-3.179-1.031l1.008-1.895c0.588,0.516,1.283,0.936,2.087,0.936c0.552,0,1.14-0.276,1.14-0.912
		c0-0.66-0.924-0.887-1.428-1.031c-1.475-0.42-2.446-0.804-2.446-2.555c0-1.835,1.308-3.034,3.118-3.034
		c0.911,0,2.027,0.288,2.83,0.744L150.886,105.685z"/>
	<path d="M155.846,112.401h-2.183v-4.354h-0.708v-1.799h0.708v-1.847h2.183v1.847h1.235v1.799h-1.235V112.401z"/>
	<path d="M165.019,109.331c0,2.087-1.728,3.274-3.706,3.274c-1.967,0-3.706-1.176-3.706-3.274s1.728-3.286,3.706-3.286
		S165.019,107.232,165.019,109.331z M159.909,109.331c0,0.78,0.516,1.379,1.403,1.379s1.403-0.6,1.403-1.379
		c0-0.755-0.516-1.391-1.403-1.391S159.909,108.575,159.909,109.331z"/>
	<path d="M170.684,108.251c-0.324-0.24-0.708-0.432-1.127-0.432c-0.84,0-1.5,0.648-1.5,1.499c0,0.888,0.636,1.511,1.535,1.511
		c0.384,0,0.804-0.156,1.092-0.419v1.847c-0.479,0.24-1.008,0.348-1.535,0.348c-1.823,0-3.347-1.355-3.347-3.214
		c0-1.979,1.512-3.346,3.442-3.346c0.504,0,1.008,0.12,1.439,0.36L170.684,108.251L170.684,108.251z"/>
	<path d="M174.399,108.467l2.267-2.219h2.986l-3.082,2.843l3.274,3.31h-3.059l-2.387-2.507v2.507h-2.183v-9.955h2.183
		L174.399,108.467L174.399,108.467z"/>
	<path d="M187.252,107.256h0.024c0.419-0.756,1.139-1.091,1.99-1.091h0.42v2.099c-0.3-0.168-0.588-0.204-0.923-0.204
		c-1.212,0-1.512,0.804-1.512,1.859v2.482h-2.183v-6.153h2.183L187.252,107.256L187.252,107.256z"/>
	<path d="M197.103,109.69h-4.594c0,0.887,0.468,1.367,1.367,1.367c0.468,0,0.804-0.156,1.044-0.563h2.099
		c-0.348,1.451-1.727,2.111-3.13,2.111c-2.039,0-3.562-1.151-3.562-3.274c0-2.051,1.403-3.286,3.406-3.286
		c2.135,0,3.37,1.319,3.37,3.418V109.69L197.103,109.69z M195.076,108.431c-0.108-0.588-0.648-0.972-1.235-0.972
		c-0.636,0-1.164,0.336-1.296,0.972H195.076z"/>
	<path d="M200.478,106.944h0.024c0.396-0.612,1.14-0.899,1.859-0.899c1.835,0,3.105,1.535,3.105,3.298
		c0,1.775-1.259,3.262-3.082,3.262c-0.707,0-1.439-0.252-1.907-0.792v3.658h-2.183v-9.223h2.183L200.478,106.944L200.478,106.944z
		 M200.406,109.331c0,0.78,0.516,1.379,1.403,1.379c0.887,0,1.403-0.6,1.403-1.379c0-0.755-0.517-1.391-1.403-1.391
		C200.922,107.939,200.406,108.575,200.406,109.331z"/>
	<path d="M213.73,109.331c0,2.087-1.727,3.274-3.706,3.274c-1.967,0-3.706-1.176-3.706-3.274s1.728-3.286,3.706-3.286
		C212.004,106.044,213.73,107.232,213.73,109.331z M208.621,109.331c0,0.78,0.516,1.379,1.403,1.379c0.887,0,1.403-0.6,1.403-1.379
		c0-0.755-0.516-1.391-1.403-1.391C209.137,107.94,208.621,108.575,208.621,109.331z"/>
	<path d="M217.115,107.256h0.024c0.419-0.756,1.139-1.091,1.99-1.091h0.42v2.099c-0.3-0.168-0.588-0.204-0.923-0.204
		c-1.212,0-1.512,0.804-1.512,1.859v2.482h-2.183v-6.153h2.183L217.115,107.256L217.115,107.256z"/>
	<path d="M223.098,112.401h-2.183v-4.354h-0.708v-1.799h0.708v-1.847h2.183v1.847h1.235v1.799h-1.235V112.401z"/>
	<path d="M229.212,107.832c-0.336-0.18-0.804-0.3-1.175-0.3c-0.252,0-0.684,0.108-0.684,0.419c0,0.42,0.684,0.48,0.983,0.54
		c1.02,0.204,1.787,0.684,1.787,1.823c0,1.619-1.476,2.291-2.902,2.291c-0.876,0-1.739-0.252-2.483-0.708l0.792-1.523
		c0.443,0.312,1.188,0.624,1.727,0.624c0.276,0,0.684-0.132,0.684-0.468c0-0.479-0.684-0.503-1.367-0.684
		c-0.684-0.18-1.367-0.516-1.367-1.619c0-1.511,1.367-2.183,2.711-2.183c0.695,0,1.391,0.108,2.026,0.396L229.212,107.832z"/>
	<path d="M152.829,125.331c0,2.087-1.728,3.274-3.706,3.274c-1.967,0-3.706-1.176-3.706-3.274s1.728-3.286,3.706-3.286
		S152.829,123.232,152.829,125.331z M147.72,125.331c0,0.78,0.516,1.379,1.403,1.379c0.887,0,1.403-0.6,1.403-1.379
		c0-0.755-0.516-1.391-1.403-1.391C148.236,123.94,147.72,124.575,147.72,125.331z"/>
	<path d="M156.215,123.256h0.024c0.419-0.756,1.139-1.091,1.99-1.091h0.42v2.099c-0.3-0.168-0.588-0.204-0.923-0.204
		c-1.212,0-1.512,0.804-1.512,1.859v2.482h-2.183v-6.153h2.183L156.215,123.256L156.215,123.256z"/>
	<path d="M168.129,123.832c-0.336-0.18-0.804-0.3-1.175-0.3c-0.252,0-0.684,0.108-0.684,0.419c0,0.42,0.684,0.48,0.983,0.54
		c1.02,0.204,1.787,0.684,1.787,1.823c0,1.619-1.476,2.291-2.902,2.291c-0.876,0-1.739-0.252-2.483-0.708l0.792-1.523
		c0.443,0.312,1.188,0.624,1.727,0.624c0.276,0,0.684-0.132,0.684-0.468c0-0.479-0.684-0.503-1.367-0.684
		c-0.684-0.18-1.367-0.516-1.367-1.619c0-1.511,1.367-2.183,2.711-2.183c0.695,0,1.391,0.108,2.026,0.396L168.129,123.832z"/>
	<path d="M172.739,128.401h-2.183v-4.354h-0.708v-1.799h0.708v-1.847h2.183v1.847h1.235v1.799h-1.235V128.401z"/>
	<path d="M181.911,125.331c0,2.087-1.728,3.274-3.706,3.274c-1.967,0-3.706-1.176-3.706-3.274s1.728-3.286,3.706-3.286
		S181.911,123.232,181.911,125.331z M176.802,125.331c0,0.78,0.516,1.379,1.403,1.379c0.887,0,1.403-0.6,1.403-1.379
		c0-0.755-0.516-1.391-1.403-1.391C177.318,123.94,176.802,124.575,176.802,125.331z"/>
	<path d="M187.575,124.251c-0.324-0.24-0.708-0.432-1.128-0.432c-0.839,0-1.499,0.648-1.499,1.499c0,0.888,0.636,1.511,1.535,1.511
		c0.384,0,0.804-0.156,1.092-0.419v1.847c-0.479,0.24-1.008,0.348-1.535,0.348c-1.823,0-3.347-1.355-3.347-3.214
		c0-1.979,1.512-3.346,3.442-3.346c0.504,0,1.008,0.12,1.439,0.36L187.575,124.251L187.575,124.251z"/>
	<path d="M191.292,124.467l2.267-2.219h2.986l-3.082,2.843l3.274,3.31h-3.059l-2.387-2.507v2.507h-2.183v-9.955h2.183
		L191.292,124.467L191.292,124.467z"/>
	<path d="M204.107,125.331c0,2.087-1.727,3.274-3.706,3.274c-1.967,0-3.706-1.176-3.706-3.274s1.728-3.286,3.706-3.286
		C202.381,122.044,204.107,123.232,204.107,125.331z M198.998,125.331c0,0.78,0.516,1.379,1.403,1.379
		c0.887,0,1.403-0.6,1.403-1.379c0-0.755-0.516-1.391-1.403-1.391C199.514,123.94,198.998,124.575,198.998,125.331z"/>
	<path d="M207.432,122.248v3.287c0,0.779,0.192,1.331,1.092,1.331s1.091-0.552,1.091-1.331v-3.287h2.184v3.706
		c0,2.027-1.428,2.651-3.274,2.651c-1.848,0-3.274-0.624-3.274-2.651v-3.706H207.432z"/>
	<path d="M215.82,128.401h-2.183v-4.354h-0.708v-1.799h0.708v-1.847h2.183v1.847h1.235v1.799h-1.235V128.401z"/>
	<path d="M221.935,123.832c-0.336-0.18-0.804-0.3-1.175-0.3c-0.252,0-0.684,0.108-0.684,0.419c0,0.42,0.684,0.48,0.983,0.54
		c1.02,0.204,1.787,0.684,1.787,1.823c0,1.619-1.476,2.291-2.902,2.291c-0.876,0-1.739-0.252-2.483-0.708l0.792-1.523
		c0.443,0.312,1.188,0.624,1.727,0.624c0.276,0,0.684-0.132,0.684-0.468c0-0.479-0.684-0.503-1.367-0.684
		c-0.684-0.18-1.367-0.516-1.367-1.619c0-1.511,1.367-2.183,2.711-2.183c0.695,0,1.391,0.108,2.026,0.396L221.935,123.832z"/>
</g>
<g>
	<path d="M399.176,90.354c-0.432-0.36-0.979-0.6-1.559-0.6c-0.436,0-1.008,0.252-1.008,0.755c0,0.528,0.636,0.732,1.044,0.864
		l0.6,0.18c1.259,0.372,2.23,1.007,2.23,2.471c0,0.899-0.22,1.823-0.938,2.435c-0.707,0.6-1.655,0.852-2.562,0.852
		c-1.144,0-2.259-0.384-3.183-1.031l1.011-1.896c0.589,0.516,1.28,0.937,2.088,0.937c0.552,0,1.14-0.276,1.14-0.912
		c0-0.66-0.924-0.887-1.428-1.031c-1.479-0.42-2.446-0.804-2.446-2.555c0-1.835,1.308-3.034,3.118-3.034
		c0.911,0,2.023,0.288,2.83,0.744L399.176,90.354z"/>
	<path d="M404.136,97.07h-2.183v-4.354h-0.708v-1.799h0.708V89.07h2.183v1.847h1.235v1.799h-1.235V97.07z"/>
	<path d="M413.309,94c0,2.087-1.728,3.274-3.702,3.274c-1.971,0-3.706-1.176-3.706-3.274s1.728-3.286,3.706-3.286
		C411.581,90.714,413.309,91.901,413.309,94z M408.199,94c0,0.78,0.516,1.379,1.402,1.379c0.888,0,1.4-0.6,1.4-1.379
		c0-0.755-0.516-1.391-1.4-1.391C408.715,92.609,408.199,93.245,408.199,94z"/>
	<path d="M418.974,92.92c-0.32-0.24-0.708-0.432-1.127-0.432c-0.84,0-1.5,0.646-1.5,1.499c0,0.888,0.64,1.511,1.535,1.511
		c0.384,0,0.808-0.156,1.092-0.419v1.847c-0.479,0.24-1.008,0.348-1.531,0.348c-1.823,0-3.351-1.355-3.351-3.214
		c0-1.979,1.516-3.346,3.442-3.346c0.504,0,1.008,0.12,1.438,0.36L418.974,92.92L418.974,92.92z"/>
	<path d="M422.689,93.137l2.267-2.219h2.986l-3.082,2.843l3.271,3.312h-3.059l-2.388-2.507v2.507h-2.186v-9.955h2.186
		L422.689,93.137L422.689,93.137z"/>
	<path d="M435.542,91.925h0.024c0.419-0.756,1.139-1.091,1.986-1.091h0.42v2.099c-0.3-0.168-0.588-0.204-0.923-0.204
		c-1.212,0-1.512,0.804-1.512,1.859v2.482h-2.183v-6.153h2.183L435.542,91.925L435.542,91.925z"/>
	<path d="M445.394,94.36h-4.597c0,0.887,0.468,1.367,1.367,1.367c0.468,0,0.804-0.156,1.044-0.563h2.102
		c-0.351,1.451-1.729,2.111-3.133,2.111c-2.039,0-3.562-1.151-3.562-3.274c0-2.051,1.402-3.286,3.406-3.286
		c2.135,0,3.367,1.319,3.367,3.418v0.227H445.394z M443.366,93.101c-0.108-0.588-0.648-0.972-1.235-0.972
		c-0.636,0-1.164,0.336-1.296,0.972H443.366z"/>
	<path d="M448.769,91.613h0.023c0.396-0.612,1.14-0.899,1.859-0.899c1.835,0,3.104,1.535,3.104,3.298
		c0,1.775-1.259,3.262-3.082,3.262c-0.707,0-1.438-0.252-1.907-0.792v3.658h-2.183v-9.223h2.183v0.696H448.769z M448.696,94
		c0,0.78,0.516,1.379,1.399,1.379c0.891,0,1.403-0.6,1.403-1.379c0-0.755-0.517-1.391-1.403-1.391
		C449.212,92.609,448.696,93.245,448.696,94z"/>
	<path d="M462.021,94c0,2.087-1.729,3.274-3.706,3.274c-1.971,0-3.706-1.176-3.706-3.274s1.728-3.286,3.706-3.286
		S462.021,91.901,462.021,94z M456.911,94c0,0.78,0.516,1.379,1.403,1.379c0.887,0,1.399-0.6,1.399-1.379
		c0-0.755-0.516-1.391-1.399-1.391C457.427,92.609,456.911,93.245,456.911,94z"/>
	<path d="M465.405,91.925h0.021c0.419-0.756,1.143-1.091,1.99-1.091h0.42v2.099c-0.3-0.168-0.588-0.204-0.923-0.204
		c-1.212,0-1.512,0.804-1.512,1.859v2.482h-2.187v-6.153h2.187L465.405,91.925L465.405,91.925z"/>
	<path d="M471.388,97.07h-2.183v-4.354h-0.708v-1.799h0.708V89.07h2.183v1.847h1.235v1.799h-1.235V97.07z"/>
	<path d="M477.502,92.501c-0.336-0.18-0.804-0.3-1.175-0.3c-0.252,0-0.685,0.108-0.685,0.419c0,0.42,0.685,0.48,0.98,0.54
		c1.021,0.204,1.787,0.684,1.787,1.823c0,1.619-1.478,2.291-2.902,2.291c-0.876,0-1.735-0.252-2.479-0.708l0.792-1.523
		c0.439,0.312,1.188,0.624,1.727,0.624c0.276,0,0.688-0.132,0.688-0.468c0-0.479-0.688-0.503-1.367-0.684
		c-0.688-0.18-1.367-0.516-1.367-1.619c0-1.511,1.367-2.183,2.711-2.183c0.695,0,1.391,0.108,2.026,0.396L477.502,92.501z"/>
	<path d="M401.119,110c0,2.087-1.729,3.274-3.706,3.274c-1.967,0-3.706-1.176-3.706-3.274s1.728-3.286,3.706-3.286
		C399.391,106.714,401.119,107.901,401.119,110z M396.01,110c0,0.78,0.52,1.379,1.403,1.379s1.403-0.6,1.403-1.379
		c0-0.755-0.52-1.391-1.403-1.391S396.01,109.245,396.01,110z"/>
	<path d="M404.505,107.925h0.024c0.419-0.756,1.139-1.091,1.988-1.091h0.422v2.099c-0.304-0.168-0.592-0.204-0.927-0.204
		c-1.212,0-1.512,0.804-1.512,1.859v2.482h-2.183v-6.153h2.183L404.505,107.925L404.505,107.925z"/>
	<path d="M416.419,108.501c-0.336-0.18-0.804-0.3-1.175-0.3c-0.252,0-0.685,0.108-0.685,0.419c0,0.42,0.685,0.48,0.98,0.54
		c1.021,0.204,1.787,0.684,1.787,1.823c0,1.619-1.477,2.291-2.902,2.291c-0.876,0-1.735-0.252-2.479-0.708l0.792-1.523
		c0.439,0.312,1.188,0.624,1.727,0.624c0.276,0,0.688-0.132,0.688-0.468c0-0.479-0.688-0.503-1.367-0.684
		c-0.688-0.18-1.367-0.516-1.367-1.619c0-1.511,1.367-2.183,2.711-2.183c0.695,0,1.391,0.108,2.026,0.396L416.419,108.501z"/>
	<path d="M421.029,113.07h-2.187v-4.354h-0.708v-1.799h0.708v-1.847h2.187v1.847h1.231v1.799h-1.231V113.07z"/>
	<path d="M430.201,110c0,2.087-1.729,3.274-3.706,3.274c-1.967,0-3.706-1.176-3.706-3.274s1.728-3.286,3.706-3.286
		C428.473,106.714,430.201,107.901,430.201,110z M425.092,110c0,0.78,0.52,1.379,1.403,1.379s1.403-0.6,1.403-1.379
		c0-0.755-0.52-1.391-1.403-1.391S425.092,109.245,425.092,110z"/>
	<path d="M435.865,108.92c-0.324-0.24-0.708-0.432-1.128-0.432c-0.839,0-1.499,0.646-1.499,1.499c0,0.888,0.636,1.511,1.535,1.511
		c0.384,0,0.804-0.156,1.092-0.419v1.847c-0.479,0.24-1.008,0.348-1.535,0.348c-1.823,0-3.347-1.355-3.347-3.214
		c0-1.979,1.512-3.346,3.438-3.346c0.504,0,1.008,0.12,1.439,0.36L435.865,108.92L435.865,108.92z"/>
	<path d="M439.582,109.137l2.267-2.219h2.986l-3.082,2.843l3.274,3.312h-3.062l-2.387-2.507v2.507h-2.184v-9.955h2.184
		L439.582,109.137L439.582,109.137z"/>
	<path d="M452.397,110c0,2.087-1.729,3.274-3.706,3.274c-1.971,0-3.706-1.176-3.706-3.274s1.728-3.286,3.706-3.286
		C450.671,106.714,452.397,107.901,452.397,110z M447.288,110c0,0.78,0.516,1.379,1.403,1.379c0.887,0,1.399-0.6,1.399-1.379
		c0-0.755-0.516-1.391-1.399-1.391C447.804,108.609,447.288,109.245,447.288,110z"/>
	<path d="M455.722,106.917v3.287c0,0.779,0.192,1.331,1.096,1.331c0.896,0,1.091-0.552,1.091-1.331v-3.287h2.184v3.706
		c0,2.027-1.428,2.651-3.271,2.651c-1.852,0-3.274-0.624-3.274-2.651v-3.706H455.722z"/>
	<path d="M464.11,113.07h-2.187v-4.354h-0.708v-1.799h0.708v-1.847h2.187v1.847h1.231v1.799h-1.231V113.07z"/>
	<path d="M470.225,108.501c-0.336-0.18-0.804-0.3-1.175-0.3c-0.252,0-0.684,0.108-0.684,0.419c0,0.42,0.684,0.48,0.979,0.54
		c1.021,0.204,1.787,0.684,1.787,1.823c0,1.619-1.476,2.291-2.898,2.291c-0.876,0-1.739-0.252-2.483-0.708l0.792-1.523
		c0.443,0.312,1.188,0.624,1.729,0.624c0.272,0,0.684-0.132,0.684-0.468c0-0.479-0.684-0.503-1.367-0.684
		c-0.684-0.18-1.367-0.516-1.367-1.619c0-1.511,1.367-2.183,2.711-2.183c0.695,0,1.395,0.108,2.026,0.396L470.225,108.501z"/>
</g>
<g>
	<path d="M182.346,242.354h3.334c2.519,0,4.594,1.979,4.594,4.521s-2.087,4.521-4.594,4.521h-3.334V242.354z M184.696,249.406h0.527
		c1.403,0,2.604-0.768,2.604-2.531c0-1.619-1.068-2.531-2.579-2.531h-0.552V249.406z"/>
	<path d="M193.818,242.881c0,0.671-0.552,1.223-1.224,1.223c-0.671,0-1.223-0.552-1.223-1.223c0-0.672,0.552-1.224,1.223-1.224
		C193.267,241.658,193.818,242.209,193.818,242.881z M193.687,251.396h-2.183v-6.153h2.183V251.396z"/>
	<path d="M199.26,246.827c-0.336-0.181-0.804-0.3-1.175-0.3c-0.252,0-0.684,0.104-0.684,0.418c0,0.421,0.684,0.479,0.983,0.541
		c1.02,0.203,1.787,0.684,1.787,1.822c0,1.616-1.476,2.291-2.902,2.291c-0.876,0-1.739-0.252-2.483-0.707l0.792-1.523
		c0.443,0.312,1.188,0.624,1.727,0.624c0.276,0,0.684-0.132,0.684-0.468c0-0.479-0.684-0.504-1.367-0.688
		c-0.684-0.18-1.367-0.516-1.367-1.615c0-1.515,1.367-2.187,2.711-2.187c0.695,0,1.391,0.104,2.026,0.396L199.26,246.827z"/>
	<path d="M203.87,251.396h-2.183v-4.354h-0.708v-1.799h0.708v-1.847h2.183v1.847h1.235v1.799h-1.235V251.396z"/>
	<path d="M208.266,246.251h0.024c0.419-0.756,1.139-1.091,1.99-1.091h0.42v2.099c-0.3-0.168-0.588-0.204-0.924-0.204
		c-1.211,0-1.511,0.805-1.511,1.859v2.482h-2.183v-6.153h2.183L208.266,246.251L208.266,246.251z"/>
	<path d="M213.924,242.881c0,0.671-0.552,1.223-1.224,1.223c-0.671,0-1.223-0.552-1.223-1.223c0-0.672,0.552-1.224,1.223-1.224
		C213.372,241.658,213.924,242.209,213.924,242.881z M213.792,251.396h-2.183v-6.153h2.183V251.396z"/>
	<path d="M215.347,241.441h2.183v4.399c0.468-0.536,1.2-0.804,1.907-0.804c1.823,0,3.082,1.511,3.082,3.271
		c0,1.774-1.271,3.287-3.105,3.287c-0.72,0-1.464-0.273-1.859-0.889h-0.024v0.684h-2.183L215.347,241.441L215.347,241.441z
		 M217.458,248.326c0,0.779,0.516,1.379,1.403,1.379c0.887,0,1.403-0.6,1.403-1.379c0-0.756-0.517-1.391-1.403-1.391
		C217.974,246.936,217.458,247.57,217.458,248.326z"/>
	<path d="M225.891,245.244v3.287c0,0.779,0.192,1.33,1.092,1.33s1.091-0.551,1.091-1.33v-3.287h2.184v3.706
		c0,2.026-1.428,2.651-3.274,2.651c-1.846,0-3.274-0.625-3.274-2.651v-3.706H225.891z"/>
	<path d="M234.278,251.396h-2.183v-4.354h-0.708v-1.799h0.708v-1.847h2.183v1.847h1.235v1.799h-1.235V251.396z"/>
	<path d="M238.766,242.881c0,0.671-0.552,1.223-1.224,1.223c-0.671,0-1.223-0.552-1.223-1.223c0-0.672,0.552-1.224,1.223-1.224
		C238.214,241.658,238.766,242.209,238.766,242.881z M238.634,251.396h-2.183v-6.153h2.183V251.396z"/>
	<path d="M247.203,248.326c0,2.087-1.728,3.273-3.706,3.273c-1.967,0-3.706-1.179-3.706-3.273c0-2.098,1.728-3.286,3.706-3.286
		S247.203,246.229,247.203,248.326z M242.094,248.326c0,0.779,0.516,1.379,1.403,1.379c0.887,0,1.403-0.6,1.403-1.379
		c0-0.756-0.516-1.391-1.403-1.391C242.61,246.936,242.094,247.57,242.094,248.326z"/>
	<path d="M250.589,246.036h0.024c0.503-0.744,1.115-0.996,1.967-0.996c1.655,0,2.314,1.043,2.314,2.556v3.801h-2.183v-2.998
		c0-0.588,0.096-1.619-0.983-1.619c-0.888,0-1.14,0.66-1.14,1.43v3.188h-2.183v-6.15h2.183L250.589,246.036L250.589,246.036z"/>
	<path d="M189.254,264.326c0,2.087-1.728,3.273-3.706,3.273c-1.967,0-3.706-1.179-3.706-3.273c0-2.098,1.728-3.286,3.706-3.286
		S189.254,262.229,189.254,264.326z M184.145,264.326c0,0.779,0.516,1.379,1.403,1.379c0.887,0,1.403-0.6,1.403-1.379
		c0-0.756-0.516-1.391-1.403-1.391C184.661,262.936,184.145,263.57,184.145,264.326z"/>
	<path d="M192.64,262.251h0.024c0.419-0.756,1.139-1.091,1.99-1.091h0.42v2.099c-0.3-0.168-0.588-0.204-0.923-0.204
		c-1.212,0-1.512,0.805-1.512,1.859v2.482h-2.183v-6.153h2.183L192.64,262.251L192.64,262.251z"/>
	<path d="M207.217,267.396h-2.184v-0.688h-0.023c-0.384,0.611-1.14,0.891-1.859,0.891c-1.822,0-3.106-1.522-3.106-3.287
		c0-1.766,1.26-3.273,3.083-3.273c0.707,0,1.451,0.264,1.906,0.804v-0.6h2.184L207.217,267.396L207.217,267.396z M202.299,264.326
		c0,0.779,0.516,1.379,1.403,1.379c0.887,0,1.403-0.6,1.403-1.379c0-0.756-0.516-1.391-1.403-1.391
		C202.815,262.936,202.299,263.57,202.299,264.326z"/>
	<path d="M213.462,266.713h-0.023c-0.384,0.612-1.14,0.889-1.859,0.889c-1.822,0-3.106-1.521-3.106-3.287
		c0-1.764,1.26-3.271,3.083-3.271c0.707,0,1.451,0.268,1.906,0.807v-4.402h2.184v9.955h-2.184L213.462,266.713L213.462,266.713z
		 M210.728,264.326c0,0.779,0.516,1.379,1.403,1.379c0.887,0,1.403-0.6,1.403-1.379c0-0.756-0.516-1.391-1.403-1.391
		C211.244,262.936,210.728,263.57,210.728,264.326z"/>
	<path d="M220.316,264.398l1.463-3.154h2.446l-3.214,6.152h-1.392l-3.226-6.152h2.446L220.316,264.398z"/>
	<path d="M227.324,258.881c0,0.671-0.552,1.223-1.224,1.223c-0.671,0-1.223-0.552-1.223-1.223c0-0.672,0.552-1.224,1.223-1.224
		C226.772,257.658,227.324,258.209,227.324,258.881z M227.192,267.396h-2.183v-6.153h2.183V267.396z"/>
	<path d="M233.236,263.247c-0.324-0.24-0.708-0.433-1.128-0.433c-0.839,0-1.499,0.646-1.499,1.5c0,0.888,0.636,1.511,1.535,1.511
		c0.384,0,0.804-0.156,1.092-0.419v1.847c-0.479,0.24-1.008,0.349-1.535,0.349c-1.823,0-3.347-1.354-3.347-3.215
		c0-1.979,1.512-3.346,3.442-3.346c0.504,0,1.008,0.12,1.439,0.359L233.236,263.247L233.236,263.247z"/>
	<path d="M241.05,264.686h-4.594c0,0.891,0.468,1.367,1.367,1.367c0.468,0,0.804-0.156,1.044-0.562h2.099
		c-0.348,1.45-1.727,2.11-3.13,2.11c-2.039,0-3.562-1.15-3.562-3.273c0-2.053,1.403-3.286,3.406-3.286
		c2.135,0,3.37,1.317,3.37,3.418V264.686L241.05,264.686z M239.023,263.427c-0.108-0.588-0.648-0.972-1.235-0.972
		c-0.636,0-1.164,0.336-1.296,0.972H239.023z"/>
</g>
<g>
	<path fill="#808080" d="M487.753,238.667h3.334c2.521,0,4.594,1.979,4.594,4.521c0,2.543-2.087,4.521-4.594,4.521h-3.334V238.667z
		 M490.104,245.721h0.527c1.403,0,2.604-0.769,2.604-2.531c0-1.619-1.068-2.528-2.579-2.528h-0.556L490.104,245.721L490.104,245.721
		z"/>
	<path fill="#808080" d="M499.226,239.195c0,0.671-0.552,1.223-1.224,1.223c-0.671,0-1.223-0.552-1.223-1.223
		c0-0.672,0.552-1.225,1.223-1.225C498.674,237.973,499.226,238.523,499.226,239.195z M499.094,247.71h-2.183v-6.153h2.183V247.71z"
		/>
	<path fill="#808080" d="M504.667,243.141c-0.336-0.18-0.804-0.3-1.175-0.3c-0.252,0-0.688,0.108-0.688,0.419
		c0,0.42,0.688,0.48,0.983,0.54c1.02,0.204,1.787,0.685,1.787,1.823c0,1.619-1.479,2.291-2.902,2.291
		c-0.876,0-1.739-0.252-2.479-0.708l0.792-1.522c0.439,0.312,1.188,0.623,1.727,0.623c0.276,0,0.684-0.132,0.684-0.468
		c0-0.479-0.684-0.503-1.363-0.685c-0.688-0.18-1.367-0.516-1.367-1.618c0-1.511,1.367-2.183,2.711-2.183
		c0.695,0,1.391,0.104,2.026,0.396L504.667,243.141z"/>
	<path fill="#808080" d="M509.277,247.71h-2.187v-4.354h-0.708v-1.799h0.708v-1.847h2.187v1.847h1.231v1.799h-1.231V247.71
		L509.277,247.71z"/>
	<path fill="#808080" d="M513.673,242.564h0.024c0.419-0.756,1.139-1.09,1.986-1.09h0.424v2.099
		c-0.304-0.169-0.592-0.204-0.928-0.204c-1.211,0-1.511,0.804-1.511,1.859v2.479h-2.183v-6.15h2.183L513.673,242.564
		L513.673,242.564z"/>
	<path fill="#808080" d="M519.331,239.195c0,0.671-0.552,1.223-1.224,1.223c-0.675,0-1.227-0.552-1.227-1.223
		c0-0.672,0.552-1.225,1.227-1.225C518.779,237.973,519.331,238.523,519.331,239.195z M519.199,247.71h-2.187v-6.153h2.187V247.71z"
		/>
	<path fill="#808080" d="M525.244,243.561c-0.324-0.24-0.708-0.432-1.127-0.432c-0.84,0-1.5,0.648-1.5,1.499
		c0,0.888,0.636,1.511,1.535,1.511c0.384,0,0.804-0.156,1.092-0.419v1.847c-0.479,0.24-1.008,0.352-1.535,0.352
		c-1.823,0-3.347-1.354-3.347-3.214c0-1.979,1.512-3.349,3.438-3.349c0.504,0,1.009,0.119,1.439,0.359L525.244,243.561
		L525.244,243.561z"/>
	<path fill="#808080" d="M529.244,247.71h-2.187v-4.354h-0.704v-1.799h0.704v-1.847h2.187v1.847h1.234v1.799h-1.234V247.71z"/>
	<path fill="#808080" d="M537.956,237.756v4.582h0.024c0.503-0.672,1.111-0.982,1.967-0.982c1.559,0,2.312,1.031,2.312,2.59v3.769
		h-2.183v-3.151c0-0.723-0.108-1.463-0.983-1.463c-0.859,0-1.14,0.741-1.14,1.463v3.151h-2.185v-9.955L537.956,237.756
		L537.956,237.756z"/>
	<path fill="#808080" d="M550.22,245h-4.594c0,0.887,0.468,1.367,1.367,1.367c0.468,0,0.804-0.156,1.044-0.562h2.099
		c-0.348,1.45-1.727,2.11-3.13,2.11c-2.039,0-3.562-1.151-3.562-3.274c0-2.051,1.399-3.285,3.402-3.285
		c2.139,0,3.37,1.318,3.37,3.418L550.22,245L550.22,245z M548.193,243.741c-0.108-0.589-0.648-0.972-1.235-0.972
		c-0.636,0-1.164,0.336-1.296,0.972H548.193z"/>
	<path fill="#808080" d="M558.207,247.71h-2.184v-0.685H556c-0.384,0.613-1.14,0.889-1.859,0.889c-1.818,0-3.104-1.523-3.104-3.287
		c0-1.763,1.26-3.273,3.083-3.273c0.707,0,1.451,0.267,1.906,0.807v-0.604h2.184L558.207,247.71L558.207,247.71z M553.289,244.641
		c0,0.779,0.516,1.379,1.403,1.379c0.887,0,1.399-0.601,1.399-1.379c0-0.756-0.516-1.392-1.399-1.392
		C553.805,243.249,553.289,243.885,553.289,244.641z"/>
	<path fill="#808080" d="M561.995,247.71h-2.183v-9.955h2.183V247.71z"/>
	<path fill="#808080" d="M566.077,247.71h-2.183v-4.354h-0.709v-1.799h0.709v-1.847h2.183v1.847h1.235v1.799h-1.235V247.71z"/>
	<path fill="#808080" d="M570.473,237.756v4.582h0.024c0.503-0.672,1.115-0.982,1.967-0.982c1.562,0,2.314,1.031,2.314,2.59v3.769
		h-2.187v-3.151c0-0.723-0.104-1.463-0.979-1.463c-0.863,0-1.144,0.741-1.144,1.463v3.151h-2.183v-9.955L570.473,237.756
		L570.473,237.756z"/>
	<path fill="#808080" d="M492.143,259.561c-0.32-0.24-0.708-0.432-1.127-0.432c-0.84,0-1.5,0.648-1.5,1.499
		c0,0.888,0.64,1.511,1.535,1.511c0.384,0,0.808-0.156,1.092-0.419v1.847c-0.479,0.24-1.008,0.352-1.531,0.352
		c-1.823,0-3.351-1.354-3.351-3.214c0-1.979,1.516-3.349,3.442-3.349c0.504,0,1.008,0.119,1.438,0.359L492.143,259.561
		L492.143,259.561z"/>
	<path fill="#808080" d="M499.956,261h-4.594c0,0.887,0.468,1.367,1.363,1.367c0.472,0,0.808-0.156,1.048-0.562h2.099
		c-0.348,1.45-1.729,2.11-3.13,2.11c-2.039,0-3.562-1.151-3.562-3.274c0-2.051,1.403-3.285,3.406-3.285
		c2.135,0,3.37,1.318,3.37,3.418V261L499.956,261z M497.93,259.741c-0.104-0.589-0.646-0.972-1.231-0.972
		c-0.64,0-1.164,0.336-1.296,0.972H497.93z"/>
	<path fill="#808080" d="M503.367,258.35h0.021c0.503-0.744,1.115-0.996,1.971-0.996c1.651,0,2.312,1.043,2.312,2.559v3.802h-2.183
		v-2.999c0-0.587,0.096-1.617-0.983-1.617c-0.888,0-1.14,0.658-1.14,1.428v3.188h-2.187v-6.15h2.187L503.367,258.35L503.367,258.35z
		"/>
	<path fill="#808080" d="M511.676,263.71h-2.183v-4.354h-0.708v-1.799h0.708v-1.847h2.183v1.847h1.235v1.799h-1.235V263.71
		L511.676,263.71z"/>
	<path fill="#808080" d="M520.231,261h-4.598c0,0.887,0.472,1.367,1.367,1.367c0.468,0,0.804-0.156,1.044-0.562h2.103
		c-0.352,1.45-1.729,2.11-3.134,2.11c-2.035,0-3.562-1.151-3.562-3.274c0-2.051,1.403-3.285,3.406-3.285
		c2.135,0,3.368,1.318,3.368,3.418L520.231,261L520.231,261z M518.205,259.741c-0.108-0.589-0.648-0.972-1.235-0.972
		c-0.636,0-1.164,0.336-1.296,0.972H518.205z"/>
	<path fill="#808080" d="M523.643,258.564h0.024c0.419-0.756,1.139-1.09,1.99-1.09h0.42v2.099c-0.3-0.169-0.588-0.204-0.923-0.204
		c-1.212,0-1.516,0.804-1.516,1.859v2.479h-2.183v-6.15h2.183L523.643,258.564L523.643,258.564z"/>
</g>
<g>
	<path fill="#808080" d="M242.198,44.386h2.818v1.991h-5.169v-9.043h2.351L242.198,44.386L242.198,44.386z"/>
	<path fill="#808080" d="M253.023,43.306c0,2.087-1.728,3.274-3.706,3.274c-1.967,0-3.706-1.176-3.706-3.274
		c0-2.098,1.728-3.286,3.706-3.286S253.023,41.208,253.023,43.306z M247.914,43.306c0,0.78,0.516,1.379,1.403,1.379
		c0.887,0,1.403-0.6,1.403-1.379c0-0.755-0.516-1.391-1.403-1.391C248.43,41.915,247.914,42.551,247.914,43.306z"/>
	<path fill="#808080" d="M258.688,42.227c-0.324-0.24-0.708-0.432-1.127-0.432c-0.84,0-1.5,0.648-1.5,1.499
		c0,0.888,0.636,1.511,1.535,1.511c0.384,0,0.804-0.156,1.092-0.419v1.847c-0.479,0.24-1.008,0.348-1.535,0.348
		c-1.823,0-3.347-1.355-3.347-3.214c0-1.979,1.512-3.346,3.442-3.346c0.504,0,1.008,0.12,1.439,0.36L258.688,42.227L258.688,42.227z
		"/>
	<path fill="#808080" d="M266.904,46.376h-2.184v-0.684h-0.023c-0.384,0.612-1.14,0.888-1.859,0.888
		c-1.822,0-3.106-1.523-3.106-3.287c0-1.763,1.26-3.274,3.083-3.274c0.707,0,1.451,0.264,1.906,0.804v-0.6h2.184L266.904,46.376
		L266.904,46.376z M261.986,43.306c0,0.78,0.516,1.379,1.403,1.379c0.887,0,1.403-0.6,1.403-1.379c0-0.755-0.516-1.391-1.403-1.391
		C262.502,41.915,261.986,42.551,261.986,43.306z"/>
	<path fill="#808080" d="M270.693,46.376h-2.183v-9.955h2.183V46.376z"/>
	<path fill="#808080" d="M278.913,36.422v4.582h0.024c0.503-0.672,1.115-0.983,1.967-0.983c1.559,0,2.314,1.031,2.314,2.59v3.766
		h-2.183v-3.154c0-0.72-0.108-1.463-0.983-1.463c-0.863,0-1.14,0.744-1.14,1.463v3.154h-2.183v-9.955H278.913z"/>
	<path fill="#808080" d="M291.177,43.666h-4.594c0,0.887,0.468,1.367,1.367,1.367c0.468,0,0.804-0.156,1.044-0.563h2.099
		c-0.348,1.451-1.727,2.111-3.13,2.111c-2.039,0-3.562-1.151-3.562-3.274c0-2.051,1.403-3.286,3.406-3.286
		c2.135,0,3.37,1.319,3.37,3.418V43.666z M289.15,42.407c-0.108-0.588-0.648-0.972-1.235-0.972c-0.636,0-1.164,0.336-1.296,0.972
		H289.15z"/>
	<path fill="#808080" d="M299.164,46.376h-2.184v-0.684h-0.023c-0.384,0.612-1.14,0.888-1.859,0.888
		c-1.822,0-3.106-1.523-3.106-3.287c0-1.763,1.26-3.274,3.083-3.274c0.707,0,1.45,0.264,1.905,0.804v-0.6h2.185L299.164,46.376
		L299.164,46.376z M294.246,43.306c0,0.78,0.516,1.379,1.403,1.379c0.887,0,1.404-0.6,1.404-1.379c0-0.755-0.517-1.391-1.404-1.391
		C294.762,41.915,294.246,42.551,294.246,43.306z"/>
	<path fill="#808080" d="M302.952,46.376h-2.183v-9.955h2.183V46.376z"/>
	<path fill="#808080" d="M307.034,46.376h-2.187v-4.354h-0.707v-1.799h0.707v-1.847h2.187v1.847h1.231v1.799h-1.231V46.376z"/>
	<path fill="#808080" d="M311.43,36.422v4.582h0.024c0.503-0.672,1.115-0.983,1.967-0.983c1.562,0,2.314,1.031,2.314,2.59v3.766
		h-2.187v-3.154c0-0.72-0.104-1.463-0.979-1.463c-0.863,0-1.144,0.744-1.144,1.463v3.154h-2.183v-9.955H311.43z"/>
	<path fill="#808080" d="M242.198,62.376h-2.183v-4.354h-0.768v-1.799h0.768v-0.779c0-0.852,0.024-1.475,0.624-2.159
		c0.539-0.636,1.318-0.983,2.146-0.983c0.336,0,0.636,0.06,0.936,0.216v1.883c-0.252-0.108-0.479-0.204-0.768-0.204
		c-0.563,0-0.756,0.336-0.756,1.032v0.995h1.523v1.799h-1.523v4.353H242.198z"/>
	<path fill="#808080" d="M251.45,62.376h-2.184v-0.684h-0.023c-0.384,0.612-1.14,0.888-1.859,0.888
		c-1.822,0-3.106-1.523-3.106-3.287c0-1.763,1.26-3.274,3.083-3.274c0.707,0,1.451,0.264,1.906,0.804v-0.6h2.184L251.45,62.376
		L251.45,62.376z M246.532,59.306c0,0.78,0.516,1.379,1.403,1.379c0.887,0,1.403-0.6,1.403-1.379c0-0.755-0.516-1.391-1.403-1.391
		C247.048,57.915,246.532,58.551,246.532,59.306z"/>
	<path fill="#808080" d="M257.545,58.227c-0.324-0.24-0.708-0.432-1.128-0.432c-0.839,0-1.499,0.648-1.499,1.499
		c0,0.888,0.636,1.511,1.535,1.511c0.384,0,0.804-0.156,1.092-0.419v1.847c-0.479,0.24-1.008,0.348-1.535,0.348
		c-1.823,0-3.347-1.355-3.347-3.214c0-1.979,1.512-3.346,3.442-3.346c0.504,0,1.008,0.12,1.439,0.36L257.545,58.227L257.545,58.227z
		"/>
	<path fill="#808080" d="M261.363,53.861c0,0.671-0.552,1.223-1.224,1.223c-0.671,0-1.223-0.552-1.223-1.223
		c0-0.672,0.552-1.224,1.223-1.224C260.812,52.638,261.363,53.189,261.363,53.861z M261.231,62.376h-2.183v-6.153h2.183V62.376z"/>
	<path fill="#808080" d="M265.001,62.376h-2.183v-9.955h2.183V62.376z"/>
	<path fill="#808080" d="M268.901,53.861c0,0.671-0.552,1.223-1.224,1.223c-0.671,0-1.223-0.552-1.223-1.223
		c0-0.672,0.552-1.224,1.223-1.224C268.35,52.638,268.901,53.189,268.901,53.861z M268.77,62.376h-2.183v-6.153h2.183V62.376z"/>
	<path fill="#808080" d="M272.818,62.376h-2.183v-4.354h-0.708v-1.799h0.708v-1.847h2.183v1.847h1.235v1.799h-1.235V62.376z"/>
	<path fill="#808080" d="M274.452,56.224h2.519l1.643,3.154l1.607-3.154h2.482l-4.929,9.223h-2.447l2.1-3.91L274.452,56.224z"/>
</g>
<g>
	<path fill="#808080" d="M44.533,76.05h-2.926l-2.219-3.478h-0.024v3.478h-2.351v-9.043h3.514c1.787,0,3.143,0.852,3.143,2.782
		c0,1.248-0.695,2.327-1.979,2.555L44.533,76.05z M39.364,71.061h0.228c0.768,0,1.632-0.144,1.632-1.127s-0.864-1.127-1.632-1.127
		h-0.228V71.061z"/>
	<path fill="#808080" d="M47.25,69.897v3.287c0,0.779,0.192,1.331,1.092,1.331c0.9,0,1.091-0.552,1.091-1.331v-3.287h2.184v3.706
		c0,2.027-1.428,2.651-3.274,2.651c-1.846,0-3.274-0.624-3.274-2.651v-3.706H47.25z"/>
	<path fill="#808080" d="M55.357,70.905h0.024c0.419-0.756,1.139-1.091,1.99-1.091h0.42v2.099c-0.3-0.168-0.588-0.204-0.924-0.204
		c-1.211,0-1.511,0.804-1.511,1.859v2.482h-2.183v-6.153h2.183L55.357,70.905L55.357,70.905z"/>
	<path fill="#808080" d="M65.604,76.05H63.42v-0.684h-0.023c-0.384,0.612-1.14,0.888-1.859,0.888c-1.822,0-3.106-1.523-3.106-3.287
		c0-1.763,1.26-3.274,3.083-3.274c0.707,0,1.451,0.264,1.906,0.804v-0.6h2.184L65.604,76.05L65.604,76.05z M60.686,72.98
		c0,0.78,0.516,1.379,1.403,1.379c0.887,0,1.403-0.6,1.403-1.379c0-0.755-0.516-1.391-1.403-1.391
		C61.202,71.589,60.686,72.225,60.686,72.98z"/>
	<path fill="#808080" d="M69.393,76.05H67.21v-9.955h2.183V76.05z"/>
	<path fill="#808080" d="M79.868,71.9c-0.324-0.24-0.708-0.432-1.127-0.432c-0.84,0-1.5,0.648-1.5,1.499
		c0,0.888,0.636,1.511,1.535,1.511c0.384,0,0.804-0.156,1.092-0.419v1.847c-0.479,0.24-1.008,0.348-1.535,0.348
		c-1.823,0-3.347-1.355-3.347-3.214c0-1.979,1.512-3.346,3.442-3.346c0.504,0,1.008,0.12,1.439,0.36L79.868,71.9L79.868,71.9z"/>
	<path fill="#808080" d="M83.59,76.05h-2.183v-9.955h2.183V76.05z"/>
	<path fill="#808080" d="M87.488,67.535c0,0.671-0.552,1.223-1.224,1.223c-0.671,0-1.223-0.552-1.223-1.223
		c0-0.672,0.552-1.224,1.223-1.224C86.937,66.312,87.488,66.863,87.488,67.535z M87.356,76.05h-2.183v-6.153h2.183V76.05z"/>
	<path fill="#808080" d="M91.13,70.689h0.024c0.503-0.744,1.115-0.996,1.967-0.996c1.655,0,2.314,1.043,2.314,2.555v3.802h-2.183
		v-2.999c0-0.587,0.096-1.619-0.983-1.619c-0.888,0-1.14,0.66-1.14,1.427v3.19h-2.183v-6.153h2.183L91.13,70.689L91.13,70.689z"/>
	<path fill="#808080" d="M99.318,67.535c0,0.671-0.552,1.223-1.224,1.223c-0.671,0-1.223-0.552-1.223-1.223
		c0-0.672,0.552-1.224,1.223-1.224C98.767,66.312,99.318,66.863,99.318,67.535z M99.187,76.05h-2.183v-6.153h2.183V76.05z"/>
	<path fill="#808080" d="M105.23,71.9c-0.324-0.24-0.708-0.432-1.128-0.432c-0.839,0-1.499,0.648-1.499,1.499
		c0,0.888,0.636,1.511,1.535,1.511c0.384,0,0.804-0.156,1.092-0.419v1.847c-0.479,0.24-1.008,0.348-1.535,0.348
		c-1.823,0-3.347-1.355-3.347-3.214c0-1.979,1.512-3.346,3.442-3.346c0.504,0,1.008,0.12,1.439,0.36L105.23,71.9L105.23,71.9z"/>
</g>
<g>
	<path d="M309.248,258.15h3.334c2.519,0,4.594,1.979,4.594,4.521s-2.087,4.521-4.594,4.521h-3.334V258.15z M311.599,265.202h0.527
		c1.403,0,2.604-0.769,2.604-2.531c0-1.619-1.068-2.53-2.579-2.53h-0.556L311.599,265.202L311.599,265.202z"/>
	<path d="M320.721,258.678c0,0.672-0.552,1.223-1.224,1.223c-0.671,0-1.223-0.551-1.223-1.223s0.552-1.224,1.223-1.224
		C320.169,257.454,320.721,258.006,320.721,258.678z M320.589,267.193h-2.183v-6.153h2.183V267.193z"/>
	<path d="M326.162,262.624c-0.336-0.181-0.804-0.3-1.175-0.3c-0.252,0-0.688,0.107-0.688,0.419c0,0.42,0.688,0.479,0.983,0.54
		c1.02,0.203,1.787,0.684,1.787,1.822c0,1.619-1.479,2.291-2.902,2.291c-0.876,0-1.739-0.252-2.483-0.707l0.796-1.523
		c0.439,0.312,1.188,0.624,1.727,0.624c0.276,0,0.684-0.132,0.684-0.468c0-0.479-0.684-0.504-1.363-0.684
		c-0.688-0.184-1.367-0.52-1.367-1.619c0-1.515,1.367-2.187,2.711-2.187c0.691,0,1.391,0.104,2.022,0.396L326.162,262.624z"/>
	<path d="M330.772,267.193h-2.187v-4.354h-0.708v-1.799h0.708v-1.847h2.187v1.847h1.231v1.799h-1.231V267.193z"/>
	<path d="M335.168,262.048h0.024c0.419-0.756,1.139-1.091,1.986-1.091h0.42v2.1c-0.3-0.168-0.588-0.205-0.924-0.205
		c-1.211,0-1.511,0.808-1.511,1.859v2.482h-2.183v-6.153h2.183L335.168,262.048L335.168,262.048z"/>
	<path d="M340.826,258.678c0,0.672-0.552,1.223-1.228,1.223c-0.671,0-1.223-0.551-1.223-1.223s0.552-1.224,1.223-1.224
		C340.274,257.454,340.826,258.006,340.826,258.678z M340.694,267.193h-2.187v-6.153h2.187V267.193z"/>
	<path d="M342.249,257.238h2.183v4.402c0.472-0.541,1.2-0.808,1.907-0.808c1.823,0,3.082,1.515,3.082,3.271
		c0,1.775-1.271,3.287-3.104,3.287c-0.724,0-1.468-0.272-1.859-0.888h-0.024v0.685h-2.183L342.249,257.238L342.249,257.238z
		 M344.36,264.123c0,0.779,0.516,1.379,1.399,1.379c0.891,0,1.403-0.6,1.403-1.379c0-0.755-0.517-1.391-1.403-1.391
		C344.876,262.73,344.36,263.367,344.36,264.123z"/>
	<path d="M352.793,261.04v3.287c0,0.778,0.192,1.331,1.092,1.331c0.9,0,1.091-0.553,1.091-1.331v-3.287h2.188v3.706
		c0,2.027-1.428,2.65-3.274,2.65c-1.846,0-3.271-0.623-3.271-2.65v-3.706H352.793z"/>
	<path d="M361.181,267.193h-2.183v-4.354h-0.708v-1.799h0.708v-1.847h2.183v1.847h1.235v1.799h-1.235V267.193z"/>
	<path d="M365.668,258.678c0,0.672-0.552,1.223-1.224,1.223c-0.671,0-1.227-0.551-1.227-1.223s0.556-1.224,1.227-1.224
		C365.116,257.454,365.668,258.006,365.668,258.678z M365.536,267.193h-2.187v-6.153h2.187V267.193z"/>
	<path d="M374.105,264.123c0,2.087-1.729,3.273-3.706,3.273c-1.971,0-3.706-1.176-3.706-3.273s1.728-3.286,3.706-3.286
		C372.377,260.837,374.105,262.023,374.105,264.123z M368.996,264.123c0,0.779,0.516,1.379,1.403,1.379
		c0.887,0,1.399-0.6,1.399-1.379c0-0.755-0.516-1.391-1.399-1.391C369.512,262.732,368.996,263.367,368.996,264.123z"/>
	<path d="M377.491,261.832h0.021c0.503-0.744,1.115-0.996,1.971-0.996c1.651,0,2.312,1.043,2.312,2.555v3.803h-2.183v-3
		c0-0.586,0.096-1.615-0.983-1.615c-0.888,0-1.14,0.656-1.14,1.427v3.188h-2.187v-6.15h2.187L377.491,261.832L377.491,261.832z"/>
	<path d="M394.792,264.123c0,2.087-1.727,3.273-3.706,3.273c-1.967,0-3.706-1.176-3.706-3.273s1.729-3.286,3.706-3.286
		C393.065,260.836,394.792,262.023,394.792,264.123z M389.683,264.123c0,0.779,0.52,1.379,1.403,1.379s1.403-0.6,1.403-1.379
		c0-0.755-0.52-1.391-1.403-1.391S389.683,263.367,389.683,264.123z"/>
	<path d="M398.178,262.048h0.024c0.419-0.756,1.139-1.091,1.99-1.091h0.42v2.1c-0.3-0.168-0.588-0.205-0.925-0.205
		c-1.214,0-1.514,0.808-1.514,1.859v2.482h-2.183v-6.153h2.183L398.178,262.048L398.178,262.048z"/>
	<path d="M311.383,278.048h0.024c0.419-0.756,1.139-1.091,1.989-1.091h0.421v2.1c-0.304-0.168-0.592-0.205-0.928-0.205
		c-1.211,0-1.511,0.808-1.511,1.859v2.482h-2.18v-6.153h2.183L311.383,278.048L311.383,278.048z"/>
	<path d="M321.233,280.482h-4.598c0,0.887,0.472,1.367,1.367,1.367c0.468,0,0.804-0.156,1.044-0.563h2.103
		c-0.352,1.45-1.729,2.11-3.134,2.11c-2.035,0-3.562-1.15-3.562-3.273c0-2.051,1.403-3.286,3.406-3.286
		c2.135,0,3.37,1.319,3.37,3.418L321.233,280.482L321.233,280.482z M319.207,279.223c-0.108-0.588-0.648-0.972-1.235-0.972
		c-0.636,0-1.164,0.336-1.296,0.972H319.207z"/>
	<path d="M326.378,278.624c-0.336-0.181-0.804-0.3-1.175-0.3c-0.252,0-0.688,0.107-0.688,0.419c0,0.42,0.688,0.479,0.983,0.54
		c1.021,0.203,1.787,0.684,1.787,1.822c0,1.619-1.479,2.291-2.902,2.291c-0.876,0-1.735-0.252-2.479-0.707l0.792-1.523
		c0.439,0.312,1.188,0.624,1.727,0.624c0.276,0,0.688-0.132,0.688-0.468c0-0.479-0.688-0.504-1.367-0.684
		c-0.688-0.184-1.367-0.52-1.367-1.619c0-1.515,1.367-2.187,2.711-2.187c0.695,0,1.391,0.104,2.026,0.396L326.378,278.624z"/>
	<path d="M335.54,280.123c0,2.087-1.727,3.273-3.706,3.273c-1.967,0-3.706-1.176-3.706-3.273s1.729-3.286,3.706-3.286
		C333.812,276.836,335.54,278.023,335.54,280.123z M330.431,280.123c0,0.779,0.52,1.379,1.403,1.379s1.403-0.6,1.403-1.379
		c0-0.755-0.52-1.391-1.403-1.391S330.431,279.367,330.431,280.123z"/>
	<path d="M338.863,277.04v3.287c0,0.778,0.188,1.331,1.092,1.331s1.091-0.553,1.091-1.331v-3.287h2.188v3.706
		c0,2.027-1.432,2.65-3.274,2.65s-3.273-0.623-3.273-2.65v-3.706H338.863z"/>
	<path d="M346.971,278.048h0.024c0.419-0.756,1.139-1.091,1.99-1.091h0.42v2.1c-0.3-0.168-0.588-0.205-0.924-0.205
		c-1.215,0-1.515,0.808-1.515,1.859v2.482h-2.183v-6.153h2.183L346.971,278.048L346.971,278.048z"/>
	<path d="M354.921,279.043c-0.324-0.24-0.708-0.432-1.127-0.432c-0.84,0-1.5,0.646-1.5,1.498c0,0.889,0.636,1.512,1.535,1.512
		c0.384,0,0.804-0.156,1.092-0.419v1.847c-0.479,0.24-1.008,0.348-1.535,0.348c-1.823,0-3.347-1.354-3.347-3.213
		c0-1.979,1.512-3.347,3.442-3.347c0.504,0,1.008,0.12,1.438,0.36L354.921,279.043L354.921,279.043z"/>
	<path d="M362.733,280.482h-4.598c0,0.887,0.472,1.367,1.367,1.367c0.468,0,0.804-0.156,1.044-0.563h2.103
		c-0.352,1.45-1.729,2.11-3.134,2.11c-2.035,0-3.562-1.15-3.562-3.273c0-2.051,1.403-3.286,3.406-3.286
		c2.135,0,3.37,1.319,3.37,3.418L362.733,280.482L362.733,280.482z M360.707,279.223c-0.108-0.588-0.648-0.972-1.235-0.972
		c-0.636,0-1.164,0.336-1.296,0.972H360.707z"/>
	<path d="M375.058,283.193h-2.184v-0.688h-0.023c-0.384,0.612-1.14,0.891-1.855,0.891c-1.822,0-3.106-1.522-3.106-3.287
		c0-1.762,1.264-3.273,3.083-3.273c0.707,0,1.451,0.264,1.906,0.805v-0.601h2.185L375.058,283.193L375.058,283.193z M370.14,280.123
		c0,0.779,0.52,1.379,1.403,1.379s1.403-0.6,1.403-1.379c0-0.755-0.52-1.391-1.403-1.391S370.14,279.367,370.14,280.123z"/>
	<path d="M378.847,283.193h-2.183v-9.955h2.183V283.193z"/>
	<path d="M382.611,283.193h-2.187v-9.955h2.187V283.193z"/>
	<path d="M391.22,280.123c0,2.087-1.727,3.273-3.706,3.273c-1.967,0-3.706-1.176-3.706-3.273s1.729-3.286,3.706-3.286
		C389.493,276.836,391.22,278.023,391.22,280.123z M386.11,280.123c0,0.779,0.516,1.379,1.399,1.379c0.891,0,1.403-0.6,1.403-1.379
		c0-0.755-0.516-1.391-1.403-1.391C386.626,278.732,386.11,279.367,386.11,280.123z"/>
	<path d="M396.886,279.043c-0.324-0.24-0.708-0.432-1.127-0.432c-0.84,0-1.5,0.646-1.5,1.498c0,0.889,0.636,1.512,1.535,1.512
		c0.384,0,0.804-0.156,1.092-0.419v1.847c-0.479,0.24-1.008,0.348-1.535,0.348c-1.819,0-3.347-1.354-3.347-3.213
		c0-1.979,1.512-3.347,3.442-3.347c0.504,0,1.008,0.12,1.438,0.36L396.886,279.043L396.886,279.043z"/>
	<path d="M405.101,283.193h-2.184v-0.688h-0.023c-0.384,0.612-1.14,0.891-1.855,0.891c-1.822,0-3.106-1.522-3.106-3.287
		c0-1.762,1.264-3.273,3.083-3.273c0.707,0,1.451,0.264,1.906,0.805v-0.601h2.187L405.101,283.193L405.101,283.193z
		 M400.183,280.123c0,0.779,0.52,1.379,1.403,1.379s1.403-0.6,1.403-1.379c0-0.755-0.52-1.391-1.403-1.391
		S400.183,279.367,400.183,280.123z"/>
	<path d="M409.195,283.193h-2.187v-4.354h-0.708v-1.799h0.708v-1.847h2.187v1.847h1.231v1.799h-1.231V283.193z"/>
	<path d="M413.683,274.678c0,0.672-0.552,1.223-1.224,1.223c-0.671,0-1.223-0.551-1.223-1.223s0.552-1.224,1.223-1.224
		C413.131,273.454,413.683,274.006,413.683,274.678z M413.551,283.193h-2.183v-6.153h2.183V283.193z"/>
	<path d="M422.12,280.123c0,2.087-1.729,3.273-3.706,3.273c-1.967,0-3.706-1.176-3.706-3.273s1.728-3.286,3.706-3.286
		C420.394,276.836,422.12,278.023,422.12,280.123z M417.011,280.123c0,0.779,0.52,1.379,1.403,1.379s1.403-0.6,1.403-1.379
		c0-0.755-0.52-1.391-1.403-1.391S417.011,279.367,417.011,280.123z"/>
	<path d="M425.506,277.832h0.024c0.503-0.744,1.111-0.996,1.967-0.996c1.655,0,2.312,1.043,2.312,2.555v3.803h-2.183v-3
		c0-0.586,0.096-1.615-0.983-1.615c-0.888,0-1.14,0.656-1.14,1.427v3.188h-2.183v-6.15h2.183L425.506,277.832L425.506,277.832z"/>
</g>
<g>
	<path fill="#646464" d="M571.028,220.242c0.187-0.584,0.3-1.211,0.3-1.855v-68.328c0-3.246-2.629-5.864-5.866-5.864h-32.644v72.725
		c0,1.168-0.217,2.282-0.583,3.322h-3.83c0.188-0.584,0.3-1.211,0.3-1.855v-93.846c0-3.237-2.626-5.864-5.865-5.864h-51.222
		c-3.237,0-5.864,2.627-5.864,5.864v93.846c0,0.646,0.111,1.271,0.305,1.855h-3.828c-0.368-1.04-0.58-2.154-0.58-3.322v-72.725
		h-31.864c-3.244,0-5.865,2.618-5.865,5.864v68.328c0,0.646,0.113,1.271,0.302,1.855h-10.081v12.123h166.186v-12.123H571.028z
		 M441.512,196.297h-8.402v-8.408h8.402V196.297L441.512,196.297z M441.512,181.535h-8.402v-8.414h8.402V181.535L441.512,181.535z
		 M441.512,167.258h-8.402v-8.406h8.402V167.258L441.512,167.258z M454.61,196.297h-8.408v-8.408h8.408V196.297z M454.61,181.535
		h-8.408v-8.414h8.408V181.535z M454.61,167.258h-8.408v-8.406h8.408V167.258z M510.281,219.855h-24.688v-30.799h24.688V219.855z
		 M497.229,167.275c-11.42,0-20.676-9.257-20.676-20.675c0-11.421,9.266-20.676,20.676-20.676c11.418,0,20.676,9.255,20.676,20.676
		C517.904,158.018,508.646,167.275,497.229,167.275L497.229,167.275z M550.609,196.297h-8.405v-8.408h8.405V196.297z
		 M550.609,181.535h-8.405v-8.414h8.405V181.535z M550.609,167.258h-8.405v-8.406h8.405V167.258z M563.703,196.297h-8.405v-8.408
		h8.405V196.297z M563.703,181.535h-8.405v-8.414h8.405V181.535z M563.703,167.258h-8.405v-8.406h8.405V167.258z M502.363,141.474
		h7.918v10.259h-7.918v7.916h-10.263v-7.916h-7.922v-10.259h7.922v-7.925h10.263V141.474z"/>
</g>
<g>
	<g>
		<path fill="#B3B3B3" d="M169.889,170.868c-1.236,0-2.242-1.003-2.242-2.242v-2.823c0-1.246-1.002-2.247-2.247-2.247h-1.498
			c-1.238,0-2.241,1.001-2.241,2.247v2.823c0,1.239-1.009,2.242-2.248,2.242h-14.22c-1.244,0-2.248,1.007-2.248,2.246v50.573
			c0,1.246,1.004,2.25,2.248,2.25h24.695c1.239,0,2.249-1.004,2.249-2.25v-50.573C172.138,171.875,171.134,170.868,169.889,170.868
			L169.889,170.868z"/>
		<path fill="#FFFFFF" d="M147.858,214.38c0-1.241,1.002-2.247,2.248-2.247c1.237,0,2.242,1.006,2.242,2.247
			c0,1.239-1.004,2.249-2.242,2.249C148.86,216.629,147.858,215.619,147.858,214.38L147.858,214.38z"/>
		<path fill="#FFFFFF" d="M150.106,204.698c1.237,0,2.242,1.005,2.242,2.241c0,1.238-1.004,2.248-2.242,2.248
			c-1.246,0-2.248-1.01-2.248-2.248C147.858,205.703,148.86,204.698,150.106,204.698L150.106,204.698z"/>
		<path fill="#FFFFFF" d="M147.858,199.502c0-1.24,1.002-2.242,2.248-2.242c1.237,0,2.242,1.002,2.242,2.242
			c0,1.243-1.004,2.246-2.242,2.246C148.86,201.748,147.858,200.745,147.858,199.502L147.858,199.502z"/>
		<path fill="#FFFFFF" d="M162.1,222.115h-9.401c-0.62,0-1.125-0.5-1.125-1.117c0-0.628,0.505-1.127,1.125-1.127h9.401
			c0.625,0,1.123,0.499,1.123,1.127C163.223,221.615,162.725,222.115,162.1,222.115L162.1,222.115z"/>
		<path fill="#FFFFFF" d="M157.401,204.698c1.24,0,2.242,1.005,2.242,2.241c0,1.238-1.002,2.248-2.242,2.248
			c-1.244,0-2.248-1.01-2.248-2.248C155.153,205.703,156.157,204.698,157.401,204.698L157.401,204.698z"/>
		<path fill="#FFFFFF" d="M155.153,199.502c0-1.24,1.003-2.242,2.248-2.242c1.24,0,2.242,1.002,2.242,2.242
			c0,1.243-1.002,2.246-2.242,2.246C156.157,201.748,155.153,200.745,155.153,199.502L155.153,199.502z"/>
		<path fill="#FFFFFF" d="M157.401,212.133c1.24,0,2.242,1.006,2.242,2.247c0,1.239-1.002,2.249-2.242,2.249
			c-1.244,0-2.248-1.01-2.248-2.249C155.153,213.139,156.157,212.133,157.401,212.133L157.401,212.133z"/>
		<path fill="#FFFFFF" d="M164.697,216.629c-1.237,0-2.247-1.01-2.247-2.249c0-1.241,1.01-2.247,2.247-2.247
			c1.24,0,2.25,1.006,2.25,2.247C166.947,215.619,165.937,216.629,164.697,216.629L164.697,216.629z"/>
		<path fill="#FFFFFF" d="M164.697,209.188c-1.237,0-2.247-1.01-2.247-2.248c0-1.236,1.01-2.241,2.247-2.241
			c1.24,0,2.25,1.005,2.25,2.241C166.947,208.18,165.937,209.188,164.697,209.188L164.697,209.188z"/>
		<path fill="#FFFFFF" d="M164.697,201.748c-1.237,0-2.247-1.003-2.247-2.246c0-1.24,1.01-2.242,2.247-2.242
			c1.24,0,2.25,1.002,2.25,2.242C166.947,200.745,165.937,201.748,164.697,201.748L164.697,201.748z"/>
		<path fill="#FFFFFF" d="M168.35,190.77c0,1.238-1.009,2.24-2.249,2.24h-17.12c-1.244,0-2.247-1.002-2.247-2.24v-12.385
			c0-1.24,1.003-2.244,2.247-2.244h17.12c1.24,0,2.249,1.004,2.249,2.244V190.77z"/>
		<path fill="#FFFFFF" d="M168.35,190.77"/>
	</g>
	<path fill="#787878" d="M161.162,181.959c-0.013-0.396-0.319-0.27-0.421-0.236c0.414-0.258,0.771-1.014,0.677-1.34
		c-0.073-0.256-0.241-0.168-0.448,0.031c0.6-1.354-0.288-2.081-0.288-2.08c-0.153-0.102-0.261,0.035-0.259,0.236
		c0.03,1.627-1.159,2.568-2.459,3.35c-0.976,0.631-1.322,1.693-1.443,2.453c-0.03,0.094-0.098,0.047-0.133,0.02l-0.751-0.853
		c-0.082-0.095-0.197-0.14-0.312-0.135c-0.089,0.004-0.178,0.036-0.25,0.101l-0.033,0.028h-0.001h-0.001l-0.181-0.206
		c-0.054-0.061-0.127-0.092-0.198-0.092c-0.056,0-0.109,0.018-0.152,0.054l-0.102,0.091c-0.098,0.084-0.101,0.244-0.006,0.352
		l0.182,0.207l-1.237,1.09c-0.165,0.146-0.18,0.396-0.035,0.562l4.28,4.854c0.083,0.092,0.197,0.138,0.312,0.136
		c0.09-0.004,0.178-0.036,0.25-0.101l1.727-1.525c0.165-0.145,0.18-0.395,0.036-0.559l-1.448-1.645
		c-0.002-0.002-0.002-0.004-0.003-0.004c-0.053-0.087,0.098-0.068,0.098-0.068l0,0c0.233,0.008,0.407-0.049,0.531-0.13
		c0.187-0.127-0.025-0.221-0.06-0.312c0.291,0.143,0.859,0.021,1-0.162c0.111-0.145-0.08-0.201-0.262-0.242
		c0.459-0.215,0.827-0.426,1.022-0.934c0.116-0.295-0.201-0.305-0.517-0.186c0.259-0.259,0.517-0.607,0.646-1.061
		c0.146-0.512-0.045-0.766-0.455-0.424C160.841,182.864,161.177,182.379,161.162,181.959z M156.899,185.824l-1.492,1.314
		c-0.045,0.041-0.114,0.036-0.154-0.009l-1.371-1.555c-0.039-0.045-0.035-0.115,0.009-0.154l1.492-1.315
		c0.046-0.039,0.115-0.034,0.155,0.011l1.37,1.554C156.949,185.715,156.945,185.785,156.899,185.824z"/>
</g>
<g>
	<polygon fill="#B4B4B4" points="466.741,255.816 432.506,255.816 436.31,249.536 462.938,249.536 	"/>
	<rect x="419.619" y="204.178" fill="#B4B4B4" width="60.012" height="43.963"/>
	<rect x="423.739" y="206.904" fill="#FFFFFF" width="51.637" height="32.797"/>
	<g>
		<path d="M433.22,235.318h-0.011l-0.471,2.673h-0.521l0.827-4.22l1.389,3.188l1.39-3.188l0.828,4.22h-0.521l-0.472-2.673h-0.01
			l-1.214,2.758L433.22,235.318z"/>
		<path d="M437.121,233.943h2.174v0.464h-1.67v1.132h1.619V236h-1.619v1.529h1.67v0.462h-2.174V233.943z"/>
		<path d="M439.851,233.943h0.839c1.238,0,2.269,0.654,2.269,2.004c0,1.379-1.01,2.044-2.286,2.044h-0.82L439.851,233.943
			L439.851,233.943z M440.356,237.529h0.177c1.031,0,1.919-0.387,1.919-1.562c0-1.181-0.888-1.561-1.919-1.561h-0.177V237.529z"/>
		<path d="M444.001,237.991h-0.504v-4.048h0.504V237.991z"/>
		<path d="M447.727,234.716c-0.29-0.256-0.688-0.397-1.068-0.397c-0.906,0-1.6,0.76-1.6,1.656c0,0.885,0.687,1.641,1.589,1.641
			c0.396,0,0.777-0.149,1.077-0.417v0.595c-0.31,0.184-0.708,0.284-1.062,0.284c-1.154,0-2.11-0.916-2.11-2.088
			c0-1.195,0.962-2.13,2.152-2.13c0.354,0,0.716,0.086,1.021,0.275L447.727,234.716L447.727,234.716z"/>
		<path d="M453.433,234.641h-0.013l-1.41,3.483l-1.406-3.483h-0.012l-0.691,3.352h-0.245l0.869-4.182l1.485,3.682l1.49-3.682
			l0.869,4.182h-0.244L453.433,234.641z"/>
		<path d="M458.881,235.967c0,1.139-0.963,2.078-2.1,2.078c-1.139,0-2.1-0.939-2.1-2.078s0.955-2.076,2.1-2.076
			C457.918,233.891,458.881,234.829,458.881,235.967z M454.94,235.967c0,0.999,0.831,1.836,1.841,1.836
			c1.003,0,1.841-0.842,1.841-1.836c0-0.996-0.838-1.834-1.841-1.834C455.771,234.133,454.94,234.971,454.94,235.967z"/>
		<path d="M459.593,237.991v-4.048h0.812c0.306,0,0.594,0.021,0.836,0.236c0.247,0.215,0.337,0.516,0.337,0.838
			c0,0.368-0.145,0.645-0.468,0.825c0.503,0.104,0.839,0.507,0.839,1.019c0,0.328-0.125,0.625-0.375,0.84
			c-0.285,0.242-0.586,0.29-0.946,0.29H459.593z M459.849,235.779h0.446c0.274,0,0.493,0.016,0.725-0.15
			c0.23-0.166,0.301-0.371,0.301-0.65c0-0.263-0.102-0.519-0.332-0.664c-0.203-0.129-0.456-0.129-0.692-0.129h-0.446
			L459.849,235.779L459.849,235.779z M459.849,237.75h0.618c0.284,0,0.58,0.01,0.825-0.157c0.25-0.165,0.397-0.417,0.397-0.718
			c0-0.295-0.144-0.592-0.42-0.725c-0.244-0.123-0.586-0.129-0.852-0.129h-0.57L459.849,237.75L459.849,237.75z"/>
		<path d="M462.936,237.991h-0.258v-4.048h0.258V237.991z"/>
		<path d="M464.131,237.75h1.027v0.241h-1.287v-4.048h0.26V237.75L464.131,237.75z"/>
		<path d="M465.933,234.186v1.472h1.633v0.241h-1.633v1.852h1.675v0.24h-1.931v-4.045h1.931v0.24H465.933L465.933,234.186z"/>
	</g>
	<rect x="423.746" y="206.904" fill="#58595B" width="51.647" height="4.186"/>
	<rect x="423.746" y="210.562" fill="#64A2C8" width="51.647" height="2.621"/>
	<path fill="#58595B" d="M454.383,219.146c-0.021-0.586-0.468-0.398-0.62-0.351c0.606-0.377,1.132-1.485,0.995-1.969
		c-0.104-0.373-0.354-0.246-0.655,0.047c0.88-1.985-0.423-3.054-0.423-3.051c-0.221-0.146-0.384,0.051-0.38,0.346
		c0.046,2.39-1.702,3.769-3.608,4.915c-1.435,0.927-1.943,2.484-2.118,3.602c-0.042,0.135-0.146,0.069-0.194,0.028l-1.104-1.251
		c-0.12-0.136-0.292-0.204-0.457-0.197c-0.134,0.006-0.264,0.053-0.368,0.146l-0.047,0.041h-0.002l0,0l-0.267-0.303
		c-0.081-0.088-0.188-0.135-0.291-0.137c-0.082,0-0.159,0.027-0.224,0.081l-0.148,0.132c-0.143,0.127-0.148,0.358-0.008,0.519
		l0.266,0.303l-1.812,1.601c-0.244,0.213-0.268,0.58-0.054,0.824l6.282,7.12c0.119,0.138,0.29,0.202,0.456,0.199
		c0.133-0.004,0.263-0.053,0.367-0.146l2.537-2.235c0.241-0.212,0.262-0.583,0.051-0.825l-2.126-2.41
		c-0.002,0-0.004-0.002-0.004-0.002c-0.077-0.129,0.142-0.104,0.142-0.104v-0.002c0.344,0.012,0.601-0.068,0.782-0.19
		c0.272-0.183-0.04-0.319-0.089-0.456c0.426,0.204,1.259,0.031,1.467-0.236c0.163-0.209-0.116-0.295-0.383-0.354
		c0.672-0.313,1.21-0.627,1.497-1.369c0.171-0.438-0.297-0.448-0.757-0.271c0.378-0.379,0.757-0.897,0.947-1.558
		c0.212-0.748-0.067-1.127-0.67-0.62C453.913,220.473,454.404,219.76,454.383,219.146z M448.128,224.816l-2.188,1.93
		c-0.066,0.059-0.166,0.051-0.227-0.014l-2.01-2.279c-0.061-0.068-0.053-0.17,0.014-0.227l2.19-1.934
		c0.065-0.057,0.167-0.052,0.223,0.016l2.014,2.28C448.201,224.656,448.194,224.757,448.128,224.816z"/>
	<rect x="439.953" y="207.836" fill="#64A2C8" width="5.583" height="2.79"/>
	<rect x="446.232" y="207.836" fill="#CC8C21" width="5.583" height="2.79"/>
	<rect x="452.515" y="207.836" fill="#78B1B1" width="4.187" height="2.79"/>
</g>
<g>
	<path fill="#64A2C8" d="M124.821,147.983c0,5.686-4.591,10.316-10.304,10.316c-5.725,0-10.316-4.631-10.316-10.316
		c0-5.711,4.592-10.346,10.316-10.346C120.229,137.638,124.821,142.272,124.821,147.983L124.821,147.983z"/>
	<path fill="#64A2C8" d="M138.474,201.062c0,0-5.435-26.323-8.004-31.612c0,0,0,0,0-0.039c-2.578-5.275-5.159-8.453-14.939-8.453
		h-2.022c-9.78,0-12.36,3.178-14.939,8.453c0,0.039,0,0.039,0,0.039c-2.578,5.289-8.015,31.612-8.015,31.612
		c-0.407,1.773,0.684,3.552,2.499,3.946c0.239,0.079,0.477,0.12,0.716,0.12c1.535,0,2.876-1.041,3.231-2.568l7.331-26.059
		l-7.142,43.535h6.894l2.133,38.865c0,1.328,1.092,2.451,2.421,2.451c1.408,0,2.539-1.123,2.539-2.451l2.093-38.865h2.5
		l2.094,38.865c0,1.328,1.12,2.451,2.528,2.451c1.329,0,2.421-1.123,2.421-2.451l2.13-38.865h6.896l-7.133-43.535l7.331,26.059
		c0.358,1.527,1.725,2.568,3.224,2.568c0.238,0,0.475-0.041,0.764-0.12C137.791,204.613,138.881,202.836,138.474,201.062
		L138.474,201.062z"/>
	<g>
		
			<rect x="112.618" y="174.573" fill="#FFFFFF" stroke="#FFFFFF" stroke-width="0.3724" stroke-miterlimit="10" width="3.665" height="3.663"/>
		
			<rect x="112.618" y="167.271" fill="#FFFFFF" stroke="#FFFFFF" stroke-width="0.3724" stroke-miterlimit="10" width="3.665" height="3.664"/>
		
			<rect x="116.274" y="170.917" fill="#FFFFFF" stroke="#FFFFFF" stroke-width="0.3724" stroke-miterlimit="10" width="3.665" height="3.665"/>
		
			<rect x="112.618" y="170.917" fill="#FFFFFF" stroke="#FFFFFF" stroke-width="0.3724" stroke-miterlimit="10" width="3.665" height="3.665"/>
		
			<rect x="108.943" y="170.917" fill="#FFFFFF" stroke="#FFFFFF" stroke-width="0.3724" stroke-miterlimit="10" width="3.665" height="3.665"/>
	</g>
</g>
<g>
	<rect x="251.07" y="142.021" fill="#FFFFFF" width="85.193" height="53.363"/>
	<g>
		<g>
			<path d="M274.695,181.357h-0.012l-0.543,3.072h-0.6l0.951-4.85l1.596,3.665l1.599-3.665l0.95,4.85h-0.598l-0.543-3.072h-0.014
				l-1.396,3.173L274.695,181.357z"/>
			<path d="M279.188,179.777h2.498v0.531h-1.917v1.303h1.862v0.529h-1.862v1.76h1.917v0.529h-2.498V179.777z"/>
			<path d="M282.338,179.777h0.963c1.424,0,2.608,0.753,2.608,2.303c0,1.586-1.16,2.352-2.628,2.352h-0.943V179.777L282.338,179.777
				z M282.917,183.9h0.204c1.185,0,2.207-0.444,2.207-1.795c0-1.356-1.022-1.797-2.207-1.797h-0.204V183.9z"/>
			<path d="M287.117,184.432h-0.58v-4.652h0.58V184.432z"/>
			<path d="M291.412,180.667c-0.334-0.297-0.789-0.457-1.229-0.457c-1.042,0-1.838,0.869-1.838,1.899
				c0,1.021,0.79,1.888,1.826,1.888c0.457,0,0.895-0.172,1.24-0.481v0.688c-0.357,0.211-0.814,0.328-1.221,0.328
				c-1.328,0-2.424-1.055-2.424-2.401c0-1.376,1.104-2.45,2.473-2.45c0.408,0,0.821,0.101,1.174,0.316v0.673L291.412,180.667
				L291.412,180.667z"/>
			<path d="M297.969,180.581h-0.014l-1.623,4.004l-1.617-4.004h-0.012l-0.796,3.851h-0.284l1-4.808l1.709,4.231l1.715-4.231l1,4.808
				h-0.284L297.969,180.581z"/>
			<path d="M304.24,182.104c0,1.31-1.104,2.391-2.411,2.391c-1.308,0-2.413-1.081-2.413-2.391c0-1.308,1.1-2.388,2.413-2.388
				C303.136,179.716,304.24,180.797,304.24,182.104z M299.712,182.104c0,1.147,0.956,2.11,2.117,2.11
				c1.153,0,2.116-0.969,2.116-2.11c0-1.146-0.963-2.108-2.116-2.108C300.668,179.994,299.712,180.958,299.712,182.104z"/>
			<path d="M305.068,184.432v-4.652h0.931c0.353,0,0.687,0.025,0.964,0.271c0.283,0.247,0.389,0.593,0.389,0.961
				c0,0.429-0.166,0.74-0.536,0.951c0.573,0.117,0.963,0.58,0.963,1.17c0,0.375-0.144,0.718-0.433,0.966
				c-0.326,0.274-0.672,0.332-1.086,0.332h-1.191V184.432L305.068,184.432z M305.364,181.889h0.513c0.314,0,0.567,0.019,0.832-0.173
				c0.267-0.19,0.346-0.427,0.346-0.748c0-0.301-0.116-0.6-0.383-0.765c-0.232-0.148-0.522-0.148-0.795-0.148h-0.513V181.889z
				 M305.364,184.15h0.71c0.326,0,0.664,0.017,0.948-0.178c0.282-0.19,0.455-0.48,0.455-0.828c0-0.338-0.165-0.678-0.479-0.83
				c-0.283-0.143-0.672-0.149-0.982-0.149h-0.652L305.364,184.15L305.364,184.15z"/>
			<path d="M308.922,184.432h-0.296v-4.652h0.296V184.432z"/>
			<path d="M310.307,184.15h1.186v0.277h-1.481v-4.65h0.297L310.307,184.15L310.307,184.15z"/>
			<path d="M312.395,180.057v1.69h1.873v0.276h-1.873v2.127h1.926v0.277h-2.224v-4.652h2.224v0.275h-1.926V180.057z"/>
		</g>
		<rect x="255.877" y="146.84" fill="#58595B" width="75.578" height="4.283"/>
		<rect x="255.877" y="151.123" fill="#64A2C8" width="75.578" height="2.57"/>
		<path fill="#58595B" d="M299.062,162.778c-0.02-0.67-0.537-0.453-0.711-0.398c0.699-0.435,1.302-1.709,1.143-2.262
			c-0.123-0.43-0.406-0.283-0.752,0.054c1.011-2.282-0.486-3.507-0.486-3.505c-0.258-0.171-0.441,0.057-0.438,0.396
			c0.053,2.745-1.953,4.333-4.146,5.648c-1.646,1.063-2.23,2.855-2.432,4.135c-0.051,0.158-0.17,0.082-0.226,0.033l-1.268-1.437
			c-0.138-0.157-0.332-0.232-0.526-0.228c-0.149,0.007-0.3,0.059-0.42,0.168l-0.057,0.051v-0.001l-0.002,0.001l-0.305-0.348
			c-0.09-0.102-0.215-0.155-0.335-0.157c-0.093-0.001-0.183,0.03-0.255,0.093l-0.17,0.148c-0.166,0.148-0.171,0.413-0.01,0.597
			l0.305,0.348l-2.084,1.837c-0.279,0.245-0.303,0.668-0.06,0.946l7.22,8.184c0.135,0.156,0.33,0.232,0.521,0.227
			c0.154-0.004,0.304-0.059,0.424-0.166l2.912-2.57c0.277-0.243,0.303-0.668,0.058-0.946l-2.442-2.767
			c0-0.002-0.002-0.004-0.004-0.006c-0.09-0.145,0.162-0.117,0.162-0.117v-0.004c0.396,0.017,0.689-0.076,0.898-0.217
			c0.314-0.213-0.045-0.367-0.1-0.521c0.486,0.233,1.445,0.034,1.685-0.273c0.186-0.239-0.134-0.342-0.44-0.411
			c0.771-0.359,1.391-0.72,1.721-1.572c0.195-0.5-0.34-0.514-0.872-0.312c0.437-0.438,0.872-1.028,1.089-1.786
			c0.246-0.862-0.076-1.294-0.769-0.714C298.521,164.304,299.088,163.485,299.062,162.778z M291.879,169.295l-2.518,2.219
			c-0.074,0.066-0.191,0.061-0.258-0.017l-2.311-2.621c-0.065-0.074-0.06-0.19,0.017-0.259l2.515-2.219
			c0.076-0.066,0.193-0.059,0.261,0.017l2.309,2.621C291.961,169.109,291.954,169.227,291.879,169.295z"/>
		<rect x="282.432" y="147.697" fill="#64A2C8" width="5.139" height="3.426"/>
		<rect x="289.283" y="147.697" fill="#CC8C21" width="5.141" height="3.426"/>
		<rect x="296.137" y="147.697" fill="#78B1B1" width="5.14" height="3.426"/>
		<g>
			<path fill="#B3B3B3" d="M336.264,142.021H251.07v53.363h85.193L336.264,142.021L336.264,142.021z M331.443,190.564h-75.547
				v-43.722h75.547V190.564z"/>
			<path fill="#B3B3B3" d="M245.98,198.842c0,0,1.914,9.289,8.766,9.289v0.005h77.842v-0.005c6.853,0,8.766-9.289,8.766-9.289
				H245.98z M302.57,204.949h-17.807v-2.92h17.807V204.949z"/>
			<path fill="#B3B3B3" d="M310.444,177.373"/>
		</g>
	</g>
</g>
</svg>
