<?xml version="1.0" encoding="utf-8"?>
<!-- Generator: Adobe Illustrator 15.0.0, SVG Export Plug-In . SVG Version: 6.00 Build 0)  -->
<!DOCTYPE svg PUBLIC "-//W3C//DTD SVG 1.1//EN" "http://www.w3.org/Graphics/SVG/1.1/DTD/svg11.dtd">
<svg version="1.1" id="Layer_1" xmlns="http://www.w3.org/2000/svg" xmlns:xlink="http://www.w3.org/1999/xlink" x="0px" y="0px"
	 width="600px" height="330px" viewBox="0 0 600 330" enable-background="new 0 0 600 330" xml:space="preserve">
<g>
	<g>
		<path fill="#B3B3B3" d="M482.491,113.807c-1.242,0-2.251-1.008-2.251-2.25v-2.835c0-1.251-1.007-2.257-2.256-2.257h-1.504
			c-1.243,0-2.25,1.006-2.25,2.257v2.835c0,1.242-1.013,2.25-2.257,2.25h-14.276c-1.25,0-2.258,1.012-2.258,2.257v50.776
			c0,1.248,1.008,2.256,2.258,2.256h24.794c1.244,0,2.258-1.008,2.258-2.256v-50.776
			C484.749,114.819,483.74,113.807,482.491,113.807L482.491,113.807z"/>
		<path fill="#FFFFFF" d="M460.371,157.492c0-1.244,1.007-2.256,2.258-2.256c1.242,0,2.25,1.012,2.25,2.256s-1.008,2.258-2.25,2.258
			C461.378,159.75,460.371,158.736,460.371,157.492L460.371,157.492z"/>
		<path fill="#FFFFFF" d="M462.629,147.773c1.242,0,2.25,1.008,2.25,2.25c0,1.243-1.008,2.258-2.25,2.258
			c-1.251,0-2.258-1.015-2.258-2.258C460.371,148.781,461.378,147.773,462.629,147.773L462.629,147.773z"/>
		<path fill="#FFFFFF" d="M460.371,142.555c0-1.244,1.007-2.251,2.258-2.251c1.242,0,2.25,1.007,2.25,2.251
			c0,1.248-1.008,2.256-2.25,2.256C461.378,144.811,460.371,143.803,460.371,142.555L460.371,142.555z"/>
		<path fill="#FFFFFF" d="M474.671,165.26h-9.439c-0.622,0-1.129-0.504-1.129-1.123c0-0.629,0.507-1.131,1.129-1.131h9.439
			c0.627,0,1.127,0.502,1.127,1.131C475.798,164.756,475.298,165.26,474.671,165.26L474.671,165.26z"/>
		<path fill="#FFFFFF" d="M469.953,147.773c1.245,0,2.251,1.008,2.251,2.25c0,1.243-1.006,2.258-2.251,2.258
			c-1.249,0-2.257-1.015-2.257-2.258C467.696,148.781,468.704,147.773,469.953,147.773L469.953,147.773z"/>
		<path fill="#FFFFFF" d="M467.696,142.555c0-1.244,1.008-2.251,2.257-2.251c1.245,0,2.251,1.007,2.251,2.251
			c0,1.248-1.006,2.256-2.251,2.256C468.704,144.811,467.696,143.803,467.696,142.555L467.696,142.555z"/>
		<path fill="#FFFFFF" d="M469.953,155.236c1.245,0,2.251,1.012,2.251,2.256s-1.006,2.258-2.251,2.258
			c-1.249,0-2.257-1.014-2.257-2.258S468.704,155.236,469.953,155.236L469.953,155.236z"/>
		<path fill="#FFFFFF" d="M477.278,159.75c-1.242,0-2.256-1.014-2.256-2.258s1.014-2.256,2.256-2.256
			c1.245,0,2.259,1.012,2.259,2.256S478.523,159.75,477.278,159.75L477.278,159.75z"/>
		<path fill="#FFFFFF" d="M477.278,152.281c-1.242,0-2.256-1.015-2.256-2.258c0-1.242,1.014-2.25,2.256-2.25
			c1.245,0,2.259,1.008,2.259,2.25C479.537,151.266,478.523,152.281,477.278,152.281L477.278,152.281z"/>
		<path fill="#FFFFFF" d="M477.278,144.811c-1.242,0-2.256-1.008-2.256-2.256c0-1.244,1.014-2.251,2.256-2.251
			c1.245,0,2.259,1.007,2.259,2.251C479.537,143.803,478.523,144.811,477.278,144.811L477.278,144.811z"/>
		<path fill="#FFFFFF" d="M480.945,133.787c0,1.245-1.013,2.252-2.258,2.252H461.5c-1.25,0-2.257-1.007-2.257-2.252v-12.433
			c0-1.245,1.007-2.253,2.257-2.253h17.188c1.245,0,2.258,1.008,2.258,2.253V133.787z"/>
		<path fill="#FFFFFF" d="M480.945,133.787"/>
	</g>
	<path fill="#787878" d="M473.729,124.943c-0.014-0.398-0.32-0.271-0.423-0.237c0.415-0.259,0.773-1.018,0.68-1.346
		c-0.073-0.257-0.242-0.169-0.449,0.031c0.602-1.359-0.289-2.09-0.289-2.088c-0.153-0.102-0.263,0.034-0.26,0.236
		c0.03,1.635-1.164,2.58-2.47,3.363c-0.98,0.634-1.327,1.7-1.448,2.463c-0.03,0.094-0.1,0.048-0.135,0.02l-0.754-0.856
		c-0.082-0.093-0.198-0.139-0.313-0.134c-0.09,0.003-0.179,0.036-0.251,0.1l-0.033,0.029h-0.001h-0.001l-0.182-0.207
		c-0.055-0.061-0.128-0.093-0.199-0.093c-0.056,0-0.109,0.018-0.152,0.055l-0.102,0.091c-0.099,0.085-0.102,0.245-0.006,0.354
		l0.183,0.207l-1.241,1.094c-0.165,0.146-0.181,0.397-0.035,0.564l4.298,4.872c0.082,0.093,0.197,0.139,0.312,0.136
		c0.091-0.004,0.179-0.036,0.251-0.1l1.734-1.53c0.166-0.146,0.182-0.398,0.036-0.563l-1.454-1.649
		c-0.002-0.002-0.002-0.003-0.003-0.004c-0.054-0.086,0.098-0.068,0.098-0.068v-0.001c0.234,0.007,0.409-0.048,0.533-0.13
		c0.188-0.127-0.025-0.221-0.06-0.313c0.291,0.142,0.862,0.021,1.004-0.162c0.111-0.144-0.08-0.203-0.264-0.244
		c0.462-0.215,0.83-0.428,1.026-0.937c0.116-0.297-0.202-0.307-0.52-0.187c0.26-0.259,0.52-0.611,0.648-1.064
		c0.146-0.512-0.045-0.769-0.457-0.424C473.406,125.851,473.743,125.364,473.729,124.943z M469.449,128.823l-1.498,1.321
		c-0.045,0.04-0.114,0.036-0.154-0.01l-1.376-1.561c-0.039-0.045-0.035-0.114,0.01-0.154l1.498-1.321
		c0.046-0.039,0.115-0.035,0.155,0.011l1.375,1.559C469.499,128.713,469.495,128.783,469.449,128.823z"/>
</g>
<g>
	<g>
		<path fill="#B3B3B3" d="M143.315,111.474c-1.242,0-2.251-1.008-2.251-2.25v-2.835c0-1.251-1.007-2.257-2.256-2.257h-1.504
			c-1.243,0-2.25,1.006-2.25,2.257v2.835c0,1.242-1.013,2.25-2.257,2.25h-14.276c-1.25,0-2.258,1.012-2.258,2.257v50.776
			c0,1.248,1.008,2.256,2.258,2.256h24.794c1.244,0,2.258-1.008,2.258-2.256v-50.776
			C145.573,112.486,144.564,111.474,143.315,111.474L143.315,111.474z"/>
		<path fill="#FFFFFF" d="M121.195,155.159c0-1.244,1.007-2.256,2.258-2.256c1.242,0,2.25,1.012,2.25,2.256s-1.008,2.258-2.25,2.258
			C122.202,157.417,121.195,156.403,121.195,155.159L121.195,155.159z"/>
		<path fill="#FFFFFF" d="M123.453,145.44c1.242,0,2.25,1.008,2.25,2.25c0,1.243-1.008,2.258-2.25,2.258
			c-1.251,0-2.258-1.015-2.258-2.258C121.195,146.448,122.202,145.44,123.453,145.44L123.453,145.44z"/>
		<path fill="#FFFFFF" d="M121.195,140.222c0-1.244,1.007-2.251,2.258-2.251c1.242,0,2.25,1.007,2.25,2.251
			c0,1.248-1.008,2.256-2.25,2.256C122.202,142.478,121.195,141.47,121.195,140.222L121.195,140.222z"/>
		<path fill="#FFFFFF" d="M135.495,162.927h-9.439c-0.622,0-1.129-0.504-1.129-1.123c0-0.629,0.507-1.131,1.129-1.131h9.439
			c0.627,0,1.127,0.502,1.127,1.131C136.622,162.423,136.122,162.927,135.495,162.927L135.495,162.927z"/>
		<path fill="#FFFFFF" d="M130.777,145.44c1.245,0,2.251,1.008,2.251,2.25c0,1.243-1.006,2.258-2.251,2.258
			c-1.249,0-2.257-1.015-2.257-2.258C128.521,146.448,129.528,145.44,130.777,145.44L130.777,145.44z"/>
		<path fill="#FFFFFF" d="M128.521,140.222c0-1.244,1.008-2.251,2.257-2.251c1.245,0,2.251,1.007,2.251,2.251
			c0,1.248-1.006,2.256-2.251,2.256C129.528,142.478,128.521,141.47,128.521,140.222L128.521,140.222z"/>
		<path fill="#FFFFFF" d="M130.777,152.903c1.245,0,2.251,1.012,2.251,2.256s-1.006,2.258-2.251,2.258
			c-1.249,0-2.257-1.014-2.257-2.258S129.528,152.903,130.777,152.903L130.777,152.903z"/>
		<path fill="#FFFFFF" d="M138.103,157.417c-1.242,0-2.256-1.014-2.256-2.258s1.014-2.256,2.256-2.256
			c1.245,0,2.259,1.012,2.259,2.256S139.348,157.417,138.103,157.417L138.103,157.417z"/>
		<path fill="#FFFFFF" d="M138.103,149.948c-1.242,0-2.256-1.015-2.256-2.258c0-1.242,1.014-2.25,2.256-2.25
			c1.245,0,2.259,1.008,2.259,2.25C140.361,148.933,139.348,149.948,138.103,149.948L138.103,149.948z"/>
		<path fill="#FFFFFF" d="M138.103,142.478c-1.242,0-2.256-1.008-2.256-2.256c0-1.244,1.014-2.251,2.256-2.251
			c1.245,0,2.259,1.007,2.259,2.251C140.361,141.47,139.348,142.478,138.103,142.478L138.103,142.478z"/>
		<path fill="#FFFFFF" d="M141.77,131.454c0,1.245-1.013,2.252-2.258,2.252h-17.188c-1.25,0-2.257-1.007-2.257-2.252v-12.433
			c0-1.245,1.007-2.253,2.257-2.253h17.188c1.245,0,2.258,1.008,2.258,2.253V131.454z"/>
		<path fill="#FFFFFF" d="M141.77,131.454"/>
	</g>
	<path fill="#787878" d="M134.553,122.61c-0.014-0.398-0.32-0.271-0.423-0.237c0.415-0.259,0.773-1.018,0.68-1.346
		c-0.073-0.257-0.242-0.169-0.449,0.031c0.602-1.359-0.289-2.09-0.289-2.088c-0.153-0.102-0.263,0.034-0.26,0.236
		c0.03,1.635-1.164,2.58-2.47,3.363c-0.98,0.634-1.327,1.7-1.448,2.463c-0.03,0.094-0.1,0.048-0.135,0.02l-0.754-0.856
		c-0.082-0.093-0.198-0.139-0.313-0.134c-0.09,0.003-0.179,0.036-0.251,0.1l-0.033,0.029h-0.001h-0.001l-0.182-0.207
		c-0.055-0.061-0.128-0.093-0.199-0.093c-0.056,0-0.109,0.018-0.152,0.055l-0.102,0.091c-0.099,0.085-0.102,0.245-0.006,0.354
		l0.183,0.207l-1.241,1.094c-0.165,0.146-0.181,0.397-0.035,0.564l4.298,4.872c0.082,0.093,0.197,0.139,0.312,0.136
		c0.091-0.004,0.179-0.036,0.251-0.1l1.734-1.53c0.166-0.146,0.182-0.398,0.036-0.563l-1.454-1.649
		c-0.002-0.002-0.002-0.003-0.003-0.004c-0.054-0.086,0.098-0.068,0.098-0.068v-0.001c0.234,0.007,0.409-0.048,0.533-0.13
		c0.188-0.127-0.025-0.221-0.06-0.313c0.291,0.142,0.862,0.021,1.004-0.162c0.111-0.144-0.08-0.203-0.264-0.244
		c0.462-0.215,0.83-0.428,1.026-0.937c0.116-0.297-0.202-0.307-0.52-0.187c0.26-0.259,0.52-0.611,0.648-1.064
		c0.146-0.512-0.045-0.769-0.457-0.424C134.23,123.518,134.567,123.031,134.553,122.61z M130.273,126.49l-1.498,1.321
		c-0.045,0.04-0.114,0.036-0.154-0.01l-1.376-1.561c-0.039-0.045-0.035-0.114,0.01-0.154l1.498-1.321
		c0.046-0.039,0.115-0.035,0.155,0.011l1.375,1.559C130.323,126.38,130.319,126.45,130.273,126.49z"/>
</g>
<g>
	<path fill="#64A2C8" d="M526.979,104.008c0,6.167-4.982,11.192-11.18,11.192c-6.21,0-11.192-5.025-11.192-11.192
		c0-6.197,4.982-11.224,11.192-11.224C521.997,92.784,526.979,97.811,526.979,104.008L526.979,104.008z"/>
	<path fill="#64A2C8" d="M541.79,161.592c0,0-5.896-28.561-8.683-34.296c0,0,0,0,0-0.043c-2.798-5.725-5.598-9.17-16.208-9.17
		h-2.194c-10.61,0-13.409,3.445-16.206,9.17c0,0.043,0,0.043,0,0.043c-2.798,5.736-8.695,34.296-8.695,34.296
		c-0.441,1.925,0.742,3.852,2.711,4.281c0.26,0.087,0.517,0.131,0.776,0.131c1.666,0,3.12-1.13,3.507-2.787l7.953-28.271
		l-7.748,47.233h7.478l2.314,42.163c0,1.441,1.185,2.658,2.626,2.658c1.527,0,2.756-1.217,2.756-2.658l2.271-42.163h2.712
		l2.271,42.163c0,1.441,1.215,2.658,2.743,2.658c1.442,0,2.626-1.217,2.626-2.658l2.312-42.163h7.481l-7.738-47.233l7.953,28.271
		c0.388,1.657,1.871,2.787,3.498,2.787c0.258,0,0.516-0.044,0.828-0.131C541.05,165.443,542.233,163.517,541.79,161.592
		L541.79,161.592z"/>
	<g>
		
			<rect x="513.74" y="132.854" fill-rule="evenodd" clip-rule="evenodd" fill="#FFFFFF" stroke="#FFFFFF" stroke-width="0.404" stroke-miterlimit="10" width="3.976" height="3.976"/>
		
			<rect x="513.74" y="124.931" fill-rule="evenodd" clip-rule="evenodd" fill="#FFFFFF" stroke="#FFFFFF" stroke-width="0.404" stroke-miterlimit="10" width="3.976" height="3.976"/>
		
			<rect x="517.706" y="128.887" fill-rule="evenodd" clip-rule="evenodd" fill="#FFFFFF" stroke="#FFFFFF" stroke-width="0.404" stroke-miterlimit="10" width="3.977" height="3.976"/>
		
			<rect x="513.74" y="128.887" fill-rule="evenodd" clip-rule="evenodd" fill="#FFFFFF" stroke="#FFFFFF" stroke-width="0.404" stroke-miterlimit="10" width="3.976" height="3.976"/>
		
			<rect x="509.753" y="128.887" fill-rule="evenodd" clip-rule="evenodd" fill="#FFFFFF" stroke="#FFFFFF" stroke-width="0.404" stroke-miterlimit="10" width="3.977" height="3.976"/>
	</g>
</g>
<g>
	<path fill="#64A2C8" d="M96.144,101.675c0,6.167-4.982,11.192-11.18,11.192c-6.21,0-11.192-5.025-11.192-11.192
		c0-6.197,4.982-11.224,11.192-11.224C91.161,90.451,96.144,95.478,96.144,101.675L96.144,101.675z"/>
	<path fill="#64A2C8" d="M110.954,159.259c0,0-5.896-28.561-8.683-34.296c0,0,0,0,0-0.043c-2.798-5.725-5.598-9.17-16.208-9.17
		h-2.194c-10.61,0-13.409,3.445-16.206,9.17c0,0.043,0,0.043,0,0.043c-2.798,5.736-8.695,34.296-8.695,34.296
		c-0.441,1.925,0.742,3.852,2.711,4.281c0.26,0.087,0.517,0.131,0.776,0.131c1.666,0,3.12-1.13,3.507-2.787l7.953-28.271
		l-7.748,47.233h7.478l2.314,42.163c0,1.441,1.185,2.658,2.626,2.658c1.527,0,2.756-1.217,2.756-2.658l2.271-42.163h2.712
		l2.271,42.163c0,1.441,1.215,2.658,2.743,2.658c1.442,0,2.626-1.217,2.626-2.658l2.312-42.163h7.481l-7.738-47.233l7.953,28.271
		c0.388,1.657,1.871,2.787,3.498,2.787c0.258,0,0.516-0.044,0.828-0.131C110.214,163.11,111.397,161.184,110.954,159.259
		L110.954,159.259z"/>
	<g>
		
			<rect x="82.904" y="130.521" fill-rule="evenodd" clip-rule="evenodd" fill="#FFFFFF" stroke="#FFFFFF" stroke-width="0.404" stroke-miterlimit="10" width="3.976" height="3.976"/>
		
			<rect x="82.904" y="122.598" fill-rule="evenodd" clip-rule="evenodd" fill="#FFFFFF" stroke="#FFFFFF" stroke-width="0.404" stroke-miterlimit="10" width="3.976" height="3.976"/>
		
			<rect x="86.87" y="126.554" fill-rule="evenodd" clip-rule="evenodd" fill="#FFFFFF" stroke="#FFFFFF" stroke-width="0.404" stroke-miterlimit="10" width="3.977" height="3.976"/>
		
			<rect x="82.904" y="126.554" fill-rule="evenodd" clip-rule="evenodd" fill="#FFFFFF" stroke="#FFFFFF" stroke-width="0.404" stroke-miterlimit="10" width="3.976" height="3.976"/>
		
			<rect x="78.917" y="126.554" fill-rule="evenodd" clip-rule="evenodd" fill="#FFFFFF" stroke="#FFFFFF" stroke-width="0.404" stroke-miterlimit="10" width="3.977" height="3.976"/>
	</g>
</g>
<g>
	<ellipse fill-rule="evenodd" clip-rule="evenodd" fill="#F47B63" cx="34.116" cy="127.601" rx="10.361" ry="10.306"/>
	<path fill-rule="evenodd" clip-rule="evenodd" fill="#F47B63" d="M55.6,169.6c0-0.004-16.639-24.996-16.639-24.996
		c-3.873-5.369-12.098-4.745-16.781-0.192c0,0-9.917,9.628-11.926,11.599c-2.009,1.969-1.375,4.969,0.484,6.295l13.979,9.965
		c1.46,1.04,3.359,0.869,4.758-0.089L14.455,201.5h18.189c-0.517,6-0.997,11.461-0.997,11.461c0,0.002-2.23,25.433-2.23,25.433
		c-0.228,2.571,1.684,4.865,4.267,5.089c2.588,0.226,4.863-1.782,5.089-4.352l3.3-37.631h11.703c0,0-0.57-14.037-0.568-14.039
		c2.805-2.617,4.565-6.26,4.565-10.38C57.772,174.309,56.968,171.792,55.6,169.6z M28.52,164.963l-9.963-7.107l7.468-7.269
		l3.477,15.381C29.24,165.59,28.919,165.244,28.52,164.963z"/>
</g>
<g>
	<polygon fill-rule="evenodd" clip-rule="evenodd" fill="#576E60" points="338.5,53.5 327.5,53.5 327.5,69.494 307.775,53.491 
		258.5,93.885 258.5,99.5 356.5,99.5 356.5,93.885 338.5,79.293 	"/>
	<path fill-rule="evenodd" clip-rule="evenodd" fill="#576E60" d="M267.5,103.5v62h33v-22h14v22h34v-62h-40.354H267.5z M320.5,118.5
		v8h-9v9h-8v-9h-9v-8h9v-9h8v9H320.5z"/>
</g>
<path fill-rule="evenodd" clip-rule="evenodd" fill="#89AC96" d="M248.229,115.023c4.421,0,8.34,2.006,10.855,5.136l5.736-10.636
	c-4.26-4.505-12.139-7.197-16.816-7.197c-4.87,0-11.456,2.672-16.383,7.431l5.852,10.3
	C239.981,116.99,243.861,115.023,248.229,115.023z M242.5,106.5h3v-3h3v3h3v3h-3v3h-3v-3h-3V106.5z M256.684,126.227
	c0,4.736-3.788,8.573-8.47,8.573c-4.679,0-8.461-3.837-8.461-8.573c0-4.739,3.782-8.576,8.461-8.576
	C252.896,117.649,256.684,121.487,256.684,126.227z M276.151,170.971c1.635,5.863-5.726,9.064-7.478,3.355l-4.43-14.37l-3.811-8.456
	h-2.195l12.762,44h-15.5v29.72c0,3.098-0.188,4.981-2.83,4.972c-2.859,0.01-2.863-1.846-2.863-4.972l0.01-29.72h-3.633l-0.121,29.72
	c0,3.126-0.633,4.815-3.232,4.806c-2.402,0.01-3.33-1.708-3.33-4.806V195.5h-13.809l12.762-44h-2.195l-3.811,8.693l-4.43,13.682
	c-1.752,5.71-9.112,3.802-7.478-2.061l8.181-26.441c1.012-3.064,4.645-6.873,11.305-6.873h0.531h15.578h0.531
	c6.66,0,10.293,3.83,11.305,6.895L276.151,170.971z"/>
<g>
	<g>
		<path fill="none" stroke="#B3B3B3" stroke-width="2" stroke-miterlimit="10" d="M215.572,158.138c0,0-0.756,0.836-2.148,2.09"/>
		<path fill="none" stroke="#B3B3B3" stroke-width="2" stroke-miterlimit="10" stroke-dasharray="5.9156,5.9156" d="
			M208.803,163.912c-5.124,3.613-12.8,7.586-21.782,7.586c-7.557,0-14.475-3.128-19.659-6.416"/>
		<path fill="none" stroke="#B3B3B3" stroke-width="2" stroke-miterlimit="10" d="M164.905,163.429
			c-0.87-0.62-1.67-1.228-2.394-1.802"/>
		<g>
			<path fill="#B3B3B3" d="M158.01,157.609c2.826,1.089,6.658,2.074,9.555,2.091l-4.437,2.427l-1.857,4.704
				C160.894,163.958,159.442,160.278,158.01,157.609z"/>
		</g>
	</g>
</g>
<g>
	<g>
		<path fill="none" stroke="#B3B3B3" stroke-width="2" stroke-miterlimit="10" d="M158.131,141.553c0,0,0.756-0.836,2.148-2.09"/>
		<path fill="none" stroke="#B3B3B3" stroke-width="2" stroke-miterlimit="10" stroke-dasharray="5.9157,5.9157" d="M164.9,135.778
			c5.123-3.613,12.799-7.586,21.781-7.586c7.557,0,14.476,3.128,19.66,6.416"/>
		<path fill="none" stroke="#B3B3B3" stroke-width="2" stroke-miterlimit="10" d="M208.799,136.262
			c0.87,0.62,1.67,1.228,2.394,1.802"/>
		<g>
			<path fill="#B3B3B3" d="M215.693,142.082c-2.826-1.09-6.658-2.074-9.555-2.092l4.437-2.427l1.857-4.703
				C212.81,135.733,214.261,139.413,215.693,142.082z"/>
		</g>
	</g>
</g>
<g>
	<g>
		<path fill="none" stroke="#B3B3B3" stroke-width="2" stroke-miterlimit="10" d="M446.572,155.138c0,0-0.756,0.836-2.148,2.09"/>
		<path fill="none" stroke="#B3B3B3" stroke-width="2" stroke-miterlimit="10" stroke-dasharray="5.9156,5.9156" d="
			M439.803,160.912c-5.123,3.613-12.799,7.586-21.781,7.586c-7.557,0-14.476-3.128-19.659-6.416"/>
		<path fill="none" stroke="#B3B3B3" stroke-width="2" stroke-miterlimit="10" d="M395.904,160.429
			c-0.869-0.62-1.67-1.228-2.394-1.802"/>
		<g>
			<path fill="#B3B3B3" d="M389.01,154.609c2.826,1.089,6.657,2.074,9.556,2.091l-4.438,2.427l-1.857,4.703
				C391.894,160.958,390.442,157.278,389.01,154.609z"/>
		</g>
	</g>
</g>
<g>
	<g>
		<path fill="none" stroke="#B3B3B3" stroke-width="2" stroke-miterlimit="10" d="M389.131,138.553c0,0,0.756-0.836,2.148-2.09"/>
		<path fill="none" stroke="#B3B3B3" stroke-width="2" stroke-miterlimit="10" stroke-dasharray="5.9157,5.9157" d="M395.9,132.778
			c5.123-3.613,12.799-7.586,21.781-7.586c7.557,0,14.476,3.128,19.659,6.416"/>
		<path fill="none" stroke="#B3B3B3" stroke-width="2" stroke-miterlimit="10" d="M439.799,133.262
			c0.87,0.62,1.67,1.228,2.394,1.802"/>
		<g>
			<path fill="#B3B3B3" d="M446.693,139.082c-2.826-1.09-6.657-2.074-9.555-2.092l4.437-2.427l1.857-4.703
				C443.81,132.733,445.261,136.413,446.693,139.082z"/>
		</g>
	</g>
</g>
<g>
	<path fill-rule="evenodd" clip-rule="evenodd" fill="#F47B63" d="M568.568,143.479c5.16,0,9.338-4.316,9.338-9.648
		c0-5.33-4.178-9.656-9.338-9.656c-5.162,0-9.34,4.326-9.34,9.656C559.229,139.162,563.406,143.479,568.568,143.479z"/>
	<path fill-rule="evenodd" clip-rule="evenodd" fill="#F47B63" d="M585.131,151.662c-0.467-1.404-3.109-5.67-10.292-5.709
		l-14.065,0.029c-6.971-0.389-9.752,3.732-10.186,5.562c0,0-4.717,15.032-3.904,18.512c0.498,2.169,6.239,4.543,10.227,6.51
		l-7.307,28.934h9.896v33.834c0,1.933,1.566,3.5,3.5,3.5c1.933,0,3.5-1.567,3.5-3.5V205.5h4v33.834c0,1.933,1.566,3.5,3.5,3.5
		c1.933,0,3.5-1.567,3.5-3.5V205.5h9.62l-7.161-29.505c3.564-1.883,8.683-4.106,9.139-6.073
		C589.912,166.398,585.131,151.662,585.131,151.662z M569.436,171.503c-0.201,0-0.391-0.003-0.572-0.003h-0.01
		c-0.699,0-1.333-0.071-1.893-0.134c-3.607-0.424-4.633-1.772-4.675-3.126c-0.657,0.287-1.374,0.454-2.138,0.454
		c-2.929,0-5.297-2.414-5.297-5.386c0-2.982,2.368-5.393,5.297-5.393c2.877,0,4.983,2.337,5.058,5.244
		c0.919-0.655,1.294-0.973,2.294-1.1v0.021c1-0.201,2.137,0,2.137,0c3.533,0.783,11.491,4.256,11.491,4.256
		S577.06,171.545,569.436,171.503z"/>
</g>
<g>
	<rect x="284.707" y="148.497" fill="#FFFFFF" width="98.175" height="61.495"/>
	<g>
		<g>
			<path d="M311.931,193.829h-0.013l-0.625,3.541h-0.691l1.095-5.589l1.841,4.223l1.841-4.223l1.096,5.589h-0.688l-0.627-3.541
				h-0.015l-1.608,3.655L311.931,193.829z"/>
			<path d="M317.107,192.009h2.88v0.611h-2.211v1.502h2.147v0.61h-2.147v2.025h2.211v0.612h-2.88V192.009z"/>
			<path d="M320.739,192.009h1.108c1.641,0,3.007,0.865,3.007,2.652c0,1.827-1.337,2.709-3.029,2.709h-1.086V192.009z
				 M321.405,196.758h0.234c1.367,0,2.544-0.511,2.544-2.066c0-1.564-1.177-2.071-2.544-2.071h-0.234V196.758z"/>
			<path d="M326.245,197.37h-0.669v-5.361h0.669V197.37z"/>
			<path d="M331.196,193.032c-0.387-0.342-0.91-0.526-1.416-0.526c-1.2,0-2.118,1.001-2.118,2.19c0,1.175,0.909,2.174,2.105,2.174
				c0.526,0,1.029-0.198,1.429-0.555v0.791c-0.412,0.243-0.938,0.378-1.408,0.378c-1.53,0-2.792-1.216-2.792-2.768
				c0-1.586,1.271-2.823,2.848-2.823c0.473,0,0.948,0.115,1.354,0.364v0.776h-0.002V193.032z"/>
			<path d="M338.752,192.934h-0.016l-1.87,4.614l-1.865-4.614h-0.013l-0.918,4.437h-0.325l1.15-5.539l1.971,4.876l1.975-4.876
				l1.151,5.539h-0.325L338.752,192.934z"/>
			<path d="M345.978,194.689c0,1.507-1.271,2.752-2.777,2.752c-1.508,0-2.781-1.245-2.781-2.752c0-1.508,1.268-2.753,2.781-2.753
				C344.706,191.937,345.978,193.182,345.978,194.689z M340.76,194.689c0,1.321,1.101,2.432,2.44,2.432
				c1.329,0,2.439-1.118,2.439-2.432c0-1.322-1.11-2.433-2.439-2.433C341.86,192.257,340.76,193.367,340.76,194.689z"/>
			<path d="M346.933,197.37v-5.361h1.073c0.404,0,0.791,0.029,1.11,0.314c0.326,0.284,0.447,0.681,0.447,1.105
				c0,0.493-0.191,0.854-0.618,1.095c0.66,0.138,1.109,0.669,1.109,1.35c0,0.433-0.164,0.826-0.498,1.111
				c-0.376,0.317-0.774,0.382-1.252,0.382h-1.372V197.37L346.933,197.37z M347.274,194.438h0.589c0.364,0,0.655,0.021,0.96-0.197
				c0.306-0.221,0.397-0.492,0.397-0.861c0-0.348-0.133-0.691-0.439-0.882c-0.27-0.173-0.604-0.173-0.918-0.173h-0.589V194.438z
				 M347.274,197.048h0.818c0.374,0,0.765,0.018,1.093-0.206c0.325-0.219,0.523-0.554,0.523-0.953c0-0.389-0.19-0.78-0.552-0.958
				c-0.328-0.163-0.775-0.172-1.134-0.172h-0.752v2.289H347.274z"/>
			<path d="M351.374,197.37h-0.341v-5.361h0.341V197.37z"/>
			<path d="M352.97,197.048h1.365v0.318h-1.708v-5.357h0.343V197.048z"/>
			<path d="M355.375,192.328v1.949h2.159v0.32h-2.159v2.45h2.218v0.318h-2.56v-5.358h2.56v0.316h-2.218V192.328z"/>
		</g>
		<rect x="290.245" y="154.052" fill="#58595B" width="87.095" height="4.936"/>
		<rect x="290.245" y="158.987" fill="#64A2C8" width="87.095" height="2.961"/>
		<path fill="#58595B" d="M340.013,172.418c-0.024-0.772-0.62-0.522-0.821-0.458c0.808-0.501,1.5-1.971,1.316-2.608
			c-0.142-0.493-0.467-0.325-0.865,0.063c1.166-2.63-0.561-4.042-0.561-4.041c-0.297-0.195-0.508,0.066-0.506,0.458
			c0.062,3.164-2.249,4.994-4.777,6.509c-1.896,1.227-2.57,3.291-2.801,4.766c-0.059,0.183-0.196,0.094-0.261,0.039l-1.46-1.657
			c-0.158-0.182-0.384-0.266-0.607-0.261c-0.171,0.007-0.346,0.067-0.483,0.193l-0.066,0.059v-0.001l-0.002,0.001l-0.351-0.401
			c-0.102-0.117-0.247-0.18-0.386-0.181c-0.107,0-0.212,0.033-0.295,0.106l-0.194,0.171c-0.191,0.171-0.198,0.477-0.013,0.686
			l0.351,0.402l-2.4,2.117c-0.321,0.282-0.35,0.769-0.069,1.093l8.321,9.427c0.154,0.182,0.38,0.27,0.602,0.263
			c0.176-0.006,0.349-0.067,0.488-0.193l3.355-2.962c0.317-0.279,0.348-0.769,0.065-1.09l-2.814-3.188
			c0-0.003-0.001-0.005-0.004-0.008c-0.103-0.165,0.187-0.135,0.187-0.135v-0.004c0.456,0.017,0.795-0.088,1.036-0.249
			c0.362-0.245-0.054-0.426-0.116-0.601c0.561,0.267,1.666,0.04,1.942-0.315c0.213-0.277-0.154-0.396-0.509-0.477
			c0.889-0.413,1.603-0.827,1.982-1.811c0.226-0.577-0.39-0.593-1.005-0.358c0.503-0.504,1.005-1.186,1.256-2.059
			c0.284-0.994-0.088-1.49-0.885-0.824C339.389,174.176,340.041,173.232,340.013,172.418z M331.733,179.928l-2.901,2.556
			c-0.086,0.077-0.22,0.07-0.297-0.017l-2.663-3.022c-0.076-0.084-0.067-0.22,0.02-0.297l2.897-2.558
			c0.088-0.076,0.224-0.065,0.301,0.019l2.66,3.021C331.826,179.717,331.821,179.849,331.733,179.928z"/>
		<rect x="320.847" y="155.04" fill="#64A2C8" width="5.922" height="3.947"/>
		<rect x="328.743" y="155.04" fill="#CC8C21" width="5.922" height="3.947"/>
		<rect x="336.64" y="155.04" fill="#78B1B1" width="5.922" height="3.947"/>
		<g>
			<path fill="#B3B3B3" d="M382.882,148.497h-98.175v61.495h98.175V148.497z M377.326,204.441h-87.058v-50.385h87.058V204.441z
				 M377.326,204.441"/>
			<path fill="#B3B3B3" d="M278.842,213.978c0,0,2.206,10.705,10.1,10.705v0.005h89.703v-0.005c7.897,0,10.102-10.705,10.102-10.705
				H278.842z M344.054,221.015h-20.52v-3.365h20.52V221.015z M344.054,221.015"/>
			<path fill="#B3B3B3" d="M353.127,189.237"/>
		</g>
	</g>
</g>
</svg>
