<?xml version="1.0" encoding="utf-8"?>
<!-- Generator: Adobe Illustrator 15.0.0, SVG Export Plug-In . SVG Version: 6.00 Build 0)  -->
<!DOCTYPE svg PUBLIC "-//W3C//DTD SVG 1.1//EN" "http://www.w3.org/Graphics/SVG/1.1/DTD/svg11.dtd">
<svg version="1.1" id="Layer_1" xmlns="http://www.w3.org/2000/svg" xmlns:xlink="http://www.w3.org/1999/xlink" x="0px" y="0px"
	 width="600px" height="330px" viewBox="0 0 600 330" enable-background="new 0 0 600 330" xml:space="preserve">
<g>
	<g>
		<path fill="none" stroke="#B3B3B3" stroke-width="2" stroke-miterlimit="10" d="M274.228,133.002c0,0,0.732-0.788,2.126-2.111"/>
		<path fill="none" stroke="#B3B3B3" stroke-width="2" stroke-miterlimit="10" stroke-dasharray="5.9848,5.9848" d="
			M280.821,126.914c9.957-8.365,30.456-22.59,56.399-24.399c20.958-1.461,40.96,5.327,52.74,10.458"/>
		<path fill="none" stroke="#B3B3B3" stroke-width="2" stroke-miterlimit="10" d="M392.698,114.202
			c0.981,0.454,1.888,0.886,2.707,1.288"/>
		<g>
			<path fill="#B3B3B3" d="M400.742,118.3c-3.005-0.377-6.961-0.41-9.778,0.271l3.723-3.424l0.672-5.012
				C396.415,112.833,398.709,116.055,400.742,118.3z"/>
		</g>
	</g>
</g>
<g>
	<g>
		<path fill="none" stroke="#B3B3B3" stroke-width="2" stroke-miterlimit="10" d="M406.844,228.723c0,0-0.86,0.645-2.471,1.693"/>
		<path fill="none" stroke="#B3B3B3" stroke-width="2" stroke-miterlimit="10" stroke-dasharray="5.9848,5.9848" d="
			M399.264,233.527c-11.298,6.438-34.018,16.75-59.864,13.867c-20.88-2.328-39.336-12.601-50.001-19.766"/>
		<path fill="none" stroke="#B3B3B3" stroke-width="2" stroke-miterlimit="10" d="M286.925,225.93
			c-0.886-0.623-1.698-1.211-2.432-1.753"/>
		<g>
			<path fill="#B3B3B3" d="M279.748,220.453c2.889,0.911,6.774,1.654,9.667,1.49l-4.277,2.699l-1.56,4.811
				C283.022,226.607,281.344,223.027,279.748,220.453z"/>
		</g>
	</g>
</g>
<g>
	<path fill="#CC8C21" d="M77.567,165.398c1.584,0,2.877-1.289,2.877-2.872c0-1.581-1.293-2.87-2.877-2.87
		c-1.586,0-2.875,1.289-2.875,2.87C74.692,164.109,75.981,165.398,77.567,165.398z"/>
	<path fill="#CC8C21" d="M80.333,166h-5.357c-1.418,0-2.569,1.312-2.569,2.732L72.399,177H75v10h6v-10h1.905l-0.005-8.268
		C82.9,167.312,81.751,166,80.333,166z"/>
</g>
<g>
	<path fill="#CC8C21" d="M60.46,149.338c1.98,0,3.597-1.611,3.597-3.591c0.001-1.977-1.616-3.587-3.597-3.587
		c-1.982,0-3.594,1.61-3.594,3.587C56.866,147.727,58.478,149.338,60.46,149.338z"/>
	<path fill="#CC8C21" d="M63.918,150h-6.696c-1.773,0-3.212,1.765-3.212,3.541L54,164h3v12h7v-12h3.133l-0.006-10.459
		C67.127,151.765,65.69,150,63.918,150z"/>
</g>
<g>
	<path fill="#CC8C21" d="M47.926,117.192c1.584,0,2.877-1.289,2.877-2.871c0.001-1.583-1.293-2.871-2.877-2.871
		c-1.587,0-2.876,1.288-2.876,2.871C45.05,115.903,46.339,117.192,47.926,117.192z"/>
	<path fill="#CC8C21" d="M50.691,118h-5.356c-1.419,0-2.57,1.312-2.57,2.733L42.757,129H45v10h6v-10h2.263l-0.004-8.267
		C53.259,119.312,52.109,118,50.691,118z"/>
</g>
<g>
	<path fill="#CC8C21" d="M29.937,124.087c1.98,0,3.597-1.611,3.597-3.59c0.001-1.979-1.616-3.588-3.597-3.588
		c-1.983,0-3.595,1.609-3.595,3.588S27.953,124.087,29.937,124.087z"/>
	<path fill="#CC8C21" d="M33.394,125h-6.695c-1.774,0-3.213,1.266-3.213,3.041L23.476,138H26v13h8v-13h2.608l-0.005-9.959
		C36.604,126.266,35.166,125,33.394,125z"/>
</g>
<g>
	<path fill="#B88161" d="M159,75.098v-0.123c0-2.479-1.051-4.08-2.499-4.08c-1.448,0-2.501,1.601-2.501,4.08v0.122
		c-27,13.512-26.688,15.637-26.688,16.549c0,0.586-0.016,2.303,5.448,4.203c-0.06,2.213-0.091,3.869-0.091,5.127
		c-4.848-2.549-8.902-4.628-10.989-5.692c0.001-0.076-0.001-0.152-0.001-0.227c0-4.524-1.695-7.446-4.335-7.446
		c-2.646,0-4.344,2.922-4.344,7.446c0,0.074,0,0.148,0,0.227c-2,1.177-7.02,3.592-12.58,6.529c0.002-1.408-0.018-3.303-0.046-5.92
		c5.407-1.891,5.348-3.601,5.348-4.185c0-0.912,0.278-3.039-26.722-16.55c0-0.041,0-0.081,0-0.121c0-2.479-0.869-4.081-2.316-4.081
		c-1.448,0-2.352,1.603-2.352,4.081c0,0.04,0.017,0.081,0.018,0.121c-26.651,13.511-26.644,15.638-26.644,16.55
		c0,0.584,0.011,2.302,5.472,4.203c-0.259,9.512,0.086,9.81,0.747,10.321c1.076,0.837,10.774,2.535,18.401,3.006l1.366,0.086
		l0.126-1.354c0.001-0.021,0.006-0.04,0.009-0.06c0.171,0.007,0.343,0.019,0.513,0.024l-0.007,1.404
		c0.854,0.032,1.703-0.003,2.534-0.003c1.715,0,3.698-0.336,5.767-0.336h0.019c1.723,0,3.504-0.279,5.24-0.498
		c-23.541,12.988-23.545,15.016-23.545,16.949c0,1.069,0.012,4.214,9.975,7.682c-0.476,17.412,0.152,17.908,1.355,18.838
		c1.965,1.535,19.664,4.643,33.58,5.503l2.491,0.156l0.231-2.473c0.003-0.037,0.008-0.069,0.013-0.11
		c0.273,0.015,0.549,0.034,0.823,0.043l-0.014,2.564c1.601,0.061,3.185,0.096,4.738,0.096c3.11,0,6.707-0.188,10.462-0.499
		l0.099-0.003l-0.001-0.006c13.947-1.166,30.02-4.039,31.436-5.433c0.966-0.954,1.073-1.065,0.892-18.695
		c9.866-3.451,9.881-6.567,9.881-7.633c0-1.855-0.019-3.939-23.175-16.719c1.552,0.169,3.151,0.313,4.747,0.412l1.365,0.087
		l0.128-1.354c0.001-0.021,0.005-0.039,0.01-0.059c0.169,0.005,0.341,0.018,0.51,0.023l-0.008,1.407
		c0.854,0.03,1.705,0.055,2.535,0.055c1.716,0,3.701-0.104,5.768-0.276l0.017-0.002c7.656-0.638,16.466-2.218,17.223-2.975
		c0.541-0.528,0.592-0.609,0.49-10.25c5.41-1.891,5.574-3.601,5.574-4.183C185.494,90.734,185,88.608,159,75.098z M71.181,106.347
		c-6.884-0.527-13.238-1.758-15.177-2.278c-0.063-0.786-0.131-2.705-0.021-7.304c0.101,0.025,0.212,0.049,0.315,0.076
		c0.216,0.057,0.442,0.107,0.664,0.162c0.541,0.132,1.091,0.259,1.661,0.379c0.254,0.054,0.51,0.105,0.769,0.157
		c0.58,0.115,1.171,0.224,1.774,0.326c0.248,0.044,0.493,0.086,0.745,0.126c0.72,0.115,1.455,0.223,2.204,0.32
		c0.142,0.018,0.278,0.039,0.419,0.058c0.917,0.115,1.85,0.218,2.801,0.306c0.132,0.013,0.267,0.021,0.398,0.033
		c0.801,0.072,1.61,0.133,2.432,0.188c0.281,0.016,0.562,0.032,0.844,0.048c0.688,0.037,1.38,0.068,2.078,0.093
		c0.315,0.013,0.63,0.023,0.948,0.03c0.267,0.007,0.53,0.02,0.798,0.025C73.076,100.197,71.735,102.815,71.181,106.347z
		 M82.345,106.347c-0.556-3.53-1.902-6.149-3.657-7.256c0.274-0.006,0.545-0.018,0.817-0.026c0.304-0.006,0.605-0.017,0.91-0.028
		c0.719-0.024,1.43-0.058,2.138-0.096c0.27-0.018,0.539-0.03,0.808-0.045c0.849-0.055,1.688-0.119,2.516-0.196
		c0.109-0.011,0.219-0.018,0.325-0.026c0.959-0.092,1.899-0.194,2.821-0.311c0.144-0.021,0.281-0.04,0.421-0.059
		c0.75-0.099,1.486-0.205,2.208-0.32c0.25-0.041,0.495-0.086,0.743-0.126c0.605-0.104,1.199-0.215,1.778-0.33
		c0.259-0.054,0.514-0.104,0.765-0.158c0.578-0.123,1.138-0.252,1.688-0.388c0.21-0.051,0.428-0.1,0.633-0.154
		c0.098-0.027,0.202-0.048,0.297-0.074c0.031,3.45,0.026,5.423,0.011,6.569c-0.745,0.397-1.498,0.799-2.26,1.208
		C92.25,105.125,87.318,105.945,82.345,106.347z M107.162,152.197c-12.558-0.958-24.154-3.21-27.692-4.163
		c-0.117-1.435-0.241-4.931-0.037-13.326c0.103,0.026,0.216,0.049,0.319,0.076c1.024,0.269,2.074,0.525,3.158,0.771
		c0.188,0.042,0.381,0.083,0.571,0.124c1.056,0.231,2.135,0.453,3.24,0.66c0.125,0.026,0.246,0.049,0.372,0.073
		c1.188,0.22,2.407,0.425,3.646,0.616c0.23,0.035,0.458,0.072,0.688,0.105c1.254,0.192,2.528,0.369,3.828,0.529
		c0.131,0.02,0.263,0.03,0.392,0.047c1.306,0.158,2.633,0.306,3.978,0.436c0.091,0.008,0.18,0.018,0.271,0.027
		c1.391,0.135,2.805,0.248,4.23,0.347c0.176,0.015,0.354,0.026,0.531,0.037c1.453,0.098,2.917,0.183,4.397,0.248
		c0.015,0.002,0.029,0.002,0.044,0.002c1.529,0.067,3.071,0.114,4.622,0.141c0.036,0,0.072,0.002,0.109,0.003
		C110.624,140.964,108.174,145.746,107.162,152.197z M147.779,136.369c1.234-0.232,2.436-0.481,3.611-0.741
		c0.12-0.027,0.242-0.052,0.36-0.078c1.149-0.258,2.264-0.534,3.346-0.819c0.065-0.017,0.135-0.03,0.2-0.049
		c0.067,7.913,0.036,11.61-0.007,13.335c-4.096,0.941-15.871,3.213-27.755,4.172c-1.016-6.444-3.476-11.225-6.68-13.239
		c0.052-0.002,0.103,0.096,0.157,0.096c1.536-0.031,3.066-0.045,4.58-0.045c0.016,0,0.029,0,0.044,0c1.49,0,2.967-0.249,4.431-0.351
		c0.16-0.008,0.321-0.069,0.48-0.083c1.456-0.1,2.893-0.242,4.309-0.38c0.04-0.002,0.079-0.019,0.116-0.024
		c1.419-0.137,2.82-0.296,4.196-0.465c0.083-0.009,0.166-0.023,0.248-0.034c1.346-0.165,2.667-0.353,3.967-0.548
		c0.171-0.028,0.34-0.055,0.512-0.083c1.299-0.202,2.579-0.418,3.822-0.652C147.737,136.376,147.757,136.374,147.779,136.369z
		 M150.734,106.283c-3.888-0.297-7.698-0.832-10.615-1.339c-1.033-0.555-2.097-1.125-3.202-1.713c-0.19-0.104-0.392-0.178-0.6-0.229
		c-0.077-0.019-0.148-0.038-0.219-0.054c-0.173-0.185-0.38-0.334-0.604-0.462c-0.025-1.168-0.025-2.967,0.042-5.786
		c0.098,0.027,0.202,0.049,0.3,0.074c0.234,0.061,0.478,0.116,0.717,0.174c0.521,0.126,1.05,0.247,1.597,0.364
		c0.272,0.057,0.547,0.114,0.827,0.17c0.552,0.108,1.116,0.212,1.69,0.312c0.275,0.047,0.546,0.095,0.828,0.14
		c0.667,0.106,1.348,0.206,2.039,0.296c0.195,0.027,0.387,0.056,0.583,0.081c0.893,0.112,1.804,0.211,2.73,0.3
		c0.212,0.018,0.431,0.034,0.643,0.052c0.714,0.062,1.436,0.12,2.165,0.168c0.34,0.021,0.684,0.037,1.028,0.059
		c0.615,0.03,1.237,0.061,1.863,0.083c0.375,0.015,0.753,0.027,1.128,0.035c0.237,0.005,0.472,0.017,0.71,0.021
		C152.629,100.135,151.289,102.753,150.734,106.283z M177.103,103.996c-2.237,0.518-8.689,1.761-15.207,2.287
		c-0.558-3.53-1.902-6.151-3.658-7.255c0.244-0.005,0.483-0.017,0.727-0.021c0.369-0.01,0.735-0.021,1.104-0.035
		c0.633-0.022,1.262-0.053,1.891-0.085c0.343-0.021,0.687-0.036,1.025-0.058c0.727-0.048,1.446-0.104,2.157-0.167
		c0.221-0.019,0.444-0.036,0.662-0.055c0.922-0.087,1.829-0.187,2.717-0.3c0.231-0.03,0.453-0.063,0.679-0.094
		c0.661-0.09,1.309-0.181,1.942-0.284c0.303-0.05,0.597-0.102,0.892-0.152c0.551-0.094,1.09-0.194,1.621-0.299
		c0.297-0.06,0.593-0.12,0.885-0.181c0.528-0.114,1.036-0.23,1.539-0.354c0.257-0.062,0.513-0.122,0.765-0.188
		c0.084-0.023,0.178-0.041,0.261-0.064C177.141,101.007,177.127,103.042,177.103,103.996z"/>
</g>
<g>
	<ellipse fill="#F47B63" cx="153.116" cy="177.767" rx="10.361" ry="10.306"/>
	<path fill="#F47B63" d="M174.6,219.766c0-0.004-16.639-24.996-16.639-24.996c-3.873-5.369-12.098-4.744-16.781-0.19
		c0,0-9.917,9.628-11.926,11.599c-2.009,1.971-1.375,4.971,0.484,6.297l13.979,9.965c1.46,1.039,3.359,1.035,4.758,0.078
		L133.455,252h18.189c-0.517,6-0.997,11.294-0.997,11.294c0,0.002-2.23,25.351-2.23,25.351c-0.228,2.57,1.684,4.822,4.267,5.047
		c2.588,0.227,4.863-1.637,5.089-4.207l3.3-37.483h11.703c0,0-0.57-14.204-0.568-14.206c2.805-2.617,4.565-6.343,4.565-10.463
		C176.772,224.559,175.968,221.958,174.6,219.766z M147.52,215.129l-9.963-7.107l7.468-7.269l3.477,15.381
		C148.24,215.756,147.919,215.411,147.52,215.129z"/>
</g>
<g>
	<polygon fill="#576E60" points="556,84 545,84 545,99.661 525.275,83.657 476,124.051 476,130 574,130 574,124.051 556,109.46 	"/>
	<path fill="#576E60" d="M485,134v62h33v-22h14v22h34v-62h-40.854H485z M538,149v8h-9v9h-8v-9h-9v-8h9v-9h8v9H538z"/>
</g>
<path fill="#89AC96" d="M432.229,132.19c4.423,0,8.342,2.006,10.855,5.136l5.736-10.636c-4.262-4.505-12.141-7.197-16.816-7.197
	c-4.87,0-11.456,2.672-16.383,7.431l5.852,10.3C423.981,134.157,427.861,132.19,432.229,132.19z M427,124h3v-3h3v3h3v3h-3v3h-3v-3
	h-3V124z M440.684,143.393c0,4.736-3.786,8.573-8.47,8.573c-4.679,0-8.461-3.837-8.461-8.573c0-4.739,3.782-8.576,8.461-8.576
	C436.896,134.816,440.684,138.654,440.684,143.393z M460.151,188.137c1.635,5.863-5.728,9.064-7.479,3.355l-4.43-14.203L444.432,169
	h-2.193L455,213h-15v29.386c0,3.099-0.438,4.982-3.08,4.972c-2.859,0.012-2.988-1.68-2.988-4.806L433.816,213h-3.635l-0.119,29.553
	c0,3.127-0.385,4.732-2.982,4.723c-2.402,0.011-3.08-1.791-3.08-4.889V213h-14.309l12.762-44h-2.195l-3.811,8.527l-4.432,13.598
	c-1.752,5.71-9.11,3.76-7.478-2.104l8.181-26.294c1.014-3.064,4.646-6.728,11.307-6.728h0.529h15.578h0.531
	c6.66,0,10.293,3.663,11.305,6.728L460.151,188.137z"/>
<g>
	<path d="M348.721,264.852c-0.432-0.359-0.981-0.601-1.559-0.601c-0.432,0-1.008,0.252-1.008,0.755c0,0.528,0.636,0.732,1.044,0.864
		l0.6,0.18c1.259,0.372,2.23,1.007,2.23,2.472c0,0.898-0.216,1.822-0.938,2.436c-0.707,0.602-1.653,0.854-2.564,0.854
		c-1.142,0-2.255-0.386-3.181-1.031l1.01-1.896c0.588,0.518,1.281,0.938,2.087,0.938c0.552,0,1.14-0.276,1.14-0.912
		c0-0.66-0.924-0.887-1.428-1.031c-1.477-0.42-2.446-0.804-2.446-2.555c0-1.836,1.308-3.034,3.118-3.034
		c0.911,0,2.027,0.288,2.83,0.744L348.721,264.852z"/>
	<path d="M357.688,268.857h-4.594c0,0.887,0.468,1.367,1.367,1.367c0.468,0,0.804-0.156,1.044-0.563h2.099
		c-0.348,1.45-1.727,2.11-3.13,2.11c-2.039,0-3.562-1.15-3.562-3.273c0-2.051,1.403-3.286,3.406-3.286
		c2.135,0,3.368,1.319,3.368,3.418L357.688,268.857L357.688,268.857z M355.661,267.598c-0.108-0.588-0.648-0.972-1.235-0.972
		c-0.636,0-1.164,0.336-1.296,0.972H355.661z"/>
	<path d="M361.1,266.207h0.024c0.503-0.744,1.115-0.996,1.967-0.996c1.655,0,2.314,1.043,2.314,2.555v3.803h-2.185v-3
		c0-0.586,0.098-1.617-0.981-1.617c-0.89,0-1.142,0.658-1.142,1.427v3.188h-2.183v-6.151h2.183L361.1,266.207L361.1,266.207z"/>
	<path d="M371.624,270.884h-0.023c-0.384,0.612-1.14,0.888-1.857,0.888c-1.822,0-3.106-1.521-3.106-3.287
		c0-1.762,1.262-3.272,3.083-3.272c0.707,0,1.451,0.265,1.906,0.806v-4.402h2.184v9.955h-2.184L371.624,270.884L371.624,270.884z
		 M368.89,268.497c0,0.78,0.518,1.379,1.403,1.379s1.403-0.601,1.403-1.379c0-0.755-0.518-1.392-1.403-1.392
		S368.89,267.742,368.89,268.497z"/>
	<path d="M386.503,271.566h-2.184v-0.685h-0.023c-0.384,0.612-1.14,0.89-1.859,0.89c-1.82,0-3.104-1.523-3.104-3.287
		s1.26-3.274,3.083-3.274c0.707,0,1.451,0.265,1.906,0.804v-0.6h2.184L386.503,271.566L386.503,271.566z M381.585,268.497
		c0,0.78,0.516,1.379,1.403,1.379c0.887,0,1.401-0.601,1.401-1.379c0-0.755-0.516-1.392-1.401-1.392
		C382.101,267.105,381.585,267.742,381.585,268.497z"/>
	<path d="M390.263,265.415v3.287c0,0.778,0.192,1.331,1.094,1.331c0.898,0,1.091-0.553,1.091-1.331v-3.287h2.184v3.706
		c0,2.027-1.428,2.65-3.272,2.65c-1.85,0-3.274-0.623-3.274-2.65v-3.706H390.263z"/>
	<path d="M398.65,271.566h-2.185v-4.354h-0.708v-1.799h0.708v-1.849h2.185v1.849h1.233v1.799h-1.233V271.566z"/>
	<path d="M407.823,268.497c0,2.087-1.729,3.274-3.706,3.274c-1.967,0-3.706-1.176-3.706-3.274s1.728-3.286,3.706-3.286
		C406.097,265.211,407.823,266.398,407.823,268.497z M402.714,268.497c0,0.78,0.518,1.379,1.403,1.379s1.401-0.601,1.401-1.379
		c0-0.755-0.516-1.392-1.401-1.392S402.714,267.742,402.714,268.497z"/>
	<path d="M411.208,266.182h0.024c0.516-0.684,1.149-0.971,1.94-0.971c0.888,0,1.655,0.359,2.101,1.175
		c0.42-0.768,1.246-1.175,2.087-1.175c1.56,0,2.1,1.02,2.1,2.436v3.922h-2.184v-2.938c0-0.636,0.022-1.679-0.899-1.679
		c-1.007,0-1.043,0.946-1.043,1.679v2.938h-2.183v-2.938c0-0.686,0-1.729-0.974-1.729c-0.972,0-0.972,1.043-0.972,1.729v2.938
		h-2.183v-6.152h2.183L411.208,266.182L411.208,266.182z"/>
	<path d="M427.828,271.566h-2.186v-0.685h-0.021c-0.384,0.612-1.14,0.89-1.859,0.89c-1.82,0-3.104-1.523-3.104-3.287
		s1.26-3.274,3.083-3.274c0.707,0,1.451,0.265,1.904,0.804v-0.6h2.186L427.828,271.566L427.828,271.566z M422.91,268.497
		c0,0.78,0.516,1.379,1.403,1.379c0.887,0,1.401-0.601,1.401-1.379c0-0.755-0.516-1.392-1.401-1.392
		C423.426,267.105,422.91,267.742,422.91,268.497z"/>
	<path d="M431.924,271.566h-2.183v-4.354h-0.708v-1.799h0.708v-1.849h2.183v1.849h1.235v1.799h-1.235V271.566z"/>
	<path d="M440.479,268.857h-4.594c0,0.887,0.468,1.367,1.367,1.367c0.468,0,0.804-0.156,1.044-0.563h2.099
		c-0.348,1.45-1.727,2.11-3.13,2.11c-2.039,0-3.562-1.15-3.562-3.273c0-2.051,1.403-3.286,3.406-3.286
		c2.135,0,3.368,1.319,3.368,3.418L440.479,268.857L440.479,268.857z M438.452,267.598c-0.108-0.588-0.648-0.972-1.235-0.972
		c-0.636,0-1.164,0.336-1.296,0.972H438.452z"/>
	<path d="M446.324,270.884h-0.023c-0.384,0.612-1.14,0.888-1.857,0.888c-1.822,0-3.106-1.521-3.106-3.287
		c0-1.762,1.26-3.272,3.083-3.272c0.707,0,1.451,0.265,1.906,0.806v-4.402h2.184v9.955h-2.184L446.324,270.884L446.324,270.884z
		 M443.59,268.497c0,0.78,0.518,1.379,1.403,1.379s1.403-0.601,1.403-1.379c0-0.755-0.518-1.392-1.403-1.392
		S443.59,267.742,443.59,268.497z"/>
	<path d="M345.891,282.422h0.024c0.419-0.756,1.139-1.091,1.99-1.091h0.42v2.099c-0.3-0.168-0.588-0.203-0.924-0.203
		c-1.211,0-1.513,0.803-1.513,1.858v2.481h-2.183v-6.152h2.183L345.891,282.422L345.891,282.422z"/>
	<path d="M355.741,284.857h-4.594c0,0.887,0.468,1.367,1.365,1.367c0.47,0,0.806-0.156,1.044-0.563h2.101
		c-0.35,1.45-1.729,2.11-3.13,2.11c-2.039,0-3.562-1.15-3.562-3.273c0-2.051,1.403-3.286,3.406-3.286c2.135,0,3.37,1.319,3.37,3.418
		V284.857z M353.715,283.598c-0.106-0.588-0.646-0.972-1.233-0.972c-0.638,0-1.164,0.336-1.298,0.972H353.715z"/>
	<path d="M359.152,282.182h0.022c0.518-0.684,1.151-0.971,1.942-0.971c0.888,0,1.655,0.359,2.099,1.175
		c0.42-0.768,1.248-1.175,2.087-1.175c1.562,0,2.102,1.02,2.102,2.436v3.922h-2.186v-2.938c0-0.636,0.024-1.679-0.897-1.679
		c-1.007,0-1.043,0.946-1.043,1.679v2.938h-2.185v-2.938c0-0.686,0-1.729-0.972-1.729s-0.972,1.043-0.972,1.729v2.938h-2.185v-6.152
		h2.185L359.152,282.182L359.152,282.182z"/>
	<path d="M371.311,279.052c0,0.671-0.552,1.224-1.224,1.224c-0.671,0-1.223-0.553-1.223-1.224c0-0.672,0.552-1.224,1.223-1.224
		C370.759,277.829,371.311,278.38,371.311,279.052z M371.179,287.566h-2.183v-6.152h2.183V287.566z"/>
	<path d="M374.952,282.207h0.022c0.503-0.744,1.115-0.996,1.969-0.996c1.653,0,2.312,1.043,2.312,2.555v3.803h-2.183v-3
		c0-0.586,0.096-1.617-0.983-1.617c-0.888,0-1.14,0.658-1.14,1.427v3.188h-2.185v-6.151h2.185L374.952,282.207L374.952,282.207z"/>
	<path d="M385.479,286.884h-0.021c-0.384,0.612-1.14,0.888-1.859,0.888c-1.82,0-3.104-1.521-3.104-3.287
		c0-1.762,1.26-3.272,3.083-3.272c0.707,0,1.451,0.265,1.906,0.806v-4.402h2.184v9.955h-2.184v-0.686L385.479,286.884
		L385.479,286.884z M382.744,284.497c0,0.78,0.516,1.379,1.403,1.379c0.887,0,1.401-0.601,1.401-1.379
		c0-0.755-0.516-1.392-1.401-1.392C383.26,283.105,382.744,283.742,382.744,284.497z"/>
	<path d="M395.625,284.857h-4.594c0,0.887,0.468,1.367,1.367,1.367c0.468,0,0.804-0.156,1.044-0.563h2.099
		c-0.348,1.45-1.727,2.11-3.13,2.11c-2.039,0-3.562-1.15-3.562-3.273c0-2.051,1.403-3.286,3.406-3.286
		c2.135,0,3.37,1.319,3.37,3.418V284.857z M393.599,283.598c-0.106-0.588-0.646-0.972-1.233-0.972c-0.637,0-1.164,0.336-1.296,0.972
		H393.599z"/>
	<path d="M399.036,282.422h0.022c0.42-0.756,1.141-1.091,1.99-1.091h0.42v2.099c-0.3-0.168-0.588-0.203-0.923-0.203
		c-1.212,0-1.512,0.803-1.512,1.858v2.481h-2.185v-6.152h2.185L399.036,282.422L399.036,282.422z"/>
	<path d="M406.416,282.998c-0.336-0.18-0.804-0.3-1.175-0.3c-0.252,0-0.686,0.108-0.686,0.419c0,0.42,0.686,0.48,0.983,0.54
		c1.02,0.204,1.787,0.684,1.787,1.823c0,1.619-1.478,2.291-2.902,2.291c-0.876,0-1.739-0.252-2.481-0.709l0.792-1.522
		c0.441,0.312,1.188,0.624,1.727,0.624c0.276,0,0.684-0.132,0.684-0.469c0-0.479-0.684-0.502-1.365-0.685
		c-0.686-0.18-1.367-0.516-1.367-1.618c0-1.512,1.367-2.184,2.711-2.184c0.695,0,1.391,0.107,2.026,0.396L406.416,282.998z"/>
	<path d="M419.831,287.566h-2.184v-0.685h-0.023c-0.384,0.612-1.14,0.89-1.859,0.89c-1.82,0-3.104-1.523-3.104-3.287
		s1.26-3.274,3.083-3.274c0.707,0,1.451,0.265,1.906,0.804v-0.6h2.184L419.831,287.566L419.831,287.566z M414.913,284.497
		c0,0.78,0.516,1.379,1.403,1.379c0.887,0,1.401-0.601,1.401-1.379c0-0.755-0.516-1.392-1.401-1.392
		C415.429,283.105,414.913,283.742,414.913,284.497z"/>
	<path d="M423.624,282.207h0.024c0.503-0.744,1.113-0.996,1.967-0.996c1.653,0,2.312,1.043,2.312,2.555v3.803h-2.183v-3
		c0-0.586,0.096-1.617-0.983-1.617c-0.888,0-1.14,0.658-1.14,1.427v3.188h-2.185v-6.151h2.185L423.624,282.207L423.624,282.207z"/>
	<path d="M434.148,286.884h-0.023c-0.384,0.612-1.14,0.888-1.859,0.888c-1.82,0-3.104-1.521-3.104-3.287
		c0-1.762,1.26-3.272,3.083-3.272c0.707,0,1.451,0.265,1.906,0.806v-4.402h2.184v9.955h-2.184L434.148,286.884L434.148,286.884z
		 M431.414,284.497c0,0.78,0.516,1.379,1.403,1.379c0.887,0,1.401-0.601,1.401-1.379c0-0.755-0.516-1.392-1.401-1.392
		C431.93,283.105,431.414,283.742,431.414,284.497z"/>
	<path d="M449.028,287.566h-2.186v-0.685h-0.021c-0.384,0.612-1.142,0.89-1.859,0.89c-1.822,0-3.104-1.523-3.104-3.287
		s1.26-3.274,3.083-3.274c0.707,0,1.449,0.265,1.904,0.804v-0.6h2.186L449.028,287.566L449.028,287.566z M444.11,284.497
		c0,0.78,0.516,1.379,1.401,1.379c0.889,0,1.403-0.601,1.403-1.379c0-0.755-0.516-1.392-1.403-1.392
		C444.626,283.105,444.11,283.742,444.11,284.497z"/>
	<path d="M455.273,286.884h-0.023c-0.384,0.612-1.14,0.888-1.859,0.888c-1.82,0-3.104-1.521-3.104-3.287
		c0-1.762,1.26-3.272,3.083-3.272c0.707,0,1.451,0.265,1.906,0.806v-4.402h2.184v9.955h-2.184L455.273,286.884L455.273,286.884z
		 M452.539,284.497c0,0.78,0.516,1.379,1.403,1.379c0.887,0,1.401-0.601,1.401-1.379c0-0.755-0.516-1.392-1.401-1.392
		C453.055,283.105,452.539,283.742,452.539,284.497z"/>
	<path d="M462.128,284.568l1.463-3.153h2.446l-3.214,6.153h-1.394l-3.226-6.153h2.446L462.128,284.568z"/>
	<path d="M469.136,279.052c0,0.671-0.552,1.224-1.224,1.224c-0.671,0-1.223-0.553-1.223-1.224c0-0.672,0.552-1.224,1.223-1.224
		C468.584,277.829,469.136,278.38,469.136,279.052z M469.004,287.566h-2.183v-6.152h2.183V287.566z"/>
	<path d="M475.048,283.417c-0.324-0.24-0.708-0.433-1.127-0.433c-0.84,0-1.5,0.647-1.5,1.5c0,0.888,0.636,1.511,1.535,1.511
		c0.384,0,0.804-0.156,1.092-0.419v1.847c-0.479,0.24-1.008,0.349-1.535,0.349c-1.821,0-3.347-1.354-3.347-3.215
		c0-1.979,1.512-3.346,3.442-3.346c0.504,0,1.008,0.12,1.438,0.359L475.048,283.417L475.048,283.417z"/>
	<path d="M482.861,284.857h-4.596c0,0.887,0.47,1.367,1.367,1.367c0.468,0,0.804-0.156,1.044-0.563h2.101
		c-0.35,1.45-1.729,2.11-3.13,2.11c-2.039,0-3.562-1.15-3.562-3.273c0-2.051,1.403-3.286,3.406-3.286c2.135,0,3.37,1.319,3.37,3.418
		V284.857z M480.835,283.598c-0.108-0.588-0.648-0.972-1.235-0.972c-0.636,0-1.164,0.336-1.296,0.972H480.835z"/>
</g>
<g>
	<path d="M246.608,44.234h-2.926l-2.219-3.478h-0.024v3.478h-2.351v-9.043h3.514c1.787,0,3.143,0.852,3.143,2.782
		c0,1.248-0.695,2.327-1.979,2.555L246.608,44.234z M241.439,39.245h0.228c0.768,0,1.632-0.144,1.632-1.127
		c0-0.983-0.864-1.127-1.632-1.127h-0.228V39.245z"/>
	<path d="M253.535,41.523h-4.594c0,0.887,0.468,1.367,1.367,1.367c0.468,0,0.804-0.156,1.044-0.563h2.099
		c-0.348,1.451-1.727,2.111-3.13,2.111c-2.039,0-3.562-1.151-3.562-3.274c0-2.051,1.403-3.286,3.406-3.286
		c2.135,0,3.37,1.319,3.37,3.418V41.523L253.535,41.523z M251.509,40.264c-0.108-0.588-0.648-0.972-1.235-0.972
		c-0.636,0-1.164,0.336-1.296,0.972H251.509z"/>
	<path d="M261.534,43.634c0,2.614-1.295,3.67-3.562,3.67c-1.416,0-3.311-0.731-3.502-2.351h2.446
		c0.06,0.216,0.216,0.372,0.407,0.468c0.192,0.096,0.42,0.144,0.624,0.144c1.176,0,1.403-0.768,1.403-1.763v-0.288
		c-0.563,0.564-1.14,0.84-1.955,0.84c-1.799,0-3.034-1.367-3.034-3.143c0-1.799,1.271-3.334,3.154-3.334
		c0.72,0,1.379,0.24,1.811,0.852h0.024v-0.648h2.183L261.534,43.634L261.534,43.634z M256.617,41.116
		c0,0.779,0.516,1.379,1.403,1.379s1.403-0.6,1.403-1.379c0-0.756-0.516-1.392-1.403-1.392S256.617,40.36,256.617,41.116z"/>
	<path d="M265.424,35.719c0,0.671-0.552,1.223-1.224,1.223c-0.671,0-1.223-0.552-1.223-1.223c0-0.672,0.552-1.224,1.223-1.224
		C264.872,34.495,265.424,35.047,265.424,35.719z M265.292,44.234h-2.183v-6.153h2.183V44.234z"/>
	<path d="M270.865,39.665c-0.336-0.18-0.804-0.3-1.175-0.3c-0.252,0-0.684,0.108-0.684,0.419c0,0.42,0.684,0.48,0.983,0.54
		c1.02,0.204,1.787,0.684,1.787,1.823c0,1.619-1.476,2.291-2.902,2.291c-0.876,0-1.739-0.252-2.483-0.708l0.792-1.523
		c0.443,0.312,1.188,0.624,1.727,0.624c0.276,0,0.684-0.132,0.684-0.468c0-0.479-0.684-0.503-1.367-0.684
		c-0.684-0.18-1.367-0.516-1.367-1.619c0-1.511,1.367-2.183,2.711-2.183c0.695,0,1.391,0.108,2.026,0.396L270.865,39.665z"/>
	<path d="M275.475,44.234h-2.183V39.88h-0.708v-1.799h0.708v-1.847h2.183v1.847h1.235v1.799h-1.235V44.234z"/>
	<path d="M284.029,41.523h-4.594c0,0.887,0.468,1.367,1.367,1.367c0.468,0,0.804-0.156,1.044-0.563h2.099
		c-0.348,1.451-1.727,2.111-3.13,2.111c-2.039,0-3.562-1.151-3.562-3.274c0-2.051,1.403-3.286,3.406-3.286
		c2.135,0,3.37,1.319,3.37,3.418V41.523z M282.003,40.264c-0.108-0.588-0.648-0.972-1.235-0.972c-0.636,0-1.164,0.336-1.296,0.972
		H282.003z"/>
	<path d="M287.44,39.089h0.024c0.419-0.756,1.139-1.091,1.99-1.091h0.42v2.099c-0.3-0.168-0.588-0.204-0.924-0.204
		c-1.211,0-1.511,0.804-1.511,1.859v2.482h-2.183v-6.153h2.183L287.44,39.089L287.44,39.089z"/>
	<path d="M297.473,38.873h0.024c0.503-0.744,1.114-0.996,1.967-0.996c1.655,0,2.313,1.043,2.313,2.555v3.802h-2.184v-2.999
		c0-0.587,0.097-1.619-0.983-1.619c-0.887,0-1.139,0.66-1.139,1.427v3.19h-2.183V38.08h2.183L297.473,38.873L297.473,38.873z"/>
	<path d="M309.736,41.523h-4.594c0,0.887,0.467,1.367,1.365,1.367c0.468,0,0.804-0.156,1.044-0.563h2.101
		c-0.35,1.451-1.729,2.111-3.131,2.111c-2.039,0-3.562-1.151-3.562-3.274c0-2.051,1.402-3.286,3.406-3.286
		c2.135,0,3.37,1.319,3.37,3.418L309.736,41.523L309.736,41.523z M307.71,40.264c-0.108-0.588-0.647-0.972-1.235-0.972
		c-0.636,0-1.164,0.336-1.295,0.972H307.71z"/>
	<path d="M313.748,41.416l1.547-3.334h1.295l1.548,3.334l1.547-3.334h2.41l-3.214,6.153h-1.415l-1.521-3.37l-1.523,3.37h-1.415
		l-3.214-6.153h2.423L313.748,41.416z"/>
	<path d="M329.347,38.777h0.024c0.396-0.612,1.14-0.899,1.859-0.899c1.835,0,3.104,1.535,3.104,3.298
		c0,1.775-1.259,3.262-3.082,3.262c-0.707,0-1.438-0.252-1.907-0.792v3.658h-2.183v-9.223h2.183L329.347,38.777L329.347,38.777z
		 M329.275,41.164c0,0.78,0.516,1.379,1.401,1.379c0.889,0,1.403-0.6,1.403-1.379c0-0.755-0.517-1.391-1.403-1.391
		C329.791,39.772,329.275,40.408,329.275,41.164z"/>
	<path d="M337.77,39.089h0.024c0.419-0.756,1.139-1.091,1.99-1.091h0.42v2.099c-0.3-0.168-0.588-0.204-0.923-0.204
		c-1.212,0-1.514,0.804-1.514,1.859v2.482h-2.183v-6.153h2.183L337.77,39.089L337.77,39.089z"/>
	<path d="M347.621,41.523h-4.594c0,0.887,0.468,1.367,1.365,1.367c0.47,0,0.806-0.156,1.046-0.563h2.099
		c-0.348,1.451-1.729,2.111-3.13,2.111c-2.039,0-3.562-1.151-3.562-3.274c0-2.051,1.403-3.286,3.406-3.286
		c2.135,0,3.37,1.319,3.37,3.418V41.523z M345.595,40.264c-0.106-0.588-0.646-0.972-1.233-0.972c-0.638,0-1.164,0.336-1.296,0.972
		H345.595z"/>
	<path d="M355.619,43.634c0,2.614-1.295,3.67-3.562,3.67c-1.415,0-3.311-0.731-3.502-2.351h2.446
		c0.06,0.216,0.216,0.372,0.408,0.468c0.189,0.096,0.419,0.144,0.623,0.144c1.176,0,1.401-0.768,1.401-1.763v-0.288
		c-0.562,0.564-1.14,0.84-1.954,0.84c-1.8,0-3.033-1.367-3.033-3.143c0-1.799,1.271-3.334,3.152-3.334
		c0.722,0,1.379,0.24,1.812,0.852h0.022v-0.648h2.185L355.619,43.634L355.619,43.634z M350.702,41.116
		c0,0.779,0.516,1.379,1.403,1.379c0.887,0,1.401-0.6,1.401-1.379c0-0.756-0.516-1.392-1.401-1.392
		C351.218,39.724,350.702,40.36,350.702,41.116z"/>
	<path d="M359.371,38.873h0.022c0.505-0.744,1.115-0.996,1.969-0.996c1.653,0,2.312,1.043,2.312,2.555v3.802h-2.183v-2.999
		c0-0.587,0.096-1.619-0.983-1.619c-0.888,0-1.14,0.66-1.14,1.427v3.19h-2.185V38.08h2.185L359.371,38.873L359.371,38.873z"/>
	<path d="M372.037,44.234h-2.186V43.55h-0.021c-0.384,0.612-1.14,0.888-1.859,0.888c-1.82,0-3.104-1.523-3.104-3.287
		c0-1.763,1.26-3.274,3.083-3.274c0.707,0,1.451,0.264,1.904,0.804v-0.6h2.186L372.037,44.234L372.037,44.234z M367.119,41.164
		c0,0.78,0.516,1.379,1.403,1.379c0.887,0,1.401-0.6,1.401-1.379c0-0.755-0.516-1.391-1.401-1.391
		C367.635,39.773,367.119,40.408,367.119,41.164z"/>
	<path d="M375.83,38.873h0.022c0.505-0.744,1.115-0.996,1.969-0.996c1.653,0,2.312,1.043,2.312,2.555v3.802h-2.183v-2.999
		c0-0.587,0.096-1.619-0.983-1.619c-0.888,0-1.14,0.66-1.14,1.427v3.19h-2.185V38.08h2.185L375.83,38.873L375.83,38.873z"/>
	<path d="M386.183,40.084c-0.322-0.24-0.708-0.432-1.128-0.432c-0.839,0-1.499,0.648-1.499,1.499c0,0.888,0.638,1.511,1.535,1.511
		c0.384,0,0.804-0.156,1.092-0.419v1.847c-0.479,0.24-1.008,0.348-1.533,0.348c-1.823,0-3.349-1.355-3.349-3.214
		c0-1.979,1.514-3.346,3.442-3.346c0.504,0,1.008,0.12,1.438,0.36L386.183,40.084L386.183,40.084z"/>
	<path d="M390,35.719c0,0.671-0.552,1.223-1.224,1.223c-0.671,0-1.225-0.552-1.225-1.223c0-0.672,0.554-1.224,1.225-1.224
		C389.448,34.495,390,35.047,390,35.719z M389.868,44.234h-2.185v-6.153h2.185V44.234z"/>
	<path d="M397.802,41.523h-4.594c0,0.887,0.468,1.367,1.367,1.367c0.468,0,0.804-0.156,1.044-0.563h2.099
		c-0.348,1.451-1.727,2.111-3.13,2.111c-2.039,0-3.562-1.151-3.562-3.274c0-2.051,1.401-3.286,3.404-3.286
		c2.137,0,3.37,1.319,3.37,3.418L397.802,41.523L397.802,41.523z M395.775,40.264c-0.108-0.588-0.648-0.972-1.235-0.972
		c-0.636,0-1.164,0.336-1.296,0.972H395.775z"/>
	<path d="M402.947,39.665c-0.336-0.18-0.806-0.3-1.175-0.3c-0.254,0-0.686,0.108-0.686,0.419c0,0.42,0.686,0.48,0.983,0.54
		c1.02,0.204,1.787,0.684,1.787,1.823c0,1.619-1.478,2.291-2.902,2.291c-0.876,0-1.739-0.252-2.483-0.708l0.792-1.523
		c0.443,0.312,1.188,0.624,1.729,0.624c0.274,0,0.684-0.132,0.684-0.468c0-0.479-0.684-0.503-1.367-0.684
		c-0.684-0.18-1.365-0.516-1.365-1.619c0-1.511,1.365-2.183,2.711-2.183c0.693,0,1.391,0.108,2.024,0.396L402.947,39.665z"/>
	<path d="M244.054,53.518c-0.432-0.36-0.983-0.6-1.559-0.6c-0.432,0-1.008,0.252-1.008,0.755c0,0.528,0.636,0.732,1.044,0.864
		l0.6,0.18c1.259,0.372,2.23,1.007,2.23,2.471c0,0.899-0.216,1.823-0.936,2.435c-0.707,0.6-1.655,0.852-2.566,0.852
		c-1.14,0-2.255-0.384-3.179-1.031l1.008-1.895c0.588,0.516,1.283,0.936,2.087,0.936c0.552,0,1.14-0.276,1.14-0.912
		c0-0.66-0.924-0.887-1.428-1.031c-1.475-0.42-2.446-0.804-2.446-2.555c0-1.835,1.308-3.034,3.118-3.034
		c0.911,0,2.027,0.288,2.83,0.744L244.054,53.518z"/>
	<path d="M253.021,57.523h-4.594c0,0.887,0.468,1.367,1.367,1.367c0.468,0,0.804-0.156,1.044-0.563h2.099
		c-0.348,1.451-1.727,2.111-3.13,2.111c-2.039,0-3.562-1.151-3.562-3.274c0-2.051,1.403-3.286,3.406-3.286
		c2.135,0,3.37,1.319,3.37,3.418V57.523L253.021,57.523z M250.994,56.264c-0.108-0.588-0.648-0.972-1.235-0.972
		c-0.636,0-1.164,0.336-1.296,0.972H250.994z"/>
	<path d="M256.433,54.873h0.024c0.503-0.744,1.115-0.996,1.967-0.996c1.655,0,2.314,1.043,2.314,2.555v3.802h-2.183v-2.999
		c0-0.587,0.096-1.619-0.983-1.619c-0.888,0-1.14,0.66-1.14,1.427v3.19h-2.183V54.08h2.183L256.433,54.873L256.433,54.873z"/>
	<path d="M266.957,59.55h-0.023c-0.384,0.612-1.14,0.888-1.859,0.888c-1.822,0-3.106-1.523-3.106-3.287
		c0-1.763,1.26-3.274,3.083-3.274c0.707,0,1.451,0.264,1.906,0.804v-4.402h2.184v9.955h-2.184L266.957,59.55L266.957,59.55z
		 M264.223,57.164c0,0.78,0.516,1.379,1.403,1.379s1.403-0.6,1.403-1.379c0-0.755-0.516-1.391-1.403-1.391
		S264.223,56.408,264.223,57.164z"/>
	<path d="M278.13,57.235l1.463-3.154h2.446l-3.214,6.153h-1.392l-3.226-6.153h2.446L278.13,57.235z"/>
	<path d="M285.138,51.719c0,0.671-0.552,1.223-1.224,1.223c-0.671,0-1.223-0.552-1.223-1.223c0-0.672,0.552-1.224,1.223-1.224
		C284.586,50.495,285.138,51.047,285.138,51.719z M285.006,60.234h-2.183v-6.153h2.183V60.234z"/>
	<path d="M290.58,55.665c-0.336-0.18-0.804-0.3-1.175-0.3c-0.252,0-0.684,0.108-0.684,0.419c0,0.42,0.684,0.48,0.983,0.54
		c1.02,0.204,1.787,0.684,1.787,1.823c0,1.619-1.476,2.291-2.902,2.291c-0.876,0-1.739-0.252-2.483-0.708l0.792-1.523
		c0.443,0.312,1.188,0.624,1.727,0.624c0.276,0,0.684-0.132,0.684-0.468c0-0.479-0.684-0.503-1.367-0.684
		c-0.684-0.18-1.367-0.516-1.367-1.619c0-1.511,1.367-2.183,2.711-2.183c0.695,0,1.391,0.108,2.026,0.396L290.58,55.665z"/>
	<path d="M295.072,51.719c0,0.671-0.552,1.223-1.224,1.223c-0.671,0-1.223-0.552-1.223-1.223c0-0.672,0.552-1.224,1.223-1.224
		C294.521,50.495,295.072,51.047,295.072,51.719z M294.94,60.234h-2.183v-6.153h2.183V60.234z"/>
	<path d="M298.989,60.234h-2.183V55.88h-0.708v-1.799h0.708v-1.847h2.183v1.847h1.235v1.799h-1.235V60.234z"/>
	<path d="M309.956,56.084c-0.324-0.24-0.708-0.432-1.128-0.432c-0.839,0-1.499,0.648-1.499,1.499c0,0.888,0.636,1.511,1.535,1.511
		c0.384,0,0.804-0.156,1.092-0.419v1.847c-0.479,0.24-1.008,0.348-1.535,0.348c-1.823,0-3.347-1.355-3.347-3.214
		c0-1.979,1.512-3.346,3.44-3.346c0.505,0,1.01,0.12,1.439,0.36L309.956,56.084L309.956,56.084z"/>
	<path d="M318.377,57.164c0,2.087-1.727,3.274-3.706,3.274c-1.967,0-3.706-1.176-3.706-3.274s1.729-3.286,3.706-3.286
		C316.65,53.877,318.377,55.065,318.377,57.164z M313.268,57.164c0,0.78,0.518,1.379,1.403,1.379s1.403-0.6,1.403-1.379
		c0-0.755-0.518-1.391-1.403-1.391S313.268,56.408,313.268,57.164z"/>
	<path d="M321.762,54.873h0.024c0.503-0.744,1.115-0.996,1.967-0.996c1.655,0,2.314,1.043,2.314,2.555v3.802h-2.185v-2.999
		c0-0.587,0.098-1.619-0.981-1.619c-0.89,0-1.142,0.66-1.142,1.427v3.19h-2.183V54.08h2.183L321.762,54.873L321.762,54.873z"/>
	<path d="M330.082,60.234h-2.183V55.88h-0.77v-1.799h0.77v-0.779c0-0.852,0.022-1.475,0.624-2.159
		c0.537-0.636,1.316-0.983,2.146-0.983c0.336,0,0.636,0.06,0.938,0.216v1.883c-0.254-0.108-0.479-0.204-0.77-0.204
		c-0.562,0-0.756,0.336-0.756,1.032v0.995h1.521v1.799h-1.521L330.082,60.234L330.082,60.234z"/>
	<path d="M334.847,51.719c0,0.671-0.552,1.223-1.224,1.223c-0.671,0-1.223-0.552-1.223-1.223c0-0.672,0.552-1.224,1.223-1.224
		C334.295,50.495,334.847,51.047,334.847,51.719z M334.715,60.234h-2.183v-6.153h2.183V60.234z"/>
	<path d="M338.487,55.089h0.022c0.419-0.756,1.141-1.091,1.99-1.091h0.42v2.099c-0.3-0.168-0.588-0.204-0.924-0.204
		c-1.211,0-1.511,0.804-1.511,1.859v2.482h-2.185v-6.153h2.185L338.487,55.089L338.487,55.089z"/>
	<path d="M344.072,54.849h0.022c0.518-0.684,1.151-0.971,1.942-0.971c0.888,0,1.655,0.36,2.099,1.175
		c0.42-0.768,1.248-1.175,2.087-1.175c1.562,0,2.102,1.02,2.102,2.435v3.922h-2.186v-2.938c0-0.636,0.024-1.679-0.897-1.679
		c-1.007,0-1.043,0.948-1.043,1.679v2.938h-2.185v-2.938c0-0.684,0-1.727-0.972-1.727s-0.972,1.043-0.972,1.727v2.938h-2.185v-6.153
		h2.185L344.072,54.849L344.072,54.849z"/>
	<path d="M360.692,60.234h-2.186V59.55h-0.021c-0.386,0.612-1.142,0.888-1.859,0.888c-1.822,0-3.106-1.523-3.106-3.287
		c0-1.763,1.262-3.274,3.083-3.274c0.707,0,1.451,0.264,1.906,0.804v-0.6h2.186L360.692,60.234L360.692,60.234z M355.774,57.164
		c0,0.78,0.516,1.379,1.401,1.379c0.889,0,1.403-0.6,1.403-1.379c0-0.755-0.516-1.391-1.403-1.391
		C356.29,55.773,355.774,56.408,355.774,57.164z"/>
	<path d="M364.788,60.234h-2.183V55.88h-0.71v-1.799h0.71v-1.847h2.183v1.847h1.235v1.799h-1.235V60.234z"/>
	<path d="M369.275,51.719c0,0.671-0.554,1.223-1.226,1.223c-0.671,0-1.223-0.552-1.223-1.223c0-0.672,0.552-1.224,1.223-1.224
		C368.724,50.495,369.275,51.047,369.275,51.719z M369.144,60.234h-2.183v-6.153h2.183V60.234z"/>
	<path d="M377.712,57.164c0,2.087-1.728,3.274-3.706,3.274c-1.967,0-3.706-1.176-3.706-3.274s1.729-3.286,3.706-3.286
		C375.984,53.878,377.712,55.065,377.712,57.164z M372.603,57.164c0,0.78,0.518,1.379,1.403,1.379s1.403-0.6,1.403-1.379
		c0-0.755-0.518-1.391-1.403-1.391S372.603,56.408,372.603,57.164z"/>
	<path d="M381.098,54.873h0.024c0.503-0.744,1.115-0.996,1.967-0.996c1.655,0,2.314,1.043,2.314,2.555v3.802h-2.185v-2.999
		c0-0.587,0.098-1.619-0.981-1.619c-0.89,0-1.142,0.66-1.142,1.427v3.19h-2.183V54.08h2.183L381.098,54.873L381.098,54.873z"/>
	<path d="M246.608,76.234h-2.926l-2.219-3.478h-0.024v3.478h-2.351v-9.043h3.514c1.787,0,3.143,0.852,3.143,2.782
		c0,1.248-0.695,2.327-1.979,2.555L246.608,76.234z M241.439,71.245h0.228c0.768,0,1.632-0.144,1.632-1.127
		c0-0.983-0.864-1.127-1.632-1.127h-0.228V71.245z"/>
	<path d="M253.535,73.523h-4.594c0,0.887,0.468,1.367,1.367,1.367c0.468,0,0.804-0.156,1.044-0.563h2.099
		c-0.348,1.451-1.727,2.111-3.13,2.111c-2.039,0-3.562-1.151-3.562-3.274c0-2.051,1.403-3.286,3.406-3.286
		c2.135,0,3.37,1.319,3.37,3.418V73.523L253.535,73.523z M251.509,72.264c-0.108-0.588-0.648-0.972-1.235-0.972
		c-0.636,0-1.164,0.336-1.296,0.972H251.509z"/>
	<path d="M256.911,70.777h0.024c0.396-0.612,1.14-0.899,1.859-0.899c1.835,0,3.105,1.535,3.105,3.298
		c0,1.775-1.259,3.262-3.082,3.262c-0.707,0-1.439-0.252-1.907-0.792v3.658h-2.183v-9.223h2.183L256.911,70.777L256.911,70.777z
		 M256.84,73.164c0,0.78,0.516,1.379,1.403,1.379c0.887,0,1.403-0.6,1.403-1.379c0-0.755-0.517-1.391-1.403-1.391
		C257.355,71.772,256.84,72.408,256.84,73.164z"/>
	<path d="M270.163,73.164c0,2.087-1.728,3.274-3.706,3.274c-1.967,0-3.706-1.176-3.706-3.274s1.728-3.286,3.706-3.286
		S270.163,71.065,270.163,73.164z M265.054,73.164c0,0.78,0.516,1.379,1.403,1.379s1.403-0.6,1.403-1.379
		c0-0.755-0.516-1.391-1.403-1.391S265.054,72.408,265.054,73.164z"/>
	<path d="M273.549,71.089h0.024c0.419-0.756,1.139-1.091,1.99-1.091h0.42v2.099c-0.3-0.168-0.588-0.204-0.923-0.204
		c-1.212,0-1.512,0.804-1.512,1.859v2.482h-2.183v-6.153h2.183L273.549,71.089L273.549,71.089z"/>
	<path d="M279.532,76.234h-2.183V71.88h-0.708v-1.799h0.708v-1.847h2.183v1.847h1.235v1.799h-1.235V76.234z"/>
	<path d="M290.689,75.55h-0.023c-0.384,0.612-1.14,0.888-1.859,0.888c-1.822,0-3.106-1.523-3.106-3.287
		c0-1.763,1.26-3.274,3.083-3.274c0.707,0,1.451,0.264,1.906,0.804v-4.402h2.184v9.955h-2.184L290.689,75.55L290.689,75.55z
		 M287.955,73.164c0,0.78,0.516,1.379,1.403,1.379c0.887,0,1.403-0.6,1.403-1.379c0-0.755-0.516-1.391-1.403-1.391
		C288.471,71.773,287.955,72.408,287.955,73.164z"/>
	<path d="M301.213,76.234h-2.184V75.55h-0.023c-0.384,0.612-1.14,0.888-1.859,0.888c-1.822,0-3.106-1.523-3.106-3.287
		c0-1.763,1.26-3.274,3.083-3.274c0.707,0,1.451,0.264,1.906,0.804v-0.6h2.184L301.213,76.234L301.213,76.234z M296.295,73.164
		c0,0.78,0.516,1.379,1.403,1.379c0.887,0,1.403-0.6,1.403-1.379c0-0.755-0.517-1.391-1.403-1.391
		C296.811,71.773,296.295,72.408,296.295,73.164z"/>
	<path d="M305.006,70.873h0.023c0.504-0.744,1.114-0.996,1.968-0.996c1.655,0,2.312,1.043,2.312,2.555v3.802h-2.183v-2.999
		c0-0.587,0.097-1.619-0.983-1.619c-0.888,0-1.14,0.66-1.14,1.427v3.19h-2.184V70.08h2.184L305.006,70.873L305.006,70.873z"/>
	<path d="M317.684,75.634c0,2.614-1.295,3.67-3.562,3.67c-1.415,0-3.312-0.731-3.502-2.351h2.446
		c0.06,0.216,0.216,0.372,0.406,0.468c0.191,0.096,0.419,0.144,0.623,0.144c1.178,0,1.403-0.768,1.403-1.763v-0.288
		c-0.563,0.564-1.14,0.84-1.955,0.84c-1.799,0-3.034-1.367-3.034-3.143c0-1.799,1.271-3.334,3.154-3.334
		c0.72,0,1.379,0.24,1.811,0.852h0.024v-0.648h2.183L317.684,75.634L317.684,75.634z M312.767,73.116
		c0,0.779,0.518,1.379,1.403,1.379s1.403-0.6,1.403-1.379c0-0.756-0.518-1.392-1.403-1.392S312.767,72.36,312.767,73.116z"/>
	<path d="M325.647,73.523h-4.596c0,0.887,0.47,1.367,1.367,1.367c0.468,0,0.804-0.156,1.044-0.563h2.101
		c-0.35,1.451-1.729,2.111-3.132,2.111c-2.039,0-3.562-1.151-3.562-3.274c0-2.051,1.403-3.286,3.406-3.286
		c2.135,0,3.37,1.319,3.37,3.418L325.647,73.523L325.647,73.523z M323.621,72.264c-0.108-0.588-0.648-0.972-1.235-0.972
		c-0.636,0-1.164,0.336-1.296,0.972H323.621z"/>
	<path d="M329.059,71.089h0.024c0.419-0.756,1.139-1.091,1.99-1.091h0.42v2.099c-0.3-0.168-0.588-0.204-0.923-0.204
		c-1.212,0-1.514,0.804-1.514,1.859v2.482h-2.183v-6.153h2.183L329.059,71.089L329.059,71.089z"/>
	<path d="M340.973,71.665c-0.336-0.18-0.804-0.3-1.175-0.3c-0.252,0-0.684,0.108-0.684,0.419c0,0.42,0.684,0.48,0.981,0.54
		c1.021,0.204,1.787,0.684,1.787,1.823c0,1.619-1.476,2.291-2.9,2.291c-0.876,0-1.739-0.252-2.483-0.708l0.792-1.523
		c0.443,0.312,1.188,0.624,1.727,0.624c0.276,0,0.686-0.132,0.686-0.468c0-0.479-0.686-0.503-1.367-0.684
		c-0.684-0.18-1.367-0.516-1.367-1.619c0-1.511,1.367-2.183,2.711-2.183c0.695,0,1.393,0.108,2.026,0.396L340.973,71.665z"/>
	<path d="M345.466,67.719c0,0.671-0.552,1.223-1.224,1.223c-0.671,0-1.225-0.552-1.225-1.223c0-0.672,0.554-1.224,1.225-1.224
		C344.914,66.495,345.466,67.047,345.466,67.719z M345.334,76.234h-2.183v-6.153h2.183V76.234z"/>
	<path d="M353.681,75.634c0,2.614-1.295,3.67-3.562,3.67c-1.416,0-3.312-0.731-3.502-2.351h2.444
		c0.062,0.216,0.218,0.372,0.407,0.468c0.192,0.096,0.42,0.144,0.624,0.144c1.176,0,1.403-0.768,1.403-1.763v-0.288
		c-0.563,0.564-1.14,0.84-1.955,0.84c-1.799,0-3.034-1.367-3.034-3.143c0-1.799,1.271-3.334,3.154-3.334
		c0.72,0,1.379,0.24,1.811,0.852h0.024v-0.648h2.183L353.681,75.634L353.681,75.634z M348.764,73.116
		c0,0.779,0.518,1.379,1.403,1.379s1.403-0.6,1.403-1.379c0-0.756-0.518-1.392-1.403-1.392S348.764,72.36,348.764,73.116z"/>
	<path d="M357.432,70.873h0.024c0.503-0.744,1.115-0.996,1.967-0.996c1.655,0,2.314,1.043,2.314,2.555v3.802h-2.185v-2.999
		c0-0.587,0.098-1.619-0.981-1.619c-0.89,0-1.142,0.66-1.142,1.427v3.19h-2.183V70.08h2.183L357.432,70.873L357.432,70.873z"/>
	<path d="M367.293,71.665c-0.336-0.18-0.804-0.3-1.175-0.3c-0.252,0-0.686,0.108-0.686,0.419c0,0.42,0.686,0.48,0.983,0.54
		c1.021,0.204,1.787,0.684,1.787,1.823c0,1.619-1.478,2.291-2.902,2.291c-0.876,0-1.739-0.252-2.481-0.708l0.792-1.523
		c0.441,0.312,1.188,0.624,1.727,0.624c0.276,0,0.684-0.132,0.684-0.468c0-0.479-0.684-0.503-1.365-0.684
		c-0.686-0.18-1.367-0.516-1.367-1.619c0-1.511,1.367-2.183,2.711-2.183c0.695,0,1.391,0.108,2.026,0.396L367.293,71.665z"/>
	<path d="M246.608,92.234h-2.926l-2.219-3.478h-0.024v3.478h-2.351v-9.043h3.514c1.787,0,3.143,0.852,3.143,2.782
		c0,1.248-0.695,2.327-1.979,2.555L246.608,92.234z M241.439,87.245h0.228c0.768,0,1.632-0.144,1.632-1.127
		c0-0.983-0.864-1.127-1.632-1.127h-0.228V87.245z"/>
	<path d="M253.535,89.523h-4.594c0,0.887,0.468,1.367,1.367,1.367c0.468,0,0.804-0.156,1.044-0.563h2.099
		c-0.348,1.451-1.727,2.111-3.13,2.111c-2.039,0-3.562-1.151-3.562-3.274c0-2.051,1.403-3.286,3.406-3.286
		c2.135,0,3.37,1.319,3.37,3.418V89.523L253.535,89.523z M251.509,88.264c-0.108-0.588-0.648-0.972-1.235-0.972
		c-0.636,0-1.164,0.336-1.296,0.972H251.509z"/>
	<path d="M256.911,86.777h0.024c0.396-0.612,1.14-0.899,1.859-0.899c1.835,0,3.105,1.535,3.105,3.298
		c0,1.775-1.259,3.262-3.082,3.262c-0.707,0-1.439-0.252-1.907-0.792v3.658h-2.183v-9.223h2.183L256.911,86.777L256.911,86.777z
		 M256.84,89.164c0,0.78,0.516,1.379,1.403,1.379c0.887,0,1.403-0.6,1.403-1.379c0-0.755-0.517-1.391-1.403-1.391
		C257.355,87.772,256.84,88.408,256.84,89.164z"/>
	<path d="M270.163,89.164c0,2.087-1.728,3.274-3.706,3.274c-1.967,0-3.706-1.176-3.706-3.274s1.728-3.286,3.706-3.286
		S270.163,87.065,270.163,89.164z M265.054,89.164c0,0.78,0.516,1.379,1.403,1.379s1.403-0.6,1.403-1.379
		c0-0.755-0.516-1.391-1.403-1.391S265.054,88.408,265.054,89.164z"/>
	<path d="M273.549,87.089h0.024c0.419-0.756,1.139-1.091,1.99-1.091h0.42v2.099c-0.3-0.168-0.588-0.204-0.923-0.204
		c-1.212,0-1.512,0.804-1.512,1.859v2.482h-2.183v-6.153h2.183L273.549,87.089L273.549,87.089z"/>
	<path d="M279.532,92.234h-2.183V87.88h-0.708v-1.799h0.708v-1.847h2.183v1.847h1.235v1.799h-1.235V92.234z"/>
	<path d="M290.689,91.55h-0.023c-0.384,0.612-1.14,0.888-1.859,0.888c-1.822,0-3.106-1.523-3.106-3.287
		c0-1.763,1.26-3.274,3.083-3.274c0.707,0,1.451,0.264,1.906,0.804v-4.402h2.184v9.955h-2.184L290.689,91.55L290.689,91.55z
		 M287.955,89.164c0,0.78,0.516,1.379,1.403,1.379c0.887,0,1.403-0.6,1.403-1.379c0-0.755-0.516-1.391-1.403-1.391
		C288.471,87.773,287.955,88.408,287.955,89.164z"/>
	<path d="M300.836,89.523h-4.594c0,0.887,0.468,1.367,1.367,1.367c0.468,0,0.804-0.156,1.043-0.563h2.1
		c-0.348,1.451-1.727,2.111-3.13,2.111c-2.039,0-3.562-1.151-3.562-3.274c0-2.051,1.403-3.286,3.406-3.286
		c2.136,0,3.37,1.319,3.37,3.418V89.523z M298.811,88.264c-0.108-0.588-0.648-0.972-1.235-0.972c-0.636,0-1.164,0.336-1.296,0.972
		H298.811z"/>
	<path d="M304.241,92.234h-2.183v-9.955h2.183V92.234z"/>
	<path d="M308.14,83.719c0,0.671-0.552,1.223-1.224,1.223c-0.671,0-1.223-0.552-1.223-1.223c0-0.672,0.552-1.224,1.223-1.224
		C307.588,82.495,308.14,83.047,308.14,83.719z M308.008,92.234h-2.183v-6.153h2.183V92.234z"/>
	<path d="M312.695,89.235l1.463-3.154h2.446l-3.216,6.153h-1.392l-3.226-6.153h2.444L312.695,89.235z"/>
	<path d="M323.434,89.523h-4.594c0,0.887,0.468,1.367,1.367,1.367c0.468,0,0.804-0.156,1.044-0.563h2.099
		c-0.348,1.451-1.727,2.111-3.13,2.111c-2.039,0-3.562-1.151-3.562-3.274c0-2.051,1.401-3.286,3.406-3.286
		c2.135,0,3.368,1.319,3.368,3.418L323.434,89.523L323.434,89.523z M321.407,88.264c-0.108-0.588-0.648-0.972-1.235-0.972
		c-0.636,0-1.164,0.336-1.296,0.972H321.407z"/>
	<path d="M326.846,87.089h0.024c0.419-0.756,1.139-1.091,1.99-1.091h0.42v2.099c-0.3-0.168-0.588-0.204-0.923-0.204
		c-1.214,0-1.514,0.804-1.514,1.859v2.482h-2.183v-6.153h2.183L326.846,87.089L326.846,87.089z"/>
	<path d="M329.745,86.081h2.519l1.645,3.154l1.605-3.154h2.482l-4.929,9.223h-2.447l2.1-3.91L329.745,86.081z"/>
	<path d="M346.146,89.416l1.547-3.334h1.295l1.548,3.334l1.547-3.334h2.41l-3.214,6.153h-1.415l-1.523-3.37l-1.521,3.37h-1.415
		l-3.214-6.153h2.423L346.146,89.416z"/>
	<path d="M357.607,83.719c0,0.671-0.554,1.223-1.226,1.223c-0.671,0-1.223-0.552-1.223-1.223c0-0.672,0.552-1.224,1.223-1.224
		C357.056,82.495,357.607,83.047,357.607,83.719z M357.476,92.234h-2.183v-6.153h2.183V92.234z"/>
	<path d="M361.524,92.234h-2.185V87.88h-0.708v-1.799h0.708v-1.847h2.185v1.847h1.233v1.799h-1.233V92.234z"/>
	<path d="M365.921,82.279v4.582h0.024c0.503-0.672,1.113-0.983,1.967-0.983c1.559,0,2.312,1.031,2.312,2.59v3.766h-2.183V89.08
		c0-0.72-0.108-1.463-0.983-1.463c-0.861,0-1.14,0.744-1.14,1.463v3.154h-2.183v-9.955H365.921z"/>
	<path d="M378.449,92.234h-2.185v-9.955h2.185V92.234z"/>
	<path d="M387.058,89.164c0,2.087-1.728,3.274-3.706,3.274c-1.967,0-3.704-1.176-3.704-3.274s1.728-3.286,3.704-3.286
		C385.33,85.878,387.058,87.065,387.058,89.164z M381.948,89.164c0,0.78,0.516,1.379,1.401,1.379c0.889,0,1.403-0.6,1.403-1.379
		c0-0.755-0.516-1.391-1.403-1.391C382.464,87.773,381.948,88.408,381.948,89.164z"/>
	<path d="M392.723,88.084c-0.322-0.24-0.708-0.432-1.127-0.432c-0.84,0-1.5,0.648-1.5,1.499c0,0.888,0.638,1.511,1.535,1.511
		c0.384,0,0.804-0.156,1.092-0.419v1.847c-0.479,0.24-1.008,0.348-1.535,0.348c-1.821,0-3.347-1.355-3.347-3.214
		c0-1.979,1.512-3.346,3.442-3.346c0.504,0,1.008,0.12,1.438,0.36L392.723,88.084L392.723,88.084z"/>
	<path d="M400.938,92.234h-2.184V91.55h-0.021c-0.386,0.612-1.142,0.888-1.859,0.888c-1.822,0-3.106-1.523-3.106-3.287
		c0-1.763,1.262-3.274,3.083-3.274c0.707,0,1.451,0.264,1.906,0.804v-0.6h2.186v6.153H400.938z M396.021,89.164
		c0,0.78,0.516,1.379,1.401,1.379s1.403-0.6,1.403-1.379c0-0.755-0.518-1.391-1.403-1.391S396.021,88.408,396.021,89.164z"/>
	<path d="M405.033,92.234h-2.185V87.88h-0.708v-1.799h0.708v-1.847h2.185v1.847h1.233v1.799h-1.233V92.234z"/>
	<path d="M409.521,83.719c0,0.671-0.554,1.223-1.226,1.223c-0.671,0-1.223-0.552-1.223-1.223c0-0.672,0.552-1.224,1.223-1.224
		C408.969,82.495,409.521,83.047,409.521,83.719z M409.389,92.234h-2.183v-6.153h2.183V92.234z"/>
	<path d="M417.958,89.164c0,2.087-1.728,3.274-3.706,3.274c-1.967,0-3.706-1.176-3.706-3.274s1.729-3.286,3.706-3.286
		C416.23,85.878,417.958,87.065,417.958,89.164z M412.849,89.164c0,0.78,0.518,1.379,1.403,1.379s1.403-0.6,1.403-1.379
		c0-0.755-0.518-1.391-1.403-1.391S412.849,88.408,412.849,89.164z"/>
	<path d="M421.343,86.873h0.024c0.503-0.744,1.115-0.996,1.967-0.996c1.655,0,2.314,1.043,2.314,2.555v3.802h-2.185v-2.999
		c0-0.587,0.096-1.619-0.981-1.619c-0.89,0-1.142,0.66-1.142,1.427v3.19h-2.183V86.08h2.183L421.343,86.873L421.343,86.873z"/>
</g>
<g>
	<path fill="#808080" d="M85.367,51.883h-2.926l-2.219-3.478h-0.024v3.478h-2.351V42.84h3.514c1.787,0,3.143,0.852,3.143,2.782
		c0,1.248-0.695,2.327-1.979,2.555L85.367,51.883z M80.198,46.894h0.228c0.768,0,1.632-0.144,1.632-1.127s-0.864-1.127-1.632-1.127
		h-0.228V46.894z"/>
	<path fill="#808080" d="M88.083,45.73v3.287c0,0.779,0.192,1.331,1.092,1.331c0.9,0,1.091-0.552,1.091-1.331V45.73h2.184v3.706
		c0,2.027-1.428,2.651-3.274,2.651c-1.848,0-3.274-0.624-3.274-2.651V45.73H88.083z"/>
	<path fill="#808080" d="M96.19,46.738h0.024c0.419-0.756,1.139-1.091,1.99-1.091h0.42v2.099c-0.3-0.168-0.588-0.204-0.923-0.204
		c-1.212,0-1.512,0.804-1.512,1.859v2.482h-2.183V45.73h2.183L96.19,46.738L96.19,46.738z"/>
	<path fill="#808080" d="M106.438,51.883h-2.184V51.2h-0.023c-0.384,0.612-1.14,0.888-1.859,0.888c-1.822,0-3.106-1.523-3.106-3.287
		c0-1.763,1.26-3.274,3.083-3.274c0.707,0,1.451,0.264,1.906,0.804v-0.6h2.184L106.438,51.883L106.438,51.883z M101.52,48.813
		c0,0.78,0.516,1.379,1.403,1.379c0.887,0,1.403-0.6,1.403-1.379c0-0.755-0.516-1.391-1.403-1.391
		C102.036,47.422,101.52,48.058,101.52,48.813z"/>
	<path fill="#808080" d="M110.227,51.883h-2.183v-9.955h2.183V51.883z"/>
	<path fill="#808080" d="M119.286,48.885l1.463-3.154h2.446l-3.214,6.153h-1.392l-3.226-6.153h2.446L119.286,48.885z"/>
	<path fill="#808080" d="M126.294,43.368c0,0.671-0.552,1.223-1.224,1.223c-0.671,0-1.223-0.552-1.223-1.223
		c0-0.672,0.552-1.224,1.223-1.224C125.742,42.145,126.294,42.696,126.294,43.368z M126.162,51.883h-2.183V45.73h2.183V51.883z"/>
	<path fill="#808080" d="M129.929,51.883h-2.183v-9.955h2.183V51.883z"/>
	<path fill="#808080" d="M133.695,51.883h-2.183v-9.955h2.183V51.883z"/>
	<path fill="#808080" d="M142.07,51.883h-2.184V51.2h-0.023c-0.384,0.612-1.14,0.888-1.859,0.888c-1.822,0-3.106-1.523-3.106-3.287
		c0-1.763,1.26-3.274,3.083-3.274c0.707,0,1.451,0.264,1.906,0.804v-0.6h2.184L142.07,51.883L142.07,51.883z M137.152,48.813
		c0,0.78,0.516,1.379,1.403,1.379c0.887,0,1.403-0.6,1.403-1.379c0-0.755-0.516-1.391-1.403-1.391
		C137.668,47.422,137.152,48.058,137.152,48.813z"/>
	<path fill="#808080" d="M150.469,51.284c0,2.614-1.295,3.67-3.562,3.67c-1.416,0-3.311-0.731-3.502-2.351h2.446
		c0.06,0.216,0.216,0.372,0.407,0.468c0.192,0.096,0.42,0.144,0.624,0.144c1.176,0,1.403-0.768,1.403-1.763v-0.288
		c-0.563,0.564-1.14,0.84-1.955,0.84c-1.799,0-3.034-1.367-3.034-3.143c0-1.799,1.271-3.334,3.154-3.334
		c0.72,0,1.379,0.24,1.811,0.852h0.024V45.73h2.183L150.469,51.284L150.469,51.284z M145.552,48.765
		c0,0.779,0.516,1.379,1.403,1.379c0.887,0,1.403-0.6,1.403-1.379c0-0.756-0.516-1.392-1.403-1.392
		C146.068,47.373,145.552,48.009,145.552,48.765z"/>
	<path fill="#808080" d="M158.432,49.173h-4.594c0,0.887,0.468,1.367,1.367,1.367c0.468,0,0.804-0.156,1.044-0.563h2.099
		c-0.348,1.451-1.727,2.111-3.13,2.111c-2.039,0-3.562-1.151-3.562-3.274c0-2.051,1.403-3.286,3.406-3.286
		c2.135,0,3.37,1.319,3.37,3.418V49.173L158.432,49.173z M156.405,47.914c-0.108-0.588-0.648-0.972-1.235-0.972
		c-0.636,0-1.164,0.336-1.296,0.972H156.405z"/>
</g>
<g>
	<path fill="#808080" d="M191.718,261.535c-0.48-0.646-1.26-0.995-2.063-0.995c-1.439,0-2.41,1.103-2.41,2.506
		c0,1.427,0.983,2.458,2.446,2.458c0.768,0,1.535-0.372,2.027-0.959v2.819c-0.78,0.239-1.344,0.419-2.075,0.419
		c-1.26,0-2.459-0.479-3.395-1.331c-0.995-0.899-1.451-2.075-1.451-3.418c0-1.235,0.468-2.423,1.332-3.31
		c0.887-0.912,2.17-1.463,3.441-1.463c0.756,0,1.451,0.165,2.147,0.454L191.718,261.535L191.718,261.535z"/>
	<path fill="#808080" d="M200.209,264.473c0,2.088-1.727,3.274-3.706,3.274c-1.967,0-3.706-1.177-3.706-3.274
		c0-2.097,1.728-3.285,3.706-3.285C198.482,261.188,200.209,262.375,200.209,264.473z M195.1,264.473
		c0,0.78,0.516,1.379,1.403,1.379c0.887,0,1.403-0.6,1.403-1.379c0-0.755-0.516-1.391-1.403-1.391
		C195.616,263.082,195.1,263.718,195.1,264.473z"/>
	<path fill="#808080" d="M203.595,262.158h0.024c0.516-0.684,1.151-0.971,1.942-0.971c0.888,0,1.655,0.358,2.099,1.174
		c0.42-0.769,1.248-1.174,2.087-1.174c1.56,0,2.1,1.02,2.1,2.435v3.922h-2.184v-2.938c0-0.635,0.024-1.679-0.899-1.679
		c-1.007,0-1.043,0.948-1.043,1.679v2.938h-2.183v-2.938c0-0.684,0-1.727-0.972-1.727c-0.972,0-0.972,1.043-0.972,1.727v2.938
		h-2.183v-6.153h2.183L203.595,262.158L203.595,262.158z"/>
	<path fill="#808080" d="M215.632,262.158h0.024c0.516-0.684,1.151-0.971,1.942-0.971c0.888,0,1.655,0.358,2.099,1.174
		c0.42-0.769,1.248-1.174,2.087-1.174c1.56,0,2.1,1.02,2.1,2.435v3.922H221.7v-2.938c0-0.635,0.024-1.679-0.899-1.679
		c-1.007,0-1.043,0.948-1.043,1.679v2.938h-2.183v-2.938c0-0.684,0-1.727-0.972-1.727s-0.972,1.043-0.972,1.727v2.938h-2.183v-6.153
		h2.183L215.632,262.158L215.632,262.158z"/>
	<path fill="#808080" d="M227.601,261.391v3.287c0,0.779,0.192,1.331,1.092,1.331s1.091-0.552,1.091-1.331v-3.287h2.184v3.707
		c0,2.026-1.428,2.65-3.274,2.65c-1.846,0-3.274-0.624-3.274-2.65v-3.707H227.601z"/>
	<path fill="#808080" d="M235.708,262.184h0.024c0.503-0.744,1.115-0.996,1.967-0.996c1.655,0,2.314,1.043,2.314,2.556v3.802h-2.183
		v-2.999c0-0.587,0.096-1.619-0.983-1.619c-0.888,0-1.14,0.66-1.14,1.429v3.188h-2.183v-6.151h2.183L235.708,262.184
		L235.708,262.184z"/>
	<path fill="#808080" d="M243.896,259.027c0,0.672-0.552,1.224-1.224,1.224c-0.671,0-1.223-0.552-1.223-1.224
		s0.552-1.223,1.223-1.223C243.345,257.805,243.896,258.355,243.896,259.027z M243.765,267.543h-2.183v-6.152h2.183V267.543z"/>
	<path fill="#808080" d="M247.813,267.543h-2.183v-4.354h-0.708v-1.799h0.708v-1.849h2.183v1.849h1.235v1.799h-1.235V267.543z"/>
	<path fill="#808080" d="M249.447,261.391h2.519l1.643,3.154l1.607-3.154h2.482l-4.929,9.223h-2.447l2.1-3.908L249.447,261.391z"/>
	<path fill="#808080" d="M189.643,279.395c-0.324-0.24-0.708-0.433-1.127-0.433c-0.84,0-1.5,0.647-1.5,1.499
		c0,0.889,0.636,1.512,1.535,1.512c0.384,0,0.804-0.156,1.092-0.42v1.848c-0.479,0.24-1.008,0.349-1.535,0.349
		c-1.823,0-3.347-1.354-3.347-3.214c0-1.979,1.512-3.348,3.442-3.348c0.504,0,1.008,0.121,1.439,0.36L189.643,279.395
		L189.643,279.395z"/>
	<path fill="#808080" d="M197.857,283.543h-2.184v-0.684h-0.023c-0.384,0.611-1.14,0.888-1.859,0.888
		c-1.822,0-3.106-1.522-3.106-3.287c0-1.763,1.26-3.274,3.083-3.274c0.707,0,1.451,0.266,1.906,0.806v-0.601h2.184L197.857,283.543
		L197.857,283.543z M192.939,280.473c0,0.78,0.516,1.379,1.403,1.379c0.887,0,1.403-0.6,1.403-1.379
		c0-0.755-0.516-1.391-1.403-1.391C193.455,279.082,192.939,279.718,192.939,280.473z"/>
	<path fill="#808080" d="M201.65,278.398h0.024c0.419-0.756,1.139-1.092,1.99-1.092h0.42v2.1c-0.3-0.168-0.588-0.204-0.923-0.204
		c-1.212,0-1.512,0.804-1.512,1.858v2.481h-2.183v-6.151h2.183L201.65,278.398L201.65,278.398z"/>
	<path fill="#808080" d="M211.501,280.833h-4.594c0,0.888,0.468,1.367,1.367,1.367c0.468,0,0.804-0.156,1.044-0.563h2.099
		c-0.348,1.451-1.727,2.111-3.13,2.111c-2.039,0-3.562-1.15-3.562-3.273c0-2.052,1.403-3.287,3.406-3.287
		c2.135,0,3.37,1.319,3.37,3.418V280.833L211.501,280.833z M209.475,279.574c-0.108-0.588-0.648-0.973-1.235-0.973
		c-0.636,0-1.164,0.336-1.296,0.973H209.475z"/>
	<path fill="#808080" d="M221.534,279.395c-0.324-0.24-0.708-0.433-1.128-0.433c-0.839,0-1.499,0.647-1.499,1.499
		c0,0.889,0.636,1.512,1.535,1.512c0.384,0,0.804-0.156,1.092-0.42v1.848c-0.479,0.24-1.008,0.349-1.535,0.349
		c-1.823,0-3.347-1.354-3.347-3.214c0-1.979,1.512-3.348,3.442-3.348c0.504,0,1.008,0.121,1.439,0.36L221.534,279.395
		L221.534,279.395z"/>
	<path fill="#808080" d="M229.955,280.473c0,2.088-1.727,3.274-3.706,3.274c-1.967,0-3.706-1.177-3.706-3.274
		c0-2.097,1.728-3.285,3.706-3.285C228.229,277.188,229.955,278.375,229.955,280.473z M224.846,280.473
		c0,0.78,0.516,1.379,1.403,1.379c0.887,0,1.403-0.6,1.403-1.379c0-0.755-0.516-1.391-1.403-1.391
		C225.362,279.082,224.846,279.718,224.846,280.473z"/>
	<path fill="#808080" d="M238.14,280.473c0,2.088-1.728,3.274-3.706,3.274c-1.967,0-3.706-1.177-3.706-3.274
		c0-2.097,1.728-3.285,3.706-3.285S238.14,278.375,238.14,280.473z M233.03,280.473c0,0.78,0.516,1.379,1.403,1.379
		c0.887,0,1.403-0.6,1.403-1.379c0-0.755-0.516-1.391-1.403-1.391C233.546,279.082,233.03,279.718,233.03,280.473z"/>
	<path fill="#808080" d="M241.524,278.398h0.024c0.419-0.756,1.139-1.092,1.99-1.092h0.42v2.1c-0.3-0.168-0.588-0.204-0.924-0.204
		c-1.211,0-1.511,0.804-1.511,1.858v2.481h-2.183v-6.151h2.183L241.524,278.398L241.524,278.398z"/>
	<path fill="#808080" d="M249.63,282.859h-0.023c-0.384,0.613-1.14,0.889-1.859,0.889c-1.822,0-3.106-1.523-3.106-3.287
		c0-1.763,1.26-3.273,3.083-3.273c0.707,0,1.451,0.265,1.906,0.805v-4.402h2.184v9.955h-2.184L249.63,282.859L249.63,282.859z
		 M246.896,280.473c0,0.78,0.516,1.379,1.403,1.379c0.887,0,1.403-0.6,1.403-1.379c0-0.755-0.516-1.391-1.403-1.391
		C247.412,279.082,246.896,279.718,246.896,280.473z"/>
	<path fill="#808080" d="M255.702,275.027c0,0.672-0.552,1.224-1.224,1.224c-0.671,0-1.223-0.552-1.223-1.224
		s0.552-1.223,1.223-1.223C255.15,273.805,255.702,274.355,255.702,275.027z M255.57,283.543h-2.183v-6.152h2.183V283.543z"/>
	<path fill="#808080" d="M259.343,278.184h0.024c0.503-0.744,1.115-0.996,1.967-0.996c1.655,0,2.314,1.043,2.314,2.556v3.802h-2.183
		v-2.999c0-0.587,0.096-1.619-0.983-1.619c-0.888,0-1.14,0.66-1.14,1.429v3.188h-2.183v-6.151h2.183L259.343,278.184
		L259.343,278.184z"/>
	<path fill="#808080" d="M272.009,283.543h-2.184v-0.684h-0.023c-0.384,0.611-1.14,0.888-1.859,0.888
		c-1.822,0-3.106-1.522-3.106-3.287c0-1.763,1.26-3.274,3.083-3.274c0.707,0,1.451,0.266,1.906,0.806v-0.601h2.184L272.009,283.543
		L272.009,283.543z M267.091,280.473c0,0.78,0.516,1.379,1.403,1.379c0.887,0,1.403-0.6,1.403-1.379
		c0-0.755-0.516-1.391-1.403-1.391C267.607,279.082,267.091,279.718,267.091,280.473z"/>
	<path fill="#808080" d="M276.104,283.543h-2.183v-4.354h-0.708v-1.799h0.708v-1.849h2.183v1.849h1.235v1.799h-1.235V283.543z"/>
	<path fill="#808080" d="M285.276,280.473c0,2.088-1.728,3.274-3.706,3.274c-1.967,0-3.706-1.177-3.706-3.274
		c0-2.097,1.728-3.285,3.706-3.285S285.276,278.375,285.276,280.473z M280.167,280.473c0,0.78,0.516,1.379,1.403,1.379
		c0.887,0,1.403-0.6,1.403-1.379c0-0.755-0.516-1.391-1.403-1.391C280.683,279.082,280.167,279.718,280.167,280.473z"/>
	<path fill="#808080" d="M288.662,278.398h0.024c0.419-0.756,1.139-1.092,1.99-1.092h0.42v2.1c-0.3-0.168-0.588-0.204-0.923-0.204
		c-1.212,0-1.512,0.804-1.512,1.858v2.481h-2.183v-6.151h2.183L288.662,278.398L288.662,278.398z"/>
</g>
<g>
	<path fill="#808080" d="M457.032,61.386h2.816v1.991h-5.169v-9.043h2.353V61.386L457.032,61.386z"/>
	<path fill="#808080" d="M467.857,60.306c0,2.087-1.729,3.274-3.706,3.274c-1.969,0-3.706-1.176-3.706-3.274
		c0-2.098,1.728-3.286,3.706-3.286C466.129,57.02,467.857,58.208,467.857,60.306z M462.748,60.306c0,0.78,0.516,1.379,1.403,1.379
		c0.887,0,1.401-0.6,1.401-1.379c0-0.755-0.516-1.391-1.401-1.391C463.264,58.915,462.748,59.551,462.748,60.306z"/>
	<path fill="#808080" d="M473.522,59.227c-0.324-0.24-0.708-0.432-1.129-0.432c-0.84,0-1.5,0.648-1.5,1.499
		c0,0.888,0.638,1.511,1.535,1.511c0.386,0,0.806-0.156,1.094-0.419v1.847c-0.479,0.24-1.01,0.348-1.535,0.348
		c-1.823,0-3.349-1.355-3.349-3.214c0-1.979,1.514-3.346,3.442-3.346c0.504,0,1.008,0.12,1.438,0.36L473.522,59.227L473.522,59.227z
		"/>
	<path fill="#808080" d="M481.738,63.376h-2.186v-0.684h-0.021c-0.384,0.612-1.142,0.888-1.859,0.888
		c-1.822,0-3.104-1.523-3.104-3.287c0-1.763,1.26-3.274,3.083-3.274c0.707,0,1.449,0.264,1.904,0.804v-0.6h2.186L481.738,63.376
		L481.738,63.376z M476.82,60.306c0,0.78,0.516,1.379,1.401,1.379c0.889,0,1.403-0.6,1.403-1.379c0-0.755-0.516-1.391-1.403-1.391
		C477.336,58.915,476.82,59.551,476.82,60.306z"/>
	<path fill="#808080" d="M485.527,63.376h-2.185v-9.955h2.185V63.376z"/>
	<path fill="#808080" d="M493.747,53.422v4.582h0.024c0.503-0.672,1.113-0.983,1.967-0.983c1.559,0,2.312,1.031,2.312,2.59v3.766
		h-2.183v-3.154c0-0.72-0.108-1.463-0.983-1.463c-0.861,0-1.14,0.744-1.14,1.463v3.154h-2.185v-9.955H493.747z"/>
	<path fill="#808080" d="M506.011,60.666h-4.594c0,0.887,0.468,1.367,1.367,1.367c0.468,0,0.804-0.156,1.044-0.563h2.099
		c-0.348,1.451-1.727,2.111-3.13,2.111c-2.039,0-3.562-1.151-3.562-3.274c0-2.051,1.401-3.286,3.404-3.286
		c2.137,0,3.37,1.319,3.37,3.418L506.011,60.666L506.011,60.666z M503.984,59.407c-0.108-0.588-0.648-0.972-1.235-0.972
		c-0.636,0-1.164,0.336-1.296,0.972H503.984z"/>
	<path fill="#808080" d="M513.998,63.376h-2.184v-0.684h-0.023c-0.384,0.612-1.14,0.888-1.859,0.888
		c-1.82,0-3.104-1.523-3.104-3.287c0-1.763,1.26-3.274,3.083-3.274c0.707,0,1.451,0.264,1.906,0.804v-0.6H514L513.998,63.376
		L513.998,63.376z M509.08,60.306c0,0.78,0.516,1.379,1.403,1.379c0.887,0,1.401-0.6,1.401-1.379c0-0.755-0.516-1.391-1.401-1.391
		C509.596,58.915,509.08,59.551,509.08,60.306z"/>
	<path fill="#808080" d="M517.787,63.376h-2.185v-9.955h2.185V63.376z"/>
	<path fill="#808080" d="M521.868,63.376h-2.185v-4.354h-0.708v-1.799h0.708v-1.847h2.185v1.847h1.233v1.799h-1.233V63.376z"/>
	<path fill="#808080" d="M526.265,53.422v4.582h0.024c0.503-0.672,1.115-0.983,1.967-0.983c1.561,0,2.314,1.031,2.314,2.59v3.766
		h-2.185v-3.154c0-0.72-0.106-1.463-0.981-1.463c-0.863,0-1.142,0.744-1.142,1.463v3.154h-2.183v-9.955H526.265z"/>
	<path fill="#808080" d="M457.032,79.376h-2.185v-4.354h-0.768v-1.799h0.768v-0.779c0-0.852,0.024-1.475,0.624-2.159
		c0.539-0.636,1.318-0.983,2.146-0.983c0.336,0,0.636,0.06,0.936,0.216v1.883c-0.252-0.108-0.479-0.204-0.768-0.204
		c-0.563,0-0.756,0.336-0.756,1.032v0.995h1.521v1.799h-1.521L457.032,79.376L457.032,79.376z"/>
	<path fill="#808080" d="M466.283,79.376H464.1v-0.684h-0.021c-0.384,0.612-1.141,0.888-1.859,0.888
		c-1.82,0-3.104-1.523-3.104-3.287c0-1.763,1.26-3.274,3.083-3.274c0.707,0,1.451,0.264,1.904,0.804v-0.6h2.186v6.153H466.283z
		 M461.365,76.306c0,0.78,0.516,1.379,1.401,1.379c0.889,0,1.403-0.6,1.403-1.379c0-0.755-0.516-1.391-1.403-1.391
		C461.881,74.915,461.365,75.551,461.365,76.306z"/>
	<path fill="#808080" d="M472.379,75.227c-0.324-0.24-0.708-0.432-1.128-0.432c-0.839,0-1.499,0.648-1.499,1.499
		c0,0.888,0.636,1.511,1.535,1.511c0.384,0,0.804-0.156,1.092-0.419v1.847c-0.479,0.24-1.008,0.348-1.535,0.348
		c-1.821,0-3.347-1.355-3.347-3.214c0-1.979,1.512-3.346,3.442-3.346c0.504,0,1.008,0.12,1.438,0.36L472.379,75.227L472.379,75.227z
		"/>
	<path fill="#808080" d="M476.197,70.861c0,0.671-0.554,1.223-1.226,1.223c-0.671,0-1.223-0.552-1.223-1.223
		c0-0.672,0.552-1.224,1.223-1.224C475.646,69.638,476.197,70.189,476.197,70.861z M476.065,79.376h-2.185v-6.153h2.185V79.376z"/>
	<path fill="#808080" d="M479.834,79.376h-2.183v-9.955h2.183V79.376z"/>
	<path fill="#808080" d="M483.735,70.861c0,0.671-0.554,1.223-1.226,1.223c-0.671,0-1.223-0.552-1.223-1.223
		c0-0.672,0.552-1.224,1.223-1.224C483.184,69.638,483.735,70.189,483.735,70.861z M483.604,79.376h-2.183v-6.153h2.183V79.376z"/>
	<path fill="#808080" d="M487.652,79.376h-2.185v-4.354h-0.708v-1.799h0.708v-1.847h2.185v1.847h1.233v1.799h-1.233V79.376z"/>
	<path fill="#808080" d="M489.286,73.224h2.519l1.645,3.154l1.605-3.154h2.482l-4.929,9.223h-2.447l2.1-3.91L489.286,73.224z"/>
</g>
<g>
	<g>
		<path fill="#B3B3B3" d="M277.982,149.474c-1.242,0-2.251-1.008-2.251-2.25v-2.835c0-1.251-1.007-2.257-2.256-2.257h-1.504
			c-1.243,0-2.25,1.006-2.25,2.257v2.835c0,1.242-1.013,2.25-2.257,2.25h-14.276c-1.25,0-2.258,1.012-2.258,2.257v50.775
			c0,1.249,1.008,2.257,2.258,2.257h24.794c1.244,0,2.258-1.008,2.258-2.257V151.73C280.24,150.485,279.231,149.474,277.982,149.474
			L277.982,149.474z"/>
		<path fill="#FFFFFF" d="M255.862,193.159c0-1.245,1.007-2.256,2.258-2.256c1.242,0,2.25,1.011,2.25,2.256
			c0,1.244-1.008,2.258-2.25,2.258C256.869,195.417,255.862,194.403,255.862,193.159L255.862,193.159z"/>
		<path fill="#FFFFFF" d="M258.12,183.439c1.242,0,2.25,1.008,2.25,2.25c0,1.243-1.008,2.258-2.25,2.258
			c-1.251,0-2.258-1.015-2.258-2.258C255.862,184.447,256.869,183.439,258.12,183.439L258.12,183.439z"/>
		<path fill="#FFFFFF" d="M255.862,178.222c0-1.244,1.007-2.251,2.258-2.251c1.242,0,2.25,1.007,2.25,2.251
			c0,1.248-1.008,2.256-2.25,2.256C256.869,180.478,255.862,179.47,255.862,178.222L255.862,178.222z"/>
		<path fill="#FFFFFF" d="M270.162,200.926h-9.439c-0.622,0-1.129-0.503-1.129-1.122c0-0.629,0.507-1.131,1.129-1.131h9.439
			c0.627,0,1.127,0.502,1.127,1.131C271.289,200.423,270.789,200.926,270.162,200.926L270.162,200.926z"/>
		<path fill="#FFFFFF" d="M265.444,183.439c1.245,0,2.251,1.008,2.251,2.25c0,1.243-1.006,2.258-2.251,2.258
			c-1.249,0-2.257-1.015-2.257-2.258C263.188,184.447,264.195,183.439,265.444,183.439L265.444,183.439z"/>
		<path fill="#FFFFFF" d="M263.188,178.222c0-1.244,1.008-2.251,2.257-2.251c1.245,0,2.251,1.007,2.251,2.251
			c0,1.248-1.006,2.256-2.251,2.256C264.195,180.478,263.188,179.47,263.188,178.222L263.188,178.222z"/>
		<path fill="#FFFFFF" d="M265.444,190.903c1.245,0,2.251,1.011,2.251,2.256c0,1.244-1.006,2.258-2.251,2.258
			c-1.249,0-2.257-1.014-2.257-2.258C263.188,191.914,264.195,190.903,265.444,190.903L265.444,190.903z"/>
		<path fill="#FFFFFF" d="M272.77,195.417c-1.242,0-2.256-1.014-2.256-2.258c0-1.245,1.014-2.256,2.256-2.256
			c1.245,0,2.259,1.011,2.259,2.256C275.028,194.403,274.015,195.417,272.77,195.417L272.77,195.417z"/>
		<path fill="#FFFFFF" d="M272.77,187.947c-1.242,0-2.256-1.015-2.256-2.258c0-1.242,1.014-2.25,2.256-2.25
			c1.245,0,2.259,1.008,2.259,2.25C275.028,186.933,274.015,187.947,272.77,187.947L272.77,187.947z"/>
		<path fill="#FFFFFF" d="M272.77,180.478c-1.242,0-2.256-1.008-2.256-2.256c0-1.244,1.014-2.251,2.256-2.251
			c1.245,0,2.259,1.007,2.259,2.251C275.028,179.47,274.015,180.478,272.77,180.478L272.77,180.478z"/>
		<path fill="#FFFFFF" d="M276.437,169.453c0,1.245-1.013,2.252-2.258,2.252h-17.188c-1.25,0-2.257-1.007-2.257-2.252v-12.433
			c0-1.245,1.007-2.253,2.257-2.253h17.188c1.245,0,2.258,1.008,2.258,2.253V169.453z"/>
		<path fill="#FFFFFF" d="M276.437,169.453"/>
	</g>
	<path fill="#787878" d="M269.22,160.609c-0.014-0.398-0.32-0.271-0.423-0.237c0.415-0.259,0.773-1.018,0.68-1.346
		c-0.073-0.257-0.242-0.169-0.449,0.031c0.602-1.359-0.289-2.09-0.289-2.088c-0.153-0.102-0.263,0.034-0.26,0.236
		c0.03,1.635-1.164,2.58-2.47,3.363c-0.98,0.634-1.327,1.7-1.448,2.463c-0.03,0.094-0.1,0.048-0.135,0.02l-0.754-0.856
		c-0.082-0.093-0.198-0.139-0.313-0.134c-0.09,0.003-0.179,0.036-0.251,0.1l-0.033,0.029h-0.001h-0.001l-0.182-0.207
		c-0.055-0.061-0.128-0.093-0.199-0.093c-0.056,0-0.109,0.018-0.152,0.055l-0.102,0.091c-0.099,0.085-0.102,0.245-0.006,0.354
		l0.183,0.207l-1.241,1.094c-0.165,0.146-0.181,0.397-0.035,0.564l4.298,4.872c0.082,0.093,0.197,0.139,0.312,0.136
		c0.091-0.004,0.179-0.036,0.251-0.1l1.734-1.53c0.166-0.146,0.182-0.398,0.036-0.563l-1.454-1.649
		c-0.002-0.002-0.002-0.003-0.003-0.004c-0.054-0.086,0.098-0.068,0.098-0.068v-0.001c0.234,0.007,0.409-0.048,0.533-0.13
		c0.188-0.127-0.025-0.221-0.06-0.313c0.291,0.142,0.862,0.021,1.004-0.162c0.111-0.144-0.08-0.203-0.264-0.244
		c0.462-0.215,0.83-0.428,1.026-0.937c0.116-0.297-0.202-0.307-0.52-0.187c0.26-0.259,0.52-0.611,0.648-1.064
		c0.146-0.512-0.045-0.769-0.457-0.424C268.897,161.518,269.234,161.03,269.22,160.609z M264.94,164.489l-1.498,1.321
		c-0.045,0.04-0.114,0.036-0.154-0.01l-1.376-1.561c-0.039-0.045-0.035-0.114,0.01-0.154l1.498-1.321
		c0.046-0.039,0.115-0.035,0.155,0.011l1.375,1.559C264.99,164.38,264.986,164.449,264.94,164.489z"/>
</g>
<g>
	<rect x="464.57" y="180.021" fill="#FFFFFF" width="85.193" height="53.363"/>
	<g>
		<g>
			<path d="M488.195,219.357h-0.012l-0.543,3.073h-0.6l0.951-4.85l1.596,3.665l1.599-3.665l0.95,4.85h-0.598l-0.543-3.073h-0.014
				l-1.396,3.173L488.195,219.357z"/>
			<path d="M492.688,217.778h2.498v0.531h-1.917v1.303h1.862v0.529h-1.862v1.759h1.917v0.53h-2.498V217.778z"/>
			<path d="M495.838,217.778h0.963c1.424,0,2.608,0.752,2.608,2.302c0,1.586-1.16,2.351-2.628,2.351h-0.943V217.778z M496.417,221.9
				h0.204c1.185,0,2.207-0.444,2.207-1.795c0-1.356-1.022-1.796-2.207-1.796h-0.204V221.9z"/>
			<path d="M500.617,222.431h-0.58v-4.652h0.58V222.431z"/>
			<path d="M504.912,218.667c-0.334-0.297-0.789-0.457-1.229-0.457c-1.042,0-1.838,0.869-1.838,1.9c0,1.02,0.79,1.887,1.826,1.887
				c0.457,0,0.895-0.172,1.24-0.481v0.687c-0.357,0.211-0.814,0.328-1.221,0.328c-1.328,0-2.424-1.055-2.424-2.401
				c0-1.376,1.104-2.45,2.473-2.45c0.408,0,0.821,0.1,1.174,0.316v0.673L504.912,218.667L504.912,218.667z"/>
			<path d="M511.469,218.581h-0.014l-1.623,4.004l-1.617-4.004h-0.012l-0.796,3.85h-0.284l1-4.807l1.709,4.232l1.715-4.232l1,4.807
				h-0.284L511.469,218.581z"/>
			<path d="M517.74,220.104c0,1.309-1.104,2.39-2.411,2.39c-1.308,0-2.413-1.081-2.413-2.39c0-1.308,1.1-2.388,2.413-2.388
				C516.636,217.716,517.74,218.797,517.74,220.104z M513.212,220.104c0,1.147,0.956,2.11,2.117,2.11
				c1.153,0,2.116-0.969,2.116-2.11c0-1.146-0.963-2.109-2.116-2.109C514.168,217.994,513.212,218.958,513.212,220.104z"/>
			<path d="M518.568,222.431v-4.652h0.931c0.353,0,0.687,0.025,0.964,0.271c0.283,0.247,0.389,0.592,0.389,0.961
				c0,0.428-0.166,0.74-0.537,0.951c0.574,0.117,0.963,0.58,0.963,1.17c0,0.375-0.143,0.717-0.432,0.965
				c-0.326,0.275-0.672,0.332-1.086,0.332h-1.192L518.568,222.431L518.568,222.431z M518.864,219.888h0.513
				c0.314,0,0.567,0.019,0.832-0.172c0.267-0.191,0.346-0.427,0.346-0.748c0-0.301-0.117-0.6-0.383-0.765
				c-0.233-0.149-0.523-0.149-0.795-0.149h-0.513V219.888z M518.864,222.151h0.71c0.326,0,0.664,0.016,0.948-0.179
				c0.283-0.19,0.456-0.48,0.456-0.827c0-0.338-0.166-0.678-0.48-0.831c-0.283-0.142-0.672-0.149-0.982-0.149h-0.652
				L518.864,222.151L518.864,222.151z"/>
			<path d="M522.422,222.431h-0.296v-4.652h0.296V222.431z"/>
			<path d="M523.807,222.151h1.185v0.277h-1.481v-4.65h0.297V222.151z"/>
			<path d="M525.895,218.056v1.691h1.873v0.277h-1.873v2.127h1.925v0.277h-2.223v-4.652h2.223v0.275h-1.925V218.056z"/>
		</g>
		<rect x="469.377" y="184.84" fill="#58595B" width="75.578" height="4.283"/>
		<rect x="469.377" y="189.123" fill="#64A2C8" width="75.578" height="2.57"/>
		<path fill="#58595B" d="M512.562,200.778c-0.02-0.67-0.537-0.453-0.711-0.398c0.699-0.435,1.302-1.709,1.143-2.262
			c-0.123-0.43-0.406-0.283-0.752,0.054c1.011-2.282-0.486-3.507-0.486-3.505c-0.258-0.171-0.441,0.057-0.438,0.396
			c0.053,2.745-1.953,4.333-4.146,5.648c-1.646,1.063-2.23,2.855-2.432,4.135c-0.051,0.158-0.17,0.082-0.226,0.033l-1.268-1.437
			c-0.138-0.157-0.332-0.232-0.526-0.228c-0.149,0.007-0.3,0.059-0.42,0.168l-0.057,0.051v-0.001l-0.002,0.001l-0.305-0.348
			c-0.09-0.102-0.215-0.155-0.335-0.157c-0.093-0.001-0.183,0.03-0.255,0.093l-0.17,0.148c-0.166,0.148-0.171,0.413-0.01,0.596
			l0.305,0.348l-2.084,1.837c-0.279,0.246-0.303,0.668-0.06,0.947l7.22,8.183c0.135,0.157,0.33,0.232,0.521,0.227
			c0.154-0.004,0.304-0.059,0.424-0.166l2.912-2.57c0.277-0.244,0.303-0.669,0.058-0.947l-2.442-2.767
			c0-0.001-0.002-0.003-0.004-0.005c-0.09-0.145,0.162-0.117,0.162-0.117v-0.004c0.396,0.016,0.689-0.076,0.898-0.217
			c0.314-0.213-0.045-0.368-0.1-0.521c0.486,0.233,1.445,0.035,1.685-0.273c0.186-0.24-0.134-0.342-0.44-0.412
			c0.771-0.359,1.391-0.719,1.721-1.572c0.195-0.5-0.34-0.514-0.872-0.311c0.437-0.438,0.872-1.029,1.089-1.787
			c0.246-0.861-0.076-1.293-0.769-0.713C512.021,202.304,512.588,201.485,512.562,200.778z M505.379,207.295l-2.518,2.218
			c-0.074,0.067-0.191,0.061-0.258-0.016l-2.311-2.621c-0.065-0.074-0.06-0.191,0.017-0.259l2.515-2.218
			c0.076-0.067,0.193-0.059,0.261,0.016l2.309,2.621C505.461,207.11,505.454,207.226,505.379,207.295z"/>
		<rect x="495.932" y="185.697" fill="#64A2C8" width="5.139" height="3.426"/>
		<rect x="502.783" y="185.697" fill="#CC8C21" width="5.141" height="3.426"/>
		<rect x="509.637" y="185.697" fill="#78B1B1" width="5.14" height="3.426"/>
		<g>
			<path fill="#B3B3B3" d="M549.764,180.021H464.57v53.363h85.193V180.021z M544.943,228.565h-75.547v-43.722h75.547V228.565z
				 M544.943,228.565"/>
			<path fill="#B3B3B3" d="M459.48,236.842c0,0,1.914,9.289,8.766,9.289v0.005h77.842v-0.005c6.852,0,8.766-9.289,8.766-9.289
				H459.48z M516.07,242.949h-17.807v-2.92h17.807V242.949z M516.07,242.949"/>
			<path fill="#B3B3B3" d="M523.944,215.373"/>
		</g>
	</g>
</g>
<g>
	<path fill="#64A2C8" d="M225.477,115.008c0,6.167-4.981,11.192-11.179,11.192c-6.21,0-11.192-5.025-11.192-11.192
		c0-6.197,4.982-11.224,11.192-11.224C220.496,103.784,225.477,108.811,225.477,115.008L225.477,115.008z"/>
	<path fill="#64A2C8" d="M240.288,172.592c0,0-5.896-28.561-8.683-34.296c0,0,0,0,0-0.043c-2.798-5.725-5.598-9.17-16.208-9.17
		h-2.195c-10.61,0-13.409,3.445-16.207,9.17c0,0.043,0,0.043,0,0.043c-2.797,5.736-8.695,34.296-8.695,34.296
		c-0.442,1.925,0.742,3.852,2.711,4.281c0.26,0.087,0.517,0.131,0.776,0.131c1.666,0,3.121-1.13,3.506-2.787l7.953-28.271
		l-7.748,47.233h7.478l2.314,42.163c0,1.441,1.185,2.658,2.626,2.658c1.527,0,2.755-1.217,2.755-2.658l2.271-42.163h2.712
		l2.271,42.163c0,1.441,1.214,2.658,2.743,2.658c1.442,0,2.626-1.217,2.626-2.658l2.312-42.163h7.481l-7.738-47.233l7.953,28.271
		c0.388,1.657,1.872,2.787,3.498,2.787c0.258,0,0.516-0.044,0.828-0.131C239.547,176.443,240.731,174.517,240.288,172.592
		L240.288,172.592z"/>
	<g>
		
			<rect x="212.238" y="143.854" fill-rule="evenodd" clip-rule="evenodd" fill="#FFFFFF" stroke="#FFFFFF" stroke-width="0.404" stroke-miterlimit="10" width="3.976" height="3.976"/>
		
			<rect x="212.238" y="135.931" fill-rule="evenodd" clip-rule="evenodd" fill="#FFFFFF" stroke="#FFFFFF" stroke-width="0.404" stroke-miterlimit="10" width="3.976" height="3.976"/>
		
			<rect x="216.205" y="139.887" fill-rule="evenodd" clip-rule="evenodd" fill="#FFFFFF" stroke="#FFFFFF" stroke-width="0.404" stroke-miterlimit="10" width="3.976" height="3.976"/>
		
			<rect x="212.238" y="139.887" fill-rule="evenodd" clip-rule="evenodd" fill="#FFFFFF" stroke="#FFFFFF" stroke-width="0.404" stroke-miterlimit="10" width="3.976" height="3.976"/>
		
			<rect x="208.251" y="139.887" fill-rule="evenodd" clip-rule="evenodd" fill="#FFFFFF" stroke="#FFFFFF" stroke-width="0.404" stroke-miterlimit="10" width="3.976" height="3.976"/>
	</g>
</g>
</svg>
