<?xml version="1.0" encoding="utf-8"?>
<!-- Generator: Adobe Illustrator 15.0.0, SVG Export Plug-In . SVG Version: 6.00 Build 0)  -->
<!DOCTYPE svg PUBLIC "-//W3C//DTD SVG 1.1//EN" "http://www.w3.org/Graphics/SVG/1.1/DTD/svg11.dtd">
<svg version="1.1" id="Layer_1" xmlns="http://www.w3.org/2000/svg" xmlns:xlink="http://www.w3.org/1999/xlink" x="0px" y="0px"
	 width="100px" height="100px" viewBox="0 0 100 100" enable-background="new 0 0 100 100" xml:space="preserve">
<g>
	<path fill="#323232" d="M49.946,90.042c-21.56,0-39.101-17.541-39.101-39.101s17.541-39.101,39.101-39.101
		s39.101,17.541,39.101,39.101S71.506,90.042,49.946,90.042z"/>
	<path fill="#C8C8C8" d="M49.946,12.841c21.042,0,38.101,17.059,38.101,38.101c0,21.042-17.059,38.101-38.101,38.101
		c-21.042,0-38.101-17.058-38.101-38.101C11.846,29.899,28.904,12.841,49.946,12.841 M49.946,10.841
		c-22.111,0-40.101,17.989-40.101,40.101s17.989,40.101,40.101,40.101s40.101-17.989,40.101-40.101S72.058,10.841,49.946,10.841
		L49.946,10.841z"/>
</g>
<path fill="#FFFFFF" d="M54.5,26.029c0,2.698-2.179,4.897-4.891,4.897c-2.716,0-4.896-2.199-4.896-4.897
	c0-2.711,2.18-4.91,4.896-4.91C52.321,21.119,54.5,23.318,54.5,26.029L54.5,26.029z"/>
<path fill="#FFFFFF" d="M60.978,51.221c0.194,0.843-0.324,1.685-1.162,1.874c-0.137,0.038-0.25,0.057-0.362,0.057
	c-0.712,0-1.361-0.495-1.53-1.219l-3.479-12.368l3.385,20.664h-3.272l-1.011,18.446c0,0.63-0.519,1.163-1.149,1.163
	c-0.668,0-1.2-0.532-1.2-1.163l-0.994-18.446h-1.187l-0.994,18.446c0,0.63-0.537,1.163-1.206,1.163
	c-0.631,0-1.149-0.532-1.149-1.163l-1.012-18.446h-3.272l3.39-20.664l-3.479,12.368c-0.169,0.725-0.805,1.219-1.534,1.219
	c-0.113,0-0.226-0.02-0.34-0.057c-0.861-0.188-1.379-1.031-1.186-1.874c0,0,2.58-12.495,3.804-15.004c0,0,0,0,0-0.019
	c1.224-2.505,2.448-4.012,7.09-4.012h0.96c4.642,0,5.867,1.507,7.091,4.012c0,0.019,0,0.019,0,0.019
	C58.398,38.727,60.978,51.221,60.978,51.221L60.978,51.221z M53,37h-2v-2h-2v2h-2v2h2v2h2v-2h2V37z"/>
</svg>
