<?xml version="1.0" encoding="utf-8"?>
<!-- Generator: Adobe Illustrator 15.0.0, SVG Export Plug-In . SVG Version: 6.00 Build 0)  -->
<!DOCTYPE svg PUBLIC "-//W3C//DTD SVG 1.1//EN" "http://www.w3.org/Graphics/SVG/1.1/DTD/svg11.dtd">
<svg version="1.1" id="Layer_1" xmlns="http://www.w3.org/2000/svg" xmlns:xlink="http://www.w3.org/1999/xlink" x="0px" y="0px"
	 width="100px" height="100px" viewBox="0 0 100 100" enable-background="new 0 0 100 100" xml:space="preserve">
<g>
	<path fill="#323232" d="M49.946,90.042c-21.56,0-39.101-17.541-39.101-39.101s17.541-39.101,39.101-39.101
		s39.101,17.541,39.101,39.101S71.506,90.042,49.946,90.042z"/>
	<path fill="#C8C8C8" d="M49.946,12.841c21.042,0,38.101,17.059,38.101,38.101c0,21.042-17.059,38.101-38.101,38.101
		c-21.042,0-38.101-17.058-38.101-38.101C11.846,29.899,28.904,12.841,49.946,12.841 M49.946,10.841
		c-22.111,0-40.101,17.989-40.101,40.101s17.989,40.101,40.101,40.101s40.101-17.989,40.101-40.101S72.058,10.841,49.946,10.841
		L49.946,10.841z"/>
</g>
<g>
	<ellipse fill-rule="evenodd" clip-rule="evenodd" fill="#FFFFFF" cx="49.647" cy="25.985" rx="4.759" ry="4.816"/>
	<path fill-rule="evenodd" clip-rule="evenodd" fill="#FFFFFF" d="M61.76,52c0,3-4.183,3-4.183,0l-2.506-12.93l0.151,10.913
		l1.661,27.407c0,1.49-0.775,2.75-2.247,2.75c-1.476,0-2.566-1.104-2.566-2.594L50.499,55H49.36l-1.571,22.535
		c0,1.489-1.024,2.508-2.5,2.508c-1.472,0-2.314-1.211-2.314-2.701l1.662-27.448l0.15-10.825L42.282,52c0,3-4.183,3-4.183,0
		l2.627-14.024C41.497,34.439,44.552,32,47.491,32h2.413l2.466-0.186c2.938,0,5.994,2.524,6.764,6.061L61.76,52z M53,37h-2v-2h-2v2
		h-2v2h2v2h2v-2h2V37z"/>
</g>
</svg>
