<?xml version="1.0" encoding="utf-8"?>
<!-- Generator: Adobe Illustrator 15.0.0, SVG Export Plug-In . SVG Version: 6.00 Build 0)  -->
<!DOCTYPE svg PUBLIC "-//W3C//DTD SVG 1.1//EN" "http://www.w3.org/Graphics/SVG/1.1/DTD/svg11.dtd">
<svg version="1.1" id="Layer_1" xmlns="http://www.w3.org/2000/svg" xmlns:xlink="http://www.w3.org/1999/xlink" x="0px" y="0px"
	 width="100px" height="100px" viewBox="0 0 100 100" enable-background="new 0 0 100 100" xml:space="preserve">
<g>
	<g>
		<path fill="#323232" d="M50.127,28.48L17.59,55.306c0,0.038-0.006,0.094-0.027,0.169c-0.016,0.074-0.027,0.129-0.027,0.169v27.163
			c0,0.979,0.356,1.826,1.075,2.543c0.716,0.719,1.563,1.078,2.544,1.078h21.731V64.696h14.488v21.732h21.727
			c0.98,0,1.83-0.359,2.545-1.076c0.719-0.713,1.078-1.566,1.078-2.545V55.644c0-0.152-0.021-0.264-0.059-0.338L50.127,28.48z
			 M50.127,28.48"/>
		<path fill="#323232" d="M95.112,49.194l-12.393-10.3V15.806c0-0.529-0.17-0.963-0.508-1.303c-0.34-0.338-0.773-0.508-1.303-0.508
			H70.048c-0.529,0-0.963,0.17-1.303,0.508c-0.339,0.34-0.509,0.773-0.509,1.303v11.035L54.43,15.298
			c-1.207-0.98-2.642-1.473-4.3-1.473c-1.661,0-3.094,0.492-4.301,1.473L5.141,49.194C4.764,49.496,4.557,49.9,4.52,50.408
			c-0.037,0.509,0.095,0.954,0.397,1.333l3.506,4.186c0.303,0.339,0.699,0.55,1.188,0.624c0.454,0.037,0.908-0.095,1.36-0.397
			l39.156-32.651l39.159,32.651c0.301,0.265,0.699,0.397,1.188,0.397h0.172c0.488-0.074,0.881-0.285,1.188-0.624l3.51-4.188
			c0.299-0.376,0.434-0.821,0.395-1.33C95.698,49.9,95.489,49.496,95.112,49.194L95.112,49.194z M95.112,49.194"/>
	</g>
</g>
</svg>
