<?xml version="1.0" encoding="utf-8"?>
<!-- Generator: Adobe Illustrator 15.0.0, SVG Export Plug-In . SVG Version: 6.00 Build 0)  -->
<!DOCTYPE svg PUBLIC "-//W3C//DTD SVG 1.1//EN" "http://www.w3.org/Graphics/SVG/1.1/DTD/svg11.dtd">
<svg version="1.1" id="Layer_1" xmlns="http://www.w3.org/2000/svg" xmlns:xlink="http://www.w3.org/1999/xlink" x="0px" y="0px"
	 width="100px" height="100px" viewBox="0 0 100 100" enable-background="new 0 0 100 100" xml:space="preserve">
<g>
	<g>
		<path fill="#323232" d="M53.261,12.83c0,3.166-2.568,5.733-5.733,5.733c-3.165,0-5.733-2.567-5.733-5.733
			c0-3.165,2.568-5.733,5.733-5.733C50.693,7.097,53.261,9.665,53.261,12.83L53.261,12.83z M53.261,12.83"/>
		<path fill="#323232" d="M66.173,31.41l2.986,3.297c0,0,0.743,0.788,1.605,0c0.867-0.784,0.483-1.84,0.011-2.116
			c-0.415-0.241-4.31-4.36-5.275-5.383c-0.119-0.126-0.357-0.231-0.53-0.231h-5.691c-0.174,0-0.411,0.103-0.531,0.228
			c-0.89,0.938-4.096,4.527-4.989,5.712c-0.277,0.292-0.515,0.272-0.508-0.071c0.196-2.795,0.854-7.177,1.1-9.459
			c0.174-1.654-0.652-2.533-1.596-2.533c-0.173,0.006-9.842-0.003-10.019,0c-1.419,0-2.347,0.734-1.983,3.464
			c0.523,4.605,1.959,17.025,1.957,17.066c-0.003,0.037-4.316,11.061-9.187,23.821c-0.082,0.186-0.309,0.913,0.333,0.913h10.125
			c0.172,0,0.315,0.262,0.315,0.435v24.498c0,0-0.003,0.023-0.007,0.046c-0.003,0.028,0,0.19,0.024,0.364
			c0.217,1.412,1.532,2.465,3.033,2.465c1.613,0,2.85-1.2,2.907-2.768l0.01-0.108V66.51c0-0.174,0.139-0.392,0.312-0.392h10.685
			c0.59,0,0.333-0.709,0.289-0.913c-0.747-2.49-9.201-23.648-9.197-23.821c0.007-0.604,0.131-1.804,0.197-2.235
			c0.063-0.428,0.469-0.445,0.469-0.445h2.295c0.173,0.004,0.315,0.15,0.329,0.323c0.038,0.594,0.201,1.901,0.853,2.669
			c0.707,0.839,2.52,2.677,3.155,3.312c0.121,0.122,0.349,0.282,0.519,0.319c0.312,0.071,0.805,0.092,1.155-0.333
			c0.547-0.666,0.627-1.532,0.192-1.922c-0.345-0.315-1.792-1.851-2.346-2.438c-0.119-0.125-0.108-0.319,0.023-0.435l1.457-1.235
			c0.133-0.116,0.381-0.208,0.553-0.208h2.004c0.173,0,0.41,0.105,0.529,0.227l1.373,1.447c0.118,0.126,0.117,0.326-0.01,0.449
			l-1.939,1.867c-0.125,0.119-0.312,0.333-0.383,0.489c-0.143,0.32-0.269,0.874,0.193,1.413c0.549,0.638,1.073,0.52,1.427,0.326
			c0.152-0.084,0.36-0.271,0.482-0.397l3.822-3.91c0.123-0.125,0.34-0.319,0.395-0.482c0.174-0.496,0.068-1.843-2.921-5.128
			c-0.114-0.129-0.21-0.37-0.21-0.544v-3.022C65.962,31.315,66.057,31.281,66.173,31.41L66.173,31.41z M58.181,33.733
			c0,0.173-0.141,0.312-0.315,0.312h-2.004c-0.172,0-0.217-0.102-0.098-0.228l2.221-2.371c0.116-0.125,0.214-0.088,0.21,0.085
			L58.181,33.733z M58.181,33.733"/>
	</g>
	<path fill="#323232" d="M65.875,22.482c0,1.962-1.593,3.555-3.555,3.555c-1.964,0-3.556-1.593-3.556-3.555
		c0-1.963,1.592-3.556,3.556-3.556C64.282,18.926,65.875,20.519,65.875,22.482L65.875,22.482z M65.875,22.482"/>
	<path fill="#323232" d="M58.09,12.948c-0.132,0.109-0.231,0.211-0.234,0.211s-0.102-0.099-0.238-0.211
		c-0.441-0.363-1.446-0.995-2.352-0.167c-1.163,1.066-0.226,3.492,2.294,4.656c0.16,0.071,0.292,0.125,0.295,0.129
		s0.136-0.044,0.292-0.119c2.52-1.162,3.458-3.6,2.296-4.667C59.54,11.953,58.535,12.582,58.09,12.948L58.09,12.948z M58.09,12.948"
		/>
</g>
</svg>
