<?xml version="1.0" encoding="utf-8"?>
<!-- Generator: Adobe Illustrator 15.0.0, SVG Export Plug-In . SVG Version: 6.00 Build 0)  -->
<!DOCTYPE svg PUBLIC "-//W3C//DTD SVG 1.1//EN" "http://www.w3.org/Graphics/SVG/1.1/DTD/svg11.dtd">
<svg version="1.1" id="Layer_1" xmlns="http://www.w3.org/2000/svg" xmlns:xlink="http://www.w3.org/1999/xlink" x="0px" y="0px"
	 width="100px" height="100px" viewBox="0 0 100 100" enable-background="new 0 0 100 100" xml:space="preserve">
<g>
	<path fill-rule="evenodd" clip-rule="evenodd" fill="#323232" d="M48.856,13.62h1.703v-1.724h1.699v-1.72H50.56V8.451h-1.703v1.726
		h-1.698v1.72h1.698V13.62 M49.718,7.776c2.428,0,6.402,1.03,8.615,3.486l-2.979,5.798c-1.306-1.706-3.341-2.8-5.638-2.8
		c-2.269,0-4.281,1.072-5.586,2.744l-3.039-5.616C43.649,8.796,47.188,7.776,49.718,7.776"/>
	<path fill-rule="evenodd" clip-rule="evenodd" fill="#323232" d="M55.18,21.842c0,3.062-2.446,5.539-5.472,5.539
		c-3.023,0-5.467-2.478-5.467-5.539c0-3.062,2.443-5.542,5.467-5.542C52.733,16.3,55.18,18.779,55.18,21.842"/>
	<path fill-rule="evenodd" clip-rule="evenodd" fill="#323232" d="M68.062,53.009l-5.286-17.02c-0.653-1.98-3-4.989-7.305-4.989
		h-0.344H45.062H44.72c-4.304,0-6.651,3.008-7.305,4.989l-5.286,17.312c-1.057,3.788,3.699,5.209,4.831,1.519l2.863-8.549L42.284,41
		h1.42l-8.246,26H44v20.971c0,2.003,1.535,2.535,2.521,2.438C47.511,90.507,49,89.991,49,87.971V67h2.046l-0.003,20.571
		c0,2.02,0.998,2.91,2.489,2.811C55.014,90.478,56,89.974,56,87.971V67h8.733l-8.246-26h1.42l2.462,5.197l2.862,9.097
		C64.362,58.986,69.119,56.798,68.062,53.009z"/>
</g>
</svg>
