<?xml version="1.0" encoding="utf-8"?>
<!-- Generator: Adobe Illustrator 15.0.0, SVG Export Plug-In . SVG Version: 6.00 Build 0)  -->
<!DOCTYPE svg PUBLIC "-//W3C//DTD SVG 1.1//EN" "http://www.w3.org/Graphics/SVG/1.1/DTD/svg11.dtd">
<svg version="1.1" id="Layer_1" xmlns="http://www.w3.org/2000/svg" xmlns:xlink="http://www.w3.org/1999/xlink" x="0px" y="0px"
	 width="400px" height="400px" viewBox="0 0 400 400" enable-background="new 0 0 400 400" xml:space="preserve">
<g>
	<path fill="#323232" d="M262.236,285.514c-1.758-0.568-3.576-1.129-5.395-1.697c0.939-3.957,1.818-8.23,2.576-12.816
		c3.766-2.566,7.531-5.213,11.238-7.971c0.189,2.387,0.311,4.645,0.439,6.895C268.209,275.525,265.252,280.738,262.236,285.514
		L262.236,285.514z M161.252,108.729c2.146-1.639,4.266-3.139,6.412-4.646c0.061-1.059,0.189-2.145,0.311-3.145
		c2.086-0.811,4.154-1.568,6.162-2.318c2.508,3.258,5.342,7.273,8.41,11.918c-1.016,1.078-2.008,2.078-2.965,3.154
		c-3.326,1.129-6.713,2.311-10.047,3.508c0.387-3.637,0.826-7.023,1.275-10.049c-1.336,2.068-2.596,4.275-3.973,6.609
		c-2.25,0.043-4.586,0.174-6.826,0.232C160.373,112.184,160.812,110.434,161.252,108.729L161.252,108.729z M333.703,197.525
		c-3.266,4.008-7.152,8.23-11.504,12.686c-0.043,2.637-0.113,5.273-0.232,7.98c-1.639,2.258-3.336,4.584-5.094,6.902
		c-1.689-6.902-3.576-14.064-5.834-21.416c-2.457-3.885-5.094-7.85-7.852-11.926c-6.531-1.578-13.564-3.266-20.975-4.955
		c-2.199-2.078-4.525-4.215-6.783-6.291c-1.129,0.629-2.197,1.318-3.266,1.947c1.697,4.205,3.387,8.42,5.023,12.625
		c2.508-1.379,5.025-2.766,7.412-4.084c3.266,2.766,6.402,5.531,9.418,8.229c-8.979,6.283-18.838,12.875-29.266,19.529
		c-4.895-10.859-10.357-22.227-16.08-33.473c-1.189,0.182-2.387,0.371-3.576,0.568c5.902,13.436,11.557,26.939,16.451,39.754
		c5.463-2.766,10.738-5.463,15.83-8.168c-1.758,6.092-3.645,12.125-5.592,18.027c-5.404,5.008-10.988,10.049-16.643,14.943
		c0.311,6.842,0.441,13.375,0.441,19.451c-3.139,2.154-6.283,4.223-9.42,6.238c-6.402,8.602-12.686,16.072-18.719,21.785
		c-5.023,0.689-10.047,1.26-15.072,1.828c-3.705-5.844-8.152-13.883-12.996-23.363c1.129-4.412,2.379-9.049,3.637-13.943
		c-3.076-8.617-6.273-17.977-9.531-27.697c-10.996,0.689-21.803,1.258-32.41,1.758c-6.094-5.773-12.125-11.678-18.029-17.58
		c0.758-9.42,1.689-19.088,2.826-28.758c5.783-7.17,11.678-14.322,17.641-21.363c11.316-2.061,22.795-4.129,34.223-6.033
		c0.766,2.965,1.455,5.92,2.145,8.928c4.715,2.947,9.42,6.025,14.135,9.109c1.818-2.525,3.576-5.033,5.334-7.48
		c7.16,1.889,14.254,3.775,21.225,5.645c1.758-1.119,3.516-2.18,5.275-3.197c0.697-2.637,1.387-5.205,2.076-7.781
		c-4.715-0.879-9.549-1.768-14.383-2.629c-1.629-2.705-3.266-5.342-4.895-7.996c-1.129-0.561-2.328-1.121-3.457-1.682
		c-0.879,3.258-1.818,6.594-2.766,9.91c-2.197-2.697-4.395-5.334-6.592-7.971c0.059-2.207,0.189-4.318,0.248-6.463
		c-2.887-2.197-5.713-4.344-8.6-6.412c-1.697-0.801-3.395-1.568-5.094-2.318c0.129,2.008,0.26,4.086,0.457,6.223
		c3.568,2.258,7.145,4.576,10.789,6.895c-1.818,2.008-3.645,4.092-5.523,6.16c-2.637-3.326-5.266-6.652-7.842-9.857
		c-1.836-2.008-3.654-4.016-5.533-5.955c-4.273,1.939-8.539,4.008-12.875,6.092c-3.068,4.447-6.23,9.031-9.299,13.678
		c-4.584-0.629-9.1-1.26-13.564-1.879c-0.061-5.541-0.061-10.936,0-16.141c5.594,0.248,11.299,0.49,17.09,0.818
		c-1.775-2.768-3.465-5.404-5.162-7.98c-0.939-2.137-1.947-4.205-2.879-6.213c4.326-1.318,8.602-2.639,12.928-3.896
		c2.395-2.705,4.842-5.342,7.17-7.842c1.879-0.139,3.766-0.258,5.645-0.389c-0.371-1.377-0.758-2.766-1.068-4.084
		c1.197-1.318,2.387-2.447,3.576-3.629c0.887,1.939,1.826,3.947,2.766,6.094c5.223,0.104,10.428,0.242,15.643,0.432
		c1.318-2.965,2.576-5.791,3.766-8.43c2.008,0.51,3.955,1.078,5.963,1.578c-0.811-1.818-1.629-3.586-2.447-5.275
		c2.895-0.629,5.652-1.188,8.48-1.697c-1.01-0.74-2.068-1.5-3.078-2.197c-2.447,0.371-5.023,0.828-7.6,1.258
		c-1.068-1.439-2.137-2.895-3.197-4.213c-0.129,0-0.26,0-0.379,0c0.061-0.131,0.119-0.232,0.189-0.311
		c-0.439-0.568-0.879-1.139-1.318-1.629c0.939-0.379,1.879-0.758,2.826-1.129c0.75-1.25,1.379-2.268,2.068-3.266
		c-0.939-0.061-1.887-0.189-2.826-0.25c-1.318,0.809-2.697,1.748-4.086,2.697c-1.129,1.447-2.318,3.137-3.576,4.902
		c1.568,0.992,3.076,2.008,4.645,3.137c-1.248,2.578-2.637,5.525-4.076,8.602c-2.326,0.689-4.652,1.387-7.041,2.076
		c-1.318-3.266-2.637-6.23-3.895-8.988c-2.705,1.008-5.402,2.068-8.17,3.207c-1.25-0.553-2.498-1.078-3.758-1.629
		c0.32-2.775,0.629-5.275,0.879-7.551c2.318-0.99,4.586-2.008,6.73-2.877c1.879-2.457,3.697-4.404,5.404-5.955
		c4.188-0.828,8.281-1.578,12.168-2.146c9.859,0.439,20.166,1.199,30.584,2.078c14.445-0.518,31.965-1.146,39.754-1.51
		c-23.422-18.406-52.955-29.516-85.1-29.516c-32.723,0-62.789,11.488-86.402,30.576c1.568,0.258,3.137,0.518,4.697,0.689
		c0.947,2.396,2.008,4.965,3.283,7.791c0.43,1.457,0.861,3.008,1.379,4.652c-2.525,2.311-4.965,4.887-7.359,7.654
		c-0.51,1.318-1,2.697-1.5,4.152c-1.826,1.01-3.586,2.068-5.334,3.129c-1.207,3.836-2.268,7.928-3.197,12.117
		c-2.207-0.303-4.344-0.621-6.42-0.871c-1.439-8.42-2.311-15.633-2.957-22.414c-6.395,7.342-12.107,15.312-16.812,23.914
		c0.689-0.629,1.318-1.189,2.068-1.75c1.818,9.299,4.023,19.469,7.031,30.576c-6.033,3.912-11.496,7.799-16.141,11.496
		c-3.396,3.154-6.334,6.283-8.867,9.23c-0.689,5.463-1.121,11.064-1.121,16.709c0,11.746,1.637,23.113,4.387,33.98
		c2.455,0.861,5.094,1.758,8.041,2.637c4.541,5.145,9.678,10.342,15.338,15.512c1.189,3.707,2.508,7.344,3.887,10.85
		c7.344,4.604,15.322,9.059,23.666,13.203c-2.5,7.781-4.447,14.633-5.895,20.477c-3.268,0.119-6.404,0.18-9.549,0.25
		c24.932,25.18,59.549,40.812,97.838,40.812c74.742,0,135.471-59.66,137.479-133.885
		C334.652,201.42,334.211,199.533,333.703,197.525L333.703,197.525z M333.703,197.525"/>
</g>
<g>
	<path fill="#787878" d="M313.486,146.698c-9.099,0-16.477,7.331-16.477,16.369c0,4.626,4.542,12.91,4.542,12.91l11.329,19.227
		l11.821-19.004c0,0,5.252-7.902,5.252-13.133C329.962,154.029,322.585,146.698,313.486,146.698L313.486,146.698z M313.411,172.083
		c-5.211,0-9.434-4.222-9.434-9.439c0-5.215,4.223-9.429,9.434-9.429c5.205,0,9.438,4.214,9.438,9.429
		C322.849,167.862,318.616,172.083,313.411,172.083L313.411,172.083z M313.411,172.083"/>
</g>
<g>
	<path fill="#787878" d="M218.486,226.697c-9.099,0-16.477,7.332-16.477,16.369c0,4.627,4.542,12.91,4.542,12.91l11.329,19.227
		l11.821-19.004c0,0,5.252-7.902,5.252-13.133C234.962,234.029,227.585,226.697,218.486,226.697L218.486,226.697z M218.411,252.084
		c-5.211,0-9.434-4.223-9.434-9.439c0-5.215,4.223-9.43,9.434-9.43c5.205,0,9.438,4.215,9.438,9.43
		C227.849,247.861,223.616,252.084,218.411,252.084L218.411,252.084z M218.411,252.084"/>
</g>
<g>
	<path fill="#787878" d="M236.486,173.697c-9.099,0-16.477,7.332-16.477,16.369c0,4.627,4.542,12.91,4.542,12.91l11.329,19.227
		l11.821-19.004c0,0,5.252-7.902,5.252-13.133C252.962,181.029,245.585,173.697,236.486,173.697L236.486,173.697z M236.411,199.084
		c-5.211,0-9.434-4.223-9.434-9.439c0-5.215,4.223-9.43,9.434-9.43c5.205,0,9.438,4.215,9.438,9.43
		C245.849,194.861,241.616,199.084,236.411,199.084L236.411,199.084z M236.411,199.084"/>
</g>
<g>
	<path fill="#787878" d="M170.486,163.697c-9.099,0-16.477,7.332-16.477,16.369c0,4.627,4.542,12.91,4.542,12.91l11.329,19.227
		l11.821-19.004c0,0,5.252-7.902,5.252-13.133C186.962,171.029,179.585,163.697,170.486,163.697L170.486,163.697z M170.411,189.084
		c-5.211,0-9.434-4.223-9.434-9.439c0-5.215,4.223-9.43,9.434-9.43c5.205,0,9.438,4.215,9.438,9.43
		C179.849,184.861,175.616,189.084,170.411,189.084L170.411,189.084z M170.411,189.084"/>
</g>
</svg>
