<?xml version="1.0" encoding="utf-8"?>
<!-- Generator: Adobe Illustrator 15.0.0, SVG Export Plug-In . SVG Version: 6.00 Build 0)  -->
<!DOCTYPE svg PUBLIC "-//W3C//DTD SVG 1.1//EN" "http://www.w3.org/Graphics/SVG/1.1/DTD/svg11.dtd">
<svg version="1.1" id="Layer_1" xmlns="http://www.w3.org/2000/svg" xmlns:xlink="http://www.w3.org/1999/xlink" x="0px" y="0px"
	 width="100px" height="100px" viewBox="0 0 100 100" enable-background="new 0 0 100 100" xml:space="preserve">
<g>
	<path fill="#323232" d="M74.776,41.061l-1.747-4.124c0,0,4.048-9.118,3.691-9.479l-5.355-5.217c-0.372-0.352-9.494,3.8-9.494,3.8
		l-4.198-1.692c0,0-3.722-9.251-4.235-9.251h-7.552c-0.522,0-3.967,9.266-3.967,9.266l-4.199,1.707c0,0-9.307-3.966-9.667-3.607
		l-5.336,5.231c-0.379,0.354,3.875,9.292,3.875,9.292l-1.729,4.125c0,0-9.448,3.642-9.448,4.121v7.406
		c0,0.513,9.464,3.895,9.464,3.895l1.741,4.104c0,0-4.045,9.122-3.686,9.462l5.337,5.246c0.372,0.343,9.491-3.812,9.491-3.812
		l4.221,1.696c0,0,3.706,9.247,4.22,9.247h7.56c0.514,0,3.953-9.261,3.953-9.261l4.22-1.71c0,0,9.292,3.968,9.648,3.61l5.354-5.233
		c0.372-0.355-3.891-9.29-3.891-9.29l1.741-4.125c0,0,9.434-3.645,9.434-4.141v-7.389C84.237,44.426,74.776,41.061,74.776,41.061
		L74.776,41.061z M60.862,48.782c0,5.96-4.952,10.798-11.033,10.798c-6.09,0-11.039-4.838-11.039-10.798
		c0-5.95,4.949-10.789,11.039-10.789C55.91,37.993,60.862,42.832,60.862,48.782L60.862,48.782z"/>
</g>
</svg>
