<?xml version="1.0" standalone="no"?><!DOCTYPE svg PUBLIC "-//W3C//DTD SVG 1.1//EN" "http://www.w3.org/Graphics/SVG/1.1/DTD/svg11.dtd"><svg width="100%" height="100%" viewBox="0 0 980 462" version="1.1" xmlns="http://www.w3.org/2000/svg" xmlns:xlink="http://www.w3.org/1999/xlink" xml:space="preserve" style="fill-rule:evenodd;clip-rule:evenodd;stroke-miterlimit:10;"><g id="anc-diagram"><g id="Layer 1"><path d="M446.369,175.355c0,0 1.30305,-1.40274 3.78454,-3.75784" style="fill:none;stroke-width:2px;stroke:#b3b3b3;"/><path d="M458.105,164.517c17.7247,-14.8907 54.2172,-40.213 100.397,-43.4332c37.3078,-2.60076 72.9138,9.48271 93.8837,18.6165" style="fill:none;stroke-width:2px;stroke-dasharray:5.99,5.99;stroke:#b3b3b3;"/><path d="M657.261,141.889c1.74452,0.808176 3.36087,1.57719 4.81879,2.2928" style="fill:none;stroke-width:2px;stroke:#b3b3b3;"/><path d="M671.58,149.183c-5.34927,-0.671106 -12.3914,-0.72985 -17.406,0.482413l6.62562,-6.09514l1.19802,-8.92197c1.87981,4.80277 5.96341,10.5383 9.5824,14.5347" style="fill:#b3b3b3;fill-rule:nonzero;"/><path d="M682.441,345.749c0,0 -1.52913,1.14996 -4.39868,3.01375" style="fill:none;stroke-width:2px;stroke:#b3b3b3;"/><path d="M668.948,354.302c-20.1118,11.4604 -60.5562,29.8171 -106.563,24.685c-37.1707,-4.14413 -70.0247,-22.4313 -89.0097,-35.1859" style="fill:none;stroke-width:2px;stroke-dasharray:5.99,5.99;stroke:#b3b3b3;"/><path d="M468.971,340.777c-1.57719,-1.10902 -3.02265,-2.15573 -4.32926,-3.12055" style="fill:none;stroke-width:2px;stroke:#b3b3b3;"/><path d="M456.196,331.028c5.14277,1.62169 12.0586,2.94432 17.2084,2.65238l-7.61358,4.80455l-2.77699,8.56417c-0.989748,-5.06623 -3.97679,-11.4391 -6.81787,-16.0211" style="fill:#b3b3b3;fill-rule:nonzero;"/><path d="M96.2883,233.023c2.81971,0 5.12141,-2.29458 5.12141,-5.11251c0,-2.81437 -2.3017,-5.10895 -5.12141,-5.10895c-2.82327,0 -5.11785,2.29458 -5.11785,5.10895c0,2.81793 2.29458,5.11251 5.11785,5.11251" style="fill:#cc8c21;fill-rule:nonzero;"/><path d="M101.212,234.095l-9.53612,0c-2.52421,0 -4.57313,2.3373 -4.57313,4.86329l-0.014241,14.7181l4.6301,0l0,17.8012l10.6807,0l0,-17.8012l3.39113,0l-0.00890061,-14.7181c0,-2.52599 -2.04536,-4.86329 -4.56957,-4.86329" style="fill:#cc8c21;fill-rule:nonzero;"/><path d="M65.8359,204.434c3.52464,0 6.4031,-2.86778 6.4031,-6.39242c0.00178012,-3.5193 -2.87668,-6.3853 -6.4031,-6.3853c-3.5282,0 -6.39776,2.866 -6.39776,6.3853c0,3.52464 2.86956,6.39242 6.39776,6.39242" style="fill:#cc8c21;fill-rule:nonzero;"/><path d="M71.9915,205.613l-11.9197,0c-3.15616,0 -5.71775,3.14192 -5.71775,6.30341l-0.0178012,18.6183l5.34037,0l0,21.3615l12.4609,0l0,-21.3615l5.57712,0l-0.0106807,-18.6183c0,-3.1615 -2.55804,-6.30341 -5.71241,-6.30341" style="fill:#cc8c21;fill-rule:nonzero;"/><path d="M43.5235,147.211c2.81971,0 5.12141,-2.29458 5.12141,-5.11073c0.00178012,-2.81793 -2.3017,-5.11073 -5.12141,-5.11073c-2.82505,0 -5.11963,2.2928 -5.11963,5.11073c0,2.81615 2.29458,5.11073 5.11963,5.11073" style="fill:#cc8c21;fill-rule:nonzero;"/><path d="M48.4457,148.649l-9.53434,0c-2.52599,0 -4.57491,2.33552 -4.57491,4.86507l-0.014241,14.7163l3.99281,0l0,17.8012l10.6807,0l0,-17.8012l4.02842,0l-0.00712049,-14.7163c0,-2.52955 -2.04714,-4.86507 -4.57135,-4.86507" style="fill:#cc8c21;fill-rule:nonzero;"/><path d="M11.5012,159.485c3.52464,0 6.4031,-2.86778 6.4031,-6.39064c0.00178012,-3.52286 -2.87668,-6.38708 -6.4031,-6.38708c-3.52998,0 -6.39954,2.86422 -6.39954,6.38708c0,3.52286 2.86778,6.39064 6.39954,6.39064" style="fill:#cc8c21;fill-rule:nonzero;"/><path d="M17.6553,161.11l-11.9179,0c-3.15794,0 -5.71953,2.25364 -5.71953,5.41335l-0.0178012,17.7282l4.49303,0l0,23.1416l14.241,0l0,-23.1416l4.64256,0l-0.00890061,-17.7282c0.00178012,-3.15972 -2.55804,-5.41335 -5.71241,-5.41335" style="fill:#cc8c21;fill-rule:nonzero;"/><path d="M273.475,123.72c-3.98213,0.922103 -15.4675,3.1348 -27.0703,4.07114c-0.993308,-6.28383 -3.38579,-10.9495 -6.51169,-12.9148c0.43435,-0.00890061 0.859799,-0.0302621 1.29415,-0.0373826c0.656865,-0.0178012 1.30839,-0.0373826 1.96526,-0.0623043c1.12682,-0.0391627 2.24651,-0.0943465 3.36621,-0.15131c0.610582,-0.0373826 1.22294,-0.0640844 1.82463,-0.103247c1.29415,-0.0854459 2.57406,-0.185133 3.83972,-0.29728c0.393407,-0.0338223 0.790374,-0.0640844 1.17844,-0.0979067c1.64127,-0.154871 3.25584,-0.332883 4.83659,-0.534037c0.411208,-0.0534037 0.806396,-0.112148 1.2087,-0.167332c1.17666,-0.160211 2.33018,-0.322202 3.457,-0.505555c0.539377,-0.0890061 1.06273,-0.181572 1.58787,-0.270579c0.980848,-0.167332 1.94033,-0.345344 2.88558,-0.532257c0.528696,-0.106807 1.05561,-0.213615 1.57541,-0.322202c0.939905,-0.202934 1.84421,-0.409428 2.73961,-0.630163c0.457491,-0.110368 0.913203,-0.217175 1.36179,-0.334663c0.14953,-0.0409428 0.316862,-0.072985 0.464612,-0.113928c0.0640844,7.68301 0.0391627,11.3056 -0.00356025,13.0038M226.535,127.792c-6.92112,-0.528696 -13.7034,-1.48106 -18.896,-2.38358c-1.83887,-0.987968 -3.73292,-2.00264 -5.69995,-3.04935c-0.338223,-0.185133 -0.697808,-0.316862 -1.06807,-0.407648c-0.137069,-0.0338223 -0.263458,-0.0676447 -0.389847,-0.0961266c-0.307961,-0.329323 -0.676447,-0.594561 -1.07519,-0.822417c-0.0445031,-2.07918 -0.0445031,-5.28162 0.0747651,-10.2998c0.174452,0.0480633 0.359585,0.087226 0.534037,0.131729c0.416549,0.108587 0.850899,0.206494 1.27635,0.309741c0.927444,0.224295 1.86913,0.43969 2.84286,0.647965c0.484193,0.101467 0.973727,0.202934 1.47216,0.302621c0.982628,0.192253 1.98662,0.377386 3.00841,0.555398c0.489534,0.0836658 0.971947,0.169112 1.47394,0.249217c1.18734,0.188693 2.39961,0.366705 3.62967,0.526916c0.347124,0.0480633 0.688907,0.0996869 1.03781,0.14419c1.58965,0.199374 3.21134,0.375606 4.85973,0.534037c0.377386,0.0320422 0.767233,0.0605242 1.14462,0.0925664c1.27101,0.110368 2.55626,0.213615 3.85397,0.299061c0.605242,0.0373826 1.2176,0.0658645 1.82997,0.105027c1.09478,0.0534037 2.20201,0.108587 3.31637,0.14775c0.667546,0.0267018 1.34043,0.0480633 2.00798,0.0623043c0.421889,0.00890061 0.840218,0.0302621 1.26389,0.0373826c-3.12412,1.96882 -5.50948,6.62918 -6.49745,12.913M221.275,181.348c2.19667,-0.412988 4.33638,-0.856239 6.42802,-1.31907c0.213615,-0.0480633 0.43079,-0.0925664 0.640844,-0.13885c2.04536,-0.459272 4.0302,-0.950585 5.95629,-1.45792c0.115708,-0.0302621 0.240317,-0.0534037 0.356025,-0.087226c0.119268,14.0861 0.0640844,20.6672 -0.0124609,23.7379c-7.29138,1.6751 -28.2523,5.71953 -49.4073,7.42667c-1.8086,-11.4711 -6.18771,-19.9819 -11.8912,-23.567c0.0925664,-0.00356025 0.183353,0.170892 0.279479,0.170892c2.73427,-0.0551838 5.45786,-0.0801055 8.15296,-0.0801055l0.0783254,0c2.65238,0 5.28162,-0.443251 7.88772,-0.624823c0.28482,-0.014241 0.571419,-0.122828 0.854459,-0.14775c2.59186,-0.178012 5.14989,-0.43079 7.67055,-0.676447c0.0712049,-0.00356025 0.14063,-0.0338223 0.206494,-0.0427229c2.52599,-0.243877 5.01995,-0.526916 7.46939,-0.827757c0.14775,-0.0160211 0.2955,-0.0409428 0.44147,-0.0605242c2.39604,-0.29372 4.74759,-0.628383 7.06175,-0.975507c0.304401,-0.0498434 0.605242,-0.0979067 0.911423,-0.14775c2.31238,-0.359585 4.59094,-0.744091 6.80363,-1.16064c0.0373826,-0.00890061 0.072985,-0.0124609 0.112148,-0.0213615M148.971,209.524c-22.3548,-1.70536 -42.9971,-5.71419 -49.2952,-7.41065c-0.208274,-2.55448 -0.42901,-8.77778 -0.0658645,-23.7219c0.183353,0.0462832 0.384506,0.087226 0.567859,0.135289c1.82285,0.478853 3.69197,0.934564 5.62163,1.37247c0.334663,0.0747651 0.678227,0.14775 1.01645,0.220735c1.87981,0.411208 3.80056,0.806396 5.7676,1.17488c0.222515,0.0462832 0.43791,0.087226 0.662206,0.129949c2.11479,0.391627 4.28475,0.756552 6.49033,1.09656c0.409428,0.0623043 0.815296,0.128169 1.22472,0.186913c2.23227,0.341784 4.50015,0.656865 6.81431,0.941685c0.233196,0.0356025 0.468172,0.0534037 0.697808,0.0836658c2.32484,0.281259 4.68706,0.544717 7.08133,0.776133c0.161991,0.014241 0.320422,0.0320422 0.482413,0.0480633c2.47615,0.240317 4.99324,0.44147 7.52992,0.617703c0.313302,0.0267018 0.630163,0.0462832 0.945245,0.0658645c2.58652,0.174452 5.19262,0.325762 7.8272,0.44147c0.0267018,0.00356025 0.0516236,0.00356025 0.0783254,0.00356025c2.72181,0.119268 5.46676,0.202934 8.22773,0.250997c0.0640844,0 0.128169,0.00356025 0.194033,0.00534037c-5.70529,3.58517 -10.0666,12.0977 -11.8681,23.5813M104.794,127.906c-0.989748,-6.28383 -3.38579,-10.946 -6.50991,-12.9166c0.487754,-0.0106807 0.970167,-0.0320422 1.45436,-0.0462832c0.541157,-0.0106807 1.07697,-0.0302621 1.61991,-0.0498434c1.27991,-0.0427229 2.54558,-0.103247 3.8059,-0.170892c0.480633,-0.0320422 0.959486,-0.0534037 1.43834,-0.0801055c1.51132,-0.0979067 3.00485,-0.211835 4.47879,-0.348904c0.194033,-0.0195813 0.389847,-0.0320422 0.57854,-0.0462832c1.70714,-0.163771 3.38045,-0.345344 5.02173,-0.553618c0.256338,-0.0373826 0.500214,-0.0712049 0.749432,-0.105027c1.33509,-0.176232 2.64526,-0.364925 3.93051,-0.569639c0.445031,-0.072985 0.881161,-0.153091 1.32263,-0.224295c1.07697,-0.185133 2.13437,-0.382726 3.16506,-0.58744c0.461052,-0.0961266 0.914983,-0.185133 1.36179,-0.281259c1.02891,-0.218955 2.02578,-0.448591 3.00485,-0.690688c0.373826,-0.0907862 0.761892,-0.178012 1.12682,-0.274139c0.174452,-0.0480633 0.359585,-0.0854459 0.528696,-0.131729c0.0551838,6.14142 0.0462832,9.6536 0.0195813,11.6936c-1.32619,0.706709 -2.66662,1.42232 -4.02308,2.15039c-5.44183,1.05739 -14.2214,2.51709 -23.0739,3.2327M84.9207,127.906c-12.2544,-0.938125 -23.5653,-3.12946 -27.0169,-4.05512c-0.112148,-1.39918 -0.233196,-4.81523 -0.0373826,-13.002c0.179792,0.0445031 0.377386,0.087226 0.560739,0.135289c0.384506,0.101467 0.786814,0.190473 1.182,0.28838c0.963046,0.234976 1.94211,0.461052 2.95678,0.674666c0.452151,0.0961266 0.907862,0.186913 1.36891,0.279479c1.03247,0.204714 2.08452,0.398747 3.15794,0.58032c0.44147,0.0783254 0.8776,0.153091 1.32619,0.224295c1.28169,0.204714 2.59008,0.396967 3.92339,0.569639c0.252777,0.0320422 0.494874,0.0694248 0.745871,0.103247c1.63237,0.204714 3.29323,0.388067 4.98612,0.544717c0.234976,0.0231416 0.475293,0.0373826 0.708489,0.058744c1.42588,0.128169 2.866,0.236756 4.32926,0.334663c0.500214,0.028482 1.00043,0.0569639 1.50242,0.0854459c1.22472,0.0658645 2.45657,0.121048 3.69909,0.165551c0.560739,0.0231416 1.12148,0.0409428 1.68756,0.0534037c0.475293,0.0124609 0.943465,0.0356025 1.42054,0.0445031c-3.12768,1.96704 -5.51482,6.6274 -6.50101,12.9148M241.249,72.2785l0,-0.218955c0,-4.41292 -1.87091,-7.2629 -4.44853,-7.2629c-2.57762,0 -4.45209,2.84998 -4.45209,7.2629l0,0.217175c-48.0633,24.053 -47.5079,27.8358 -47.5079,29.4592c0,1.04315 -0.028482,4.09962 9.69811,7.48186c-0.106807,3.93941 -0.161991,6.88729 -0.161991,9.12669c-8.63003,-4.53753 -15.8467,-8.23841 -19.5618,-10.1325c0.00178012,-0.135289 -0.00178012,-0.270579 -0.00178012,-0.404088c0,-8.05327 -3.01731,-13.2548 -7.71683,-13.2548c-4.7102,0 -7.73285,5.20152 -7.73285,13.2548l0,0.404088c-3.56025,2.0952 -12.4965,6.3942 -22.3939,11.6224c0.00356025,-2.50641 -0.0320422,-5.87974 -0.0818856,-10.5383c9.62512,-3.36621 9.5201,-6.41022 9.5201,-7.44981c0,-1.62347 0.494874,-5.40979 -47.5684,-29.461l0,-0.215395c0,-4.41292 -1.54693,-7.26468 -4.12276,-7.26468c-2.57762,0 -4.18685,2.85354 -4.18685,7.26468c0,0.0712049 0.0302621,0.14419 0.0320422,0.215395c-47.442,24.0512 -47.4296,27.8376 -47.4296,29.461c0,1.03959 0.0195813,4.09784 9.74083,7.48186c-0.461052,16.9325 0.153091,17.463 1.32975,18.3726c1.91541,1.48996 19.179,4.51261 32.756,5.35105l2.43165,0.153091l0.224295,-2.41029c0.00178012,-0.0373826 0.0106807,-0.0712049 0.0160211,-0.106807c0.304401,0.0124609 0.610582,0.0338223 0.913203,0.0427229l-0.0124609,2.49929c1.52022,0.0569639 3.03155,-0.00534037 4.51083,-0.00534037c3.05291,0 6.58289,-0.598121 10.266,-0.598121l0.0338223,0c3.06715,0 6.23755,-0.496654 9.32784,-0.886501c-41.9059,23.1202 -41.913,26.7303 -41.913,30.1713c0,1.90295 0.0213615,7.50144 17.7567,13.6749c-0.847338,30.9955 0.270579,31.8784 2.41207,33.5339c3.49794,2.73249 35.0043,8.26511 59.7765,9.79601l4.43429,0.277699l0.411208,-4.40224c0.00534037,-0.0658645 0.014241,-0.122828 0.0231416,-0.195813c0.485973,0.0267018 0.977287,0.0605242 1.46504,0.0765453l-0.0249217,4.56423c2.84998,0.108587 5.66969,0.170892 8.43422,0.170892c5.53618,0 11.9393,-0.334663 18.6236,-0.888281l0.176232,-0.00534037l-0.00178012,-0.0106807c24.8274,-2.07562 53.4393,-7.18991 55.9599,-9.67141c1.7196,-1.69824 1.91007,-1.89583 1.58787,-33.2794c17.5627,-6.1432 17.5894,-11.6901 17.5894,-13.5877c0,-3.30213 -0.0338223,-7.0119 -41.2543,-29.7619c2.76275,0.300841 5.60917,0.557178 8.45024,0.73341l2.42987,0.154871l0.227856,-2.41029c0.00178012,-0.0373826 0.00890061,-0.0694248 0.0178012,-0.105027c0.300841,0.00890061 0.607022,0.0320422 0.907862,0.0409428l-0.014241,2.50463c1.52022,0.0534037 3.03511,0.0979067 4.51261,0.0979067c3.05469,0 6.58823,-0.185133 10.2677,-0.491314l0.0302621,-0.00356025c13.6286,-1.13572 29.3115,-3.94831 30.6591,-5.29586c0.963046,-0.939905 1.05383,-1.08409 0.87226,-18.2463c9.63046,-3.36621 9.9224,-6.41022 9.9224,-7.44625c0.00178012,-1.62347 -0.8776,-5.40801 -47.1608,-29.4575" style="fill:#b88161;fill-rule:nonzero;"/><path d="M230.775,236.696c10.1859,0 18.4438,8.21349 18.4438,18.3477c0,10.1307 -8.25799,18.3442 -18.4438,18.3442c-10.1876,0 -18.4438,-8.21349 -18.4438,-18.3442c0,-10.1342 8.25621,-18.3477 18.4438,-18.3477" style="fill:#f47b63;fill-rule:nonzero;"/><path d="M220.813,321.55l-17.7354,-12.6513l13.294,-12.9397l6.18949,27.3801c-0.466392,-0.672886 -1.03781,-1.28703 -1.74808,-1.78902M269.019,329.805c0,-0.00712049 -29.6195,-44.4959 -29.6195,-44.4959c-6.89441,-9.55926 -21.5359,-8.44668 -29.8722,-0.338223c0,0 -17.6535,17.139 -21.2297,20.6494c-3.57627,3.50684 -2.44767,8.84721 0.861579,11.2094l24.8843,17.7389c2.59898,1.84955 5.97943,1.84243 8.46982,0.13885l-26.7374,52.478l32.3786,0c-0.920323,10.6807 -1.77478,20.1047 -1.77478,20.1047c0,0.00356025 -3.96967,45.1279 -3.96967,45.1279c-0.405868,4.57491 2.99773,8.58375 7.59578,8.98428c4.60696,0.404088 8.65674,-2.91406 9.05904,-7.49076l5.8744,-66.7226l20.8328,0c0,0 -1.01467,-25.2849 -1.01111,-25.2884c4.99324,-4.6568 8.12626,-11.2913 8.12626,-18.6254c-0.00178012,-4.93806 -1.433,-9.56816 -3.86821,-13.4702" style="fill:#f47b63;fill-rule:nonzero;"/><path d="M947.958,88.125l-19.5813,0l0,27.8785l-35.1129,-28.4891l-87.7155,71.9063l0,10.5899l174.452,0l0,-10.5899l-32.0422,-25.9738l0,-45.3219Z" style="fill:#576e60;fill-rule:nonzero;"/><path d="M915.916,203.833l0,14.241l-16.0211,0l0,16.0211l-14.241,0l0,-16.0211l-16.0211,0l0,-14.241l16.0211,0l0,-16.0211l14.241,0l0,16.0211l16.0211,0ZM821.569,177.131l0,110.368l58.744,0l0,-39.1627l24.9217,0l0,39.1627l60.5242,0l0,-110.368l-72.7251,0l-71.4648,0Z" style="fill:#576e60;fill-rule:nonzero;"/><path d="M777.336,273.501c2.9105,10.4369 -10.1983,16.135 -13.3135,5.97231l-7.88594,-25.2831l-6.78405,-14.7554l-3.90203,0l22.7161,78.3254l-26.7018,0l0,52.3107c0,5.5166 -0.779694,8.86857 -5.48278,8.85077c-5.09115,0.0213615 -5.32079,-2.99061 -5.32079,-8.55527l-0.204714,-52.6062l-6.47253,0l-0.210054,52.608c0,5.56644 -0.687127,8.42354 -5.30833,8.40752c-4.27763,0.0195813 -5.48278,-3.1882 -5.48278,-8.70302l0,-52.3125l-25.4718,0l22.7179,-78.3254l-3.90915,0l-6.78227,15.1809l-7.89128,24.2043c-3.11877,10.1645 -16.2151,6.69326 -13.31,-3.7436l14.5614,-46.8083c1.80682,-5.4543 8.27223,-11.9767 20.1296,-11.9767l29.6177,0c11.8556,0 18.3228,6.52059 20.1225,11.9767l14.5685,45.2329ZM742.68,193.851c0,8.43066 -6.73776,15.261 -15.0776,15.261c-8.32741,0 -15.0598,-6.83033 -15.0598,-15.261c0,-8.436 6.73242,-15.2663 15.0598,-15.2663c8.33631,-0.00178012 15.0776,6.83033 15.0776,15.2663M718.323,159.33l5.34037,0l0,-5.34037l5.34037,0l0,5.34037l5.34037,0l0,5.34037l-5.34037,0l0,5.34037l-5.34037,0l0,-5.34037l-5.34037,0l0,-5.34037ZM727.629,173.909c7.87526,0 14.8516,3.57093 19.325,9.14271l10.2108,-18.9334c-7.58866,-8.01945 -21.6142,-12.8115 -29.9345,-12.8115c-8.67098,0 -20.3949,4.75649 -29.1637,13.2281l10.4155,18.3353c4.46633,-5.45786 11.3732,-8.96114 19.147,-8.96114" style="fill:#89ac96;fill-rule:nonzero;"/><path d="M578.975,410.063c-0.769013,-0.637284 -1.74452,-1.06985 -2.77521,-1.06985c-0.767233,0 -1.79258,0.448591 -1.79258,1.34399c0,0.941685 1.13038,1.30483 1.85845,1.53981l1.06629,0.318642c2.24117,0.662206 3.97145,1.79258 3.97145,4.40046c0,1.59855 -0.384506,3.24338 -1.67154,4.33638c-1.25855,1.07341 -2.94076,1.522 -4.56245,1.522c-2.03468,0 -4.01418,-0.688907 -5.66435,-1.83531l1.7997,-3.37689c1.04671,0.922103 2.27856,1.66975 3.71512,1.66975c0.980848,0 2.02756,-0.491314 2.02756,-1.62169c0,-1.17666 -1.64483,-1.58075 -2.54023,-1.83709c-2.63102,-0.747651 -4.35596,-1.42944 -4.35596,-4.54643c0,-3.27009 2.3284,-5.40267 5.55042,-5.40267c1.62347,0 3.61009,0.514455 5.03953,1.32619l-1.66619,3.2327Z" style="fill:#000;fill-rule:nonzero;"/><path d="M591.33,414.951c-0.192253,-1.04671 -1.15352,-1.73028 -2.19845,-1.73028c-1.13216,0 -2.07206,0.598121 -2.30704,1.73028l4.50549,0ZM594.937,417.194l-8.1761,0c0,1.57719 0.831317,2.43343 2.43343,2.43343c0.833097,0 1.43122,-0.277699 1.85845,-1.00399l3.7347,0c-0.617703,2.58296 -3.07249,3.75784 -5.57178,3.75784c-3.62967,0 -6.33902,-2.04892 -6.33902,-5.82812c0,-3.64925 2.49751,-5.84948 6.0631,-5.84948c3.80056,0 5.99367,2.34976 5.99367,6.08446l0.00356025,0.405868Z" style="fill:#000;fill-rule:nonzero;"/><path d="M601.011,412.476l0.0427229,0c0.895402,-1.32441 1.98662,-1.773 3.5015,-1.773c2.9461,0 4.12098,1.85667 4.12098,4.54821l0,6.76803l-3.89135,0l0,-5.34037c0,-1.04315 0.176232,-2.87668 -1.74452,-2.87668c-1.58609,0 -2.03468,1.16954 -2.03468,2.54023l0,5.67325l-3.88601,0l0,-10.9478l3.88601,0l0.00534037,1.40808Z" style="fill:#000;fill-rule:nonzero;"/><path d="M614.879,416.552c0,1.3885 0.923884,2.45479 2.49751,2.45479c1.57541,0 2.49929,-1.06985 2.49929,-2.45479c0,-1.34399 -0.923884,-2.47793 -2.49929,-2.47793c-1.57363,0 -2.49751,1.13394 -2.49751,2.47793M619.745,420.802l-0.0409428,0c-0.683567,1.08943 -2.02934,1.57897 -3.30569,1.57897c-3.24338,0 -5.52906,-2.70579 -5.52906,-5.85126c0,-3.1348 2.24829,-5.82278 5.48812,-5.82278c1.25855,0 2.58296,0.471732 3.39291,1.43478l0,-7.8361l3.88779,0l0,17.7211l-3.88779,0l-0.00534037,-1.22472Z" style="fill:#000;fill-rule:nonzero;"/><path d="M637.478,416.552c0,1.3885 0.918543,2.45479 2.49751,2.45479c1.57897,0 2.49395,-1.06985 2.49395,-2.45479c0,-1.34399 -0.918543,-2.47793 -2.49395,-2.47793c-1.57897,0 -2.49751,1.13394 -2.49751,2.47793M646.232,422.016l-3.88779,0l0,-1.21938l-0.0409428,0c-0.683567,1.08943 -2.02934,1.58431 -3.30925,1.58431c-3.23982,0 -5.5255,-2.71113 -5.5255,-5.85126c0,-3.13836 2.24295,-5.82812 5.48812,-5.82812c1.25855,0 2.58296,0.471732 3.39291,1.43122l0,-1.06807l3.88779,0l-0.00534037,10.9513Z" style="fill:#000;fill-rule:nonzero;"/><path d="M652.925,411.066l0,5.85126c0,1.38494 0.341784,2.36934 1.94923,2.36934c1.59677,0 1.94211,-0.984408 1.94211,-2.36934l0,-5.85126l3.88601,0l0,6.59713c0,3.60831 -2.54201,4.71732 -5.82278,4.71732c-3.29501,0 -5.8299,-1.10902 -5.8299,-4.71732l0,-6.59713l3.87533,0Z" style="fill:#000;fill-rule:nonzero;"/><path d="M667.856,422.016l-3.89135,0l0,-7.75065l-1.26033,0l0,-3.20244l1.26033,0l0,-3.29145l3.89135,0l0,3.29145l2.19311,0l0,3.20244l-2.19311,0l0,7.75065Z" style="fill:#000;fill-rule:nonzero;"/><path d="M675.09,416.552c0,1.3885 0.923884,2.45479 2.49751,2.45479c1.57541,0 2.49395,-1.06985 2.49395,-2.45479c0,-1.34399 -0.918543,-2.47793 -2.49395,-2.47793c-1.57363,0 -2.49751,1.13394 -2.49751,2.47793M684.184,416.552c0,3.71512 -3.07783,5.82812 -6.59713,5.82812c-3.49972,0 -6.59713,-2.09164 -6.59713,-5.82812c0,-3.73648 3.07605,-5.84948 6.59713,-5.84948c3.52464,0 6.59713,2.11301 6.59713,5.84948" style="fill:#000;fill-rule:nonzero;"/><path d="M690.21,412.431l0.0427229,0c0.918543,-1.2176 2.04536,-1.7285 3.45344,-1.7285c1.58075,0 2.9461,0.640844 3.74004,2.09164c0.747651,-1.36535 2.21803,-2.09164 3.71512,-2.09164c2.77699,0 3.73826,1.81572 3.73826,4.33638l0,6.98164l-3.88779,0l0,-5.23c0,-1.13216 0.0391627,-2.98705 -1.60033,-2.98705c-1.79258,0 -1.85667,1.684 -1.85667,2.98705l0,5.23l-3.88601,0l0,-5.23c0,-1.21938 0,-3.07605 -1.73384,-3.07605c-1.73028,0 -1.73028,1.85667 -1.73028,3.07605l0,5.23l-3.88601,0l0,-10.9513l3.88601,0l0.00534037,1.36179Z" style="fill:#000;fill-rule:nonzero;"/><path d="M711.042,416.552c0,1.3885 0.918543,2.45479 2.49751,2.45479c1.57897,0 2.49395,-1.06985 2.49395,-2.45479c0,-1.34399 -0.918543,-2.47793 -2.49395,-2.47793c-1.57897,0 -2.49751,1.13394 -2.49751,2.47793M719.796,422.016l-3.89313,0l0,-1.21938l-0.0356025,0c-0.683567,1.08943 -2.02934,1.58431 -3.30925,1.58431c-3.23982,0 -5.5255,-2.71113 -5.5255,-5.85126c0,-3.13836 2.24295,-5.82812 5.48812,-5.82812c1.25855,0 2.58296,0.471732 3.38757,1.43122l0,-1.06807l3.89313,0l-0.00534037,10.9513Z" style="fill:#000;fill-rule:nonzero;"/><path d="M727.087,422.016l-3.88601,0l0,-7.75065l-1.26033,0l0,-3.20244l1.26033,0l0,-3.29145l3.88601,0l0,3.29145l2.19845,0l0,3.20244l-2.19845,0l0,7.75065Z" style="fill:#000;fill-rule:nonzero;"/><path d="M738.708,414.951c-0.192253,-1.04671 -1.15352,-1.73028 -2.19845,-1.73028c-1.13216,0 -2.07206,0.598121 -2.30704,1.73028l4.50549,0ZM742.315,417.194l-8.1761,0c0,1.57719 0.831317,2.43343 2.43343,2.43343c0.833097,0 1.43122,-0.277699 1.85845,-1.00399l3.7347,0c-0.617703,2.58296 -3.07249,3.75784 -5.57178,3.75784c-3.62967,0 -6.33902,-2.04892 -6.33902,-5.82812c0,-3.64925 2.49751,-5.84948 6.0631,-5.84948c3.80056,0 5.99367,2.34976 5.99367,6.08446l0.00356025,0.405868Z" style="fill:#000;fill-rule:nonzero;"/><path d="M747.854,416.552c0,1.3885 0.923884,2.45479 2.49751,2.45479c1.57541,0 2.49929,-1.06985 2.49929,-2.45479c0,-1.34399 -0.923884,-2.47793 -2.49929,-2.47793c-1.57363,0 -2.49751,1.13394 -2.49751,2.47793M752.721,420.802l-0.0409428,0c-0.683567,1.08943 -2.02934,1.57897 -3.30569,1.57897c-3.24338,0 -5.52906,-2.70579 -5.52906,-5.85126c0,-3.1348 2.24295,-5.82278 5.48812,-5.82278c1.25855,0 2.58296,0.471732 3.39291,1.43478l0,-7.8361l3.88779,0l0,17.7211l-3.88779,0l-0.00534037,-1.22472Z" style="fill:#000;fill-rule:nonzero;"/><path d="M573.937,441.34l0.0427229,0c0.745871,-1.34577 2.02756,-1.94211 3.54422,-1.94211l0.747651,0l0,3.73648c-0.534037,-0.299061 -1.04671,-0.361365 -1.64483,-0.361365c-2.15573,0 -2.69511,1.42766 -2.69511,3.30747l0,4.41826l-3.88601,0l0,-10.9531l3.88601,0l0.00534037,1.79436Z" style="fill:#000;fill-rule:nonzero;"/><path d="M587.866,443.433c-0.186913,-1.04671 -1.14996,-1.73028 -2.19311,-1.73028c-1.1375,0 -2.07206,0.598121 -2.31238,1.73028l4.50549,0ZM591.472,445.676l-8.1761,0c0,1.57719 0.831317,2.43343 2.42809,2.43343c0.838438,0 1.43656,-0.277699 1.85845,-1.00399l3.74004,0c-0.623043,2.58296 -3.07783,3.75784 -5.57178,3.75784c-3.62967,0 -6.3408,-2.04892 -6.3408,-5.82812c0,-3.64925 2.49751,-5.84948 6.0631,-5.84948c3.80056,0 5.99901,2.34976 5.99901,6.08446l0,0.405868Z" style="fill:#000;fill-rule:nonzero;"/><path d="M597.545,440.913l0.0373826,0c0.923884,-1.2176 2.0507,-1.7285 3.45878,-1.7285c1.58075,0 2.9461,0.640844 3.73648,2.09164c0.745871,-1.36535 2.22159,-2.09164 3.71334,-2.09164c2.78233,0 3.7436,1.81572 3.7436,4.33638l0,6.98164l-3.89313,0l0,-5.23c0,-1.13216 0.0445031,-2.98705 -1.59499,-2.98705c-1.79258,0 -1.85667,1.684 -1.85667,2.98705l0,5.23l-3.89135,0l0,-5.23c0,-1.21938 0,-3.07605 -1.7285,-3.07605c-1.73028,0 -1.73028,1.85667 -1.73028,3.07605l0,5.23l-3.88957,0l0,-10.9513l3.88957,0l0.00534037,1.36179Z" style="fill:#000;fill-rule:nonzero;"/><path d="M618.954,450.497l-3.88601,0l0,-10.9513l3.88601,0l0,10.9513ZM619.187,435.341c0,1.19446 -0.980848,2.17709 -2.17709,2.17709c-1.19446,0 -2.17709,-0.982628 -2.17709,-2.17709c0,-1.19624 0.982628,-2.17887 2.17709,-2.17887c1.19624,0.00178012 2.17709,0.982628 2.17709,2.17887" style="fill:#000;fill-rule:nonzero;"/><path d="M625.671,440.958l0.0373826,0c0.895402,-1.32441 1.98662,-1.773 3.50684,-1.773c2.94254,0 4.11564,1.85667 4.11564,4.54821l0,6.76803l-3.88601,0l0,-5.34037c0,-1.04315 0.170892,-2.87668 -1.74986,-2.87668c-1.58075,0 -2.02934,1.16954 -2.02934,2.54023l0,5.67325l-3.88957,0l0,-10.9478l3.88957,0l0.00534037,1.40808Z" style="fill:#000;fill-rule:nonzero;"/><path d="M639.541,445.034c0,1.3885 0.918543,2.45479 2.49751,2.45479c1.57897,0 2.49395,-1.06985 2.49395,-2.45479c0,-1.34399 -0.918543,-2.47793 -2.49395,-2.47793c-1.57897,0 -2.49751,1.13394 -2.49751,2.47793M644.408,449.284l-0.0356025,0c-0.683567,1.08943 -2.02934,1.57897 -3.31103,1.57897c-3.23804,0 -5.52372,-2.70579 -5.52372,-5.85126c0,-3.1348 2.24295,-5.82278 5.48812,-5.82278c1.25855,0 2.58296,0.471732 3.39291,1.43478l0,-7.8361l3.88779,0l0,17.7211l-3.88779,0l0,-1.22116l-0.0106807,-0.00356025Z" style="fill:#000;fill-rule:nonzero;"/><path d="M658.864,443.433c-0.186913,-1.04671 -1.14996,-1.73028 -2.19311,-1.73028c-1.13572,0 -2.07206,0.598121 -2.30704,1.73028l4.50015,0ZM662.47,445.676l-8.1761,0c0,1.57719 0.831317,2.43343 2.43343,2.43343c0.833097,0 1.43122,-0.277699 1.85845,-1.00399l3.7347,0c-0.617703,2.58296 -3.07249,3.75784 -5.57178,3.75784c-3.62967,0 -6.3408,-2.04892 -6.3408,-5.82812c0,-3.64925 2.49751,-5.84948 6.0631,-5.84948c3.80056,0 5.99901,2.34976 5.99901,6.08446l0,0.405868Z" style="fill:#000;fill-rule:nonzero;"/><path d="M668.543,441.34l0.0373826,0c0.749432,-1.34577 2.0329,-1.94211 3.54422,-1.94211l0.747651,0l0,3.73648c-0.534037,-0.299061 -1.04671,-0.361365 -1.64305,-0.361365c-2.15751,0 -2.69155,1.42766 -2.69155,3.30747l0,4.41826l-3.88957,0l0,-10.9531l3.88957,0l0.00534037,1.79436Z" style="fill:#000;fill-rule:nonzero;"/><path d="M681.68,442.366c-0.598121,-0.320422 -1.43122,-0.534037 -2.09164,-0.534037c-0.448591,0 -1.22116,0.194033 -1.22116,0.745871c0,0.747651 1.22116,0.856239 1.74986,0.961266c1.81572,0.363145 3.18108,1.2176 3.18108,3.24516c0,2.8838 -2.63102,4.07826 -5.16592,4.07826c-1.55939,0 -3.09563,-0.448591 -4.41648,-1.26211l1.40986,-2.70935c0.785034,0.555398 2.11479,1.1108 3.07427,1.1108c0.491314,0 1.2176,-0.234976 1.2176,-0.834877c0,-0.852679 -1.2176,-0.893622 -2.42987,-1.21938c-1.22116,-0.320422 -2.43343,-0.918543 -2.43343,-2.87846c0,-2.69333 2.43343,-3.88957 4.82591,-3.88957c1.23719,0 2.47615,0.188693 3.60653,0.703148l-1.30661,2.48327Z" style="fill:#000;fill-rule:nonzero;"/><path d="M696.806,445.034c0,1.3885 0.918543,2.45479 2.49751,2.45479c1.57897,0 2.49395,-1.06985 2.49395,-2.45479c0,-1.34399 -0.918543,-2.47793 -2.49395,-2.47793c-1.57897,0 -2.49751,1.13394 -2.49751,2.47793M705.56,450.498l-3.88779,0l0,-1.21938l-0.0409428,0c-0.683567,1.08943 -2.02934,1.58431 -3.30925,1.58431c-3.23982,0 -5.5255,-2.71113 -5.5255,-5.85126c0,-3.13836 2.24295,-5.82812 5.48812,-5.82812c1.25855,0 2.58296,0.471732 3.39291,1.43122l0,-1.06807l3.88779,0l-0.00534037,10.9513Z" style="fill:#000;fill-rule:nonzero;"/><path d="M712.312,440.958l0.0427229,0c0.895402,-1.32441 1.98128,-1.773 3.5015,-1.773c2.94254,0 4.11564,1.85667 4.11564,4.54821l0,6.76803l-3.88601,0l0,-5.34037c0,-1.04315 0.170892,-2.87668 -1.74986,-2.87668c-1.58075,0 -2.02934,1.16954 -2.02934,2.54023l0,5.67325l-3.88957,0l0,-10.9478l3.88957,0l0.00534037,1.40808Z" style="fill:#000;fill-rule:nonzero;"/><path d="M726.18,445.034c0,1.3885 0.918543,2.45479 2.49751,2.45479c1.57897,0 2.49395,-1.06985 2.49395,-2.45479c0,-1.34399 -0.918543,-2.47793 -2.49395,-2.47793c-1.57897,0 -2.49751,1.13394 -2.49751,2.47793M731.046,449.284l-0.0409428,0c-0.683567,1.08943 -2.02934,1.57897 -3.30925,1.57897c-3.23982,0 -5.5255,-2.70579 -5.5255,-5.85126c0,-3.1348 2.24295,-5.82278 5.48812,-5.82278c1.25855,0 2.58296,0.471732 3.39291,1.43478l0,-7.8361l3.88779,0l0,17.7211l-3.88779,0l-0.00534037,-1.22472Z" style="fill:#000;fill-rule:nonzero;"/><path d="M748.781,445.034c0,1.3885 0.918543,2.45479 2.49217,2.45479c1.58431,0 2.49929,-1.06985 2.49929,-2.45479c0,-1.34399 -0.918543,-2.47793 -2.49929,-2.47793c-1.57363,0 -2.49217,1.13394 -2.49217,2.47793M757.535,450.498l-3.89313,0l0,-1.21938l-0.0356025,0c-0.683567,1.08943 -2.03468,1.58431 -3.30925,1.58431c-3.24516,0 -5.5255,-2.71113 -5.5255,-5.85126c0,-3.13836 2.24295,-5.82812 5.48812,-5.82812c1.25855,0 2.57762,0.471732 3.38757,1.43122l0,-1.06807l3.89313,0l-0.00534037,10.9513Z" style="fill:#000;fill-rule:nonzero;"/><path d="M763.785,445.034c0,1.3885 0.918543,2.45479 2.49751,2.45479c1.57897,0 2.49395,-1.06985 2.49395,-2.45479c0,-1.34399 -0.918543,-2.47793 -2.49395,-2.47793c-1.57897,0 -2.49751,1.13394 -2.49751,2.47793M768.652,449.284l-0.0409428,0c-0.683567,1.08943 -2.02934,1.57897 -3.30925,1.57897c-3.23982,0 -5.5255,-2.70579 -5.5255,-5.85126c0,-3.1348 2.24295,-5.82278 5.48812,-5.82278c1.25855,0 2.58296,0.471732 3.39291,1.43478l0,-7.8361l3.88779,0l0,17.7211l-3.88779,0l-0.00534037,-1.22472Z" style="fill:#000;fill-rule:nonzero;"/><path d="M780.854,445.161l2.60432,-5.61273l4.35418,0l-5.72131,10.9531l-2.48149,0l-5.74268,-10.9531l4.35418,0l2.6328,5.61273Z" style="fill:#000;fill-rule:nonzero;"/><path d="M793.094,450.497l-3.88601,0l0,-10.9513l3.88601,0l0,10.9513ZM793.329,435.341c0,1.19446 -0.982628,2.17709 -2.17887,2.17709c-1.19446,0 -2.17709,-0.982628 -2.17709,-2.17709c0,-1.19624 0.982628,-2.17887 2.17709,-2.17887c1.19624,0.00178012 2.17887,0.982628 2.17887,2.17887" style="fill:#000;fill-rule:nonzero;"/><path d="M803.853,443.112c-0.57676,-0.427229 -1.26033,-0.770793 -2.0062,-0.770793c-1.4953,0 -2.67018,1.15174 -2.67018,2.67018c0,1.58075 1.13216,2.68977 2.73249,2.68977c0.683567,0 1.43122,-0.277699 1.94389,-0.745871l0,3.28789c-0.852679,0.427229 -1.79436,0.619483 -2.73249,0.619483c-3.23982,0 -5.95807,-2.40851 -5.95807,-5.72131c0,-3.52286 2.69155,-5.95629 6.12896,-5.95629c0.895402,0 1.79258,0.213615 2.55804,0.639064l0.00356025,3.28789Z" style="fill:#000;fill-rule:nonzero;"/><path d="M814.155,443.433c-0.192253,-1.04671 -1.15352,-1.73028 -2.19845,-1.73028c-1.13216,0 -2.07206,0.598121 -2.30704,1.73028l4.50549,0ZM817.761,445.676l-8.18144,0c0,1.57719 0.836658,2.43343 2.43343,2.43343c0.833097,0 1.43122,-0.277699 1.85845,-1.00399l3.74004,0c-0.623043,2.58296 -3.07783,3.75784 -5.57178,3.75784c-3.62967,0 -6.3408,-2.04892 -6.3408,-5.82812c0,-3.64925 2.49751,-5.84948 6.0631,-5.84948c3.80056,0 5.99901,2.34976 5.99901,6.08446l0,0.405868Z" style="fill:#000;fill-rule:nonzero;"/><path d="M388.001,8.45594l0.405868,0c1.36713,0 2.90516,-0.256338 2.90516,-2.0062c0,-1.74986 -1.53803,-2.0062 -2.90516,-2.0062l-0.405868,0l0,4.0124ZM397.202,17.337l-5.20864,0l-3.95009,-6.19127l-0.0427229,0l0,6.19127l-4.18507,0l0,-16.0976l6.25535,0c3.18108,0 5.59493,1.51666 5.59493,4.9523c0,2.22159 -1.23719,4.14235 -3.52286,4.54821l5.05911,6.59713Z" style="fill:#000;fill-rule:nonzero;"/><path d="M405.926,10.2699c-0.192253,-1.04671 -1.15352,-1.73028 -2.19845,-1.73028c-1.13216,0 -2.07206,0.598121 -2.30704,1.73028l4.50549,0ZM409.533,12.5111l-8.17788,0c0,1.57897 0.833097,2.43343 2.43343,2.43343c0.833097,0 1.43122,-0.277699 1.85845,-1.00221l3.73648,0c-0.619483,2.58296 -3.07427,3.75784 -5.57178,3.75784c-3.62967,0 -6.3408,-2.04892 -6.3408,-5.82812c0,-3.65103 2.49751,-5.84948 6.0631,-5.84948c3.80056,0 5.99901,2.34798 5.99901,6.08446l0,0.404088Z" style="fill:#000;fill-rule:nonzero;"/><path d="M415.02,11.7865c0,1.38672 0.918543,2.45479 2.49751,2.45479c1.57897,0 2.49751,-1.06807 2.49751,-2.45479c0,-1.34577 -0.918543,-2.47793 -2.49751,-2.47793c-1.57897,0 -2.49751,1.13216 -2.49751,2.47793M423.773,16.2689c0,4.65324 -2.30526,6.53305 -6.3408,6.53305c-2.52065,0 -5.89399,-1.30127 -6.23399,-4.18507l4.35418,0c0.106807,0.384506 0.384506,0.662206 0.72451,0.833097c0.341784,0.170892 0.747651,0.256338 1.1108,0.256338c2.09342,0 2.49751,-1.36713 2.49751,-3.13836l0,-0.512675c-1.00221,1.00399 -2.02934,1.4953 -3.48014,1.4953c-3.20244,0 -5.40089,-2.43343 -5.40089,-5.59493c0,-3.20244 2.26254,-5.93493 5.61451,-5.93493c1.28169,0 2.45479,0.427229 3.2238,1.51666l0.0427229,0l0,-1.15352l3.88601,0l0.00178012,9.88502Z" style="fill:#000;fill-rule:nonzero;"/><path d="M430.462,17.3366l-3.88601,0l0,-10.9531l3.88601,0l0,10.9531ZM430.697,2.17887c0,1.19446 -0.982628,2.17709 -2.17887,2.17709c-1.19446,0 -2.17709,-0.982628 -2.17709,-2.17709c0,-1.19624 0.982628,-2.17887 2.17709,-2.17887c1.19624,0 2.17887,0.982628 2.17887,2.17887" style="fill:#000;fill-rule:nonzero;"/><path d="M440.383,9.20341c-0.598121,-0.320422 -1.43122,-0.534037 -2.09164,-0.534037c-0.448591,0 -1.2176,0.192253 -1.2176,0.745871c0,0.747651 1.2176,0.854459 1.74986,0.961266c1.81572,0.363145 3.18108,1.2176 3.18108,3.24516c0,2.88202 -2.62746,4.07826 -5.16592,4.07826c-1.55939,0 -3.09563,-0.448591 -4.42004,-1.26033l1.40986,-2.71113c0.788594,0.555398 2.11479,1.1108 3.07427,1.1108c0.491314,0 1.2176,-0.234976 1.2176,-0.833097c0,-0.852679 -1.2176,-0.895402 -2.43343,-1.2176c-1.2176,-0.320422 -2.43343,-0.918543 -2.43343,-2.88202c0,-2.68977 2.43343,-3.88601 4.82591,-3.88601c1.23719,0 2.47615,0.192253 3.60653,0.704929l-1.30305,2.47793Z" style="fill:#000;fill-rule:nonzero;"/><path d="M448.589,17.3364l-3.88601,0l0,-7.75065l-1.26033,0l0,-3.20244l1.26033,0l0,-3.28789l3.88601,0l0,3.28789l2.19845,0l0,3.20244l-2.19845,0l0,7.75065Z" style="fill:#000;fill-rule:nonzero;"/><path d="M460.21,10.2699c-0.192253,-1.04671 -1.15352,-1.73028 -2.19845,-1.73028c-1.13216,0 -2.07206,0.598121 -2.30704,1.73028l4.50549,0ZM463.816,12.5111l-8.17788,0c0,1.57897 0.833097,2.43343 2.43343,2.43343c0.833097,0 1.43122,-0.277699 1.85845,-1.00221l3.73648,0c-0.619483,2.58296 -3.07427,3.75784 -5.57178,3.75784c-3.62967,0 -6.3408,-2.04892 -6.3408,-5.82812c0,-3.65103 2.49751,-5.84948 6.0631,-5.84948c3.80056,0 5.99901,2.34798 5.99901,6.08446l0,0.404088Z" style="fill:#000;fill-rule:nonzero;"/><path d="M469.888,8.1777l0.0427229,0c0.745871,-1.34577 2.02756,-1.94211 3.54244,-1.94211l0.747651,0l0,3.73648c-0.534037,-0.299061 -1.04671,-0.363145 -1.64483,-0.363145c-2.15573,0 -2.68977,1.43122 -2.68977,3.30925l0,4.41826l-3.88601,0l0,-10.9531l3.88601,0l0.00178012,1.79436Z" style="fill:#000;fill-rule:nonzero;"/><path d="M487.748,7.79355l0.0427229,0c0.895402,-1.32441 1.98306,-1.773 3.5015,-1.773c2.9461,0 4.11742,1.85667 4.11742,4.54821l0,6.76803l-3.88779,0l0,-5.33859c0,-1.04493 0.172672,-2.88202 -1.74986,-2.88202c-1.57897,0 -2.02756,1.17488 -2.02756,2.54023l0,5.67859l-3.88601,0l0,-10.9531l3.88601,0l0.00356025,1.41164Z" style="fill:#000;fill-rule:nonzero;"/><path d="M505.971,10.2699c-0.192253,-1.04671 -1.15174,-1.73028 -2.19845,-1.73028c-1.13216,0 -2.07206,0.598121 -2.30526,1.73028l4.50371,0ZM509.578,12.5111l-8.1761,0c0,1.57897 0.829537,2.43343 2.42809,2.43343c0.833097,0 1.43122,-0.277699 1.85845,-1.00221l3.74004,0c-0.623043,2.58296 -3.07783,3.75784 -5.57178,3.75784c-3.63145,0 -6.34258,-2.04892 -6.34258,-5.82812c0,-3.65103 2.49573,-5.84948 6.0631,-5.84948c3.80056,0 5.99901,2.34798 5.99901,6.08446l0.00178012,0.404088Z" style="fill:#000;fill-rule:nonzero;"/><path d="M516.72,12.3204l2.75385,-5.93493l2.30526,0l2.75563,5.93493l2.75385,-5.93493l4.2901,0l-5.72131,10.9531l-2.51887,0l-2.70757,-5.99901l-2.71113,5.99901l-2.51887,0l-5.72131,-10.9531l4.31324,0l2.72715,5.93493Z" style="fill:#000;fill-rule:nonzero;"/><path d="M544.36,11.8718c0,1.3885 0.918543,2.45479 2.49217,2.45479c1.58431,0 2.49929,-1.06807 2.49929,-2.45479c0,-1.34399 -0.920323,-2.47615 -2.49929,-2.47615c-1.57363,-0.00178012 -2.49217,1.13038 -2.49217,2.47615M544.487,7.62266l0.0445031,0c0.703148,-1.08943 2.02756,-1.60033 3.30925,-1.60033c3.26652,0 5.5255,2.73249 5.5255,5.87084c0,3.15972 -2.24117,5.80676 -5.48634,5.80676c-1.25855,0 -2.55982,-0.448591 -3.39647,-1.40986l0,6.51169l-3.88423,0l0,-16.4181l3.88423,0l0.00356025,1.23897Z" style="fill:#000;fill-rule:nonzero;"/><path d="M559.481,8.1777l0.0427229,0c0.745871,-1.34577 2.02756,-1.94211 3.54422,-1.94211l0.747651,0l0,3.73648c-0.534037,-0.299061 -1.04671,-0.363145 -1.64305,-0.363145c-2.15751,0 -2.69689,1.43122 -2.69689,3.30925l0,4.41826l-3.88601,0l0,-10.9531l3.88601,0l0.00534037,1.79436Z" style="fill:#000;fill-rule:nonzero;"/><path d="M573.411,10.2699c-0.186913,-1.04671 -1.14996,-1.73028 -2.19311,-1.73028c-1.1375,0 -2.07206,0.598121 -2.30704,1.73028l4.50015,0ZM577.017,12.5111l-8.1761,0c0,1.57897 0.831317,2.43343 2.42809,2.43343c0.838438,0 1.43656,-0.277699 1.86201,-1.00221l3.73648,0c-0.617703,2.58296 -3.07783,3.75784 -5.57178,3.75784c-3.62967,0 -6.3408,-2.04892 -6.3408,-5.82812c0,-3.65103 2.49751,-5.84948 6.0631,-5.84948c3.80056,0 5.99901,2.34798 5.99901,6.08446l0,0.404088Z" style="fill:#000;fill-rule:nonzero;"/><path d="M582.503,11.7865c0,1.38672 0.918543,2.45479 2.49751,2.45479c1.57897,0 2.49395,-1.06807 2.49395,-2.45479c0,-1.34577 -0.918543,-2.47793 -2.49395,-2.47793c-1.57897,0 -2.49751,1.13216 -2.49751,2.47793M591.255,16.2689c0,4.65324 -2.30526,6.53305 -6.34258,6.53305c-2.51887,0 -5.89221,-1.30127 -6.23221,-4.18507l4.35418,0c0.105027,0.384506 0.384506,0.662206 0.72629,0.833097c0.336443,0.170892 0.745871,0.256338 1.10902,0.256338c2.09342,0 2.49217,-1.36713 2.49217,-3.13836l0,-0.512675c-0.998649,1.00399 -2.02756,1.4953 -3.47836,1.4953c-3.20244,0 -5.39733,-2.43343 -5.39733,-5.59493c0,-3.20244 2.26254,-5.93493 5.61095,-5.93493c1.28525,0 2.45301,0.427229 3.22558,1.51666l0.0373826,0l0,-1.15352l3.89135,0l0.00356025,9.88502Z" style="fill:#000;fill-rule:nonzero;"/><path d="M597.934,7.79355l0.0373826,0c0.900742,-1.32441 1.98662,-1.773 3.50684,-1.773c2.94254,0 4.11564,1.85667 4.11564,4.54821l0,6.76803l-3.88601,0l0,-5.33859c0,-1.04493 0.170892,-2.88202 -1.74986,-2.88202c-1.58075,0 -2.02934,1.17488 -2.02934,2.54023l0,5.67859l-3.88957,0l0,-10.9531l3.88957,0l0.00534037,1.41164Z" style="fill:#000;fill-rule:nonzero;"/><path d="M611.727,11.8718c0,1.3885 0.918543,2.45479 2.49751,2.45479c1.57897,0 2.49395,-1.06807 2.49395,-2.45479c0,-1.34399 -0.918543,-2.47615 -2.49395,-2.47615c-1.57897,0 -2.49751,1.13038 -2.49751,2.47615M620.481,17.3368l-3.89313,0l0,-1.2176l-0.0356025,0c-0.683567,1.08943 -2.02934,1.58075 -3.30925,1.58075c-3.23982,0 -5.5255,-2.71113 -5.5255,-5.85126c0,-3.13836 2.24295,-5.82812 5.48812,-5.82812c1.25855,0 2.58296,0.469952 3.38757,1.43122l0,-1.06807l3.89313,0l-0.00534037,10.9531Z" style="fill:#000;fill-rule:nonzero;"/><path d="M627.233,7.79355l0.0373826,0c0.900742,-1.32441 1.98662,-1.773 3.50684,-1.773c2.94254,0 4.11564,1.85667 4.11564,4.54821l0,6.76803l-3.88601,0l0,-5.33859c0,-1.04493 0.170892,-2.88202 -1.74986,-2.88202c-1.58075,0 -2.02934,1.17488 -2.02934,2.54023l0,5.67859l-3.88957,0l0,-10.9531l3.88957,0l0.00534037,1.41164Z" style="fill:#000;fill-rule:nonzero;"/><path d="M645.662,9.9491c-0.571419,-0.427229 -1.26033,-0.769013 -2.00798,-0.769013c-1.49352,0 -2.6684,1.15352 -2.6684,2.6684c0,1.58075 1.1375,2.68977 2.73249,2.68977c0.683567,0 1.43122,-0.277699 1.94389,-0.745871l0,3.28789c-0.852679,0.427229 -1.79436,0.619483 -2.72715,0.619483c-3.24516,0 -5.96341,-2.41207 -5.96341,-5.72131c0,-3.52286 2.69689,-5.95629 6.12896,-5.95629c0.895402,0 1.79258,0.213615 2.55804,0.640844l0.00356025,3.28611Z" style="fill:#000;fill-rule:nonzero;"/><path d="M652.223,17.3366l-3.89135,0l0,-10.9531l3.89135,0l0,10.9531ZM652.458,2.17887c0,1.19446 -0.982628,2.17709 -2.17887,2.17709c-1.19446,0 -2.18065,-0.982628 -2.18065,-2.17709c0,-1.19624 0.986188,-2.17887 2.18065,-2.17887c1.19624,0 2.17887,0.982628 2.17887,2.17887" style="fill:#000;fill-rule:nonzero;"/><path d="M662.738,10.2699c-0.192253,-1.04671 -1.15352,-1.73028 -2.19845,-1.73028c-1.13216,0 -2.07206,0.598121 -2.30704,1.73028l4.50549,0ZM666.345,12.5111l-8.1761,0c0,1.57897 0.831317,2.43343 2.43343,2.43343c0.833097,0 1.43122,-0.277699 1.85845,-1.00221l3.7347,0c-0.617703,2.58296 -3.07249,3.75784 -5.57178,3.75784c-3.62967,0 -6.33902,-2.04892 -6.33902,-5.82812c0,-3.65103 2.49217,-5.84948 6.05776,-5.84948c3.8059,0 5.99901,2.34798 5.99901,6.08446l0.00356025,0.404088Z" style="fill:#000;fill-rule:nonzero;"/><path d="M675.505,9.20341c-0.598121,-0.320422 -1.43656,-0.534037 -2.09164,-0.534037c-0.453931,0 -1.22116,0.192253 -1.22116,0.745871c0,0.747651 1.22116,0.854459 1.74986,0.961266c1.81572,0.363145 3.18108,1.2176 3.18108,3.24516c0,2.88202 -2.63102,4.07826 -5.16592,4.07826c-1.55939,0 -3.09563,-0.448591 -4.42182,-1.26033l1.40986,-2.71113c0.790374,0.555398 2.11657,1.1108 3.07961,1.1108c0.485973,0 1.2176,-0.234976 1.2176,-0.833097c0,-0.852679 -1.2176,-0.895402 -2.43521,-1.2176c-1.21582,-0.320422 -2.42809,-0.918543 -2.42809,-2.88202c0,-2.68977 2.42809,-3.88601 4.82591,-3.88601c1.23184,0 2.47615,0.192253 3.60119,0.704929l-1.30127,2.47793Z" style="fill:#000;fill-rule:nonzero;"/><path d="M392.656,33.8634c-0.769013,-0.640844 -1.74986,-1.06807 -2.77521,-1.06807c-0.769013,0 -1.79436,0.448591 -1.79436,1.34399c0,0.939905 1.13216,1.30305 1.85845,1.53803l1.06807,0.320422c2.24117,0.662206 3.96967,1.79258 3.96967,4.39868c0,1.60033 -0.384506,3.24516 -1.66619,4.3346c-1.25855,1.06807 -2.9461,1.51666 -4.56779,1.51666c-2.02934,0 -4.01418,-0.683567 -5.65901,-1.83531l1.79436,-3.37333c1.04671,0.918543 2.2839,1.66619 3.71512,1.66619c0.982628,0 2.02934,-0.491314 2.02934,-1.62347c0,-1.17488 -1.64483,-1.57897 -2.54201,-1.83531c-2.62568,-0.747651 -4.35418,-1.43122 -4.35418,-4.54821c0,-3.26652 2.3284,-5.40089 5.55042,-5.40089c1.62169,0 3.60831,0.512675 5.03775,1.32441l-1.66441,3.2416Z" style="fill:#000;fill-rule:nonzero;"/><path d="M405.01,38.7518c-0.192253,-1.04671 -1.15352,-1.73028 -2.19845,-1.73028c-1.13216,0 -2.07206,0.598121 -2.30704,1.73028l4.50549,0ZM408.618,40.993l-8.17788,0c0,1.57897 0.833097,2.43343 2.43343,2.43343c0.833097,0 1.43122,-0.277699 1.85845,-1.00221l3.73648,0c-0.619483,2.58296 -3.07427,3.75784 -5.57178,3.75784c-3.62967,0 -6.3408,-2.04892 -6.3408,-5.82812c0,-3.65103 2.49751,-5.84948 6.0631,-5.84948c3.80056,0 5.99901,2.34798 5.99901,6.08446l0,0.404088Z" style="fill:#000;fill-rule:nonzero;"/><path d="M414.692,36.2755l0.0427229,0c0.895402,-1.32441 1.98484,-1.773 3.5015,-1.773c2.9461,0 4.1192,1.85667 4.1192,4.54821l0,6.76803l-3.88601,0l0,-5.33859c0,-1.04493 0.170892,-2.88202 -1.74986,-2.88202c-1.58075,0 -2.02934,1.17488 -2.02934,2.54023l0,5.67859l-3.88601,0l0,-10.9531l3.88601,0l0.00178012,1.41164Z" style="fill:#000;fill-rule:nonzero;"/><path d="M428.559,40.3538c0,1.3885 0.918543,2.45479 2.49751,2.45479c1.57897,0 2.49751,-1.06807 2.49751,-2.45479c0,-1.34399 -0.918543,-2.47615 -2.49751,-2.47615c-1.57897,0 -2.49751,1.13038 -2.49751,2.47615M433.426,44.6011l-0.0409428,0c-0.683567,1.08943 -2.02934,1.58075 -3.30925,1.58075c-3.24338,0 -5.52906,-2.71113 -5.52906,-5.85126c0,-3.13836 2.24295,-5.82812 5.48812,-5.82812c1.25855,0 2.58296,0.469952 3.39291,1.43122l0,-7.8361l3.88779,0l0,17.7211l-3.88779,0l-0.00178012,-1.2176Z" style="fill:#000;fill-rule:nonzero;"/><path d="M453.315,40.4798l2.60432,-5.61451l4.35418,0l-5.72131,10.9531l-2.47793,0l-5.74268,-10.9531l4.35418,0l2.62924,5.61451Z" style="fill:#000;fill-rule:nonzero;"/><path d="M465.555,45.8186l-3.88601,0l0,-10.9531l3.88601,0l0,10.9531ZM465.79,30.6608c0,1.19446 -0.982628,2.17709 -2.17887,2.17709c-1.19446,0 -2.17709,-0.982628 -2.17709,-2.17709c0,-1.19624 0.982628,-2.17887 2.17709,-2.17887c1.19624,0 2.17887,0.982628 2.17887,2.17887" style="fill:#000;fill-rule:nonzero;"/><path d="M475.478,37.6854c-0.598121,-0.320422 -1.43122,-0.534037 -2.09164,-0.534037c-0.448591,0 -1.2176,0.192253 -1.2176,0.745871c0,0.747651 1.2176,0.854459 1.74986,0.961266c1.81572,0.363145 3.18108,1.2176 3.18108,3.24516c0,2.88202 -2.62746,4.07826 -5.16592,4.07826c-1.55939,0 -3.09563,-0.448591 -4.42004,-1.26033l1.40986,-2.71113c0.788594,0.555398 2.11479,1.1108 3.07427,1.1108c0.491314,0 1.2176,-0.234976 1.2176,-0.833097c0,-0.852679 -1.2176,-0.895402 -2.43343,-1.2176c-1.2176,-0.320422 -2.43343,-0.918543 -2.43343,-2.88202c0,-2.68977 2.43343,-3.88601 4.82591,-3.88601c1.23719,0 2.47615,0.192253 3.60653,0.704929l-1.30305,2.47793Z" style="fill:#000;fill-rule:nonzero;"/><path d="M483.239,45.8186l-3.88601,0l0,-10.9531l3.88601,0l0,10.9531ZM483.474,30.6608c0,1.19446 -0.982628,2.17709 -2.17887,2.17709c-1.19446,0 -2.17709,-0.982628 -2.17709,-2.17709c0,-1.19624 0.982628,-2.17887 2.17709,-2.17887c1.19802,0 2.17887,0.982628 2.17887,2.17887" style="fill:#000;fill-rule:nonzero;"/><path d="M490.447,45.8184l-3.88601,0l0,-7.75065l-1.26033,0l0,-3.20244l1.26033,0l0,-3.28789l3.88601,0l0,3.28789l2.19845,0l0,3.20244l-2.19845,0l0,7.75065Z" style="fill:#000;fill-rule:nonzero;"/><path d="M509.97,38.4311c-0.57676,-0.427229 -1.26033,-0.769013 -2.00798,-0.769013c-1.49352,0 -2.6684,1.15352 -2.6684,2.6684c0,1.58075 1.13216,2.68977 2.73249,2.68977c0.683567,0 1.43122,-0.277699 1.94389,-0.745871l0,3.28789c-0.852679,0.427229 -1.79436,0.619483 -2.73249,0.619483c-3.24516,0 -5.95807,-2.41207 -5.95807,-5.72131c0,-3.52286 2.69155,-5.95629 6.12362,-5.95629c0.898962,0 1.79792,0.213615 2.5616,0.640844l0.00534037,3.28611Z" style="fill:#000;fill-rule:nonzero;"/><path d="M515.864,40.3538c0,1.3885 0.923884,2.45479 2.49751,2.45479c1.57541,0 2.49929,-1.06807 2.49929,-2.45479c0,-1.34399 -0.923884,-2.47615 -2.49929,-2.47615c-1.57363,0 -2.49751,1.13038 -2.49751,2.47615M524.959,40.3538c0,3.71512 -3.07249,5.82812 -6.59713,5.82812c-3.49972,0 -6.59713,-2.09342 -6.59713,-5.82812c0,-3.7347 3.07961,-5.84948 6.59713,-5.84948c3.52464,-0.00178012 6.59713,2.11301 6.59713,5.84948" style="fill:#000;fill-rule:nonzero;"/><path d="M530.985,36.2755l0.0427229,0c0.895402,-1.32441 1.98662,-1.773 3.5015,-1.773c2.9461,0 4.12098,1.85667 4.12098,4.54821l0,6.76803l-3.89135,0l0,-5.33859c0,-1.04493 0.176232,-2.88202 -1.74452,-2.88202c-1.58609,0 -2.03468,1.17488 -2.03468,2.54023l0,5.67859l-3.88601,0l0,-10.9531l3.88601,0l0.00534037,1.41164Z" style="fill:#000;fill-rule:nonzero;"/><path d="M545.796,45.8184l-3.88601,0l0,-7.75065l-1.37069,0l0,-3.20244l1.37069,0l0,-1.38672c0,-1.51666 0.0391627,-2.62568 1.1108,-3.84328c0.955926,-1.13216 2.34264,-1.74986 3.82014,-1.74986c0.598121,0 1.13216,0.106807 1.66975,0.384506l0,3.35197c-0.452151,-0.192253 -0.852679,-0.363145 -1.37069,-0.363145c-1.00043,0 -1.34577,0.598121 -1.34577,1.83709l0,1.77122l2.70757,0l0,3.20244l-2.70757,0l0.00178012,7.74887Z" style="fill:#000;fill-rule:nonzero;"/><path d="M554.044,45.8186l-3.88601,0l0,-10.9531l3.88601,0l0,10.9531ZM554.279,30.6608c0,1.19446 -0.982628,2.17709 -2.17887,2.17709c-1.19446,0 -2.17709,-0.982628 -2.17709,-2.17709c0,-1.19624 0.982628,-2.17887 2.17709,-2.17887c1.19624,0 2.17887,0.982628 2.17887,2.17887" style="fill:#000;fill-rule:nonzero;"/><path d="M560.759,36.6597l0.0373826,0c0.745871,-1.34577 2.0329,-1.94211 3.54422,-1.94211l0.747651,0l0,3.73648c-0.534037,-0.299061 -1.04671,-0.363145 -1.64483,-0.363145c-2.15573,0 -2.68977,1.43122 -2.68977,3.30925l0,4.41826l-3.88957,0l0,-10.9531l3.88957,0l0.00534037,1.79436Z" style="fill:#000;fill-rule:nonzero;"/><path d="M570.701,36.233l0.0373826,0c0.923884,-1.2176 2.0507,-1.7285 3.45878,-1.7285c1.58075,0 2.9461,0.640844 3.73648,2.09164c0.745871,-1.36713 2.22159,-2.09164 3.71334,-2.09164c2.78233,0 3.7436,1.81572 3.7436,4.3346l0,6.98164l-3.89313,0l0,-5.23c0,-1.13216 0.0445031,-2.98883 -1.59499,-2.98883c-1.79258,0 -1.85667,1.68756 -1.85667,2.98883l0,5.23l-3.89135,0l0,-5.23c0,-1.2176 0,-3.07427 -1.7285,-3.07427c-1.73028,0 -1.73028,1.85667 -1.73028,3.07427l0,5.23l-3.88957,0l0,-10.9531l3.88957,0l0.00534037,1.36535Z" style="fill:#000;fill-rule:nonzero;"/><path d="M591.532,40.3538c0,1.3885 0.918543,2.45479 2.49217,2.45479c1.58431,0 2.49929,-1.06807 2.49929,-2.45479c0,-1.34399 -0.918543,-2.47615 -2.49929,-2.47615c-1.57363,0 -2.49217,1.13038 -2.49217,2.47615M600.286,45.8188l-3.89313,0l0,-1.2176l-0.0356025,0c-0.688907,1.08943 -2.03468,1.58075 -3.30925,1.58075c-3.24516,0 -5.53084,-2.71113 -5.53084,-5.85126c0,-3.13836 2.24829,-5.82812 5.48812,-5.82812c1.25855,0 2.58296,0.469952 3.39291,1.43122l0,-1.06807l3.89313,0l-0.00534037,10.9531Z" style="fill:#000;fill-rule:nonzero;"/><path d="M607.577,45.8184l-3.88601,0l0,-7.75065l-1.26567,0l0,-3.20244l1.26567,0l0,-3.28789l3.88601,0l0,3.28789l2.19845,0l0,3.20244l-2.19845,0l0,7.75065Z" style="fill:#000;fill-rule:nonzero;"/><path d="M615.33,45.8186l-3.88601,0l0,-10.9531l3.88601,0l0,10.9531ZM615.565,30.6608c0,1.19446 -0.986188,2.17709 -2.18243,2.17709c-1.19446,0 -2.17709,-0.982628 -2.17709,-2.17709c0,-1.19624 0.982628,-2.17887 2.17709,-2.17887c1.20158,0 2.18243,0.982628 2.18243,2.17887" style="fill:#000;fill-rule:nonzero;"/><path d="M621.488,40.3538c0,1.3885 0.923884,2.45479 2.49751,2.45479c1.57541,0 2.49929,-1.06807 2.49929,-2.45479c0,-1.34399 -0.923884,-2.47615 -2.49929,-2.47615c-1.57363,0 -2.49751,1.13038 -2.49751,2.47615M630.583,40.3538c0,3.71512 -3.07427,5.82812 -6.59713,5.82812c-3.49972,0 -6.59713,-2.09342 -6.59713,-5.82812c0,-3.7347 3.07961,-5.84948 6.59713,-5.84948c3.52286,0 6.59713,2.11301 6.59713,5.84948" style="fill:#000;fill-rule:nonzero;"/><path d="M636.61,36.2755l0.0427229,0c0.895402,-1.32441 1.98662,-1.773 3.5015,-1.773c2.9461,0 4.12098,1.85667 4.12098,4.54821l0,6.76803l-3.89135,0l0,-5.33859c0,-1.04493 0.176232,-2.88202 -1.74452,-2.88202c-1.58609,0 -2.03468,1.17488 -2.03468,2.54023l0,5.67859l-3.88601,0l0,-10.9531l3.88601,0l0.00534037,1.41164Z" style="fill:#000;fill-rule:nonzero;"/><path d="M388.001,65.4199l0.405868,0c1.36713,0 2.90516,-0.256338 2.90516,-2.0062c0,-1.74986 -1.53803,-2.0062 -2.90516,-2.0062l-0.405868,0l0,4.0124ZM397.202,74.3009l-5.20864,0l-3.95009,-6.19127l-0.0427229,0l0,6.19127l-4.18507,0l0,-16.0976l6.25535,0c3.18108,0 5.59493,1.51666 5.59493,4.9523c0,2.22159 -1.23719,4.14235 -3.52286,4.54821l5.05911,6.59713Z" style="fill:#000;fill-rule:nonzero;"/><path d="M405.926,67.2338c-0.192253,-1.04671 -1.15352,-1.73028 -2.19845,-1.73028c-1.13216,0 -2.07206,0.598121 -2.30704,1.73028l4.50549,0ZM409.533,69.475l-8.17788,0c0,1.57897 0.833097,2.43343 2.43343,2.43343c0.833097,0 1.43122,-0.277699 1.85845,-1.00221l3.73648,0c-0.619483,2.58296 -3.07427,3.75784 -5.57178,3.75784c-3.62967,0 -6.3408,-2.04892 -6.3408,-5.82812c0,-3.65103 2.49751,-5.84948 6.0631,-5.84948c3.80056,0 5.99901,2.34798 5.99901,6.08446l0,0.404088Z" style="fill:#000;fill-rule:nonzero;"/><path d="M415.416,68.8357c0,1.3885 0.918543,2.45479 2.49751,2.45479c1.57897,0 2.49751,-1.06807 2.49751,-2.45479c0,-1.34399 -0.920323,-2.47615 -2.49751,-2.47615c-1.58075,-0.00178012 -2.49751,1.13038 -2.49751,2.47615M415.543,64.5866l0.0427229,0c0.704929,-1.08943 2.02934,-1.60033 3.30925,-1.60033c3.26652,0 5.52728,2.73249 5.52728,5.87084c0,3.15972 -2.24117,5.80676 -5.48634,5.80676c-1.25855,0 -2.5616,-0.448591 -3.39469,-1.40986l0,6.51169l-3.88601,0l0,-16.4181l3.88601,0l0.00178012,1.23897Z" style="fill:#000;fill-rule:nonzero;"/><path d="M430.039,68.8357c0,1.3885 0.918543,2.45479 2.49751,2.45479c1.57897,0 2.49751,-1.06807 2.49751,-2.45479c0,-1.34399 -0.918543,-2.47615 -2.49751,-2.47615c-1.57897,0 -2.49751,1.13038 -2.49751,2.47615M439.133,68.8357c0,3.71512 -3.07605,5.82812 -6.59713,5.82812c-3.5015,0 -6.59713,-2.09342 -6.59713,-5.82812c0,-3.7347 3.07605,-5.84948 6.59713,-5.84948c3.52108,0 6.59713,2.11301 6.59713,5.84948" style="fill:#000;fill-rule:nonzero;"/><path d="M445.16,65.1416l0.0427229,0c0.745871,-1.34577 2.02756,-1.94211 3.54244,-1.94211l0.747651,0l0,3.73648c-0.534037,-0.299061 -1.04671,-0.363145 -1.64305,-0.363145c-2.15751,0 -2.69155,1.43122 -2.69155,3.30925l0,4.41826l-3.88601,0l0,-10.9531l3.88601,0l0.00178012,1.79436Z" style="fill:#000;fill-rule:nonzero;"/><path d="M455.811,74.3004l-3.88601,0l0,-7.75065l-1.26033,0l0,-3.20244l1.26033,0l0,-3.28789l3.88601,0l0,3.28789l2.19845,0l0,3.20244l-2.19845,0l0,7.75065Z" style="fill:#000;fill-rule:nonzero;"/><path d="M470.805,68.8357c0,1.3885 0.918543,2.45479 2.49751,2.45479c1.57897,0 2.49751,-1.06807 2.49751,-2.45479c0,-1.34399 -0.918543,-2.47615 -2.49751,-2.47615c-1.57897,0 -2.49751,1.13038 -2.49751,2.47615M475.672,73.0831l-0.0409428,0c-0.683567,1.08943 -2.02934,1.58075 -3.30925,1.58075c-3.24338,0 -5.52906,-2.71113 -5.52906,-5.85126c0,-3.13836 2.24295,-5.82812 5.48812,-5.82812c1.25855,0 2.58296,0.469952 3.39291,1.43122l0,-7.8361l3.88779,0l0,17.7211l-3.88779,0l-0.00178012,-1.2176Z" style="fill:#000;fill-rule:nonzero;"/><path d="M485.651,68.8357c0,1.3885 0.918543,2.45479 2.49751,2.45479c1.57897,0 2.49751,-1.06807 2.49751,-2.45479c0,-1.34399 -0.920323,-2.47615 -2.49751,-2.47615c-1.57897,0 -2.49751,1.13038 -2.49751,2.47615M494.406,74.3007l-3.88779,0l0,-1.2176l-0.0409428,0c-0.683567,1.08943 -2.02934,1.58075 -3.30925,1.58075c-3.24338,0 -5.52906,-2.71113 -5.52906,-5.85126c0,-3.13836 2.24295,-5.82812 5.48812,-5.82812c1.25855,0 2.58296,0.469952 3.39291,1.43122l0,-1.06807l3.88779,0l-0.00178012,10.9531Z" style="fill:#000;fill-rule:nonzero;"/><path d="M501.158,64.7575l0.0409428,0c0.897182,-1.32441 1.98306,-1.773 3.50328,-1.773c2.9461,0 4.11564,1.85667 4.11564,4.54821l0,6.76803l-3.88601,0l0,-5.33859c0,-1.04493 0.172672,-2.88202 -1.74986,-2.88202c-1.58075,0 -2.02934,1.17488 -2.02934,2.54023l0,5.67859l-3.88957,0l0,-10.9531l3.88957,0l0.00534037,1.41164Z" style="fill:#000;fill-rule:nonzero;"/><path d="M514.973,68.7505c0,1.38672 0.923884,2.45479 2.49751,2.45479c1.57541,0 2.49929,-1.06807 2.49929,-2.45479c0,-1.34577 -0.923884,-2.47793 -2.49929,-2.47793c-1.57363,0 -2.49751,1.13216 -2.49751,2.47793M523.725,73.2328c0,4.65324 -2.30526,6.53305 -6.3408,6.53305c-2.51887,0 -5.89577,-1.30127 -6.23221,-4.18507l4.35418,0c0.105027,0.384506 0.384506,0.662206 0.72095,0.833097c0.340003,0.170892 0.745871,0.256338 1.10902,0.256338c2.09876,0 2.49751,-1.36713 2.49751,-3.13836l0,-0.512675c-1.00221,1.00399 -2.02756,1.4953 -3.48014,1.4953c-3.20066,0 -5.40089,-2.43343 -5.40089,-5.59493c0,-3.20244 2.26432,-5.93493 5.61451,-5.93493c1.28169,0 2.45479,0.427229 3.2238,1.51666l0.0427229,0l0,-1.15352l3.88601,0l0.00534037,9.88502Z" style="fill:#000;fill-rule:nonzero;"/><path d="M534.295,67.2338c-0.192253,-1.04671 -1.15352,-1.73028 -2.19845,-1.73028c-1.13216,0 -2.07206,0.598121 -2.30704,1.73028l4.50549,0ZM537.901,69.475l-8.18144,0c0,1.57897 0.836658,2.43343 2.43343,2.43343c0.833097,0 1.43122,-0.277699 1.85845,-1.00221l3.74004,0c-0.623043,2.58296 -3.07783,3.75784 -5.57534,3.75784c-3.62967,0 -6.3408,-2.04892 -6.3408,-5.82812c0,-3.65103 2.49751,-5.84948 6.0631,-5.84948c3.80056,0 5.99723,2.34798 5.99723,6.08446l0.00534037,0.404088Z" style="fill:#000;fill-rule:nonzero;"/><path d="M543.974,65.1416l0.0427229,0c0.745871,-1.34577 2.02756,-1.94211 3.54422,-1.94211l0.747651,0l0,3.73648c-0.534037,-0.299061 -1.04671,-0.363145 -1.64305,-0.363145c-2.15751,0 -2.69689,1.43122 -2.69689,3.30925l0,4.41826l-3.88601,0l0,-10.9531l3.88601,0l0.00534037,1.79436Z" style="fill:#000;fill-rule:nonzero;"/><path d="M565.183,66.1673c-0.598121,-0.320422 -1.43122,-0.534037 -2.09164,-0.534037c-0.448591,0 -1.21582,0.192253 -1.21582,0.745871c0,0.747651 1.21582,0.854459 1.74452,0.961266c1.81929,0.363145 3.18108,1.2176 3.18108,3.24516c0,2.88202 -2.62568,4.07826 -5.16058,4.07826c-1.55939,0 -3.09563,-0.448591 -4.42182,-1.26033l1.40986,-2.71113c0.790374,0.555398 2.11479,1.1108 3.07427,1.1108c0.491314,0 1.22116,-0.234976 1.22116,-0.833097c0,-0.852679 -1.22116,-0.895402 -2.43343,-1.2176c-1.21582,-0.320422 -2.43343,-0.918543 -2.43343,-2.88202c0,-2.68977 2.43343,-3.88601 4.82591,-3.88601c1.23719,0 2.48149,0.192253 3.60653,0.704929l-1.30661,2.47793Z" style="fill:#000;fill-rule:nonzero;"/><path d="M572.947,74.3005l-3.88601,0l0,-10.9531l3.88601,0l0,10.9531ZM573.182,59.1428c0,1.19446 -0.982628,2.17709 -2.17887,2.17709c-1.19446,0 -2.18065,-0.982628 -2.18065,-2.17709c0,-1.19624 0.986188,-2.17887 2.18065,-2.17887c1.19624,0 2.17887,0.982628 2.17887,2.17887" style="fill:#000;fill-rule:nonzero;"/><path d="M579.052,68.7505c0,1.38672 0.923884,2.45479 2.49751,2.45479c1.57541,0 2.49929,-1.06807 2.49929,-2.45479c0,-1.34577 -0.923884,-2.47793 -2.49929,-2.47793c-1.57363,0 -2.49751,1.13216 -2.49751,2.47793M587.805,73.2328c0,4.65324 -2.30526,6.53305 -6.3408,6.53305c-2.52065,0 -5.89577,-1.30127 -6.23221,-4.18507l4.34884,0c0.110368,0.384506 0.389847,0.662206 0.72451,0.833097c0.341784,0.170892 0.747651,0.256338 1.1108,0.256338c2.09342,0 2.49751,-1.36713 2.49751,-3.13836l0,-0.512675c-1.00221,1.00399 -2.02756,1.4953 -3.48014,1.4953c-3.20066,0 -5.40089,-2.43343 -5.40089,-5.59493c0,-3.20244 2.26432,-5.93493 5.61451,-5.93493c1.28169,0 2.45479,0.427229 3.2238,1.51666l0.0427229,0l0,-1.15352l3.88601,0l0.00534037,9.88502Z" style="fill:#000;fill-rule:nonzero;"/><path d="M594.482,64.7575l0.0427229,0c0.895402,-1.32441 1.98662,-1.773 3.5015,-1.773c2.9461,0 4.12098,1.85667 4.12098,4.54821l0,6.76803l-3.89135,0l0,-5.33859c0,-1.04493 0.176232,-2.88202 -1.74452,-2.88202c-1.58609,0 -2.03468,1.17488 -2.03468,2.54023l0,5.67859l-3.88601,0l0,-10.9531l3.88601,0l0.00534037,1.41164Z" style="fill:#000;fill-rule:nonzero;"/><path d="M612.036,66.1673c-0.598121,-0.320422 -1.43122,-0.534037 -2.09164,-0.534037c-0.448591,0 -1.22116,0.192253 -1.22116,0.745871c0,0.747651 1.22116,0.854459 1.74986,0.961266c1.81751,0.363145 3.18108,1.2176 3.18108,3.24516c0,2.88202 -2.63102,4.07826 -5.16592,4.07826c-1.55939,0 -3.09563,-0.448591 -4.41648,-1.26033l1.40986,-2.71113c0.785034,0.555398 2.11479,1.1108 3.07427,1.1108c0.491314,0 1.2176,-0.234976 1.2176,-0.833097c0,-0.852679 -1.2176,-0.895402 -2.42987,-1.2176c-1.22116,-0.320422 -2.43343,-0.918543 -2.43343,-2.88202c0,-2.68977 2.43343,-3.88601 4.82591,-3.88601c1.23719,0 2.47615,0.192253 3.60653,0.704929l-1.30661,2.47793Z" style="fill:#000;fill-rule:nonzero;"/><path d="M388.001,93.9018l0.405868,0c1.36713,0 2.90516,-0.256338 2.90516,-2.0062c0,-1.74986 -1.53803,-2.0062 -2.90516,-2.0062l-0.405868,0l0,4.0124ZM397.202,102.783l-5.20864,0l-3.95009,-6.19127l-0.0427229,0l0,6.19127l-4.18507,0l0,-16.0976l6.25535,0c3.18108,0 5.59493,1.51666 5.59493,4.9523c0,2.22159 -1.23719,4.14235 -3.52286,4.54821l5.05911,6.59713Z" style="fill:#000;fill-rule:nonzero;"/><path d="M405.926,95.7158c-0.192253,-1.04671 -1.15352,-1.73028 -2.19845,-1.73028c-1.13216,0 -2.07206,0.598121 -2.30704,1.73028l4.50549,0ZM409.533,97.9569l-8.17788,0c0,1.57897 0.833097,2.43343 2.43343,2.43343c0.833097,0 1.43122,-0.277699 1.85845,-1.00221l3.73648,0c-0.619483,2.58296 -3.07427,3.75784 -5.57178,3.75784c-3.62967,0 -6.3408,-2.04892 -6.3408,-5.82812c0,-3.65103 2.49751,-5.84948 6.0631,-5.84948c3.80056,0 5.99901,2.34798 5.99901,6.08446l0,0.404088Z" style="fill:#000;fill-rule:nonzero;"/><path d="M415.416,97.3177c0,1.3885 0.918543,2.45479 2.49751,2.45479c1.57897,0 2.49751,-1.06807 2.49751,-2.45479c0,-1.34399 -0.920323,-2.47615 -2.49751,-2.47615c-1.58075,-0.00178012 -2.49751,1.13038 -2.49751,2.47615M415.543,93.0685l0.0427229,0c0.704929,-1.08943 2.02934,-1.60033 3.30925,-1.60033c3.26652,0 5.52728,2.73249 5.52728,5.87084c0,3.15972 -2.24117,5.80676 -5.48634,5.80676c-1.25855,0 -2.5616,-0.448591 -3.39469,-1.40986l0,6.51169l-3.88601,0l0,-16.4181l3.88601,0l0.00178012,1.23897Z" style="fill:#000;fill-rule:nonzero;"/><path d="M430.039,97.3177c0,1.3885 0.918543,2.45479 2.49751,2.45479c1.57897,0 2.49751,-1.06807 2.49751,-2.45479c0,-1.34399 -0.918543,-2.47615 -2.49751,-2.47615c-1.57897,0 -2.49751,1.13038 -2.49751,2.47615M439.133,97.3177c0,3.71512 -3.07605,5.82812 -6.59713,5.82812c-3.5015,0 -6.59713,-2.09342 -6.59713,-5.82812c0,-3.7347 3.07605,-5.84948 6.59713,-5.84948c3.52108,0 6.59713,2.11301 6.59713,5.84948" style="fill:#000;fill-rule:nonzero;"/><path d="M445.16,93.6236l0.0427229,0c0.745871,-1.34577 2.02756,-1.94211 3.54244,-1.94211l0.747651,0l0,3.73648c-0.534037,-0.299061 -1.04671,-0.363145 -1.64305,-0.363145c-2.15751,0 -2.69155,1.43122 -2.69155,3.30925l0,4.41826l-3.88601,0l0,-10.9531l3.88601,0l0.00178012,1.79436Z" style="fill:#000;fill-rule:nonzero;"/><path d="M455.811,102.782l-3.88601,0l0,-7.75065l-1.26033,0l0,-3.20244l1.26033,0l0,-3.28789l3.88601,0l0,3.28789l2.19845,0l0,3.20244l-2.19845,0l0,7.75065Z" style="fill:#000;fill-rule:nonzero;"/><path d="M470.805,97.3177c0,1.3885 0.918543,2.45479 2.49751,2.45479c1.57897,0 2.49751,-1.06807 2.49751,-2.45479c0,-1.34399 -0.918543,-2.47615 -2.49751,-2.47615c-1.57897,0 -2.49751,1.13038 -2.49751,2.47615M475.672,101.565l-0.0409428,0c-0.683567,1.08943 -2.02934,1.58075 -3.30925,1.58075c-3.24338,0 -5.52906,-2.71113 -5.52906,-5.85126c0,-3.13836 2.24295,-5.82812 5.48812,-5.82812c1.25855,0 2.58296,0.469952 3.39291,1.43122l0,-7.8361l3.88779,0l0,17.7211l-3.88779,0l-0.00178012,-1.2176Z" style="fill:#000;fill-rule:nonzero;"/><path d="M490.13,95.7158c-0.192253,-1.04671 -1.15352,-1.73028 -2.19845,-1.73028c-1.13216,0 -2.07206,0.598121 -2.30704,1.73028l4.50549,0ZM493.735,97.9569l-8.17788,0c0,1.57897 0.833097,2.43343 2.43343,2.43343c0.833097,0 1.43122,-0.277699 1.85667,-1.00221l3.73826,0c-0.619483,2.58296 -3.07427,3.75784 -5.57178,3.75784c-3.62967,0 -6.3408,-2.04892 -6.3408,-5.82812c0,-3.65103 2.49751,-5.84948 6.0631,-5.84948c3.80234,0 5.99901,2.34798 5.99901,6.08446l0,0.404088Z" style="fill:#000;fill-rule:nonzero;"/><rect x="495.91" y="85.0614" width="3.88601" height="17.7211" style="fill:#000;fill-rule:nonzero;"/><path d="M506.502,102.782l-3.88601,0l0,-10.9531l3.88601,0l0,10.9531ZM506.737,87.6248c0,1.19446 -0.982628,2.17709 -2.17887,2.17709c-1.19446,0 -2.17709,-0.982628 -2.17709,-2.17709c0,-1.19624 0.982628,-2.17887 2.17709,-2.17887c1.19624,0 2.17887,0.982628 2.17887,2.17887" style="fill:#000;fill-rule:nonzero;"/><path d="M514.846,97.4437l2.60432,-5.61451l4.35418,0l-5.72665,10.9531l-2.47615,0l-5.74446,-10.9531l4.3524,0l2.63636,5.61451Z" style="fill:#000;fill-rule:nonzero;"/><path d="M530.354,95.7158c-0.192253,-1.04671 -1.15352,-1.73028 -2.19845,-1.73028c-1.13216,0 -2.07206,0.598121 -2.30704,1.73028l4.50549,0ZM533.961,97.9569l-8.1761,0c0,1.57897 0.831317,2.43343 2.43343,2.43343c0.833097,0 1.43122,-0.277699 1.85845,-1.00221l3.7347,0c-0.617703,2.58296 -3.07249,3.75784 -5.57178,3.75784c-3.62967,0 -6.33902,-2.04892 -6.33902,-5.82812c0,-3.65103 2.49217,-5.84948 6.0631,-5.84948c3.80056,0 5.99367,2.34798 5.99367,6.08446l0.00356025,0.404088Z" style="fill:#000;fill-rule:nonzero;"/><path d="M540.035,93.6236l0.0427229,0c0.745871,-1.34577 2.02756,-1.94211 3.54422,-1.94211l0.747651,0l0,3.73648c-0.534037,-0.299061 -1.04671,-0.363145 -1.64305,-0.363145c-2.16285,0 -2.69689,1.43122 -2.69689,3.30925l0,4.41826l-3.88601,0l0,-10.9531l3.88601,0l0.00534037,1.79436Z" style="fill:#000;fill-rule:nonzero;"/><path d="M545.196,91.8296l4.48413,0l2.9283,5.61451l2.8571,-5.61451l4.41826,0l-8.77422,16.4181l-4.35596,0l3.73826,-6.96028l-5.29586,-9.45779Z" style="fill:#000;fill-rule:nonzero;"/><path d="M574.393,97.7663l2.75385,-5.93493l2.30526,0l2.75563,5.93493l2.75385,-5.93493l4.2901,0l-5.72131,10.9531l-2.51887,0l-2.71291,-5.99901l-2.70579,5.99901l-2.51887,0l-5.72131,-10.9531l4.31324,0l2.72715,5.93493Z" style="fill:#000;fill-rule:nonzero;"/><path d="M594.561,102.782l-3.88601,0l0,-10.9531l3.88601,0l0,10.9531ZM594.794,87.6248c0,1.19446 -0.986188,2.17709 -2.18243,2.17709c-1.19446,0 -2.17709,-0.982628 -2.17709,-2.17709c0,-1.19624 0.982628,-2.17887 2.17709,-2.17887c1.20158,0 2.18243,0.982628 2.18243,2.17887" style="fill:#000;fill-rule:nonzero;"/><path d="M601.767,102.782l-3.89135,0l0,-7.75065l-1.26033,0l0,-3.20244l1.26033,0l0,-3.28789l3.89135,0l0,3.28789l2.19311,0l0,3.20244l-2.19311,0l0,7.75065Z" style="fill:#000;fill-rule:nonzero;"/><path d="M609.594,85.061l0,8.15652l0.0427229,0c0.895402,-1.19624 1.98128,-1.74986 3.5015,-1.74986c2.77521,0 4.11564,1.83531 4.11564,4.61052l0,6.70394l-3.88601,0l0,-5.61451c0,-1.28169 -0.192253,-2.60432 -1.74986,-2.60432c-1.53269,0 -2.02934,1.32441 -2.02934,2.60432l0,5.61451l-3.88601,0l0,-17.7211l3.89135,0Z" style="fill:#000;fill-rule:nonzero;"/><rect x="628.004" y="85.0614" width="3.89135" height="17.7211" style="fill:#000;fill-rule:nonzero;"/><path d="M638.124,97.3177c0,1.3885 0.918543,2.45479 2.49217,2.45479c1.58431,0 2.49929,-1.06807 2.49929,-2.45479c0,-1.34399 -0.918543,-2.47615 -2.49929,-2.47615c-1.57363,0 -2.49217,1.13038 -2.49217,2.47615M647.219,97.3177c0,3.71512 -3.07427,5.82812 -6.59713,5.82812c-3.49972,0 -6.59179,-2.09342 -6.59179,-5.82812c0,-3.7347 3.07605,-5.84948 6.59179,-5.84948c3.52286,0 6.59713,2.11301 6.59713,5.84948" style="fill:#000;fill-rule:nonzero;"/><path d="M657.304,95.395c-0.571419,-0.427229 -1.26033,-0.769013 -2.0062,-0.769013c-1.4953,0 -2.67018,1.15352 -2.67018,2.6684c0,1.58075 1.1375,2.68977 2.73249,2.68977c0.683567,0 1.43122,-0.277699 1.94389,-0.745871l0,3.28789c-0.852679,0.427229 -1.79436,0.619483 -2.73249,0.619483c-3.23982,0 -5.95807,-2.41207 -5.95807,-5.72131c0,-3.52286 2.69155,-5.95629 6.12896,-5.95629c0.895402,0 1.79258,0.213615 2.55804,0.640844l0.00356025,3.28611Z" style="fill:#000;fill-rule:nonzero;"/><path d="M663.176,97.3177c0,1.3885 0.918543,2.45479 2.49217,2.45479c1.57541,0 2.49929,-1.06807 2.49929,-2.45479c0,-1.34399 -0.923884,-2.47615 -2.49929,-2.47615c-1.57363,0 -2.49217,1.13038 -2.49217,2.47615M671.928,102.783l-3.88779,0l0,-1.2176l-0.0356025,0c-0.688907,1.08943 -2.03468,1.58075 -3.30925,1.58075c-3.24516,0 -5.53084,-2.71113 -5.53084,-5.85126c0,-3.13836 2.24829,-5.82812 5.48812,-5.82812c1.25855,0 2.58296,0.469952 3.39291,1.43122l0,-1.06807l3.89313,0l0,10.9531l-0.0106807,0Z" style="fill:#000;fill-rule:nonzero;"/><path d="M679.218,102.782l-3.89135,0l0,-7.75065l-1.26033,0l0,-3.20244l1.26033,0l0,-3.28789l3.89135,0l0,3.28789l2.19311,0l0,3.20244l-2.19311,0l0,7.75065Z" style="fill:#000;fill-rule:nonzero;"/><path d="M686.972,102.782l-3.88601,0l0,-10.9531l3.88601,0l0,10.9531ZM687.207,87.6248c0,1.19446 -0.986188,2.17709 -2.18243,2.17709c-1.19446,0 -2.17709,-0.982628 -2.17709,-2.17709c0,-1.19624 0.982628,-2.17887 2.17709,-2.17887c1.1998,0 2.18243,0.982628 2.18243,2.17887" style="fill:#000;fill-rule:nonzero;"/><path d="M693.131,97.3177c0,1.3885 0.923884,2.45479 2.49751,2.45479c1.57541,0 2.49929,-1.06807 2.49929,-2.45479c0,-1.34399 -0.923884,-2.47615 -2.49929,-2.47615c-1.57363,0 -2.49751,1.13038 -2.49751,2.47615M702.226,97.3177c0,3.71512 -3.07427,5.82812 -6.59713,5.82812c-3.49972,0 -6.59713,-2.09342 -6.59713,-5.82812c0,-3.7347 3.07961,-5.84948 6.59713,-5.84948c3.52286,0 6.59713,2.11301 6.59713,5.84948" style="fill:#000;fill-rule:nonzero;"/><path d="M708.251,93.2394l0.0427229,0c0.895402,-1.32441 1.98662,-1.773 3.5015,-1.773c2.9461,0 4.12098,1.85667 4.12098,4.54821l0,6.76803l-3.89135,0l0,-5.33859c0,-1.04493 0.170892,-2.88202 -1.74452,-2.88202c-1.58609,0 -2.03468,1.17488 -2.03468,2.54023l0,5.67859l-3.88601,0l0,-10.9531l3.88601,0l0.00534037,1.41164Z" style="fill:#000;fill-rule:nonzero;"/><path d="M100.972,22.0719l0.405868,0c1.36713,0 2.90516,-0.256338 2.90516,-2.0062c0,-1.74986 -1.53803,-2.0062 -2.90516,-2.0062l-0.405868,0l0,4.0124ZM110.174,30.9529l-5.20864,0l-3.95009,-6.19127l-0.0427229,0l0,6.19127l-4.18507,0l0,-16.0976l6.25535,0c3.18108,0 5.59493,1.51666 5.59493,4.9523c0,2.22159 -1.23719,4.14235 -3.52286,4.54821l5.05911,6.59713Z" style="fill:#808080;fill-rule:nonzero;"/><path d="M115.008,19.9997l0,5.85126c0,1.38672 0.341784,2.36934 1.94389,2.36934c1.60211,0 1.94211,-0.982628 1.94211,-2.36934l0,-5.85126l3.88779,0l0,6.59713c0,3.60831 -2.54201,4.7191 -5.82812,4.7191c-3.28967,0 -5.82812,-1.1108 -5.82812,-4.7191l0,-6.59713l3.88245,0Z" style="fill:#808080;fill-rule:nonzero;"/><path d="M129.44,21.7937l0.0427229,0c0.745871,-1.34577 2.02756,-1.94211 3.54244,-1.94211l0.747651,0l0,3.73648c-0.534037,-0.299061 -1.04671,-0.363145 -1.64305,-0.363145c-2.15751,0 -2.69155,1.43122 -2.69155,3.30925l0,4.41826l-3.88601,0l0,-10.9531l3.88601,0l0.00178012,1.79436Z" style="fill:#808080;fill-rule:nonzero;"/><path d="M138.928,25.4878c0,1.3885 0.918543,2.45479 2.49751,2.45479c1.57897,0 2.49751,-1.06807 2.49751,-2.45479c0,-1.34399 -0.918543,-2.47615 -2.49751,-2.47615c-1.57897,0 -2.49751,1.13216 -2.49751,2.47615M147.682,30.9528l-3.88779,0l0,-1.21582l-0.0409428,0c-0.683567,1.08943 -2.02934,1.58075 -3.30925,1.58075c-3.24338,0 -5.52906,-2.71113 -5.52906,-5.85126c0,-3.13836 2.24295,-5.82812 5.48812,-5.82812c1.25855,0 2.58296,0.469952 3.39291,1.43122l0,-1.06807l3.88779,0l-0.00178012,10.9513Z" style="fill:#808080;fill-rule:nonzero;"/><rect x="150.541" y="13.2317" width="3.88601" height="17.7211" style="fill:#808080;fill-rule:nonzero;"/><path d="M170.554,25.6156l2.60432,-5.61451l4.35418,0l-5.72131,10.9531l-2.47793,0l-5.74268,-10.9531l4.35418,0l2.62924,5.61451Z" style="fill:#808080;fill-rule:nonzero;"/><path d="M182.794,30.9528l-3.88601,0l0,-10.9531l3.88601,0l0,10.9531ZM183.029,15.795c0,1.19446 -0.982628,2.17709 -2.17887,2.17709c-1.19446,0 -2.17709,-0.982628 -2.17709,-2.17709c0,-1.19624 0.982628,-2.17887 2.17709,-2.17887c1.19624,0.00178012 2.17887,0.982628 2.17887,2.17887" style="fill:#808080;fill-rule:nonzero;"/><rect x="185.613" y="13.2317" width="3.88601" height="17.7211" style="fill:#808080;fill-rule:nonzero;"/><rect x="192.317" y="13.2317" width="3.88601" height="17.7211" style="fill:#808080;fill-rule:nonzero;"/><path d="M202.357,25.4878c0,1.3885 0.918543,2.45479 2.49751,2.45479c1.57897,0 2.49751,-1.06807 2.49751,-2.45479c0,-1.34399 -0.918543,-2.47615 -2.49751,-2.47615c-1.57897,0 -2.49751,1.13216 -2.49751,2.47615M211.111,30.9528l-3.88779,0l0,-1.21582l-0.0409428,0c-0.683567,1.08943 -2.02934,1.58075 -3.30925,1.58075c-3.24338,0 -5.52906,-2.71113 -5.52906,-5.85126c0,-3.13836 2.24295,-5.82812 5.48812,-5.82812c1.25855,0 2.58296,0.469952 3.39291,1.43122l0,-1.06807l3.88779,0l-0.00178012,10.9513Z" style="fill:#808080;fill-rule:nonzero;"/><path d="M217.31,25.4027c0,1.38672 0.918543,2.45479 2.49751,2.45479c1.57897,0 2.49751,-1.06807 2.49751,-2.45479c0,-1.34577 -0.918543,-2.47793 -2.49751,-2.47793c-1.57897,0 -2.49751,1.13216 -2.49751,2.47793M226.063,29.8868c0,4.65324 -2.30526,6.53305 -6.3408,6.53305c-2.52065,0 -5.89399,-1.30127 -6.23399,-4.18507l4.35418,0c0.106807,0.384506 0.384506,0.662206 0.72451,0.833097c0.341784,0.170892 0.747651,0.256338 1.1108,0.256338c2.09342,0 2.49751,-1.36713 2.49751,-3.13836l0,-0.512675c-1.00221,1.00399 -2.02934,1.4953 -3.48014,1.4953c-3.20244,0 -5.40089,-2.43343 -5.40089,-5.59493c0,-3.20244 2.26254,-5.93493 5.61451,-5.93493c1.28169,0 2.45479,0.427229 3.2238,1.51666l0.0427229,0l0,-1.1553l3.88601,0l0.00178012,9.8868Z" style="fill:#808080;fill-rule:nonzero;"/><path d="M236.629,23.8876c-0.192253,-1.04671 -1.15352,-1.73028 -2.19845,-1.73028c-1.13216,0 -2.07206,0.598121 -2.30704,1.73028l4.50549,0ZM240.238,26.1288l-8.17788,0c0,1.57897 0.833097,2.43343 2.43343,2.43343c0.833097,0 1.43122,-0.277699 1.85845,-1.00221l3.73648,0c-0.619483,2.58296 -3.07427,3.75784 -5.57178,3.75784c-3.62967,0 -6.3408,-2.04892 -6.3408,-5.82812c0,-3.65103 2.49751,-5.84948 6.0631,-5.84948c3.80056,0 5.99901,2.34798 5.99901,6.08446l0,0.404088Z" style="fill:#808080;fill-rule:nonzero;"/><path d="M299.491,404.159c-0.854459,-1.14996 -2.24295,-1.77122 -3.67239,-1.77122c-2.5616,0 -4.2901,1.9617 -4.2901,4.46099c0,2.54023 1.74986,4.37554 4.35418,4.37554c1.36713,0 2.73249,-0.662206 3.60831,-1.70714l0,5.01817c-1.3885,0.425449 -2.39248,0.745871 -3.69375,0.745871c-2.24295,0 -4.37732,-0.850899 -6.04352,-2.36934c-1.77122,-1.60033 -2.58296,-3.69375 -2.58296,-6.08446c0,-2.19845 0.833097,-4.31324 2.37112,-5.89221c1.57897,-1.62347 3.86287,-2.60254 6.1254,-2.60254c1.34577,0 2.58296,0.29194 3.82192,0.806396l0.00178012,5.01995Z" style="fill:#808080;fill-rule:nonzero;"/><path d="M305.512,409.388c0,1.3885 0.918543,2.45479 2.49751,2.45479c1.57897,0 2.49751,-1.06807 2.49751,-2.45479c0,-1.34399 -0.918543,-2.47615 -2.49751,-2.47615c-1.57897,0 -2.49751,1.13216 -2.49751,2.47615M314.606,409.388c0,3.7169 -3.07427,5.82812 -6.59713,5.82812c-3.5015,0 -6.59713,-2.09342 -6.59713,-5.82812c0,-3.73292 3.07605,-5.8477 6.59713,-5.8477c3.52286,0 6.59713,2.11301 6.59713,5.8477" style="fill:#808080;fill-rule:nonzero;"/><path d="M320.634,405.268l0.0427229,0c0.918543,-1.2176 2.04892,-1.7285 3.457,-1.7285c1.58075,0 2.9461,0.637284 3.73648,2.08986c0.747651,-1.36891 2.22159,-2.08986 3.71512,-2.08986c2.77699,0 3.73826,1.81572 3.73826,4.3346l0,6.98164l-3.88779,0l0,-5.23178c0,-1.1286 0.0427229,-2.98705 -1.60033,-2.98705c-1.79258,0 -1.85667,1.68756 -1.85667,2.98705l0,5.23178l-3.88601,0l0,-5.23178c0,-1.21582 0,-3.07249 -1.73028,-3.07249c-1.73028,0 -1.73028,1.85667 -1.73028,3.07249l0,5.23178l-3.88601,0l0,-10.9549l3.88601,0l0.00178012,1.36713Z" style="fill:#808080;fill-rule:nonzero;"/><path d="M342.061,405.268l0.0427229,0c0.918543,-1.2176 2.04892,-1.7285 3.457,-1.7285c1.58075,0 2.9461,0.637284 3.73648,2.08986c0.747651,-1.36891 2.22159,-2.08986 3.71512,-2.08986c2.77699,0 3.73826,1.81572 3.73826,4.3346l0,6.98164l-3.88779,0l0,-5.23178c0,-1.1286 0.0427229,-2.98705 -1.60033,-2.98705c-1.79258,0 -1.85667,1.68756 -1.85667,2.98705l0,5.23178l-3.88601,0l0,-5.23178c0,-1.21582 0,-3.07249 -1.73028,-3.07249c-1.73028,0 -1.73028,1.85667 -1.73028,3.07249l0,5.23178l-3.88601,0l0,-10.9549l3.88601,0l0.00178012,1.36713Z" style="fill:#808080;fill-rule:nonzero;"/><path d="M363.368,403.902l0,5.85126c0,1.38672 0.341784,2.36934 1.94389,2.36934c1.60211,0 1.94211,-0.982628 1.94211,-2.36934l0,-5.85126l3.88779,0l0,6.59891c0,3.60653 -2.54201,4.71732 -5.82812,4.71732c-3.28611,0 -5.82812,-1.1108 -5.82812,-4.71732l0,-6.59891l3.88245,0Z" style="fill:#808080;fill-rule:nonzero;"/><path d="M377.799,405.314l0.0427229,0c0.895402,-1.32441 1.98484,-1.773 3.5015,-1.773c2.9461,0 4.1192,1.85667 4.1192,4.55177l0,6.76625l-3.88601,0l0,-5.33859c0,-1.04493 0.170892,-2.88202 -1.74986,-2.88202c-1.58075,0 -2.02934,1.17488 -2.02934,2.54558l0,5.67325l-3.88601,0l0,-10.9478l3.88601,0l0.00178012,1.40452Z" style="fill:#808080;fill-rule:nonzero;"/><path d="M392.141,414.854l-3.88601,0l0,-10.9513l3.88601,0l0,10.9513ZM392.375,399.694c0,1.19624 -0.982628,2.17887 -2.17887,2.17887c-1.19446,0 -2.17709,-0.982628 -2.17709,-2.17887c0,-1.19446 0.982628,-2.17531 2.17709,-2.17531c1.19802,0 2.17887,0.980848 2.17887,2.17531" style="fill:#808080;fill-rule:nonzero;"/><path d="M399.347,414.854l-3.88601,0l0,-7.75065l-1.26033,0l0,-3.20066l1.26033,0l0,-3.29323l3.88601,0l0,3.29323l2.19845,0l0,3.20066l-2.19845,0l0,7.75065Z" style="fill:#808080;fill-rule:nonzero;"/><path d="M402.256,403.902l4.48413,0l2.92474,5.61451l2.86066,-5.61451l4.41826,0l-8.77422,16.4181l-4.35596,0l3.73826,-6.95672l-5.29586,-9.46135Z" style="fill:#808080;fill-rule:nonzero;"/><path d="M295.798,435.951c-0.57676,-0.427229 -1.26033,-0.770793 -2.0062,-0.770793c-1.4953,0 -2.67018,1.15352 -2.67018,2.6684c0,1.58253 1.13216,2.69155 2.73249,2.69155c0.683567,0 1.43122,-0.277699 1.94389,-0.747651l0,3.28967c-0.852679,0.427229 -1.79436,0.621263 -2.73249,0.621263c-3.24516,0 -5.95807,-2.40851 -5.95807,-5.71953c0,-3.52464 2.69155,-5.96163 6.12718,-5.96163c0.897182,0 1.79436,0.215395 2.5616,0.640844l0.00178012,3.28789Z" style="fill:#808080;fill-rule:nonzero;"/><path d="M301.665,437.87c0,1.3885 0.918543,2.45479 2.49751,2.45479c1.57897,0 2.49751,-1.06807 2.49751,-2.45479c0,-1.34399 -0.918543,-2.47615 -2.49751,-2.47615c-1.57897,0 -2.49751,1.13216 -2.49751,2.47615M310.419,443.335l-3.88779,0l0,-1.21582l-0.0409428,0c-0.683567,1.08765 -2.02934,1.57897 -3.30925,1.57897c-3.24338,0 -5.52906,-2.70935 -5.52906,-5.85126c0,-3.13658 2.24295,-5.82812 5.48812,-5.82812c1.25855,0 2.58296,0.473513 3.39291,1.43656l0,-1.07163l3.88779,0l-0.00178012,10.9513Z" style="fill:#808080;fill-rule:nonzero;"/><path d="M317.171,434.178l0.0427229,0c0.745871,-1.34577 2.02756,-1.94389 3.54244,-1.94389l0.747651,0l0,3.73826c-0.534037,-0.299061 -1.04671,-0.363145 -1.64305,-0.363145c-2.15751,0 -2.69155,1.42944 -2.69155,3.30747l0,4.41648l-3.88601,0l0,-10.9495l3.88601,0l0.00178012,1.79436Z" style="fill:#808080;fill-rule:nonzero;"/><path d="M331.101,436.271c-0.192253,-1.04671 -1.15352,-1.73206 -2.19845,-1.73206c-1.13216,0 -2.07206,0.598121 -2.30704,1.73206l4.50549,0ZM334.708,438.512l-8.17788,0c0,1.57897 0.833097,2.43343 2.43343,2.43343c0.833097,0 1.43122,-0.277699 1.85845,-1.00221l3.73648,0c-0.619483,2.58296 -3.07427,3.75784 -5.57178,3.75784c-3.62967,0 -6.3408,-2.04892 -6.3408,-5.82812c0,-3.65103 2.49751,-5.85126 6.0631,-5.85126c3.80056,0 5.99901,2.34976 5.99901,6.08446l0,0.405868Z" style="fill:#808080;fill-rule:nonzero;"/><path d="M352.568,435.951c-0.57676,-0.427229 -1.26033,-0.770793 -2.00798,-0.770793c-1.49352,0 -2.6684,1.15352 -2.6684,2.6684c0,1.58253 1.13216,2.69155 2.73249,2.69155c0.683567,0 1.43122,-0.277699 1.94389,-0.747651l0,3.28967c-0.852679,0.427229 -1.79436,0.621263 -2.73249,0.621263c-3.24516,0 -5.95807,-2.40851 -5.95807,-5.71953c0,-3.52464 2.69155,-5.96163 6.12718,-5.96163c0.897182,0 1.79436,0.215395 2.5616,0.640844l0.00178012,3.28789Z" style="fill:#808080;fill-rule:nonzero;"/><path d="M358.463,437.87c0,1.3885 0.918543,2.45479 2.49751,2.45479c1.57897,0 2.49751,-1.06807 2.49751,-2.45479c0,-1.34399 -0.918543,-2.47615 -2.49751,-2.47615c-1.57897,0 -2.49751,1.13216 -2.49751,2.47615M367.558,437.87c0,3.7169 -3.07427,5.82812 -6.59713,5.82812c-3.5015,0 -6.59713,-2.09342 -6.59713,-5.82812c0,-3.73292 3.07605,-5.8477 6.59713,-5.8477c3.52464,0 6.59713,2.11301 6.59713,5.8477" style="fill:#808080;fill-rule:nonzero;"/><path d="M373.031,437.87c0,1.3885 0.918543,2.45479 2.49751,2.45479c1.57897,0 2.49751,-1.06807 2.49751,-2.45479c0,-1.34399 -0.918543,-2.47615 -2.49751,-2.47615c-1.57897,0 -2.49751,1.13216 -2.49751,2.47615M382.128,437.87c0,3.7169 -3.07605,5.82812 -6.59713,5.82812c-3.5015,0 -6.59713,-2.09342 -6.59713,-5.82812c0,-3.73292 3.07605,-5.8477 6.59713,-5.8477c3.52108,0 6.59713,2.11301 6.59713,5.8477" style="fill:#808080;fill-rule:nonzero;"/><path d="M388.152,434.178l0.0427229,0c0.745871,-1.34577 2.02756,-1.94389 3.54244,-1.94389l0.747651,0l0,3.73826c-0.534037,-0.299061 -1.04671,-0.363145 -1.64483,-0.363145c-2.15573,0 -2.68977,1.42944 -2.68977,3.30747l0,4.41648l-3.88601,0l0,-10.9495l3.88601,0l0.00178012,1.79436Z" style="fill:#808080;fill-rule:nonzero;"/><path d="M397.715,437.87c0,1.3885 0.918543,2.45479 2.49751,2.45479c1.57897,0 2.49751,-1.06807 2.49751,-2.45479c0,-1.34399 -0.918543,-2.47615 -2.49751,-2.47615c-1.57897,0 -2.49751,1.13216 -2.49751,2.47615M402.582,442.12l-0.0409428,0c-0.683567,1.09122 -2.02934,1.58075 -3.30925,1.58075c-3.24338,0 -5.52906,-2.71113 -5.52906,-5.85126c0,-3.13658 2.24295,-5.82634 5.48812,-5.82634c1.25855,0 2.58296,0.471732 3.39291,1.43478l0,-7.83788l3.88779,0l0,17.7211l-3.88779,0l-0.00178012,-1.22116Z" style="fill:#808080;fill-rule:nonzero;"/><path d="M413.156,443.336l-3.88601,0l0,-10.9513l3.88601,0l0,10.9513ZM413.391,428.176c0,1.19624 -0.982628,2.17887 -2.17887,2.17887c-1.19446,0 -2.17709,-0.982628 -2.17709,-2.17887c0,-1.19446 0.982628,-2.17531 2.17709,-2.17531c1.19624,0 2.17887,0.980848 2.17887,2.17531" style="fill:#808080;fill-rule:nonzero;"/><path d="M419.872,433.796l0.0427229,0c0.895402,-1.32441 1.98484,-1.773 3.5015,-1.773c2.9461,0 4.1192,1.85667 4.1192,4.55177l0,6.76625l-3.88601,0l0,-5.33859c0,-1.04493 0.170892,-2.88202 -1.74986,-2.88202c-1.58075,0 -2.02934,1.17488 -2.02934,2.54558l0,5.67325l-3.88601,0l0,-10.9478l3.88601,0l0.00178012,1.40452Z" style="fill:#808080;fill-rule:nonzero;"/><path d="M433.664,437.87c0,1.3885 0.918543,2.45479 2.49751,2.45479c1.57897,0 2.49751,-1.06807 2.49751,-2.45479c0,-1.34399 -0.918543,-2.47615 -2.49751,-2.47615c-1.57897,0 -2.49751,1.13216 -2.49751,2.47615M442.419,443.335l-3.88779,0l0,-1.21582l-0.0409428,0c-0.683567,1.08765 -2.02934,1.57897 -3.30925,1.57897c-3.24338,0 -5.52906,-2.70935 -5.52906,-5.85126c0,-3.13658 2.24295,-5.82812 5.48812,-5.82812c1.25855,0 2.58296,0.473513 3.39291,1.43656l0,-1.07163l3.88779,0l-0.00178012,10.9513Z" style="fill:#808080;fill-rule:nonzero;"/><path d="M449.709,443.336l-3.88601,0l0,-7.75065l-1.26033,0l0,-3.20066l1.26033,0l0,-3.29323l3.88601,0l0,3.29323l2.19845,0l0,3.20066l-2.19845,0l0,7.75065Z" style="fill:#808080;fill-rule:nonzero;"/><path d="M456.941,437.87c0,1.3885 0.918543,2.45479 2.49751,2.45479c1.57897,0 2.49751,-1.06807 2.49751,-2.45479c0,-1.34399 -0.918543,-2.47615 -2.49751,-2.47615c-1.57897,0 -2.49751,1.13216 -2.49751,2.47615M466.036,437.87c0,3.7169 -3.07605,5.82812 -6.59713,5.82812c-3.5015,0 -6.59713,-2.09342 -6.59713,-5.82812c0,-3.73292 3.07605,-5.8477 6.59713,-5.8477c3.52108,0 6.59713,2.11301 6.59713,5.8477" style="fill:#808080;fill-rule:nonzero;"/><path d="M472.064,434.178l0.0427229,0c0.745871,-1.34577 2.02756,-1.94389 3.54244,-1.94389l0.747651,0l0,3.73826c-0.534037,-0.299061 -1.04671,-0.363145 -1.64305,-0.363145c-2.15751,0 -2.69155,1.42944 -2.69155,3.30747l0,4.41648l-3.88601,0l0,-10.9495l3.88601,0l0.00178012,1.79436Z" style="fill:#808080;fill-rule:nonzero;"/><path d="M771.783,47.8689l5.01104,0l0,3.54422l-9.20145,0l0,-16.0976l4.19041,0l0,12.5534Z" style="fill:#808080;fill-rule:nonzero;"/><path d="M781.958,45.9471c0,1.3885 0.918543,2.45479 2.49751,2.45479c1.57897,0 2.49395,-1.06807 2.49395,-2.45479c0,-1.34399 -0.918543,-2.47615 -2.49395,-2.47615c-1.57897,0 -2.49751,1.13216 -2.49751,2.47615M791.053,45.9471c0,3.71512 -3.07783,5.82812 -6.59713,5.82812c-3.50506,0 -6.59713,-2.09342 -6.59713,-5.82812c0,-3.7347 3.07605,-5.84948 6.59713,-5.84948c3.52108,0 6.59713,2.11479 6.59713,5.84948" style="fill:#808080;fill-rule:nonzero;"/><path d="M801.138,44.0262c-0.57676,-0.427229 -1.26033,-0.769013 -2.01154,-0.769013c-1.4953,0 -2.67018,1.15352 -2.67018,2.6684c0,1.58075 1.1375,2.68977 2.73249,2.68977c0.688907,0 1.43656,-0.277699 1.94923,-0.745871l0,3.28789c-0.852679,0.427229 -1.7997,0.619483 -2.73249,0.619483c-3.24516,0 -5.96341,-2.41207 -5.96341,-5.72131c0,-3.52286 2.69689,-5.95629 6.12896,-5.95629c0.897182,0 1.79258,0.213615 2.55804,0.640844l0.00890061,3.28611Z" style="fill:#808080;fill-rule:nonzero;"/><path d="M807.008,45.9471c0,1.3885 0.918543,2.45479 2.49217,2.45479c1.58431,0 2.49929,-1.06807 2.49929,-2.45479c0,-1.34399 -0.918543,-2.47615 -2.49929,-2.47615c-1.57363,0 -2.49217,1.13216 -2.49217,2.47615M815.763,51.4121l-3.89313,0l0,-1.2176l-0.0356025,0c-0.683567,1.08943 -2.03468,1.58075 -3.30925,1.58075c-3.24516,0 -5.5255,-2.71113 -5.5255,-5.85126c0,-3.13836 2.24295,-5.82812 5.48812,-5.82812c1.25855,0 2.57762,0.469952 3.38757,1.43122l0,-1.06807l3.89313,0l-0.00534037,10.9531Z" style="fill:#808080;fill-rule:nonzero;"/><rect x="818.616" y="33.6906" width="3.89135" height="17.7211" style="fill:#808080;fill-rule:nonzero;"/><path d="M837.14,33.6922l0,8.15652l0.0427229,0c0.895402,-1.19624 1.98128,-1.74986 3.5015,-1.74986c2.77521,0 4.11564,1.83531 4.11564,4.61052l0,6.70394l-3.88601,0l0,-5.61451c0,-1.28169 -0.192253,-2.60432 -1.74986,-2.60432c-1.53269,0 -2.02934,1.32441 -2.02934,2.60432l0,5.61451l-3.88957,0l0,-17.7211l3.89491,0Z" style="fill:#808080;fill-rule:nonzero;"/><path d="M855.364,44.3469c-0.192253,-1.04671 -1.15352,-1.73028 -2.19845,-1.73028c-1.13216,0 -2.07206,0.598121 -2.30704,1.73028l4.50549,0ZM858.97,46.5881l-8.1761,0c0,1.57897 0.831317,2.43343 2.43343,2.43343c0.833097,0 1.43122,-0.277699 1.85845,-1.00221l3.7347,0c-0.617703,2.58296 -3.07249,3.75784 -5.57178,3.75784c-3.62967,0 -6.33902,-2.04892 -6.33902,-5.82812c0,-3.65103 2.49217,-5.84948 6.05776,-5.84948c3.8059,0 5.99901,2.34798 5.99901,6.08446l0.00356025,0.404088Z" style="fill:#808080;fill-rule:nonzero;"/><path d="M864.435,45.9471c0,1.3885 0.918543,2.45479 2.49751,2.45479c1.57897,0 2.49395,-1.06807 2.49395,-2.45479c0,-1.34399 -0.918543,-2.47615 -2.49395,-2.47615c-1.57897,0 -2.49751,1.13216 -2.49751,2.47615M873.189,51.4121l-3.88779,0l0,-1.2176l-0.0409428,0c-0.683567,1.08943 -2.02934,1.58075 -3.30925,1.58075c-3.23982,0 -5.5255,-2.71113 -5.5255,-5.85126c0,-3.13836 2.24295,-5.82812 5.48812,-5.82812c1.25855,0 2.58296,0.469952 3.39291,1.43122l0,-1.06807l3.88601,0l-0.00356025,10.9531Z" style="fill:#808080;fill-rule:nonzero;"/><rect x="876.043" y="33.6906" width="3.89135" height="17.7211" style="fill:#808080;fill-rule:nonzero;"/><path d="M887.199,51.4117l-3.89135,0l0,-7.75065l-1.26033,0l0,-3.20244l1.26033,0l0,-3.28789l3.89135,0l0,3.28789l2.19311,0l0,3.20244l-2.19311,0l0,7.75065Z" style="fill:#808080;fill-rule:nonzero;"/><path d="M895.025,33.6922l0,8.15652l0.0427229,0c0.895402,-1.19624 1.98662,-1.74986 3.5015,-1.74986c2.78055,0 4.12098,1.83531 4.12098,4.61052l0,6.70394l-3.89135,0l0,-5.61451c0,-1.28169 -0.186913,-2.60432 -1.74452,-2.60432c-1.53803,0 -2.03468,1.32441 -2.03468,2.60432l0,5.61451l-3.88601,0l0,-17.7211l3.89135,0Z" style="fill:#808080;fill-rule:nonzero;"/><path d="M771.783,79.8937l-3.89135,0l0,-7.75065l-1.36535,0l0,-3.20244l1.36535,0l0,-1.38672c0,-1.51666 0.0445031,-2.62568 1.1108,-3.84328c0.961266,-1.13216 2.34798,-1.74986 3.82192,-1.74986c0.598121,0 1.13216,0.106807 1.66619,0.384506l0,3.35197c-0.448591,-0.192253 -0.852679,-0.363145 -1.36713,-0.363145c-1.00399,0 -1.34577,0.598121 -1.34577,1.83709l0,1.77122l2.70757,0l0,3.20244l-2.70757,0l0.00534037,7.74887Z" style="fill:#808080;fill-rule:nonzero;"/><path d="M779.496,74.4291c0,1.3885 0.918543,2.45479 2.49217,2.45479c1.58431,0 2.49929,-1.06807 2.49929,-2.45479c0,-1.34399 -0.918543,-2.47615 -2.49929,-2.47615c-1.57363,0 -2.49217,1.13216 -2.49217,2.47615M788.251,79.894l-3.88779,0l0,-1.2176l-0.0356025,0c-0.683567,1.08943 -2.03112,1.58075 -3.31103,1.58075c-3.23804,0 -5.52372,-2.71113 -5.52372,-5.85126c0,-3.13836 2.24295,-5.82812 5.48812,-5.82812c1.25855,0 2.58296,0.469952 3.38757,1.43122l0,-1.06807l3.89313,0l0,10.9531l-0.0106807,0Z" style="fill:#808080;fill-rule:nonzero;"/><path d="M799.102,72.5081c-0.57676,-0.427229 -1.26033,-0.769013 -2.00798,-0.769013c-1.49352,0 -2.6684,1.15352 -2.6684,2.6684c0,1.58075 1.13216,2.68977 2.73249,2.68977c0.683567,0 1.43122,-0.277699 1.94389,-0.745871l0,3.28789c-0.852679,0.427229 -1.79436,0.619483 -2.73249,0.619483c-3.23982,0 -5.95807,-2.41207 -5.95807,-5.72131c0,-3.52286 2.69155,-5.95629 6.12896,-5.95629c0.895402,0 1.79258,0.213615 2.55804,0.640844l0.00356025,3.28611Z" style="fill:#808080;fill-rule:nonzero;"/><path d="M805.664,79.8937l-3.89135,0l0,-10.9531l3.89135,0l0,10.9531ZM805.899,64.7359c0,1.19446 -0.986188,2.17709 -2.18243,2.17709c-1.19446,0 -2.17709,-0.982628 -2.17709,-2.17709c0,-1.19624 0.982628,-2.17887 2.17709,-2.17887c1.20158,0.00178012 2.18243,0.982628 2.18243,2.17887" style="fill:#808080;fill-rule:nonzero;"/><rect x="808.487" y="62.1726" width="3.88601" height="17.7211" style="fill:#808080;fill-rule:nonzero;"/><path d="M819.082,79.8937l-3.88601,0l0,-10.9531l3.88601,0l0,10.9531ZM819.317,64.7359c0,1.19446 -0.986188,2.17709 -2.18243,2.17709c-1.19446,0 -2.17709,-0.982628 -2.17709,-2.17709c0,-1.19624 0.982628,-2.17887 2.17709,-2.17887c1.20158,0.00178012 2.18243,0.982628 2.18243,2.17887" style="fill:#808080;fill-rule:nonzero;"/><path d="M826.291,79.8937l-3.89135,0l0,-7.75065l-1.26033,0l0,-3.20244l1.26033,0l0,-3.28789l3.89135,0l0,3.28789l2.19311,0l0,3.20244l-2.19311,0l0,7.75065Z" style="fill:#808080;fill-rule:nonzero;"/><path d="M829.199,68.9427l4.48413,0l2.9283,5.61451l2.8571,-5.61451l4.41826,0l-8.77422,16.4181l-4.35596,0l3.73826,-6.96028l-5.29586,-9.45779Z" style="fill:#808080;fill-rule:nonzero;"/><path d="M453.052,204.677c-2.21091,0 -4.00706,-1.79436 -4.00706,-4.00528l0,-5.04665c0,-2.22693 -1.79258,-4.01774 -4.01596,-4.01774l-2.6773,0c-2.21269,0 -4.00528,1.7908 -4.00528,4.01774l0,5.04665c0,2.21091 -1.80326,4.00528 -4.01774,4.00528l-25.413,0c-2.22515,0 -4.01952,1.80148 -4.01952,4.01774l0,90.3857c0,2.22337 1.79436,4.01952 4.01952,4.01952l44.1364,0c2.21447,0 4.01952,-1.79614 4.01952,-4.01952l0,-90.3875c0,-2.21625 -1.79614,-4.01596 -4.01952,-4.01596" style="fill:#b3b3b3;fill-rule:nonzero;"/><path d="M413.675,282.442c0,-2.21625 1.79258,-4.01774 4.01952,-4.01774c2.21091,0 4.00528,1.80148 4.00528,4.01774c0,2.21269 -1.79436,4.01952 -4.00528,4.01952c-2.22693,0 -4.01952,-1.80682 -4.01952,-4.01952" style="fill:#fff;fill-rule:nonzero;"/><path d="M417.695,265.139c2.21091,0 4.00528,1.79436 4.00528,4.00528c0,2.21091 -1.79436,4.01952 -4.00528,4.01952c-2.22693,0 -4.01952,-1.8086 -4.01952,-4.01952c0,-2.21091 1.79258,-4.00528 4.01952,-4.00528" style="fill:#fff;fill-rule:nonzero;"/><path d="M413.675,255.853c0,-2.21447 1.79258,-4.00884 4.01952,-4.00884c2.21091,0 4.00528,1.79436 4.00528,4.00884c0,2.21981 -1.79436,4.01596 -4.00528,4.01596c-2.22693,0 -4.01952,-1.79614 -4.01952,-4.01596" style="fill:#fff;fill-rule:nonzero;"/><path d="M439.131,296.267l-16.8026,0c-1.10724,0 -2.00976,-0.895402 -2.00976,-1.99552c0,-1.12148 0.902522,-2.0151 2.00976,-2.0151l16.8026,0c1.11614,0 2.0062,0.893622 2.0062,2.0151c0,1.10012 -0.890061,1.99552 -2.0062,1.99552" style="fill:#fff;fill-rule:nonzero;"/><path d="M430.732,265.139c2.21625,0 4.00706,1.79436 4.00706,4.00528c0,2.21091 -1.7908,4.01952 -4.00706,4.01952c-2.22337,0 -4.01774,-1.8086 -4.01774,-4.01952c0.00178012,-2.21091 1.79436,-4.00528 4.01774,-4.00528" style="fill:#fff;fill-rule:nonzero;"/><path d="M426.717,255.853c0,-2.21447 1.79436,-4.00884 4.01774,-4.00884c2.21625,0 4.00706,1.79436 4.00706,4.00884c0,2.21981 -1.7908,4.01596 -4.00706,4.01596c-2.22515,0 -4.01774,-1.79614 -4.01774,-4.01596" style="fill:#fff;fill-rule:nonzero;"/><path d="M430.732,278.424c2.21625,0 4.00706,1.80148 4.00706,4.01774c0,2.21269 -1.7908,4.01952 -4.00706,4.01952c-2.22337,0 -4.01774,-1.80682 -4.01774,-4.01952c0.00178012,-2.21625 1.79436,-4.01774 4.01774,-4.01774" style="fill:#fff;fill-rule:nonzero;"/><path d="M443.774,286.461c-2.21091,0 -4.01596,-1.80682 -4.01596,-4.01952c0,-2.21625 1.80504,-4.01774 4.01596,-4.01774c2.21625,0 4.0213,1.80148 4.0213,4.01774c-0.00178012,2.21269 -1.80504,4.01952 -4.0213,4.01952" style="fill:#fff;fill-rule:nonzero;"/><path d="M443.774,273.164c-2.21091,0 -4.01596,-1.8086 -4.01596,-4.01952c0,-2.21091 1.80504,-4.00528 4.01596,-4.00528c2.21625,0 4.0213,1.79436 4.0213,4.00528c-0.00178012,2.21447 -1.80504,4.01952 -4.0213,4.01952" style="fill:#fff;fill-rule:nonzero;"/><path d="M443.774,259.869c-2.21091,0 -4.01596,-1.79614 -4.01596,-4.01596c0,-2.21447 1.80504,-4.00884 4.01596,-4.00884c2.21625,0 4.0213,1.79436 4.0213,4.00884c-0.00178012,2.21981 -1.80504,4.01596 -4.0213,4.01596" style="fill:#fff;fill-rule:nonzero;"/><path d="M450.301,240.242c0,2.21625 -1.80326,4.00884 -4.01952,4.00884l-30.5967,0c-2.22515,0 -4.01774,-1.79258 -4.01774,-4.00884l0,-22.1323c0,-2.21625 1.79258,-4.01062 4.01774,-4.01062l30.5967,0c2.21625,0 4.01952,1.79436 4.01952,4.01062l0,22.1323Z" style="fill:#fff;fill-rule:nonzero;"/><path d="M429.835,231.406l-2.66662,2.35154c-0.0801055,0.0694248 -0.202934,0.0623043 -0.274139,-0.0178012l-2.44945,-2.77877c-0.0694248,-0.0801055 -0.0623043,-0.202934 0.0178012,-0.274139l2.66662,-2.35154c0.0818856,-0.0694248 0.204714,-0.0623043 0.275919,0.0195813l2.44767,2.77521c0.0712049,0.0818856 0.0640844,0.204714 -0.0178012,0.275919M437.454,224.499c-0.0249217,-0.708489 -0.569639,-0.482413 -0.752992,-0.421889c0.738751,-0.461052 1.37603,-1.81216 1.21048,-2.39604c-0.129949,-0.457491 -0.43079,-0.300841 -0.799275,0.0551838c1.07163,-2.41919 -0.514455,-3.72046 -0.514455,-3.71868c-0.272359,-0.179792 -0.468172,0.0623043 -0.462832,0.421889c0.0534037,2.9105 -2.07206,4.59272 -4.3969,5.98655c-1.74452,1.1286 -2.36222,3.02621 -2.57762,4.38444c-0.0534037,0.167332 -0.178012,0.0854459 -0.240317,0.0356025l-1.34221,-1.52378c-0.14597,-0.165551 -0.352464,-0.247437 -0.557178,-0.238536c-0.160211,0.00534037 -0.318642,0.0640844 -0.446811,0.178012l-0.058744,0.0516236l-0.00178012,0l-0.00178012,0l-0.323982,-0.368485c-0.0979067,-0.108587 -0.227856,-0.165551 -0.354244,-0.165551c-0.0996869,0 -0.194033,0.0320422 -0.270579,0.0979067l-0.181572,0.161991c-0.176232,0.15131 -0.181572,0.43613 -0.0106807,0.630163l0.325762,0.368485l-2.20913,1.94745c-0.29372,0.259898 -0.322202,0.706709 -0.0623043,1.00399l7.65097,8.67276c0.14597,0.163771 0.350684,0.245657 0.555398,0.242097c0.161991,-0.00712049 0.318642,-0.0658645 0.446811,-0.178012l3.08673,-2.72359c0.2955,-0.261678 0.323982,-0.710269 0.0640844,-1.00221l-2.5883,-2.93542c-0.00356025,-0.00356025 -0.00356025,-0.00534037 -0.00534037,-0.00712049c-0.0961266,-0.153091 0.174452,-0.121048 0.174452,-0.121048l0,-0.00178012c0.416549,0.0124609 0.72807,-0.0854459 0.948805,-0.231416c0.334663,-0.226076 -0.0445031,-0.393407 -0.106807,-0.557178c0.518016,0.252777 1.53447,0.0373826 1.78724,-0.28838c0.197594,-0.256338 -0.14241,-0.361365 -0.469952,-0.43435c0.822417,-0.382726 1.4775,-0.761892 1.82641,-1.66797c0.206494,-0.528696 -0.359585,-0.546498 -0.925664,-0.332883c0.462832,-0.461052 0.925664,-1.08765 1.15352,-1.89405c0.259898,-0.911423 -0.0801055,-1.36891 -0.813516,-0.756552c0.669326,-0.655085 1.26923,-1.52378 1.24431,-2.27322" style="fill:#787878;fill-rule:nonzero;"/><rect x="785.201" y="259.056" width="151.652" height="94.9909" style="fill:#fff;fill-rule:nonzero;"/><path d="M827.257,329.078l-0.0231416,0l-0.966607,5.46854l-1.06629,0l1.6929,-8.63181l2.84108,6.52415l2.84464,-6.52415l1.69112,8.63181l-1.06273,0l-0.966607,-5.46854l-0.0249217,0l-2.48505,5.64655l-2.47437,-5.64655Z" style="fill:#000;fill-rule:nonzero;"/><path d="M835.254,326.265l4.44675,0l0,0.945245l-3.41249,0l0,2.3195l3.31459,0l0,0.941685l-3.31459,0l0,3.13302l3.41249,0l0,0.941685l-4.44675,0l0,-8.28113Z" style="fill:#000;fill-rule:nonzero;"/><path d="M841.893,333.605l0.363145,0c2.10945,0 3.92873,-0.790374 3.92873,-3.19532c0,-2.41385 -1.81929,-3.19888 -3.92873,-3.19888l-0.363145,0l0,6.3942ZM840.862,326.265l1.71426,0c2.53489,0 4.64256,1.33865 4.64256,4.09962c0,2.82327 -2.06494,4.18507 -4.67816,4.18507l-1.67866,0l0,-8.28469Z" style="fill:#000;fill-rule:nonzero;"/><rect x="848.337" y="326.27" width="1.03247" height="8.28113" style="fill:#000;fill-rule:nonzero;"/><path d="M857.015,327.849c-0.594561,-0.528696 -1.40452,-0.813516 -2.18777,-0.813516c-1.85489,0 -3.27187,1.54693 -3.27187,3.38045c0,1.81751 1.4063,3.36087 3.2505,3.36087c0.813516,0 1.59321,-0.306181 2.20735,-0.856239l0,1.22294c-0.635504,0.375606 -1.44902,0.58388 -2.17531,0.58388c-2.36222,0 -4.31324,-1.87625 -4.31324,-4.27407c0,-2.44945 1.96526,-4.3613 4.40224,-4.3613c0.72451,0 1.4597,0.176232 2.08986,0.562519l0,1.19802l-0.00178012,-0.00356025Z" style="fill:#000;fill-rule:nonzero;"/><path d="M868.687,327.696l-0.0249217,0l-2.88914,7.12761l-2.87846,-7.12761l-0.0213615,0l-1.41698,6.85525l-0.505555,0l1.78012,-8.55883l3.04223,7.5317l3.05291,-7.5317l1.78012,8.55883l-0.505555,0l-1.41342,-6.85525Z" style="fill:#000;fill-rule:nonzero;"/><path d="M871.79,330.406c0,2.0418 1.7018,3.75606 3.76852,3.75606c2.05426,0 3.76674,-1.72316 3.76674,-3.75606c0,-2.04002 -1.71248,-3.7525 -3.76674,-3.7525c-2.06672,-0.00178012 -3.76852,1.71248 -3.76852,3.7525M879.85,330.406c0,2.33196 -1.96526,4.25627 -4.29188,4.25627c-2.32662,0 -4.29544,-1.92431 -4.29544,-4.25627c0,-2.3284 1.95813,-4.25093 4.29544,-4.25093c2.32662,0 4.29188,1.92431 4.29188,4.25093" style="fill:#000;fill-rule:nonzero;"/><path d="M881.852,334.05l1.26389,0c0.58032,0 1.182,0.0302621 1.68756,-0.316862c0.501995,-0.338223 0.811736,-0.854459 0.811736,-1.47394c0,-0.601681 -0.2955,-1.20692 -0.854459,-1.4775c-0.503775,-0.254558 -1.19624,-0.265238 -1.74986,-0.265238l-1.15886,0l0,3.53354ZM881.852,330.023l0.913203,0c0.558958,0 1.00933,0.0338223 1.48106,-0.307961c0.473513,-0.338223 0.614142,-0.758332 0.614142,-1.33153c0,-0.534037 -0.208274,-1.06629 -0.680007,-1.36001c-0.414769,-0.265238 -0.931004,-0.265238 -1.4152,-0.265238l-0.913203,0l0,3.26474ZM881.325,334.55l0,-8.28113l1.65729,0c0.626603,0 1.22116,0.0445031 1.71604,0.480633c0.503775,0.43969 0.690688,1.05561 0.690688,1.7107c0,0.763673 -0.2955,1.31907 -0.954146,1.69468c1.02001,0.208274 1.71426,1.03247 1.71426,2.08096c0,0.667546 -0.254558,1.27813 -0.770793,1.7196c-0.58032,0.489534 -1.19446,0.591001 -1.93143,0.591001l-2.12191,0l0,0.00356025Z" style="fill:#000;fill-rule:nonzero;"/><rect x="887.658" y="326.27" width="0.526916" height="8.28113" style="fill:#000;fill-rule:nonzero;"/><path d="M890.65,334.05l2.11123,0l0,0.493094l-2.63814,0l0,-8.27757l0.528696,0l0,7.78448l-0.00178012,0Z" style="fill:#000;fill-rule:nonzero;"/><path d="M894.366,326.762l0,3.00841l3.33417,0l0,0.493094l-3.33417,0l0,3.78632l3.42852,0l0,0.493094l-3.95899,0l0,-8.28113l3.95899,0l0,0.489534l-3.42852,0l0,0.0106807Z" style="fill:#000;fill-rule:nonzero;"/><rect x="793.758" y="267.633" width="134.538" height="7.62426" style="fill:#58595b;fill-rule:nonzero;"/><rect x="793.758" y="275.257" width="134.538" height="4.57491" style="fill:#64a2c8;fill-rule:nonzero;"/><path d="M857.846,307.605l-4.48235,3.95009c-0.131729,0.117488 -0.340003,0.106807 -0.459272,-0.0302621l-4.11386,-4.6657c-0.115708,-0.131729 -0.105027,-0.338223 0.0302621,-0.461052l4.47701,-3.94831c0.135289,-0.119268 0.343564,-0.105027 0.464612,0.028482l4.1103,4.6657c0.119268,0.129949 0.106807,0.340003 -0.0267018,0.461052M870.634,296.002c-0.0373826,-1.19268 -0.957706,-0.804615 -1.26745,-0.706709c1.24431,-0.774353 2.31772,-3.04223 2.03468,-4.02664c-0.218955,-0.765453 -0.72273,-0.503775 -1.33865,0.0961266c1.7997,-4.06046 -0.86514,-6.24289 -0.86514,-6.23933c-0.459272,-0.304401 -0.783254,0.103247 -0.779694,0.704929c0.0943465,4.88822 -3.47658,7.71505 -7.38039,10.0541c-2.93008,1.89227 -3.96967,5.08225 -4.32926,7.36081c-0.0890061,0.281259 -0.302621,0.14597 -0.402308,0.058744l-2.2572,-2.55982c-0.245657,-0.277699 -0.591001,-0.411208 -0.936344,-0.404088c-0.265238,0.0124609 -0.534037,0.106807 -0.747651,0.299061l-0.101467,0.0925664l0,-0.00356025l-0.00356025,0.00356025l-0.542937,-0.621263c-0.160211,-0.183353 -0.382726,-0.275919 -0.596341,-0.279479c-0.165551,-0.00178012 -0.325762,0.0534037 -0.453931,0.167332l-0.302621,0.261678c-0.2955,0.261678 -0.304401,0.735191 -0.0178012,1.06273l0.542937,0.617703l-3.70978,3.27009c-0.496654,0.43613 -0.539377,1.18912 -0.106807,1.68578l12.8525,14.5667c0.240317,0.277699 0.58744,0.414769 0.927444,0.404088c0.274139,-0.00712049 0.541157,-0.105027 0.754772,-0.2955l5.18372,-4.5767c0.493094,-0.43257 0.539377,-1.18912 0.103247,-1.684l-4.34706,-4.92382c0,-0.00356025 -0.00356025,-0.00712049 -0.00712049,-0.0106807c-0.160211,-0.258118 0.28838,-0.210054 0.28838,-0.210054l0,-0.00534037c0.704929,0.028482 1.2265,-0.137069 1.59855,-0.386287c0.558958,-0.379166 -0.0801055,-0.653305 -0.178012,-0.927444c0.86514,0.416549 2.57228,0.0605242 2.99951,-0.484193c0.331103,-0.427229 -0.238536,-0.610582 -0.783254,-0.73341c1.37247,-0.640844 2.47615,-1.28169 3.06359,-2.80013c0.347124,-0.890061 -0.605242,-0.913203 -1.55227,-0.553618c0.777914,-0.781474 1.55227,-1.82997 1.93855,-3.1793c0.43791,-1.53447 -0.135289,-2.30348 -1.36891,-1.27101c1.12504,-1.10368 2.13259,-2.56516 2.08808,-3.8237" style="fill:#58595b;fill-rule:nonzero;"/><rect x="841.03" y="269.158" width="9.14983" height="6.0987" style="fill:#64a2c8;fill-rule:nonzero;"/><rect x="853.225" y="269.158" width="9.15161" height="6.0987" style="fill:#cc8c21;fill-rule:nonzero;"/><rect x="865.426" y="269.158" width="9.15161" height="6.0987" style="fill:#78b1b1;fill-rule:nonzero;"/><path d="M928.275,345.467l-134.483,0l0,-77.8305l134.483,0l0,77.8305ZM936.857,259.056l-151.656,0l0,94.9909l151.654,0l0,-94.9909l0.00178012,0Z" style="fill:#b3b3b3;fill-rule:nonzero;"/><path d="M876.878,371.074l-31.7004,0l0,-5.19796l31.7004,0l0,5.19796ZM776.141,360.202c0,0 3.40537,16.5356 15.6046,16.5356l0,0.00890061l138.568,0l0,-0.00890061c12.1974,0 15.6028,-16.5356 15.6028,-16.5356l-169.776,0Z" style="fill:#b3b3b3;fill-rule:nonzero;"/><path d="M359.587,143.323c0,10.978 -8.86679,19.9231 -19.9,19.9231c-11.0546,0 -19.9231,-8.94512 -19.9231,-19.9231c0,-11.0314 8.86857,-19.9801 19.9231,-19.9801c11.0332,0 19.9,8.94868 19.9,19.9801" style="fill:#64a2c8;fill-rule:nonzero;"/><path d="M385.952,245.829c0,0 -10.4956,-50.8421 -15.4568,-61.0511l0,-0.0765453c-4.98078,-10.1912 -9.96513,-16.3237 -28.8522,-16.3237l-3.90737,0c-18.8871,0 -23.8697,6.13252 -28.8504,16.3237l0,0.0765453c-4.979,10.2108 -15.4782,61.0511 -15.4782,61.0511c-0.786814,3.42852 1.32085,6.85703 4.82591,7.6207c0.462832,0.154871 0.920323,0.233196 1.38138,0.233196c2.96568,0 5.55576,-2.01154 6.24111,-4.9612l14.1573,-50.3258l-13.7924,84.0823l13.3118,0l4.1192,75.0535c0,2.56516 2.10945,4.73157 4.6746,4.73157c2.71825,0 4.90424,-2.16641 4.90424,-4.73157l4.04266,-75.0535l4.82769,0l4.04266,75.0535c0,2.56516 2.16107,4.73157 4.88288,4.73157c2.56694,0 4.6746,-2.16641 4.6746,-4.73157l4.11564,-75.0535l13.3171,0l-13.7746,-84.0823l14.1573,50.3258c0.690688,2.94966 3.33239,4.9612 6.22687,4.9612c0.459272,0 0.918543,-0.0783254 1.47394,-0.233196c3.41606,-0.763673 5.52372,-4.19219 4.73513,-7.6207" style="fill:#64a2c8;fill-rule:nonzero;"/><rect x="336.019" y="194.672" width="7.07777" height="7.07777" style="fill:#fff;fill-rule:nonzero;stroke-width:0.4px;stroke:#fff;"/><rect x="336.019" y="180.569" width="7.07777" height="7.07777" style="fill:#fff;fill-rule:nonzero;stroke-width:0.4px;stroke:#fff;"/><rect x="343.081" y="187.611" width="7.07777" height="7.07777" style="fill:#fff;fill-rule:nonzero;stroke-width:0.4px;stroke:#fff;"/><rect x="336.019" y="187.611" width="7.07777" height="7.07777" style="fill:#fff;fill-rule:nonzero;stroke-width:0.4px;stroke:#fff;"/><rect x="328.922" y="187.611" width="7.07777" height="7.07777" style="fill:#fff;fill-rule:nonzero;stroke-width:0.4px;stroke:#fff;"/></g></g></svg>