<?xml version="1.0" standalone="no"?><!DOCTYPE svg PUBLIC "-//W3C//DTD SVG 1.1//EN" "http://www.w3.org/Graphics/SVG/1.1/DTD/svg11.dtd"><svg width="100%" height="100%" viewBox="0 0 980 452" version="1.1" xmlns="http://www.w3.org/2000/svg" xmlns:xlink="http://www.w3.org/1999/xlink" xml:space="preserve" style="fill-rule:evenodd;clip-rule:evenodd;stroke-miterlimit:10;"><g id="disease-diagram"><g id="Layer 1"><path d="M850.385,210.038l12.6715,0l0,16.4207l-12.6715,0l0,12.668l-16.4207,0l0,-12.668l-12.6801,0l0,-16.4207l12.6801,0l0,-12.6819l16.4207,0l0,12.6819ZM948.55,251.301l-13.4484,0l0,-13.4502l13.4484,0l0,13.4502ZM948.55,274.153l-13.4484,0l0,-13.4676l13.4484,0l0,13.4676ZM948.55,297.772l-13.4484,0l0,-13.4519l13.4484,0l0,13.4519ZM927.594,251.301l-13.4502,0l0,-13.4502l13.4502,0l0,13.4502ZM927.594,274.153l-13.4502,0l0,-13.4676l13.4502,0l0,13.4676ZM927.594,297.772l-13.4502,0l0,-13.4519l13.4502,0l0,13.4519ZM842.168,251.329c-18.2754,0 -33.0866,-14.8129 -33.0866,-33.0866c0,-18.2754 14.8251,-33.0866 33.0866,-33.0866c18.2754,0 33.0866,14.8112 33.0866,33.0866c0.0017382,18.2719 -14.8112,33.0866 -33.0866,33.0866M863.056,335.475l-39.5057,0l0,-49.2866l39.5057,0l0,49.2866ZM773.962,251.301l-13.4536,0l0,-13.4502l13.4536,0l0,13.4502ZM773.962,274.153l-13.4536,0l0,-13.4676l13.4536,0l0,13.4676ZM773.962,297.772l-13.4536,0l0,-13.4519l13.4536,0l0,13.4519ZM753.008,251.301l-13.4502,0l0,-13.4502l13.4502,0l0,13.4502ZM753.008,274.153l-13.4502,0l0,-13.4676l13.4502,0l0,13.4676ZM753.008,297.772l-13.4502,0l0,-13.4519l13.4502,0l0,13.4519ZM960.27,336.094c0.300708,-0.933412 0.479742,-1.93809 0.479742,-2.9671l0,-109.348c0,-5.19547 -4.20644,-9.38279 -9.38453,-9.38279l-52.2432,0l0,116.381c0,1.86856 -0.344163,3.65369 -0.93515,5.31888l-6.12367,0c0.300708,-0.933412 0.479742,-1.93809 0.479742,-2.9671l0,-150.185c0,-5.17983 -4.20644,-9.38453 -9.38626,-9.38453l-81.9734,0c-5.17983,0 -9.38626,4.2047 -9.38626,9.38453l0,150.185c0,1.02901 0.182511,2.03369 0.493648,2.9671l-6.12541,0c-0.592725,-1.66519 -0.93515,-3.44858 -0.93515,-5.31888l0,-116.381l-50.9917,0c-5.19026,0 -9.38279,4.18732 -9.38279,9.38279l0,109.348c0,1.02901 0.180772,2.03369 0.479742,2.9671l-16.1305,0l0,19.4018l265.948,0l0,-19.4018l-14.8824,0Z" style="fill:#646464;fill-rule:nonzero;"/><path d="M121.135,289.615c2.74287,0 4.9782,-2.22663 4.9782,-4.96081c0,-2.72897 -2.23532,-4.9556 -4.9782,-4.9556c-2.7394,0 -4.96777,2.22315 -4.96777,4.9556c0,2.73245 2.22837,4.96081 4.96777,4.96081" style="fill:#cc8c21;fill-rule:nonzero;"/><path d="M125.92,292.122l-9.25938,0c-2.4526,0 -4.44283,1.45313 -4.44283,3.90747l-0.0121674,13.4745l4.0639,0l0.990772,17.382l8.91,0l0.989034,-17.382l3.2035,0l-0.00869099,-13.4745c0.0017382,-2.45433 -1.98328,-3.90747 -4.43414,-3.90747" style="fill:#cc8c21;fill-rule:nonzero;"/><path d="M99.3557,283.197c2.74287,0 4.97646,-2.22663 4.97646,-4.96081c0,-2.72723 -2.23358,-4.95908 -4.97646,-4.95908c-2.7394,0 -4.96777,2.22663 -4.96777,4.95908c-0.0017382,2.73418 2.22837,4.96081 4.96777,4.96081" style="fill:#cc8c21;fill-rule:nonzero;"/><path d="M104.139,285.173l-9.25764,0c-2.4526,0 -4.44283,1.44966 -4.44283,3.90399l-0.0121674,13.4745l4.0639,0l0.989034,17.382l8.91174,0l0.989034,-17.382l3.2035,0l-0.00869099,-13.4745c0,-2.45086 -1.98328,-3.90399 -4.43588,-3.90399" style="fill:#cc8c21;fill-rule:nonzero;"/><path d="M31.8502,243.614c5.74996,0 10.4431,-4.67923 10.4431,-10.424c0.0017382,-5.74822 -4.69313,-10.4188 -10.4431,-10.4188c-5.75865,0 -10.4396,4.67054 -10.4396,10.4188c0,5.74474 4.67923,10.424 10.4396,10.424" style="fill:#cc8c21;fill-rule:nonzero;"/><path d="M41.8872,246.951l-19.44,0c-5.15202,0 -9.32717,3.92311 -9.32717,9.0786l-0.0312875,29.1426l6.88674,0l2.02326,38.2403l19.221,0l2.02152,-38.2403l7.98006,0l-0.017382,-29.1426c0.0017382,-5.15723 -4.17167,-9.0786 -9.31674,-9.0786" style="fill:#cc8c21;fill-rule:nonzero;"/><path d="M37.2838,156.899c2.7533,0 5.00079,-2.24054 5.00079,-4.99036c0.0017382,-2.75157 -2.24749,-4.99036 -5.00079,-4.99036c-2.75852,0 -4.99905,2.2388 -4.99905,4.99036c0,2.74809 2.24054,4.99036 4.99905,4.99036" style="fill:#cc8c21;fill-rule:nonzero;"/><path d="M42.0901,158.303l-9.30978,0c-2.4665,0 -4.46717,2.28051 -4.46717,4.75049l-0.0139056,14.3697l3.89878,0l0,17.382l10.4292,0l0,-17.382l3.93528,0l-0.00695279,-14.3697c0,-2.46998 -2.00066,-4.75049 -4.46543,-4.75049" style="fill:#cc8c21;fill-rule:nonzero;"/><path d="M11.2303,108.047c3.44163,0 6.25229,-2.80024 6.25229,-6.24013c0.0017382,-3.43989 -2.80893,-6.23665 -6.25229,-6.23665c-3.44684,0 -6.24882,2.79676 -6.24882,6.23665c0,3.43989 2.80024,6.24013 6.24882,6.24013" style="fill:#cc8c21;fill-rule:nonzero;"/><path d="M17.2394,109.634l-11.6372,0c-3.08356,0 -5.58483,2.20056 -5.58483,5.28586l-0.017382,17.3107l4.38721,0l0,22.5966l13.9056,0l0,-22.5966l4.53322,0l-0.00869099,-17.3107c0.0017382,-3.0853 -2.49779,-5.28586 -5.57787,-5.28586" style="fill:#cc8c21;fill-rule:nonzero;"/><path d="M252.82,122.135c2.7533,0 5.00079,-2.24054 5.00079,-4.99036c0.0017382,-2.75157 -2.24749,-4.99036 -5.00079,-4.99036c-2.75852,0 -4.99905,2.2388 -4.99905,4.99036c0,2.74809 2.24054,4.99036 4.99905,4.99036" style="fill:#cc8c21;fill-rule:nonzero;"/><path d="M257.627,123.539l-9.30978,0c-2.4665,0 -4.46717,2.28051 -4.46717,4.75049l-0.0139056,14.3697l3.89878,0l0,17.382l10.4292,0l0,-17.382l3.93528,0l-0.00695279,-14.3697c0,-2.46998 -2.00066,-4.75049 -4.46543,-4.75049" style="fill:#cc8c21;fill-rule:nonzero;"/><path d="M233.72,181.051c3.44163,0 6.25229,-2.80024 6.25229,-6.24013c0.0017382,-3.43989 -2.80893,-6.23665 -6.25229,-6.23665c-3.44684,0 -6.24882,2.79676 -6.24882,6.23665c0,3.43989 2.80024,6.24013 6.24882,6.24013" style="fill:#cc8c21;fill-rule:nonzero;"/><path d="M239.729,182.638l-11.6372,0c-3.08356,0 -5.58483,2.20056 -5.58483,5.28586l-0.017382,17.3107l4.38721,0l0,22.5966l13.9056,0l0,-22.5966l4.53322,0l-0.00869099,-17.3107c0.0017382,-3.0853 -2.49779,-5.28586 -5.57787,-5.28586" style="fill:#cc8c21;fill-rule:nonzero;"/><path d="M240.961,102.095c-3.88835,0.900386 -15.1032,3.06096 -26.4328,3.97526c-0.969914,-6.13584 -3.30605,-10.6916 -6.35832,-12.6106c0.422382,-0.00869099 0.839549,-0.0295493 1.26367,-0.0365021c0.641395,-0.017382 1.27757,-0.0365021 1.91897,-0.0608369c1.10028,-0.0382403 2.1936,-0.0921244 3.28693,-0.147747c0.594463,-0.0365021 1.19414,-0.0625751 1.78165,-0.100815c1.26367,-0.0834335 2.51169,-0.180772 3.74755,-0.290279c0.384142,-0.0330257 0.771759,-0.0625751 1.15069,-0.0956008c1.60262,-0.151223 3.17742,-0.325043 4.72268,-0.521459c0.399785,-0.0521459 0.785665,-0.107768 1.1785,-0.163391c1.14895,-0.156438 2.2753,-0.314614 3.37558,-0.493648c0.526674,-0.0869099 1.0377,-0.177296 1.55047,-0.264206c0.957747,-0.163391 1.89463,-0.33721 2.81762,-0.519721c0.516245,-0.104292 1.03249,-0.208584 1.5383,-0.314614c0.919506,-0.198154 1.80251,-0.399785 2.67509,-0.615322c0.448455,-0.107768 0.893433,-0.21206 1.33146,-0.326781c0.146009,-0.0399785 0.309399,-0.0712661 0.453669,-0.111245c0.0643133,7.49858 0.0399785,11.0376 -0.0017382,12.6975M195.127,106.071c-6.75985,-0.516245 -13.3806,-1.44618 -18.451,-2.32745c-1.79556,-0.964699 -3.64674,-1.95547 -5.56745,-2.97753c-0.328519,-0.180772 -0.681373,-0.309399 -1.04292,-0.398047c-0.132103,-0.0330257 -0.257253,-0.0660515 -0.380665,-0.0938626c-0.300708,-0.321566 -0.662253,-0.580558 -1.04987,-0.803047c-0.0434549,-2.03021 -0.0434549,-5.15723 0.0730043,-10.0572c0.170343,0.0469313 0.351116,0.0851717 0.521459,0.128627c0.406738,0.10603 0.832596,0.201631 1.24629,0.302446c0.905601,0.219013 1.82685,0.429335 2.77764,0.632704c0.471051,0.0990772 0.950794,0.198154 1.43575,0.295493c0.961223,0.187725 1.93983,0.368498 2.93755,0.542317c0.476266,0.0816953 0.949056,0.165129 1.43923,0.243348c1.15938,0.184249 2.34309,0.358069 3.54245,0.514506c0.338948,0.0469313 0.672682,0.097339 1.01511,0.140794c1.55221,0.194678 3.13745,0.36676 4.74528,0.521459c0.368498,0.0312875 0.749163,0.0590987 1.11766,0.0903862c1.24281,0.107768 2.49605,0.208584 3.7632,0.292017c0.590987,0.0365021 1.18893,0.0643133 1.78687,0.102554c1.06899,0.0521459 2.14841,0.107768 3.23826,0.14427c0.650086,0.026073 1.30712,0.0469313 1.96069,0.0608369c0.411953,0.00869099 0.820429,0.0295493 1.23412,0.0365021c-3.0488,1.91897 -5.37798,6.47131 -6.34268,12.6089M189.99,158.366c2.14494,-0.403262 4.23425,-0.836073 6.27663,-1.288c0.206845,-0.0469313 0.420644,-0.0903862 0.625751,-0.135579c1.99719,-0.448455 3.93702,-0.928197 5.81601,-1.42358c0.112983,-0.0295493 0.234657,-0.0521459 0.347639,-0.0851717c0.114721,13.7544 0.0608369,20.1805 -0.0139056,23.1789c-7.11965,1.63564 -27.5869,5.58483 -48.2419,7.25176c-1.76601,-11.2009 -6.04371,-19.5113 -11.6129,-23.012c0.0903862,-0.00347639 0.179034,0.455408 0.272897,0.455408c2.66813,-0.0538841 5.32931,0.21206 7.96094,0.21206l0.0764807,0c2.58991,0 5.15723,-0.721352 7.70195,-0.900386c0.278112,-0.0139056 0.557961,-0.264206 0.834335,-0.288541c2.53255,-0.17382 5.03034,-0.493648 7.49163,-0.733519c0.0695279,-0.00347639 0.137318,-0.0677897 0.201631,-0.0782189c2.46476,-0.238133 4.89998,-0.533626 7.29174,-0.827382c0.14427,-0.0156438 0.288541,-0.0486695 0.431073,-0.0677897c2.33961,-0.286803 4.63577,-0.618798 6.89543,-0.957747c0.29897,-0.0486695 0.592725,-0.097339 0.891695,-0.14427c2.25966,-0.351116 4.48281,-0.728305 6.64165,-1.13504c0.0365021,-0.00869099 0.0747425,-0.0121674 0.111245,-0.0208584M119.39,185.878c-21.83,-1.66519 -41.9844,-5.57961 -48.1342,-7.23611c-0.203369,-2.49779 -0.418905,-8.57105 -0.0643133,-23.1632c0.179034,0.0451931 0.375451,0.0851717 0.554485,0.132103c1.77818,0.467575 3.60502,0.912553 5.48923,1.34015c0.326781,0.0730043 0.662253,0.14427 0.99251,0.215536c1.83554,0.401524 3.71105,0.787403 5.63002,1.14721c0.217275,0.0451931 0.427596,0.0851717 0.646609,0.126888c2.06498,0.382403 4.18384,0.738734 6.33747,1.07073c0.399785,0.0608369 0.797832,0.12515 1.19588,0.182511c2.1797,0.333734 4.3959,0.641395 6.65382,0.919506c0.227704,0.0347639 0.457146,0.0521459 0.683111,0.0816953c2.27009,0.274635 4.57667,0.531888 6.91281,0.757854c0.159914,0.0139056 0.314614,0.0312875 0.471051,0.0469313c2.41783,0.234657 4.87564,0.431073 7.35257,0.603154c0.305923,0.026073 0.615322,0.0451931 0.922983,0.0643133c2.5256,0.170343 5.07206,0.31809 7.64111,0.431073c0.0278112,0.00347639 0.0504077,0.00347639 0.0782189,0.00347639c2.6577,0.116459 5.33626,0.198154 8.03221,0.245086c0.0608369,0 0.12515,0.00347639 0.189463,0.00521459c-5.56918,3.49725 -9.82603,11.8128 -11.5851,23.0259M76.253,106.18c-0.966438,-6.13584 -3.30431,-10.6882 -6.35659,-12.6124c0.476266,-0.0104292 0.947317,-0.0312875 1.42185,-0.0451931c0.528412,-0.0104292 1.05161,-0.0295493 1.58002,-0.0486695c1.24976,-0.0417167 2.48736,-0.100815 3.71627,-0.166867c0.469313,-0.0312875 0.936888,-0.0521459 1.40446,-0.0782189c1.47573,-0.0956008 2.93408,-0.206845 4.3733,-0.340687c0.187725,-0.0191202 0.380665,-0.0312875 0.564914,-0.0451931c1.66693,-0.159914 3.2991,-0.33721 4.90172,-0.540579c0.252039,-0.0347639 0.488433,-0.0695279 0.733519,-0.102554c1.30365,-0.172082 2.58296,-0.35633 3.8362,-0.556223c0.436287,-0.0712661 0.862146,-0.149485 1.29322,-0.219013c1.05161,-0.180772 2.08236,-0.373712 3.08878,-0.573605c0.450193,-0.0938626 0.893433,-0.180772 1.33146,-0.274635c1.00468,-0.213798 1.97807,-0.438026 2.93408,-0.67442c0.365021,-0.088648 0.743948,-0.17382 1.10028,-0.267682c0.170343,-0.0469313 0.351116,-0.0834335 0.516245,-0.128627c0.0538841,5.99678 0.0451931,9.42624 0.0191202,11.4182c-1.29496,0.688326 -2.60382,1.38882 -3.93006,2.09974c-5.31193,1.03423 -13.8847,2.45607 -22.5288,3.15657M56.8477,106.18c-11.9657,-0.91603 -23.0103,-3.05575 -26.3806,-3.95961c-0.111245,-1.36622 -0.227704,-4.70182 -0.0365021,-12.6958c0.177296,0.0434549 0.370236,0.0851717 0.547532,0.132103c0.375451,0.0990772 0.768283,0.185987 1.15242,0.281588c0.940365,0.229442 1.89811,0.450193 2.88888,0.658777c0.441502,0.0938626 0.88648,0.182511 1.33667,0.272897c1.00642,0.199893 2.03543,0.389356 3.08356,0.566652c0.431073,0.0764807 0.855193,0.149485 1.29322,0.219013c1.2515,0.199893 2.52908,0.387618 3.82925,0.556223c0.248562,0.0312875 0.483219,0.0677897 0.730043,0.100815c1.59219,0.199893 3.21566,0.378927 4.86869,0.531888c0.23118,0.0225966 0.465837,0.0365021 0.691802,0.0573605c1.3923,0.12515 2.79676,0.23118 4.2273,0.326781c0.486695,0.0278112 0.975129,0.0556223 1.46704,0.0834335c1.19588,0.0643133 2.39871,0.118197 3.61197,0.161652c0.545794,0.0225966 1.09506,0.0399785 1.64607,0.0521459c0.465837,0.0121674 0.921244,0.0347639 1.38882,0.0434549c-3.05227,1.92245 -5.3832,6.47305 -6.34616,12.6106M209.494,51.8631l0,-0.213798c0,-4.30899 -1.82685,-7.09184 -4.34375,-7.09184c-2.51691,0 -4.34723,2.78285 -4.34723,7.09184l0,0.21206c-46.9313,23.4865 -46.389,27.1802 -46.389,28.7654c0,1.01858 -0.0295493,4.00307 9.46796,7.30564c-0.104292,3.84663 -0.158176,6.72508 -0.158176,8.91174c-8.42678,-4.43066 -15.4734,-8.04438 -19.101,-9.89382c0.00347639,-0.132103 -0.0017382,-0.264206 -0.0017382,-0.394571c0,-7.8636 -2.94624,-12.9426 -7.53508,-12.9426c-4.59753,0 -7.54899,5.08075 -7.54899,12.9444l0,0.398047c-3.47639,2.04586 -12.2021,6.2436 -21.8665,11.3487c0.00347639,-2.44738 -0.0312875,-5.74126 -0.0799571,-10.2901c9.39843,-3.28693 9.29588,-6.25925 9.29588,-7.27435c0,-1.58524 0.483219,-5.28238 -46.4481,-28.7672l0,-0.210322c0,-4.30899 -1.51049,-7.09358 -4.02566,-7.09358c-2.51691,0 -4.08824,2.78633 -4.08824,7.09358c0,0.0695279 0.0295493,0.140794 0.0312875,0.210322c-46.323,23.4813 -46.3125,27.1784 -46.3125,28.7637c0,1.01511 0.0191202,4.00133 9.51141,7.30564c-0.448455,16.5337 0.149485,17.0517 1.29843,17.9399c1.8703,1.45487 18.7273,4.40633 31.9846,5.22502l2.37264,0.149485l0.220751,-2.35352c0.00347639,-0.0365021 0.0104292,-0.0695279 0.0156438,-0.104292c0.297232,0.0121674 0.596202,0.0330257 0.891695,0.0417167l-0.0104292,2.44043c1.48442,0.0556223 2.95841,0.285064 4.40285,0.285064c2.98101,0 6.42785,-0.293755 10.0242,-0.293755l0.0330257,0c2.99665,0 6.09064,-0.773498 9.10815,-1.1559c-40.9172,22.5757 -40.9258,25.9565 -40.9258,29.3164c0,1.85813 0.0208584,7.25176 17.3385,13.2798c-0.827382,30.2655 0.264206,31.0911 2.35526,32.7094c3.4173,2.66813 34.1799,8.05133 58.3687,9.54618l4.33159,0.262468l0.399785,-4.30378c0.00521459,-0.0643133 0.0139056,-0.121674 0.0225966,-0.19294c0.474528,0.026073 0.95427,0.0573605 1.43054,0.0730043l-0.0243348,4.45674c2.78112,0.10603 5.53442,0.165129 8.23558,0.165129c5.40405,0 11.5677,-0.326781 18.0964,-0.86736l0.0834335,-0.00521459l0,-0.0104292c24.3348,-2.02674 52.2676,-7.02058 54.7289,-9.44362c1.67736,-1.65824 1.90854,-1.85118 1.59219,-32.4956c17.1508,-5.99852 17.1995,-11.4147 17.1995,-13.2677c0,-3.22436 -0.0208584,-6.84676 -40.2705,-29.0609c2.69594,0.293755 5.48054,0.544056 8.25644,0.716137l2.37612,0.151223l0.222489,-2.35352c0.00347639,-0.0365021 0.0121674,-0.0677897 0.0191202,-0.102554c0.292017,0.00869099 0.594463,0.0312875 0.88648,0.0399785l-0.0139056,2.44564c1.48616,0.0521459 2.96363,0.0956008 4.40633,0.0956008c2.98448,0 6.43307,-0.180772 10.0259,-0.479742l0.0312875,-0.00347639c13.3059,-1.10897 28.6212,-3.85532 29.937,-5.17114c0.940365,-0.917768 1.02901,-1.05856 0.851717,-17.8165c9.40365,-3.28693 9.68871,-6.25925 9.68871,-7.27088c0,-1.58697 -0.858669,-5.28064 -46.0518,-28.7654" style="fill:#b88161;fill-rule:nonzero;"/><path d="M70.8136,228.152c4.30378,0 7.79234,3.60502 7.79234,8.05307c0,4.44805 -3.48856,8.05654 -7.79234,8.05654c-4.30378,0 -7.79234,-3.6085 -7.79234,-8.05654c0,-4.44805 3.48856,-8.05307 7.79234,-8.05307" style="fill:#cc8c21;fill-rule:nonzero;"/><path d="M71.5385,267.73c-0.170343,0 -0.326781,0.0782189 -0.476266,0.0782189l-0.00869099,0c-0.584034,0 -1.11418,-0.140794 -1.58002,-0.19294c-3.01056,-0.354592 -3.86749,-1.51918 -3.90051,-2.64901c-0.547532,0.243348 -1.14721,0.359807 -1.78339,0.359807c-2.44391,0 -4.42024,-2.02326 -4.42024,-4.50541c0,-2.48736 1.97633,-4.50367 4.42024,-4.50367c2.40045,0 4.41502,1.94852 4.47933,4.37504c0.764807,-0.544056 0.432811,-0.815214 2.17101,-0.917768l0,0.017382c1.7382,-0.166867 1.52614,0 1.52614,0c2.94624,0.653562 9.45927,3.59285 9.45927,3.59285c0,0 -3.52506,4.38026 -9.88686,4.34549M84.6358,251.09c-0.389356,-1.17328 -2.59339,-4.73137 -8.58843,-4.7644l-11.7363,0.0225966c-5.81948,-0.325043 -8.13998,3.11659 -8.50326,4.64794c0,0 -3.93702,12.5446 -3.25738,15.4491c0.413691,1.8112 5.20764,3.5859 8.53455,5.2285l-6.09933,23.9315l8.49978,0l0,28.642c0,1.61305 0.994249,2.92017 2.6073,2.92017c1.61652,0 2.6073,-1.30712 2.6073,-2.92017l0,-28.642l5.21459,0l0,28.642c0,1.61305 0.994249,2.92017 2.6073,2.92017c1.61305,0 2.6073,-1.30712 2.6073,-2.92017l0,-28.642l7.16832,0l-5.97592,-24.406c2.97406,-1.57133 7.24654,-3.32517 7.62721,-4.96429c0.679635,-2.94624 -3.313,-15.1449 -3.313,-15.1449" style="fill:#cc8c21;fill-rule:nonzero;"/><path d="M75.9978,8.63415l0.396309,0c1.33494,0 2.83674,-0.2503 2.83674,-1.95895c0,-1.70865 -1.5018,-1.95895 -2.83674,-1.95895l-0.396309,0l0,3.9179ZM84.9825,17.3043l-5.08596,0l-3.85706,-6.04545l-0.0417167,0l0,6.04545l-4.0865,0l0,-15.7185l6.10802,0c3.10616,0 5.46315,1.48094 5.46315,4.83566c0,2.16927 -1.20805,4.04478 -3.43989,4.44109l4.93996,6.44176Z" style="fill:#808080;fill-rule:nonzero;"/><path d="M89.7047,6.61071l0,5.71345c0,1.35406 0.333734,2.31354 1.89811,2.31354c1.56438,0 1.89637,-0.959485 1.89637,-2.31354l0,-5.71345l3.79622,0l0,6.44176c0,3.52333 -2.48215,4.60796 -5.69086,4.60796c-3.20871,0 -5.69086,-1.08463 -5.69086,-4.60796l0,-6.44176l3.79101,0Z" style="fill:#808080;fill-rule:nonzero;"/><path d="M103.796,8.3609l0.0417167,0c0.728305,-1.31408 1.97981,-1.89637 3.45901,-1.89637l0.730043,0l0,3.64848c-0.521459,-0.292017 -1.02206,-0.354592 -1.60609,-0.354592c-2.10496,0 -2.62642,1.39751 -2.62642,3.23131l0,4.31421l-3.79448,0l0,-10.6951l3.79448,0l0.0017382,1.7521Z" style="fill:#808080;fill-rule:nonzero;"/><path d="M113.059,11.9696c0,1.35579 0.89691,2.39697 2.43869,2.39697c1.54178,0 2.43869,-1.04292 2.43869,-2.39697c0,-1.31234 -0.89691,-2.41783 -2.43869,-2.41783c-1.54178,-0.0017382 -2.43869,1.10549 -2.43869,2.41783M121.608,17.3041l-3.79622,0l0,-1.18719l-0.0417167,0c-0.667468,1.06378 -1.98154,1.54352 -3.23131,1.54352c-3.16699,0 -5.39884,-2.64727 -5.39884,-5.71345c0,-3.06444 2.19013,-5.69086 5.35886,-5.69086c1.22891,0 2.52212,0.458884 3.313,1.39751l0,-1.04292l3.79622,0l0,10.6934Z" style="fill:#808080;fill-rule:nonzero;"/><rect x="124.399" y="3.52857e-30" width="3.79448" height="17.3038" style="fill:#808080;fill-rule:nonzero;"/><path d="M143.942,12.0926l2.54298,-5.48227l4.25163,0l-5.58657,10.6951l-2.41957,0l-5.60742,-10.6951l4.25163,0l2.56732,5.48227Z" style="fill:#808080;fill-rule:nonzero;"/><path d="M155.892,17.3038l-3.79448,0l0,-10.6951l3.79448,0l0,10.6951ZM156.121,2.50474c0,1.16633 -0.959485,2.12581 -2.12755,2.12581c-1.16633,0 -2.12581,-0.959485 -2.12581,-2.12581c0,-1.16807 0.959485,-2.12755 2.12581,-2.12755c1.16807,0.0017382 2.12755,0.957747 2.12755,2.12755" style="fill:#808080;fill-rule:nonzero;"/><rect x="158.647" y="4.50001e-30" width="3.79448" height="17.3038" style="fill:#808080;fill-rule:nonzero;"/><rect x="165.193" y="4.68569e-30" width="3.79448" height="17.3038" style="fill:#808080;fill-rule:nonzero;"/><path d="M174.996,11.9696c0,1.35579 0.89691,2.39697 2.43869,2.39697c1.54178,0 2.43869,-1.04292 2.43869,-2.39697c0,-1.31234 -0.89691,-2.41783 -2.43869,-2.41783c-1.54178,-0.0017382 -2.43869,1.10549 -2.43869,2.41783M183.545,17.3041l-3.79622,0l0,-1.18719l-0.0399785,0c-0.667468,1.06378 -1.98154,1.54352 -3.23131,1.54352c-3.16699,0 -5.39884,-2.64727 -5.39884,-5.71345c0,-3.06444 2.19013,-5.69086 5.35886,-5.69086c1.22891,0 2.52212,0.458884 3.313,1.39751l0,-1.04292l3.79622,0l-0.0017382,10.6934Z" style="fill:#808080;fill-rule:nonzero;"/><path d="M189.595,11.8856c0,1.35406 0.89691,2.39697 2.43869,2.39697c1.54178,0 2.43869,-1.04292 2.43869,-2.39697c0,-1.31408 -0.89691,-2.41957 -2.43869,-2.41957c-1.54178,0 -2.43869,1.10376 -2.43869,2.41957M198.142,16.2641c0,4.54365 -2.25097,6.37918 -6.19146,6.37918c-2.46129,0 -5.75517,-1.27062 -6.08717,-4.0865l4.25163,0c0.104292,0.375451 0.375451,0.646609 0.707446,0.813476c0.333734,0.166867 0.730043,0.2503 1.08463,0.2503c2.04412,0 2.43869,-1.33494 2.43869,-3.0627l0,-0.502339c-0.978605,0.980343 -1.98154,1.46009 -3.39818,1.46009c-3.12702,0 -5.27369,-2.37612 -5.27369,-5.46315c0,-3.12702 2.20925,-5.79515 5.48227,-5.79515c1.2515,0 2.39697,0.417167 3.14787,1.48094l0.0417167,0l0,-1.12809l3.79448,0l0.0017382,9.65395Z" style="fill:#808080;fill-rule:nonzero;"/><path d="M208.462,10.4071c-0.187725,-1.02206 -1.12635,-1.68953 -2.14667,-1.68953c-1.10549,0 -2.02326,0.584034 -2.2527,1.68953l4.39938,0ZM211.986,12.5938l-7.98528,0c0,1.54178 0.813476,2.37612 2.37612,2.37612c0.813476,0 1.39751,-0.271159 1.81468,-0.978605l3.64848,0c-0.604893,2.52212 -3.00187,3.66933 -5.44056,3.66933c-3.54418,0 -6.19146,-2.00066 -6.19146,-5.69086c0,-3.56504 2.43869,-5.71172 5.9203,-5.71172c3.71105,0 5.85772,2.29268 5.85772,5.94116l0,0.394571Z" style="fill:#808080;fill-rule:nonzero;"/><path d="M274.449,243.035c1.3836,-1.10376 2.76373,-2.15884 4.14212,-3.16873" style="fill:none;stroke-width:2px;stroke:#b3b3b3;"/><path d="M287.939,233.659c32.5547,-19.4104 62.4621,-14.7816 80.92,-8.15388" style="fill:none;stroke-width:2px;stroke-dasharray:6.45,6.45;stroke:#b3b3b3;"/><path d="M374.081,227.539c1.72429,0.730043 3.30779,1.45835 4.74006,2.1571" style="fill:none;stroke-width:2px;stroke:#b3b3b3;"/><path d="M387.929,234.887c-5.20069,-0.816953 -12.0718,-1.0829 -17.0013,-0.0538841l6.65034,-5.74822l1.43227,-8.67186c1.693,4.7418 5.50835,10.4622 8.91869,14.474" style="fill:#b3b3b3;fill-rule:nonzero;"/><path d="M403.499,326.805c-1.19588,1.30365 -2.39697,2.56732 -3.59981,3.77189" style="fill:none;stroke-width:2px;stroke:#b3b3b3;"/><path d="M391.627,338.156c-29.1513,24.2253 -59.4133,24.2896 -78.676,20.6046" style="fill:none;stroke-width:2px;stroke-dasharray:6.45,6.45;stroke:#b3b3b3;"/><path d="M307.475,357.558c-1.81642,-0.455408 -3.49378,-0.929935 -5.0147,-1.39751" style="fill:none;stroke-width:2px;stroke:#b3b3b3;"/><path d="M292.654,352.447c5.265,0 12.0944,-0.801309 16.8049,-2.58296l-5.67869,6.71118l-0.0730043,8.78832c-2.4074,-4.42545 -7.06229,-9.48534 -11.0532,-12.9165" style="fill:#b3b3b3;fill-rule:nonzero;"/><path d="M590.161,274.754c1.69822,-0.502339 3.3721,-0.964699 5.02687,-1.38882" style="fill:none;stroke-width:2px;stroke:#b3b3b3;"/><path d="M605.016,271.221c45.1584,-8.02873 72.3159,12.8644 86.1103,29.1774" style="fill:none;stroke-width:2px;stroke-dasharray:5.78,5.78;stroke:#b3b3b3;"/><path d="M694.263,304.315c1.13157,1.49137 2.13972,2.91669 3.03142,4.23772" style="fill:none;stroke-width:2px;stroke:#b3b3b3;"/><path d="M702.565,317.618c-4.08998,-3.31648 -9.89556,-6.99798 -14.6773,-8.58322l8.64405,-1.63217l5.59178,-6.77549c-0.922983,4.94865 -0.495386,11.8093 0.441502,16.9909" style="fill:#b3b3b3;fill-rule:nonzero;"/><path d="M681.88,381.69c-1.72429,0.370236 -3.43815,0.700493 -5.11204,0.999463" style="fill:none;stroke-width:2px;stroke:#b3b3b3;"/><path d="M666.8,384.072c-45.6433,4.54539 -71.1131,-18.3814 -83.6142,-35.7113" style="fill:none;stroke-width:2px;stroke-dasharray:5.78,5.78;stroke:#b3b3b3;"/><path d="M580.353,344.219c-1.01337,-1.57481 -1.91897,-3.07487 -2.70463,-4.455" style="fill:none;stroke-width:2px;stroke:#b3b3b3;"/><path d="M573.095,330.32c3.8223,3.61893 9.33064,7.73498 13.9751,9.68002l-8.72923,0.966438l-6.09586,6.33399c1.28627,-4.87043 1.38882,-11.7433 0.849978,-16.9804" style="fill:#b3b3b3;fill-rule:nonzero;"/><path d="M607.541,48.7968l-19.1202,0l0,27.2219l-34.2859,-27.8181l-85.6497,70.211l0,10.3423l170.343,0l0,-10.3423l-31.2875,-25.3603l0,-44.2545Z" style="fill:#576e60;fill-rule:nonzero;"/><path d="M576.254,161.78l0,13.9056l-15.6438,0l0,15.6438l-13.9056,0l0,-15.6438l-15.6438,0l0,-13.9056l15.6438,0l0,-15.6438l13.9056,0l0,15.6438l15.6438,0ZM484.129,135.707l0,107.768l57.3605,0l0,-38.2403l24.3348,0l0,38.2403l59.0987,0l0,-107.768l-71.0123,0l-69.7817,0Z" style="fill:#576e60;fill-rule:nonzero;"/><path d="M309.821,146.458c-0.750901,-0.625751 -1.70865,-1.04292 -2.70985,-1.04292c-0.750901,0 -1.7521,0.438026 -1.7521,1.31234c0,0.917768 1.10549,1.27236 1.81468,1.5018l1.04292,0.312875c2.18839,0.646609 3.87618,1.75036 3.87618,4.29508c0,1.56264 -0.375451,3.16873 -1.62695,4.23251c-1.22891,1.04292 -2.87672,1.48094 -4.46021,1.48094c-1.98154,0 -3.91963,-0.667468 -5.52573,-1.79208l1.7521,-3.29388c1.02206,0.89691 2.23011,1.62695 3.62762,1.62695c0.959485,0 1.98154,-0.479742 1.98154,-1.58524c0,-1.14721 -1.60609,-1.54178 -2.48215,-1.79208c-2.56384,-0.730043 -4.25163,-1.39751 -4.25163,-4.44109c0,-3.18959 2.27356,-5.27369 5.4197,-5.27369c1.5835,0 3.52333,0.500601 4.9191,1.29322l-1.62521,3.16526Z" style="fill:#000;fill-rule:nonzero;"/><path d="M322.124,150.918c-0.563176,-0.417167 -1.23064,-0.750901 -1.96069,-0.750901c-1.45835,0 -2.60556,1.12635 -2.60556,2.60556c0,1.54352 1.10549,2.62642 2.66813,2.62642c0.667468,0 1.39751,-0.271159 1.89811,-0.728305l0,3.21045c-0.832596,0.417167 -1.7521,0.604893 -2.66813,0.604893c-3.16873,0 -5.81775,-2.35526 -5.81775,-5.58657c0,-3.43989 2.62815,-5.81601 5.98287,-5.81601c0.876051,0 1.7521,0.208584 2.50127,0.625751l0.0017382,3.20871Z" style="fill:#000;fill-rule:nonzero;"/><path d="M328.584,149.186l0.0417167,0c0.728305,-1.31408 1.97981,-1.89637 3.45901,-1.89637l0.730043,0l0,3.64848c-0.521459,-0.292017 -1.02206,-0.354592 -1.60436,-0.354592c-2.10669,0 -2.62815,1.39751 -2.62815,3.23131l0,4.31421l-3.79448,0l0,-10.6951l3.79448,0l0.0017382,1.7521Z" style="fill:#000;fill-rule:nonzero;"/><path d="M342.183,151.23c-0.187725,-1.02206 -1.12635,-1.68953 -2.14667,-1.68953c-1.10549,0 -2.02326,0.584034 -2.2527,1.68953l4.39938,0ZM345.704,153.418l-7.98528,0c0,1.54178 0.813476,2.37612 2.37612,2.37612c0.813476,0 1.39751,-0.271159 1.81468,-0.976867l3.64848,0c-0.604893,2.52212 -3.00187,3.66933 -5.44056,3.66933c-3.54418,0 -6.19146,-2.00066 -6.19146,-5.69086c0,-3.56504 2.43869,-5.71172 5.9203,-5.71172c3.71105,0 5.85772,2.29268 5.85772,5.94116l0,0.392833Z" style="fill:#000;fill-rule:nonzero;"/><path d="M355.367,151.23c-0.187725,-1.02206 -1.12635,-1.68953 -2.14667,-1.68953c-1.10549,0 -2.02326,0.584034 -2.2527,1.68953l4.39938,0ZM358.889,153.418l-7.98528,0c0,1.54178 0.813476,2.37612 2.37612,2.37612c0.813476,0 1.39751,-0.271159 1.81468,-0.976867l3.64848,0c-0.604893,2.52212 -3.00187,3.66933 -5.44056,3.66933c-3.54418,0 -6.19146,-2.00066 -6.19146,-5.69086c0,-3.56504 2.43869,-5.71172 5.9203,-5.71172c3.71105,0 5.85772,2.29268 5.85772,5.94116l0,0.392833Z" style="fill:#000;fill-rule:nonzero;"/><path d="M364.818,148.813l0.0417167,0c0.874313,-1.29322 1.93809,-1.73124 3.41903,-1.73124c2.87672,0 4.02219,1.81294 4.02219,4.44109l0,6.60863l-3.79448,0l0,-5.21285c0,-1.02032 0.166867,-2.81414 -1.70865,-2.81414c-1.54352,0 -1.98154,1.14721 -1.98154,2.48041l0,5.54485l-3.79448,0l0,-10.6951l3.79448,0l0.0017382,1.37839Z" style="fill:#000;fill-rule:nonzero;"/><path d="M378.823,158.129l-3.79448,0l0,-10.6951l3.79448,0l0,10.6951ZM379.052,143.328c0,1.16633 -0.959485,2.12581 -2.12755,2.12581c-1.16633,0 -2.12581,-0.959485 -2.12581,-2.12581c0,-1.16807 0.959485,-2.12755 2.12581,-2.12755c1.16807,0.0017382 2.12755,0.959485 2.12755,2.12755" style="fill:#000;fill-rule:nonzero;"/><path d="M385.381,148.813l0.0417167,0c0.874313,-1.29322 1.93809,-1.73124 3.41903,-1.73124c2.87672,0 4.02219,1.81294 4.02219,4.44109l0,6.60863l-3.79448,0l0,-5.21285c0,-1.02032 0.166867,-2.81414 -1.70865,-2.81414c-1.54352,0 -1.98154,1.14721 -1.98154,2.48041l0,5.54485l-3.79448,0l0,-10.6951l3.79448,0l0.0017382,1.37839Z" style="fill:#000;fill-rule:nonzero;"/><path d="M398.869,152.711c0,1.35406 0.89691,2.39697 2.43869,2.39697c1.54178,0 2.43869,-1.04292 2.43869,-2.39697c0,-1.31408 -0.89691,-2.41957 -2.43869,-2.41957c-1.54178,0 -2.43869,1.10376 -2.43869,2.41957M407.416,157.086c0,4.54365 -2.25097,6.37918 -6.19146,6.37918c-2.45955,0 -5.75517,-1.27062 -6.08717,-4.0865l4.25163,0c0.104292,0.375451 0.375451,0.646609 0.709184,0.813476c0.331996,0.166867 0.728305,0.2503 1.0829,0.2503c2.04412,0 2.43869,-1.33494 2.43869,-3.06444l0,-0.500601c-0.978605,0.980343 -1.98154,1.46009 -3.39818,1.46009c-3.12702,0 -5.27369,-2.37612 -5.27369,-5.46315c0,-3.12702 2.20925,-5.79515 5.48227,-5.79515c1.2515,0 2.39697,0.417167 3.14787,1.48094l0.0417167,0l0,-1.12635l3.79448,0l0.0017382,9.65221Z" style="fill:#000;fill-rule:nonzero;"/><path d="M308.822,178.729c-0.563176,-0.417167 -1.23064,-0.750901 -1.95895,-0.750901c-1.46009,0 -2.6073,1.12635 -2.6073,2.60556c0,1.54352 1.10549,2.62642 2.66813,2.62642c0.667468,0 1.39751,-0.271159 1.89811,-0.728305l0,3.21045c-0.832596,0.417167 -1.7521,0.604893 -2.66813,0.604893c-3.16873,0 -5.81775,-2.35526 -5.81775,-5.58657c0,-3.43989 2.62815,-5.81601 5.98287,-5.81601c0.876051,0 1.7521,0.208584 2.50127,0.625751l0.0017382,3.20871Z" style="fill:#000;fill-rule:nonzero;"/><path d="M314.551,180.606c0,1.35579 0.89691,2.39697 2.43869,2.39697c1.54178,0 2.43869,-1.04292 2.43869,-2.39697c0,-1.31234 -0.89691,-2.41783 -2.43869,-2.41783c-1.54178,0 -2.43869,1.10376 -2.43869,2.41783M323.099,185.941l-3.79622,0l0,-1.18893l-0.0399785,0c-0.667468,1.06378 -1.98154,1.54352 -3.23131,1.54352c-3.16699,0 -5.39884,-2.64727 -5.39884,-5.71345c0,-3.06444 2.19013,-5.69086 5.35886,-5.69086c1.22891,0 2.52212,0.458884 3.313,1.39751l0,-1.04292l3.79622,0l-0.0017382,10.6951Z" style="fill:#000;fill-rule:nonzero;"/><path d="M332.86,178.001c-0.584034,-0.312875 -1.39751,-0.521459 -2.04238,-0.521459c-0.438026,0 -1.18893,0.187725 -1.18893,0.728305c0,0.730043 1.18893,0.832596 1.70865,0.938626c1.77296,0.354592 3.10616,1.18893 3.10616,3.16873c0,2.81414 -2.56558,3.98221 -5.04425,3.98221c-1.52266,0 -3.02272,-0.438026 -4.31594,-1.23064l1.37665,-2.64727c0.770021,0.542317 2.06498,1.08463 3.00187,1.08463c0.479742,0 1.18893,-0.229442 1.18893,-0.813476c0,-0.832596 -1.18893,-0.874313 -2.37612,-1.18893c-1.18893,-0.312875 -2.37612,-0.89691 -2.37612,-2.81414c0,-2.62642 2.37612,-3.79448 4.71225,-3.79448c1.20805,0 2.41783,0.187725 3.52159,0.688326l-1.27236,2.41957Z" style="fill:#000;fill-rule:nonzero;"/><path d="M344.2,179.041c-0.187725,-1.02206 -1.12635,-1.68953 -2.14667,-1.68953c-1.10549,0 -2.02326,0.584034 -2.2527,1.68953l4.39938,0ZM347.721,181.229l-7.98528,0c0,1.54178 0.813476,2.37612 2.37612,2.37612c0.813476,0 1.39751,-0.271159 1.81468,-0.976867l3.64848,0c-0.604893,2.52212 -3.00187,3.66933 -5.44056,3.66933c-3.54418,0 -6.19146,-2.00066 -6.19146,-5.69086c0,-3.56504 2.43869,-5.71172 5.9203,-5.71172c3.71105,0 5.85772,2.29268 5.85772,5.94116l0,0.392833Z" style="fill:#000;fill-rule:nonzero;"/><path d="M360.742,180.606c0,1.35579 0.89691,2.39697 2.43869,2.39697c1.54178,0 2.43869,-1.04292 2.43869,-2.39697c0,-1.31234 -0.89691,-2.41783 -2.43869,-2.41783c-1.54178,0 -2.43869,1.10376 -2.43869,2.41783M365.494,184.752l-0.0399785,0c-0.667468,1.06378 -1.98154,1.54352 -3.23131,1.54352c-3.16699,0 -5.39884,-2.64727 -5.39884,-5.71345c0,-3.06444 2.19013,-5.69086 5.35886,-5.69086c1.22891,0 2.52212,0.458884 3.313,1.39751l0,-7.65154l3.79622,0l0,17.3038l-3.79622,0l-0.0017382,-1.18893Z" style="fill:#000;fill-rule:nonzero;"/><path d="M379.608,179.041c-0.187725,-1.02206 -1.12635,-1.68953 -2.14667,-1.68953c-1.10549,0 -2.02326,0.584034 -2.2527,1.68953l4.39938,0ZM383.132,181.229l-7.98528,0c0,1.54178 0.813476,2.37612 2.37612,2.37612c0.813476,0 1.39751,-0.271159 1.81468,-0.976867l3.64848,0c-0.604893,2.52212 -3.00187,3.66933 -5.44056,3.66933c-3.54418,0 -6.19146,-2.00066 -6.19146,-5.69086c0,-3.56504 2.43869,-5.71172 5.9203,-5.71172c3.71105,0 5.85772,2.29268 5.85772,5.94116l0,0.392833Z" style="fill:#000;fill-rule:nonzero;"/><path d="M389.413,185.94l-3.79448,0l0,-7.56811l-1.23064,0l0,-3.12702l1.23064,0l0,-3.21045l3.79448,0l0,3.21045l2.14667,0l0,3.12702l-2.14667,0l0,7.56811Z" style="fill:#000;fill-rule:nonzero;"/><path d="M400.76,179.041c-0.187725,-1.02206 -1.12635,-1.68953 -2.14667,-1.68953c-1.10549,0 -2.02326,0.584034 -2.2527,1.68953l4.39938,0ZM404.282,181.229l-7.98528,0c0,1.54178 0.813476,2.37612 2.37612,2.37612c0.813476,0 1.39751,-0.271159 1.81468,-0.976867l3.64848,0c-0.604893,2.52212 -3.00187,3.66933 -5.44056,3.66933c-3.54418,0 -6.19146,-2.00066 -6.19146,-5.69086c0,-3.56504 2.43869,-5.71172 5.9203,-5.71172c3.71105,0 5.85772,2.29268 5.85772,5.94116l0,0.392833Z" style="fill:#000;fill-rule:nonzero;"/><path d="M414.184,178.729c-0.563176,-0.417167 -1.23064,-0.750901 -1.96069,-0.750901c-1.45835,0 -2.60556,1.12635 -2.60556,2.60556c0,1.54352 1.10549,2.62642 2.66813,2.62642c0.667468,0 1.39751,-0.271159 1.89811,-0.728305l0,3.21045c-0.832596,0.417167 -1.7521,0.604893 -2.66813,0.604893c-3.16873,0 -5.81775,-2.35526 -5.81775,-5.58657c0,-3.43989 2.62815,-5.81601 5.98287,-5.81601c0.876051,0 1.7521,0.208584 2.50127,0.625751l0.0017382,3.20871Z" style="fill:#000;fill-rule:nonzero;"/><path d="M421.146,185.94l-3.79448,0l0,-7.56811l-1.23064,0l0,-3.12702l1.23064,0l0,-3.21045l3.79448,0l0,3.21045l2.14667,0l0,3.12702l-2.14667,0l0,7.56811Z" style="fill:#000;fill-rule:nonzero;"/><path d="M428.716,185.94l-3.79448,0l0,-10.6951l3.79448,0l0,10.6951ZM428.945,171.139c0,1.16633 -0.959485,2.12581 -2.12755,2.12581c-1.16633,0 -2.12581,-0.959485 -2.12581,-2.12581c0,-1.16807 0.959485,-2.12755 2.12581,-2.12755c1.16807,0.0017382 2.12755,0.959485 2.12755,2.12755" style="fill:#000;fill-rule:nonzero;"/><path d="M434.728,180.606c0,1.35579 0.89691,2.39697 2.43869,2.39697c1.54178,0 2.43869,-1.04292 2.43869,-2.39697c0,-1.31234 -0.89691,-2.41783 -2.43869,-2.41783c-1.54178,0 -2.43869,1.10376 -2.43869,2.41783M443.609,180.606c0,3.62762 -3.00187,5.69086 -6.44176,5.69086c-3.41903,0 -6.44176,-2.04412 -6.44176,-5.69086c0,-3.64674 3.0036,-5.71172 6.44176,-5.71172c3.44163,-0.0017382 6.44176,2.06324 6.44176,5.71172" style="fill:#000;fill-rule:nonzero;"/><path d="M449.494,176.624l0.0417167,0c0.874313,-1.29322 1.93809,-1.73124 3.41903,-1.73124c2.87672,0 4.02219,1.81294 4.02219,4.44109l0,6.60863l-3.79448,0l0,-5.21285c0,-1.02032 0.166867,-2.81414 -1.70865,-2.81414c-1.54352,0 -1.98154,1.14721 -1.98154,2.48041l0,5.54485l-3.79448,0l0,-10.6951l3.79448,0l0,1.37839l0.0017382,0Z" style="fill:#000;fill-rule:nonzero;"/><path d="M673.919,122.017l0.398047,0c1.3332,0 2.835,-0.2503 2.835,-1.95895c0,-1.70865 -1.5018,-1.95895 -2.835,-1.95895l-0.398047,0l0,3.9179ZM682.904,130.687l-5.09292,0l-3.85532,-6.04545l-0.0417167,0l0,6.04545l-4.0865,0l0,-15.7185l6.10629,0c3.10616,0 5.47011,1.48094 5.47011,4.83566c0,2.16927 -1.20979,4.04478 -3.44163,4.44109l4.94169,6.44176Z" style="fill:#000;fill-rule:nonzero;"/><path d="M691.423,123.788c-0.180772,-1.02206 -1.12288,-1.68953 -2.13972,-1.68953c-1.11245,0 -2.025,0.584034 -2.25966,1.68953l4.39938,0ZM694.945,125.975l-7.98354,0c0,1.54178 0.811738,2.37612 2.36916,2.37612c0.820429,0 1.40446,-0.271159 1.81468,-0.978605l3.65369,0c-0.610107,2.52212 -3.00534,3.66933 -5.44056,3.66933c-3.54418,0 -6.19146,-2.00066 -6.19146,-5.69086c0,-3.56504 2.43869,-5.71172 5.9203,-5.71172c3.71105,0 5.85772,2.29268 5.85772,5.94116l0,0.394571Z" style="fill:#000;fill-rule:nonzero;"/><path d="M700.686,125.35c0,1.35579 0.89691,2.39697 2.43869,2.39697c1.54178,0 2.43174,-1.04292 2.43174,-2.39697c0,-1.31234 -0.89691,-2.41783 -2.43174,-2.41783c-1.54178,0 -2.43869,1.10549 -2.43869,2.41783M700.809,121.203l0.0365021,0c0.688326,-1.06378 1.98676,-1.56264 3.23131,-1.56264c3.18959,0 5.39536,2.66813 5.39536,5.73257c0,3.0853 -2.19187,5.67 -5.35539,5.67c-1.23064,0 -2.50127,-0.438026 -3.31474,-1.37665l0,6.35832l-3.7997,0l0,-16.0314l3.7997,0l0.00695279,1.20979Z" style="fill:#000;fill-rule:nonzero;"/><path d="M714.965,125.35c0,1.35579 0.903862,2.39697 2.43869,2.39697c1.53657,0 2.44043,-1.04292 2.44043,-2.39697c0,-1.31234 -0.903862,-2.41783 -2.44043,-2.41783c-1.53483,0 -2.43869,1.10549 -2.43869,2.41783M723.846,125.35c0,3.62762 -3.00534,5.69086 -6.44176,5.69086c-3.4173,0 -6.44176,-2.04412 -6.44176,-5.69086c0,-3.64674 3.0036,-5.71172 6.44176,-5.71172c3.43815,-0.0017382 6.44176,2.06324 6.44176,5.71172" style="fill:#000;fill-rule:nonzero;"/><path d="M729.73,121.743l0.0417167,0c0.728305,-1.31408 1.97981,-1.89637 3.4538,-1.89637l0.736996,0l0,3.64848c-0.528412,-0.292017 -1.02901,-0.354592 -1.61305,-0.354592c-2.10496,0 -2.62642,1.39751 -2.62642,3.23131l0,4.31421l-3.79448,0l0,-10.6951l3.79448,0l0.00695279,1.7521Z" style="fill:#000;fill-rule:nonzero;"/><path d="M740.128,130.687l-3.80144,0l0,-7.56811l-1.23064,0l0,-3.12702l1.23064,0l0,-3.21045l3.80144,0l0,3.21045l2.13972,0l0,3.12702l-2.13972,0l0,7.56811Z" style="fill:#000;fill-rule:nonzero;"/><path d="M747.701,130.686l-3.79448,0l0,-10.6951l3.79448,0l0,10.6951ZM747.931,115.887c0,1.16633 -0.959485,2.12581 -2.12755,2.12581c-1.16633,0 -2.12581,-0.959485 -2.12581,-2.12581c0,-1.16807 0.959485,-2.12755 2.12581,-2.12755c1.16807,0 2.12755,0.957747 2.12755,2.12755" style="fill:#000;fill-rule:nonzero;"/><path d="M754.258,121.37l0.0365021,0c0.872575,-1.29322 1.93809,-1.73124 3.42425,-1.73124c2.8715,0 4.01871,1.81294 4.01871,4.44109l0,6.60863l-3.79448,0l0,-5.21285c0,-1.02032 0.166867,-2.81414 -1.70865,-2.81414c-1.54352,0 -1.98154,1.14721 -1.98154,2.48041l0,5.54485l-3.7997,0l0,-10.6951l3.7997,0l0.00521459,1.37839Z" style="fill:#000;fill-rule:nonzero;"/><path d="M767.748,125.269c0,1.35406 0.89691,2.39697 2.43869,2.39697c1.54178,0 2.43348,-1.04292 2.43348,-2.39697c0,-1.31408 -0.89691,-2.41957 -2.43348,-2.41957c-1.54178,0 -2.43869,1.10549 -2.43869,2.41957M776.294,129.646c0,4.54365 -2.25097,6.37918 -6.19146,6.37918c-2.46129,0 -5.75691,-1.26715 -6.0889,-4.0865l4.24815,0c0.107768,0.375451 0.375451,0.646609 0.707446,0.813476c0.333734,0.166867 0.730043,0.2503 1.08463,0.2503c2.04412,0 2.43869,-1.33494 2.43869,-3.06444l0,-0.500601c-0.978605,0.980343 -1.98676,1.46009 -3.39818,1.46009c-3.12702,0 -5.27369,-2.37612 -5.27369,-5.46315c0,-3.12702 2.20925,-5.79515 5.48401,-5.79515c1.24976,0 2.39524,0.417167 3.14614,1.48094l0.0417167,0l0,-1.12635l3.79448,0l0.00695279,9.65221Z" style="fill:#000;fill-rule:nonzero;"/><path d="M791.004,119.993l3.12875,0l0,3.77363l3.77189,0l0,3.12702l-3.77189,0l0,3.79448l-3.12875,0l0,-3.79448l-3.77363,0l0,-3.12702l3.77363,0l0,-3.77363Z" style="fill:#000;fill-rule:nonzero;"/><path d="M418.426,146.57l3.12875,0l0,3.77363l3.77189,0l0,3.12702l-3.77189,0l0,3.79448l-3.12875,0l0,-3.79448l-3.77363,0l0,-3.12702l3.77363,0l0,-3.77363Z" style="fill:#000;fill-rule:nonzero;"/><path d="M677.463,151.286c-0.556223,-0.417167 -1.23064,-0.750901 -1.95895,-0.750901c-1.46009,0 -2.6073,1.12461 -2.6073,2.60556c0,1.54352 1.11245,2.62642 2.66813,2.62642c0.667468,0 1.40446,-0.271159 1.89811,-0.728305l0,3.21045c-0.832596,0.417167 -1.7521,0.604893 -2.66118,0.604893c-3.16873,0 -5.8247,-2.35526 -5.8247,-5.58657c0,-3.43989 2.63511,-5.81601 5.98461,-5.81601c0.874313,0 1.75036,0.208584 2.49779,0.625751l0.00347639,3.20871Z" style="fill:#000;fill-rule:nonzero;"/><path d="M683.194,153.162c0,1.35579 0.89691,2.39697 2.43174,2.39697c1.54873,0 2.44043,-1.04292 2.44043,-2.39697c0,-1.31234 -0.898648,-2.41783 -2.44043,-2.41783c-1.53483,0 -2.43174,1.10549 -2.43174,2.41783M691.742,158.498l-3.79796,0l0,-1.18893l-0.0347639,0c-0.67442,1.06378 -1.9885,1.54352 -3.23131,1.54352c-3.16873,0 -5.3971,-2.64727 -5.3971,-5.71345c0,-3.06444 2.1936,-5.69086 5.3606,-5.69086c1.22369,0 2.51691,0.458884 3.30779,1.39751l0,-1.04292l3.80318,0l0,10.6951l-0.0104292,0Z" style="fill:#000;fill-rule:nonzero;"/><path d="M701.501,150.556c-0.584034,-0.312875 -1.39751,-0.521459 -2.04238,-0.521459c-0.438026,0 -1.18719,0.187725 -1.18719,0.728305c0,0.730043 1.18719,0.834335 1.70169,0.938626c1.77644,0.354592 3.10616,1.18893 3.10616,3.16873c0,2.81414 -2.56384,3.98221 -5.03729,3.98221c-1.52266,0 -3.02272,-0.438026 -4.31768,-1.23064l1.37665,-2.64727c0.771759,0.542317 2.06672,1.08463 3.00187,1.08463c0.479742,0 1.19414,-0.229442 1.19414,-0.813476c0,-0.832596 -1.19414,-0.874313 -2.37612,-1.18893c-1.18719,-0.312875 -2.37612,-0.89691 -2.37612,-2.81414c0,-2.62642 2.37612,-3.79448 4.71225,-3.79448c1.20805,0 2.42478,0.187725 3.52159,0.688326l-1.27757,2.41957Z" style="fill:#000;fill-rule:nonzero;"/><path d="M712.842,151.599c-0.187725,-1.02206 -1.12635,-1.68953 -2.14667,-1.68953c-1.10549,0 -2.02326,0.584034 -2.2527,1.68953l4.39938,0ZM716.363,153.786l-7.99049,0c0,1.54178 0.818691,2.37612 2.37612,2.37612c0.813476,0 1.39751,-0.271159 1.81468,-0.978605l3.65195,0c-0.608369,2.52212 -3.0036,3.66933 -5.44403,3.66933c-3.54418,0 -6.19146,-2.00066 -6.19146,-5.69086c0,-3.56504 2.43869,-5.71172 5.9203,-5.71172c3.71105,0 5.85599,2.29268 5.85599,5.94116l0.00695279,0.394571Z" style="fill:#000;fill-rule:nonzero;"/><path d="M729.383,153.162c0,1.35579 0.903862,2.39697 2.43869,2.39697c1.53657,0 2.44043,-1.04292 2.44043,-2.39697c0,-1.31234 -0.903862,-2.41783 -2.44043,-2.41783c-1.53483,0 -2.43869,1.10549 -2.43869,2.41783M734.136,157.309l-0.0399785,0c-0.667468,1.06378 -1.98154,1.54352 -3.22609,1.54352c-3.16699,0 -5.39884,-2.64727 -5.39884,-5.71345c0,-3.06444 2.19534,-5.69086 5.35886,-5.69086c1.22891,0 2.52212,0.458884 3.313,1.39751l0,-7.65154l3.79622,0l0,17.3038l-3.79622,0l-0.00695279,-1.18893Z" style="fill:#000;fill-rule:nonzero;"/><path d="M748.251,151.599c-0.187725,-1.02206 -1.12635,-1.68953 -2.14667,-1.68953c-1.10549,0 -2.02326,0.584034 -2.2527,1.68953l4.39938,0ZM751.772,153.786l-7.98354,0c0,1.54178 0.811738,2.37612 2.37612,2.37612c0.813476,0 1.39751,-0.271159 1.81468,-0.978605l3.64674,0c-0.603154,2.52212 -3.00013,3.66933 -5.44056,3.66933c-3.54418,0 -6.18972,-2.00066 -6.18972,-5.69086c0,-3.56504 2.43869,-5.71172 5.9203,-5.71172c3.71105,0 5.85077,2.29268 5.85077,5.94116l0.00521459,0.394571Z" style="fill:#000;fill-rule:nonzero;"/><path d="M758.055,158.498l-3.79448,0l0,-7.56811l-1.23064,0l0,-3.12702l1.23064,0l0,-3.21045l3.79448,0l0,3.21045l2.14667,0l0,3.12702l-2.14667,0l0,7.56811Z" style="fill:#000;fill-rule:nonzero;"/><path d="M769.402,151.599c-0.187725,-1.02206 -1.12635,-1.68953 -2.14667,-1.68953c-1.10549,0 -2.02326,0.584034 -2.2527,1.68953l4.39938,0ZM772.924,153.786l-7.98528,0c0,1.54178 0.811738,2.37612 2.37612,2.37612c0.813476,0 1.39751,-0.271159 1.81468,-0.978605l3.64848,0c-0.604893,2.52212 -3.00187,3.66933 -5.44056,3.66933c-3.54592,0 -6.19146,-2.00066 -6.19146,-5.69086c0,-3.56504 2.43869,-5.71172 5.9203,-5.71172c3.71105,0 5.85077,2.29268 5.85077,5.94116l0.00695279,0.394571Z" style="fill:#000;fill-rule:nonzero;"/><path d="M782.826,151.286c-0.563176,-0.417167 -1.23064,-0.750901 -1.96069,-0.750901c-1.45835,0 -2.60556,1.12461 -2.60556,2.60556c0,1.54352 1.10549,2.62642 2.66813,2.62642c0.667468,0 1.39751,-0.271159 1.89811,-0.728305l0,3.21045c-0.832596,0.417167 -1.7521,0.604893 -2.66813,0.604893c-3.16178,0 -5.81775,-2.35526 -5.81775,-5.58657c0,-3.43989 2.62815,-5.81601 5.98461,-5.81601c0.874313,0 1.75036,0.208584 2.49779,0.625751l0.00347639,3.20871Z" style="fill:#000;fill-rule:nonzero;"/><path d="M789.787,158.498l-3.79448,0l0,-7.56811l-1.23064,0l0,-3.12702l1.23064,0l0,-3.21045l3.79448,0l0,3.21045l2.14667,0l0,3.12702l-2.14667,0l0,7.56811Z" style="fill:#000;fill-rule:nonzero;"/><path d="M797.358,158.497l-3.80144,0l0,-10.6951l3.80144,0l0,10.6951ZM797.587,143.698c0,1.16633 -0.959485,2.12581 -2.12755,2.12581c-1.16633,0 -2.13103,-0.959485 -2.13103,-2.12581c0,-1.16807 0.964699,-2.12755 2.13103,-2.12755c1.16807,0 2.12755,0.957747 2.12755,2.12755" style="fill:#000;fill-rule:nonzero;"/><path d="M803.37,153.162c0,1.35579 0.89691,2.39697 2.43869,2.39697c1.54178,0 2.43348,-1.04292 2.43348,-2.39697c0,-1.31234 -0.89691,-2.41783 -2.43348,-2.41783c-1.54178,0 -2.43869,1.10549 -2.43869,2.41783M812.251,153.162c0,3.62762 -3.00534,5.69086 -6.44002,5.69086c-3.42425,0 -6.44176,-2.04412 -6.44176,-5.69086c0,-3.64674 3.0036,-5.71172 6.44176,-5.71172c3.43989,-0.0017382 6.44002,2.06324 6.44002,5.71172" style="fill:#000;fill-rule:nonzero;"/><path d="M818.137,149.181l0.0365021,0c0.872575,-1.29322 1.93809,-1.73124 3.42425,-1.73124c2.8715,0 4.01871,1.81294 4.01871,4.44109l0,6.60863l-3.79448,0l0,-5.21285c0,-1.02032 0.166867,-2.81414 -1.70865,-2.81414c-1.54352,0 -1.98154,1.14721 -1.98154,2.48041l0,5.54485l-3.7997,0l0,-10.6951l3.7997,0l0.00521459,1.37839Z" style="fill:#000;fill-rule:nonzero;"/><path d="M301.959,387.453l0,2.62815l4.48281,0l0,3.45901l-4.48281,0l0,6.17234l-4.0865,0l0,-15.7185l9.02646,0l0,3.45901l-4.93996,0Z" style="fill:#000;fill-rule:nonzero;"/><path d="M312.28,394.377c0,1.35232 0.89691,2.39697 2.43869,2.39697c1.54178,0 2.43869,-1.04466 2.43869,-2.39697c0,-1.31408 -0.89691,-2.41957 -2.43869,-2.41957c-1.54178,0 -2.43869,1.10549 -2.43869,2.41957M321.161,394.377c0,3.62588 -3.00187,5.68738 -6.44176,5.68738c-3.41903,0 -6.44176,-2.04238 -6.44176,-5.68738c0,-3.64674 3.0036,-5.71345 6.44176,-5.71345c3.44163,0 6.44176,2.06498 6.44176,5.71345" style="fill:#000;fill-rule:nonzero;"/><rect x="323.242" y="382.409" width="3.79448" height="17.3038" style="fill:#000;fill-rule:nonzero;"/><rect x="329.786" y="382.409" width="3.79448" height="17.3038" style="fill:#000;fill-rule:nonzero;"/><path d="M339.663,394.377c0,1.35232 0.89691,2.39697 2.43869,2.39697c1.54178,0 2.43869,-1.04466 2.43869,-2.39697c0,-1.31408 -0.89691,-2.41957 -2.43869,-2.41957c-1.54178,0 -2.43869,1.10549 -2.43869,2.41957M348.543,394.377c0,3.62588 -3.0036,5.68738 -6.44176,5.68738c-3.41903,0 -6.44176,-2.04238 -6.44176,-5.68738c0,-3.64674 3.0036,-5.71345 6.44176,-5.71345c3.43815,0 6.44176,2.06498 6.44176,5.71345" style="fill:#000;fill-rule:nonzero;"/><path d="M355.463,394.815l2.68899,-5.79515l2.25097,0l2.69073,5.79515l2.68899,-5.79515l4.18905,0l-5.58657,10.6882l-2.45955,0l-2.64727,-5.85425l-2.64727,5.85425l-2.45955,0l-5.58657,-10.6882l4.21165,0l2.66639,5.79515Z" style="fill:#000;fill-rule:nonzero;"/><path d="M382.639,389.02l0,5.71345c0,1.34884 0.333734,2.3118 1.89811,2.3118c1.56438,0 1.89637,-0.962961 1.89637,-2.3118l0,-5.71345l3.79622,0l0,6.44002c0,3.51811 -2.48215,4.60448 -5.69086,4.60448c-3.21219,0 -5.69086,-1.08637 -5.69086,-4.60448l0,-6.44002l3.79101,0Z" style="fill:#000;fill-rule:nonzero;"/><path d="M396.545,394.377c0,1.35232 0.89691,2.39697 2.43869,2.39697c1.54178,0 2.43869,-1.04466 2.43869,-2.39697c0,-1.31408 -0.898648,-2.41957 -2.43869,-2.41957c-1.54178,0 -2.43869,1.10549 -2.43869,2.41957M396.67,390.226l0.0417167,0c0.688326,-1.06378 1.98154,-1.56264 3.23131,-1.56264c3.18959,0 5.3971,2.66813 5.3971,5.73779c0,3.08182 -2.18839,5.66826 -5.35712,5.66826c-1.22891,0 -2.50127,-0.438026 -3.31474,-1.37491l0,6.35832l-3.79448,0l0,-16.0366l3.79448,0l0.0017382,1.20979Z" style="fill:#000;fill-rule:nonzero;"/><path d="M300.937,422.188c0,1.35232 0.89691,2.39697 2.43869,2.39697c1.54178,0 2.43869,-1.04466 2.43869,-2.39697c0,-1.31408 -0.89691,-2.41957 -2.43869,-2.41957c-1.54178,0 -2.43869,1.10549 -2.43869,2.41957M309.486,427.523l-3.79622,0l0,-1.18893l-0.0399785,0c-0.667468,1.06204 -1.98154,1.54178 -3.23131,1.54178c-3.16699,0 -5.39884,-2.64554 -5.39884,-5.71345c0,-3.0627 2.19013,-5.68738 5.35886,-5.68738c1.22891,0 2.52212,0.46236 3.313,1.40099l0,-1.04813l3.79622,0l-0.0017382,10.6951Z" style="fill:#000;fill-rule:nonzero;"/><path d="M315.589,422.188c0,1.35232 0.89691,2.39697 2.43869,2.39697c1.54178,0 2.43869,-1.04466 2.43869,-2.39697c0,-1.31408 -0.89691,-2.41957 -2.43869,-2.41957c-1.54178,0 -2.43869,1.10549 -2.43869,2.41957M320.341,426.334l-0.0399785,0c-0.667468,1.06551 -1.98154,1.54526 -3.23131,1.54526c-3.16699,0 -5.39884,-2.64554 -5.39884,-5.71345c0,-3.06444 2.19013,-5.69086 5.35886,-5.69086c1.22891,0 2.52212,0.464099 3.313,1.40272l0,-7.64981l3.79622,0l0,17.3003l-3.79622,0l-0.0017382,-1.19414Z" style="fill:#000;fill-rule:nonzero;"/><path d="M332.256,422.312l2.54298,-5.48054l4.25163,0l-5.58657,10.6916l-2.41957,0l-5.60742,-10.6916l4.25163,0l2.56732,5.48054Z" style="fill:#000;fill-rule:nonzero;"/><path d="M344.206,427.523l-3.79448,0l0,-10.6951l3.79448,0l0,10.6951ZM344.436,412.721c0,1.16633 -0.959485,2.12581 -2.12755,2.12581c-1.16633,0 -2.12581,-0.959485 -2.12581,-2.12581c0,-1.16807 0.959485,-2.12581 2.12581,-2.12581c1.16807,0.00347639 2.12755,0.957747 2.12755,2.12581" style="fill:#000;fill-rule:nonzero;"/><path d="M354.714,420.311c-0.563176,-0.417167 -1.23064,-0.757854 -1.95895,-0.757854c-1.46009,0 -2.6073,1.12461 -2.6073,2.6073c0,1.54873 1.10549,2.63163 2.66813,2.63163c0.667468,0 1.39751,-0.271159 1.89811,-0.730043l0,3.21219c-0.832596,0.417167 -1.7521,0.604893 -2.66813,0.604893c-3.16873,0 -5.81775,-2.35352 -5.81775,-5.58657c0,-3.44163 2.62815,-5.81775 5.98287,-5.81775c0.876051,0 1.7521,0.210322 2.50127,0.620536l0.0017382,3.21566Z" style="fill:#000;fill-rule:nonzero;"/><path d="M364.771,420.623c-0.187725,-1.02206 -1.12635,-1.69127 -2.14667,-1.69127c-1.10549,0 -2.02326,0.584034 -2.2527,1.69127l4.39938,0ZM368.293,422.812l-7.98528,0c0,1.54178 0.813476,2.37612 2.37612,2.37612c0.813476,0 1.39751,-0.271159 1.81468,-0.976867l3.64848,0c-0.604893,2.51865 -3.00187,3.66586 -5.44056,3.66586c-3.54418,0 -6.19146,-1.99893 -6.19146,-5.68912c0,-3.56852 2.43869,-5.70998 5.9203,-5.70998c3.71105,0 5.85772,2.28747 5.85772,5.94116l0,0.392833Z" style="fill:#000;fill-rule:nonzero;"/><path d="M832.818,389.847l0.91603,0c2.44043,0 4.528,-1.33667 4.528,-4.39938c0,-2.8124 -1.85813,-4.39938 -4.48281,-4.39938l-0.966438,0l0.00521459,8.79875ZM828.731,377.585l5.79515,0c4.38373,0 7.98528,3.43989 7.98528,7.85839c0,4.42024 -3.62762,7.85665 -7.98528,7.85665l-5.79515,0l0,-15.715Z" style="fill:#808080;fill-rule:nonzero;"/><path d="M848.445,393.304l-3.79448,0l0,-10.6951l3.79448,0l0,10.6951ZM848.675,378.506c0,1.16459 -0.959485,2.12408 -2.12755,2.12408c-1.16633,0 -2.12581,-0.959485 -2.12581,-2.12408c0,-1.16981 0.959485,-2.13103 2.12581,-2.13103c1.16807,0.00347639 2.12755,0.961223 2.12755,2.13103" style="fill:#808080;fill-rule:nonzero;"/><path d="M858.132,385.362c-0.584034,-0.314614 -1.39751,-0.521459 -2.04238,-0.521459c-0.438026,0 -1.19414,0.187725 -1.19414,0.728305c0,0.730043 1.19414,0.834335 1.70865,0.938626c1.77296,0.354592 3.10616,1.1924 3.10616,3.16699c0,2.81588 -2.57079,3.98221 -5.04425,3.98221c-1.52266,0 -3.02272,-0.436287 -4.31073,-1.22891l1.37665,-2.64554c0.764807,0.540579 2.06498,1.0829 3.00187,1.0829c0.479742,0 1.1924,-0.229442 1.1924,-0.813476c0,-0.832596 -1.1924,-0.876051 -2.37438,-1.19066c-1.19414,-0.316352 -2.37612,-0.900386 -2.37612,-2.81066c0,-2.63163 2.37612,-3.7997 4.71225,-3.7997c1.20805,0 2.41783,0.182511 3.52159,0.688326l-1.27757,2.42305Z" style="fill:#808080;fill-rule:nonzero;"/><path d="M866.146,393.304l-3.80144,0l0,-7.56811l-1.23064,0l0,-3.12702l1.23064,0l0,-3.21045l3.80144,0l0,3.21045l2.13972,0l0,3.12702l-2.13972,0l0,7.56811Z" style="fill:#808080;fill-rule:nonzero;"/><path d="M873.786,384.361l0.0417167,0c0.728305,-1.31408 1.97981,-1.89463 3.4538,-1.89463l0.736996,0l0,3.64848c-0.528412,-0.292017 -1.02901,-0.352854 -1.61305,-0.352854c-2.10496,0 -2.62642,1.39925 -2.62642,3.22957l0,4.31421l-3.79448,0l0,-10.6969l3.79448,0l0.00695279,1.7521Z" style="fill:#808080;fill-rule:nonzero;"/><path d="M883.392,393.304l-3.80144,0l0,-10.6951l3.80144,0l0,10.6951ZM883.621,378.506c0,1.16459 -0.959485,2.12408 -2.12755,2.12408c-1.17154,0 -2.13103,-0.959485 -2.13103,-2.12408c0,-1.16981 0.959485,-2.13103 2.13103,-2.13103c1.16807,0.00347639 2.12755,0.961223 2.12755,2.13103" style="fill:#808080;fill-rule:nonzero;"/><path d="M893.899,386.092c-0.563176,-0.415429 -1.23064,-0.752639 -1.95895,-0.752639c-1.46009,0 -2.6073,1.12461 -2.6073,2.6073c0,1.54352 1.10549,2.62642 2.66813,2.62642c0.667468,0 1.39751,-0.271159 1.89811,-0.728305l0,3.21045c-0.832596,0.417167 -1.7521,0.604893 -2.66813,0.604893c-3.16873,0 -5.81775,-2.35178 -5.81775,-5.58309c0,-3.43989 2.62815,-5.81775 5.97766,-5.81775c0.876051,0 1.7521,0.206845 2.50127,0.622275l0.00695279,3.21045Z" style="fill:#808080;fill-rule:nonzero;"/><path d="M900.852,393.304l-3.80144,0l0,-7.56811l-1.22369,0l0,-3.12702l1.22369,0l0,-3.21045l3.80144,0l0,3.21045l2.14494,0l0,3.12702l-2.14494,0l0,7.56811Z" style="fill:#808080;fill-rule:nonzero;"/><path d="M915.995,376.002l0,7.96268l0.0417167,0c0.874313,-1.16807 1.93288,-1.70517 3.41903,-1.70517c2.70985,0 4.01871,1.79208 4.01871,4.50193l0,6.54605l-3.79448,0l0,-5.4788c0,-1.25672 -0.187725,-2.54298 -1.70865,-2.54298c-1.49485,0 -1.98154,1.28974 -1.98154,2.54298l0,5.4788l-3.79796,0l0,-17.3003l3.80318,-0.00521459Z" style="fill:#808080;fill-rule:nonzero;"/><path d="M933.79,386.406c-0.187725,-1.02206 -1.12635,-1.68953 -2.14667,-1.68953c-1.10549,0 -2.02326,0.584034 -2.2527,1.68953l4.39938,0ZM937.311,388.593l-7.98354,0c0,1.54352 0.811738,2.37612 2.37612,2.37612c0.813476,0 1.39751,-0.271159 1.81468,-0.976867l3.64674,0c-0.603154,2.51865 -3.00013,3.66586 -5.44056,3.66586c-3.54418,0 -6.18972,-2.00066 -6.18972,-5.69086c0,-3.5633 2.43174,-5.70998 5.91335,-5.70998c3.718,0 5.85772,2.29268 5.85772,5.94116l0.00521459,0.394571Z" style="fill:#808080;fill-rule:nonzero;"/><path d="M942.647,387.969c0,1.35232 0.89691,2.39697 2.43869,2.39697c1.54178,0 2.43348,-1.04466 2.43348,-2.39697c0,-1.31408 -0.89691,-2.41957 -2.43348,-2.41957c-1.54178,0 -2.43869,1.10549 -2.43869,2.41957M951.195,393.304l-3.79622,0l0,-1.19414l-0.0399785,0c-0.667468,1.06551 -1.98154,1.547 -3.23131,1.547c-3.16178,0 -5.39536,-2.64554 -5.39536,-5.71345c0,-3.06096 2.19013,-5.68738 5.35886,-5.68738c1.22891,0 2.52212,0.460622 3.313,1.39751l0,-1.04466l3.79622,0l-0.00521459,10.6951Z" style="fill:#808080;fill-rule:nonzero;"/><rect x="953.985" y="376" width="3.79448" height="17.3038" style="fill:#808080;fill-rule:nonzero;"/><path d="M964.875,393.304l-3.79448,0l0,-7.56811l-1.23238,0l0,-3.12702l1.23238,0l0,-3.21045l3.79448,0l0,3.21045l2.14667,0l0,3.12702l-2.14667,0l0,7.56811Z" style="fill:#808080;fill-rule:nonzero;"/><path d="M972.515,376.002l0,7.96268l0.0417167,0c0.874313,-1.16807 1.93983,-1.70517 3.41903,-1.70517c2.7168,0 4.02393,1.79208 4.02393,4.50193l0,6.54605l-3.80144,0l0,-5.4788c0,-1.25672 -0.180772,-2.54298 -1.70169,-2.54298c-1.5018,0 -1.9885,1.28974 -1.9885,2.54298l0,5.4788l-3.79448,0l0,-17.3003l3.80144,-0.00521459Z" style="fill:#808080;fill-rule:nonzero;"/><path d="M836.362,413.903c-0.556223,-0.415429 -1.23064,-0.752639 -1.95895,-0.752639c-1.46009,0 -2.6073,1.12461 -2.6073,2.6073c0,1.54352 1.11245,2.62642 2.66813,2.62642c0.667468,0 1.40446,-0.271159 1.89811,-0.728305l0,3.21045c-0.832596,0.417167 -1.7521,0.604893 -2.66118,0.604893c-3.16873,0 -5.8247,-2.35178 -5.8247,-5.58309c0,-3.43989 2.63511,-5.81775 5.98461,-5.81775c0.874313,0 1.75036,0.206845 2.49779,0.622275l0.00347639,3.21045Z" style="fill:#808080;fill-rule:nonzero;"/><path d="M846.421,414.217c-0.180772,-1.02206 -1.12288,-1.68953 -2.13972,-1.68953c-1.11245,0 -2.025,0.584034 -2.2527,1.68953l4.39242,0ZM849.943,416.404l-7.98354,0c0,1.54352 0.811738,2.37612 2.36916,2.37612c0.820429,0 1.40446,-0.271159 1.82163,-0.976867l3.64674,0c-0.603154,2.51865 -3.00534,3.66586 -5.44056,3.66586c-3.54418,0 -6.19146,-2.00066 -6.19146,-5.69086c0,-3.5633 2.43869,-5.70998 5.9203,-5.70998c3.71105,0 5.85772,2.29268 5.85772,5.94116l0,0.394571Z" style="fill:#808080;fill-rule:nonzero;"/><path d="M855.873,411.798l0.0365021,0c0.872575,-1.29322 1.93809,-1.73124 3.42425,-1.73124c2.8715,0 4.01871,1.81294 4.01871,4.44283l0,6.60863l-3.79448,0l0,-5.21459c0,-1.01858 0.166867,-2.80893 -1.70865,-2.80893c-1.54352,0 -1.98154,1.142 -1.98154,2.48041l0,5.53963l-3.7997,0l0,-10.6899l3.7997,0l0.00521459,1.37318Z" style="fill:#808080;fill-rule:nonzero;"/><path d="M870.315,421.116l-3.79448,0l0,-7.56811l-1.23064,0l0,-3.12702l1.23064,0l0,-3.21045l3.79448,0l0,3.21045l2.14667,0l0,3.12702l-2.14667,0l0,7.56811Z" style="fill:#808080;fill-rule:nonzero;"/><path d="M881.664,414.217c-0.187725,-1.02206 -1.12635,-1.68953 -2.14667,-1.68953c-1.10549,0 -2.02326,0.584034 -2.2527,1.68953l4.39938,0ZM885.186,416.404l-7.99049,0c0,1.54352 0.818691,2.37612 2.37612,2.37612c0.813476,0 1.39751,-0.271159 1.81468,-0.976867l3.65369,0c-0.610107,2.51865 -3.00534,3.66586 -5.44577,3.66586c-3.53897,0 -6.19146,-2.00066 -6.19146,-5.69086c0,-3.5633 2.43869,-5.70998 5.9203,-5.70998c3.71105,0 5.85425,2.29268 5.85425,5.94116l0.00869099,0.394571Z" style="fill:#808080;fill-rule:nonzero;"/><path d="M891.115,412.172l0.0417167,0c0.728305,-1.31408 1.97981,-1.89463 3.46075,-1.89463l0.730043,0l0,3.64848c-0.521459,-0.292017 -1.02206,-0.352854 -1.60436,-0.352854c-2.10669,0 -2.63511,1.39925 -2.63511,3.22957l0,4.31421l-3.79448,0l0,-10.6969l3.79448,0l0.00695279,1.7521Z" style="fill:#808080;fill-rule:nonzero;"/><path d="M405.386,33.8218l4.89824,0l0,3.46075l-8.98474,0l0,-15.7185l4.0865,0l0,12.2578Z" style="fill:#808080;fill-rule:nonzero;"/><path d="M415.321,31.9461c0,1.35579 0.89691,2.39697 2.43869,2.39697c1.54178,0 2.43869,-1.04292 2.43869,-2.39697c0,-1.31234 -0.89691,-2.41783 -2.43869,-2.41783c-1.54178,0 -2.43869,1.10376 -2.43869,2.41783M424.202,31.9461c0,3.62762 -3.0036,5.69086 -6.44176,5.69086c-3.41903,0 -6.44176,-2.04412 -6.44176,-5.69086c0,-3.64674 3.0036,-5.71172 6.44176,-5.71172c3.43815,0 6.44176,2.06498 6.44176,5.71172" style="fill:#808080;fill-rule:nonzero;"/><path d="M434.048,30.0713c-0.563176,-0.417167 -1.23064,-0.750901 -1.95895,-0.750901c-1.46009,0 -2.6073,1.12635 -2.6073,2.60556c0,1.54352 1.10549,2.62642 2.66813,2.62642c0.667468,0 1.39751,-0.271159 1.89811,-0.728305l0,3.21045c-0.832596,0.417167 -1.7521,0.604893 -2.66813,0.604893c-3.16873,0 -5.81775,-2.35526 -5.81775,-5.58657c0,-3.43989 2.62815,-5.81601 5.98287,-5.81601c0.876051,0 1.7521,0.208584 2.50127,0.625751l0.0017382,3.20871Z" style="fill:#808080;fill-rule:nonzero;"/><path d="M439.781,31.9461c0,1.35579 0.89691,2.39697 2.43869,2.39697c1.54178,0 2.43869,-1.04292 2.43869,-2.39697c0,-1.31234 -0.89691,-2.41783 -2.43869,-2.41783c-1.54178,0 -2.43869,1.10376 -2.43869,2.41783M448.329,37.2824l-3.79622,0l0,-1.18893l-0.0399785,0c-0.667468,1.06378 -1.98154,1.54352 -3.23131,1.54352c-3.16699,0 -5.39884,-2.64727 -5.39884,-5.71345c0,-3.06444 2.19013,-5.69086 5.35886,-5.69086c1.22891,0 2.52212,0.458884 3.313,1.39751l0,-1.04292l3.79622,0l-0.0017382,10.6951Z" style="fill:#808080;fill-rule:nonzero;"/><rect x="451.121" y="19.9788" width="3.79448" height="17.3038" style="fill:#808080;fill-rule:nonzero;"/><path d="M469.204,19.979l0,7.96442l0.0417167,0c0.874313,-1.16807 1.93809,-1.70865 3.41903,-1.70865c2.70985,0 4.02219,1.79208 4.02219,4.50193l0,6.54605l-3.79448,0l0,-5.48227c0,-1.2515 -0.187725,-2.54298 -1.70865,-2.54298c-1.50006,0 -1.98154,1.29322 -1.98154,2.54298l0,5.48227l-3.79448,0l0,-17.3038l3.79622,0Z" style="fill:#808080;fill-rule:nonzero;"/><path d="M486.998,30.3837c-0.187725,-1.02206 -1.12635,-1.68953 -2.14667,-1.68953c-1.10723,0 -2.02326,0.584034 -2.2527,1.68953l4.39938,0ZM490.52,32.5721l-7.98354,0c0,1.54178 0.811738,2.37612 2.37612,2.37612c0.813476,0 1.39751,-0.271159 1.81468,-0.978605l3.64674,0c-0.603154,2.52212 -3.00013,3.66933 -5.44056,3.66933c-3.54418,0 -6.19146,-2.00066 -6.19146,-5.69086c0,-3.56504 2.44043,-5.71172 5.92204,-5.71172c3.70931,0 5.85599,2.29268 5.85599,5.94116l0,0.394571Z" style="fill:#808080;fill-rule:nonzero;"/><path d="M495.855,31.9461c0,1.35579 0.89691,2.39697 2.43869,2.39697c1.54178,0 2.43348,-1.04292 2.43348,-2.39697c0,-1.31234 -0.89691,-2.41783 -2.43348,-2.41783c-1.54178,0 -2.43869,1.10376 -2.43869,2.41783M504.404,37.2824l-3.79622,0l0,-1.18893l-0.0399785,0c-0.667468,1.06378 -1.98154,1.54352 -3.23131,1.54352c-3.16873,0 -5.39536,-2.64727 -5.39536,-5.71345c0,-3.06444 2.19013,-5.69086 5.35886,-5.69086c1.22891,0 2.52212,0.458884 3.313,1.39751l0,-1.04292l3.79622,0l-0.00521459,10.6951Z" style="fill:#808080;fill-rule:nonzero;"/><rect x="507.187" y="19.9788" width="3.80144" height="17.3038" style="fill:#808080;fill-rule:nonzero;"/><path d="M518.084,37.2829l-3.80144,0l0,-7.56811l-1.23064,0l0,-3.12702l1.23064,0l0,-3.21045l3.80144,0l0,3.21045l2.13972,0l0,3.12702l-2.13972,0l0,7.56811Z" style="fill:#808080;fill-rule:nonzero;"/><path d="M525.724,19.979l0,7.96442l0.0417167,0c0.874313,-1.16807 1.93983,-1.70865 3.41903,-1.70865c2.7168,0 4.02393,1.79208 4.02393,4.50193l0,6.54605l-3.80144,0l0,-5.48227c0,-1.2515 -0.180772,-2.54298 -1.70169,-2.54298c-1.5018,0 -1.9885,1.29322 -1.9885,2.54298l0,5.48227l-3.79448,0l0,-17.3038l3.80144,0Z" style="fill:#808080;fill-rule:nonzero;"/><path d="M405.386,65.0941l-3.79448,0l0,-7.56811l-1.33494,0l0,-3.12702l1.33494,0l0,-1.35406c0,-1.48094 0.0417167,-2.56384 1.08463,-3.75277c0.936888,-1.10549 2.29094,-1.70865 3.73017,-1.70865c0.584034,0 1.10549,0.104292 1.62695,0.375451l0,3.27302c-0.438026,-0.187725 -0.832596,-0.354592 -1.33494,-0.354592c-0.978605,0 -1.31408,0.584034 -1.31408,1.79382l0,1.72951l2.64727,0l0,3.12702l-2.64727,0l0,7.56637l0.0017382,0Z" style="fill:#808080;fill-rule:nonzero;"/><path d="M412.919,59.7573c0,1.35579 0.89691,2.39697 2.43869,2.39697c1.54178,0 2.43869,-1.04292 2.43869,-2.39697c0,-1.31234 -0.89691,-2.41783 -2.43869,-2.41783c-1.54178,0 -2.43869,1.10376 -2.43869,2.41783M421.468,65.0936l-3.79622,0l0,-1.18893l-0.0399785,0c-0.667468,1.06378 -1.98154,1.54352 -3.23131,1.54352c-3.16699,0 -5.39884,-2.64727 -5.39884,-5.71345c0,-3.06444 2.19013,-5.69086 5.35886,-5.69086c1.22891,0 2.52212,0.458884 3.313,1.39751l0,-1.04292l3.79622,0l-0.0017382,10.6951Z" style="fill:#808080;fill-rule:nonzero;"/><path d="M432.062,57.8825c-0.563176,-0.417167 -1.23064,-0.750901 -1.96069,-0.750901c-1.45835,0 -2.60556,1.12635 -2.60556,2.60556c0,1.54352 1.10549,2.62642 2.66813,2.62642c0.667468,0 1.39751,-0.271159 1.89811,-0.728305l0,3.21045c-0.832596,0.417167 -1.7521,0.604893 -2.66813,0.604893c-3.16873,0 -5.81775,-2.35526 -5.81775,-5.58657c0,-3.43989 2.62815,-5.81601 5.98287,-5.81601c0.876051,0 1.7521,0.208584 2.50127,0.625751l0.0017382,3.20871Z" style="fill:#808080;fill-rule:nonzero;"/><path d="M438.469,65.0937l-3.79448,0l0,-10.6951l3.79448,0l0,10.6951ZM438.698,50.2913c0,1.16633 -0.959485,2.12581 -2.12755,2.12581c-1.16633,0 -2.12581,-0.959485 -2.12581,-2.12581c0,-1.16807 0.959485,-2.12755 2.12581,-2.12755c1.16981,0.00347639 2.12755,0.961223 2.12755,2.12755" style="fill:#808080;fill-rule:nonzero;"/><rect x="441.227" y="47.79" width="3.79448" height="17.3038" style="fill:#808080;fill-rule:nonzero;"/><path d="M451.573,65.0937l-3.79448,0l0,-10.6951l3.79448,0l0,10.6951ZM451.801,50.2913c0,1.16633 -0.959485,2.12581 -2.12755,2.12581c-1.16633,0 -2.12581,-0.959485 -2.12581,-2.12581c0,-1.16807 0.959485,-2.12755 2.12581,-2.12755c1.16981,0.00347639 2.12755,0.961223 2.12755,2.12755" style="fill:#808080;fill-rule:nonzero;"/><path d="M458.609,65.0941l-3.79448,0l0,-7.56811l-1.23064,0l0,-3.12702l1.23064,0l0,-3.21045l3.79448,0l0,3.21045l2.14667,0l0,3.12702l-2.14667,0l0,7.56811Z" style="fill:#808080;fill-rule:nonzero;"/><path d="M461.45,54.4002l4.37852,0l2.85586,5.48227l2.79328,-5.48227l4.31421,0l-8.56757,16.0314l-4.25337,0l3.65021,-6.79635l-5.17114,-9.23504Z" style="fill:#808080;fill-rule:nonzero;"/><path d="M581.64,415.022l0.398047,0c1.33494,0 2.83674,-0.253777 2.83674,-1.95895c0,-1.70865 -1.5018,-1.95895 -2.83674,-1.95895l-0.398047,0l0,3.9179ZM590.625,423.69l-5.08596,0l-3.85706,-6.04371l-0.0417167,0l0,6.04371l-4.0865,0l0,-15.7185l6.10802,0c3.10616,0 5.47011,1.48268 5.47011,4.83914c0,2.16927 -1.20979,4.04305 -3.44163,4.44109l4.93474,6.43828Z" style="fill:#000;fill-rule:nonzero;"/><path d="M599.144,416.792c-0.187725,-1.02206 -1.12288,-1.68953 -2.14667,-1.68953c-1.10549,0 -2.02326,0.584034 -2.2527,1.68953l4.39938,0ZM602.666,418.982l-7.98702,0c0,1.54178 0.818691,2.37612 2.37612,2.37612c0.813476,0 1.40272,-0.271159 1.81468,-0.980343l3.65369,0c-0.610107,2.52386 -3.00534,3.66933 -5.44056,3.66933c-3.54418,0 -6.19146,-1.99893 -6.19146,-5.68912c0,-3.5633 2.43869,-5.71345 5.9203,-5.71345c3.71105,0 5.85772,2.29616 5.85772,5.94463l-0.00347639,0.392833Z" style="fill:#000;fill-rule:nonzero;"/><path d="M611.609,415.748c-0.584034,-0.316352 -1.39751,-0.519721 -2.04238,-0.519721c-0.438026,0 -1.18719,0.184249 -1.18719,0.726566c0,0.730043 1.18719,0.832596 1.70169,0.940365c1.77644,0.349378 3.10616,1.18893 3.10616,3.16352c0,2.81588 -2.56384,3.98221 -5.04425,3.98221c-1.52266,0 -3.01577,-0.436287 -4.31073,-1.23064l1.37665,-2.64554c0.764807,0.544056 2.06498,1.0829 3.00187,1.0829c0.479742,0 1.19414,-0.227704 1.19414,-0.816953c0,-0.832596 -1.19414,-0.872575 -2.37612,-1.18719c-1.19414,-0.314614 -2.37612,-0.898648 -2.37612,-2.81414c0,-2.62642 2.37612,-3.79796 4.71225,-3.79796c1.20805,0 2.42131,0.185987 3.52159,0.688326l-1.27757,2.42826Z" style="fill:#000;fill-rule:nonzero;"/><path d="M618.653,418.356c0,1.35058 0.903862,2.39697 2.43869,2.39697c1.53657,0 2.44043,-1.04987 2.44043,-2.39697c0,-1.31408 -0.903862,-2.42478 -2.44043,-2.42478c-1.53483,0 -2.43869,1.11418 -2.43869,2.42478M627.533,418.356c0,3.62588 -3.00187,5.68564 -6.44176,5.68564c-3.4173,0 -6.44176,-2.04238 -6.44176,-5.68564c0,-3.65195 3.00708,-5.71345 6.44176,-5.71345c3.43989,0 6.44176,2.06498 6.44176,5.71345" style="fill:#000;fill-rule:nonzero;"/><path d="M633.311,412.998l0,5.71345c0,1.34884 0.326781,2.3118 1.89811,2.3118c1.56959,0 1.89637,-0.962961 1.89637,-2.3118l0,-5.71345l3.80144,0l0,6.44002c0,3.51985 -2.4891,4.60448 -5.69086,4.60448c-3.21219,0 -5.68564,-1.08463 -5.68564,-4.60448l0,-6.44002l3.78058,0Z" style="fill:#000;fill-rule:nonzero;"/><path d="M647.403,414.748l0.0417167,0c0.728305,-1.31582 1.97981,-1.89637 3.46075,-1.89637l0.730043,0l0,3.64848c-0.521459,-0.292017 -1.02206,-0.352854 -1.60436,-0.352854c-2.10669,0 -2.63511,1.39577 -2.63511,3.22957l0,4.30899l-3.79448,0l0,-10.6916l3.79448,0l0.00695279,1.75384Z" style="fill:#000;fill-rule:nonzero;"/><path d="M661.222,416.478c-0.563176,-0.417167 -1.23064,-0.757854 -1.96069,-0.757854c-1.45835,0 -2.60556,1.12809 -2.60556,2.6073c0,1.54873 1.10549,2.63163 2.66813,2.63163c0.667468,0 1.39751,-0.271159 1.89811,-0.730043l0,3.21219c-0.832596,0.417167 -1.7521,0.604893 -2.66813,0.604893c-3.16178,0 -5.81775,-2.35352 -5.81775,-5.58657c0,-3.44163 2.62815,-5.81775 5.98461,-5.81775c0.874313,0 1.75036,0.210322 2.49779,0.624013l0.00347639,3.21219Z" style="fill:#000;fill-rule:nonzero;"/><path d="M671.279,416.792c-0.187725,-1.02206 -1.12288,-1.68953 -2.14667,-1.68953c-1.10549,0 -2.02326,0.584034 -2.2527,1.68953l4.39938,0ZM674.801,418.982l-7.98702,0c0,1.54178 0.818691,2.37612 2.37612,2.37612c0.813476,0 1.40272,-0.271159 1.81468,-0.980343l3.65369,0c-0.610107,2.52386 -3.00534,3.66933 -5.44056,3.66933c-3.54418,0 -6.19146,-1.99893 -6.19146,-5.68912c0,-3.5633 2.43869,-5.71345 5.9203,-5.71345c3.71105,0 5.85772,2.29616 5.85772,5.94463l-0.00347639,0.392833Z" style="fill:#000;fill-rule:nonzero;"/><path d="M580.618,446.167c0,1.35058 0.903862,2.39697 2.43869,2.39697c1.53657,0 2.44043,-1.04987 2.44043,-2.39697c0,-1.31408 -0.903862,-2.42478 -2.44043,-2.42478c-1.53483,0 -2.43869,1.11418 -2.43869,2.42478M589.167,451.501l-3.79622,0l0,-1.18719l-0.0399785,0c-0.667468,1.06378 -1.98154,1.54352 -3.22609,1.54352c-3.16699,0 -5.39884,-2.64554 -5.39884,-5.71172c0,-3.06618 2.19013,-5.6926 5.35886,-5.6926c1.22891,0 2.52212,0.464099 3.313,1.40272l0,-1.04639l3.79622,0l-0.00695279,10.6916Z" style="fill:#000;fill-rule:nonzero;"/><rect x="591.959" y="434.2" width="3.79448" height="17.302" style="fill:#000;fill-rule:nonzero;"/><path d="M602.296,451.502l-3.79448,0l0,-17.302l3.80144,0l-0.00695279,17.302Z" style="fill:#000;fill-rule:nonzero;"/><path d="M608.378,446.167c0,1.35058 0.89691,2.39697 2.43174,2.39697c1.54873,0 2.44043,-1.04987 2.44043,-2.39697c0,-1.31408 -0.902124,-2.42478 -2.44043,-2.42478c-1.53483,0.00521459 -2.43174,1.11418 -2.43174,2.42478M617.259,446.167c0,3.62588 -3.00013,5.68564 -6.44176,5.68564c-3.4173,0 -6.44176,-2.04238 -6.44176,-5.68564c0,-3.65195 3.00708,-5.71345 6.44176,-5.71345c3.44163,0 6.44176,2.06498 6.44176,5.71345" style="fill:#000;fill-rule:nonzero;"/><path d="M627.108,444.289c-0.563176,-0.417167 -1.23064,-0.757854 -1.95895,-0.757854c-1.46009,0 -2.6073,1.12809 -2.6073,2.6073c0,1.54873 1.10549,2.63163 2.66813,2.63163c0.667468,0 1.39751,-0.271159 1.89811,-0.730043l0,3.21219c-0.832596,0.417167 -1.7521,0.604893 -2.66813,0.604893c-3.16178,0 -5.81775,-2.35352 -5.81775,-5.58657c0,-3.44163 2.62815,-5.81775 5.98461,-5.81775c0.874313,0 1.75036,0.210322 2.49779,0.624013l0.00347639,3.21219Z" style="fill:#000;fill-rule:nonzero;"/><path d="M632.839,446.167c0,1.35058 0.903862,2.39697 2.43869,2.39697c1.53657,0 2.44043,-1.04987 2.44043,-2.39697c0,-1.31408 -0.903862,-2.42478 -2.44043,-2.42478c-1.53483,0 -2.43869,1.11418 -2.43869,2.42478M641.387,451.501l-3.79622,0l0,-1.18719l-0.0399785,0c-0.667468,1.06378 -1.98154,1.54352 -3.22609,1.54352c-3.16699,0 -5.39884,-2.64554 -5.39884,-5.71172c0,-3.06618 2.1936,-5.6926 5.35886,-5.6926c1.22891,0 2.52212,0.464099 3.313,1.40272l0,-1.04639l3.79622,0l-0.00695279,10.6916Z" style="fill:#000;fill-rule:nonzero;"/><path d="M648.504,451.502l-3.80144,0l0,-7.56811l-1.23064,0l0,-3.12702l1.23064,0l0,-3.21219l3.80144,0l0,3.21219l2.13972,0l0,3.12702l-2.13972,0l0,7.56811Z" style="fill:#000;fill-rule:nonzero;"/><path d="M656.076,451.502l-3.79448,0l0,-10.6916l3.79448,0l0,10.6916ZM656.305,436.701c0,1.16633 -0.959485,2.12755 -2.12755,2.12755c-1.16633,0 -2.12581,-0.961223 -2.12581,-2.12755c0,-1.16807 0.959485,-2.12755 2.12581,-2.12755c1.16807,0.00347639 2.12755,0.959485 2.12755,2.12755" style="fill:#000;fill-rule:nonzero;"/><path d="M662.089,446.167c0,1.35058 0.903862,2.39697 2.43869,2.39697c1.53657,0 2.44043,-1.04987 2.44043,-2.39697c0,-1.31408 -0.903862,-2.42478 -2.44043,-2.42478c-1.53483,0 -2.43869,1.11418 -2.43869,2.42478M670.97,446.167c0,3.62588 -3.00534,5.68564 -6.44176,5.68564c-3.4173,0 -6.44176,-2.04238 -6.44176,-5.68564c0,-3.65195 3.0036,-5.71345 6.44176,-5.71345c3.44163,0 6.44176,2.06498 6.44176,5.71345" style="fill:#000;fill-rule:nonzero;"/><path d="M676.855,442.184l0.0417167,0c0.874313,-1.29322 1.93288,-1.73124 3.41903,-1.73124c2.87672,0 4.01871,1.81294 4.01871,4.44283l0,6.61036l-3.78927,0l0,-5.21459c0,-1.02032 0.166867,-2.81414 -1.70865,-2.81414c-1.54352,0 -1.98154,1.14547 -1.98154,2.48215l0,5.54137l-3.79448,0l0,-10.6916l3.79448,0l0,1.37491Z" style="fill:#000;fill-rule:nonzero;"/><rect x="425.737" y="218.684" width="131.135" height="82.142" style="fill:#fff;fill-rule:nonzero;"/><path d="M462.102,279.235l-0.017382,0l-0.834335,4.73311l-0.922983,0l1.46356,-7.46556l2.45607,5.64045l2.46129,-5.64045l1.46356,7.46556l-0.919506,0l-0.836073,-4.73311l-0.0208584,0l-2.14667,4.88607l-2.14667,-4.88607Z" style="fill:#000;fill-rule:nonzero;"/><path d="M469.016,276.806l3.84663,0l0,0.816953l-2.9532,0l0,2.00588l2.86803,0l0,0.815214l-2.86803,0l0,2.70637l2.9532,0l0,0.818691l-3.84663,0l0,-7.16311Z" style="fill:#000;fill-rule:nonzero;"/><path d="M474.757,283.15l0.312875,0c1.82511,0 3.39818,-0.68485 3.39818,-2.76026c0,-2.08931 -1.57133,-2.76721 -3.39818,-2.76721l-0.312875,0l0,5.52747ZM473.867,276.807l1.48094,0c2.19187,0 4.01697,1.1559 4.01697,3.54245c0,2.44043 -1.78687,3.61893 -4.04652,3.61893l-1.44966,0l0,-7.16137l-0.0017382,0Z" style="fill:#000;fill-rule:nonzero;"/><rect x="480.328" y="276.806" width="0.893433" height="7.16137" style="fill:#000;fill-rule:nonzero;"/><path d="M487.833,278.173c-0.516245,-0.458884 -1.215,-0.702232 -1.89116,-0.702232c-1.60262,0 -2.82978,1.33841 -2.82978,2.92539c0,1.56959 1.215,2.90453 2.8124,2.90453c0.702232,0 1.37491,-0.264206 1.90854,-0.74221l0,1.05682c-0.54927,0.325043 -1.25324,0.505815 -1.88073,0.505815c-2.04412,0 -3.73017,-1.62695 -3.73017,-3.69715c0,-2.11886 1.69822,-3.77189 3.80318,-3.77189c0.630966,0 1.26715,0.1547 1.80946,0.484957l0,1.03944l-0.00347639,0l0,-0.00347639l0.0017382,0Z" style="fill:#000;fill-rule:nonzero;"/><path d="M497.926,278.042l-0.0208584,0l-2.49779,6.16365l-2.49257,-6.16365l-0.0191202,0l-1.22543,5.92551l-0.434549,0l1.53657,-7.3995l2.63511,6.51302l2.63684,-6.51302l1.5383,7.3995l-0.434549,0l-1.22195,-5.92551Z" style="fill:#000;fill-rule:nonzero;"/><path d="M500.608,280.386c0,1.76601 1.47051,3.24869 3.25912,3.24869c1.7747,0 3.25912,-1.49311 3.25912,-3.24869c0,-1.76775 -1.48442,-3.24869 -3.25912,-3.24869c-1.7886,0 -3.25912,1.48268 -3.25912,3.24869M507.579,280.386c0,2.01283 -1.70169,3.67629 -3.71105,3.67629c-2.01283,0 -3.71627,-1.66345 -3.71627,-3.67629c0,-2.01283 1.69474,-3.67629 3.71627,-3.67629c2.01109,0 3.71105,1.66345 3.71105,3.67629" style="fill:#000;fill-rule:nonzero;"/><path d="M509.31,283.537l1.09333,0c0.500601,0 1.02206,0.0243348 1.46009,-0.274635c0.434549,-0.292017 0.698755,-0.740472 0.698755,-1.2741c0,-0.517983 -0.253777,-1.04118 -0.738734,-1.27757c-0.438026,-0.217275 -1.03423,-0.229442 -1.51397,-0.229442l-1.00294,0l0,3.05749l0.00347639,0l0,-0.0017382ZM509.31,280.052l0.787403,0c0.483219,0 0.874313,0.0295493 1.27931,-0.262468c0.410214,-0.295493 0.533626,-0.658777 0.533626,-1.15069c0,-0.465837 -0.179034,-0.924721 -0.589249,-1.1785c-0.359807,-0.23118 -0.806523,-0.23118 -1.22369,-0.23118l-0.787403,0l0,2.82283ZM508.852,283.968l0,-7.16137l1.43575,0c0.540579,0 1.05509,0.0382403 1.48442,0.418905c0.434549,0.380665 0.59794,0.910815 0.59794,1.47747c0,0.658777 -0.257253,1.14026 -0.827382,1.46356c0.883004,0.182511 1.48268,0.893433 1.48268,1.80251c0,0.577081 -0.219013,1.10202 -0.665729,1.48442c-0.502339,0.42412 -1.03423,0.51103 -1.67215,0.51103l-1.83554,0l0,0.00347639Z" style="fill:#000;fill-rule:nonzero;"/><rect x="514.331" y="276.806" width="0.455408" height="7.16137" style="fill:#000;fill-rule:nonzero;"/><path d="M516.918,283.537l1.82337,0l0,0.425858l-2.28225,0l0,-7.15616l0.460622,0l0,6.7303l-0.0017382,0Z" style="fill:#000;fill-rule:nonzero;"/><path d="M520.131,277.232l0,2.60382l2.88367,0l0,0.427596l-2.88367,0l0,3.27302l2.96189,0l0,0.425858l-3.41903,0l0,-7.1579l3.41903,0l0,0.422382l-2.96189,0l0,0.00521459Z" style="fill:#000;fill-rule:nonzero;"/><rect x="433.134" y="226.105" width="116.336" height="6.59298" style="fill:#58595b;fill-rule:nonzero;"/><rect x="433.134" y="232.698" width="116.336" height="3.9544" style="fill:#64a2c8;fill-rule:nonzero;"/><path d="M488.551,260.668l-3.87444,3.41556c-0.114721,0.102554 -0.293755,0.0956008 -0.398047,-0.0243348l-3.55635,-4.03609c-0.102554,-0.111245 -0.0903862,-0.292017 0.026073,-0.398047l3.87096,-3.41382c0.116459,-0.102554 0.29897,-0.088648 0.401524,0.0225966l3.55287,4.03609c0.100815,0.116459 0.0938626,0.292017 -0.0225966,0.398047M499.61,250.637c-0.0330257,-1.03249 -0.82912,-0.697017 -1.0968,-0.611845c1.07768,-0.670944 2.0024,-2.63337 1.75906,-3.48509c-0.189463,-0.658777 -0.624013,-0.434549 -1.1559,0.0869099c1.55742,-3.51463 -0.749163,-5.40058 -0.749163,-5.39884c-0.398047,-0.26073 -0.679635,0.088648 -0.676159,0.611845c0.0816953,4.22903 -3.00708,6.6712 -6.38266,8.69446c-2.53255,1.63738 -3.43468,4.3959 -3.73886,6.36528c-0.0782189,0.245086 -0.262468,0.12515 -0.351116,0.0521459l-1.94852,-2.21099c-0.210322,-0.245086 -0.512768,-0.35633 -0.811738,-0.349378c-0.227704,0.0104292 -0.46236,0.0903862 -0.644871,0.257253l-0.088648,0.0782189l0,-0.0017382l-0.00347639,0.0017382l-0.469313,-0.537103c-0.137318,-0.1547 -0.328519,-0.239871 -0.514506,-0.239871c-0.14427,0 -0.283326,0.0417167 -0.394571,0.142532l-0.26073,0.227704c-0.255515,0.227704 -0.264206,0.634442 -0.0156438,0.914292l0.469313,0.538841l-3.20697,2.82805c-0.429335,0.375451 -0.465837,1.02554 -0.0921244,1.45835l11.114,12.5932c0.205107,0.241609 0.507554,0.359807 0.804785,0.349378c0.234657,-0.00695279 0.467575,-0.088648 0.651824,-0.257253l4.48107,-3.95614c0.42412,-0.373712 0.465837,-1.02727 0.088648,-1.45661l-3.75972,-4.25684c0,-0.00347639 -0.0017382,-0.00695279 -0.00521459,-0.0104292c-0.137318,-0.220751 0.248562,-0.180772 0.248562,-0.180772l0,-0.00521459c0.611845,0.0225966 1.06204,-0.116459 1.38534,-0.331996c0.483219,-0.325043 -0.0712661,-0.56839 -0.1547,-0.803047c0.749163,0.35633 2.22489,0.0538841 2.59339,-0.420644c0.285064,-0.370236 -0.203369,-0.528412 -0.679635,-0.634442c1.18719,-0.552747 2.13972,-1.10723 2.64901,-2.42131c0.29897,-0.770021 -0.523197,-0.79088 -1.34363,-0.478004c0.672682,-0.672682 1.34363,-1.58176 1.67736,-2.74983c0.380665,-1.32798 -0.114721,-1.99024 -1.18197,-1.10028c0.971652,-0.95427 1.84249,-2.21446 1.80425,-3.30257" style="fill:#58595b;fill-rule:nonzero;"/><rect x="474.01" y="227.426" width="7.91053" height="5.27195" style="fill:#64a2c8;fill-rule:nonzero;"/><rect x="484.557" y="227.426" width="7.91053" height="5.27195" style="fill:#cc8c21;fill-rule:nonzero;"/><rect x="495.105" y="227.426" width="7.91053" height="5.27195" style="fill:#78b1b1;fill-rule:nonzero;"/><path d="M549.451,293.413l-116.285,0l0,-67.3013l116.285,0l0,67.3013ZM556.873,218.684l-131.135,0l0,82.142l131.135,0l0,-82.142Z" style="fill:#b3b3b3;fill-rule:nonzero;"/><path d="M505.009,315.551l-27.4096,0l0,-4.49498l27.4096,0l0,4.49498ZM417.901,306.15c0,0 2.94624,14.3001 13.4919,14.3001l0,0.00695279l119.819,0l0,-0.00695279c10.5474,0 13.4936,-14.3001 13.4936,-14.3001l-146.805,0Z" style="fill:#b3b3b3;fill-rule:nonzero;"/><path d="M281.327,267.424c-2.30833,0 -4.18558,-1.87378 -4.18558,-4.1821l0,-5.27195c0,-2.32571 -1.8703,-4.19775 -4.19253,-4.19775l-2.79676,0c-2.3118,0 -4.1821,1.87204 -4.1821,4.19775l0,5.27195c0,2.30833 -1.88421,4.1821 -4.19601,4.1821l-26.5475,0c-2.32223,0 -4.19601,1.88073 -4.19601,4.19601l0,94.4119c0,2.32397 1.87378,4.19948 4.19601,4.19948l46.1022,0c2.31528,0 4.19948,-1.87551 4.19948,-4.19948l0,-94.4119c-0.0017382,-2.31528 -1.87725,-4.19601 -4.20122,-4.19601" style="fill:#b3b3b3;fill-rule:nonzero;"/><path d="M240.198,348.655c0,-2.31528 1.8703,-4.19253 4.19601,-4.19253c2.3118,0 4.18558,1.87725 4.18558,4.19253c0,2.31528 -1.87378,4.19948 -4.18558,4.19948c-2.32571,0 -4.19601,-1.88421 -4.19601,-4.19948" style="fill:#fff;fill-rule:nonzero;"/><path d="M244.394,330.583c2.3118,0 4.18558,1.87378 4.18558,4.1821c0,2.3118 -1.87378,4.19601 -4.18558,4.19601c-2.32571,0 -4.19601,-1.88421 -4.19601,-4.19601c0,-2.30833 1.8703,-4.1821 4.19601,-4.1821" style="fill:#fff;fill-rule:nonzero;"/><path d="M240.198,320.881c0,-2.31528 1.8703,-4.18558 4.19601,-4.18558c2.3118,0 4.18558,1.8703 4.18558,4.18558c0,2.31875 -1.87378,4.19253 -4.18558,4.19253c-2.32571,0 -4.19601,-1.87378 -4.19601,-4.19253" style="fill:#fff;fill-rule:nonzero;"/><path d="M266.787,363.096l-17.5523,0c-1.15764,0 -2.09974,-0.933412 -2.09974,-2.08584c0,-1.16981 0.942103,-2.10322 2.09974,-2.10322l17.5523,0c1.16633,0 2.09453,0.933412 2.09453,2.10322c0,1.15242 -0.928197,2.08584 -2.09453,2.08584" style="fill:#fff;fill-rule:nonzero;"/><path d="M258.014,330.583c2.31528,0 4.18558,1.87378 4.18558,4.1821c0,2.3118 -1.8703,4.19601 -4.18558,4.19601c-2.32223,0 -4.19601,-1.88421 -4.19601,-4.19601c0,-2.30833 1.87378,-4.1821 4.19601,-4.1821" style="fill:#fff;fill-rule:nonzero;"/><path d="M253.818,320.881c0,-2.31528 1.87378,-4.18558 4.19601,-4.18558c2.31528,0 4.18558,1.8703 4.18558,4.18558c0,2.31875 -1.8703,4.19253 -4.18558,4.19253c-2.32223,0 -4.19601,-1.87378 -4.19601,-4.19253" style="fill:#fff;fill-rule:nonzero;"/><path d="M258.014,344.462c2.31528,0 4.18558,1.87725 4.18558,4.19253c0,2.31528 -1.8703,4.19948 -4.18558,4.19948c-2.32223,0 -4.19601,-1.88421 -4.19601,-4.19948c0,-2.31528 1.87378,-4.19253 4.19601,-4.19253" style="fill:#fff;fill-rule:nonzero;"/><path d="M271.635,352.854c-2.30833,0 -4.19253,-1.88421 -4.19253,-4.19948c0,-2.31528 1.88421,-4.19253 4.19253,-4.19253c2.31528,0 4.19948,1.87725 4.19948,4.19253c0,2.31528 -1.88421,4.19948 -4.19948,4.19948" style="fill:#fff;fill-rule:nonzero;"/><path d="M271.635,338.965c-2.30833,0 -4.19253,-1.88768 -4.19253,-4.19948c0,-2.30833 1.88421,-4.1821 4.19253,-4.1821c2.31528,0 4.19948,1.87378 4.19948,4.1821c0,2.3118 -1.88421,4.19948 -4.19948,4.19948" style="fill:#fff;fill-rule:nonzero;"/><path d="M271.635,325.073c-2.30833,0 -4.19253,-1.87378 -4.19253,-4.19253c0,-2.31528 1.88421,-4.18558 4.19253,-4.18558c2.31528,0 4.19948,1.8703 4.19948,4.18558c0,2.31875 -1.88421,4.19253 -4.19948,4.19253" style="fill:#fff;fill-rule:nonzero;"/><path d="M278.455,304.575c0,2.31528 -1.88421,4.18558 -4.19948,4.18558l-31.9602,0c-2.32397,0 -4.19601,-1.8703 -4.19601,-4.18558l0,-23.1163c0,-2.31528 1.87204,-4.18905 4.19601,-4.18905l31.9602,0c2.31528,0 4.19948,1.87378 4.19948,4.18905l0,23.1163Z" style="fill:#fff;fill-rule:nonzero;"/><path d="M257.077,295.346l-2.78633,2.45607c-0.0834335,0.0747425 -0.21206,0.0677897 -0.286803,-0.017382l-2.55863,-2.90279c-0.0730043,-0.0834335 -0.0660515,-0.213798 0.0191202,-0.285064l2.78459,-2.45781c0.0851717,-0.0730043 0.213798,-0.0660515 0.288541,0.0208584l2.55863,2.89584c0.0730043,0.088648 0.0660515,0.215536 -0.0191202,0.290279M265.035,288.13c-0.0278112,-0.740472 -0.59794,-0.502339 -0.787403,-0.441502c0.771759,-0.478004 1.43923,-1.89116 1.26367,-2.49953c-0.135579,-0.474528 -0.448455,-0.314614 -0.834335,0.0538841c1.12114,-2.52386 -0.537103,-3.88139 -0.537103,-3.87792c-0.285064,-0.187725 -0.488433,0.0625751 -0.481481,0.438026c0.0538841,3.04011 -2.16579,4.79916 -4.59405,6.25577c-1.82337,1.1785 -2.46824,3.16004 -2.69247,4.58015c-0.0556223,0.175558 -0.184249,0.088648 -0.252039,0.0365021l-1.40272,-1.59219c-0.152961,-0.17382 -0.36676,-0.257253 -0.582296,-0.248562c-0.168605,0.00521459 -0.331996,0.0660515 -0.467575,0.184249l-0.0608369,0.0521459l-0.0017382,0l-0.0017382,0l-0.338948,-0.384142c-0.100815,-0.111245 -0.238133,-0.17382 -0.370236,-0.17382c-0.104292,0 -0.203369,0.0347639 -0.281588,0.102554l-0.189463,0.170343c-0.182511,0.158176 -0.187725,0.457146 -0.0104292,0.657038l0.338948,0.387618l-2.30833,2.03195c-0.307661,0.269421 -0.335472,0.738734 -0.0643133,1.04987l7.99223,9.05948c0.152961,0.172082 0.36676,0.257253 0.580558,0.253777c0.170343,-0.00869099 0.331996,-0.0677897 0.467575,-0.184249l3.22436,-2.84717c0.307661,-0.271159 0.33721,-0.74221 0.0660515,-1.04639l-2.7029,-3.06966c-0.00521459,-0.00347639 -0.00521459,-0.00521459 -0.00695279,-0.00695279c-0.0990772,-0.159914 0.182511,-0.126888 0.182511,-0.126888l0,-0.0017382c0.434549,0.0139056 0.76133,-0.088648 0.990772,-0.241609c0.347639,-0.236395 -0.0469313,-0.410214 -0.111245,-0.584034c0.542317,0.265944 1.60262,0.0417167 1.86682,-0.300708c0.206845,-0.265944 -0.149485,-0.377189 -0.490172,-0.455408c0.856931,-0.398047 1.54352,-0.794356 1.90854,-1.7382c0.215536,-0.554485 -0.375451,-0.570129 -0.966438,-0.345901c0.483219,-0.483219 0.966438,-1.13852 1.20457,-1.98328c0.271159,-0.952532 -0.0834335,-1.42532 -0.84824,-0.787403c0.698755,-0.686588 1.32624,-1.59219 1.29843,-2.37612" style="fill:#787878;fill-rule:nonzero;"/><path d="M787.336,431.243l-68.2242,0l7.58028,-12.5133l53.0637,0l7.58028,12.5133Z" style="fill:#b4b4b4;fill-rule:nonzero;"/><rect x="693.429" y="328.342" width="119.59" height="87.6051" style="fill:#b4b4b4;fill-rule:nonzero;"/><rect x="701.642" y="333.774" width="102.901" height="65.3579" style="fill:#fff;fill-rule:nonzero;"/><path d="M720.538,390.395l-0.0243348,0l-0.940365,5.32584l-1.0377,0l1.64781,-8.40418l2.76895,6.35137l2.76895,-6.35137l1.64955,8.40418l-1.03944,0l-0.940365,-5.32584l-0.0243348,0l-2.41262,5.49618l-2.41609,-5.49618Z" style="fill:#000;fill-rule:nonzero;"/><path d="M728.309,387.659l4.32985,0l0,0.919506l-3.32691,0l0,2.25792l3.23131,0l0,0.919506l-3.23131,0l0,3.0488l3.32691,0l0,0.917768l-4.32985,0l0,-8.0635Z" style="fill:#000;fill-rule:nonzero;"/><path d="M734.752,394.805l0.352854,0c2.05803,0 3.82925,-0.770021 3.82925,-3.11311c0,-2.35352 -1.77296,-3.10963 -3.82925,-3.10963l-0.352854,0l0,6.22275ZM733.748,387.659l1.67041,0c2.46824,0 4.52105,1.30365 4.52105,3.9909c0,2.74983 -2.00936,4.0726 -4.55581,4.0726l-1.63391,0l0,-8.0635l-0.0017382,0Z" style="fill:#000;fill-rule:nonzero;"/><rect x="741.013" y="387.658" width="1.00468" height="8.06523" style="fill:#000;fill-rule:nonzero;"/><path d="M749.439,389.198c-0.577081,-0.512768 -1.36796,-0.79088 -2.12755,-0.79088c-1.80772,0 -3.18612,1.50702 -3.18612,3.29388c0,1.76601 1.36622,3.27476 3.16526,3.27476c0.789141,0 1.54873,-0.300708 2.14667,-0.832596l0,1.18719c-0.615322,0.363283 -1.41142,0.566652 -2.11539,0.566652c-2.29963,0 -4.20296,-1.82858 -4.20296,-4.16124c0,-2.38307 1.91549,-4.24294 4.28813,-4.24294c0.705708,0 1.42185,0.170343 2.03021,0.545794l0,1.15938l0.0017382,0Z" style="fill:#000;fill-rule:nonzero;"/><path d="M760.812,389.049l-0.0225966,0l-2.81066,6.94236l-2.80197,-6.94236l-0.0225966,0l-1.38013,6.67468l-0.49191,0l1.73472,-8.33118l2.96015,7.33867l2.97406,-7.33867l1.73124,8.33118l-0.49191,0l-1.37839,-6.67468Z" style="fill:#000;fill-rule:nonzero;"/><path d="M763.818,391.692c0,1.99024 1.6565,3.65717 3.66586,3.65717c2.00066,0 3.67107,-1.68084 3.67107,-3.65717c0,-1.99197 -1.67041,-3.65717 -3.67107,-3.65717c-2.00762,0 -3.66586,1.66519 -3.66586,3.65717M771.669,391.692c0,2.26835 -1.91549,4.13865 -4.18384,4.13865c-2.26487,0 -4.18036,-1.8703 -4.18036,-4.13865c0,-2.27009 1.90506,-4.14039 4.18036,-4.14039c2.26835,0 4.18384,1.87204 4.18384,4.14039" style="fill:#000;fill-rule:nonzero;"/><path d="M773.6,395.243l1.23064,0c0.564914,0 1.15416,0.0243348 1.64433,-0.311137c0.493648,-0.330257 0.79088,-0.832596 0.79088,-1.43054c0,-0.589249 -0.288541,-1.1785 -0.832596,-1.4427c-0.490172,-0.2503 -1.16633,-0.257253 -1.69996,-0.257253l-1.1333,0l0,3.44163ZM773.6,391.316l0.889957,0c0.542317,0 0.980343,0.0330257 1.4427,-0.29897c0.457146,-0.330257 0.59794,-0.738734 0.59794,-1.29496c0,-0.524936 -0.199893,-1.03597 -0.662253,-1.32451c-0.408476,-0.257253 -0.909077,-0.257253 -1.37839,-0.257253l-0.889957,0l0,3.17569ZM773.088,395.723l0,-8.0635l1.61479,0c0.608369,0 1.18545,0.0434549 1.66867,0.471051c0.49191,0.429335 0.670944,1.02901 0.670944,1.66867c0,0.738734 -0.288541,1.28279 -0.929935,1.64607c0.995987,0.205107 1.66867,1.00642 1.66867,2.03195c0,0.651824 -0.246824,1.24107 -0.747425,1.66867c-0.56839,0.481481 -1.16807,0.577081 -1.88421,0.577081l-2.0615,0Z" style="fill:#000;fill-rule:nonzero;"/><rect x="779.235" y="387.658" width="0.512768" height="8.06523" style="fill:#000;fill-rule:nonzero;"/><path d="M782.128,395.243l2.05281,0l0,0.479742l-2.56906,0l0,-8.0635l0.516245,0l0,7.58375Z" style="fill:#000;fill-rule:nonzero;"/><path d="M785.724,388.141l0,2.93234l3.25217,0l0,0.479742l-3.25217,0l0,3.69019l3.33734,0l0,0.478004l-3.85011,0l0,-8.06523l3.85011,0l0,0.481481l-3.33734,0.00347639Z" style="fill:#000;fill-rule:nonzero;"/><rect x="701.655" y="333.774" width="102.924" height="8.34682" style="fill:#58595b;fill-rule:nonzero;"/><rect x="701.655" y="341.067" width="102.924" height="5.22502" style="fill:#64a2c8;fill-rule:nonzero;"/><path d="M750.243,369.469l-4.36461,3.84663c-0.130365,0.114721 -0.328519,0.10603 -0.446717,-0.0295493l-4.00654,-4.54365c-0.118197,-0.132103 -0.10603,-0.333734 0.0278112,-0.451931l4.36287,-3.84837c0.130365,-0.112983 0.333734,-0.100815 0.448455,0.0295493l4.01176,4.54539c0.112983,0.133841 0.0990772,0.335472 -0.0330257,0.451931M762.706,358.167c-0.0365021,-1.16112 -0.929935,-0.787403 -1.23586,-0.690064c1.21152,-0.756116 2.25966,-2.96363 1.98502,-3.92137c-0.21206,-0.749163 -0.70397,-0.49191 -1.30539,0.088648c1.7521,-3.95787 -0.843026,-6.08195 -0.843026,-6.07847c-0.44324,-0.295493 -0.763068,0.104292 -0.757854,0.688326c0.0903862,4.76266 -3.38948,7.51249 -7.19266,9.79822c-2.85933,1.84597 -3.87096,4.95212 -4.22034,7.17354c-0.0869099,0.271159 -0.292017,0.142532 -0.389356,0.0590987l-2.19882,-2.49431c-0.241609,-0.271159 -0.580558,-0.405 -0.910815,-0.394571c-0.262468,0.0104292 -0.519721,0.10603 -0.730043,0.292017l-0.100815,0.0834335l-0.0017382,0l-0.00521459,0l-0.526674,-0.599678c-0.158176,-0.182511 -0.371974,-0.271159 -0.580558,-0.274635c-0.161652,0 -0.319828,0.0521459 -0.441502,0.159914l-0.293755,0.26073c-0.288541,0.252039 -0.300708,0.717875 -0.0225966,1.03423l0.535365,0.603154l-3.61719,3.18785c-0.484957,0.42412 -0.526674,1.16112 -0.102554,1.64086l12.5168,14.1924c0.238133,0.271159 0.575343,0.401524 0.910815,0.394571c0.26073,-0.00695279 0.519721,-0.104292 0.731781,-0.288541l5.05294,-4.455c0.479742,-0.42412 0.521459,-1.15938 0.100815,-1.6426l-4.23599,-4.80264l-0.00347639,-0.00695279c-0.158176,-0.252039 0.276373,-0.205107 0.276373,-0.205107l0,-0.0017382c0.686588,0.0225966 1.19588,-0.137318 1.55742,-0.378927c0.547532,-0.368498 -0.0764807,-0.639657 -0.175558,-0.909077c0.84824,0.408476 2.50822,0.0608369 2.92539,-0.471051c0.321566,-0.417167 -0.23118,-0.594463 -0.764807,-0.710923c1.34189,-0.620536 2.41609,-1.24803 2.98796,-2.72549c0.335472,-0.869099 -0.592725,-0.893433 -1.50876,-0.542317c0.752639,-0.754378 1.50876,-1.78513 1.88421,-3.09921c0.427596,-1.49137 -0.133841,-2.24575 -1.3332,-1.2376c1.0968,-1.07942 2.07715,-2.49779 2.03369,-3.72669" style="fill:#58595b;fill-rule:nonzero;"/><rect x="733.954" y="335.632" width="11.1227" height="5.56049" style="fill:#64a2c8;fill-rule:nonzero;"/><rect x="746.469" y="335.632" width="11.1245" height="5.56049" style="fill:#cc8c21;fill-rule:nonzero;"/><rect x="758.984" y="335.632" width="8.34335" height="5.56049" style="fill:#78b1b1;fill-rule:nonzero;"/><path d="M177.397,217.64c9.59659,0 17.375,7.87229 17.375,17.5819c0,9.71131 -7.77843,17.5801 -17.375,17.5801c-9.59659,0 -17.375,-7.86882 -17.375,-17.5801c0,-9.70957 7.77843,-17.5819 17.375,-17.5819" style="fill:#64a2c8;fill-rule:nonzero;"/><path d="M212.029,279.049c-2.8124,-12.9113 -13.9699,-23.5439 -24.6963,-23.5439l-9.00212,0l-8.80744,0.465837c-10.7264,0 -21.8839,10.4066 -24.6946,23.3197l-9.59485,52.6952c0,12.1674 15.2735,12.1674 15.2735,0l9.14813,-48.1029l-0.547532,39.0729l-6.06978,99.9828c0,5.43882 3.07313,9.74781 8.4459,9.74781c5.39015,0 9.12901,-3.14092 9.12901,-8.57974l5.73431,-81.6935l4.15951,0l5.73431,81.6779c0,5.43882 3.98395,9.15161 9.37062,9.15161c5.37451,0 8.20429,-4.75571 8.20429,-10.1945l-6.06805,-100.134l-0.547532,-38.986l9.14639,48.0559c0,12.1674 15.2718,12.1674 15.2718,0l-9.58963,-52.9351Z" style="fill:#64a2c8;fill-rule:nonzero;"/><rect x="174.948" y="281.664" width="6.3479" height="6.3479" style="fill:#fff;fill-rule:nonzero;stroke-width:0.37px;stroke:#fff;"/><rect x="174.948" y="269.014" width="6.3479" height="6.34616" style="fill:#fff;fill-rule:nonzero;stroke-width:0.37px;stroke:#fff;"/><rect x="181.282" y="275.33" width="6.3479" height="6.3479" style="fill:#fff;fill-rule:nonzero;stroke-width:0.37px;stroke:#fff;"/><rect x="174.948" y="275.33" width="6.3479" height="6.3479" style="fill:#fff;fill-rule:nonzero;stroke-width:0.37px;stroke:#fff;"/><rect x="168.583" y="275.33" width="6.3479" height="6.3479" style="fill:#fff;fill-rule:nonzero;stroke-width:0.37px;stroke:#fff;"/></g></g></svg>