<?xml version="1.0" standalone="no"?><!DOCTYPE svg PUBLIC "-//W3C//DTD SVG 1.1//EN" "http://www.w3.org/Graphics/SVG/1.1/DTD/svg11.dtd"><svg width="100%" height="100%" viewBox="0 0 1000 774" version="1.1" xmlns="http://www.w3.org/2000/svg" xmlns:xlink="http://www.w3.org/1999/xlink" xml:space="preserve" style="fill-rule:evenodd;clip-rule:evenodd;stroke-linejoin:round;stroke-miterlimit:1.41421;"><g id="download"><g id="Layer 1"><g id="laptop"><path d="M875.55,257.067l-750,0l0,454.423l749.912,0.30107l0.0880088,-454.724ZM907.041,245.358l0,476.158c0,7.48963 -5.41474,14.9677 -12.907,14.9677l-786.788,0c-7.49285,0 -14.3867,-7.47809 -14.3867,-14.9677l0,-103.971l0,-295.339l0,-76.8479c0,-14.9798 12.9675,-25.7804 27.9516,-25.7804l759.657,0c14.9846,0 26.4725,10.8006 26.4725,25.7804" style="fill:#c8c8c8;fill-rule:nonzero;"/><path d="M3.91153e-14,735.484l1.14005e-18,16.4788c0,0 20.3245,21.6155 69.2871,21.6155l862.31,0c48.962,0 68.4026,-21.6155 68.4026,-21.6155l2.27374e-13,-16.4788l-1000,-5.22959e-12Z" style="fill:#b4b4b4;fill-rule:nonzero;"/><path d="M565.094,747.98l-130.188,0l-9.90579,0c0,0 0.152405,12.4965 9.0429,12.4965l131.914,0c8.89104,0 9.0429,-12.4965 9.0429,-12.4965l-9.90579,0Z" style="fill:#fff;fill-rule:nonzero;"/></g><g id="Layer 11"><rect x="244.58" y="324.578" width="510.839" height="310.465" style="fill:#c8c8c8;stroke-width:1.33px;stroke:#a0a0a0;"/><rect x="256.58" y="352.578" width="486.84" height="271.037" style="fill:#fff;"/><rect x="400" y="539.578" width="200" height="60" style="fill:#63a3c8;"/><text x="449.98px" y="582.248px" style="font-family:Helvetica Neue;font-size:38.1829px;font-weight:500;fill:#fff;">I<tspan x="460.324px 480.943px 499.653px 511.906px 531.9px 540.96px " y="582.248px 582.248px 582.248px 582.248px 582.248px 582.248px ">nstall</tspan></text><text x="411.6px" y="118.254px" style="font-family:Helvetica Neue;font-size:36.3505px;font-weight:500;fill:#656464;">D<tspan x="438.572px 460.855px 489.863px 511.455px 520.942px 543.225px 564.163px " y="118.254px 118.254px 118.254px 118.254px 118.254px 118.254px 118.254px ">ownload</tspan></text><g><path d="M606.099,613.987c-1.93231,-1.29087 -3.84643,-1.04387 -4.37268,-0.941798l-5.62277,0.991447c-1.74209,-2.88405 -4.39543,-3.48613 -5.90234,-3.29237l-6.3191,1.10959c-1.82433,-3.27803 -4.9337,-4.10373 -6.6717,-4.00964l-0.148359,0.00759252l-6.45786,1.1387l-2.13709,-12.12c-0.0814015,-0.665669 -0.483023,-2.73936 -2.39816,-4.24214c-1.7944,-1.41034 -4.26134,-1.85033 -7.32933,-1.30936c-2.99821,0.528666 -5.17357,1.76865 -6.46682,3.68746c-1.50209,2.22834 -1.18763,4.52511 -1.09561,5.02065l5.14973,29.2056c-3.65827,-2.59608 -6.8591,-3.6772 -9.50505,-3.21065c-6.79662,1.19843 -7.11755,5.32122 -6.7022,7.6768c0.352047,1.99656 1.69729,4.63726 1.84925,4.93307l0.144876,0.281973l24.9592,27.6889l1.75885,9.97491l39.7556,-7.00998l5.04487,-25.9935l-4.17277,-23.6649c-0.482291,-2.76154 -1.61386,-4.75641 -3.3605,-5.9222ZM608.614,643.525l-2.08606,10.7548l-2.13553,11.0099l-31.5476,5.5627l-1.14743,-6.50738l-25.4761,-28.258c-0.410466,-0.833933 -1.08319,-2.36547 -1.23838,-3.24557c-0.121649,-0.689904 -0.0139827,-0.849303 0.0221706,-0.900935c0.20871,-0.303704 1.03444,-0.767265 2.67873,-1.0572c2.43549,-0.429442 7.33661,3.2263 9.88024,5.83208l0.0744867,-0.0711564l1.42942,8.10665l4.86197,-0.857296l-7.90379,-44.8246c-0.000793793,-0.00450182 -0.0710712,-0.686057 0.345688,-1.30379c0.506217,-0.755356 1.62484,-1.30189 3.22861,-1.58468c1.54863,-0.273065 2.74984,-0.166909 3.38591,0.301159c0.426824,0.31465 0.549167,0.778144 0.574766,0.923328l-0.00285175,0.0364767l5.10766,28.967l4.86309,-0.857494l-2.06207,-11.6946l6.10559,-1.07658c0.404223,0.028523 2.09881,0.333154 2.64692,3.44166l1.3937,7.90407l4.86197,-0.857296l-1.17283,-6.65144l5.64078,-0.994622l-0.170275,0.0346659c0.527221,0.0613761 1.45414,0.790319 1.88358,3.2258l1.3939,7.9052l4.86197,-0.857296l-1.26134,-7.15339l4.96776,-0.87595l0.104999,-0.0231559c0.00450182,-0.000793793 0.337759,0.0135522 0.634778,0.210676c0.56531,0.376104 1.00919,1.32715 1.24713,2.67657l4.01302,22.759l-0.00450182,0.000793793ZM608.614,643.525" style="fill:#010001;fill-rule:nonzero;"/><path d="M608.614,643.525l-2.08606,10.7548l-2.13553,11.0099l-31.5476,5.5627l-1.14743,-6.50738l-25.4761,-28.258c-0.410466,-0.833933 -1.08319,-2.36547 -1.23838,-3.24557c-0.121649,-0.689904 -0.0139827,-0.849303 0.0221706,-0.900935c0.20871,-0.303704 1.03444,-0.767265 2.67873,-1.0572c2.43549,-0.429442 7.33661,3.2263 9.88024,5.83208l0.0744867,-0.0711564l1.42942,8.10665l4.86197,-0.857296l-7.90379,-44.8246c-0.000793793,-0.00450182 -0.0710712,-0.686057 0.345688,-1.30379c0.506217,-0.755356 1.62484,-1.30189 3.22861,-1.58468c1.54863,-0.273065 2.74984,-0.166909 3.38591,0.301159c0.426824,0.31465 0.549167,0.778144 0.574766,0.923328l-0.00285175,0.0364767l5.10766,28.967l4.86309,-0.857494l-2.06207,-11.6946l6.10559,-1.07658c0.404223,0.028523 2.09881,0.333154 2.64692,3.44166l1.3937,7.90407l4.86197,-0.857296l-1.17283,-6.65144l5.64078,-0.994622l-0.170275,0.0346659c0.527221,0.0613761 1.45414,0.790319 1.88358,3.2258l1.3939,7.9052l4.86197,-0.857296l-1.26134,-7.15339l4.96776,-0.87595l0.104999,-0.0231559c0.00450182,-0.000793793 0.337759,0.0135522 0.634778,0.210676c0.56531,0.376104 1.00919,1.32715 1.24713,2.67657l4.01302,22.759l-0.00450182,0.000793793Z" style="fill:#fff;fill-rule:nonzero;"/></g></g><g><path d="M580.967,155.572l-55.3944,0l0,-12.7948l55.4082,0c20.0155,0 36.2351,-14.3547 36.2351,-33.9473c0,-19.6099 -16.2197,-36.3842 -36.2351,-36.3842c-10.0736,0 -19.1731,4.24991 -25.7386,10.9679c0.107461,-1.50445 0.173324,-3.01931 0.173324,-4.56536c0,-35.313 -26.3106,-66.0642 -61.8004,-66.0642c-29.8707,0 -56.261,21.8007 -63.8595,49.7475c-2.4508,-0.471442 -4.9536,-0.745294 -7.50147,-0.745294c-22.3553,0 -39.4451,19.1211 -39.4451,41.4903c0,22.3692 19.1627,39.5006 41.5181,39.5006c0.377847,0 0.731428,-0.0554637 1.09541,-0.0554637l0,0.0554637l49.0195,0l0,12.7948l-49.0334,0c-29.479,0 -55.4082,-21.7591 -55.4082,-51.1583c0,-28.6505 22.7471,-54.2019 51.1445,-55.4082c11.9836,-28.5846 39.7293,-49.0057 72.4564,-49.0057c37.5351,0 67.0834,27.0975 74.4358,62.2892c4.04885,-1.09541 8.54488,-2.61373 12.9438,-2.61373c27.2049,0 49.0195,22.5321 49.0195,49.0195c-0.0138659,26.4701 -21.8284,46.8772 -49.0334,46.8772ZM580.967,155.572" style="fill:#656464;fill-rule:nonzero;"/><path d="M489.337,133.9l21.3119,0l0,42.9738l14.9232,0l-25.5792,27.7041l-25.5792,-27.7041l14.9232,0l0,-42.9738ZM489.337,120.9" style="fill:#656464;fill-rule:nonzero;"/></g><g><path d="M345.981,449.59l-11.7024,10.3211c-0.353785,0.311871 -0.894152,0.278521 -1.20737,-0.0766158l-10.7469,-12.1842c-0.313674,-0.355137 -0.278972,-0.897306 0.0739117,-1.20963l11.7028,-10.3211c0.354686,-0.312322 0.895954,-0.277169 1.20828,0.0761651l10.7469,12.1864c0.313223,0.355137 0.278521,0.895504 -0.0752638,1.20783M379.409,419.28c-0.109065,-3.11466 -2.50263,-2.11775 -3.3098,-1.85726c3.24941,-2.01725 6.04814,-7.95137 5.31578,-10.5153c-0.571914,-2.00012 -1.89376,-1.31509 -3.50495,0.246973c4.70376,-10.6171 -2.26152,-16.3169 -2.26152,-16.3102c-1.19836,-0.788241 -2.05285,0.272211 -2.03392,1.84915c0.242016,12.7701 -9.09249,20.1509 -19.2865,26.272c-7.66383,4.95073 -10.3769,13.2829 -11.3171,19.2387c-0.234354,0.730554 -0.785537,0.383079 -1.05054,0.156837l-5.89446,-6.6845c-0.643573,-0.729202 -1.55079,-1.08614 -2.45126,-1.05459c-0.698105,0.0238861 -1.39035,0.280324 -1.9546,0.776974l-0.265451,0.235706l-0.00450681,-0.00540817l-0.00540817,0.00540817l-1.42325,-1.61434c-0.421387,-0.476821 -0.995555,-0.727399 -1.5562,-0.73416c-0.432203,-0.00270409 -0.854942,0.140162 -1.19025,0.43671l-0.785988,0.692697c-0.774721,0.682331 -0.796804,1.92396 -0.0491243,2.77169l1.4237,1.61434l-9.691,8.54672c-1.293,1.14158 -1.41649,3.11195 -0.275366,4.40451l33.573,38.0668c0.640418,0.725146 1.54223,1.08299 2.43954,1.05504c0.701711,-0.0207313 1.39982,-0.278972 1.96632,-0.778777l13.5466,-11.9485c1.293,-1.14067 1.41514,-3.11331 0.275366,-4.40451l-11.3608,-12.8827c-0.00630954,-0.0108163 -0.00991499,-0.0202807 -0.0175766,-0.029745c-0.417781,-0.664755 0.761201,-0.536311 0.761201,-0.536311l0.00135204,-0.0117177c1.83022,0.0617433 3.19533,-0.362798 4.16475,-1.01448c1.46967,-0.988344 -0.201905,-1.71664 -0.460596,-2.43593c2.26918,1.092 6.72867,0.162696 7.8405,-1.27092c0.867561,-1.12039 -0.625996,-1.5891 -2.05195,-1.90909c3.59824,-1.67248 6.47133,-3.34315 8.01401,-7.31546c0.903616,-2.32552 -1.58279,-2.39492 -4.06019,-1.45705c2.0204,-2.02131 4.04937,-4.78128 5.05935,-8.31372c1.14383,-4.0007 -0.348827,-6.01344 -3.57165,-3.31431c2.93258,-2.87354 5.56681,-6.68405 5.45234,-9.97132" style="fill:#656464;fill-rule:nonzero;"/><path d="M406.686,443.22l-0.0750363,0l-3.3016,18.684l-3.63993,0l5.7778,-29.4893l9.7172,22.2858l9.7172,-22.2858l5.7778,29.4893l-3.63859,0l-3.3016,-18.684l-0.0750363,0l-8.47977,19.2843l-8.47843,-19.2843Z" style="fill:#656464;fill-rule:nonzero;"/><path d="M436.438,433.616l15.1949,0l0,3.22589l-11.6681,0l0,7.917l11.3305,0l0,3.22589l-11.3305,0l0,10.6927l11.6681,0l0,3.22723l-15.1949,0l0,-28.2887Z" style="fill:#656464;fill-rule:nonzero;"/><path d="M461.838,458.677l1.23877,0c7.20349,0 13.4308,-2.70064 13.4308,-10.9178c0,-8.25332 -6.22734,-10.9178 -13.4308,-10.9178l-1.23877,0l0,21.8356ZM458.311,433.616l5.8535,0c8.66602,0 15.8695,4.57721 15.8695,13.9936c0,9.64217 -7.05341,14.2944 -15.9821,14.2944l-5.74095,0l0,-28.288Z" style="fill:#656464;fill-rule:nonzero;"/><rect x="485.323" y="433.616" width="3.52671" height="28.2887" style="fill:#656464;fill-rule:nonzero;"/><path d="M516.613,439.018c-2.02531,-1.80087 -4.80232,-2.77634 -7.46611,-2.77634c-6.3399,0 -11.1797,5.29006 -11.1797,11.5556c0,6.1905 4.80232,11.4806 11.1047,11.4806c2.77701,0 5.44013,-1.05051 7.54115,-2.92642l0,4.16452c-2.17538,1.27562 -4.9524,1.98913 -7.42859,1.98913c-8.0664,0 -14.7446,-6.41627 -14.7446,-14.5952c0,-8.36655 6.71642,-14.8947 15.0448,-14.8947c2.47687,0 4.99058,0.60096 7.12845,1.91343l0,4.08948Z" style="fill:#656464;fill-rule:nonzero;"/><path d="M540.212,443.22l-0.0750363,0l-3.3016,18.684l-3.63993,0l5.7778,-29.4893l9.7172,22.2858l9.7172,-22.2858l5.7778,29.4893l-3.63859,0l-3.3016,-18.684l-0.0750363,0l-8.47977,19.2843l-8.47843,-19.2843Z" style="fill:#8c8c8c;fill-rule:nonzero;"/><path d="M592.587,447.759c0,-6.22801 -4.65225,-11.4424 -11.293,-11.4424c-6.64138,0 -11.293,5.21435 -11.293,11.4424c0,6.45379 5.17751,11.443 11.293,11.443c6.11479,0 11.293,-4.98924 11.293,-11.443M596.114,447.759c0,8.40407 -6.64071,14.7453 -14.8197,14.7453c-8.17896,0 -14.8197,-6.34124 -14.8197,-14.7453c0,-8.10392 6.71575,-14.7446 14.8197,-14.7446c8.10392,0 14.8197,6.64071 14.8197,14.7446" style="fill:#8c8c8c;fill-rule:nonzero;"/><path d="M604.63,458.752l2.70131,0c3.26408,0 6.67823,-0.975472 6.67823,-4.98991c0,-3.97692 -4.05196,-4.80232 -7.20349,-4.80232l-2.17605,0l0,9.79224ZM604.63,446.147l0.901106,0c3.33845,0 6.07727,-0.675997 6.07727,-4.72796c0,-3.97692 -2.70064,-4.65158 -6.0029,-4.65158l-0.975472,0l0,9.37954ZM601.103,433.615l3.45234,0c5.32691,0 10.3543,1.38884 10.3543,7.76626c0,2.0635 -1.12554,4.46466 -3.0383,5.3651l0,0.0750363c3.33845,0.60029 5.66524,3.86437 5.66524,7.16597c0,5.66524 -4.84051,7.91633 -9.83043,7.91633l-6.60319,0l0,-28.2887Z" style="fill:#8c8c8c;fill-rule:nonzero;"/><rect x="623.989" y="433.616" width="3.52671" height="28.2887" style="fill:#8c8c8c;fill-rule:nonzero;"/><path d="M639.709,458.677l8.59166,0l0,3.22656l-12.1184,0l0,-28.288l3.52671,0l0,25.0615Z" style="fill:#8c8c8c;fill-rule:nonzero;"/><path d="M652.503,433.616l15.1949,0l0,3.22589l-11.6681,0l0,7.917l11.3305,0l0,3.22589l-11.3305,0l0,10.6927l11.6681,0l0,3.22723l-15.1949,0l0,-28.2887Z" style="fill:#8c8c8c;fill-rule:nonzero;"/><path d="M676.002,438.607l-0.587561,0l0,-4.17791l-1.12018,0l0,-0.538653l2.82793,0l0,0.538653l-1.12018,0l0,4.17791Z" style="fill:#8c8c8c;fill-rule:nonzero;"/><path d="M678.946,435.492l-0.0120594,0l-0.550713,3.11468l-0.60699,0l0.963413,-4.91622l1.61998,3.71497l1.62065,-3.71497l0.963413,4.91622l-0.60632,0l-0.550713,-3.11468l-0.0127294,0l-1.4143,3.21584l-1.41363,-3.21584Z" style="fill:#8c8c8c;fill-rule:nonzero;"/></g></g></g></svg>