<?xml version="1.0" standalone="no"?><!DOCTYPE svg PUBLIC "-//W3C//DTD SVG 1.1//EN" "http://www.w3.org/Graphics/SVG/1.1/DTD/svg11.dtd"><svg width="100%" height="100%" viewBox="0 0 980 546" version="1.1" xmlns="http://www.w3.org/2000/svg" xmlns:xlink="http://www.w3.org/1999/xlink" xml:space="preserve" style="fill-rule:evenodd;clip-rule:evenodd;stroke-miterlimit:10;"><g id="hub&amp;spoke-diagram"><g id="Layer 1"><path d="M843.062,35.8268l12.442,0l0,16.1258l-12.442,0l0,12.442l-16.1269,0l0,-12.442l-12.453,0l0,-16.1258l12.453,0l0,-12.453l16.1269,0l0,12.453ZM939.464,76.3497l-13.2108,0l0,-13.2108l13.2108,0l0,13.2108ZM939.464,98.7903l-13.2108,0l0,-13.2261l13.2108,0l0,13.2261ZM939.464,121.986l-13.2108,0l0,-13.2119l13.2108,0l0,13.2119ZM918.885,76.3497l-13.2108,0l0,-13.2108l13.2108,0l0,13.2108ZM918.885,98.7903l-13.2108,0l0,-13.2261l13.2108,0l0,13.2261ZM918.885,121.986l-13.2108,0l0,-13.2119l13.2108,0l0,13.2119ZM834.993,76.3771c-17.9485,0 -32.4929,-14.5477 -32.4929,-32.4929c0,-17.9485 14.5586,-32.4929 32.4929,-32.4929c17.9452,0 32.4929,14.5444 32.4929,32.4929c0,17.9452 -14.5477,32.4929 -32.4929,32.4929M855.504,159.013l-38.7945,0l0,-48.4037l38.7945,0l0,48.4037ZM768.008,76.3497l-13.2108,0l0,-13.2108l13.2108,0l0,13.2108ZM768.008,98.7903l-13.2108,0l0,-13.2261l13.2108,0l0,13.2261ZM768.008,121.986l-13.2108,0l0,-13.2119l13.2108,0l0,13.2119ZM747.43,76.3497l-13.2108,0l0,-13.2108l13.2108,0l0,13.2108ZM747.43,98.7903l-13.2108,0l0,-13.2261l13.2108,0l0,13.2261ZM747.43,121.986l-13.2108,0l0,-13.2119l13.2108,0l0,13.2119ZM950.973,159.621c0.296108,-0.917934 0.472676,-1.90386 0.472676,-2.91502l0,-107.384c0,-5.10292 -4.12906,-9.21553 -9.21663,-9.21553l-51.3056,0l0,114.293c0,1.83477 -0.336685,3.58839 -0.916837,5.22137l-6.01866,0c0.297204,-0.917934 0.473772,-1.90386 0.473772,-2.91502l0,-147.488c0,-5.08757 -4.13015,-9.21772 -9.21772,-9.21772l-80.5029,0c-5.08757,0 -9.21772,4.13015 -9.21772,9.21772l0,147.488c0,1.01115 0.176568,1.99708 0.484739,2.91502l-6.01757,0c-0.581248,-1.63298 -0.917934,-3.38659 -0.917934,-5.22137l0,-114.293l-50.0762,0c-5.09854,0 -9.21443,4.11261 -9.21443,9.21553l0,107.384c0,1.01115 0.173278,1.99708 0.470482,2.91502l-15.8418,0l0,19.054l261.176,0l0,-19.054l-14.6135,0Z" style="fill:#646464;fill-rule:nonzero;"/><path d="M924.265,363.796c0,-8.926 7.27657,-16.162 16.2497,-16.162c8.97426,0 16.2464,7.23599 16.2464,16.162c0,8.92381 -7.27328,16.1587 -16.2464,16.1587c-8.97316,0 -16.2497,-7.2349 -16.2497,-16.1587" style="fill:#f47b63;fill-rule:nonzero;"/><path d="M947.752,423.966l5.45167,-24.1218l11.7105,11.398l-15.6246,11.1468c-0.625116,0.441968 -1.1296,0.983735 -1.53757,1.57705M903.414,441.526c0,6.46063 2.76257,12.0636 7.15923,16.1675c0.00438678,0.00329009 -0.890516,22.0381 -0.890516,22.0381l18.3521,0l5.1753,59.0274c0.353136,4.03035 3.92178,7.0693 7.98065,6.71726c4.049,-0.350942 7.04736,-3.82308 6.68874,-7.85563c0,0 -3.49517,-39.9625 -3.49517,-39.9669c0,0 -0.752333,-8.27237 -1.56279,-17.9222l28.5261,0l-23.5559,-46.0031c2.19339,1.50357 5.17311,1.63079 7.46191,0l21.9218,-15.5654c2.91502,-2.08043 3.91081,-6.75454 0.758913,-9.84393c-3.1508,-3.09049 -18.7019,-18.1744 -18.7019,-18.1744c-7.34566,-7.14168 -20.245,-8.11116 -26.3174,0.308171c0,0 -26.0948,39.1992 -26.0948,39.2047c-2.14514,3.43814 -3.40633,7.52004 -3.40633,11.8684" style="fill:#f47b63;fill-rule:nonzero;"/><path d="M28.8091,113.676c2.03327,0 3.69148,-1.65382 3.69148,-3.6849c0.0010967,-2.03108 -1.6593,-3.6838 -3.69148,-3.6838c-2.03656,0 -3.69038,1.65272 -3.69038,3.6838c0,2.03108 1.65382,3.6849 3.69038,3.6849" style="fill:#cc8c21;fill-rule:nonzero;"/><path d="M32.3594,115.628l-6.87518,0c-1.81942,0 -3.29886,1.75471 -3.29886,3.57852l-0.00987026,10.6785l2.39957,0l0,12.0636l8.77356,0l0,-12.0636l2.30964,0l-0.00548348,-10.6785c0.0010967,-1.8238 -1.47505,-3.57852 -3.29338,-3.57852" style="fill:#cc8c21;fill-rule:nonzero;"/><path d="M8.29211,88.6894c2.53885,0 4.6138,-2.06727 4.6138,-4.60612c0.00219339,-2.53885 -2.07495,-4.60393 -4.6138,-4.60393c-2.54543,0 -4.6138,2.06508 -4.6138,4.60393c0,2.53885 2.06837,4.60612 4.6138,4.60612" style="fill:#cc8c21;fill-rule:nonzero;"/><path d="M12.726,89.3068l-8.59151,0c-2.27455,0 -4.12248,2.0563 -4.12248,4.33524l-0.0120636,13.2119l2.64084,0l0,17.5471l10.967,0l0,-17.5471l3.24512,0l-0.00767687,-13.2119c0,-2.27893 -1.84354,-4.33524 -4.11919,-4.33524" style="fill:#cc8c21;fill-rule:nonzero;"/><path d="M173.044,67.1443c-2.86895,0.664597 -11.149,2.26029 -19.5124,2.93585c-0.715045,-4.53045 -2.44344,-7.89291 -4.69385,-9.30984c0.312558,-0.00548348 0.619633,-0.0219339 0.933287,-0.0274174c0.473772,-0.0131603 0.943158,-0.0285141 1.41693,-0.0460612c0.811554,-0.0274174 1.61982,-0.0668984 2.42589,-0.108573c0.438678,-0.025224 0.88284,-0.0460612 1.31384,-0.0723819c0.934384,-0.0625116 1.85561,-0.13599 2.76915,-0.214952c0.282947,-0.0241273 0.569185,-0.0471579 0.848842,-0.0701885c1.18224,-0.111863 2.34693,-0.240176 3.48639,-0.38494c0.296108,-0.039481 0.580152,-0.0811554 0.867486,-0.120636c0.848842,-0.115153 1.68123,-0.231403 2.49498,-0.365199c0.38823,-0.0636083 0.765493,-0.12941 1.14385,-0.194115c0.705175,-0.11954 1.39829,-0.250046 2.07933,-0.383843c0.38165,-0.0767687 0.7633,-0.154634 1.13289,-0.231403c0.679951,-0.14586 1.33248,-0.296108 1.97734,-0.454032c0.331202,-0.0800587 0.658017,-0.155731 0.982639,-0.240176c0.108573,-0.0296108 0.227016,-0.0526414 0.333395,-0.0822521c0.050448,5.53502 0.0318042,8.14625 0,9.37016M139.208,70.0801c-4.98887,-0.38165 -9.87793,-1.06708 -13.621,-1.71852c-1.3259,-0.711755 -2.69129,-1.44215 -4.11151,-2.19668c-0.24237,-0.133797 -0.503383,-0.228113 -0.767687,-0.296108c-0.0976059,-0.0230306 -0.190825,-0.0482546 -0.282947,-0.0679951c-0.219339,-0.237983 -0.486933,-0.428808 -0.772073,-0.594409c-0.0329009,-1.49809 -0.0329009,-3.80773 0.0537381,-7.42463c0.12612,0.0350942 0.25882,0.0636083 0.38494,0.0954125c0.300494,0.0778653 0.615246,0.149151 0.921224,0.223726c0.668984,0.161214 1.34784,0.316945 2.04863,0.466095c0.346556,0.0723819 0.702982,0.14586 1.0616,0.219339c0.708465,0.138184 1.43009,0.270884 2.16926,0.399197c0.352039,0.0603182 0.698595,0.121733 1.0627,0.178761c0.856519,0.137087 1.72949,0.264304 2.61562,0.379456c0.250046,0.0350942 0.496803,0.0712852 0.750139,0.105283c1.14495,0.143667 2.31512,0.269787 3.50284,0.383843c0.27198,0.0230306 0.553831,0.0438678 0.824715,0.0668984c0.917934,0.078962 1.84245,0.153537 2.77793,0.214952c0.436485,0.0274174 0.877356,0.0482546 1.32042,0.0745753c0.788524,0.039481 1.58582,0.0778653 2.3908,0.106379c0.478159,0.0208372 0.965092,0.0350942 1.44654,0.0460612c0.304881,0.00548348 0.605376,0.0219339 0.911354,0.0274174c-2.25371,1.42132 -3.97333,4.78049 -4.68727,9.31094M135.416,108.688c1.58582,-0.298301 3.12777,-0.618536 4.63573,-0.951931c0.153537,-0.0339975 0.310365,-0.0658017 0.462805,-0.0997992c1.47505,-0.330105 2.90624,-0.684338 4.29356,-1.05063c0.0833488,-0.0219339 0.172181,-0.039481 0.25553,-0.0625116c0.0866389,10.1543 0.0460612,14.8986 -0.00877356,17.1117c-5.25646,1.20746 -20.3656,4.12357 -35.6163,5.35297c-1.30287,-8.27018 -4.46026,-14.4029 -8.57287,-16.9889c0.0679951,-0.00219339 0.131603,0.441968 0.202889,0.441968c1.96966,-0.039481 3.93494,0.26211 5.87719,0.26211l0.0581248,0c1.91044,0 3.80553,-0.639373 5.68417,-0.76988c0.206179,-0.010967 0.412357,-0.247853 0.617439,-0.2654c1.86657,-0.128313 3.71231,-0.390423 5.52844,-0.568088c0.050448,-0.00219339 0.103089,-0.064705 0.150247,-0.0712852c1.81942,-0.175471 3.6169,-0.399197 5.38368,-0.616343c0.107476,-0.0120636 0.212759,-0.039481 0.318042,-0.0537381c1.7251,-0.211662 3.42279,-0.457322 5.09196,-0.708465c0.219339,-0.0361909 0.435388,-0.0734786 0.655824,-0.10967c1.66807,-0.257723 3.31092,-0.537381 4.90552,-0.836778c0.0241273,-0.00548348 0.050448,-0.00987026 0.0767687,-0.0153537M83.2963,128.998c-16.1159,-1.2294 -30.997,-4.11919 -35.5351,-5.342c-0.152441,-1.84135 -0.309268,-6.32793 -0.0471579,-17.1008c0.12941,0.0339975 0.27527,0.0625116 0.409067,0.0976059c1.31274,0.345459 2.66168,0.675564 4.05229,0.989219c0.237983,0.0537381 0.486933,0.106379 0.732592,0.159021c1.35552,0.297204 2.73954,0.581248 4.15647,0.846649c0.160117,0.0339975 0.314751,0.0625116 0.477062,0.0943158c1.5266,0.281851 3.08939,0.543961 4.6774,0.790717c0.297204,0.0449645 0.591119,0.0932191 0.883936,0.134893c1.60995,0.247853 3.24622,0.474869 4.9121,0.679951c0.167794,0.025224 0.337782,0.039481 0.50448,0.0603182c1.67465,0.203985 3.37892,0.39152 5.10292,0.559314c0.117346,0.00877356 0.231403,0.0219339 0.347652,0.0350942c1.78542,0.173278 3.59826,0.316945 5.42754,0.444161c0.223726,0.0186438 0.454032,0.0339975 0.682144,0.0482546c1.86548,0.125023 3.74412,0.234693 5.6425,0.318042c0.0208372,0.00219339 0.0361909,0.00219339 0.0581248,0.00219339c1.96308,0.0855422 3.93823,0.14586 5.92873,0.179858c0.0460612,0 0.0932191,0.00219339 0.140377,0.00329009c-4.11151,2.58601 -7.25573,8.72311 -8.55312,16.9999M51.4483,70.1613c-0.710658,-4.53045 -2.44015,-7.89182 -4.69166,-9.31204c0.352039,-0.00658017 0.699691,-0.0219339 1.05063,-0.0329009c0.38823,-0.00877356 0.77646,-0.0230306 1.16688,-0.0383843c0.921224,-0.0307075 1.83477,-0.0723819 2.74283,-0.121733c0.345459,-0.0219339 0.690918,-0.039481 1.03638,-0.0570281c1.08792,-0.0701885 2.16597,-0.153537 3.22648,-0.25224c0.138184,-0.014257 0.281851,-0.0230306 0.417841,-0.0339975c1.23049,-0.117346 2.43686,-0.250046 3.61909,-0.3981c0.185341,-0.0241273 0.361909,-0.0515447 0.540671,-0.075672c0.962898,-0.12612 1.90825,-0.264304 2.83386,-0.411261c0.321332,-0.0515447 0.634986,-0.110766 0.954125,-0.161214c0.77646,-0.134893 1.53647,-0.27527 2.27893,-0.424421c0.332299,-0.0679951 0.661307,-0.133797 0.983735,-0.202889c0.741366,-0.157924 1.4586,-0.322428 2.16597,-0.496803c0.26869,-0.0658017 0.548348,-0.128313 0.810458,-0.198502c0.12612,-0.0350942 0.257723,-0.0614149 0.382747,-0.0954125c0.039481,4.42626 0.0329009,6.95963 0.014257,8.4292c-0.957415,0.508866 -1.92251,1.02541 -2.90186,1.54963c-3.91959,0.76659 -10.2475,1.81832 -16.6314,2.33377M37.1221,70.1613c-8.83278,-0.676661 -16.9867,-2.2559 -19.4751,-2.92379c-0.0822521,-1.00786 -0.167794,-3.47214 -0.0263207,-9.37126c0.12941,0.0329009 0.27198,0.0625116 0.403584,0.0976059c0.276367,0.0734786 0.566991,0.138184 0.851035,0.207275c0.694208,0.168891 1.40048,0.332299 2.13307,0.485836c0.324622,0.0679951 0.654727,0.13599 0.984832,0.201792c0.744656,0.149151 1.50247,0.286237 2.27674,0.417841c0.318042,0.0570281 0.632793,0.110766 0.955221,0.161214c0.924514,0.148054 1.86767,0.286237 2.82728,0.411261c0.183148,0.0230306 0.357523,0.050448 0.538477,0.0734786c1.17566,0.148054 2.37215,0.280754 3.59168,0.392617c0.173278,0.0164504 0.342169,0.025224 0.512157,0.0438678c1.0287,0.0921224 2.06727,0.169988 3.12229,0.240176c0.358619,0.0219339 0.718335,0.0416744 1.08244,0.0625116c0.88284,0.0471579 1.77116,0.0866389 2.66716,0.118443c0.402487,0.0153537 0.808264,0.0296108 1.21404,0.0383843c0.344362,0.00877356 0.678854,0.025224 1.02651,0.0318042c-2.25261,1.41912 -3.97442,4.78049 -4.68508,9.31094M149.598,30.0628l0,-0.157924c0,-3.18151 -0.88284,-5.23672 -2.74174,-5.23672c-1.85561,0 -2.74174,2.05521 -2.74174,5.23672l0,0.155731c-35.0942,17.3398 -34.604,20.0662 -34.604,21.2364c0,0.753429 -0.198502,2.95559 6.81267,5.39464c-0.075672,2.84044 -0.495706,4.96474 -0.495706,6.58017c-6.22045,-3.27363 -11.194,-5.9408 -14.4841,-7.30618l0,-0.290624c0,-5.8059 -2.08811,-9.5555 -5.4769,-9.5555c-3.39537,0 -5.49006,3.7496 -5.49006,9.5555l0,0.290624c-3.29009,1.51015 -8.80207,4.60941 -15.9361,8.37875c0,-1.80735 0.078962,-4.23982 0.0416744,-7.5979c6.93989,-2.42699 6.59223,-4.62038 6.59223,-5.37052c0,-1.17017 0.528607,-3.89985 -34.5656,-21.2375l0,-0.154634c0,-3.18042 -0.790717,-5.23672 -2.64742,-5.23672c-1.8589,0 -2.85579,2.0563 -2.85579,5.23672c0,0.0515447 0.103089,0.104186 0.103089,0.154634c-34.1982,17.3377 -34.1489,20.0673 -34.1489,21.2375c0,0.750139 0.0339975,2.9545 7.04298,5.39464c-0.332299,12.2051 0.118443,12.5879 0.967285,13.2437c1.38074,1.07476 13.8337,3.25389 23.6184,3.85817l1.75581,0.10967l0.163408,-1.73716c0.00219339,-0.0285141 0.00767687,-0.0515447 0.0120636,-0.0767687c0.219339,0.00767687 0.440871,0.0230306 0.658017,0.0307075l-0.00767687,1.80297c1.09779,0.0416744 2.18571,-0.176568 3.2517,-0.176568c2.20107,0 4.7454,-0.603182 7.4005,-0.603182l0.0230306,0c2.21203,0 4.49645,-0.186438 6.72384,-0.467192c-30.2074,16.6665 -30.2129,19.3545 -30.2129,21.8352c0,1.37197 0.0131603,5.45167 12.7984,9.90096c-0.610859,22.3452 0.196308,23.001 1.74046,24.1953c2.5235,1.96966 25.235,5.96931 43.0924,7.07259l3.19687,0.206179l0.296108,-3.17055c0.00329009,-0.0471579 0.010967,-0.0877356 0.0175471,-0.13928c0.349846,0.0175471 0.702982,0.0427711 1.05502,0.0548348l-0.0164504,3.29228c2.05192,0.0778653 4.08409,0.12283 6.08008,0.12283c3.98868,0 8.0289,-0.241273 12.8511,-0.639373l-0.447452,-0.00438678l0,-0.00658017c19.3018,-1.49589 39.095,-5.18298 40.9133,-6.97169c1.23707,-1.22391 1.66259,-1.36648 1.42899,-23.9902c12.6635,-4.42845 12.8258,-8.427 12.8258,-9.79458c0,-2.37983 0.0438678,-5.05357 -29.67,-21.4535c1.9905,0.218242 4.0808,0.40139 6.12504,0.528607l1.77336,0.110766l0.171084,-1.73826c0.00438678,-0.0274174 0.014257,-0.050448 0.0175471,-0.075672c0.218242,0.00548348 0.439775,0.0230306 0.655824,0.0296108l-0.00767687,1.80626c1.0956,0.0383843 2.18791,0.0701885 3.25499,0.0701885c2.20216,0 4.74869,-0.134893 7.3983,-0.354232l0.0241273,-0.00329009c9.8231,-0.818135 21.1311,-2.84483 22.1006,-3.8154c0.694208,-0.678854 0.76001,-0.78304 0.6306,-13.1538c6.94208,-2.42699 7.04188,-4.62038 7.04188,-5.36723c0.0010967,-1.17566 -1.20527,-3.90314 -34.1061,-21.2397" style="fill:#b88161;fill-rule:nonzero;"/><path d="M275.631,374.372c0.491319,-1.52002 1.00567,-3.00056 1.53866,-4.4482" style="fill:none;stroke-width:2.86px;stroke:#b3b3b3;"/><path d="M281.112,360.606c14.8273,-30.8127 39.6291,-42.2239 56.8165,-46.4341" style="fill:none;stroke-width:2.86px;stroke-dasharray:9.23,9.23;stroke:#b3b3b3;"/><path d="M342.875,313.105c1.66369,-0.310365 3.2188,-0.550541 4.64231,-0.739172" style="fill:none;stroke-width:2.86px;stroke:#b3b3b3;"/><path d="M356.96,311.736c-4.31879,1.97624 -9.6224,5.19395 -12.8182,8.42481l2.14075,-7.63629l-3.23964,-7.23819c3.63554,2.72529 9.35371,5.13144 13.9171,6.44966" style="fill:#b3b3b3;fill-rule:nonzero;"/><path d="M612.81,256.751c0.491319,-1.51892 1.00457,-3.00056 1.53757,-4.4471" style="fill:none;stroke-width:2.86px;stroke:#b3b3b3;"/><path d="M618.29,242.985c14.8273,-30.8127 39.6291,-42.2239 56.8165,-46.4341" style="fill:none;stroke-width:2.86px;stroke-dasharray:9.23,9.23;stroke:#b3b3b3;"/><path d="M680.054,195.484c1.66588,-0.310365 3.22099,-0.550541 4.64341,-0.738076" style="fill:none;stroke-width:2.86px;stroke:#b3b3b3;"/><path d="M694.139,194.115c-4.31988,1.97624 -9.6224,5.19395 -12.8193,8.42481l2.14185,-7.63629l-3.23854,-7.23819c3.63445,2.72638 9.35371,5.13144 13.916,6.44966" style="fill:#b3b3b3;fill-rule:nonzero;"/><path d="M718.699,222.363c-0.291721,1.56937 -0.610859,3.10584 -0.953028,4.60831" style="fill:none;stroke-width:2.86px;stroke:#b3b3b3;"/><path d="M715.039,236.72c-10.7345,32.4666 -33.8605,46.9758 -50.3624,53.3652" style="fill:none;stroke-width:2.86px;stroke-dasharray:9.23,9.23;stroke:#b3b3b3;"/><path d="M659.907,291.779c-1.61105,0.523124 -3.12229,0.960705 -4.50961,1.32919" style="fill:none;stroke-width:2.86px;stroke:#b3b3b3;"/><path d="M646.115,294.949c4.03035,-2.51582 8.87446,-6.39044 11.6283,-10.0062l-1.14056,7.84905l4.14441,6.76112c-3.95797,-2.23506 -9.93825,-3.8834 -14.6321,-4.60393" style="fill:#b3b3b3;fill-rule:nonzero;"/><path d="M462.364,426.161c-0.950835,1.26778 -1.91702,2.50266 -2.89966,3.70683" style="fill:none;stroke-width:2.86px;stroke:#b3b3b3;"/><path d="M453.111,437.03c-37.7636,39.0665 -91.7835,37.4664 -119.862,33.277" style="fill:none;stroke-width:2.86px;stroke-dasharray:8.73,8.73;stroke:#b3b3b3;"/><path d="M328.522,469.54c-1.67246,-0.293914 -3.2177,-0.588925 -4.61818,-0.874066" style="fill:none;stroke-width:2.86px;stroke:#b3b3b3;"/><path d="M314.7,466.471c4.70811,-0.634986 10.7169,-2.17365 14.7144,-4.33633l-4.26834,6.68545l0.995799,7.8655c-2.6869,-3.66406 -7.45862,-7.62861 -11.4418,-10.2146" style="fill:#b3b3b3;fill-rule:nonzero;"/><path d="M644.42,334.266c1.35003,-0.852132 2.69239,-1.66588 4.02377,-2.44124" style="fill:none;stroke-width:2.86px;stroke:#b3b3b3;"/><path d="M656.447,327.557c37.246,-18.0494 65.9519,-6.55056 81.933,4.23653" style="fill:none;stroke-width:2.86px;stroke-dasharray:8.27,8.27;stroke:#b3b3b3;"/><path d="M742.061,334.421c1.34784,1.01883 2.57504,2.00695 3.67174,2.93585" style="fill:none;stroke-width:2.86px;stroke:#b3b3b3;"/><path d="M752.53,343.937c-4.36265,-1.88193 -10.3045,-3.65748 -14.8438,-3.86256l7.1,-3.53136l3.19906,-7.25683c0.414551,4.52606 2.46537,10.3802 4.5447,14.6507" style="fill:#b3b3b3;fill-rule:nonzero;"/><path d="M303.97,129.757c1.53099,-0.452935 3.04333,-0.870776 4.53593,-1.25462" style="fill:none;stroke-width:2.86px;stroke:#b3b3b3;"/><path d="M317.367,126.569c40.7488,-7.25025 65.249,11.6173 77.7008,26.3404" style="fill:none;stroke-width:2.86px;stroke-dasharray:8.27,8.27;stroke:#b3b3b3;"/><path d="M397.895,156.439c1.02212,1.34674 1.93238,2.62987 2.73516,3.82308" style="fill:none;stroke-width:2.86px;stroke:#b3b3b3;"/><path d="M405.385,168.441c-3.68709,-2.99507 -8.926,-6.32025 -13.2371,-7.75144l7.79421,-1.46847l5.04918,-6.11407c-0.829101,4.46794 -0.448548,10.6599 0.393714,15.334" style="fill:#b3b3b3;fill-rule:nonzero;"/><path d="M753.035,391.281c-1.3281,0.888323 -2.64523,1.73716 -3.95578,2.54762" style="fill:none;stroke-width:2.86px;stroke:#b3b3b3;"/><path d="M741.195,398.312c-36.7415,19.0529 -65.7491,8.33598 -82.0174,-2.01353" style="fill:none;stroke-width:2.86px;stroke-dasharray:8.27,8.27;stroke:#b3b3b3;"/><path d="M655.425,393.771c-1.37635,-0.982639 -2.62768,-1.93567 -3.7496,-2.83496" style="fill:none;stroke-width:2.86px;stroke:#b3b3b3;"/><path d="M644.7,384.544c4.41091,1.7602 10.4,3.37672 14.9447,3.45678l-7.00349,3.72438l-2.99946,7.34018c-0.537381,-4.5129 -2.74612,-10.31 -4.94171,-14.5213" style="fill:#b3b3b3;fill-rule:nonzero;"/><path d="M375.744,257.614c-1.56169,0.334492 -3.10145,0.634986 -4.61818,0.903677" style="fill:none;stroke-width:2.86px;stroke:#b3b3b3;"/><path d="M362.142,259.766c-41.1853,4.10274 -64.1665,-16.5886 -75.4504,-32.222" style="fill:none;stroke-width:2.86px;stroke-dasharray:8.27,8.27;stroke:#b3b3b3;"/><path d="M284.142,223.806c-0.91574,-1.42022 -1.7251,-2.77025 -2.43466,-4.02158" style="fill:none;stroke-width:2.86px;stroke:#b3b3b3;"/><path d="M277.592,211.265c3.44691,3.26815 8.41384,6.98595 12.6043,8.74285l-7.88304,0.867486l-5.50431,5.70939c1.17017,-4.39226 1.26449,-10.5941 0.78304,-15.3197" style="fill:#b3b3b3;fill-rule:nonzero;"/><path d="M524.668,133.54l-16.4504,0l0,25.4828l-31.1154,-25.099l-77.4574,63.3473l0,8.65073l153.537,0l0,-8.65073l-28.5141,-22.8814l0,-40.8497Z" style="fill:#576e60;fill-rule:nonzero;"/><path d="M496.154,236.63l0,12.0636l-13.1603,0l0,14.257l-13.1603,0l0,-14.257l-13.1603,0l0,-12.0636l13.1603,0l0,-14.257l13.1603,0l0,14.257l13.1603,0ZM413.902,212.502l0,97.6059l50.448,0l0,-35.0942l23.0306,0l0,35.0942l53.7381,0l0,-97.6059l-64.41,0l-62.8066,0Z" style="fill:#576e60;fill-rule:nonzero;"/><rect x="630.64" y="132.831" width="55.9314" height="50.448" style="fill:#78b1b1;fill-rule:nonzero;"/><path d="M658.833,129.541l7.94446,0l2.60026,3.29009l5.36394,0l-5.5076,-6.58017l-10.4011,0l-10.6259,0l-5.5087,6.58017l5.36942,0l2.59478,-3.29009l8.17038,0Z" style="fill:#78b1b1;fill-rule:nonzero;"/><path d="M651.701,147.661c1.28204,0 2.32061,1.03857 2.32061,2.31951c0,1.28204 -1.03857,2.32061 -2.32061,2.32061c-1.28204,0 -2.32061,-1.03857 -2.32061,-2.32061c0,-1.28094 1.03857,-2.31951 2.32061,-2.31951" style="fill:#fff;fill-rule:nonzero;"/><path d="M659.464,147.661c1.28204,0 2.32061,1.03857 2.32061,2.31951c0,1.28204 -1.03857,2.32061 -2.32061,2.32061c-1.28204,0 -2.32061,-1.03857 -2.32061,-2.32061c0,-1.28094 1.03857,-2.31951 2.32061,-2.31951" style="fill:#fff;fill-rule:nonzero;"/><path d="M651.701,154.926c1.28204,0 2.32061,1.03857 2.32061,2.31951c0,1.28204 -1.03857,2.32061 -2.32061,2.32061c-1.28204,0 -2.32061,-1.03857 -2.32061,-2.32061c0,-1.28094 1.03857,-2.31951 2.32061,-2.31951" style="fill:#fff;fill-rule:nonzero;"/><path d="M659.464,154.926c1.28204,0 2.32061,1.03857 2.32061,2.31951c0,1.28204 -1.03857,2.32061 -2.32061,2.32061c-1.28204,0 -2.32061,-1.03857 -2.32061,-2.32061c0,-1.28094 1.03857,-2.31951 2.32061,-2.31951" style="fill:#fff;fill-rule:nonzero;"/><path d="M651.701,162.136c1.28204,0 2.32061,1.03857 2.32061,2.32061c0,1.28204 -1.03857,2.32061 -2.32061,2.32061c-1.28204,0 -2.32061,-1.03857 -2.32061,-2.32061c0,-1.28204 1.03857,-2.32061 2.32061,-2.32061" style="fill:#fff;fill-rule:nonzero;"/><path d="M661.764,175.096c-2.36338,0 -4.28698,-1.9236 -4.28698,-4.28808c0,-2.36447 1.9236,-4.28808 4.28698,-4.28808l5.48457,0l0.0416744,8.57616l-5.52625,0ZM646.799,143.795l17.5702,0l0,21.7343l-2.60465,0c-0.0921224,0 -0.178761,0.0197405 -0.266497,0.0219339c0.176568,-0.324622 0.290624,-0.695305 0.290624,-1.0945c0,-1.28204 -1.03857,-2.32061 -2.3239,-2.32061c-1.28094,0 -2.3228,1.03857 -2.3228,2.32061c0,0.974962 0.607569,1.80626 1.4586,2.14843c-1.23598,0.935481 -2.05082,2.38531 -2.10346,4.04022l-9.69588,0l0,-26.8504l-0.00219339,0ZM673.488,165.527l-8.12761,0l0,-22.7268l-19.5574,0l0,28.8376l10.7619,0c0.400294,2.51911 2.57065,4.45478 5.19833,4.45478l11.7248,0c2.91611,0 5.28497,-2.36886 5.28497,-5.28388c0.00219339,-2.91282 -2.36886,-5.28168 -5.28497,-5.28168" style="fill:#fff;fill-rule:nonzero;"/><path d="M101.223,211.544c2.47524,0 4.49206,-2.01134 4.49206,-4.48c0,-2.46427 -2.01682,-4.47452 -4.49206,-4.47452c-2.47195,0 -4.48329,2.01024 -4.48329,4.47452c0,2.46866 2.01134,4.48 4.48329,4.48" style="fill:#cc8c21;fill-rule:nonzero;"/><path d="M105.54,213.6l-8.35353,0c-2.21423,0 -4.00842,1.69549 -4.00842,3.90862l-0.010967,12.5418l3.66735,0l0.893806,15.3537l8.03768,0l0.89271,-15.3537l2.89089,0l-0.00767687,-12.5418c0.0010967,-2.21313 -1.78981,-3.90862 -4.00184,-3.90862" style="fill:#cc8c21;fill-rule:nonzero;"/><path d="M81.5726,205.748c2.47524,0 4.49097,-2.01024 4.49097,-4.4789c0,-2.46537 -2.01573,-4.47561 -4.49097,-4.47561c-2.47195,0 -4.48329,2.01024 -4.48329,4.47561c0,2.46866 2.01134,4.4789 4.48329,4.4789" style="fill:#cc8c21;fill-rule:nonzero;"/><path d="M85.8871,208.116l-8.35243,0c-2.21313,0 -4.00732,1.14714 -4.00732,3.36027l-0.010967,11.9935l3.66625,0l0.89271,15.3537l8.03987,0l0.89271,-15.3537l2.89089,0l-0.00767687,-11.9935c0.0010967,-2.21313 -1.78981,-3.36027 -4.00403,-3.36027" style="fill:#cc8c21;fill-rule:nonzero;"/><path d="M20.6674,170.022c5.18627,0 9.42171,-4.22228 9.42171,-9.40416c0.00219339,-5.18408 -4.23434,-9.39977 -9.42171,-9.39977c-5.19614,0 -9.41951,4.21679 -9.41951,9.39977c0,5.18188 4.22228,9.40416 9.41951,9.40416" style="fill:#cc8c21;fill-rule:nonzero;"/><path d="M29.7227,173.022l-17.5405,0c-4.64889,0 -8.41713,3.83624 -8.41713,8.48732l-0.0263207,26.6069l6.21278,0l1.8249,33.9975l17.3442,0l1.82271,-33.9975l7.19871,0l-0.0153537,-26.6069c0.0010967,-4.65108 -3.76166,-8.48732 -8.40397,-8.48732" style="fill:#cc8c21;fill-rule:nonzero;"/><path d="M55.8211,170.606c3.88559,0 7.03091,-3.2506 7.03091,-7.26451c0,-4.0139 -3.14532,-7.27218 -7.03091,-7.27218c-3.88559,0 -7.03311,3.25828 -7.03311,7.27218c0,4.0139 3.14751,7.26451 7.03311,7.26451" style="fill:#cc8c21;fill-rule:nonzero;"/><path d="M56.4744,192.236c-0.153537,0 -0.295011,0.526414 -0.429904,0.526414l-0.00877356,0c-0.525317,0 -1.00457,-0.582345 -1.4257,-0.6306c-2.71651,-0.319138 -3.48968,-1.59569 -3.52039,-2.61562c-0.492416,0.213856 -1.03309,0.209469 -1.60885,0.209469c-2.20545,0 -3.98868,-1.88412 -3.98868,-4.12138c0,-2.24603 1.78323,-4.09396 3.98868,-4.09396c2.16597,0 3.516,1.74375 3.57632,3.93275c0.689821,-0.493513 0.395907,-0.750139 1.4926,-0.845552l0,0.0153537c2.19339,-0.151344 1.84245,0 1.84245,0c2.65839,0.590022 8.76808,3.46994 8.76808,3.46994c0,0 -2.94572,4.18389 -8.68582,4.15318M68.2924,176.768c-0.350942,-1.05831 -2.34144,-4.26943 -7.74925,-4.29904l-10.5886,0.0230306c-5.25098,-0.293914 -7.34347,2.80973 -7.67138,4.18828c0,0 -3.5522,11.319 -2.94024,13.939c0.373973,1.63298 4.69934,3.76057 7.70099,5.2422l-5.50212,22.1247l7.52552,0l0,24.7963c0,1.45641 0.739172,2.63536 2.19339,2.63536c1.4586,0 2.19339,-1.17895 2.19339,-2.63536l0,-24.7963l5.48348,0l0,24.7963c0,1.45641 0.739172,2.63536 2.19339,2.63536c1.45531,0 2.19339,-1.17895 2.19339,-2.63536l0,-24.7963l6.46611,0l-5.39245,-22.5568c2.68361,-1.41693 6.5385,-3.26047 6.88066,-4.74211c0.614149,-2.654 -2.9863,-13.9193 -2.9863,-13.9193" style="fill:#cc8c21;fill-rule:nonzero;"/><path d="M145.911,400.173c3.61142,0 6.55495,-2.93476 6.55495,-6.5385c0,-3.59716 -2.94353,-6.52863 -6.55495,-6.52863c-3.60593,0 -6.54069,2.93147 -6.54069,6.52863c0,3.60374 2.93476,6.5385 6.54069,6.5385" style="fill:#cc8c21;fill-rule:nonzero;"/><path d="M152.21,404.424l-12.1898,0c-3.22867,0 -5.84758,1.43996 -5.84758,4.66863l-0.0153537,17.2653l5.34858,0l1.30397,24.1273l11.7303,0l1.30287,-24.1273l4.21679,0l-0.010967,-17.2653c0.0010967,-3.22867 -2.61233,-4.66863 -5.8388,-4.66863" style="fill:#cc8c21;fill-rule:nonzero;"/><path d="M117.237,391.716c3.61251,0 6.55385,-2.93476 6.55385,-6.53521c0,-3.59716 -2.94134,-6.52972 -6.55385,-6.52972c-3.60593,0 -6.53959,2.93256 -6.53959,6.52972c0,3.60045 2.93366,6.53521 6.53959,6.53521" style="fill:#cc8c21;fill-rule:nonzero;"/><path d="M123.535,394.554l-12.1876,0c-3.22867,0 -5.84758,1.43996 -5.84758,4.66973l-0.0153537,17.2642l5.34968,0l1.30178,24.1273l11.7313,0l1.30287,-24.1273l4.21679,0l-0.010967,-17.2642c0.0010967,-3.22977 -2.61233,-4.66973 -5.841,-4.66973" style="fill:#cc8c21;fill-rule:nonzero;"/><path d="M28.3727,339.587c7.56939,0 13.7471,-6.16123 13.7471,-13.7229c0.0010967,-7.56281 -6.17768,-13.7175 -13.7471,-13.7175c-7.58145,0 -13.7427,6.15465 -13.7427,13.7175c0,7.56171 6.16123,13.7229 13.7427,13.7229" style="fill:#cc8c21;fill-rule:nonzero;"/><path d="M41.586,345.203l-25.5936,0c-6.78087,0 -12.2775,4.66973 -12.2775,11.455l-0.0405777,37.8963l9.06528,0l2.66387,50.448l25.304,0l2.66278,-50.448l10.5052,0l-0.0230306,-37.8963c-0.0010967,-6.78525 -5.49225,-11.455 -12.2665,-11.455" style="fill:#cc8c21;fill-rule:nonzero;"/><path d="M79.6651,340.44c5.66882,0 10.2585,-4.74211 10.2585,-10.5985c0,-5.85964 -4.59077,-10.6105 -10.2585,-10.6105c-5.66772,0 -10.2607,4.75088 -10.2607,10.6105c0,5.85635 4.59186,10.5985 10.2607,10.5985" style="fill:#cc8c21;fill-rule:nonzero;"/><path d="M80.6194,371.374c-0.221532,0 -0.428808,0.149151 -0.62731,0.149151l-0.010967,0c-0.767687,0 -1.46628,-0.227016 -2.07933,-0.298301c-3.96455,-0.464999 -5.09086,-2.01792 -5.13582,-3.50394c-0.722722,0.312558 -1.51125,0.460612 -2.34912,0.460612c-3.2177,0 -5.81906,-2.67374 -5.81906,-5.93641c0,-3.27802 2.60136,-5.93312 5.81906,-5.93312c3.15958,0 6.47927,2.56407 6.56482,5.75765c1.00786,-0.721625 -0.862002,-1.07476 3.52478,-1.21404l0,0.0230306c1.0967,-0.220436 1.34345,0 1.34345,0c3.87901,0.860906 12.1196,4.75198 12.1196,4.75198c0,0 -4.97461,5.79165 -13.3501,5.74339M97.8627,349.431c-0.512157,-1.54305 -3.41511,-6.22923 -11.308,-6.272l-15.4491,0.0329009c-7.66151,-0.428808 -10.7158,4.09945 -11.1951,6.11078c0,0 -5.18079,16.5162 -4.28808,20.3382c0.546154,2.38312 6.85654,4.55786 11.2356,6.71835l-8.02781,31.3556l11.8059,0l0,38.0367c0,2.12649 0.618536,3.84721 2.74174,3.84721c2.12759,0 2.74174,-1.72181 2.74174,-3.84721l0,-38.0367l8.77356,0l0,38.0367c0,2.12649 0.618536,3.84721 2.74174,3.84721c2.1232,0 2.74174,-1.72181 2.74174,-3.84721l0,-38.0367l9.67285,0l-7.86769,-31.9818c3.9141,-2.06946 9.53905,-4.29575 10.0391,-6.45624c0.896,-3.87133 -4.35827,-19.8458 -4.35827,-19.8458" style="fill:#cc8c21;fill-rule:nonzero;"/><path d="M216.907,63.4263l0.868582,0c2.30964,0 4.28479,-1.26339 4.28479,-4.16634c0,-2.66607 -1.758,-4.16634 -4.24531,-4.16634l-0.908063,0l0,8.33269ZM213.037,51.8156l5.49006,0c4.14551,0 7.56281,3.25828 7.56281,7.44437c0,4.18608 -3.43595,7.44437 -7.56281,7.44437l-5.49006,0l0,-14.8887Z" style="fill:#000;fill-rule:nonzero;"/><path d="M231.658,66.7052l-3.59387,0l0,-10.1302l3.59387,0l0,10.1302ZM231.875,52.6839c0,1.10657 -0.908063,2.01353 -2.01463,2.01353c-1.10547,0 -2.01463,-0.906967 -2.01463,-2.01353c0,-1.10437 0.90916,-2.01463 2.01463,-2.01463c1.10657,0.0010967 2.01463,0.910257 2.01463,2.01463" style="fill:#000;fill-rule:nonzero;"/><path d="M240.795,59.1814c-0.553831,-0.297204 -1.32371,-0.493513 -1.93567,-0.493513c-0.414551,0 -1.12521,0.177665 -1.12521,0.690918c0,0.690918 1.12521,0.78962 1.61982,0.88942c1.67794,0.335589 2.94243,1.12521 2.94243,3.00165c0,2.66607 -2.42918,3.77153 -4.7783,3.77153c-1.44106,0 -2.86237,-0.414551 -4.08848,-1.16579l1.30287,-2.50704c0.730399,0.513253 1.95541,1.0276 2.84373,1.0276c0.454032,0 1.12521,-0.217146 1.12521,-0.770977c0,-0.78962 -1.12521,-0.829101 -2.25151,-1.12521c-1.12631,-0.296108 -2.25151,-0.848842 -2.25151,-2.66607c0,-2.4884 2.25151,-3.59387 4.46245,-3.59387c1.14605,0 2.291,0.176568 3.33724,0.651437l-1.20307,2.2899Z" style="fill:#000;fill-rule:nonzero;"/><path d="M251.492,60.1683c-0.177665,-0.967285 -1.06708,-1.59898 -2.03327,-1.59898c-1.04625,0 -1.91593,0.552734 -2.13198,1.59898l4.16525,0ZM254.83,62.2422l-7.56281,0c0,1.46189 0.76988,2.25151 2.25151,2.25151c0.76988,0 1.32261,-0.256627 1.71742,-0.927804l3.45569,0c-0.572475,2.3897 -2.84373,3.47543 -5.15337,3.47543c-3.35808,0 -5.86513,-1.89619 -5.86513,-5.39135c0,-3.37672 2.30964,-5.41109 5.6074,-5.41109c3.51491,0 5.54928,2.17255 5.54928,5.62824l0,0.37507Z" style="fill:#000;fill-rule:nonzero;"/><path d="M259.84,61.6501c0,1.28313 0.848842,2.27126 2.30964,2.27126c1.46189,0 2.31074,-0.987026 2.31074,-2.27126c0,-1.24365 -0.848842,-2.2899 -2.31074,-2.2899c-1.4597,-0.0010967 -2.30964,1.04515 -2.30964,2.2899M267.937,66.7047l-3.59387,0l0,-1.12521l-0.039481,0c-0.631696,1.00677 -1.87535,1.46189 -3.06088,1.46189c-3.00056,0 -5.11389,-2.50814 -5.11389,-5.41109c0,-2.90186 2.07385,-5.39135 5.0755,-5.39135c1.16469,0 2.3886,0.434291 3.13874,1.32371l0,-0.987026l3.59387,0l0,10.1291Z" style="fill:#000;fill-rule:nonzero;"/><path d="M277.135,59.1814c-0.553831,-0.297204 -1.32371,-0.493513 -1.93567,-0.493513c-0.415647,0 -1.12521,0.177665 -1.12521,0.690918c0,0.690918 1.12521,0.78962 1.61982,0.88942c1.67794,0.335589 2.94243,1.12521 2.94243,3.00165c0,2.66607 -2.42918,3.77153 -4.7783,3.77153c-1.44106,0 -2.86347,-0.414551 -4.08848,-1.16579l1.30287,-2.50704c0.730399,0.513253 1.95541,1.0276 2.84373,1.0276c0.454032,0 1.12521,-0.217146 1.12521,-0.770977c0,-0.78962 -1.12521,-0.829101 -2.25151,-1.12521c-1.12631,-0.296108 -2.25151,-0.848842 -2.25151,-2.66607c0,-2.4884 2.25151,-3.59387 4.46245,-3.59387c1.14605,0 2.291,0.176568 3.33724,0.651437l-1.20307,2.2899Z" style="fill:#000;fill-rule:nonzero;"/><path d="M287.832,60.1683c-0.177665,-0.967285 -1.06708,-1.59898 -2.03327,-1.59898c-1.04625,0 -1.91593,0.552734 -2.13198,1.59898l4.16525,0ZM291.169,62.2422l-7.56281,0c0,1.46189 0.76988,2.25151 2.25151,2.25151c0.76988,0 1.32261,-0.256627 1.71742,-0.927804l3.45569,0c-0.572475,2.3897 -2.84373,3.47543 -5.15337,3.47543c-3.35808,0 -5.86513,-1.89619 -5.86513,-5.39135c0,-3.37672 2.30964,-5.41109 5.6074,-5.41109c3.51491,0 5.54928,2.17255 5.54928,5.62824l0,0.37507Z" style="fill:#000;fill-rule:nonzero;"/><path d="M307.059,59.1814c-0.553831,-0.297204 -1.32371,-0.493513 -1.93676,-0.493513c-0.415647,0 -1.12411,0.177665 -1.12411,0.690918c0,0.690918 1.12411,0.78962 1.61982,0.88942c1.67794,0.335589 2.94243,1.12521 2.94243,3.00165c0,2.66607 -2.42918,3.77153 -4.7783,3.77153c-1.44106,0 -2.86347,-0.414551 -4.08848,-1.16579l1.30287,-2.50704c0.730399,0.513253 1.95541,1.0276 2.84263,1.0276c0.455128,0 1.12631,-0.217146 1.12631,-0.770977c0,-0.78962 -1.12631,-0.829101 -2.25151,-1.12521c-1.12631,-0.296108 -2.25151,-0.848842 -2.25151,-2.66607c0,-2.4884 2.25151,-3.59387 4.46245,-3.59387c1.14605,0 2.291,0.176568 3.33724,0.651437l-1.20307,2.2899Z" style="fill:#000;fill-rule:nonzero;"/><path d="M314.097,56.5741l0,5.41109c0,1.28313 0.315848,2.19229 1.79639,2.19229c1.48164,0 1.79748,-0.908063 1.79748,-2.19229l0,-5.41109l3.59387,0l0,6.10091c0,3.33724 -2.35022,4.36375 -5.39135,4.36375c-3.04004,0 -5.39026,-1.0276 -5.39026,-4.36375l0,-6.10091l3.59387,0Z" style="fill:#000;fill-rule:nonzero;"/><path d="M327.398,58.2336l0.039481,0c0.690918,-1.24475 1.87535,-1.79748 3.27692,-1.79748l0.692015,0l0,3.45569c-0.493513,-0.276367 -0.969478,-0.335589 -1.52112,-0.335589c-1.99379,0 -2.4884,1.32371 -2.4884,3.06088l0,4.08738l-3.59387,0l0,-10.1302l3.59387,0l0,1.6593l0.0010967,0Z" style="fill:#000;fill-rule:nonzero;"/><path d="M338.594,61.7684l2.40944,-5.19285l4.02816,0l-5.29155,10.1302l-2.291,0l-5.31239,-10.1302l4.02926,0l2.42808,5.19285Z" style="fill:#000;fill-rule:nonzero;"/><path d="M352.892,60.1683c-0.177665,-0.967285 -1.06708,-1.59898 -2.03327,-1.59898c-1.04734,0 -1.91702,0.552734 -2.13198,1.59898l4.16525,0ZM356.229,62.2422l-7.56391,0c0,1.46189 0.770977,2.25151 2.25261,2.25151c0.76988,0 1.32261,-0.256627 1.71742,-0.927804l3.45569,0c-0.572475,2.3897 -2.84373,3.47543 -5.15337,3.47543c-3.35808,0 -5.86513,-1.89619 -5.86513,-5.39135c0,-3.37672 2.30964,-5.41109 5.60631,-5.41109c3.516,0 5.55037,2.17255 5.55037,5.62824l0,0.37507Z" style="fill:#000;fill-rule:nonzero;"/><path d="M361.767,66.7052l-3.59387,0l0,-10.1302l3.59387,0l0,10.1302ZM361.984,52.6839c0,1.10657 -0.908063,2.01353 -2.01463,2.01353c-1.10437,0 -2.01353,-0.906967 -2.01353,-2.01353c0,-1.10437 0.90916,-2.01463 2.01353,-2.01463c1.10657,0.0010967 2.01463,0.910257 2.01463,2.01463" style="fill:#000;fill-rule:nonzero;"/><rect x="364.334" y="50.3161" width="3.59387" height="16.389" style="fill:#000;fill-rule:nonzero;"/><rect x="370.494" y="50.3161" width="3.59387" height="16.389" style="fill:#000;fill-rule:nonzero;"/><path d="M379.739,61.6501c0,1.28313 0.848842,2.27126 2.31074,2.27126c1.4608,0 2.30964,-0.987026 2.30964,-2.27126c0,-1.24365 -0.848842,-2.2899 -2.30964,-2.2899c-1.46189,-0.0010967 -2.31074,1.04515 -2.31074,2.2899M387.836,66.7047l-3.59497,0l0,-1.12521l-0.039481,0c-0.631696,1.00677 -1.87535,1.46189 -3.06088,1.46189c-3.00056,0 -5.11389,-2.50814 -5.11389,-5.41109c0,-2.90186 2.07495,-5.39135 5.07441,-5.39135c1.16579,0 2.3908,0.434291 3.13984,1.32371l0,-0.987026l3.59497,0l0,10.1291Z" style="fill:#000;fill-rule:nonzero;"/><path d="M394.036,57.8781l0.039481,0c0.829101,-1.22391 1.83587,-1.63956 3.23854,-1.63956c2.72529,0 3.81102,1.71742 3.81102,4.20583l0,6.25994l-3.59277,0l0,-4.93622c0,-0.967285 0.157924,-2.66607 -1.62092,-2.66607c-1.4608,0 -1.87535,1.08573 -1.87535,2.35022l0,5.25317l-3.59277,0l0,-10.1313l3.59277,0l0,1.30397Z" style="fill:#000;fill-rule:nonzero;"/><path d="M411.036,59.8722c-0.531897,-0.39481 -1.16469,-0.710658 -1.85451,-0.710658c-1.38403,0 -2.46866,1.06599 -2.46866,2.46756c0,1.46189 1.04734,2.4884 2.52679,2.4884c0.631696,0 1.32371,-0.256627 1.79748,-0.690918l0,3.04004c-0.78962,0.39481 -1.6593,0.572475 -2.52788,0.572475c-3.00056,0 -5.5087,-2.23177 -5.5087,-5.29265c0,-3.25828 2.4884,-5.5087 5.66772,-5.5087c0.830198,0 1.6593,0.197405 2.36886,0.593312l0,3.04114l-0.0010967,0Z" style="fill:#000;fill-rule:nonzero;"/><path d="M420.518,60.1683c-0.177665,-0.967285 -1.06818,-1.59898 -2.03327,-1.59898c-1.04734,0 -1.91702,0.552734 -2.13198,1.59898l4.16525,0ZM423.856,62.2422l-7.56391,0c0,1.46189 0.770977,2.25151 2.25261,2.25151c0.768783,0 1.32261,-0.256627 1.71742,-0.927804l3.45569,0c-0.572475,2.3897 -2.84373,3.47543 -5.15337,3.47543c-3.35808,0 -5.86513,-1.89619 -5.86513,-5.39135c0,-3.37672 2.30964,-5.41109 5.60631,-5.41109c3.516,0 5.55037,2.17255 5.55037,5.62824l0,0.37507Z" style="fill:#000;fill-rule:nonzero;"/><path d="M248.961,500.518c-0.790717,-1.06708 -2.07385,-1.63956 -3.39646,-1.63956c-2.36996,0 -3.96894,1.81613 -3.96894,4.12686c0,2.35022 1.61872,4.0479 4.02816,4.0479c1.26339,0 2.52788,-0.611956 3.33724,-1.57924l0,4.64012c-1.28423,0.39481 -2.21203,0.690918 -3.41621,0.690918c-2.07385,0 -4.0479,-0.78962 -5.58876,-2.19229c-1.63846,-1.48054 -2.3897,-3.41621 -2.3897,-5.62714c0,-2.03327 0.76988,-3.98868 2.19229,-5.45057c1.4608,-1.50028 3.57413,-2.40834 5.66772,-2.40834c1.24365,0 2.3886,0.276367 3.53465,0.750139l0,4.64121Z" style="fill:#000;fill-rule:nonzero;"/><path d="M255.132,494.021l0,7.54307l0.039481,0c0.829101,-1.10547 1.83587,-1.62092 3.23854,-1.62092c2.56627,0 3.81102,1.69878 3.81102,4.26614l0,6.19962l-3.59387,0l0,-5.19175c0,-1.18553 -0.177665,-2.40944 -1.61982,-2.40944c-1.42132,0 -1.87535,1.22391 -1.87535,2.40944l0,5.19175l-3.59387,0l0,-16.3879l3.59387,0Z" style="fill:#000;fill-rule:nonzero;"/><path d="M268.35,510.409l-3.59387,0l0,-10.1291l3.59387,0l0,10.1291ZM268.567,496.39c0,1.10547 -0.908063,2.01353 -2.01463,2.01353c-1.10547,0 -2.01463,-0.908063 -2.01463,-2.01353c0,-1.10657 0.90916,-2.01573 2.01463,-2.01573c1.10657,0.00219339 2.01463,0.90916 2.01463,2.01573" style="fill:#000;fill-rule:nonzero;"/><rect x="270.918" y="494.021" width="3.59387" height="16.3879" style="fill:#000;fill-rule:nonzero;"/><path d="M280.231,505.355c0,1.28313 0.848842,2.27126 2.31074,2.27126c1.4608,0 2.30964,-0.987026 2.30964,-2.27126c0,-1.24365 -0.848842,-2.2899 -2.30964,-2.2899c-1.4608,-0.0010967 -2.31074,1.04515 -2.31074,2.2899M284.734,509.285l-0.039481,0c-0.631696,1.00677 -1.87535,1.46189 -3.06088,1.46189c-3.00056,0 -5.11389,-2.50814 -5.11389,-5.41219c0,-2.90076 2.07385,-5.39135 5.0755,-5.39135c1.16469,0 2.3897,0.435388 3.13874,1.32371l0,-7.24586l3.59387,0l0,16.3879l-3.59387,0l0,-1.12411Z" style="fill:#000;fill-rule:nonzero;"/><path d="M294.459,494.021l0,7.54307l0.039481,0c0.829101,-1.10547 1.83587,-1.62092 3.23854,-1.62092c2.56627,0 3.81102,1.69878 3.81102,4.26614l0,6.19962l-3.59387,0l0,-5.19175c0,-1.18553 -0.177665,-2.40944 -1.61982,-2.40944c-1.42132,0 -1.87535,1.22391 -1.87535,2.40944l0,5.19175l-3.59387,0l0,-16.3879l3.59387,0Z" style="fill:#000;fill-rule:nonzero;"/><path d="M307.203,505.355c0,1.28313 0.847745,2.27126 2.30964,2.27126c1.4608,0 2.30964,-0.987026 2.30964,-2.27126c0,-1.24365 -0.848842,-2.2899 -2.30964,-2.2899c-1.46189,-0.0010967 -2.30964,1.04515 -2.30964,2.2899M315.615,505.355c0,3.43595 -2.84373,5.39135 -6.10091,5.39135c-3.23854,0 -6.10091,-1.93676 -6.10091,-5.39135c0,-3.45569 2.84373,-5.41219 6.10091,-5.41219c3.25718,0 6.10091,1.9565 6.10091,5.41219" style="fill:#000;fill-rule:nonzero;"/><path d="M320.637,505.355c0,1.28313 0.847745,2.27126 2.30964,2.27126c1.4608,0 2.30964,-0.987026 2.30964,-2.27126c0,-1.24365 -0.848842,-2.2899 -2.30964,-2.2899c-1.46189,-0.0010967 -2.30964,1.04515 -2.30964,2.2899M329.048,505.355c0,3.43595 -2.84373,5.39135 -6.10091,5.39135c-3.23854,0 -6.10091,-1.93676 -6.10091,-5.39135c0,-3.45569 2.84373,-5.41219 6.10091,-5.41219c3.25718,0 6.10091,1.9565 6.10091,5.41219" style="fill:#000;fill-rule:nonzero;"/><path d="M334.116,505.355c0,1.28313 0.848842,2.27126 2.31074,2.27126c1.4597,0 2.30964,-0.987026 2.30964,-2.27126c0,-1.24365 -0.849939,-2.2899 -2.30964,-2.2899c-1.46189,-0.0010967 -2.31074,1.04515 -2.31074,2.2899M338.617,509.285l-0.0383843,0c-0.631696,1.00677 -1.87535,1.46189 -3.06088,1.46189c-3.00056,0 -5.11389,-2.50814 -5.11389,-5.41219c0,-2.90076 2.07385,-5.39135 5.0755,-5.39135c1.16469,0 2.3886,0.435388 3.13764,1.32371l0,-7.24586l3.59497,0l0,16.3879l-3.59497,0l0,-1.12411Z" style="fill:#000;fill-rule:nonzero;"/><path d="M355.614,510.409l-3.59277,0l0,-10.1291l3.59277,0l0,10.1291ZM355.831,496.39c0,1.10547 -0.908063,2.01353 -2.01463,2.01353c-1.10547,0 -2.01463,-0.908063 -2.01463,-2.01353c0,-1.10657 0.90916,-2.01573 2.01463,-2.01573c1.10657,0.00219339 2.01463,0.90916 2.01463,2.01573" style="fill:#000;fill-rule:nonzero;"/><path d="M361.785,501.544l0.039481,0c0.849939,-1.12411 1.89728,-1.59898 3.19906,-1.59898c1.4608,0 2.72529,0.593312 3.45569,1.93676c0.690918,-1.26449 2.05411,-1.93676 3.43485,-1.93676c2.56736,0 3.45678,1.67904 3.45678,4.00842l0,6.45734l-3.59497,0l0,-4.83643c0,-1.04734 0.039481,-2.76586 -1.48054,-2.76586c-1.6593,0 -1.71852,1.5595 -1.71852,2.76586l0,4.83643l-3.59277,0l0,-4.83643c0,-1.12631 0,-2.84483 -1.60008,-2.84483c-1.59898,0 -1.59898,1.71742 -1.59898,2.84483l0,4.83643l-3.59277,0l0,-10.1291l3.59277,0l0,1.2623Z" style="fill:#000;fill-rule:nonzero;"/><path d="M381.553,501.544l0.039481,0c0.849939,-1.12411 1.89619,-1.59898 3.19906,-1.59898c1.4608,0 2.72529,0.593312 3.45569,1.93676c0.690918,-1.26449 2.05411,-1.93676 3.43485,-1.93676c2.56736,0 3.45569,1.67904 3.45569,4.00842l0,6.45734l-3.59387,0l0,-4.83643c0,-1.04734 0.039481,-2.76586 -1.48164,-2.76586c-1.6582,0 -1.71742,1.5595 -1.71742,2.76586l0,4.83643l-3.59277,0l0,-4.83643c0,-1.12631 0,-2.84483 -1.60008,-2.84483c-1.59898,0 -1.59898,1.71742 -1.59898,2.84483l0,4.83643l-3.59387,0l0,-10.1291l3.59387,0l0,1.2623Z" style="fill:#000;fill-rule:nonzero;"/><path d="M401.207,500.28l0,5.41109c0,1.28313 0.315848,2.19229 1.79639,2.19229c1.48164,0 1.79748,-0.90916 1.79748,-2.19229l0,-5.41109l3.59387,0l0,6.10091c0,3.33615 -2.35022,4.36375 -5.39026,4.36375c-3.04114,0 -5.39026,-1.0287 -5.39026,-4.36375l0,-6.10091l3.59277,0Z" style="fill:#000;fill-rule:nonzero;"/><path d="M414.508,501.583l0.039481,0c0.829101,-1.22391 1.83587,-1.63956 3.23744,-1.63956c2.72638,0 3.81211,1.71742 3.81211,4.20583l0,6.25994l-3.59277,0l0,-4.93622c0,-0.967285 0.157924,-2.66607 -1.62092,-2.66607c-1.4608,0 -1.87535,1.08573 -1.87535,2.35022l0,5.25317l-3.59277,0l0,-10.1302l3.59277,0l0,1.30287Z" style="fill:#000;fill-rule:nonzero;"/><path d="M427.726,510.409l-3.59387,0l0,-10.1291l3.59387,0l0,10.1291ZM427.944,496.39c0,1.10547 -0.908063,2.01353 -2.01463,2.01353c-1.10547,0 -2.01463,-0.908063 -2.01463,-2.01353c0,-1.10657 0.90916,-2.01573 2.01463,-2.01573c1.10657,0.00219339 2.01463,0.90916 2.01463,2.01573" style="fill:#000;fill-rule:nonzero;"/><path d="M439.489,507.428l0,2.98191l-10.2673,0l4.75856,-7.14826l-4.12686,0l0,-2.98191l10.1104,0l-4.73992,7.14826l4.26505,0Z" style="fill:#000;fill-rule:nonzero;"/><path d="M444.417,505.355c0,1.28313 0.847745,2.27126 2.30854,2.27126c1.46189,0 2.31183,-0.987026 2.31183,-2.27126c0,-1.24365 -0.849939,-2.2899 -2.31183,-2.2899c-1.4597,-0.0010967 -2.30854,1.04515 -2.30854,2.2899M452.514,510.409l-3.59497,0l0,-1.12411l-0.039481,0c-0.6306,1.00677 -1.87535,1.46189 -3.06088,1.46189c-2.99946,0 -5.11279,-2.50814 -5.11279,-5.41219c0,-2.90076 2.07385,-5.39135 5.0755,-5.39135c1.16469,0 2.3886,0.435388 3.13764,1.32371l0,-0.985929l3.59497,0l0,10.128Z" style="fill:#000;fill-rule:nonzero;"/><path d="M459.211,510.409l-3.59277,0l0,-7.1669l-1.16579,0l0,-2.96217l1.16579,0l0,-3.04223l3.59277,0l0,3.04223l2.03327,0l0,2.96217l-2.03327,0l0,7.1669Z" style="fill:#000;fill-rule:nonzero;"/><path d="M466.345,510.409l-3.59387,0l0,-10.1291l3.59387,0l0,10.1291ZM466.563,496.39c0,1.10547 -0.906967,2.01353 -2.01463,2.01353c-1.10547,0 -2.01463,-0.908063 -2.01463,-2.01353c0,-1.10657 0.90916,-2.01573 2.01463,-2.01573c1.10657,0.00219339 2.01463,0.90916 2.01463,2.01573" style="fill:#000;fill-rule:nonzero;"/><path d="M472.003,505.355c0,1.28313 0.847745,2.27126 2.30964,2.27126c1.4608,0 2.31074,-0.987026 2.31074,-2.27126c0,-1.24365 -0.849939,-2.2899 -2.31074,-2.2899c-1.46189,-0.0010967 -2.30964,1.04515 -2.30964,2.2899M480.415,505.355c0,3.43595 -2.84483,5.39135 -6.10201,5.39135c-3.23854,0 -6.09982,-1.93676 -6.09982,-5.39135c0,-3.45569 2.84373,-5.41219 6.09982,-5.41219c3.25718,0 6.10201,1.9565 6.10201,5.41219" style="fill:#000;fill-rule:nonzero;"/><path d="M485.945,501.583l0.0383843,0c0.830198,-1.22391 1.83696,-1.63956 3.23744,-1.63956c2.72638,0 3.81321,1.71742 3.81321,4.20583l0,6.25994l-3.59387,0l0,-4.93622c0,-0.967285 0.159021,-2.66607 -1.61982,-2.66607c-1.4608,0 -1.87535,1.08573 -1.87535,2.35022l0,5.25317l-3.59387,0l0,-10.1302l3.59387,0l0,1.30287Z" style="fill:#000;fill-rule:nonzero;"/><path d="M502.135,502.887c-0.553831,-0.297204 -1.32371,-0.493513 -1.93567,-0.493513c-0.416744,0 -1.12521,0.177665 -1.12521,0.690918c0,0.690918 1.12521,0.788524 1.61982,0.88942c1.67794,0.335589 2.94243,1.12521 2.94243,3.00165c0,2.66607 -2.42918,3.77153 -4.7783,3.77153c-1.44106,0 -2.86347,-0.414551 -4.08848,-1.16579l1.30287,-2.50814c0.730399,0.51435 1.95541,1.0287 2.84263,1.0287c0.455128,0 1.12631,-0.217146 1.12631,-0.770977c0,-0.78962 -1.12631,-0.829101 -2.25151,-1.12631c-1.12631,-0.295011 -2.25151,-0.847745 -2.25151,-2.66497c0,-2.4884 2.25151,-3.59497 4.46245,-3.59497c1.14605,0 2.291,0.177665 3.33724,0.652534l-1.20307,2.2899Z" style="fill:#000;fill-rule:nonzero;"/><path d="M749.981,252.892l0.868582,0c2.30854,0 4.28479,-1.26339 4.28479,-4.16634c0,-2.66607 -1.758,-4.16634 -4.24531,-4.16634l-0.908063,0l0,8.33269ZM746.111,241.281l5.49006,0c4.1466,0 7.56281,3.25828 7.56281,7.44437c0,4.18608 -3.43595,7.44437 -7.56281,7.44437l-5.49006,0l0,-14.8887Z" style="fill:#000;fill-rule:nonzero;"/><path d="M764.792,247.698l0.039481,0c0.690918,-1.24475 1.87535,-1.79748 3.27583,-1.79748l0.693111,0l0,3.45569c-0.493513,-0.276367 -0.969478,-0.335589 -1.52112,-0.335589c-1.99379,0 -2.4884,1.32371 -2.4884,3.06088l0,4.08738l-3.59387,0l0,-10.1302l3.59387,0l0,1.6593l0.0010967,0Z" style="fill:#000;fill-rule:nonzero;"/><path d="M773.821,246.039l0,5.41109c0,1.28313 0.315848,2.19229 1.79748,2.19229c1.48054,0 1.79639,-0.908063 1.79639,-2.19229l0,-5.41109l3.59497,0l0,6.10091c0,3.33724 -2.35131,4.36375 -5.39135,4.36375c-3.04114,0 -5.39026,-1.0276 -5.39026,-4.36375l0,-6.10091l3.59277,0Z" style="fill:#000;fill-rule:nonzero;"/><path d="M786.575,251.036c0,1.28313 0.847745,2.27016 2.30854,2.27016c1.46189,0 2.31183,-0.987026 2.31183,-2.27016c0,-1.24475 -0.849939,-2.291 -2.31183,-2.291c-1.4597,0 -2.30854,1.04625 -2.30854,2.291M794.671,255.182c0,4.30453 -2.13307,6.04279 -5.86622,6.04279c-2.33048,0 -5.45057,-1.20417 -5.76642,-3.87024l4.02816,0c0.0987026,0.355329 0.355329,0.611956 0.672274,0.76988c0.315848,0.157924 0.689821,0.236886 1.02651,0.236886c1.93676,0 2.30964,-1.26339 2.30964,-2.90186l0,-0.474869c-0.927804,0.928901 -1.87535,1.38293 -3.2177,1.38293c-2.96217,0 -4.99764,-2.25151 -4.99764,-5.17421c0,-2.96217 2.09249,-5.48896 5.19395,-5.48896c1.18443,0 2.27016,0.39481 2.98082,1.40158l0.0405777,0l0,-1.06599l3.59387,0l0,9.14205l0.00219339,0Z" style="fill:#000;fill-rule:nonzero;"/><path d="M811.173,248.646c-0.553831,-0.297204 -1.32371,-0.493513 -1.93676,-0.493513c-0.414551,0 -1.12411,0.177665 -1.12411,0.690918c0,0.690918 1.12411,0.78962 1.61982,0.88942c1.67794,0.335589 2.94243,1.12521 2.94243,3.00165c0,2.66607 -2.42918,3.77153 -4.7783,3.77153c-1.44106,0 -2.86237,-0.414551 -4.08848,-1.16469l1.30287,-2.50814c0.730399,0.513253 1.95541,1.0276 2.84263,1.0276c0.455128,0 1.12631,-0.217146 1.12631,-0.770977c0,-0.78962 -1.12631,-0.829101 -2.25151,-1.12521c-1.12631,-0.296108 -2.25261,-0.848842 -2.25261,-2.66607c0,-2.4884 2.25261,-3.59387 4.46355,-3.59387c1.14605,0 2.291,0.177665 3.33724,0.651437l-1.20307,2.2899Z" style="fill:#000;fill-rule:nonzero;"/><path d="M818.717,256.169l-3.59277,0l0,-7.168l-1.16469,0l0,-2.96217l1.16469,0l0,-3.04114l3.59277,0l0,3.04114l2.03327,0l0,2.96217l-2.03327,0l0,7.168Z" style="fill:#000;fill-rule:nonzero;"/><path d="M825.37,251.115c0,1.28313 0.846649,2.27126 2.30854,2.27126c1.46189,0 2.31074,-0.987026 2.31074,-2.27126c0,-1.24365 -0.848842,-2.2899 -2.31074,-2.2899c-1.4608,-0.0010967 -2.30854,1.04515 -2.30854,2.2899M833.782,251.115c0,3.43595 -2.84483,5.39135 -6.10201,5.39135c-3.23854,0 -6.09982,-1.93567 -6.09982,-5.39135c0,-3.45569 2.84373,-5.41109 6.09982,-5.41109c3.25718,0 6.10201,1.95541 6.10201,5.41109" style="fill:#000;fill-rule:nonzero;"/><path d="M843.059,249.337c-0.532994,-0.39481 -1.16579,-0.710658 -1.85561,-0.710658c-1.38293,0 -2.46866,1.06599 -2.46866,2.46756c0,1.46189 1.04734,2.4884 2.52679,2.4884c0.631696,0 1.32371,-0.256627 1.79858,-0.690918l0,3.04004c-0.790717,0.39481 -1.6604,0.572475 -2.52898,0.572475c-2.99946,0 -5.5076,-2.23177 -5.5076,-5.29265c0,-3.25828 2.4873,-5.5087 5.66772,-5.5087c0.829101,0 1.6582,0.197405 2.36886,0.593312l0,3.04114l-0.0010967,0Z" style="fill:#000;fill-rule:nonzero;"/><path d="M849.133,249.693l3.73096,-3.65309l4.91758,0l-5.0755,4.68069l5.39026,5.44948l-5.03493,0l-3.93056,-4.12686l0,4.12686l-3.59277,0l0,-16.389l3.59277,0l0,9.91193l0.00219339,0Z" style="fill:#000;fill-rule:nonzero;"/><path d="M870.275,247.303l0.039481,0c0.849939,-1.12521 1.89728,-1.59898 3.19906,-1.59898c1.4608,0 2.72529,0.593312 3.45569,1.93567c0.690918,-1.26339 2.05411,-1.93567 3.43485,-1.93567c2.56736,0 3.45678,1.67904 3.45678,4.00842l0,6.45734l-3.59497,0l0,-4.83752c0,-1.04734 0.039481,-2.76477 -1.48054,-2.76477c-1.6593,0 -1.71852,1.5595 -1.71852,2.76477l0,4.83752l-3.59277,0l0,-4.83752c0,-1.12521 0,-2.84373 -1.60008,-2.84373c-1.59898,0 -1.59898,1.71742 -1.59898,2.84373l0,4.83752l-3.59277,0l0,-10.1302l3.59277,0l0,1.26339Z" style="fill:#000;fill-rule:nonzero;"/><path d="M889.561,251.115c0,1.28313 0.847745,2.27126 2.30964,2.27126c1.4608,0 2.30964,-0.987026 2.30964,-2.27126c0,-1.24365 -0.848842,-2.2899 -2.30964,-2.2899c-1.46189,-0.0010967 -2.30964,1.04515 -2.30964,2.2899M897.973,251.115c0,3.43595 -2.84373,5.39135 -6.10091,5.39135c-3.23854,0 -6.10091,-1.93567 -6.10091,-5.39135c0,-3.45569 2.84483,-5.41109 6.10091,-5.41109c3.25718,0 6.10091,1.95541 6.10091,5.41109" style="fill:#000;fill-rule:nonzero;"/><path d="M903.504,247.343l0.039481,0c0.829101,-1.22391 1.83587,-1.63956 3.23854,-1.63956c2.72529,0 3.81211,1.71742 3.81211,4.20583l0,6.25994l-3.59387,0l0,-4.93622c0,-0.967285 0.157924,-2.66607 -1.62092,-2.66607c-1.4597,0 -1.87535,1.08573 -1.87535,2.35022l0,5.25317l-3.59277,0l0,-10.1302l3.59277,0l0,1.30287Z" style="fill:#000;fill-rule:nonzero;"/><path d="M916.723,256.169l-3.59387,0l0,-10.1302l3.59387,0l0,10.1302ZM916.94,242.15c0,1.10437 -0.906967,2.01353 -2.01463,2.01353c-1.10547,0 -2.01463,-0.90916 -2.01463,-2.01353c0,-1.10657 0.90916,-2.01573 2.01463,-2.01573c1.10657,0 2.01463,0.90916 2.01463,2.01573" style="fill:#000;fill-rule:nonzero;"/><path d="M923.349,256.169l-3.59277,0l0,-7.168l-1.16469,0l0,-2.96217l1.16469,0l0,-3.04114l3.59277,0l0,3.04114l2.03327,0l0,2.96217l-2.03327,0l0,7.168Z" style="fill:#000;fill-rule:nonzero;"/><path d="M930.001,251.115c0,1.28313 0.847745,2.27126 2.30964,2.27126c1.4608,0 2.30964,-0.987026 2.30964,-2.27126c0,-1.24365 -0.848842,-2.2899 -2.30964,-2.2899c-1.46189,-0.0010967 -2.30964,1.04515 -2.30964,2.2899M938.412,251.115c0,3.43595 -2.84373,5.39135 -6.10091,5.39135c-3.23854,0 -6.10091,-1.93567 -6.10091,-5.39135c0,-3.45569 2.84483,-5.41109 6.10091,-5.41109c3.25718,0 6.10091,1.95541 6.10091,5.41109" style="fill:#000;fill-rule:nonzero;"/><path d="M943.944,247.698l0.039481,0c0.690918,-1.24475 1.87535,-1.79748 3.27692,-1.79748l0.692015,0l0,3.45569c-0.493513,-0.276367 -0.968382,-0.335589 -1.52002,-0.335589c-1.99489,0 -2.4895,1.32371 -2.4895,3.06088l0,4.08738l-3.59277,0l0,-10.1302l3.59277,0l0,1.6593l0.0010967,0Z" style="fill:#000;fill-rule:nonzero;"/><path d="M953.001,256.169l-3.59387,0l0,-10.1302l3.59387,0l0,10.1302ZM953.218,242.15c0,1.10437 -0.906967,2.01353 -2.01463,2.01353c-1.10547,0 -2.01463,-0.90916 -2.01463,-2.01353c0,-1.10657 0.90916,-2.01573 2.01463,-2.01573c1.10766,0 2.01463,0.90916 2.01463,2.01573" style="fill:#000;fill-rule:nonzero;"/><path d="M959.171,247.343l0.0383843,0c0.830198,-1.22391 1.83696,-1.63956 3.23744,-1.63956c2.72638,0 3.81321,1.71742 3.81321,4.20583l0,6.25994l-3.59387,0l0,-4.93622c0,-0.967285 0.159021,-2.66607 -1.61982,-2.66607c-1.4608,0 -1.87535,1.08573 -1.87535,2.35022l0,5.25317l-3.59387,0l0,-10.1302l3.59387,0l0,1.30287Z" style="fill:#000;fill-rule:nonzero;"/><path d="M971.903,251.036c0,1.28313 0.848842,2.27016 2.30964,2.27016c1.46189,0 2.31074,-0.987026 2.31074,-2.27016c0,-1.24475 -0.848842,-2.291 -2.31074,-2.291c-1.4608,0 -2.30964,1.04625 -2.30964,2.291M980,255.182c0,4.30453 -2.13307,6.04279 -5.86513,6.04279c-2.33048,0 -5.45057,-1.20417 -5.76642,-3.87024l4.02816,0c0.0987026,0.355329 0.355329,0.611956 0.672274,0.76988c0.315848,0.157924 0.689821,0.236886 1.02651,0.236886c1.93676,0 2.30964,-1.26339 2.30964,-2.90186l0,-0.474869c-0.928901,0.928901 -1.87535,1.38293 -3.2188,1.38293c-2.96217,0 -4.99654,-2.25151 -4.99654,-5.17421c0,-2.96217 2.09249,-5.48896 5.19395,-5.48896c1.18443,0 2.26906,0.39481 2.98082,1.40158l0.039481,0l0,-1.06599l3.59387,0l0,9.14205l0.00219339,0Z" style="fill:#000;fill-rule:nonzero;"/><path d="M679.527,443.443l-0.039481,0l-1.59898,4.73882l3.2188,0l-1.58034,-4.73882ZM676.821,451.143l-1.0276,2.5882l-4.10712,0l5.72694,-14.8887l4.22666,0l5.6074,14.8887l-4.12686,0l-0.968382,-2.5882l-5.33103,0Z" style="fill:#000;fill-rule:nonzero;"/><path d="M692.241,444.905l0.039481,0c0.829101,-1.22391 1.83587,-1.63956 3.23854,-1.63956c2.72529,0 3.81102,1.71742 3.81102,4.20583l0,6.25994l-3.59277,0l0,-4.93622c0,-0.967285 0.157924,-2.66607 -1.62092,-2.66607c-1.4608,0 -1.87535,1.08463 -1.87535,2.35022l0,5.25317l-3.59277,0l0,-10.1302l3.59277,0l0,1.30287Z" style="fill:#000;fill-rule:nonzero;"/><path d="M705.875,453.731l-3.59277,0l0,-7.168l-1.16579,0l0,-2.96217l1.16579,0l0,-3.04114l3.59277,0l0,3.04114l2.03327,0l0,2.96217l-2.03327,0l0,7.168Z" style="fill:#000;fill-rule:nonzero;"/><path d="M716.585,447.195c-0.177665,-0.967285 -1.06708,-1.59898 -2.03327,-1.59898c-1.04734,0 -1.91702,0.552734 -2.13198,1.59898l4.16525,0ZM719.922,449.269l-7.56391,0c0,1.46189 0.770977,2.25151 2.25261,2.25151c0.76988,0 1.32261,-0.256627 1.71742,-0.927804l3.45569,0c-0.572475,2.3897 -2.84373,3.47543 -5.15337,3.47543c-3.35808,0 -5.86513,-1.89619 -5.86513,-5.39135c0,-3.37672 2.30964,-5.41109 5.60631,-5.41109c3.516,0 5.55037,2.17146 5.55037,5.62824l0,0.37507Z" style="fill:#000;fill-rule:nonzero;"/><path d="M725.495,444.905l0.039481,0c0.829101,-1.22391 1.83587,-1.63956 3.23854,-1.63956c2.72419,0 3.81102,1.71742 3.81102,4.20583l0,6.25994l-3.59387,0l0,-4.93622c0,-0.967285 0.159021,-2.66607 -1.61982,-2.66607c-1.4608,0 -1.87535,1.08463 -1.87535,2.35022l0,5.25317l-3.59387,0l0,-10.1302l3.59387,0l0,1.30287Z" style="fill:#000;fill-rule:nonzero;"/><path d="M738.207,448.676c0,1.28423 0.848842,2.27126 2.30964,2.27126c1.46189,0 2.31074,-0.985929 2.31074,-2.27126c0,-1.24365 -0.848842,-2.291 -2.31074,-2.291c-1.4608,0 -2.30964,1.04625 -2.30964,2.291M746.304,453.731l-3.59387,0l0,-1.12521l-0.039481,0c-0.631696,1.00677 -1.87535,1.46189 -3.06088,1.46189c-3.00056,0 -5.11389,-2.50704 -5.11389,-5.41109c0,-2.90295 2.07385,-5.39135 5.0755,-5.39135c1.16469,0 2.3886,0.435388 3.13874,1.32371l0,-0.987026l3.59387,0l0,10.1291Z" style="fill:#000;fill-rule:nonzero;"/><path d="M753.001,453.731l-3.59277,0l0,-7.168l-1.16469,0l0,-2.96217l1.16469,0l0,-3.04114l3.59277,0l0,3.04114l2.03327,0l0,2.96217l-2.03327,0l0,7.168Z" style="fill:#000;fill-rule:nonzero;"/><path d="M759.593,448.676c0,1.28423 0.848842,2.27126 2.30964,2.27126c1.46189,0 2.31074,-0.985929 2.31074,-2.27126c0,-1.24365 -0.848842,-2.291 -2.31074,-2.291c-1.4608,0 -2.30964,1.04625 -2.30964,2.291M767.69,453.731l-3.59387,0l0,-1.12521l-0.039481,0c-0.631696,1.00677 -1.87535,1.46189 -3.06088,1.46189c-3.00056,0 -5.11389,-2.50704 -5.11389,-5.41109c0,-2.90295 2.07385,-5.39135 5.0755,-5.39135c1.16469,0 2.3886,0.435388 3.13874,1.32371l0,-0.987026l3.59387,0l0,10.1291Z" style="fill:#000;fill-rule:nonzero;"/><rect x="770.29" y="437.342" width="3.59387" height="16.389" style="fill:#000;fill-rule:nonzero;"/><path d="M791.118,446.9c-0.532994,-0.39481 -1.16579,-0.710658 -1.85561,-0.710658c-1.38293,0 -2.46866,1.06489 -2.46866,2.46756c0,1.46189 1.04734,2.4873 2.52788,2.4873c0.6306,0 1.32371,-0.25553 1.79748,-0.690918l0,3.04223c-0.78962,0.393714 -1.6593,0.571378 -2.52788,0.571378c-3.00056,0 -5.5087,-2.23068 -5.5087,-5.29155c0,-3.25938 2.4873,-5.5087 5.66772,-5.5087c0.829101,0 1.6582,0.196308 2.36886,0.592215l0,3.04114l-0.0010967,0Z" style="fill:#000;fill-rule:nonzero;"/><path d="M796.504,448.676c0,1.28423 0.847745,2.27126 2.30854,2.27126c1.46189,0 2.31183,-0.985929 2.31183,-2.27126c0,-1.24365 -0.849939,-2.291 -2.31183,-2.291c-1.4597,0 -2.30854,1.04625 -2.30854,2.291M804.601,453.731l-3.59497,0l0,-1.12521l-0.039481,0c-0.6306,1.00677 -1.87535,1.46189 -3.06088,1.46189c-2.99946,0 -5.11279,-2.50704 -5.11279,-5.41109c0,-2.90295 2.07385,-5.39135 5.0755,-5.39135c1.16469,0 2.3886,0.435388 3.13764,1.32371l0,-0.987026l3.59497,0l0,10.1291Z" style="fill:#000;fill-rule:nonzero;"/><path d="M810.8,445.261l0.039481,0c0.690918,-1.24475 1.87535,-1.79858 3.27583,-1.79858l0.692015,0l0,3.45678c-0.492416,-0.276367 -0.968382,-0.335589 -1.52002,-0.335589c-1.99489,0 -2.4884,1.32371 -2.4884,3.06088l0,4.08738l-3.59387,0l0,-10.1313l3.59387,0l0,1.6604l0.0010967,0Z" style="fill:#000;fill-rule:nonzero;"/><path d="M823.642,447.195c-0.177665,-0.967285 -1.06818,-1.59898 -2.03327,-1.59898c-1.04734,0 -1.91702,0.552734 -2.13198,1.59898l4.16525,0ZM826.979,449.269l-7.56391,0c0,1.46189 0.770977,2.25151 2.25151,2.25151c0.76988,0 1.32261,-0.256627 1.71852,-0.927804l3.45569,0c-0.572475,2.3897 -2.84483,3.47543 -5.15337,3.47543c-3.35918,0 -5.86513,-1.89619 -5.86513,-5.39135c0,-3.37672 2.30964,-5.41109 5.60631,-5.41109c3.516,0 5.55037,2.17146 5.55037,5.62824l0,0.37507Z" style="fill:#000;fill-rule:nonzero;"/><rect x="479.781" y="291.837" width="129.28" height="80.9789" style="fill:#fff;fill-rule:nonzero;"/><path d="M515.632,351.531l-0.0186438,0l-0.823618,4.66315l-0.910257,0l1.44435,-7.35882l2.4215,5.56134l2.42589,-5.56134l1.44106,7.35882l-0.90587,0l-0.824715,-4.66315l-0.0208372,0l-2.11662,4.81449l-2.11223,-4.81449Z" style="fill:#000;fill-rule:nonzero;"/><path d="M522.449,349.134l3.79018,0l0,0.806071l-2.90844,0l0,1.97734l2.82618,0l0,0.803877l-2.82618,0l0,2.66826l2.90844,0l0,0.804974l-3.79018,0l0,-7.06052Z" style="fill:#000;fill-rule:nonzero;"/><path d="M528.108,355.39l0.309268,0c1.79858,0 3.34931,-0.674467 3.34931,-2.72309c0,-2.0585 -1.55073,-2.72638 -3.34931,-2.72638l-0.309268,0l0,5.44948ZM527.229,349.134l1.4608,0c2.16049,0 3.95907,1.14166 3.95907,3.49297c0,2.40725 -1.76129,3.56645 -3.98868,3.56645l-1.43119,0l0,-7.05943Z" style="fill:#000;fill-rule:nonzero;"/><rect x="533.6" y="349.134" width="0.880646" height="7.06052" style="fill:#000;fill-rule:nonzero;"/><path d="M540.999,350.482c-0.506673,-0.449645 -1.19759,-0.693111 -1.86438,-0.693111c-1.58143,0 -2.7889,1.31823 -2.7889,2.88431c0,1.54634 1.19869,2.86237 2.77135,2.86237c0.693111,0 1.35661,-0.261013 1.88193,-0.730399l0,1.04186c-0.542864,0.320235 -1.23598,0.4979 -1.85232,0.4979c-2.01573,0 -3.67832,-1.60008 -3.67832,-3.64432c0,-2.08811 1.67356,-3.7178 3.75179,-3.7178c0.619633,0 1.24694,0.151344 1.78213,0.479256l0,1.02212l-0.00329009,0l0,-0.00219339Z" style="fill:#000;fill-rule:nonzero;"/><path d="M550.949,350.353l-0.0208372,0l-2.46318,6.07569l-2.4544,-6.07569l-0.0175471,0l-1.20746,5.841l-0.431001,0l1.51673,-7.29302l2.59368,6.42225l2.60246,-6.42225l1.51673,7.29302l-0.429904,0l-1.20527,-5.841Z" style="fill:#000;fill-rule:nonzero;"/><path d="M553.594,352.663c0,1.74155 1.44983,3.20235 3.21332,3.20235c1.74923,0 3.21003,-1.47067 3.21003,-3.20235c0,-1.73826 -1.4608,-3.20125 -3.21003,-3.20125c-1.76349,0 -3.21332,1.46299 -3.21332,3.20125M560.466,352.663c0,1.98611 -1.67685,3.62677 -3.65857,3.62677c-1.98502,0 -3.66186,-1.64066 -3.66186,-3.62677c0,-1.98502 1.66807,-3.62348 3.66186,-3.62348c1.98173,0 3.65857,1.63956 3.65857,3.62348" style="fill:#000;fill-rule:nonzero;"/><path d="M562.172,355.77l1.07695,0c0.495706,0 1.00677,0.0241273 1.43886,-0.270884c0.429904,-0.289527 0.692015,-0.729302 0.692015,-1.25572c0,-0.512157 -0.25224,-1.0276 -0.729302,-1.2601c-0.429904,-0.214952 -1.01883,-0.227016 -1.49151,-0.227016l-0.989219,0l0,3.01372l0.00219339,0ZM562.172,352.335l0.777557,0c0.478159,0 0.860906,0.0285141 1.2623,-0.259917c0.40468,-0.291721 0.525317,-0.648147 0.525317,-1.13508c0,-0.457322 -0.177665,-0.910257 -0.581248,-1.1614c-0.354232,-0.227016 -0.794007,-0.227016 -1.20636,-0.227016l-0.777557,0l0,2.78341ZM561.722,356.194l0,-7.06052l1.41254,0c0.53409,0 1.04186,0.0383843 1.46299,0.412357c0.429904,0.37507 0.588925,0.898193 0.588925,1.4586c0,0.649243 -0.251143,1.12302 -0.814844,1.44325c0.871873,0.177665 1.46189,0.879549 1.46189,1.77555c0,0.568088 -0.216049,1.08792 -0.655824,1.46409c-0.494609,0.417841 -1.01883,0.503383 -1.64833,0.503383l-1.80845,0l0,0.00329009l0.0010967,0Z" style="fill:#000;fill-rule:nonzero;"/><rect x="567.121" y="349.134" width="0.448548" height="7.06052" style="fill:#000;fill-rule:nonzero;"/><path d="M569.671,355.77l1.79858,0l0,0.421131l-2.24822,0l0,-7.05723l0.449645,0l0,6.6361Z" style="fill:#000;fill-rule:nonzero;"/><path d="M572.84,349.555l0,2.56736l2.84263,0l0,0.421131l-2.84263,0l0,3.22648l2.9205,0l0,0.421131l-3.37234,0l0,-7.05943l3.37234,0l0,0.417841l-2.9205,0l0,0.00548348Z" style="fill:#000;fill-rule:nonzero;"/><rect x="487.075" y="299.151" width="114.689" height="6.50011" style="fill:#58595b;fill-rule:nonzero;"/><rect x="487.075" y="305.651" width="114.689" height="3.90094" style="fill:#64a2c8;fill-rule:nonzero;"/><path d="M541.707,333.226l-3.81979,3.36576c-0.11296,0.101993 -0.290624,0.0921224 -0.39152,-0.0230306l-3.50613,-3.97771c-0.0997992,-0.11296 -0.089929,-0.290624 0.025224,-0.393714l3.8165,-3.36466c0.114056,-0.103089 0.291721,-0.0888323 0.39481,0.0241273l3.50394,3.97771c0.100896,0.111863 0.0910257,0.286237 -0.0230306,0.39152M552.609,323.337c-0.0296108,-1.01554 -0.814844,-0.687628 -1.07915,-0.603182c1.0616,-0.66021 1.97624,-2.59478 1.73387,-3.43266c-0.186438,-0.652534 -0.615246,-0.429904 -1.14056,0.0811554c1.53428,-3.46336 -0.738076,-5.32226 -0.738076,-5.31897c-0.39152,-0.25882 -0.670081,0.0855422 -0.663501,0.602086c0.0800587,4.16525 -2.96437,6.57469 -6.29284,8.57177c-2.49827,1.61324 -3.3844,4.33304 -3.69038,6.27419c-0.0767687,0.240176 -0.256627,0.125023 -0.341072,0.050448l-1.9236,-2.18023c-0.209469,-0.23908 -0.50448,-0.352039 -0.799491,-0.345459c-0.227016,0.00987026 -0.455128,0.0888323 -0.63718,0.25553l-0.0855422,0.0767687l0,-0.00219339l-0.00329009,0.00219339l-0.462805,-0.52751c-0.13599,-0.154634 -0.325718,-0.235789 -0.50777,-0.23908c-0.141474,-0.0010967 -0.277464,0.0460612 -0.387133,0.141474l-0.257723,0.224822c-0.25224,0.224822 -0.259917,0.626213 -0.014257,0.903677l0.461709,0.528607l-3.16177,2.7867c-0.424421,0.372876 -0.459515,1.01335 -0.0910257,1.43777l10.956,12.4168c0.205082,0.237983 0.50119,0.353136 0.791814,0.344362c0.233596,-0.00658017 0.460612,-0.0888323 0.642663,-0.253337l4.41858,-3.89985c0.421131,-0.369586 0.459515,-1.01444 0.0877356,-1.43777l-3.70683,-4.19815c0,-0.0010967 -0.00219339,-0.00438678 -0.00548348,-0.00767687c-0.13599,-0.218242 0.246756,-0.177665 0.246756,-0.177665l0,-0.00548348c0.600989,0.0241273 1.04625,-0.115153 1.36319,-0.329009c0.477062,-0.322428 -0.0679951,-0.558218 -0.151344,-0.790717c0.738076,0.353136 2.19229,0.0537381 2.5564,-0.415647c0.280754,-0.364103 -0.202889,-0.518737 -0.668984,-0.625116c1.17127,-0.545057 2.11114,-1.09121 2.61123,-2.38531c0.297204,-0.76001 -0.515447,-0.77975 -1.32261,-0.471579c0.661307,-0.663501 1.32261,-1.56279 1.65272,-2.71213c0.372876,-1.30726 -0.11625,-1.96199 -1.16688,-1.08244c0.955221,-0.942061 1.81613,-2.18352 1.77665,-3.25718" style="fill:#58595b;fill-rule:nonzero;"/><rect x="527.371" y="300.453" width="7.7975" height="5.19833" style="fill:#64a2c8;fill-rule:nonzero;"/><rect x="537.769" y="300.453" width="7.80079" height="5.19833" style="fill:#cc8c21;fill-rule:nonzero;"/><rect x="548.169" y="300.453" width="7.7986" height="5.19833" style="fill:#78b1b1;fill-rule:nonzero;"/><path d="M601.746,365.504l-114.641,0l0,-66.3479l114.641,0l0,66.3479ZM609.061,291.837l-129.28,0l0,80.9789l129.28,0l0,-80.9789Z" style="fill:#b3b3b3;fill-rule:nonzero;"/><path d="M557.932,387.331l-27.0215,0l0,-4.43065l27.0215,0l0,4.43065ZM472.058,378.062c0,0 2.90405,14.0969 13.3007,14.0969l0,0.00767687l118.124,0l0,-0.00767687c10.3978,0 13.3018,-14.0969 13.3018,-14.0969l-144.726,0Z" style="fill:#b3b3b3;fill-rule:nonzero;"/><path d="M287.837,122.653c-1.82051,0 -3.30105,-1.47834 -3.30105,-3.29996l0,-4.15757c0,-1.83477 -1.47505,-3.30873 -3.30763,-3.30873l-2.20545,0c-1.82271,0 -3.29996,1.47396 -3.29996,3.30873l0,4.15757c0,1.82161 -1.48493,3.29996 -3.30873,3.29996l-20.937,0c-1.83258,0 -3.31092,1.48383 -3.31092,3.30983l0,74.4612c0,1.83258 1.47834,3.31092 3.31092,3.31092l36.3598,0c1.8249,0 3.31202,-1.47834 3.31202,-3.31092l0,-74.4612c0,-1.826 -1.47944,-3.30983 -3.31202,-3.30983" style="fill:#b3b3b3;fill-rule:nonzero;"/><path d="M255.399,186.717c0,-1.826 1.47615,-3.30873 3.31092,-3.30873c1.82161,0 3.29886,1.48273 3.29886,3.30873c0,1.8249 -1.47725,3.31202 -3.29886,3.31202c-1.83477,0 -3.31092,-1.48712 -3.31092,-3.31202" style="fill:#fff;fill-rule:nonzero;"/><path d="M258.71,172.463c1.82161,0 3.29996,1.47834 3.29996,3.29996c0,1.82271 -1.47834,3.30983 -3.29996,3.30983c-1.83477,0 -3.31092,-1.48712 -3.31092,-3.30983c0,-1.82161 1.47615,-3.29996 3.31092,-3.29996" style="fill:#fff;fill-rule:nonzero;"/><path d="M255.399,164.811c0,-1.8238 1.47615,-3.30105 3.31092,-3.30105c1.82161,0 3.29886,1.47725 3.29886,3.30105c0,1.83038 -1.47725,3.30873 -3.29886,3.30873c-1.83477,0 -3.31092,-1.47834 -3.31092,-3.30873" style="fill:#fff;fill-rule:nonzero;"/><path d="M276.369,198.107l-13.8425,0c-0.91245,0 -1.65601,-0.738076 -1.65601,-1.64614c0,-0.922321 0.743559,-1.6582 1.65601,-1.6582l13.8425,0c0.920127,0 1.65272,0.735882 1.65272,1.6582c0,0.908063 -0.732592,1.64614 -1.65272,1.64614" style="fill:#fff;fill-rule:nonzero;"/><path d="M269.451,172.463c1.826,0 3.30105,1.47834 3.30105,3.29996c0,1.82271 -1.47505,3.30983 -3.30105,3.30983c-1.83148,0 -3.30983,-1.48712 -3.30983,-3.30983c0,-1.82161 1.47834,-3.29996 3.30983,-3.29996" style="fill:#fff;fill-rule:nonzero;"/><path d="M266.141,164.811c0,-1.8238 1.47834,-3.30105 3.30983,-3.30105c1.826,0 3.29996,1.47725 3.29996,3.30105c0,1.83038 -1.47396,3.30873 -3.29996,3.30873c-1.83148,0 -3.30983,-1.47834 -3.30983,-3.30873" style="fill:#fff;fill-rule:nonzero;"/><path d="M269.451,183.409c1.826,0 3.30105,1.48273 3.30105,3.30873c0,1.8249 -1.47505,3.31092 -3.30105,3.31092c-1.83148,0 -3.30983,-1.48602 -3.30983,-3.31092c0,-1.826 1.47834,-3.30873 3.30983,-3.30873" style="fill:#fff;fill-rule:nonzero;"/><path d="M280.193,190.029c-1.82051,0 -3.30763,-1.48602 -3.30763,-3.31202c0,-1.826 1.48712,-3.30763 3.30763,-3.30763c1.826,0 3.31312,1.48164 3.31312,3.30763c0,1.826 -1.48712,3.31202 -3.31312,3.31202" style="fill:#fff;fill-rule:nonzero;"/><path d="M280.193,179.074c-1.82051,0 -3.30763,-1.48712 -3.30763,-3.31092c0,-1.82161 1.48712,-3.29886 3.30763,-3.29886c1.826,0 3.31312,1.47725 3.31312,3.29886c0,1.8238 -1.48712,3.31092 -3.31312,3.31092" style="fill:#fff;fill-rule:nonzero;"/><path d="M280.193,168.119c-1.82051,0 -3.30763,-1.47834 -3.30763,-3.30873c0,-1.8238 1.48712,-3.29996 3.30763,-3.29996c1.826,0 3.31312,1.47615 3.31312,3.29996c0,1.83038 -1.48712,3.30873 -3.31312,3.30873" style="fill:#fff;fill-rule:nonzero;"/><path d="M285.571,151.953c0,1.826 -1.48493,3.30215 -3.31202,3.30215l-25.2053,0c-1.83258,0 -3.30983,-1.47615 -3.30983,-3.30215l0,-18.2326c0,-1.826 1.47725,-3.30434 3.30983,-3.30434l25.2053,0c1.82709,0 3.31202,1.47834 3.31202,3.30434l0,18.2326Z" style="fill:#fff;fill-rule:nonzero;"/><path d="M268.712,144.673l-2.19668,1.93786c-0.0658017,0.0581248 -0.166698,0.0515447 -0.225919,-0.014257l-2.01792,-2.2888c-0.0581248,-0.0668984 -0.0526414,-0.167794 0.014257,-0.225919l2.19668,-1.93896c0.0668984,-0.0559314 0.168891,-0.0515447 0.228113,0.0164504l2.01682,2.28551c0.0570281,0.0679951 0.0526414,0.168891 -0.0153537,0.228113M274.988,138.984c-0.0208372,-0.584538 -0.470482,-0.399197 -0.620729,-0.348749c0.608666,-0.379456 1.13398,-1.49151 0.995799,-1.97295c-0.106379,-0.376166 -0.354232,-0.247853 -0.658017,0.0449645c0.88284,-1.99269 -0.423324,-3.06417 -0.423324,-3.06197c-0.224822,-0.148054 -0.38494,0.050448 -0.38165,0.347652c0.0438678,2.39628 -1.70646,3.7836 -3.62129,4.93184c-1.43777,0.928901 -1.94663,2.49279 -2.1243,3.61251c-0.0438678,0.137087 -0.14586,0.0690918 -0.197405,0.0274174l-1.10547,-1.25462c-0.120636,-0.13599 -0.290624,-0.203985 -0.459515,-0.196308c-0.131603,0.00438678 -0.26211,0.0526414 -0.36849,0.14586l-0.0482546,0.0427711l-0.0010967,0l-0.00219339,0l-0.266497,-0.303785c-0.078962,-0.0888323 -0.187535,-0.13599 -0.291721,-0.13599c-0.0822521,0 -0.160117,0.0263207 -0.223726,0.0800587l-0.149151,0.133797c-0.144764,0.123927 -0.148054,0.358619 -0.00767687,0.51764l0.267594,0.303785l-1.82161,1.60446c-0.241273,0.212759 -0.264304,0.582345 -0.050448,0.828005l6.30271,7.14387c0.120636,0.13599 0.288431,0.203985 0.458419,0.199598c0.133797,-0.00548348 0.26211,-0.0537381 0.36849,-0.14586l2.54324,-2.24493c0.243466,-0.213856 0.2654,-0.583442 0.0526414,-0.825811l-2.13307,-2.41931c-0.00219339,-0.00329009 -0.00219339,-0.00438678 -0.00329009,-0.00548348c-0.078962,-0.12612 0.14257,-0.100896 0.14257,-0.100896l0,-0.0010967c0.344362,0.00987026 0.599892,-0.0701885 0.781944,-0.189728c0.27527,-0.186438 -0.0372876,-0.323525 -0.0877356,-0.459515c0.427711,0.207275 1.26559,0.0307075 1.47286,-0.237983c0.162311,-0.210565 -0.117346,-0.298301 -0.387133,-0.358619c0.677758,-0.314751 1.21843,-0.62731 1.50576,-1.37306c0.169988,-0.435388 -0.296108,-0.449645 -0.762203,-0.273077c0.38165,-0.380553 0.762203,-0.897097 0.950835,-1.56169c0.214952,-0.751236 -0.0658017,-1.12631 -0.670081,-0.620729c0.550541,-0.540671 1.04405,-1.25572 1.02322,-1.87206" style="fill:#787878;fill-rule:nonzero;"/><path d="M288.092,397.923c-1.82051,0 -3.30105,-1.47834 -3.30105,-3.29996l0,-4.15757c0,-1.83477 -1.47505,-3.30873 -3.30763,-3.30873l-2.20545,0c-1.82271,0 -3.29996,1.47396 -3.29996,3.30873l0,4.15757c0,1.82161 -1.48493,3.29996 -3.30873,3.29996l-20.937,0c-1.83258,0 -3.31092,1.48383 -3.31092,3.30983l0,74.4612c0,1.83258 1.47834,3.31092 3.31092,3.31092l36.3598,0c1.8249,0 3.31202,-1.47834 3.31202,-3.31092l0,-74.4612c0,-1.826 -1.47944,-3.30983 -3.31202,-3.30983" style="fill:#b3b3b3;fill-rule:nonzero;"/><path d="M255.654,461.988c0,-1.826 1.47615,-3.30873 3.31092,-3.30873c1.82161,0 3.29886,1.48273 3.29886,3.30873c0,1.8249 -1.47725,3.31202 -3.29886,3.31202c-1.83477,0 -3.31092,-1.48712 -3.31092,-3.31202" style="fill:#fff;fill-rule:nonzero;"/><path d="M258.965,447.734c1.82161,0 3.29996,1.47834 3.29996,3.29996c0,1.82271 -1.47834,3.30983 -3.29996,3.30983c-1.83477,0 -3.31092,-1.48712 -3.31092,-3.30983c0,-1.82161 1.47615,-3.29996 3.31092,-3.29996" style="fill:#fff;fill-rule:nonzero;"/><path d="M255.654,440.082c0,-1.8238 1.47615,-3.30105 3.31092,-3.30105c1.82161,0 3.29886,1.47725 3.29886,3.30105c0,1.83038 -1.47725,3.30873 -3.29886,3.30873c-1.83477,0 -3.31092,-1.47834 -3.31092,-3.30873" style="fill:#fff;fill-rule:nonzero;"/><path d="M276.624,473.378l-13.8425,0c-0.91245,0 -1.65601,-0.738076 -1.65601,-1.64614c0,-0.922321 0.743559,-1.6582 1.65601,-1.6582l13.8425,0c0.920127,0 1.65272,0.735882 1.65272,1.6582c0,0.908063 -0.732592,1.64614 -1.65272,1.64614" style="fill:#fff;fill-rule:nonzero;"/><path d="M269.706,447.734c1.826,0 3.30105,1.47834 3.30105,3.29996c0,1.82271 -1.47505,3.30983 -3.30105,3.30983c-1.83148,0 -3.30983,-1.48712 -3.30983,-3.30983c0,-1.82161 1.47834,-3.29996 3.30983,-3.29996" style="fill:#fff;fill-rule:nonzero;"/><path d="M266.396,440.082c0,-1.8238 1.47834,-3.30105 3.30983,-3.30105c1.826,0 3.29996,1.47725 3.29996,3.30105c0,1.83038 -1.47396,3.30873 -3.29996,3.30873c-1.83148,0 -3.30983,-1.47834 -3.30983,-3.30873" style="fill:#fff;fill-rule:nonzero;"/><path d="M269.706,458.679c1.826,0 3.30105,1.48273 3.30105,3.30873c0,1.8249 -1.47505,3.31092 -3.30105,3.31092c-1.83148,0 -3.30983,-1.48602 -3.30983,-3.31092c0,-1.826 1.47834,-3.30873 3.30983,-3.30873" style="fill:#fff;fill-rule:nonzero;"/><path d="M280.448,465.299c-1.82051,0 -3.30763,-1.48602 -3.30763,-3.31202c0,-1.826 1.48712,-3.30763 3.30763,-3.30763c1.826,0 3.31312,1.48164 3.31312,3.30763c0,1.826 -1.48712,3.31202 -3.31312,3.31202" style="fill:#fff;fill-rule:nonzero;"/><path d="M280.448,454.344c-1.82051,0 -3.30763,-1.48712 -3.30763,-3.31092c0,-1.82161 1.48712,-3.29886 3.30763,-3.29886c1.826,0 3.31312,1.47725 3.31312,3.29886c0,1.8238 -1.48712,3.31092 -3.31312,3.31092" style="fill:#fff;fill-rule:nonzero;"/><path d="M280.448,443.39c-1.82051,0 -3.30763,-1.47834 -3.30763,-3.30873c0,-1.8238 1.48712,-3.29996 3.30763,-3.29996c1.826,0 3.31312,1.47615 3.31312,3.29996c0,1.83038 -1.48712,3.30873 -3.31312,3.30873" style="fill:#fff;fill-rule:nonzero;"/><path d="M285.826,427.223c0,1.826 -1.48493,3.30215 -3.31202,3.30215l-25.2053,0c-1.83258,0 -3.30983,-1.47615 -3.30983,-3.30215l0,-18.2326c0,-1.826 1.47725,-3.30434 3.30983,-3.30434l25.2053,0c1.82709,0 3.31202,1.47834 3.31202,3.30434l0,18.2326Z" style="fill:#fff;fill-rule:nonzero;"/><path d="M268.967,419.944l-2.19668,1.93786c-0.0658017,0.0581248 -0.166698,0.0515447 -0.225919,-0.014257l-2.01792,-2.2888c-0.0581248,-0.0668984 -0.0526414,-0.167794 0.014257,-0.225919l2.19668,-1.93896c0.0668984,-0.0559314 0.168891,-0.0515447 0.228113,0.0164504l2.01682,2.28551c0.0570281,0.0679951 0.0526414,0.168891 -0.0153537,0.228113M275.243,414.254c-0.0208372,-0.584538 -0.470482,-0.399197 -0.620729,-0.348749c0.608666,-0.379456 1.13398,-1.49151 0.995799,-1.97295c-0.106379,-0.376166 -0.354232,-0.247853 -0.658017,0.0449645c0.88284,-1.99269 -0.423324,-3.06417 -0.423324,-3.06197c-0.224822,-0.148054 -0.38494,0.050448 -0.38165,0.347652c0.0438678,2.39628 -1.70646,3.7836 -3.62129,4.93184c-1.43777,0.928901 -1.94663,2.49279 -2.1243,3.61251c-0.0438678,0.137087 -0.14586,0.0690918 -0.197405,0.0274174l-1.10547,-1.25462c-0.120636,-0.13599 -0.290624,-0.203985 -0.459515,-0.196308c-0.131603,0.00438678 -0.26211,0.0526414 -0.36849,0.14586l-0.0482546,0.0427711l-0.0010967,0l-0.00219339,0l-0.266497,-0.303785c-0.078962,-0.0888323 -0.187535,-0.13599 -0.291721,-0.13599c-0.0822521,0 -0.160117,0.0263207 -0.223726,0.0800587l-0.149151,0.133797c-0.144764,0.123927 -0.148054,0.358619 -0.00767687,0.51764l0.267594,0.303785l-1.82161,1.60446c-0.241273,0.212759 -0.264304,0.582345 -0.050448,0.828005l6.30271,7.14387c0.120636,0.13599 0.288431,0.203985 0.458419,0.199598c0.133797,-0.00548348 0.26211,-0.0537381 0.36849,-0.14586l2.54324,-2.24493c0.243466,-0.213856 0.2654,-0.583442 0.0526414,-0.825811l-2.13307,-2.41931c-0.00219339,-0.00329009 -0.00219339,-0.00438678 -0.00329009,-0.00548348c-0.078962,-0.12612 0.14257,-0.100896 0.14257,-0.100896l0,-0.0010967c0.344362,0.00987026 0.599892,-0.0701885 0.781944,-0.189728c0.27527,-0.186438 -0.0372876,-0.323525 -0.0877356,-0.459515c0.427711,0.207275 1.26559,0.0307075 1.47286,-0.237983c0.162311,-0.210565 -0.117346,-0.298301 -0.387133,-0.358619c0.677758,-0.314751 1.21843,-0.62731 1.50576,-1.37306c0.169988,-0.435388 -0.296108,-0.449645 -0.762203,-0.273077c0.38165,-0.380553 0.762203,-0.897097 0.950835,-1.56169c0.214952,-0.751236 -0.0658017,-1.12631 -0.670081,-0.620729c0.550541,-0.540671 1.04405,-1.25572 1.02322,-1.87206" style="fill:#787878;fill-rule:nonzero;"/><path d="M817.796,325.541c-1.82051,0 -3.30105,-1.47834 -3.30105,-3.29996l0,-4.15757c0,-1.83477 -1.47505,-3.30873 -3.30763,-3.30873l-2.20545,0c-1.82271,0 -3.29996,1.47396 -3.29996,3.30873l0,4.15757c0,1.82161 -1.48493,3.29996 -3.30873,3.29996l-20.937,0c-1.83258,0 -3.31092,1.48383 -3.31092,3.30983l0,74.4612c0,1.83258 1.47834,3.31092 3.31092,3.31092l36.3598,0c1.8249,0 3.31202,-1.47834 3.31202,-3.31092l0,-74.4612c0,-1.826 -1.47944,-3.30983 -3.31202,-3.30983" style="fill:#b3b3b3;fill-rule:nonzero;"/><path d="M785.358,389.606c0,-1.826 1.47615,-3.30873 3.31092,-3.30873c1.82161,0 3.29886,1.48273 3.29886,3.30873c0,1.8249 -1.47725,3.31202 -3.29886,3.31202c-1.83477,0 -3.31092,-1.48712 -3.31092,-3.31202" style="fill:#fff;fill-rule:nonzero;"/><path d="M788.668,375.352c1.82161,0 3.29996,1.47834 3.29996,3.29996c0,1.82271 -1.47834,3.30983 -3.29996,3.30983c-1.83477,0 -3.31092,-1.48712 -3.31092,-3.30983c0,-1.82161 1.47615,-3.29996 3.31092,-3.29996" style="fill:#fff;fill-rule:nonzero;"/><path d="M785.358,367.7c0,-1.8238 1.47615,-3.30105 3.31092,-3.30105c1.82161,0 3.29886,1.47725 3.29886,3.30105c0,1.83038 -1.47725,3.30873 -3.29886,3.30873c-1.83477,0 -3.31092,-1.47834 -3.31092,-3.30873" style="fill:#fff;fill-rule:nonzero;"/><path d="M806.328,400.996l-13.8425,0c-0.91245,0 -1.65601,-0.738076 -1.65601,-1.64614c0,-0.922321 0.743559,-1.6582 1.65601,-1.6582l13.8425,0c0.920127,0 1.65272,0.735882 1.65272,1.6582c0,0.908063 -0.732592,1.64614 -1.65272,1.64614" style="fill:#fff;fill-rule:nonzero;"/><path d="M799.409,375.352c1.826,0 3.30105,1.47834 3.30105,3.29996c0,1.82271 -1.47505,3.30983 -3.30105,3.30983c-1.83148,0 -3.30983,-1.48712 -3.30983,-3.30983c0,-1.82161 1.47834,-3.29996 3.30983,-3.29996" style="fill:#fff;fill-rule:nonzero;"/><path d="M796.1,367.7c0,-1.8238 1.47834,-3.30105 3.30983,-3.30105c1.826,0 3.29996,1.47725 3.29996,3.30105c0,1.83038 -1.47396,3.30873 -3.29996,3.30873c-1.83148,0 -3.30983,-1.47834 -3.30983,-3.30873" style="fill:#fff;fill-rule:nonzero;"/><path d="M799.409,386.298c1.826,0 3.30105,1.48273 3.30105,3.30873c0,1.8249 -1.47505,3.31092 -3.30105,3.31092c-1.83148,0 -3.30983,-1.48602 -3.30983,-3.31092c0,-1.826 1.47834,-3.30873 3.30983,-3.30873" style="fill:#fff;fill-rule:nonzero;"/><path d="M810.151,392.917c-1.82051,0 -3.30763,-1.48602 -3.30763,-3.31202c0,-1.826 1.48712,-3.30763 3.30763,-3.30763c1.826,0 3.31312,1.48164 3.31312,3.30763c0,1.826 -1.48712,3.31202 -3.31312,3.31202" style="fill:#fff;fill-rule:nonzero;"/><path d="M810.151,381.962c-1.82051,0 -3.30763,-1.48712 -3.30763,-3.31092c0,-1.82161 1.48712,-3.29886 3.30763,-3.29886c1.826,0 3.31312,1.47725 3.31312,3.29886c0,1.8238 -1.48712,3.31092 -3.31312,3.31092" style="fill:#fff;fill-rule:nonzero;"/><path d="M810.151,371.008c-1.82051,0 -3.30763,-1.47834 -3.30763,-3.30873c0,-1.8238 1.48712,-3.29996 3.30763,-3.29996c1.826,0 3.31312,1.47615 3.31312,3.29996c0,1.83038 -1.48712,3.30873 -3.31312,3.30873" style="fill:#fff;fill-rule:nonzero;"/><path d="M815.53,354.841c0,1.826 -1.48493,3.30215 -3.31202,3.30215l-25.2053,0c-1.83258,0 -3.30983,-1.47615 -3.30983,-3.30215l0,-18.2326c0,-1.826 1.47725,-3.30434 3.30983,-3.30434l25.2053,0c1.82709,0 3.31202,1.47834 3.31202,3.30434l0,18.2326Z" style="fill:#fff;fill-rule:nonzero;"/><path d="M798.67,347.562l-2.19668,1.93786c-0.0658017,0.0581248 -0.166698,0.0515447 -0.225919,-0.014257l-2.01792,-2.2888c-0.0581248,-0.0668984 -0.0526414,-0.167794 0.014257,-0.225919l2.19668,-1.93896c0.0668984,-0.0559314 0.168891,-0.0515447 0.228113,0.0164504l2.01682,2.28551c0.0570281,0.0679951 0.0526414,0.168891 -0.0153537,0.228113M804.947,341.872c-0.0208372,-0.584538 -0.470482,-0.399197 -0.620729,-0.348749c0.608666,-0.379456 1.13398,-1.49151 0.995799,-1.97295c-0.106379,-0.376166 -0.354232,-0.247853 -0.658017,0.0449645c0.88284,-1.99269 -0.423324,-3.06417 -0.423324,-3.06197c-0.224822,-0.148054 -0.38494,0.050448 -0.38165,0.347652c0.0438678,2.39628 -1.70646,3.7836 -3.62129,4.93184c-1.43777,0.928901 -1.94663,2.49279 -2.1243,3.61251c-0.0438678,0.137087 -0.14586,0.0690918 -0.197405,0.0274174l-1.10547,-1.25462c-0.120636,-0.13599 -0.290624,-0.203985 -0.459515,-0.196308c-0.131603,0.00438678 -0.26211,0.0526414 -0.36849,0.14586l-0.0482546,0.0427711l-0.0010967,0l-0.00219339,0l-0.266497,-0.303785c-0.078962,-0.0888323 -0.187535,-0.13599 -0.291721,-0.13599c-0.0822521,0 -0.160117,0.0263207 -0.223726,0.0800587l-0.149151,0.133797c-0.144764,0.123927 -0.148054,0.358619 -0.00767687,0.51764l0.267594,0.303785l-1.82161,1.60446c-0.241273,0.212759 -0.264304,0.582345 -0.050448,0.828005l6.30271,7.14387c0.120636,0.13599 0.288431,0.203985 0.458419,0.199598c0.133797,-0.00548348 0.26211,-0.0537381 0.36849,-0.14586l2.54324,-2.24493c0.243466,-0.213856 0.2654,-0.583442 0.0526414,-0.825811l-2.13307,-2.41931c-0.00219339,-0.00329009 -0.00219339,-0.00438678 -0.00329009,-0.00548348c-0.078962,-0.12612 0.14257,-0.100896 0.14257,-0.100896l0,-0.0010967c0.344362,0.00987026 0.599892,-0.0701885 0.781944,-0.189728c0.27527,-0.186438 -0.0372876,-0.323525 -0.0877356,-0.459515c0.427711,0.207275 1.26559,0.0307075 1.47286,-0.237983c0.162311,-0.210565 -0.117346,-0.298301 -0.387133,-0.358619c0.677758,-0.314751 1.21843,-0.62731 1.50576,-1.37306c0.169988,-0.435388 -0.296108,-0.449645 -0.762203,-0.273077c0.38165,-0.380553 0.762203,-0.897097 0.950835,-1.56169c0.214952,-0.751236 -0.0658017,-1.12631 -0.670081,-0.620729c0.550541,-0.540671 1.04405,-1.25572 1.02322,-1.87206" style="fill:#787878;fill-rule:nonzero;"/><path d="M787.08,215.529l-53.8071,0l5.98028,-9.87026l41.8488,0l5.97808,9.87026Z" style="fill:#b4b4b4;fill-rule:nonzero;"/><rect x="713.018" y="134.373" width="94.3158" height="69.0918" style="fill:#b4b4b4;fill-rule:nonzero;"/><rect x="719.496" y="138.658" width="81.1554" height="51.5447" style="fill:#fff;fill-rule:nonzero;"/><path d="M734.397,183.314l-0.0186438,0l-0.741366,4.20034l-0.818135,0l1.29958,-6.62952l2.18352,5.0097l2.18462,-5.0097l1.29958,6.62952l-0.818135,0l-0.742463,-4.20034l-0.0164504,0l-1.90606,4.33524l-1.90606,-4.33524Z" style="fill:#000;fill-rule:nonzero;"/><path d="M740.526,181.154l3.41511,0l0,0.726012l-2.62329,0l0,1.77994l2.54762,0l0,0.726012l-2.54762,0l0,2.40396l2.62329,0l0,0.724915l-3.41511,0l0,-6.36083Z" style="fill:#000;fill-rule:nonzero;"/><path d="M745.609,186.79l0.278561,0c1.61982,0 3.0192,-0.607569 3.0192,-2.4544c0,-1.85561 -1.39938,-2.4544 -3.0192,-2.4544l-0.278561,0l0,4.90881ZM744.816,181.155l1.31713,0c1.94663,0 3.56645,1.0287 3.56645,3.14642c0,2.16817 -1.58582,3.21332 -3.59277,3.21332l-1.29081,0l0,-6.35973Z" style="fill:#000;fill-rule:nonzero;"/><rect x="750.545" y="181.154" width="0.794007" height="6.35973" style="fill:#000;fill-rule:nonzero;"/><path d="M757.192,182.368c-0.455128,-0.40468 -1.07915,-0.624019 -1.67794,-0.624019c-1.4257,0 -2.51363,1.18882 -2.51363,2.59807c0,1.39171 1.07805,2.58162 2.49608,2.58162c0.622923,0 1.22172,-0.236886 1.69439,-0.658017l0,0.936578c-0.486933,0.287334 -1.11315,0.447452 -1.66807,0.447452c-1.81393,0 -3.31531,-1.44215 -3.31531,-3.28131c0,-1.88083 1.51015,-3.34821 3.38221,-3.34821c0.558218,0 1.12192,0.134893 1.60227,0.431001l0,0.916837Z" style="fill:#000;fill-rule:nonzero;"/><path d="M766.161,182.251l-0.0186438,0l-2.21642,5.4736l-2.20984,-5.4736l-0.0175471,0l-1.08902,5.26304l-0.387133,0l1.36648,-6.5703l2.33596,5.78507l2.34473,-5.78507l1.36648,6.5703l-0.38823,0l-1.08682,-5.26304Z" style="fill:#000;fill-rule:nonzero;"/><path d="M768.532,184.334c0,1.56937 1.30616,2.88431 2.89418,2.88431c1.57595,0 2.89198,-1.32481 2.89198,-2.88431c0,-1.56827 -1.31603,-2.88431 -2.89198,-2.88431c-1.58692,0.0010967 -2.89418,1.31603 -2.89418,2.88431M774.723,184.334c0,1.78761 -1.51015,3.26486 -3.29776,3.26486c-1.78871,0 -3.29886,-1.47615 -3.29886,-3.26486c0,-1.78871 1.50138,-3.26376 3.29886,-3.26376c1.78761,0 3.29776,1.47615 3.29776,3.26376" style="fill:#000;fill-rule:nonzero;"/><path d="M776.247,187.135l0.970575,0c0.445258,0 0.910257,0.0175471 1.29739,-0.244563c0.389327,-0.261013 0.625116,-0.658017 0.625116,-1.1296c0,-0.463902 -0.228113,-0.927804 -0.659114,-1.13837c-0.387133,-0.194115 -0.920127,-0.202889 -1.34126,-0.202889l-0.89271,0l0,2.71542ZM776.247,184.039l0.700788,0c0.428808,0 0.775363,0.025224 1.13837,-0.235789c0.361909,-0.261013 0.471579,-0.582345 0.471579,-1.02102c0,-0.413454 -0.159021,-0.818135 -0.523124,-1.04625c-0.320235,-0.202889 -0.716142,-0.202889 -1.08682,-0.202889l-0.700788,0l0,2.50595ZM775.842,187.514l0,-6.35973l1.27326,0c0.479256,0 0.936578,0.0339975 1.31494,0.37178c0.389327,0.337782 0.531897,0.809361 0.531897,1.31494c0,0.582345 -0.228113,1.01225 -0.734786,1.29958c0.784137,0.160117 1.31603,0.792911 1.31603,1.60227c0,0.51435 -0.195212,0.979349 -0.590022,1.31603c-0.447452,0.379456 -0.920127,0.455128 -1.48602,0.455128l-1.6253,0Z" style="fill:#000;fill-rule:nonzero;"/><rect x="780.692" y="181.154" width="0.40468" height="6.35973" style="fill:#000;fill-rule:nonzero;"/><path d="M782.972,187.135l1.61982,0l0,0.379456l-2.0245,0l0,-6.35973l0.40468,0l0,5.98028Z" style="fill:#000;fill-rule:nonzero;"/><path d="M785.809,181.534l0,2.31074l2.56407,0l0,0.379456l-2.56407,0l0,2.90953l2.62987,0l0,0.379456l-3.03565,0l0,-6.35973l3.03565,0l0,0.379456l-2.62987,0l0,0.0010967Z" style="fill:#000;fill-rule:nonzero;"/><rect x="719.505" y="138.658" width="81.1719" height="6.58017" style="fill:#58595b;fill-rule:nonzero;"/><rect x="719.505" y="144.406" width="81.1719" height="4.12248" style="fill:#64a2c8;fill-rule:nonzero;"/><path d="M757.826,166.809l-3.44253,3.03456c-0.101993,0.0910257 -0.261013,0.0822521 -0.352039,-0.0230306l-3.16068,-3.5829c-0.0921224,-0.105283 -0.0822521,-0.2654 0.0230306,-0.357523l3.43924,-3.03456c0.104186,-0.0910257 0.263207,-0.0800587 0.355329,0.0230306l3.16068,3.584c0.0910257,0.105283 0.0811554,0.263207 -0.0230306,0.356426M767.656,157.897c-0.0296108,-0.917934 -0.735882,-0.622923 -0.974962,-0.547251c0.955221,-0.594409 1.77994,-2.33815 1.56389,-3.09268c-0.167794,-0.587829 -0.556024,-0.387133 -1.0298,0.0712852c1.38184,-3.12229 -0.664597,-4.79694 -0.664597,-4.79475c-0.348749,-0.231403 -0.603182,0.0800587 -0.597699,0.542864c0.0712852,3.75618 -2.67265,5.92544 -5.67211,7.72622c-2.25261,1.45641 -3.05101,3.90533 -3.32737,5.65675c-0.0679951,0.214952 -0.231403,0.11296 -0.307075,0.0471579l-1.73387,-1.96637c-0.189728,-0.213856 -0.456225,-0.320235 -0.719432,-0.310365c-0.207275,0.00767687 -0.411261,0.0822521 -0.576862,0.229209l-0.0767687,0.0679951l-0.0010967,-0.0010967l-0.00329009,0.0010967l-0.416744,-0.474869c-0.125023,-0.140377 -0.295011,-0.213856 -0.457322,-0.216049c-0.127217,-0.0010967 -0.250046,0.0416744 -0.348749,0.127217l-0.232499,0.205082c-0.227016,0.200695 -0.235789,0.565895 -0.0164504,0.815941l0.421131,0.474869l-2.85141,2.51363c-0.38165,0.335589 -0.416744,0.914644 -0.0811554,1.2952l9.87355,11.194c0.187535,0.212759 0.452935,0.318042 0.717239,0.310365c0.207275,-0.00548348 0.410164,-0.0811554 0.577958,-0.228113l3.9832,-3.51491c0.380553,-0.334492 0.413454,-0.913547 0.0811554,-1.2941l-3.34053,-3.78908c-0.00219339,-0.00329009 -0.00438678,-0.00548348 -0.00438678,-0.00548348c-0.121733,-0.198502 0.220436,-0.160117 0.220436,-0.160117l0,-0.00329009c0.540671,0.0175471 0.942061,-0.107476 1.2272,-0.298301c0.433195,-0.289527 -0.0603182,-0.50448 -0.137087,-0.717239c0.668984,0.321332 1.97844,0.0482546 2.30635,-0.372876c0.253337,-0.329009 -0.184245,-0.466095 -0.603182,-0.560411c1.05612,-0.491319 1.90167,-0.982639 2.3546,-2.14952c0.266497,-0.685434 -0.466095,-0.705175 -1.19101,-0.428808c0.594409,-0.594409 1.19101,-1.40706 1.48712,-2.44453c0.336685,-1.17675 -0.105283,-1.77007 -1.05063,-0.976059c0.862002,-0.846649 1.63627,-1.96637 1.60227,-2.93256" style="fill:#58595b;fill-rule:nonzero;"/><rect x="744.978" y="140.12" width="8.77356" height="4.38678" style="fill:#64a2c8;fill-rule:nonzero;"/><rect x="754.849" y="140.12" width="8.77356" height="4.38678" style="fill:#cc8c21;fill-rule:nonzero;"/><rect x="764.719" y="140.12" width="6.58017" height="4.38678" style="fill:#78b1b1;fill-rule:nonzero;"/><path d="M219.983,97.026c0,8.36998 -6.76003,15.1903 -15.1717,15.1903c-8.4281,0 -15.1903,-6.82035 -15.1903,-15.1903c0,-8.40946 6.76222,-15.2331 15.1903,-15.2331c8.41165,0 15.1717,6.82364 15.1717,15.2331" style="fill:#64a2c8;fill-rule:nonzero;"/><path d="M240.085,175.176c0,0 -8.00258,-38.7605 -11.784,-46.5448l0,-0.0592215c-3.79676,-7.76899 -7.59681,-12.4453 -21.9964,-12.4453l-2.97862,0c-14.3985,0 -18.1975,4.67631 -21.9942,12.4453l0,0.0592215c-3.79676,7.78434 -11.8004,46.5448 -11.8004,46.5448c-0.599892,2.61342 1.00677,5.22795 3.67832,5.81139c0.353136,0.11625 0.701885,0.177665 1.05392,0.177665c2.26139,0 4.23544,-1.53318 4.75856,-3.7825l10.7937,-38.369l-10.5151,64.1029l10.1488,0l3.14093,57.2212c0,1.9565 1.60775,3.60703 3.56426,3.60703c2.07385,0 3.73973,-1.65053 3.73973,-3.60703l3.08171,-57.2212l3.68161,0l3.08171,57.2212c0,1.9565 1.64833,3.60703 3.72328,3.60703c1.9565,0 3.56426,-1.65053 3.56426,-3.60703l3.13655,-57.2212l10.1532,0l-10.502,-64.1029l10.7926,38.369c0.52751,2.24932 2.54104,3.7825 4.74759,3.7825c0.350942,0 0.699691,-0.0614149 1.12411,-0.177665c2.60026,-0.583442 4.20692,-3.19796 3.60593,-5.81139" style="fill:#64a2c8;fill-rule:nonzero;"/><rect x="202.017" y="136.175" width="5.39574" height="5.39574" style="fill:#fff;stroke-width:0.5px;stroke:#fff;"/><rect x="202.017" y="125.422" width="5.39574" height="5.39574" style="fill:#fff;stroke-width:0.5px;stroke:#fff;"/><rect x="207.399" y="130.791" width="5.39574" height="5.39574" style="fill:#fff;stroke-width:0.5px;stroke:#fff;"/><rect x="202.017" y="130.791" width="5.39574" height="5.39574" style="fill:#fff;stroke-width:0.5px;stroke:#fff;"/><rect x="196.606" y="130.791" width="5.39574" height="5.39574" style="fill:#fff;stroke-width:0.5px;stroke:#fff;"/><path d="M886.042,306.861c0,8.37107 -6.76003,15.1914 -15.1717,15.1914c-8.427,0 -15.1892,-6.82035 -15.1892,-15.1914c0,-8.40946 6.76222,-15.232 15.1892,-15.232c8.41165,0 15.1717,6.82254 15.1717,15.232" style="fill:#64a2c8;fill-rule:nonzero;"/><path d="M906.144,385.011c0,0 -8.00258,-38.7594 -11.7851,-46.5448l0,-0.0581248c-3.79566,-7.76899 -7.59571,-12.4453 -21.9964,-12.4453l-2.97753,0c-14.3996,0 -18.1975,4.67631 -21.9953,12.4453l0,0.0581248c-3.79566,7.78544 -11.8004,46.5448 -11.8004,46.5448c-0.599892,2.61342 1.00677,5.22904 3.67941,5.81139c0.352039,0.117346 0.700788,0.177665 1.05392,0.177665c2.26029,0 4.23544,-1.53318 4.75746,-3.7825l10.7937,-38.3679l-10.5151,64.1018l10.1488,0l3.14203,57.2223c0,1.9565 1.60666,3.60703 3.56426,3.60703c2.07385,0 3.73863,-1.65053 3.73863,-3.60703l3.08171,-57.2223l3.6827,0l3.08171,57.2223c0,1.9565 1.64724,3.60703 3.72328,3.60703c1.95541,0 3.56426,-1.65053 3.56426,-3.60703l3.13545,-57.2223l10.1532,0l-10.502,-64.1018l10.7926,38.3679c0.52751,2.24932 2.54104,3.7825 4.74869,3.7825c0.349846,0 0.698595,-0.0603182 1.12302,-0.177665c2.60026,-0.582345 4.20692,-3.19796 3.60703,-5.81139" style="fill:#64a2c8;fill-rule:nonzero;"/><rect x="868.075" y="346.01" width="5.39574" height="5.39574" style="fill:#fff;stroke-width:0.5px;stroke:#fff;"/><rect x="868.075" y="335.257" width="5.39574" height="5.39574" style="fill:#fff;stroke-width:0.5px;stroke:#fff;"/><rect x="873.458" y="340.627" width="5.39574" height="5.39574" style="fill:#fff;stroke-width:0.5px;stroke:#fff;"/><rect x="868.075" y="340.627" width="5.39574" height="5.39574" style="fill:#fff;stroke-width:0.5px;stroke:#fff;"/><rect x="862.665" y="340.627" width="5.39574" height="5.39574" style="fill:#fff;stroke-width:0.5px;stroke:#fff;"/><path d="M187.867,358.904c0,-8.25263 6.61088,-14.9436 14.7692,-14.9436c8.15612,0 14.767,6.69094 14.767,14.9436c0,8.25263 -6.61088,14.9436 -14.767,14.9436c-8.15831,0 -14.7692,-6.69094 -14.7692,-14.9436" style="fill:#64a2c8;"/><path d="M232.07,396.021c-2.3908,-10.9735 -11.8728,-19.236 -20.9907,-19.236l-7.65164,0.0866389l-7.48604,0.0339975c-9.11792,0 -18.601,8.12103 -20.9896,19.0946l-8.15502,44.0663c0,10.967 12.9816,10.967 12.9816,0l7.77557,-40.3441l-0.466095,33.4832l-5.15885,85.1167c0,4.62257 2.61233,8.35353 7.18006,8.35353c4.5809,0 7.75912,-2.67484 7.75912,-7.29631l4.87481,-69.4427l3.53465,0l4.87481,69.4625c0,4.62257 3.3855,7.7975 7.9631,7.7975c4.56883,0 6.97388,-4.03035 6.97388,-8.65512l-5.15666,-85.1068l-0.466095,-33.6784l7.77447,40.3101c0,10.967 12.9816,10.967 12.9816,0l-8.15283,-44.0455Z" style="fill:#64a2c8;"/><rect x="200.554" y="398.38" width="5.39574" height="5.39574" style="fill:#fff;stroke-width:0.5px;stroke:#fff;"/><rect x="200.554" y="387.627" width="5.39574" height="5.39574" style="fill:#fff;stroke-width:0.5px;stroke:#fff;"/><rect x="205.937" y="392.996" width="5.39574" height="5.39574" style="fill:#fff;stroke-width:0.5px;stroke:#fff;"/><rect x="200.554" y="392.996" width="5.39574" height="5.39574" style="fill:#fff;stroke-width:0.5px;stroke:#fff;"/><rect x="195.144" y="392.996" width="5.39574" height="5.39574" style="fill:#fff;stroke-width:0.5px;stroke:#fff;"/><path d="M451.622,333.848c2.56517,9.19579 -8.97864,14.2143 -11.7237,5.26085l-6.94756,-21.8791l-5.97699,-12.6043l-3.44362,0l20.0147,67.9951l-23.0635,0l0,46.3036c0,4.85836 -0.917934,7.81395 -5.06125,7.7986c-4.48548,0.014257 -4.80243,-2.74393 -4.80243,-7.64725l-0.295011,-46.456l-5.69733,0l-0.188632,46.456c0,4.90332 -0.437581,7.47617 -4.514,7.46082c-3.76715,0.0153537 -4.66534,-2.7549 -4.66534,-7.61326l0,-46.3025l-22.7685,0l20.0136,-67.9951l-3.44472,0l-5.97479,12.9772l-6.94756,21.1267c-2.74832,8.95561 -14.2899,5.79823 -11.7259,-3.39646l12.8291,-41.1162c1.58582,-4.80572 7.28315,-10.4296 17.7292,-10.4296l26.097,0c10.4438,0 16.1412,5.5745 17.7292,10.3791l12.828,39.6817ZM421.093,263.677c0,7.42792 -5.94189,13.4444 -13.2821,13.4444c-7.33908,0 -13.27,-6.01647 -13.27,-13.4444c0,-7.4334 5.92983,-13.4499 13.27,-13.4499c7.34018,-0.00219339 13.2821,6.01647 13.2821,13.4499M407.832,246.108c6.93331,0 13.0792,3.14422 17.0251,8.05194l8.99619,-16.6796c-6.68107,-7.06491 -19.0375,-11.2872 -26.3744,-11.2872c-7.63848,0 -17.9661,4.19157 -25.6934,11.6535l9.17714,16.1532c3.93604,-4.80791 10.0216,-7.89182 16.8694,-7.89182" style="fill:#89ac96;fill-rule:nonzero;"/><rect x="405.47" y="238.66" width="4.62805" height="4.62805" style="fill:#fff;stroke-width:0.43px;stroke:#fff;"/><rect x="405.47" y="229.436" width="4.62805" height="4.62915" style="fill:#fff;stroke-width:0.43px;stroke:#fff;"/><rect x="410.087" y="234.042" width="4.62805" height="4.62805" style="fill:#fff;stroke-width:0.43px;stroke:#fff;"/><rect x="405.47" y="234.042" width="4.62805" height="4.62805" style="fill:#fff;stroke-width:0.43px;stroke:#fff;"/><rect x="400.828" y="234.042" width="4.62915" height="4.62805" style="fill:#fff;stroke-width:0.43px;stroke:#fff;"/></g></g></svg>