<?xml version="1.0" standalone="no"?><!DOCTYPE svg PUBLIC "-//W3C//DTD SVG 1.1//EN" "http://www.w3.org/Graphics/SVG/1.1/DTD/svg11.dtd"><svg width="100%" height="100%" viewBox="0 0 980 490" version="1.1" xmlns="http://www.w3.org/2000/svg" xmlns:xlink="http://www.w3.org/1999/xlink" xml:space="preserve" style="fill-rule:evenodd;clip-rule:evenodd;stroke-miterlimit:10;"><g id="immunization"><g id="Layer 1"><path d="M437.084,204.55c0,0 1.31258,-1.413 3.81402,-3.78532" style="fill:none;stroke-width:2px;stroke:#b3b3b3;"/><path d="M448.907,193.634c17.8543,-14.9996 54.6138,-40.5071 101.133,-43.7509c37.5789,-2.61978 73.4471,9.55207 94.5704,18.7545" style="fill:none;stroke-width:2px;stroke-dasharray:5.99,5.99;stroke:#b3b3b3;"/><path d="M649.522,170.839c1.75907,0.814087 3.38725,1.58872 4.85045,2.30957" style="fill:none;stroke-width:2px;stroke:#b3b3b3;"/><path d="M663.945,178.187c-5.39377,-0.676015 -12.4857,-0.735189 -17.5316,0.485942l6.67229,-6.13972l1.20499,-8.98723c1.89535,4.8379 6.00882,10.6154 9.65428,14.641" style="fill:#b3b3b3;fill-rule:nonzero;"/><path d="M674.885,376.185c0,0 -1.5421,1.15658 -4.43086,3.03579" style="fill:none;stroke-width:2px;stroke:#b3b3b3;"/><path d="M661.293,384.802c-20.2589,11.5443 -60.9991,30.0351 -107.345,24.8655c-37.4372,-4.17444 -70.5387,-22.5936 -89.6625,-35.4397" style="fill:none;stroke-width:2px;stroke-dasharray:5.99,5.99;stroke:#b3b3b3;"/><path d="M459.85,371.177c-1.58872,-1.11713 -3.04476,-2.1715 -4.36092,-3.14159" style="fill:none;stroke-width:2px;stroke:#b3b3b3;"/><path d="M446.98,361.358c5.18039,1.63355 12.145,2.96586 17.3343,2.67178l-7.66748,4.83969l-2.7991,8.62681c-0.996988,-5.10329 -4.00588,-11.5227 -6.86774,-16.1383" style="fill:#b3b3b3;fill-rule:nonzero;"/><path d="M246.449,339.067c4.96342,0 9.01054,-4.03457 9.01054,-8.9962c0.00358629,-4.95087 -4.04892,-8.98544 -9.01054,-8.98544c-4.96521,0 -9.00158,4.03457 -9.00158,8.98544c0,4.96163 4.03636,8.9962 9.00158,8.9962" style="fill:#cc8c21;fill-rule:nonzero;"/><path d="M255.114,340.823l-16.7731,0c-4.44341,0 -8.04583,3.9234 -8.04583,8.37039l-0.0215177,25.6993l7.36085,0l1.79314,32.2766l16.1383,0l1.79314,-32.2766l5.8044,0l-0.0161383,-25.6993c0.00179314,-4.44699 -3.59167,-8.37039 -8.03328,-8.37039" style="fill:#cc8c21;fill-rule:nonzero;"/><path d="M207,328.308c4.96342,0 9.01054,-4.03457 9.01054,-8.9962c0.00358629,-4.95087 -4.04892,-8.98544 -9.01054,-8.98544c-4.96521,0 -9.00158,4.03457 -9.00158,8.98544c0,4.96163 4.03636,8.9962 9.00158,8.9962" style="fill:#cc8c21;fill-rule:nonzero;"/><path d="M215.665,330.064l-16.7731,0c-4.44341,0 -8.04583,3.9234 -8.04583,8.37039l-0.0215177,25.6993l7.36085,0l1.79314,32.2766l16.1383,0l1.79314,-32.2766l5.8044,0l-0.0161383,-25.6993c0.00179314,-4.44699 -3.59167,-8.37039 -8.03328,-8.37039" style="fill:#cc8c21;fill-rule:nonzero;"/><path d="M40.2564,136.752c2.84034,0 5.15887,-2.31136 5.15887,-5.14811c0.00179314,-2.83855 -2.31853,-5.14811 -5.15887,-5.14811c-2.84572,0 -5.15708,2.30957 -5.15708,5.14811c0,2.83675 2.31136,5.14811 5.15708,5.14811" style="fill:#cc8c21;fill-rule:nonzero;"/><path d="M45.2137,138.201l-9.60407,0c-2.54447,0 -4.60838,2.3526 -4.60838,4.90066l-0.0143451,14.8239l4.02202,0l0,17.9314l10.7589,0l0,-17.9314l4.05968,0l-0.00717257,-14.8239c0,-2.54806 -2.06391,-4.90066 -4.60658,-4.90066" style="fill:#cc8c21;fill-rule:nonzero;"/><path d="M11.5853,149.115c3.55042,0 6.44994,-2.88875 6.44994,-6.43738c0.00179314,-3.54863 -2.89772,-6.4338 -6.44994,-6.4338c-3.5558,0 -6.44635,2.88517 -6.44635,6.4338c0,3.54863 2.88875,6.43738 6.44635,6.43738" style="fill:#cc8c21;fill-rule:nonzero;"/><path d="M17.7844,150.753l-12.0051,0c-3.18104,0 -5.76137,2.27012 -5.76137,5.45295l-0.0179314,17.8579l4.52589,0l0,23.3109l14.3451,0l0,-23.3109l4.67652,0l-0.00896572,-17.8579c0.00179314,-3.18283 -2.57675,-5.45295 -5.7542,-5.45295" style="fill:#cc8c21;fill-rule:nonzero;"/><path d="M81.1634,259.48c10.1922,0 18.5088,-8.29329 18.5088,-18.4748c0.00358629,-10.1851 -8.31839,-18.4694 -18.5088,-18.4694c-10.2084,0 -18.5016,8.28432 -18.5016,18.4694c0,10.1815 8.29329,18.4748 18.5016,18.4748" style="fill:#cc8c21;fill-rule:nonzero;"/><path d="M98.9548,263.721l-34.4588,0c-9.13068,0 -16.5346,7.13492 -16.5346,16.2674l-0.0520011,51.8649l12.2041,0l3.58629,69.9326l34.0697,0l3.58629,-69.9326l14.1443,0l-0.0286903,-51.8649c0,-9.13427 -7.39671,-16.2674 -16.5166,-16.2674" style="fill:#cc8c21;fill-rule:nonzero;"/><path d="M264.716,114.883c-4.01126,0.928848 -15.5806,3.15772 -27.2683,4.10092c-1.00057,-6.32979 -3.41056,-11.0296 -6.55932,-13.0093c0.435734,-0.00896572 0.866088,-0.0304834 1.30361,-0.037656c0.66167,-0.0179314 1.31796,-0.037656 1.97963,-0.06276c1.13506,-0.0394491 2.26295,-0.0950366 3.39083,-0.152417c0.613255,-0.037656 1.23189,-0.0645531 1.83797,-0.104002c1.30361,-0.0860709 2.59109,-0.186487 3.86602,-0.299455c0.396285,-0.0340697 0.796156,-0.0645531 1.18706,-0.0986229c1.65328,-0.156003 3.27787,-0.335318 4.87197,-0.537943c0.412423,-0.0537943 0.810501,-0.112968 1.21575,-0.168555c1.18527,-0.161383 2.34722,-0.324559 3.48228,-0.509253c0.543322,-0.0896572 1.07051,-0.182901 1.59948,-0.272558c0.988022,-0.168555 1.95453,-0.34787 2.90668,-0.53615c0.532563,-0.107589 1.06513,-0.215177 1.58693,-0.324559c0.948573,-0.204418 1.85949,-0.412423 2.75965,-0.634773c0.462631,-0.111175 0.921676,-0.218763 1.37355,-0.337111c0.150624,-0.0412423 0.319179,-0.0735189 0.46801,-0.114761c0.0663463,7.73921 0.0412423,11.3883 -0.00179314,13.0989M217.433,118.984c-6.97353,-0.532563 -13.8036,-1.49189 -19.0342,-2.40102c-1.85232,-0.995194 -3.76201,-2.01729 -5.74344,-3.07165c-0.338904,-0.186487 -0.702912,-0.319179 -1.07589,-0.41063c-0.136279,-0.0340697 -0.265385,-0.0681394 -0.392698,-0.0968297c-0.310214,-0.331731 -0.683187,-0.59891 -1.08306,-0.828432c-0.0448286,-2.09439 -0.0448286,-5.32026 0.075312,-10.3751c0.175728,0.0484149 0.362215,0.087864 0.537943,0.132693c0.419595,0.109382 0.858916,0.208005 1.28568,0.312007c0.934228,0.225936 1.88459,0.442906 2.86544,0.652704c0.485942,0.102209 0.980849,0.204418 1.48114,0.304834c0.991608,0.193659 2.00115,0.380146 3.03041,0.559461c0.491321,0.0842777 0.979056,0.170349 1.48472,0.25104c1.19603,0.190073 2.41716,0.369387 3.65443,0.53077c0.349663,0.0484149 0.693946,0.100416 1.0472,0.145245c1.60128,0.200832 3.23662,0.378353 4.89528,0.537943c0.380146,0.0322766 0.772845,0.0609669 1.15299,0.0932434c1.2821,0.111175 2.57495,0.215177 3.88215,0.301248c0.609669,0.037656 1.22651,0.0663463 1.84335,0.105795c1.10278,0.0537943 2.21632,0.109382 3.34063,0.148831c0.670635,0.0268971 1.34844,0.0484149 2.02267,0.06276c0.424975,0.00896572 0.846364,0.0304834 1.27313,0.037656c-3.14517,1.98322 -5.54798,6.67766 -6.54318,13.0075M212.134,172.932c2.21274,-0.416009 4.3681,-0.860709 6.47504,-1.32872c0.213384,-0.0484149 0.433941,-0.0932434 0.645531,-0.139865c2.06032,-0.462631 4.06147,-0.957538 5.99986,-1.46858c0.116554,-0.0304834 0.242074,-0.0537943 0.358629,-0.087864c0.118347,14.1891 0.06276,20.8184 -0.0143451,23.9116c-7.34471,1.68735 -28.459,5.76137 -49.7669,7.48099c-1.82183,-11.555 -6.23476,-20.128 -11.98,-23.7394c0.0932434,-0.00358629 0.184694,0.172142 0.281523,0.172142c2.75247,-0.0555874 5.49778,-0.0806914 8.2126,-0.0806914l0.0788983,0c2.67178,0 5.32026,-0.446493 7.94542,-0.629393c0.286903,-0.0143451 0.575599,-0.123727 0.860709,-0.148831c2.61261,-0.179314 5.18936,-0.433941 7.72845,-0.681394c0.0717257,-0.00358629 0.141658,-0.0340697 0.208005,-0.0430354c2.54268,-0.245661 5.05487,-0.53077 7.52223,-0.833812c0.148831,-0.0161383 0.297662,-0.0412423 0.444699,-0.0609669c2.41357,-0.295869 4.78231,-0.632979 7.1134,-0.982642c0.308421,-0.050208 0.611462,-0.0986229 0.919882,-0.148831c2.33109,-0.362215 4.62452,-0.749534 6.8516,-1.16913c0.037656,-0.00896572 0.0771051,-0.012552 0.114761,-0.0215177M139.302,201.314c-22.5201,-1.71783 -43.3116,-5.75599 -49.6557,-7.46485c-0.209798,-2.57316 -0.432147,-8.84199 -0.0663463,-23.8954c0.184694,0.0466217 0.387319,0.087864 0.572013,0.136279c1.83439,0.482355 3.71898,0.9414 5.66275,1.38251c0.337111,0.075312 0.683187,0.148831 1.02388,0.22235c1.89356,0.414216 3.82836,0.812294 5.80799,1.18347c0.224143,0.0466217 0.441113,0.087864 0.667049,0.130899c2.13025,0.394491 4.3161,0.762086 6.5378,1.10458c0.412423,0.06276 0.823053,0.129106 1.23368,0.18828c2.2486,0.344283 4.53486,0.66167 6.86415,0.948573c0.234902,0.0358629 0.471597,0.0537943 0.704705,0.0842777c2.34184,0.283317 4.72135,0.548702 7.13133,0.78181c0.164969,0.0143451 0.324559,0.0322766 0.485942,0.0484149c2.49426,0.242074 5.02977,0.444699 7.58499,0.622221c0.315593,0.0268971 0.634773,0.0466217 0.952159,0.0663463c2.60544,0.175728 5.23239,0.328145 7.88266,0.444699c0.0286903,0.00358629 0.0520011,0.00358629 0.0806914,0.00358629c2.74172,0.120141 5.50495,0.204418 8.28611,0.252833c0.06276,0 0.129106,0.00358629 0.195453,0.00537943c-5.74523,3.61139 -10.1366,12.1862 -11.9513,23.7538M94.8035,119.098c-0.996988,-6.32979 -3.40876,-11.026 -6.55752,-13.011c0.491321,-0.0107589 0.977263,-0.0322766 1.46679,-0.0466217c0.545115,-0.0107589 1.08485,-0.0304834 1.62997,-0.050208c1.28927,-0.0430354 2.56599,-0.104002 3.83374,-0.172142c0.484149,-0.0322766 0.966504,-0.0537943 1.44886,-0.0806914c1.52238,-0.0986229 3.02683,-0.213384 4.51155,-0.351456c0.193659,-0.0197246 0.392698,-0.0322766 0.582771,-0.0466217c1.71962,-0.164969 3.40339,-0.34787 5.05666,-0.557667c0.260006,-0.037656 0.503873,-0.0717257 0.756706,-0.105795c1.34486,-0.177521 2.66461,-0.367594 3.95747,-0.573806c0.450079,-0.0735189 0.889399,-0.15421 1.3341,-0.225936c1.08485,-0.186487 2.14819,-0.385526 3.18642,-0.591737c0.464424,-0.0968297 0.921676,-0.186487 1.37355,-0.283317c1.03644,-0.220557 2.0406,-0.451872 3.02683,-0.695739c0.37656,-0.0914503 0.767465,-0.179314 1.13506,-0.276144c0.175728,-0.0484149 0.362215,-0.0860709 0.532563,-0.132693c0.0555874,6.18634 0.0466217,9.72421 0.0197246,11.7792c-1.33589,0.711878 -2.68613,1.43272 -4.0543,2.16612c-5.48164,1.06513 -14.3254,2.5355 -23.2409,3.25635M74.783,119.098c-12.344,-0.944986 -23.7376,-3.15235 -27.2145,-4.08478c-0.114761,-1.40941 -0.234902,-4.85045 -0.037656,-13.0971c0.182901,0.0448286 0.381939,0.087864 0.56484,0.136279c0.387319,0.102209 0.792569,0.191866 1.18885,0.290489c0.97009,0.236695 1.95811,0.464424 2.9802,0.679601c0.455458,0.0968297 0.914503,0.18828 1.37893,0.281523c1.03823,0.206211 2.09977,0.401664 3.18104,0.584565c0.444699,0.0788983 0.882226,0.15421 1.3341,0.225936c1.29106,0.206211 2.60902,0.399871 3.95029,0.573806c0.256419,0.0322766 0.498494,0.0699326 0.75312,0.104002c1.64252,0.206211 3.31731,0.390905 5.02259,0.548702c0.238488,0.0233109 0.480562,0.037656 0.713671,0.0591737c1.43631,0.129106 2.88517,0.238488 4.36092,0.337111c0.50208,0.0286903 1.00595,0.0573806 1.51341,0.0860709c1.23368,0.0663463 2.47454,0.121934 3.72615,0.166762c0.563047,0.0233109 1.12968,0.0412423 1.69811,0.0537943c0.480562,0.012552 0.950366,0.0358629 1.43272,0.0448286c-3.14876,1.98142 -5.55336,6.67587 -6.54677,13.0093M232.255,63.0645l0,-0.220557c0,-4.4452 -1.88459,-7.31602 -4.48106,-7.31602c-2.59647,0 -4.48465,2.86903 -4.48465,7.31602l0,0.218763c-48.4149,24.2289 -47.8554,28.0394 -47.8554,29.6747c0,1.05078 -0.0304834,4.12961 9.76725,7.53658c-0.107589,3.96823 -0.163176,6.93767 -0.163176,9.19344c-8.69316,-4.57072 -15.9626,-8.29867 -19.7048,-10.2066c0.00358629,-0.136279 -0.00179314,-0.272558 -0.00179314,-0.407043c0,-8.11218 -3.03938,-13.3517 -7.77327,-13.3517c-4.74466,0 -7.78941,5.23956 -7.78941,13.3517l0,0.407043c-3.58629,2.11053 -12.5879,6.44097 -22.5577,11.7074c0.00358629,-2.52475 -0.0322766,-5.92275 -0.0824846,-10.6154c9.69552,-3.39083 9.58973,-6.45711 9.58973,-7.5043c0,-1.63535 0.498494,-5.44936 -47.9164,-29.6765l0,-0.21697c0,-4.4452 -1.55824,-7.31782 -4.15292,-7.31782c-2.59647,0 -4.21747,2.87441 -4.21747,7.31782c0,0.0717257 0.0304834,0.145245 0.0322766,0.21697c-47.7873,24.2272 -47.7765,28.0412 -47.7765,29.6765c0,1.0472 0.0197246,4.12782 9.81208,7.53658c-0.462631,17.0564 0.15421,17.5925 1.33948,18.507c1.92942,1.50086 19.3193,4.54562 32.9956,5.39019l2.44764,0.15421l0.227729,-2.42792c0.00358629,-0.037656 0.0107589,-0.0717257 0.0161383,-0.107589c0.306627,0.012552 0.615048,0.0340697 0.919882,0.0430354l-0.0107589,2.51757c1.53134,0.0573806 3.05193,-0.00537943 4.54203,-0.00537943c3.07524,0 6.63104,-0.602496 10.3411,-0.602496l0.0340697,0c3.09138,0 6.28317,-0.500287 9.39607,-0.892985c-42.2106,23.2893 -42.2196,26.9258 -42.2196,30.392c0,1.91687 0.0215177,7.5563 17.8866,13.7749c-0.853536,31.2222 0.272558,32.1116 2.42971,33.7792c3.52532,2.75247 35.2604,8.32556 60.2137,9.86767l4.46851,0.27973l0.412423,-4.43444c0.00537943,-0.0663463 0.0143451,-0.123727 0.0233109,-0.197246c0.489528,0.0268971 0.984436,0.0609669 1.47576,0.0771051l-0.025104,4.59762c2.86903,0.109382 5.70937,0.172142 8.49591,0.172142c5.57488,0 11.9334,-0.337111 18.6684,-0.894778l0.0860709,-0.00537943l0,-0.0107589c25.104,-2.0908 53.9198,-7.2425 56.4589,-9.74215c1.73038,-1.71066 1.96887,-1.9097 1.64252,-33.5228c17.6929,-6.18814 17.7432,-11.7756 17.7432,-13.6871c0,-3.32628 -0.0215177,-7.06319 -41.5435,-29.9796c2.78116,0.303041 5.65378,0.561254 8.51743,0.738775l2.45123,0.156003l0.229522,-2.42792c0.00358629,-0.037656 0.012552,-0.0699326 0.0197246,-0.105795c0.301248,0.00896572 0.613255,0.0322766 0.914503,0.0412423l-0.0143451,2.52295c1.53314,0.0537943 3.05731,0.0986229 4.54562,0.0986229c3.07883,0 6.63642,-0.186487 10.3428,-0.494907l0.0322766,-0.00358629c13.7265,-1.14403 29.5259,-3.97719 30.8833,-5.3346c0.97009,-0.94678 1.06154,-1.09202 0.87864,-18.3797c9.7009,-3.39083 9.99498,-6.45711 9.99498,-7.50072c0.00179314,-1.63535 -0.88402,-5.44757 -47.5057,-29.6729" style="fill:#b88161;fill-rule:nonzero;"/><path d="M947.723,107.717l-19.7246,0l0,28.0824l-35.3697,-28.6975l-88.3571,72.4322l0,10.6674l175.728,0l0,-10.6674l-32.2766,-26.1637l0,-45.6534Z" style="fill:#576e60;fill-rule:nonzero;"/><path d="M915.447,224.271l0,14.3451l-16.1383,0l0,16.1383l-14.3451,0l0,-16.1383l-16.1383,0l0,-14.3451l16.1383,0l0,-16.1383l14.3451,0l0,16.1383l16.1383,0ZM820.41,197.374l0,111.173l59.1737,0l0,-39.4474l25.104,0l0,39.4474l60.9669,0l0,-111.173l-73.2571,0l-71.9875,0Z" style="fill:#576e60;fill-rule:nonzero;"/><path d="M157.8,256.53c8.01714,0 14.5083,-6.70456 14.5083,-14.9889c0,-8.28073 -6.49118,-15.0032 -14.5083,-15.0032c-8.01894,0 -14.5119,6.72249 -14.5119,15.0032c0,8.28432 6.49297,14.9889 14.5119,14.9889" style="fill:#cc8c21;fill-rule:nonzero;"/><path d="M159.147,299.83c-0.3138,0 -0.607875,-0.245661 -0.887606,-0.245661l-0.0179314,0c-1.08485,0 -2.06929,0.127313 -2.94075,0.0322766c-5.60537,-0.658083 -7.19947,-2.63054 -7.26223,-4.73569c-1.02209,0.444699 -2.13563,0.767465 -3.32449,0.767465c-4.5492,0 -8.22873,-3.71898 -8.22873,-8.33453c0,-4.63348 3.67953,-8.36681 8.22873,-8.36681c4.46851,0 8.14446,3.64187 8.26101,8.1588c1.42555,-1.01492 2.1715,-1.50624 3.96464,-1.70169l0,0.0358629c1.79314,-0.312007 2.91924,0 2.91924,0c5.48881,1.21754 17.6517,6.49297 17.6517,6.49297c0,0 -6.51628,7.95976 -18.3636,7.897M183.532,269.244c-0.72443,-2.18046 -4.83073,-8.80792 -15.9895,-8.87068l-21.853,0.0466217c-10.8324,-0.602496 -15.1503,5.80082 -15.8263,8.64474c0,0 -7.32858,23.3539 -6.0662,28.762c0.772845,3.36932 9.69373,7.29809 15.889,10.3518l-11.3524,45.1962l16.0576,0l0,52.0783c0,3.00531 2.37412,5.4386 5.37943,5.4386c3.00531,0 5.37943,-2.42971 5.37943,-5.4386l0,-52.0783l7.17257,0l0,52.0783c0,3.00531 2.37591,5.4386 5.37943,5.4386c2.99993,0 5.37943,-2.42971 5.37943,-5.4386l0,-52.0783l13.5436,0l-11.1265,-46.0856c5.53723,-2.92103 13.4898,-6.49656 14.1981,-9.55028c1.26596,-5.47805 -6.16483,-28.4948 -6.16483,-28.4948" style="fill:#cc8c21;fill-rule:nonzero;"/><path d="M91.5493,8.90439l0.408837,0c1.37713,0 2.92641,-0.258213 2.92641,-2.02087c0,-1.76266 -1.54928,-2.02087 -2.92641,-2.02087l-0.408837,0l0,4.04174ZM100.82,17.8504l-5.24853,0l-3.97898,-6.23655l-0.0430354,0l0,6.23655l-4.21568,0l0,-16.2154l6.3011,0c3.20435,0 5.63585,1.52776 5.63585,4.98852c0,2.23784 -1.24623,4.17264 -3.54863,4.58148l5.09791,6.64539Z" style="fill:#808080;fill-rule:nonzero;"/><path d="M105.688,6.81699l0,5.89406c0,1.39686 0.344283,2.38667 1.95811,2.38667c1.61383,0 1.95632,-0.989815 1.95632,-2.38667l0,-5.89406l3.91622,0l0,6.64539c0,3.6347 -2.56061,4.75362 -5.87075,4.75362c-3.31373,0 -5.87075,-1.11892 -5.87075,-4.75362l0,-6.64539l3.91084,0Z" style="fill:#808080;fill-rule:nonzero;"/><path d="M120.225,8.62412l0.0430354,0c0.751327,-1.35562 2.04239,-1.95632 3.56835,-1.95632l0.75312,0l0,3.76381c-0.537943,-0.301248 -1.05437,-0.365801 -1.65507,-0.365801c-2.17329,0 -2.71123,1.44169 -2.71123,3.33345l0,4.45058l-3.91443,0l0,-11.0332l3.91443,0l0.00179314,1.80749Z" style="fill:#808080;fill-rule:nonzero;"/><path d="M129.782,12.3453c0,1.39865 0.925262,2.47274 2.51578,2.47274c1.59052,0 2.51578,-1.07589 2.51578,-2.47274c0,-1.35382 -0.925262,-2.49426 -2.51578,-2.49426c-1.59052,0 -2.51578,1.14044 -2.51578,2.49426M138.601,17.8502l-3.91622,0l0,-1.22472l-0.0412423,0c-0.688567,1.0974 -2.04418,1.59231 -3.33345,1.59231c-3.26711,0 -5.5695,-2.73096 -5.5695,-5.89406c0,-3.16131 2.25936,-5.87075 5.52826,-5.87075c1.26775,0 2.60185,0.47339 3.41773,1.44169l0,-1.07589l3.91622,0l-0.00179314,11.0314Z" style="fill:#808080;fill-rule:nonzero;"/><rect x="141.481" y="-3.01788e-14" width="3.91443" height="17.8507" style="fill:#808080;fill-rule:nonzero;"/><path d="M161.639,12.474l2.62337,-5.65557l4.38603,0l-5.76316,11.0332l-2.49606,0l-5.78468,-11.0332l4.38603,0l2.64847,5.65557Z" style="fill:#808080;fill-rule:nonzero;"/><path d="M173.969,17.8507l-3.91443,0l0,-11.0332l3.91443,0l0,11.0332ZM174.206,2.58033c0,1.20499 -0.989815,2.19481 -2.19481,2.19481c-1.2032,0 -2.19301,-0.989815 -2.19301,-2.19481c0,-1.2032 0.989815,-2.19301 2.19301,-2.19301c1.20679,0.00179314 2.19481,0.989815 2.19481,2.19301" style="fill:#808080;fill-rule:nonzero;"/><rect x="176.811" y="-3.01788e-14" width="3.91443" height="17.8507" style="fill:#808080;fill-rule:nonzero;"/><rect x="183.562" y="-3.01788e-14" width="3.91443" height="17.8507" style="fill:#808080;fill-rule:nonzero;"/><path d="M193.676,12.3453c0,1.39865 0.925262,2.47274 2.51578,2.47274c1.59052,0 2.51578,-1.07589 2.51578,-2.47274c0,-1.35382 -0.925262,-2.49426 -2.51578,-2.49426c-1.59052,0 -2.51578,1.14044 -2.51578,2.49426M202.495,17.8502l-3.91622,0l0,-1.22472l-0.0412423,0c-0.688567,1.0974 -2.04418,1.59231 -3.33345,1.59231c-3.26711,0 -5.5695,-2.73096 -5.5695,-5.89406c0,-3.16131 2.25936,-5.87075 5.52826,-5.87075c1.26775,0 2.60185,0.47339 3.41773,1.44169l0,-1.07589l3.91622,0l-0.00179314,11.0314Z" style="fill:#808080;fill-rule:nonzero;"/><path d="M208.738,12.2595c0,1.39686 0.925262,2.47274 2.51578,2.47274c1.59052,0 2.51578,-1.07589 2.51578,-2.47274c0,-1.35562 -0.925262,-2.49606 -2.51578,-2.49606c-1.59052,0 -2.51578,1.14044 -2.51578,2.49606M217.555,16.7765c0,4.68728 -2.32212,6.58083 -6.38718,6.58083c-2.53909,0 -5.9371,-1.31079 -6.27959,-4.21568l4.38603,0c0.107589,0.387319 0.387319,0.667049 0.729809,0.839191c0.344283,0.172142 0.75312,0.258213 1.11892,0.258213c2.10874,0 2.51578,-1.37713 2.51578,-3.16131l0,-0.516425c-1.00954,1.01133 -2.04418,1.50624 -3.50559,1.50624c-3.22586,0 -5.4404,-2.45123 -5.4404,-5.63585c0,-3.22586 2.27908,-5.97834 5.65557,-5.97834c1.29106,0 2.47274,0.430354 3.24738,1.52776l0.0430354,0l0,-1.16375l3.91443,0l0.00179314,9.95912Z" style="fill:#808080;fill-rule:nonzero;"/><path d="M228.199,10.7334c-0.193659,-1.05437 -1.16196,-1.74294 -2.21453,-1.74294c-1.14044,0 -2.08722,0.602496 -2.32391,1.74294l4.53844,0ZM231.834,12.991l-8.2377,0c0,1.59052 0.839191,2.45123 2.45123,2.45123c0.839191,0 1.44169,-0.27973 1.87204,-1.00954l3.76381,0c-0.624014,2.60185 -3.09676,3.78532 -5.61254,3.78532c-3.65622,0 -6.38718,-2.06391 -6.38718,-5.87075c0,-3.67774 2.51578,-5.89227 6.10745,-5.89227c3.82836,0 6.04289,2.36516 6.04289,6.12896l0,0.407043Z" style="fill:#808080;fill-rule:nonzero;"/><path d="M385.456,82.4557l0.408837,0c1.37713,0 2.92641,-0.258213 2.92641,-2.02087c0,-1.76266 -1.54928,-2.02087 -2.92641,-2.02087l-0.408837,0l0,4.04174ZM394.723,91.4017l-5.24674,0l-3.97898,-6.23655l-0.0430354,0l0,6.23655l-4.21568,0l0,-16.2154l6.3011,0c3.20435,0 5.63585,1.52776 5.63585,4.98852c0,2.23784 -1.24623,4.17264 -3.54863,4.58148l5.09611,6.64539Z" style="fill:#000;fill-rule:nonzero;"/><path d="M403.512,84.2829c-0.193659,-1.05437 -1.16196,-1.74294 -2.21453,-1.74294c-1.14044,0 -2.08722,0.602496 -2.32391,1.74294l4.53844,0ZM407.146,86.5405l-8.2377,0c0,1.59052 0.839191,2.45123 2.45123,2.45123c0.839191,0 1.44169,-0.27973 1.87204,-1.00954l3.76381,0c-0.624014,2.60185 -3.09676,3.78532 -5.61254,3.78532c-3.65622,0 -6.38718,-2.06391 -6.38718,-5.87075c0,-3.67774 2.51578,-5.89227 6.10745,-5.89227c3.82836,0 6.04289,2.36516 6.04289,6.12896l0,0.407043Z" style="fill:#000;fill-rule:nonzero;"/><path d="M412.671,85.81c0,1.39686 0.925262,2.47274 2.51578,2.47274c1.59052,0 2.51578,-1.07589 2.51578,-2.47274c0,-1.35562 -0.925262,-2.49606 -2.51578,-2.49606c-1.59052,0 -2.51578,1.14044 -2.51578,2.49606M421.489,90.3251c0,4.68728 -2.32212,6.58083 -6.38718,6.58083c-2.53909,0 -5.9371,-1.31079 -6.27959,-4.21568l4.38603,0c0.107589,0.387319 0.387319,0.667049 0.729809,0.839191c0.344283,0.172142 0.75312,0.258213 1.11892,0.258213c2.10874,0 2.51578,-1.37713 2.51578,-3.16131l0,-0.516425c-1.00954,1.01133 -2.04418,1.50624 -3.50559,1.50624c-3.22586,0 -5.4404,-2.45123 -5.4404,-5.63585c0,-3.22586 2.27908,-5.97834 5.65557,-5.97834c1.29106,0 2.47274,0.430354 3.24738,1.52776l0.0430354,0l0,-1.16196l3.91443,0l0.00179314,9.95732Z" style="fill:#000;fill-rule:nonzero;"/><path d="M428.226,91.4019l-3.91443,0l0,-11.0332l3.91443,0l0,11.0332ZM428.463,76.1315c0,1.20499 -0.989815,2.19481 -2.19481,2.19481c-1.2032,0 -2.19301,-0.989815 -2.19301,-2.19481c0,-1.2032 0.989815,-2.19301 2.19301,-2.19301c1.20499,0 2.19481,0.989815 2.19481,2.19301" style="fill:#000;fill-rule:nonzero;"/><path d="M438.219,83.2087c-0.602496,-0.322766 -1.44169,-0.537943 -2.10694,-0.537943c-0.451872,0 -1.22651,0.193659 -1.22651,0.751327c0,0.75312 1.22651,0.860709 1.76266,0.968297c1.82901,0.365801 3.20435,1.22651 3.20435,3.2689c0,2.9031 -2.64668,4.10809 -5.2037,4.10809c-1.57079,0 -3.11828,-0.451872 -4.45237,-1.26955l1.42017,-2.73096c0.794362,0.559461 2.13025,1.11892 3.09676,1.11892c0.494907,0 1.22651,-0.236695 1.22651,-0.839191c0,-0.858916 -1.22651,-0.901951 -2.45123,-1.22651c-1.22651,-0.322766 -2.45123,-0.925262 -2.45123,-2.9031c0,-2.70944 2.45123,-3.91443 4.86121,-3.91443c1.24623,0 2.49426,0.193659 3.63291,0.710085l-1.31258,2.49606Z" style="fill:#000;fill-rule:nonzero;"/><path d="M446.486,91.4012l-3.91443,0l0,-7.80734l-1.26955,0l0,-3.22586l1.26955,0l0,-3.31194l3.91443,0l0,3.31194l2.21453,0l0,3.22586l-2.21453,0l0,7.80734Z" style="fill:#000;fill-rule:nonzero;"/><path d="M458.191,84.2829c-0.193659,-1.05437 -1.16196,-1.74294 -2.21453,-1.74294c-1.14044,0 -2.08722,0.602496 -2.32391,1.74294l4.53844,0ZM461.824,86.5405l-8.2377,0c0,1.59052 0.839191,2.45123 2.45123,2.45123c0.839191,0 1.44169,-0.27973 1.87204,-1.00954l3.76381,0c-0.624014,2.60185 -3.09676,3.78532 -5.61254,3.78532c-3.65622,0 -6.38718,-2.06391 -6.38718,-5.87075c0,-3.67774 2.51578,-5.89227 6.10745,-5.89227c3.82836,0 6.04289,2.36516 6.04289,6.12896l0,0.407043Z" style="fill:#000;fill-rule:nonzero;"/><path d="M467.942,82.1754l0.0430354,0c0.751327,-1.35562 2.04239,-1.95632 3.56835,-1.95632l0.75312,0l0,3.76381c-0.537943,-0.301248 -1.05437,-0.365801 -1.65686,-0.365801c-2.1715,0 -2.70944,1.44169 -2.70944,3.33345l0,4.45058l-3.91443,0l0,-11.0332l3.91443,0l0.00179314,1.80749Z" style="fill:#000;fill-rule:nonzero;"/><path d="M489.976,83.9598c-0.582771,-0.430354 -1.26955,-0.774638 -2.02267,-0.774638c-1.50445,0 -2.68792,1.16196 -2.68792,2.68792c0,1.59231 1.14044,2.70944 2.75247,2.70944c0.688567,0 1.44169,-0.27973 1.95991,-0.751327l0,3.31194c-0.858916,0.430354 -1.80928,0.624014 -2.75427,0.624014c-3.2689,0 -6.00165,-2.42971 -6.00165,-5.76316c0,-3.54863 2.71123,-5.99986 6.172,-5.99986c0.903744,0 1.80749,0.215177 2.58033,0.645531l0.00179314,3.31014Z" style="fill:#000;fill-rule:nonzero;"/><path d="M496.639,73.5502l0,8.21618l0.0430354,0c0.901951,-1.20499 1.99935,-1.76266 3.52891,-1.76266c2.79551,0 4.14933,1.84873 4.14933,4.64424l0,6.75298l-3.91802,0l0,-5.65557c0,-1.29106 -0.190073,-2.62337 -1.76087,-2.62337c-1.54748,0 -2.04598,1.3341 -2.04598,2.62337l0,5.65557l-3.91622,0l0,-17.8507l3.91981,0Z" style="fill:#000;fill-rule:nonzero;"/><path d="M511.087,91.4019l-3.91802,0l0,-11.0332l3.91802,0l0,11.0332ZM511.324,76.1315c0,1.20499 -0.988022,2.19481 -2.1966,2.19481c-1.2032,0 -2.19481,-0.989815 -2.19481,-2.19481c0,-1.2032 0.991608,-2.19301 2.19481,-2.19301c1.20858,0 2.1966,0.989815 2.1966,2.19301" style="fill:#000;fill-rule:nonzero;"/><rect x="513.927" y="73.5511" width="3.91443" height="17.8507" style="fill:#000;fill-rule:nonzero;"/><path d="M524.116,85.8966c0,1.39865 0.927055,2.47274 2.51578,2.47274c1.58872,0 2.51399,-1.07589 2.51399,-2.47274c0,-1.35382 -0.927055,-2.49426 -2.51399,-2.49426c-1.58872,0 -2.51578,1.13865 -2.51578,2.49426M529.019,90.175l-0.0412423,0c-0.688567,1.0974 -2.04418,1.59231 -3.33166,1.59231c-3.26531,0 -5.56771,-2.73096 -5.56771,-5.89406c0,-3.16131 2.25936,-5.87075 5.52826,-5.87075c1.26775,0 2.60185,0.47339 3.41773,1.44169l0,-7.89342l3.91622,0l0,17.8507l-3.91622,0l-0.00537943,-1.22651Z" style="fill:#000;fill-rule:nonzero;"/><path d="M546.881,85.8966c0,1.39865 0.925262,2.47274 2.51219,2.47274c1.5941,0 2.51578,-1.07589 2.51578,-2.47274c0,-1.35382 -0.925262,-2.49426 -2.51578,-2.49426c-1.58693,0 -2.51219,1.13865 -2.51219,2.49426M555.699,91.4015l-3.91981,0l0,-1.22651l-0.037656,0c-0.688567,1.0974 -2.04777,1.59231 -3.33345,1.59231c-3.26711,0 -5.56592,-2.73096 -5.56592,-5.89406c0,-3.16131 2.25936,-5.87075 5.52826,-5.87075c1.26775,0 2.59826,0.47339 3.41414,1.44169l0,-1.07589l3.91981,0l-0.00537943,11.0332Z" style="fill:#000;fill-rule:nonzero;"/><path d="M562.501,81.7885l0.0394491,0c0.901951,-1.3341 1.99935,-1.78597 3.5307,-1.78597c2.96586,0 4.14575,1.87025 4.14575,4.58148l0,6.81753l-3.91443,0l0,-5.37764c0,-1.05257 0.172142,-2.9031 -1.76266,-2.9031c-1.59231,0 -2.04418,1.18347 -2.04418,2.55882l0,5.72013l-3.91802,0l0,-11.0332l3.91802,0l0.00537943,1.42196Z" style="fill:#000;fill-rule:nonzero;"/><path d="M576.469,85.8966c0,1.39865 0.925262,2.47274 2.51219,2.47274c1.5941,0 2.51578,-1.07589 2.51578,-2.47274c0,-1.35382 -0.925262,-2.49426 -2.51578,-2.49426c-1.58693,0 -2.51219,1.13865 -2.51219,2.49426M581.372,90.175l-0.037656,0c-0.688567,1.0974 -2.04777,1.59231 -3.33345,1.59231c-3.26531,0 -5.56592,-2.73096 -5.56592,-5.89406c0,-3.16131 2.25936,-5.87075 5.52826,-5.87075c1.26775,0 2.60006,0.47339 3.41414,1.44169l0,-7.89342l3.91981,0l0,17.8507l-3.91981,0l-0.00537943,-1.22651Z" style="fill:#000;fill-rule:nonzero;"/><path d="M603.279,83.2087c-0.602496,-0.322766 -1.44527,-0.537943 -2.11053,-0.537943c-0.451872,0 -1.22651,0.193659 -1.22651,0.751327c0,0.75312 1.22651,0.860709 1.76087,0.968297c1.8308,0.365801 3.20255,1.22651 3.20255,3.2689c0,2.9031 -2.64668,4.10809 -5.20011,4.10809c-1.57079,0 -3.11828,-0.451872 -4.45417,-1.26955l1.42017,-2.73096c0.796156,0.559461 2.13205,1.11892 3.10214,1.11892c0.491321,0 1.22651,-0.236695 1.22651,-0.839191c0,-0.858916 -1.22651,-0.901951 -2.45302,-1.22651c-1.22472,-0.322766 -2.44943,-0.925262 -2.44943,-2.9031c0,-2.70944 2.44943,-3.91443 4.8648,-3.91443c1.24085,0 2.49426,0.193659 3.62753,0.710085l-1.31079,2.49606Z" style="fill:#000;fill-rule:nonzero;"/><path d="M614.976,84.2829c-0.18828,-1.05437 -1.15837,-1.74294 -2.21274,-1.74294c-1.14044,0 -2.08363,0.602496 -2.32391,1.74294l4.53665,0ZM618.609,86.5405l-8.23949,0c0,1.59052 0.840984,2.45123 2.45123,2.45123c0.842777,0 1.44527,-0.27973 1.87204,-1.00954l3.7656,0c-0.625807,2.60185 -3.09855,3.78532 -5.61254,3.78532c-3.65622,0 -6.38718,-2.06391 -6.38718,-5.87075c0,-3.67774 2.51578,-5.89227 6.10745,-5.89227c3.82836,0 6.04289,2.36516 6.04289,6.12896l0,0.407043Z" style="fill:#000;fill-rule:nonzero;"/><path d="M624.727,81.7885l0.037656,0c0.903744,-1.3341 2.00115,-1.78597 3.52891,-1.78597c2.96765,0 4.14933,1.87025 4.14933,4.58148l0,6.81753l-3.91622,0l0,-5.37764c0,-1.05257 0.173935,-2.9031 -1.76087,-2.9031c-1.59231,0 -2.04598,1.18347 -2.04598,2.55882l0,5.72013l-3.91622,0l0,-11.0332l3.91622,0l0.00717257,1.42196Z" style="fill:#000;fill-rule:nonzero;"/><path d="M638.695,85.8966c0,1.39865 0.925262,2.47274 2.51219,2.47274c1.5941,0 2.51578,-1.07589 2.51578,-2.47274c0,-1.35382 -0.925262,-2.49426 -2.51578,-2.49426c-1.58693,0 -2.51219,1.13865 -2.51219,2.49426M643.599,90.175l-0.037656,0c-0.692153,1.0974 -2.04777,1.59231 -3.33525,1.59231c-3.26531,0 -5.56412,-2.73096 -5.56412,-5.89406c0,-3.16131 2.25936,-5.87075 5.52826,-5.87075c1.26596,0 2.59826,0.47339 3.41414,1.44169l0,-7.89342l3.91981,0l0,17.8507l-3.91981,0l-0.00537943,-1.22651Z" style="fill:#000;fill-rule:nonzero;"/><path d="M385.07,120.092l-3.91443,0l0,-11.0332l3.91443,0l0,11.0332ZM385.305,104.822c0,1.20499 -0.989815,2.19481 -2.19481,2.19481c-1.2032,0 -2.19301,-0.989815 -2.19301,-2.19481c0,-1.2032 0.989815,-2.19301 2.19301,-2.19301c1.20499,0 2.19481,0.989815 2.19481,2.19301" style="fill:#000;fill-rule:nonzero;"/><path d="M391.832,110.436l0.0430354,0c0.925262,-1.22651 2.06391,-1.74114 3.48228,-1.74114c1.59231,0 2.96765,0.645531 3.76381,2.10694c0.75312,-1.37713 2.23784,-2.10694 3.74229,-2.10694c2.7973,0 3.7656,1.82901 3.7656,4.3663l0,7.03271l-3.91622,0l0,-5.26825c0,-1.14044 0.0430354,-3.01069 -1.61204,-3.01069c-1.8057,0 -1.87025,1.6999 -1.87025,3.01069l0,5.26825l-3.91443,0l0,-5.26825c0,-1.22651 0,-3.09676 -1.74294,-3.09676c-1.74294,0 -1.74294,1.87025 -1.74294,3.09676l0,5.26825l-3.91443,0l0,-11.0332l3.91443,0l0.00179314,1.37534Z" style="fill:#000;fill-rule:nonzero;"/><path d="M413.417,110.436l0.0430354,0c0.925262,-1.22651 2.06391,-1.74114 3.48228,-1.74114c1.59231,0 2.96765,0.645531 3.76381,2.10694c0.75312,-1.37713 2.23784,-2.10694 3.74229,-2.10694c2.7973,0 3.7656,1.82901 3.7656,4.3663l0,7.03271l-3.91622,0l0,-5.26825c0,-1.14044 0.0430354,-3.01069 -1.61204,-3.01069c-1.8057,0 -1.87025,1.6999 -1.87025,3.01069l0,5.26825l-3.91443,0l0,-5.26825c0,-1.22651 0,-3.09676 -1.74294,-3.09676c-1.74294,0 -1.74294,1.87025 -1.74294,3.09676l0,5.26825l-3.91443,0l0,-11.0332l3.91443,0l0.00179314,1.37534Z" style="fill:#000;fill-rule:nonzero;"/><path d="M434.878,109.059l0,5.89406c0,1.39686 0.344283,2.38667 1.95811,2.38667c1.61383,0 1.95632,-0.989815 1.95632,-2.38667l0,-5.89406l3.91622,0l0,6.64539c0,3.6347 -2.56061,4.75362 -5.87075,4.75362c-3.31373,0 -5.87075,-1.11892 -5.87075,-4.75362l0,-6.64539l3.91084,0Z" style="fill:#000;fill-rule:nonzero;"/><path d="M449.415,110.479l0.0430354,0c0.901951,-1.3341 1.99935,-1.78597 3.52711,-1.78597c2.96765,0 4.14933,1.87025 4.14933,4.58148l0,6.81753l-3.91443,0l0,-5.37764c0,-1.05257 0.172142,-2.9031 -1.76266,-2.9031c-1.59231,0 -2.04418,1.18347 -2.04418,2.55882l0,5.72013l-3.91443,0l0,-11.0332l3.91443,0l0.00179314,1.42196Z" style="fill:#000;fill-rule:nonzero;"/><path d="M463.863,120.092l-3.91443,0l0,-11.0332l3.91443,0l0,11.0332ZM464.099,104.822c0,1.20499 -0.989815,2.19481 -2.19481,2.19481c-1.2032,0 -2.19301,-0.989815 -2.19301,-2.19481c0,-1.2032 0.989815,-2.19301 2.19301,-2.19301c1.20499,0 2.19481,0.989815 2.19481,2.19301" style="fill:#000;fill-rule:nonzero;"/><path d="M476.716,116.844l0,3.24738l-11.182,0l5.18398,-7.78583l-4.49541,0l0,-3.24738l11.0117,0l-5.16067,7.78583l4.64245,0Z" style="fill:#000;fill-rule:nonzero;"/><path d="M482.131,114.587c0,1.39865 0.925262,2.47274 2.51578,2.47274c1.59052,0 2.51578,-1.07589 2.51578,-2.47274c0,-1.35382 -0.925262,-2.49426 -2.51578,-2.49426c-1.58872,0 -2.51578,1.13865 -2.51578,2.49426M490.952,120.092l-3.91802,0l0,-1.22651l-0.0412423,0c-0.688567,1.0974 -2.04418,1.59231 -3.33345,1.59231c-3.26711,0 -5.5695,-2.73096 -5.5695,-5.89406c0,-3.16131 2.25936,-5.87075 5.52826,-5.87075c1.26775,0 2.60185,0.47339 3.41773,1.44169l0,-1.07589l3.91802,0l-0.00179314,11.0332Z" style="fill:#000;fill-rule:nonzero;"/><path d="M498.299,120.091l-3.91622,0l0,-7.80734l-1.27134,0l0,-3.22586l1.27134,0l0,-3.31194l3.91622,0l0,3.31194l2.21274,0l0,3.22586l-2.21274,0l0,7.80734Z" style="fill:#000;fill-rule:nonzero;"/><path d="M506.107,120.092l-3.91443,0l0,-11.0332l3.91443,0l0,11.0332ZM506.344,104.822c0,1.20499 -0.989815,2.19481 -2.19481,2.19481c-1.2032,0 -2.1966,-0.989815 -2.1966,-2.19481c0,-1.2032 0.993401,-2.19301 2.1966,-2.19301c1.20499,0 2.19481,0.989815 2.19481,2.19301" style="fill:#000;fill-rule:nonzero;"/><path d="M512.312,114.587c0,1.39865 0.927055,2.47274 2.51578,2.47274c1.58872,0 2.51399,-1.07589 2.51399,-2.47274c0,-1.35382 -0.927055,-2.49426 -2.51399,-2.49426c-1.58872,0 -2.51578,1.13865 -2.51578,2.49426M521.473,114.587c0,3.74229 -3.10034,5.87075 -6.64539,5.87075c-3.52711,0 -6.64539,-2.10874 -6.64539,-5.87075c0,-3.76201 3.10034,-5.89227 6.64539,-5.89227c3.54504,0 6.64539,2.12846 6.64539,5.89227" style="fill:#000;fill-rule:nonzero;"/><path d="M527.543,110.479l0.0394491,0c0.905537,-1.3341 1.99935,-1.78597 3.5307,-1.78597c2.96586,0 4.14575,1.87025 4.14575,4.58148l0,6.81753l-3.91443,0l0,-5.37764c0,-1.05257 0.172142,-2.9031 -1.76266,-2.9031c-1.59231,0 -2.04418,1.18347 -2.04418,2.55882l0,5.72013l-3.91802,0l0,-11.0332l3.91802,0l0.00537943,1.42196Z" style="fill:#000;fill-rule:nonzero;"/><path d="M554.051,112.65c-0.580978,-0.430354 -1.26955,-0.774638 -2.02267,-0.774638c-1.50445,0 -2.68792,1.16196 -2.68792,2.68792c0,1.59231 1.14044,2.70944 2.75247,2.70944c0.688567,0 1.44169,-0.27973 1.95811,-0.751327l0,3.31194c-0.858916,0.430354 -1.80749,0.624014 -2.75247,0.624014c-3.2689,0 -6.00165,-2.42971 -6.00165,-5.76316c0,-3.54863 2.71123,-5.99986 6.16841,-5.99986c0.903744,0 1.80749,0.215177 2.58033,0.645531l0.00537943,3.31014Z" style="fill:#000;fill-rule:nonzero;"/><path d="M559.989,114.587c0,1.39865 0.930641,2.47274 2.51578,2.47274c1.58693,0 2.51757,-1.07589 2.51757,-2.47274c0,-1.35382 -0.930641,-2.49426 -2.51757,-2.49426c-1.58514,0 -2.51578,1.13865 -2.51578,2.49426M569.151,114.587c0,3.74229 -3.09855,5.87075 -6.64539,5.87075c-3.52532,0 -6.64539,-2.10874 -6.64539,-5.87075c0,-3.76201 3.10034,-5.89227 6.64539,-5.89227c3.55042,-0.00179314 6.64539,2.12846 6.64539,5.89227" style="fill:#000;fill-rule:nonzero;"/><path d="M575.221,110.479l0.0430354,0c0.901951,-1.3341 1.99756,-1.78597 3.52711,-1.78597c2.96765,0 4.14754,1.87025 4.14754,4.58148l0,6.81753l-3.91622,0l0,-5.37764c0,-1.05257 0.173935,-2.9031 -1.76087,-2.9031c-1.5941,0 -2.04598,1.18347 -2.04598,2.55882l0,5.72013l-3.91443,0l0,-11.0332l3.91443,0l0.00537943,1.42196Z" style="fill:#000;fill-rule:nonzero;"/><path d="M590.138,120.091l-3.91802,0l0,-7.80734l-1.37713,0l0,-3.22586l1.37713,0l0,-1.39686c0,-1.52776 0.0412423,-2.64489 1.11892,-3.8714c0.966504,-1.14044 2.36516,-1.76266 3.84988,-1.76266c0.602496,0 1.14044,0.107589 1.67838,0.387319l0,3.37649c-0.451872,-0.193659 -0.857122,-0.365801 -1.37713,-0.365801c-1.00954,0 -1.35562,0.602496 -1.35562,1.85052l0,1.78418l2.72737,0l0,3.22586l-2.72737,0l0.00358629,7.80555Z" style="fill:#000;fill-rule:nonzero;"/><path d="M598.447,120.092l-3.91443,0l0,-11.0332l3.91443,0l0,11.0332ZM598.684,104.822c0,1.20499 -0.989815,2.19481 -2.19481,2.19481c-1.2032,0 -2.19481,-0.989815 -2.19481,-2.19481c0,-1.2032 0.991608,-2.19301 2.19481,-2.19301c1.20499,0 2.19481,0.989815 2.19481,2.19301" style="fill:#000;fill-rule:nonzero;"/><path d="M605.212,110.866l0.0412423,0c0.751327,-1.35562 2.04418,-1.95632 3.57015,-1.95632l0.75312,0l0,3.76381c-0.537943,-0.301248 -1.05437,-0.365801 -1.65686,-0.365801c-2.1715,0 -2.71303,1.44169 -2.71303,3.33345l0,4.45058l-3.91622,0l0,-11.0332l3.91622,0l0.00537943,1.80749Z" style="fill:#000;fill-rule:nonzero;"/><path d="M615.228,110.436l0.037656,0c0.927055,-1.22651 2.0657,-1.74114 3.48408,-1.74114c1.59231,0 2.96407,0.645531 3.76381,2.10694c0.751327,-1.37713 2.23784,-2.10694 3.7405,-2.10694c2.80268,0 3.77098,1.82901 3.77098,4.3663l0,7.03271l-3.9216,0l0,-5.26825c0,-1.14044 0.0448286,-3.01069 -1.60666,-3.01069c-1.80928,0 -1.87204,1.6999 -1.87204,3.01069l0,5.26825l-3.91802,0l0,-5.26825c0,-1.22651 0,-3.09676 -1.74114,-3.09676c-1.74473,0 -1.74473,1.87025 -1.74473,3.09676l0,5.26825l-3.91622,0l0,-11.0332l3.91622,0l0.00717257,1.37534Z" style="fill:#000;fill-rule:nonzero;"/><path d="M636.21,114.587c0,1.39865 0.928848,2.47274 2.51399,2.47274c1.59231,0 2.51757,-1.07589 2.51757,-2.47274c0,-1.35382 -0.928848,-2.49426 -2.51757,-2.49426c-1.58693,0 -2.51399,1.13865 -2.51399,2.49426M645.029,120.092l-3.91802,0l0,-1.22651l-0.0394491,0c-0.69036,1.0974 -2.04598,1.59231 -3.32987,1.59231c-3.2689,0 -5.5695,-2.73096 -5.5695,-5.89406c0,-3.16131 2.26295,-5.87075 5.52647,-5.87075c1.26775,0 2.60185,0.47339 3.41773,1.44169l0,-1.07589l3.91802,0l-0.00537943,11.0332Z" style="fill:#000;fill-rule:nonzero;"/><path d="M652.371,120.091l-3.91802,0l0,-7.80734l-1.27134,0l0,-3.22586l1.27134,0l0,-3.31194l3.91802,0l0,3.31194l2.21095,0l0,3.22586l-2.21095,0l0,7.80734Z" style="fill:#000;fill-rule:nonzero;"/><path d="M660.183,120.092l-3.91443,0l0,-11.0332l3.91443,0l0,11.0332ZM660.42,104.822c0,1.20499 -0.991608,2.19481 -2.1966,2.19481c-1.2032,0 -2.19301,-0.989815 -2.19301,-2.19481c0,-1.2032 0.989815,-2.19301 2.19301,-2.19301c1.20679,0 2.1966,0.989815 2.1966,2.19301" style="fill:#000;fill-rule:nonzero;"/><path d="M666.386,114.587c0,1.39865 0.930641,2.47274 2.51578,2.47274c1.59231,0 2.51757,-1.07589 2.51757,-2.47274c0,-1.35382 -0.928848,-2.49426 -2.51757,-2.49426c-1.58693,0 -2.51578,1.13865 -2.51578,2.49426M675.547,114.587c0,3.74229 -3.10034,5.87075 -6.64539,5.87075c-3.52532,0 -6.64539,-2.10874 -6.64539,-5.87075c0,-3.76201 3.10034,-5.89227 6.64539,-5.89227c3.54863,0 6.64539,2.12846 6.64539,5.89227" style="fill:#000;fill-rule:nonzero;"/><path d="M681.618,110.479l0.0430354,0c0.901951,-1.3341 1.99756,-1.78597 3.52711,-1.78597c2.96765,0 4.14754,1.87025 4.14754,4.58148l0,6.81753l-3.91622,0l0,-5.37764c0,-1.05257 0.173935,-2.9031 -1.76087,-2.9031c-1.5941,0 -2.04598,1.18347 -2.04598,2.55882l0,5.72013l-3.91443,0l0,-11.0332l3.91443,0l0.00537943,1.42196Z" style="fill:#000;fill-rule:nonzero;"/><path d="M539.58,442.764c-0.774638,-0.645531 -1.76087,-1.07768 -2.79551,-1.07768c-0.776431,0 -1.80928,0.451872 -1.80928,1.35203c0,0.94678 1.14223,1.31258 1.87204,1.54928l1.07768,0.324559c2.25757,0.665256 3.99692,1.8039 3.99692,4.43265c0,1.60845 -0.387319,3.26531 -1.68018,4.36451c-1.26775,1.07947 -2.96586,1.53314 -4.59941,1.53314c-2.04598,0 -4.04354,-0.692153 -5.70219,-1.84873l1.80928,-3.3998c1.05437,0.928848 2.29881,1.68197 3.74229,1.68197c0.991608,0 2.04598,-0.494907 2.04598,-1.63535c0,-1.18527 -1.65686,-1.59052 -2.5624,-1.85052c-2.64668,-0.75312 -4.38423,-1.43989 -4.38423,-4.57969c0,-3.29221 2.34543,-5.4404 5.59102,-5.4404c1.63176,0 3.63291,0.516425 5.0728,1.3341l-1.6748,3.25993Z" style="fill:#000;fill-rule:nonzero;"/><path d="M552.025,447.687c-0.193659,-1.05437 -1.16196,-1.74114 -2.21453,-1.74114c-1.14044,0 -2.08722,0.602496 -2.32391,1.74114l4.53844,0ZM555.658,449.948l-8.23591,0c0,1.58872 0.837398,2.45123 2.45123,2.45123c0.839191,0 1.44169,-0.27973 1.87204,-1.01133l3.76201,0c-0.622221,2.60185 -3.09496,3.78532 -5.61254,3.78532c-3.65622,0 -6.38538,-2.06211 -6.38538,-5.86896c0,-3.67774 2.51219,-5.89406 6.10386,-5.89406c3.83195,0 6.0411,2.36695 6.0411,6.12896l0.00358629,0.408837Z" style="fill:#000;fill-rule:nonzero;"/><path d="M561.777,445.197l0.0430354,0c0.901951,-1.3341 1.99756,-1.78597 3.52711,-1.78597c2.96765,0 4.14754,1.87025 4.14754,4.58327l0,6.81753l-3.91622,0l0,-5.37943c0,-1.05078 0.173935,-2.90131 -1.76087,-2.90131c-1.5941,0 -2.04598,1.18168 -2.04598,2.56061l0,5.71654l-3.91443,0l0,-11.0296l3.91443,0l0.00537943,1.41838Z" style="fill:#000;fill-rule:nonzero;"/><path d="M575.746,449.301c0,1.39865 0.927055,2.47274 2.51578,2.47274c1.58872,0 2.51399,-1.07768 2.51399,-2.47274c0,-1.35382 -0.927055,-2.49606 -2.51399,-2.49606c-1.58872,0 -2.51578,1.14223 -2.51578,2.49606M580.648,453.582l-0.0412423,0c-0.688567,1.09382 -2.04418,1.59052 -3.32987,1.59052c-3.26711,0 -5.5695,-2.72916 -5.5695,-5.89406c0,-3.15952 2.26115,-5.86716 5.52826,-5.86716c1.26775,0 2.60185,0.47339 3.41773,1.44527l0,-7.89521l3.91622,0l0,17.8507l-3.91622,0l-0.00537943,-1.2301Z" style="fill:#000;fill-rule:nonzero;"/><path d="M598.51,449.301c0,1.39865 0.925262,2.47274 2.51219,2.47274c1.5941,0 2.51578,-1.07768 2.51578,-2.47274c0,-1.35382 -0.925262,-2.49606 -2.51578,-2.49606c-1.58693,0 -2.51219,1.14223 -2.51219,2.49606M607.329,454.805l-3.91981,0l0,-1.22651l-0.037656,0c-0.688567,1.09561 -2.04777,1.5941 -3.33345,1.5941c-3.26711,0 -5.56592,-2.72916 -5.56592,-5.89406c0,-3.1631 2.25936,-5.87075 5.52826,-5.87075c1.26775,0 2.59826,0.476976 3.41414,1.44527l0,-1.07768l3.91981,0l-0.00537943,11.0296Z" style="fill:#000;fill-rule:nonzero;"/><path d="M614.071,443.775l0,5.89406c0,1.39507 0.344283,2.38667 1.95991,2.38667c1.61204,0 1.95632,-0.991608 1.95632,-2.38667l0,-5.89406l3.91802,0l0,6.64539c0,3.6347 -2.56061,4.75183 -5.86896,4.75183c-3.31552,0 -5.86896,-1.11713 -5.86896,-4.75183l0,-6.64539l3.90367,0Z" style="fill:#000;fill-rule:nonzero;"/><path d="M629.111,454.805l-3.91622,0l0,-7.80734l-1.26955,0l0,-3.22586l1.26955,0l0,-3.31373l3.91622,0l0,3.31373l2.21274,0l0,3.22586l-2.21274,0l0,7.80734Z" style="fill:#000;fill-rule:nonzero;"/><path d="M636.398,449.301c0,1.39865 0.927055,2.47274 2.51578,2.47274c1.58872,0 2.51219,-1.07768 2.51219,-2.47274c0,-1.35382 -0.925262,-2.49606 -2.51219,-2.49606c-1.58872,0 -2.51578,1.14223 -2.51578,2.49606M645.559,449.301c0,3.74408 -3.09676,5.87075 -6.6418,5.87075c-3.52891,0 -6.64539,-2.10874 -6.64539,-5.87075c0,-3.76022 3.09855,-5.89047 6.64539,-5.89047c3.54684,0 6.6418,2.12667 6.6418,5.89047" style="fill:#000;fill-rule:nonzero;"/><path d="M651.629,445.148l0.0394491,0c0.928848,-1.22651 2.06391,-1.74114 3.48228,-1.74114c1.59231,0 2.96765,0.643738 3.76381,2.10874c0.75312,-1.37893 2.23784,-2.10874 3.74229,-2.10874c2.80089,0 3.76919,1.8308 3.76919,4.36989l0,7.03271l-3.91981,0l0,-5.27005c0,-1.14044 0.0430354,-3.00889 -1.60845,-3.00889c-1.8057,0 -1.87025,1.69811 -1.87025,3.00889l0,5.27005l-3.91802,0l0,-5.27005c0,-1.22651 0,-3.09676 -1.74294,-3.09676c-1.74294,0 -1.74294,1.87025 -1.74294,3.09676l0,5.27005l-3.91802,0l0,-11.035l3.91802,0l0.00537943,1.37355Z" style="fill:#000;fill-rule:nonzero;"/><path d="M672.612,449.301c0,1.39865 0.925262,2.47274 2.5104,2.47274c1.59231,0 2.51757,-1.07768 2.51757,-2.47274c0,-1.35382 -0.927055,-2.49606 -2.51757,-2.49606c-1.58514,0 -2.5104,1.14223 -2.5104,2.49606M681.431,454.805l-3.9216,0l0,-1.22651l-0.0358629,0c-0.692153,1.09561 -2.04956,1.5941 -3.33345,1.5941c-3.26711,0 -5.5695,-2.72916 -5.5695,-5.89406c0,-3.1631 2.26295,-5.87075 5.52826,-5.87075c1.26775,0 2.60185,0.476976 3.41594,1.44527l0,-1.07768l3.9216,0l-0.00537943,11.0296Z" style="fill:#000;fill-rule:nonzero;"/><path d="M688.775,454.805l-3.91802,0l0,-7.80734l-1.26955,0l0,-3.22586l1.26955,0l0,-3.31373l3.91802,0l0,3.31373l2.21274,0l0,3.22586l-2.21274,0l0,7.80734Z" style="fill:#000;fill-rule:nonzero;"/><path d="M700.481,447.687c-0.193659,-1.05437 -1.16196,-1.74114 -2.21453,-1.74114c-1.14044,0 -2.08722,0.602496 -2.32391,1.74114l4.53844,0ZM704.114,449.948l-8.23591,0c0,1.58872 0.837398,2.45123 2.45123,2.45123c0.839191,0 1.44169,-0.27973 1.87204,-1.01133l3.76201,0c-0.622221,2.60185 -3.09496,3.78532 -5.61254,3.78532c-3.65622,0 -6.38538,-2.06211 -6.38538,-5.86896c0,-3.67774 2.51219,-5.89406 6.10386,-5.89406c3.83195,0 6.0411,2.36695 6.0411,6.12896l0.00358629,0.408837Z" style="fill:#000;fill-rule:nonzero;"/><path d="M709.694,449.301c0,1.39865 0.927055,2.47274 2.51578,2.47274c1.58872,0 2.51399,-1.07768 2.51399,-2.47274c0,-1.35382 -0.927055,-2.49606 -2.51399,-2.49606c-1.58872,0 -2.51578,1.14223 -2.51578,2.49606M714.597,453.582l-0.037656,0c-0.688567,1.09382 -2.04418,1.59052 -3.33345,1.59052c-3.26352,0 -5.56592,-2.72916 -5.56592,-5.89406c0,-3.15952 2.25936,-5.86716 5.52826,-5.86716c1.26775,0 2.60185,0.47339 3.41773,1.44527l0,-7.89521l3.91622,0l0,17.8507l-3.91622,0l-0.00896572,-1.2301Z" style="fill:#000;fill-rule:nonzero;"/><path d="M733.128,445.582l0.037656,0c0.751327,-1.35562 2.04418,-1.95811 3.57015,-1.95811l0.75312,0l0,3.7656c-0.537943,-0.301248 -1.05437,-0.362215 -1.65507,-0.362215c-2.17329,0 -2.71482,1.4381 -2.71482,3.32807l0,4.45058l-3.91443,0l0,-11.0314l3.91443,0l0.00896572,1.80749Z" style="fill:#000;fill-rule:nonzero;"/><path d="M747.156,447.687c-0.190073,-1.05437 -1.15837,-1.74114 -2.21095,-1.74114c-1.14403,0 -2.08722,0.602496 -2.32391,1.74114l4.53486,0ZM750.789,449.948l-8.23591,0c0,1.58872 0.837398,2.45123 2.44764,2.45123c0.842777,0 1.44527,-0.27973 1.87204,-1.01133l3.7656,0c-0.622221,2.60185 -3.09855,3.78532 -5.61254,3.78532c-3.65622,0 -6.38718,-2.06211 -6.38718,-5.86896c0,-3.67774 2.51399,-5.89406 6.10565,-5.89406c3.83015,0 6.04289,2.36695 6.04289,6.12896l0.00179314,0.408837Z" style="fill:#000;fill-rule:nonzero;"/><path d="M756.906,445.148l0.0394491,0c0.928848,-1.22651 2.06391,-1.74114 3.48228,-1.74114c1.5941,0 2.96765,0.643738 3.76381,2.10874c0.75312,-1.37893 2.23964,-2.10874 3.74229,-2.10874c2.80089,0 3.76919,1.8308 3.76919,4.36989l0,7.03271l-3.91981,0l0,-5.27005c0,-1.14044 0.0430354,-3.00889 -1.60845,-3.00889c-1.8057,0 -1.87025,1.69811 -1.87025,3.00889l0,5.27005l-3.91802,0l0,-5.27005c0,-1.22651 0,-3.09676 -1.74294,-3.09676c-1.74294,0 -1.74294,1.87025 -1.74294,3.09676l0,5.27005l-3.91802,0l0,-11.035l3.91802,0l0.00537943,1.37355Z" style="fill:#000;fill-rule:nonzero;"/><path d="M778.472,454.806l-3.91622,0l0,-11.0296l3.91622,0l0,11.0296ZM778.708,439.537c0,1.20141 -0.993401,2.19481 -2.20019,2.19481c-1.2032,0 -2.19301,-0.993401 -2.19301,-2.19481c0,-1.20499 0.989815,-2.19839 2.19301,-2.19839c1.21037,0.00537943 2.20019,0.993401 2.20019,2.19839" style="fill:#000;fill-rule:nonzero;"/><path d="M785.237,445.197l0.0412423,0c0.903744,-1.3341 1.99935,-1.78597 3.52891,-1.78597c2.96586,0 4.14754,1.87025 4.14754,4.58327l0,6.81753l-3.91622,0l0,-5.37943c0,-1.05078 0.172142,-2.90131 -1.76087,-2.90131c-1.5941,0 -2.04598,1.18168 -2.04598,2.56061l0,5.71654l-3.91802,0l0,-11.0296l3.91802,0l0.00537943,1.41838Z" style="fill:#000;fill-rule:nonzero;"/><path d="M799.209,449.301c0,1.39865 0.927055,2.47274 2.51578,2.47274c1.58872,0 2.51399,-1.07768 2.51399,-2.47274c0,-1.35382 -0.927055,-2.49606 -2.51399,-2.49606c-1.58872,0 -2.51578,1.14223 -2.51578,2.49606M804.112,453.582l-0.0412423,0c-0.688567,1.09382 -2.04418,1.59052 -3.33166,1.59052c-3.26531,0 -5.56771,-2.72916 -5.56771,-5.89406c0,-3.15952 2.25936,-5.86716 5.52826,-5.86716c1.26775,0 2.60185,0.47339 3.41773,1.44527l0,-7.89521l3.91622,0l0,17.8507l-3.91981,0l-0.00179314,-1.2301Z" style="fill:#000;fill-rule:nonzero;"/><path d="M818.673,447.687c-0.190073,-1.05437 -1.15837,-1.74114 -2.21095,-1.74114c-1.14044,0 -2.08722,0.602496 -2.32391,1.74114l4.53486,0ZM822.306,449.948l-8.23591,0c0,1.58872 0.837398,2.45123 2.45123,2.45123c0.839191,0 1.44169,-0.27973 1.87204,-1.01133l3.76201,0c-0.622221,2.60185 -3.09496,3.78532 -5.61254,3.78532c-3.65622,0 -6.38718,-2.06211 -6.38718,-5.86896c0,-3.67774 2.51399,-5.89406 6.10745,-5.89406c3.82836,0 6.0411,2.36695 6.0411,6.12896l0.00179314,0.408837Z" style="fill:#000;fill-rule:nonzero;"/><path d="M828.425,445.582l0.0430354,0c0.751327,-1.35562 2.04239,-1.95811 3.56656,-1.95811l0.75312,0l0,3.7656c-0.539736,-0.301248 -1.05437,-0.362215 -1.65507,-0.362215c-2.17508,0 -2.71303,1.4381 -2.71303,3.32807l0,4.45058l-3.91443,0l0,-11.0314l3.91443,0l0.00537943,1.80749Z" style="fill:#000;fill-rule:nonzero;"/><path d="M841.658,446.615c-0.602496,-0.324559 -1.44169,-0.539736 -2.10694,-0.539736c-0.451872,0 -1.22472,0.193659 -1.22472,0.751327c0,0.754913 1.22472,0.860709 1.75728,0.968297c1.83259,0.365801 3.20435,1.22651 3.20435,3.2689c0,2.90489 -2.64489,4.10809 -5.20191,4.10809c-1.57079,0 -3.11469,-0.450079 -4.45058,-1.27134l1.42017,-2.72916c0.792569,0.561254 2.13025,1.12071 3.09676,1.12071c0.494907,0 1.2301,-0.238488 1.2301,-0.842777c0,-0.858916 -1.2301,-0.900158 -2.45123,-1.22651c-1.2283,-0.322766 -2.45123,-0.927055 -2.45123,-2.90131c0,-2.70944 2.45123,-3.91443 4.86121,-3.91443c1.24623,0 2.49606,0.190073 3.63291,0.708291l-1.31617,2.49964Z" style="fill:#000;fill-rule:nonzero;"/><path d="M857.947,454.805l-3.91443,0l0,-7.80734l-1.37893,0l0,-3.22586l1.37893,0l0,-1.39865c0,-1.52596 0.0394491,-2.64309 1.11892,-3.86602c0.966504,-1.14582 2.36336,-1.76266 3.84808,-1.76266c0.604289,0 1.14223,0.109382 1.68197,0.390905l0,3.3747c-0.451872,-0.191866 -0.858916,-0.364008 -1.37893,-0.364008c-1.00775,0 -1.35741,0.602496 -1.35741,1.84873l0,1.78418l2.73096,0l0,3.22407l-2.73096,0l0.00179314,7.80197Z" style="fill:#000;fill-rule:nonzero;"/><path d="M865.782,449.301c0,1.39865 0.927055,2.47274 2.51578,2.47274c1.58872,0 2.51399,-1.07768 2.51399,-2.47274c0,-1.35382 -0.927055,-2.49606 -2.51399,-2.49606c-1.58872,0 -2.51578,1.14223 -2.51578,2.49606M874.943,449.301c0,3.74408 -3.10034,5.87075 -6.64539,5.87075c-3.52891,0 -6.64539,-2.10874 -6.64539,-5.87075c0,-3.76022 3.09855,-5.89047 6.64539,-5.89047c3.54684,0 6.64539,2.12667 6.64539,5.89047" style="fill:#000;fill-rule:nonzero;"/><path d="M881.015,445.582l0.0394491,0c0.75312,-1.35562 2.04598,-1.95811 3.56835,-1.95811l0.754913,0l0,3.7656c-0.539736,-0.301248 -1.05616,-0.362215 -1.65686,-0.362215c-2.17329,0 -2.71123,1.4381 -2.71123,3.32807l0,4.45058l-3.91802,0l0,-11.0314l3.91802,0l0.00537943,1.80749Z" style="fill:#000;fill-rule:nonzero;"/><path d="M533.838,477.992c0,1.39865 0.930641,2.47274 2.51578,2.47274c1.58693,0 2.51757,-1.07768 2.51757,-2.47274c0,-1.35382 -0.930641,-2.49606 -2.51757,-2.49606c-1.58514,0 -2.51578,1.14223 -2.51578,2.49606M542.657,483.495l-3.91622,0l0,-1.22651l-0.0394491,0c-0.69036,1.09561 -2.04598,1.5941 -3.33166,1.5941c-3.26711,0 -5.5695,-2.72916 -5.5695,-5.89406c0,-3.1631 2.26115,-5.87075 5.52826,-5.87075c1.26775,0 2.60185,0.476976 3.41773,1.44527l0,-1.07768l3.91622,0l-0.00537943,11.0296Z" style="fill:#000;fill-rule:nonzero;"/><path d="M549.266,477.992c0,1.39865 0.925262,2.47274 2.51219,2.47274c1.5941,0 2.51578,-1.07768 2.51578,-2.47274c0,-1.35382 -0.927055,-2.49606 -2.51578,-2.49606c-1.58693,0 -2.51219,1.14223 -2.51219,2.49606M549.393,473.71l0.0430354,0c0.708291,-1.09382 2.04418,-1.60845 3.33345,-1.60845c3.29042,0 5.56592,2.75068 5.56592,5.91199c0,3.18283 -2.25757,5.85282 -5.52647,5.85282c-1.26775,0 -2.57854,-0.451872 -3.41952,-1.42196l0,6.55932l-3.91443,0l0,-16.5382l3.91443,0l0.00358629,1.24444Z" style="fill:#000;fill-rule:nonzero;"/><path d="M564.304,477.992c0,1.39865 0.927055,2.47274 2.51578,2.47274c1.58872,0 2.51399,-1.07768 2.51399,-2.47274c0,-1.35382 -0.928848,-2.49606 -2.51399,-2.49606c-1.59052,0 -2.51578,1.14223 -2.51578,2.49606M564.432,473.71l0.0394491,0c0.710085,-1.09382 2.04777,-1.60845 3.33345,-1.60845c3.29042,0 5.56592,2.75068 5.56592,5.91199c0,3.18283 -2.25936,5.85282 -5.52647,5.85282c-1.26775,0 -2.57854,-0.451872 -3.41773,-1.42196l0,6.55932l-3.91802,0l0,-16.5382l3.91802,0l0.00537943,1.24444Z" style="fill:#000;fill-rule:nonzero;"/><path d="M579.035,477.992c0,1.39865 0.927055,2.47274 2.51578,2.47274c1.58872,0 2.51399,-1.07768 2.51399,-2.47274c0,-1.35382 -0.927055,-2.49606 -2.51399,-2.49606c-1.58872,0 -2.51578,1.14223 -2.51578,2.49606M588.196,477.992c0,3.74408 -3.09855,5.87075 -6.64539,5.87075c-3.52532,0 -6.64539,-2.10874 -6.64539,-5.87075c0,-3.76022 3.10034,-5.89047 6.64539,-5.89047c3.55042,0 6.64539,2.12667 6.64539,5.89047" style="fill:#000;fill-rule:nonzero;"/><path d="M594.221,483.496l-3.91622,0l0,-11.0296l3.91622,0l0,11.0296ZM594.457,468.227c0,1.20141 -0.991608,2.19481 -2.1966,2.19481c-1.2032,0 -2.19301,-0.993401 -2.19301,-2.19481c0,-1.20499 0.989815,-2.19839 2.19301,-2.19839c1.20499,0.00537943 2.1966,0.993401 2.1966,2.19839" style="fill:#000;fill-rule:nonzero;"/><path d="M600.985,473.887l0.0394491,0c0.901951,-1.3341 1.99935,-1.78597 3.5307,-1.78597c2.96586,0 4.14575,1.87025 4.14575,4.58327l0,6.81753l-3.91443,0l0,-5.37943c0,-1.05078 0.172142,-2.90131 -1.76266,-2.90131c-1.59231,0 -2.04418,1.18168 -2.04418,2.56061l0,5.71654l-3.91802,0l0,-11.0296l3.91802,0l0.00537943,1.41838Z" style="fill:#000;fill-rule:nonzero;"/><path d="M615.885,483.495l-3.91622,0l0,-7.80734l-1.26955,0l0,-3.22586l1.26955,0l0,-3.31373l3.91622,0l0,3.31373l2.21274,0l0,3.22586l-2.21274,0l0,7.80734Z" style="fill:#000;fill-rule:nonzero;"/><path d="M623.769,473.838l0.0394491,0c0.928848,-1.22651 2.06391,-1.74114 3.48228,-1.74114c1.5941,0 2.96765,0.643738 3.76381,2.10874c0.75312,-1.37893 2.23964,-2.10874 3.74229,-2.10874c2.80089,0 3.76919,1.8308 3.76919,4.36989l0,7.03271l-3.91981,0l0,-5.27005c0,-1.14044 0.0430354,-3.00889 -1.60845,-3.00889c-1.8057,0 -1.87025,1.69811 -1.87025,3.00889l0,5.27005l-3.91802,0l0,-5.27005c0,-1.22651 0,-3.09676 -1.74294,-3.09676c-1.74294,0 -1.74294,1.87025 -1.74294,3.09676l0,5.27005l-3.91802,0l0,-11.035l3.91802,0l0.00537943,1.37355Z" style="fill:#000;fill-rule:nonzero;"/><path d="M649.253,476.377c-0.191866,-1.05437 -1.16016,-1.74114 -2.21274,-1.74114c-1.14223,0 -2.08722,0.602496 -2.32571,1.74114l4.53844,0ZM652.884,478.638l-8.2377,0c0,1.58872 0.837398,2.45123 2.44943,2.45123c0.840984,0 1.44348,-0.27973 1.87204,-1.01133l3.7656,0c-0.625807,2.60185 -3.09855,3.78532 -5.61254,3.78532c-3.65801,0 -6.38718,-2.06211 -6.38718,-5.86896c0,-3.67774 2.51578,-5.89406 6.10745,-5.89406c3.82836,0 6.03931,2.36695 6.03931,6.12896l0,0.408837l0.00358629,0Z" style="fill:#000;fill-rule:nonzero;"/><path d="M659.01,473.887l0.0412423,0c0.901951,-1.3341 2.00115,-1.78597 3.52891,-1.78597c2.96765,0 4.14933,1.87025 4.14933,4.58327l0,6.81753l-3.91622,0l0,-5.37943c0,-1.05078 0.175728,-2.90131 -1.75907,-2.90131c-1.5959,0 -2.04777,1.18168 -2.04777,2.56061l0,5.71654l-3.91622,0l0,-11.0296l3.91622,0l0.00358629,1.41838Z" style="fill:#000;fill-rule:nonzero;"/><path d="M673.908,483.495l-3.91802,0l0,-7.80734l-1.26955,0l0,-3.22586l1.26955,0l0,-3.31373l3.91802,0l0,3.31373l2.21274,0l0,3.22586l-2.21274,0l0,7.80734Z" style="fill:#000;fill-rule:nonzero;"/><path d="M684.87,475.305c-0.602496,-0.324559 -1.44527,-0.539736 -2.11053,-0.539736c-0.451872,0 -1.22651,0.193659 -1.22651,0.751327c0,0.754913 1.22651,0.860709 1.76266,0.968297c1.82901,0.365801 3.20076,1.22651 3.20076,3.2689c0,2.90489 -2.64668,4.10809 -5.20011,4.10809c-1.57079,0 -3.11828,-0.450079 -4.45417,-1.27134l1.42196,-2.72916c0.794362,0.561254 2.13205,1.12071 3.10034,1.12071c0.491321,0 1.22651,-0.238488 1.22651,-0.842777c0,-0.858916 -1.22651,-0.900158 -2.45123,-1.22651c-1.22651,-0.322766 -2.44943,-0.927055 -2.44943,-2.90131c0,-2.70944 2.44943,-3.91443 4.863,-3.91443c1.24085,0 2.49426,0.190073 3.62753,0.708291l-1.31079,2.49964Z" style="fill:#000;fill-rule:nonzero;"/><path d="M700.107,477.992c0,1.39865 0.925262,2.47274 2.51219,2.47274c1.5941,0 2.51578,-1.07768 2.51578,-2.47274c0,-1.35382 -0.928848,-2.49606 -2.51578,-2.49606c-1.58693,0 -2.51219,1.14223 -2.51219,2.49606M708.925,483.495l-3.9216,0l0,-1.22651l-0.0358629,0c-0.692153,1.09561 -2.04777,1.5941 -3.33345,1.5941c-3.26711,0 -5.5695,-2.72916 -5.5695,-5.89406c0,-3.1631 2.26295,-5.87075 5.52826,-5.87075c1.26775,0 2.60185,0.476976 3.41594,1.44527l0,-1.07768l3.9216,0l-0.00537943,11.0296Z" style="fill:#000;fill-rule:nonzero;"/><path d="M715.727,473.887l0.037656,0c0.901951,-1.3341 2.00115,-1.78597 3.52891,-1.78597c2.96765,0 4.14933,1.87025 4.14933,4.58327l0,6.81753l-3.91802,0l0,-5.37943c0,-1.05078 0.175728,-2.90131 -1.75907,-2.90131c-1.59231,0 -2.04777,1.18168 -2.04777,2.56061l0,5.71654l-3.91443,0l0,-11.0296l3.91443,0l0.00896572,1.41838Z" style="fill:#000;fill-rule:nonzero;"/><path d="M729.695,477.992c0,1.39865 0.925262,2.47274 2.51219,2.47274c1.5941,0 2.51578,-1.07768 2.51578,-2.47274c0,-1.35382 -0.927055,-2.49606 -2.51578,-2.49606c-1.58693,0 -2.51219,1.14223 -2.51219,2.49606M734.598,482.272l-0.0358629,0c-0.692153,1.09382 -2.04777,1.59052 -3.33525,1.59052c-3.26531,0 -5.56592,-2.72916 -5.56592,-5.89406c0,-3.15952 2.26115,-5.86716 5.53005,-5.86716c1.26417,0 2.59826,0.47339 3.41414,1.44527l0,-7.89521l3.91981,0l0,17.8507l-3.91981,0l0,-1.2301l-0.00717257,0Z" style="fill:#000;fill-rule:nonzero;"/><path d="M753.516,483.495l-3.91622,0l0,-7.80734l-1.37534,0l0,-3.22586l1.37534,0l0,-1.39865c0,-1.52596 0.0448286,-2.64309 1.11892,-3.86602c0.966504,-1.14582 2.36516,-1.76266 3.84808,-1.76266c0.606082,0 1.14403,0.109382 1.68018,0.390905l0,3.3747c-0.451872,-0.191866 -0.858916,-0.364008 -1.37534,-0.364008c-1.01133,0 -1.3592,0.602496 -1.3592,1.84873l0,1.78418l2.73096,0l0,3.22407l-2.73096,0l0.00358629,7.80197Z" style="fill:#000;fill-rule:nonzero;"/><path d="M761.349,477.992c0,1.39865 0.930641,2.47274 2.51578,2.47274c1.59231,0 2.51757,-1.07768 2.51757,-2.47274c0,-1.35382 -0.928848,-2.49606 -2.51757,-2.49606c-1.58693,0 -2.51578,1.14223 -2.51578,2.49606M770.512,477.992c0,3.74408 -3.09855,5.87075 -6.64539,5.87075c-3.52711,0 -6.64539,-2.10874 -6.64539,-5.87075c0,-3.76022 3.10214,-5.89047 6.64539,-5.89047c3.55042,0 6.64539,2.12667 6.64539,5.89047" style="fill:#000;fill-rule:nonzero;"/><rect x="772.656" y="465.645" width="3.91443" height="17.8507" style="fill:#000;fill-rule:nonzero;"/><rect x="779.406" y="465.645" width="3.91622" height="17.8507" style="fill:#000;fill-rule:nonzero;"/><path d="M789.596,477.992c0,1.39865 0.928848,2.47274 2.51399,2.47274c1.59231,0 2.51757,-1.07768 2.51757,-2.47274c0,-1.35382 -0.928848,-2.49606 -2.51757,-2.49606c-1.58693,0 -2.51399,1.14223 -2.51399,2.49606M798.757,477.992c0,3.74408 -3.09855,5.87075 -6.64539,5.87075c-3.52532,0 -6.64539,-2.10874 -6.64539,-5.87075c0,-3.76022 3.10214,-5.89047 6.64539,-5.89047c3.55222,0 6.64539,2.12667 6.64539,5.89047" style="fill:#000;fill-rule:nonzero;"/><path d="M805.895,478.443l2.77758,-5.97834l2.32212,0l2.77579,5.97834l2.7722,-5.97834l4.32327,0l-5.76316,11.0332l-2.5373,0l-2.73275,-6.04289l-2.72558,6.04289l-2.5373,0l-5.76316,-11.0332l4.34479,0l2.74351,5.97834Z" style="fill:#000;fill-rule:nonzero;"/><path d="M833.932,472.465l0,5.89406c0,1.39507 0.340697,2.38667 1.95811,2.38667c1.61562,0 1.95632,-0.991608 1.95632,-2.38667l0,-5.89406l3.91981,0l0,6.64539c0,3.6347 -2.56419,4.75183 -5.87075,4.75183c-3.30835,0 -5.87075,-1.11713 -5.87075,-4.75183l0,-6.64539l3.90726,0Z" style="fill:#000;fill-rule:nonzero;"/><path d="M848.276,477.992c0,1.39865 0.925262,2.47274 2.51219,2.47274c1.5941,0 2.51578,-1.07768 2.51578,-2.47274c0,-1.35382 -0.927055,-2.49606 -2.51578,-2.49606c-1.58693,0 -2.51219,1.14223 -2.51219,2.49606M848.403,473.71l0.0430354,0c0.708291,-1.09382 2.04418,-1.60845 3.33345,-1.60845c3.29042,0 5.56592,2.75068 5.56592,5.91199c0,3.18283 -2.25757,5.85282 -5.52647,5.85282c-1.26775,0 -2.57854,-0.451872 -3.41952,-1.42196l0,6.55932l-3.91443,0l0,-16.5382l3.91443,0l0.00358629,1.24444Z" style="fill:#000;fill-rule:nonzero;"/><path d="M866.654,475.305c-0.602496,-0.324559 -1.44527,-0.539736 -2.11053,-0.539736c-0.451872,0 -1.22651,0.193659 -1.22651,0.751327c0,0.754913 1.22651,0.860709 1.76266,0.968297c1.82901,0.365801 3.20255,1.22651 3.20255,3.2689c0,2.90489 -2.64847,4.10809 -5.20191,4.10809c-1.57079,0 -3.11828,-0.450079 -4.45237,-1.27134l1.42017,-2.72916c0.794362,0.561254 2.13205,1.12071 3.10034,1.12071c0.491321,0 1.22651,-0.238488 1.22651,-0.842777c0,-0.858916 -1.22651,-0.900158 -2.45123,-1.22651c-1.22651,-0.322766 -2.44764,-0.927055 -2.44764,-2.90131c0,-2.70944 2.44764,-3.91443 4.86121,-3.91443c1.24265,0 2.49426,0.190073 3.62753,0.708291l-1.31079,2.49964Z" style="fill:#000;fill-rule:nonzero;"/><path d="M273.589,422.473c-0.860709,-1.15837 -2.25936,-1.78418 -3.69925,-1.78418c-2.58033,0 -4.32147,1.97963 -4.32147,4.49362c0,2.56061 1.76266,4.40934 4.38603,4.40934c1.37713,0 2.75247,-0.668842 3.6347,-1.71962l0,5.05308c-1.39865,0.428561 -2.40998,0.751327 -3.72077,0.751327c-2.25936,0 -4.40934,-0.858916 -6.08772,-2.38667c-1.78418,-1.61024 -2.60185,-3.71898 -2.60185,-6.12896c0,-2.21274 0.839191,-4.34479 2.38847,-5.9353c1.59052,-1.63535 3.89112,-2.62337 6.17021,-2.62337c1.35562,0 2.60185,0.297662 3.84988,0.81588l0.00179314,5.05487Z" style="fill:#808080;fill-rule:nonzero;"/><path d="M279.653,427.738c0,1.40044 0.925262,2.47454 2.51578,2.47454c1.59052,0 2.51578,-1.07768 2.51578,-2.47454c0,-1.35203 -0.925262,-2.49426 -2.51578,-2.49426c-1.58872,0.00358629 -2.51578,1.14223 -2.51578,2.49426M288.814,427.738c0,3.74588 -3.09676,5.86896 -6.64539,5.86896c-3.52711,0 -6.64539,-2.10874 -6.64539,-5.86896c0,-3.75843 3.09855,-5.88868 6.64539,-5.88868c3.54863,0 6.64539,2.13025 6.64539,5.88868" style="fill:#808080;fill-rule:nonzero;"/><path d="M294.888,423.59l0.0430354,0c0.925262,-1.22651 2.06391,-1.74114 3.48228,-1.74114c1.59231,0 2.96765,0.643738 3.76381,2.10515c0.75312,-1.37713 2.23784,-2.10515 3.74229,-2.10515c2.7973,0 3.7656,1.8308 3.7656,4.3663l0,7.03271l-3.91622,0l0,-5.26825c0,-1.13865 0.0430354,-3.01069 -1.61204,-3.01069c-1.8057,0 -1.87025,1.70169 -1.87025,3.01069l0,5.26825l-3.91443,0l0,-5.26825c0,-1.22472 0,-3.09496 -1.74294,-3.09496c-1.74294,0 -1.74294,1.87025 -1.74294,3.09496l0,5.26825l-3.91443,0l0,-11.0314l3.91443,0l0.00179314,1.37355Z" style="fill:#808080;fill-rule:nonzero;"/><path d="M316.471,423.59l0.0430354,0c0.925262,-1.22651 2.06391,-1.74114 3.48228,-1.74114c1.59231,0 2.96765,0.643738 3.76381,2.10515c0.75312,-1.37713 2.23784,-2.10515 3.74229,-2.10515c2.7973,0 3.7656,1.8308 3.7656,4.3663l0,7.03271l-3.91622,0l0,-5.26825c0,-1.13865 0.0430354,-3.01069 -1.61204,-3.01069c-1.8057,0 -1.87025,1.70169 -1.87025,3.01069l0,5.26825l-3.91443,0l0,-5.26825c0,-1.22472 0,-3.09496 -1.74294,-3.09496c-1.74294,0 -1.74294,1.87025 -1.74294,3.09496l0,5.26825l-3.91443,0l0,-11.0314l3.91443,0l0.00179314,1.37355Z" style="fill:#808080;fill-rule:nonzero;"/><path d="M337.932,422.212l0,5.89406c0,1.39507 0.344283,2.38847 1.95811,2.38847c1.61383,0 1.95632,-0.993401 1.95632,-2.38847l0,-5.89406l3.91622,0l0,6.64718c0,3.6347 -2.56061,4.75004 -5.87075,4.75004c-3.31014,0 -5.87075,-1.11533 -5.87075,-4.75004l0,-6.64718l3.91084,0Z" style="fill:#808080;fill-rule:nonzero;"/><path d="M352.469,423.635l0.0430354,0c0.901951,-1.3341 1.99935,-1.78597 3.52711,-1.78597c2.96765,0 4.14933,1.87025 4.14933,4.58148l0,6.81574l-3.91443,0l0,-5.37584c0,-1.05437 0.172142,-2.9031 -1.76266,-2.9031c-1.59231,0 -2.04418,1.18347 -2.04418,2.5624l0,5.71654l-3.91443,0l0,-11.0296l3.91443,0l0.00179314,1.41838Z" style="fill:#808080;fill-rule:nonzero;"/><path d="M366.917,433.247l-3.91443,0l0,-11.0296l3.91443,0l0,11.0296ZM367.151,417.976c0,1.20499 -0.989815,2.19301 -2.19481,2.19301c-1.2032,0 -2.19301,-0.988022 -2.19301,-2.19301c0,-1.20499 0.989815,-2.19481 2.19301,-2.19481c1.20858,0 2.19481,0.989815 2.19481,2.19481" style="fill:#808080;fill-rule:nonzero;"/><path d="M374.175,433.247l-3.91443,0l0,-7.80734l-1.26955,0l0,-3.22766l1.26955,0l0,-3.31373l3.91443,0l0,3.31373l2.21453,0l0,3.22766l-2.21453,0l0,7.80734Z" style="fill:#808080;fill-rule:nonzero;"/><path d="M377.106,422.212l4.51693,0l2.94613,5.65557l2.88158,-5.65557l4.45058,0l-8.8384,16.54l-4.38782,0l3.7656,-7.01119l-5.3346,-9.52876Z" style="fill:#808080;fill-rule:nonzero;"/><path d="M269.868,454.497c-0.580978,-0.430354 -1.26955,-0.776431 -2.02087,-0.776431c-1.50624,0 -2.68971,1.15837 -2.68971,2.68613c0,1.5941 1.14044,2.71123 2.75247,2.71123c0.688567,0 1.44169,-0.277937 1.95811,-0.75312l0,3.31552c-0.858916,0.428561 -1.80749,0.624014 -2.75247,0.624014c-3.2689,0 -6.00165,-2.42792 -6.00165,-5.76316c0,-3.54863 2.71123,-6.00165 6.172,-6.00165c0.903744,0 1.80749,0.215177 2.58033,0.645531l0.00179314,3.31194Z" style="fill:#808080;fill-rule:nonzero;"/><path d="M275.778,456.428c0,1.40044 0.925262,2.47454 2.51578,2.47454c1.59052,0 2.51578,-1.07768 2.51578,-2.47454c0,-1.35203 -0.925262,-2.49426 -2.51578,-2.49426c-1.59052,0.00358629 -2.51578,1.14223 -2.51578,2.49426M284.597,461.937l-3.91622,0l0,-1.22651l-0.0412423,0c-0.688567,1.09382 -2.04418,1.59052 -3.33345,1.59052c-3.26711,0 -5.5695,-2.72558 -5.5695,-5.89406c0,-3.15952 2.25936,-5.86716 5.52826,-5.86716c1.26775,0 2.60185,0.47339 3.41773,1.44348l0,-1.07589l3.91622,0l-0.00179314,11.0296Z" style="fill:#808080;fill-rule:nonzero;"/><path d="M291.398,452.711l0.0430354,0c0.751327,-1.35562 2.04239,-1.95991 3.56835,-1.95991l0.75312,0l0,3.76739c-0.537943,-0.301248 -1.05437,-0.365801 -1.65507,-0.365801c-2.17329,0 -2.71123,1.44169 -2.71123,3.33166l0,4.45058l-3.91443,0l0,-11.0332l3.91443,0l0.00179314,1.80928Z" style="fill:#808080;fill-rule:nonzero;"/><path d="M305.43,454.819c-0.193659,-1.05437 -1.16196,-1.74473 -2.21453,-1.74473c-1.14044,0 -2.08722,0.602496 -2.32391,1.74473l4.53844,0ZM309.063,457.077l-8.2377,0c0,1.59231 0.839191,2.45123 2.45123,2.45123c0.839191,0 1.44169,-0.27973 1.87204,-1.00954l3.76381,0c-0.624014,2.60364 -3.09676,3.78712 -5.61254,3.78712c-3.65622,0 -6.38718,-2.06391 -6.38718,-5.86896c0,-3.68132 2.51578,-5.89406 6.10745,-5.89406c3.82836,0 6.04289,2.36336 6.04289,6.12896l0,0.40525Z" style="fill:#808080;fill-rule:nonzero;"/><path d="M327.055,454.497c-0.580978,-0.430354 -1.26955,-0.776431 -2.02267,-0.776431c-1.50445,0 -2.68792,1.15837 -2.68792,2.68613c0,1.5941 1.14044,2.71123 2.75247,2.71123c0.688567,0 1.44169,-0.277937 1.95811,-0.75312l0,3.31552c-0.858916,0.428561 -1.80749,0.624014 -2.75247,0.624014c-3.2689,0 -6.00165,-2.42792 -6.00165,-5.76316c0,-3.54863 2.71123,-6.00165 6.172,-6.00165c0.903744,0 1.80749,0.215177 2.58033,0.645531l0.00179314,3.31194Z" style="fill:#808080;fill-rule:nonzero;"/><path d="M332.994,456.428c0,1.40044 0.925262,2.47454 2.51578,2.47454c1.59052,0 2.51578,-1.07768 2.51578,-2.47454c0,-1.35203 -0.925262,-2.49426 -2.51578,-2.49426c-1.59231,0.00358629 -2.51578,1.14223 -2.51578,2.49426M342.153,456.428c0,3.74588 -3.09676,5.86896 -6.64539,5.86896c-3.52711,0 -6.64539,-2.10874 -6.64539,-5.86896c0,-3.75843 3.09855,-5.88868 6.64539,-5.88868c3.55042,0 6.64539,2.13025 6.64539,5.88868" style="fill:#808080;fill-rule:nonzero;"/><path d="M347.667,456.428c0,1.40044 0.925262,2.47454 2.51578,2.47454c1.59052,0 2.51578,-1.07768 2.51578,-2.47454c0,-1.35203 -0.925262,-2.49426 -2.51578,-2.49426c-1.59052,0.00358629 -2.51578,1.14223 -2.51578,2.49426M356.83,456.428c0,3.74588 -3.09855,5.86896 -6.64539,5.86896c-3.52711,0 -6.64539,-2.10874 -6.64539,-5.86896c0,-3.75843 3.09855,-5.88868 6.64539,-5.88868c3.54684,0 6.64539,2.13025 6.64539,5.88868" style="fill:#808080;fill-rule:nonzero;"/><path d="M362.898,452.711l0.0430354,0c0.751327,-1.35562 2.04239,-1.95991 3.56835,-1.95991l0.75312,0l0,3.76739c-0.537943,-0.301248 -1.05437,-0.365801 -1.65686,-0.365801c-2.1715,0 -2.70944,1.44169 -2.70944,3.33166l0,4.45058l-3.91443,0l0,-11.0332l3.91443,0l0.00179314,1.80928Z" style="fill:#808080;fill-rule:nonzero;"/><path d="M372.531,456.428c0,1.40044 0.925262,2.47454 2.51578,2.47454c1.59052,0 2.51578,-1.07768 2.51578,-2.47454c0,-1.35203 -0.925262,-2.49426 -2.51578,-2.49426c-1.59052,0.00358629 -2.51578,1.14223 -2.51578,2.49426M377.433,460.71l-0.0412423,0c-0.688567,1.0974 -2.04418,1.5941 -3.33345,1.5941c-3.26711,0 -5.5695,-2.72916 -5.5695,-5.89406c0,-3.16131 2.25936,-5.86716 5.52826,-5.86716c1.26775,0 2.60185,0.471597 3.41773,1.43989l0,-7.88983l3.91622,0l0,17.8507l-3.91622,0l-0.00179314,-1.23368Z" style="fill:#808080;fill-rule:nonzero;"/><path d="M388.085,461.937l-3.91443,0l0,-11.0296l3.91443,0l0,11.0296ZM388.321,446.667c0,1.20499 -0.989815,2.19301 -2.19481,2.19301c-1.2032,0 -2.19301,-0.988022 -2.19301,-2.19301c0,-1.20499 0.989815,-2.19481 2.19301,-2.19481c1.20499,0 2.19481,0.989815 2.19481,2.19481" style="fill:#808080;fill-rule:nonzero;"/><path d="M394.85,452.326l0.0430354,0c0.901951,-1.3341 1.99935,-1.78597 3.52711,-1.78597c2.96765,0 4.14933,1.87025 4.14933,4.58148l0,6.81574l-3.91443,0l0,-5.37584c0,-1.05437 0.172142,-2.9031 -1.76266,-2.9031c-1.59231,0 -2.04418,1.18347 -2.04418,2.5624l0,5.71654l-3.91443,0l0,-11.0296l3.91443,0l0.00179314,1.41838Z" style="fill:#808080;fill-rule:nonzero;"/><path d="M408.744,456.428c0,1.40044 0.925262,2.47454 2.51578,2.47454c1.59052,0 2.51578,-1.07768 2.51578,-2.47454c0,-1.35203 -0.925262,-2.49426 -2.51578,-2.49426c-1.59052,0.00358629 -2.51578,1.14223 -2.51578,2.49426M417.562,461.937l-3.91622,0l0,-1.22651l-0.0412423,0c-0.688567,1.09382 -2.04418,1.59052 -3.33345,1.59052c-3.26711,0 -5.5695,-2.72558 -5.5695,-5.89406c0,-3.15952 2.25936,-5.86716 5.52826,-5.86716c1.26775,0 2.60185,0.47339 3.41773,1.44348l0,-1.07589l3.91622,0l-0.00179314,11.0296Z" style="fill:#808080;fill-rule:nonzero;"/><path d="M424.907,461.937l-3.91443,0l0,-7.80734l-1.26955,0l0,-3.22766l1.26955,0l0,-3.31373l3.91443,0l0,3.31373l2.21453,0l0,3.22766l-2.21453,0l0,7.80734Z" style="fill:#808080;fill-rule:nonzero;"/><path d="M432.19,456.428c0,1.40044 0.925262,2.47454 2.51578,2.47454c1.59052,0 2.51578,-1.07768 2.51578,-2.47454c0,-1.35203 -0.925262,-2.49426 -2.51578,-2.49426c-1.59052,0.00358629 -2.51578,1.14223 -2.51578,2.49426M441.351,456.428c0,3.74588 -3.09855,5.86896 -6.64539,5.86896c-3.52711,0 -6.64539,-2.10874 -6.64539,-5.86896c0,-3.75843 3.09855,-5.88868 6.64539,-5.88868c3.54684,0 6.64539,2.13025 6.64539,5.88868" style="fill:#808080;fill-rule:nonzero;"/><path d="M447.423,452.711l0.0430354,0c0.751327,-1.35562 2.04239,-1.95991 3.56835,-1.95991l0.75312,0l0,3.76739c-0.537943,-0.301248 -1.05437,-0.365801 -1.65507,-0.365801c-2.17329,0 -2.71123,1.44169 -2.71123,3.33166l0,4.45058l-3.91443,0l0,-11.0332l3.91443,0l0.00179314,1.80928Z" style="fill:#808080;fill-rule:nonzero;"/><path d="M767.271,77.9255l5.05128,0l0,3.57015l-9.26876,0l0,-16.2154l4.21747,0l0,12.6452Z" style="fill:#808080;fill-rule:nonzero;"/><path d="M777.52,75.9896c0,1.39865 0.925262,2.47274 2.51219,2.47274c1.5941,0 2.51578,-1.07589 2.51578,-2.47274c0,-1.35382 -0.925262,-2.49426 -2.51578,-2.49426c-1.58693,0 -2.51219,1.14044 -2.51219,2.49426M786.681,75.9896c0,3.74229 -3.09855,5.87075 -6.64539,5.87075c-3.52711,0 -6.64539,-2.10874 -6.64539,-5.87075c0,-3.76201 3.10214,-5.89227 6.64539,-5.89227c3.54684,0 6.64539,2.13025 6.64539,5.89227" style="fill:#808080;fill-rule:nonzero;"/><path d="M796.84,74.0547c-0.580978,-0.430354 -1.26955,-0.774638 -2.02267,-0.774638c-1.50624,0 -2.68971,1.16196 -2.68971,2.68792c0,1.59231 1.14223,2.70944 2.75247,2.70944c0.69036,0 1.44348,-0.27973 1.95991,-0.751327l0,3.31194c-0.858916,0.430354 -1.80928,0.624014 -2.75247,0.624014c-3.26531,0 -6.00344,-2.42971 -6.00344,-5.76316c0,-3.54863 2.71303,-5.99986 6.17379,-5.99986c0.901951,0 1.8057,0.215177 2.57675,0.645531l0,3.31014l0.00537943,0Z" style="fill:#808080;fill-rule:nonzero;"/><path d="M802.754,75.9896c0,1.39865 0.928848,2.47274 2.51399,2.47274c1.59231,0 2.51757,-1.07589 2.51757,-2.47274c0,-1.35382 -0.928848,-2.49426 -2.51757,-2.49426c-1.58693,0 -2.51399,1.14044 -2.51399,2.49426M811.572,81.4946l-3.91802,0l0,-1.22651l-0.0394491,0c-0.688567,1.0974 -2.04598,1.59231 -3.32987,1.59231c-3.2689,0 -5.5695,-2.73096 -5.5695,-5.89406c0,-3.16131 2.26295,-5.87075 5.52826,-5.87075c1.26775,0 2.60006,0.47339 3.41594,1.44169l0,-1.07589l3.91802,0l-0.00537943,11.0332Z" style="fill:#808080;fill-rule:nonzero;"/><rect x="814.451" y="63.644" width="3.91622" height="17.8507" style="fill:#808080;fill-rule:nonzero;"/><path d="M833.106,63.6451l0,8.21618l0.037656,0c0.903744,-1.20499 2.00115,-1.76266 3.52891,-1.76266c2.7991,0 4.14933,1.84873 4.14933,4.64424l0,6.75298l-3.91622,0l0,-5.65557c0,-1.29106 -0.191866,-2.62337 -1.76087,-2.62337c-1.54928,0 -2.04598,1.3341 -2.04598,2.62337l0,5.65557l-3.91622,0l0,-17.8507l3.9234,0Z" style="fill:#808080;fill-rule:nonzero;"/><path d="M851.463,74.3769c-0.190073,-1.05437 -1.15837,-1.74294 -2.21095,-1.74294c-1.14403,0 -2.08722,0.602496 -2.32391,1.74294l4.53486,0ZM855.096,76.6344l-8.23591,0c0,1.59052 0.837398,2.45123 2.45123,2.45123c0.839191,0 1.44169,-0.27973 1.87204,-1.00954l3.76201,0c-0.622221,2.60185 -3.09496,3.78532 -5.61254,3.78532c-3.65622,0 -6.38718,-2.06391 -6.38718,-5.87075c0,-3.67774 2.51399,-5.89227 6.10565,-5.89227c3.83015,0 6.04289,2.36516 6.04289,6.12896l0.00179314,0.407043Z" style="fill:#808080;fill-rule:nonzero;"/><path d="M860.6,75.9896c0,1.39865 0.925262,2.47274 2.51219,2.47274c1.5941,0 2.51578,-1.07589 2.51578,-2.47274c0,-1.35382 -0.925262,-2.49426 -2.51578,-2.49426c-1.58693,0 -2.51219,1.14044 -2.51219,2.49426M869.419,81.4946l-3.91981,0l0,-1.22651l-0.037656,0c-0.692153,1.0974 -2.04777,1.59231 -3.33345,1.59231c-3.26711,0 -5.56592,-2.73096 -5.56592,-5.89406c0,-3.16131 2.25936,-5.87075 5.52467,-5.87075c1.26775,0 2.60185,0.47339 3.41773,1.44169l0,-1.07589l3.91981,0l-0.00537943,11.0332Z" style="fill:#808080;fill-rule:nonzero;"/><rect x="872.292" y="63.644" width="3.91981" height="17.8507" style="fill:#808080;fill-rule:nonzero;"/><path d="M883.531,81.4942l-3.91981,0l0,-7.80734l-1.26955,0l0,-3.22586l1.26955,0l0,-3.31194l3.91981,0l0,3.31194l2.20915,0l0,3.22586l-2.20915,0l0,7.80734Z" style="fill:#808080;fill-rule:nonzero;"/><path d="M891.414,63.6451l0,8.21618l0.0430354,0c0.901951,-1.20499 1.99756,-1.76266 3.52711,-1.76266c2.7973,0 4.14754,1.84873 4.14754,4.64424l0,6.75298l-3.91622,0l0,-5.65557c0,-1.29106 -0.191866,-2.62337 -1.76087,-2.62337c-1.54569,0 -2.04598,1.3341 -2.04598,2.62337l0,5.65557l-3.91443,0l0,-17.8507l3.91981,0Z" style="fill:#808080;fill-rule:nonzero;"/><path d="M767.271,110.185l-3.91622,0l0,-7.80734l-1.37534,0l0,-3.22586l1.37534,0l0,-1.39686c0,-1.52776 0.0448286,-2.64489 1.11892,-3.8714c0.966504,-1.14044 2.36516,-1.76266 3.84988,-1.76266c0.602496,0 1.14044,0.107589 1.67659,0.387319l0,3.37649c-0.450079,-0.193659 -0.857122,-0.365801 -1.37534,-0.365801c-1.01133,0 -1.3592,0.602496 -1.3592,1.85052l0,1.78418l2.73096,0l0,3.22586l-2.73096,0l0.00537943,7.80555Z" style="fill:#808080;fill-rule:nonzero;"/><path d="M775.042,104.68c0,1.39865 0.927055,2.47274 2.51219,2.47274c1.59231,0 2.51757,-1.07589 2.51757,-2.47274c0,-1.35382 -0.928848,-2.49426 -2.51757,-2.49426c-1.58693,0 -2.51219,1.14044 -2.51219,2.49426M783.857,110.185l-3.91802,0l0,-1.22651l-0.0358629,0c-0.692153,1.0974 -2.04956,1.59231 -3.33345,1.59231c-3.2689,0 -5.5695,-2.73096 -5.5695,-5.89406c0,-3.16131 2.26295,-5.87075 5.52826,-5.87075c1.26775,0 2.60006,0.47339 3.41594,1.44169l0,-1.07589l3.9216,0l-0.00896572,11.0332Z" style="fill:#808080;fill-rule:nonzero;"/><path d="M794.79,102.745c-0.580978,-0.430354 -1.26955,-0.774638 -2.02267,-0.774638c-1.50445,0 -2.68792,1.16196 -2.68792,2.68792c0,1.59231 1.14044,2.70944 2.75247,2.70944c0.688567,0 1.44169,-0.27973 1.95811,-0.751327l0,3.31194c-0.858916,0.430354 -1.80749,0.624014 -2.75247,0.624014c-3.26711,0 -6.00165,-2.42971 -6.00165,-5.76316c0,-3.54863 2.71123,-5.99986 6.17021,-5.99986c0.901951,0 1.8057,0.215177 2.57854,0.645531l0.00537943,3.31014Z" style="fill:#808080;fill-rule:nonzero;"/><path d="M801.4,110.185l-3.91622,0l0,-11.0332l3.91622,0l0,11.0332ZM801.637,94.9164c0,1.20141 -0.991608,2.19301 -2.1966,2.19301c-1.2032,0 -2.19301,-0.991608 -2.19301,-2.19301c0,-1.20499 0.989815,-2.1966 2.19301,-2.1966c1.20679,0.00358629 2.1966,0.991608 2.1966,2.1966" style="fill:#808080;fill-rule:nonzero;"/><rect x="804.239" y="92.3343" width="3.91802" height="17.8507" style="fill:#808080;fill-rule:nonzero;"/><path d="M814.919,110.185l-3.91622,0l0,-11.0332l3.91622,0l0,11.0332ZM815.154,94.9164c0,1.20141 -0.991608,2.19301 -2.1966,2.19301c-1.2032,0 -2.19301,-0.991608 -2.19301,-2.19301c0,-1.20499 0.989815,-2.1966 2.19301,-2.1966c1.20679,0.00358629 2.1966,0.991608 2.1966,2.1966" style="fill:#808080;fill-rule:nonzero;"/><path d="M822.177,110.185l-3.91622,0l0,-7.80734l-1.26955,0l0,-3.22586l1.26955,0l0,-3.31194l3.91622,0l0,3.31194l2.21274,0l0,3.22586l-2.21274,0l0,7.80734Z" style="fill:#808080;fill-rule:nonzero;"/><path d="M825.107,99.1535l4.51693,0l2.94613,5.65557l2.88158,-5.65557l4.45058,0l-8.84199,16.5382l-4.38423,0l3.7656,-7.01119l-5.3346,-9.52697Z" style="fill:#808080;fill-rule:nonzero;"/><rect x="781.71" y="281.292" width="135.278" height="84.7404" style="fill:#fff;fill-rule:nonzero;"/><path d="M819.223,343.758l-0.0179314,0l-0.860709,4.88273l-0.952159,0l1.50803,-7.70155l2.5355,5.81875l2.5373,-5.81875l1.51162,7.70155l-0.948573,0l-0.864295,-4.88273l-0.0197246,0l-2.21632,5.04053l-2.21274,-5.04053Z" style="fill:#000;fill-rule:nonzero;"/><path d="M826.357,341.252l3.96823,0l0,0.842777l-3.04476,0l0,2.06929l2.95689,0l0,0.840984l-2.95689,0l0,2.79192l3.04476,0l0,0.84457l-3.96823,0l0,-7.38954Z" style="fill:#000;fill-rule:nonzero;"/><path d="M832.279,347.796l0.322766,0c1.8828,0 3.50559,-0.706498 3.50559,-2.84751c0,-2.15536 -1.62279,-2.85468 -3.50559,-2.85468l-0.322766,0l0,5.70219ZM831.361,341.253l1.52955,0c2.26115,0 4.14216,1.19244 4.14216,3.65443c0,2.51757 -1.83976,3.73332 -4.17444,3.73332l-1.49548,0l0,-7.38775l-0.00179314,0Z" style="fill:#000;fill-rule:nonzero;"/><rect x="838.024" y="341.253" width="0.923469" height="7.38775" style="fill:#000;fill-rule:nonzero;"/><path d="M845.77,342.662c-0.532563,-0.47339 -1.25341,-0.72443 -1.95094,-0.72443c-1.65328,0 -2.91924,1.38072 -2.91924,3.01786c0,1.61921 1.25341,2.99634 2.90131,2.99634c0.726223,0 1.41838,-0.272558 1.96887,-0.765672l0,1.09023c-0.56484,0.335318 -1.29286,0.521805 -1.94018,0.521805c-2.10874,0 -3.84808,-1.67838 -3.84808,-3.81402c0,-2.18584 1.7519,-3.89112 3.9234,-3.89112c0.650911,0 1.3072,0.15959 1.86666,0.500287l0,1.0723l-0.00358629,0l0,-0.00358629l0.00179314,0Z" style="fill:#000;fill-rule:nonzero;"/><path d="M856.182,342.527l-0.0215177,0l-2.57675,6.35849l-2.57316,-6.35849l-0.0179314,0l-1.26417,6.11282l-0.448286,0l1.58514,-7.63341l2.7184,6.71891l2.7202,-6.71891l1.58693,7.63341l-0.448286,0l-1.26058,-6.11282Z" style="fill:#000;fill-rule:nonzero;"/><path d="M858.949,344.945c0,1.82183 1.517,3.35138 3.36214,3.35138c1.8308,0 3.36214,-1.54031 3.36214,-3.35138c0,-1.82363 -1.53134,-3.35138 -3.36214,-3.35138c-1.84514,0 -3.36214,1.52955 -3.36214,3.35138M866.139,344.945c0,2.07646 -1.75549,3.7925 -3.82836,3.7925c-2.07646,0 -3.83374,-1.71604 -3.83374,-3.7925c0,-2.07646 1.74831,-3.7925 3.83374,-3.7925c2.07467,0 3.82836,1.71604 3.82836,3.7925" style="fill:#000;fill-rule:nonzero;"/><path d="M867.925,348.195l1.12789,0c0.516425,0 1.05437,0.025104 1.50624,-0.283317c0.448286,-0.301248 0.720843,-0.763879 0.720843,-1.31437c0,-0.534357 -0.261799,-1.07409 -0.762086,-1.31796c-0.451872,-0.224143 -1.06692,-0.236695 -1.56003,-0.236695l-1.03644,0l0,3.15414l0.00358629,0l0,-0.00179314ZM867.925,344.6l0.812294,0c0.498494,0 0.901951,0.0304834 1.31975,-0.270765c0.423182,-0.304834 0.550495,-0.679601 0.550495,-1.18706c0,-0.480562 -0.184694,-0.953952 -0.606082,-1.21575c-0.371181,-0.238488 -0.833812,-0.238488 -1.26417,-0.238488l-0.812294,0l0,2.91206ZM867.453,348.64l0,-7.38775l1.48114,0c0.557667,0 1.08844,0.0394491 1.53134,0.432147c0.448286,0.392698 0.616841,0.939607 0.616841,1.52417c0,0.679601 -0.265385,1.1763 -0.853536,1.50983c0.910917,0.18828 1.52955,0.921676 1.52955,1.85949c0,0.595323 -0.225936,1.13685 -0.686774,1.53134c-0.518218,0.437527 -1.06692,0.527184 -1.725,0.527184l-1.89356,0l0,0.00358629Z" style="fill:#000;fill-rule:nonzero;"/><rect x="873.105" y="341.253" width="0.469803" height="7.38775" style="fill:#000;fill-rule:nonzero;"/><path d="M875.774,348.195l1.88101,0l0,0.43932l-2.3544,0l0,-7.38237l0.475183,0l0,6.94305l-0.00179314,0Z" style="fill:#000;fill-rule:nonzero;"/><path d="M879.088,341.692l0,2.68613l2.97482,0l0,0.441113l-2.97482,0l0,3.37649l3.05552,0l0,0.43932l-3.52711,0l0,-7.38416l3.52711,0l0,0.435734l-3.05552,0l0,0.00537943Z" style="fill:#000;fill-rule:nonzero;"/><rect x="789.342" y="288.949" width="120.013" height="6.80139" style="fill:#58595b;fill-rule:nonzero;"/><rect x="789.342" y="295.75" width="120.013" height="4.0794" style="fill:#64a2c8;fill-rule:nonzero;"/><path d="M846.511,324.604l-3.99692,3.52353c-0.118347,0.105795 -0.301248,0.0986229 -0.41063,-0.025104l-3.66877,-4.16368c-0.105795,-0.114761 -0.0932434,-0.301248 0.0268971,-0.41063l3.99333,-3.52173c0.120141,-0.105795 0.308421,-0.0914503 0.414216,0.0233109l3.66518,4.16368c0.104002,0.120141 0.0968297,0.301248 -0.0233109,0.41063M857.919,314.256c-0.0340697,-1.06513 -0.855329,-0.71905 -1.13147,-0.631186c1.11175,-0.692153 2.0657,-2.71661 1.81466,-3.59525c-0.195453,-0.679601 -0.643738,-0.448286 -1.19244,0.0896572c1.60666,-3.62574 -0.772845,-5.5713 -0.772845,-5.5695c-0.41063,-0.268971 -0.701119,0.0914503 -0.697533,0.631186c0.0842777,4.36272 -3.10034,6.88208 -6.58442,8.9693c-2.61261,1.68914 -3.54146,4.53486 -3.85884,6.56649c-0.0806914,0.252833 -0.268971,0.129106 -0.358629,0.0537943l-2.01191,-2.28088c-0.21697,-0.252833 -0.528977,-0.367594 -0.837398,-0.360422c-0.234902,0.0107589 -0.476976,0.0932434 -0.665256,0.265385l-0.0914503,0.0806914l0,-0.00179314l-0.00358629,0.00179314l-0.484149,-0.554081c-0.139865,-0.15959 -0.338904,-0.247454 -0.53077,-0.247454c-0.148831,0 -0.292282,0.0430354 -0.407043,0.147038l-0.267178,0.234902c-0.263592,0.234902 -0.272558,0.654497 -0.0179314,0.943193l0.484149,0.555874l-3.30835,2.91744c-0.442906,0.387319 -0.482355,1.05795 -0.0968297,1.50445l11.4671,12.9913c0.213384,0.249247 0.523598,0.371181 0.830225,0.360422c0.242074,-0.00717257 0.480562,-0.0914503 0.672429,-0.265385l4.62272,-4.08119c0.437527,-0.385526 0.480562,-1.05975 0.0914503,-1.50265l-3.87857,-4.39141c0,-0.00358629 -0.00179314,-0.00717257 -0.00537943,-0.0107589c-0.141658,-0.227729 0.258213,-0.186487 0.258213,-0.186487l0,-0.00537943c0.629393,0.0233109 1.09382,-0.120141 1.42734,-0.34249c0.498494,-0.337111 -0.0735189,-0.586358 -0.157797,-0.828432c0.771051,0.367594 2.29343,0.0555874 2.67358,-0.433941c0.294075,-0.381939 -0.209798,-0.545115 -0.701119,-0.654497c1.22472,-0.570219 2.20736,-1.14223 2.73275,-2.49785c0.308421,-0.794362 -0.539736,-0.81588 -1.3861,-0.493114c0.693946,-0.693946 1.3861,-1.63176 1.73038,-2.83675c0.392698,-1.36996 -0.118347,-2.05315 -1.21934,-1.13506c1.00237,-0.984436 1.90073,-2.28446 1.86128,-3.40697" style="fill:#58595b;fill-rule:nonzero;"/><rect x="831.509" y="290.31" width="8.16059" height="5.4386" style="fill:#64a2c8;fill-rule:nonzero;"/><rect x="842.39" y="290.31" width="8.16059" height="5.4386" style="fill:#cc8c21;fill-rule:nonzero;"/><rect x="853.272" y="290.31" width="8.16059" height="5.4386" style="fill:#78b1b1;fill-rule:nonzero;"/><path d="M909.335,358.383l-119.961,0l0,-69.4287l119.961,0l0,69.4287ZM916.992,281.292l-135.278,0l0,84.7404l135.278,0l0,-84.7404Z" style="fill:#b3b3b3;fill-rule:nonzero;"/><path d="M863.488,381.222l-28.2761,0l0,-4.63707l28.2761,0l0,4.63707ZM773.628,371.523c0,0 3.03758,14.754 13.9166,14.754l0,0.00717257l123.609,0l0,-0.00717257c10.8808,0 13.922,-14.754 13.922,-14.754l-151.447,0Z" style="fill:#b3b3b3;fill-rule:nonzero;"/><path d="M451.629,229.364c-2.38129,0 -4.31789,-1.93301 -4.31789,-4.3143l0,-5.4386c0,-2.39923 -1.92942,-4.32865 -4.32506,-4.32865l-2.88517,0c-2.38488,0 -4.3143,1.92942 -4.3143,4.32865l0,5.4386c0,2.38129 -1.94377,4.3143 -4.32865,4.3143l-27.3867,0c-2.39564,0 -4.32865,1.94018 -4.32865,4.32865l0,97.3981c0,2.39743 1.93301,4.33044 4.32865,4.33044l47.5595,0c2.38847,0 4.33223,-1.93301 4.33223,-4.33044l0,-97.3981c-0.00179314,-2.38847 -1.93659,-4.32865 -4.33403,-4.32865" style="fill:#b3b3b3;fill-rule:nonzero;"/><path d="M409.199,313.163c0,-2.38847 1.92942,-4.32506 4.32865,-4.32506c2.38488,0 4.31789,1.93659 4.31789,4.32506c0,2.38847 -1.93301,4.33223 -4.31789,4.33223c-2.39923,0 -4.32865,-1.94377 -4.32865,-4.33223" style="fill:#fff;fill-rule:nonzero;"/><path d="M413.528,294.52c2.38488,0 4.31789,1.93301 4.31789,4.3143c0,2.38488 -1.93301,4.32865 -4.31789,4.32865c-2.39923,0 -4.32865,-1.94556 -4.32865,-4.32865c0,-2.38129 1.92942,-4.3143 4.32865,-4.3143" style="fill:#fff;fill-rule:nonzero;"/><path d="M409.199,284.511c0,-2.38667 1.92942,-4.31789 4.32865,-4.31789c2.38488,0 4.31789,1.92942 4.31789,4.31789c0,2.39205 -1.93301,4.32506 -4.31789,4.32506c-2.39923,0 -4.32865,-1.93301 -4.32865,-4.32506" style="fill:#fff;fill-rule:nonzero;"/><path d="M436.629,328.061l-18.1072,0c-1.19423,0 -2.16612,-0.962918 -2.16612,-2.15177c0,-1.20679 0.971884,-2.1697 2.16612,-2.1697l18.1072,0c1.2032,0 2.16074,0.962918 2.16074,2.1697c0,1.18885 -0.957538,2.15177 -2.16074,2.15177" style="fill:#fff;fill-rule:nonzero;"/><path d="M427.579,294.52c2.38847,0 4.31789,1.93301 4.31789,4.3143c0,2.38488 -1.92942,4.32865 -4.31789,4.32865c-2.39564,0 -4.32865,-1.94556 -4.32865,-4.32865c0,-2.38129 1.93301,-4.3143 4.32865,-4.3143" style="fill:#fff;fill-rule:nonzero;"/><path d="M423.25,284.511c0,-2.38667 1.93301,-4.31789 4.32865,-4.31789c2.38847,0 4.31789,1.92942 4.31789,4.31789c0,2.39205 -1.92942,4.32506 -4.31789,4.32506c-2.39564,0 -4.32865,-1.93301 -4.32865,-4.32506" style="fill:#fff;fill-rule:nonzero;"/><path d="M427.579,308.837c2.38847,0 4.31789,1.93659 4.31789,4.32506c0,2.38847 -1.92942,4.33223 -4.31789,4.33223c-2.39564,0 -4.32865,-1.94377 -4.32865,-4.33223c0,-2.38847 1.93301,-4.32506 4.32865,-4.32506" style="fill:#fff;fill-rule:nonzero;"/><path d="M441.63,317.495c-2.38129,0 -4.32506,-1.94377 -4.32506,-4.33223c0,-2.38847 1.94377,-4.32506 4.32506,-4.32506c2.38847,0 4.33223,1.93659 4.33223,4.32506c0,2.38847 -1.94377,4.33223 -4.33223,4.33223" style="fill:#fff;fill-rule:nonzero;"/><path d="M441.63,303.167c-2.38129,0 -4.32506,-1.94735 -4.32506,-4.33223c0,-2.38129 1.94377,-4.3143 4.32506,-4.3143c2.38847,0 4.33223,1.93301 4.33223,4.3143c0,2.38488 -1.94377,4.33223 -4.33223,4.33223" style="fill:#fff;fill-rule:nonzero;"/><path d="M441.63,288.836c-2.38129,0 -4.32506,-1.93301 -4.32506,-4.32506c0,-2.38667 1.94377,-4.31789 4.32506,-4.31789c2.38847,0 4.33223,1.92942 4.33223,4.31789c0,2.39205 -1.94377,4.32506 -4.33223,4.32506" style="fill:#fff;fill-rule:nonzero;"/><path d="M448.666,267.69c0,2.38847 -1.94377,4.31789 -4.33223,4.31789l-32.9705,0c-2.39743,0 -4.32865,-1.92942 -4.32865,-4.31789l0,-23.847c0,-2.38847 1.93122,-4.32147 4.32865,-4.32147l32.9705,0c2.38847,0 4.33223,1.93301 4.33223,4.32147l0,23.847Z" style="fill:#fff;fill-rule:nonzero;"/><path d="M426.612,258.169l-2.87441,2.53371c-0.0860709,0.0771051 -0.218763,0.0699326 -0.295869,-0.0179314l-2.63951,-2.99455c-0.075312,-0.0860709 -0.0681394,-0.220557 0.0197246,-0.294075l2.87262,-2.5355c0.087864,-0.075312 0.220557,-0.0681394 0.297662,0.0215177l2.63951,2.98738c0.075312,0.0914503 0.0681394,0.22235 -0.0197246,0.299455M434.821,250.726c-0.0286903,-0.763879 -0.616841,-0.518218 -0.812294,-0.455458c0.796156,-0.493114 1.48472,-1.95094 1.30361,-2.57854c-0.139865,-0.489528 -0.462631,-0.324559 -0.860709,0.0555874c1.15658,-2.60364 -0.554081,-4.00409 -0.554081,-4.0005c-0.294075,-0.195453 -0.503873,0.0645531 -0.496701,0.451872c0.0555874,3.13621 -2.23426,4.95087 -4.73928,6.45352c-1.88101,1.21575 -2.54626,3.25993 -2.77758,4.72493c-0.0573806,0.181107 -0.190073,0.0914503 -0.260006,0.037656l-1.44707,-1.64252c-0.157797,-0.179314 -0.378353,-0.265385 -0.600703,-0.256419c-0.173935,0.00537943 -0.34249,0.0681394 -0.482355,0.190073l-0.06276,0.0537943l-0.00179314,0l-0.00179314,0l-0.349663,-0.396285c-0.104002,-0.114761 -0.245661,-0.179314 -0.381939,-0.179314c-0.107589,0 -0.209798,0.0358629 -0.290489,0.105795l-0.195453,0.175728c-0.18828,0.163176 -0.193659,0.471597 -0.0107589,0.677808l0.349663,0.399871l-2.38129,2.09618c-0.317386,0.277937 -0.346077,0.762086 -0.0663463,1.08306l8.24487,9.34586c0.157797,0.177521 0.378353,0.265385 0.59891,0.261799c0.175728,-0.00896572 0.34249,-0.0699326 0.482355,-0.190073l3.32628,-2.93717c0.317386,-0.27973 0.34787,-0.765672 0.0681394,-1.07947l-2.78834,-3.16669c-0.00537943,-0.00358629 -0.00537943,-0.00537943 -0.00717257,-0.00717257c-0.102209,-0.164969 0.18828,-0.130899 0.18828,-0.130899l0,-0.00179314c0.448286,0.0143451 0.785397,-0.0914503 1.02209,-0.249247c0.358629,-0.243867 -0.0484149,-0.423182 -0.114761,-0.602496c0.559461,0.274351 1.65328,0.0430354 1.92584,-0.310214c0.213384,-0.274351 -0.15421,-0.389112 -0.505666,-0.469803c0.88402,-0.41063 1.59231,-0.819466 1.96887,-1.79314c0.22235,-0.572013 -0.387319,-0.588151 -0.996988,-0.356835c0.498494,-0.498494 0.996988,-1.17451 1.24265,-2.04598c0.27973,-0.982642 -0.0860709,-1.47038 -0.875054,-0.812294c0.720843,-0.708291 1.36817,-1.64252 1.33948,-2.45123" style="fill:#787878;fill-rule:nonzero;"/><path d="M344.413,178.006c9.89994,0 17.9243,8.12114 17.9243,18.1376c0,10.0183 -8.02432,18.1376 -17.9243,18.1376c-9.89994,0 -17.9243,-8.11935 -17.9243,-18.1376c0,-10.0165 8.02432,-18.1376 17.9243,-18.1376" style="fill:#64a2c8;fill-rule:nonzero;"/><path d="M380.139,241.356c-2.90131,-13.3195 -14.4115,-24.2881 -25.477,-24.2881l-9.28669,0l-9.08586,0.480562c-11.0655,0 -22.5757,10.7355 -25.4752,24.0568l-9.89815,54.3609c0,12.552 15.7563,12.552 15.7563,0l9.43731,-49.6234l-0.56484,40.3081l-6.26166,103.143c0,5.61074 3.17028,10.0559 8.71288,10.0559c5.56054,0 9.41759,-3.24021 9.41759,-8.85095l5.91558,-84.2759l4.29099,0l5.91558,84.2598c0,5.61074 4.10988,9.4409 9.66683,9.4409c5.5444,0 8.46364,-4.90604 8.46364,-10.5168l-6.25986,-103.299l-0.56484,-40.2184l9.43552,49.575c0,12.552 15.7546,12.552 15.7546,0l-9.89277,-54.6084Z" style="fill:#64a2c8;fill-rule:nonzero;"/><rect x="341.886" y="244.054" width="6.54856" height="6.54856" style="fill:#fff;fill-rule:nonzero;stroke-width:0.37px;stroke:#fff;"/><rect x="341.886" y="231.003" width="6.54856" height="6.54856" style="fill:#fff;fill-rule:nonzero;stroke-width:0.37px;stroke:#fff;"/><rect x="348.42" y="237.522" width="6.54856" height="6.54856" style="fill:#fff;fill-rule:nonzero;stroke-width:0.37px;stroke:#fff;"/><rect x="341.886" y="237.522" width="6.54856" height="6.54856" style="fill:#fff;fill-rule:nonzero;stroke-width:0.37px;stroke:#fff;"/><rect x="335.32" y="237.522" width="6.54856" height="6.54856" style="fill:#fff;fill-rule:nonzero;stroke-width:0.37px;stroke:#fff;"/><path d="M769.712,290.598c3.17566,11.3757 -11.1031,17.5854 -14.5011,6.50732l-8.59633,-27.0657l-7.39134,-15.5914l-4.26051,0l24.7579,84.111l-28.5253,0l0,57.2802c0,6.01062 -1.13865,9.66683 -6.26524,9.64532c-5.54798,0.0215177 -5.93889,-3.39263 -5.93889,-9.45883l-0.365801,-57.4666l-7.04705,0l-0.236695,57.4666c0,6.0662 -0.541529,9.24903 -5.58026,9.2311c-4.66217,0.0179314 -5.77213,-3.40697 -5.77213,-9.42117l0,-57.2766l-28.1649,0l24.7561,-84.111l-4.26051,0l-7.39134,16.054l-8.59274,26.1333c-3.3998,11.0798 -17.6786,7.17437 -14.5083,-4.19954l15.8729,-50.8625c1.95991,-5.94248 9.00875,-12.9035 21.9283,-12.9035l32.282,0c12.9196,0 19.9684,6.89822 21.9301,12.8407l15.8711,49.0873ZM731.946,203.792c0,9.18986 -7.3483,16.6332 -16.4288,16.6332c-9.07689,0 -16.4144,-7.44334 -16.4144,-16.6332c0,-9.19344 7.33395,-16.6368 16.4144,-16.6368c9.08227,-0.00179314 16.4288,7.44334 16.4288,16.6368M715.545,182.059c8.57481,0 16.1777,3.88933 21.0605,9.9627l11.1265,-20.6319c-8.2646,-8.73978 -23.5493,-13.9632 -32.6262,-13.9632c-9.44628,0 -22.2224,5.18398 -31.7799,14.4151l11.3488,19.9828c4.87197,-5.94965 12.3996,-9.76546 20.8704,-9.76546" style="fill:#89ac96;fill-rule:nonzero;"/><rect x="712.622" y="172.846" width="5.72192" height="5.72551" style="fill:#fff;fill-rule:nonzero;stroke-width:0.32px;stroke:#fff;"/><rect x="712.622" y="161.438" width="5.72192" height="5.72551" style="fill:#fff;fill-rule:nonzero;stroke-width:0.32px;stroke:#fff;"/><rect x="718.335" y="167.133" width="5.72192" height="5.72551" style="fill:#fff;fill-rule:nonzero;stroke-width:0.32px;stroke:#fff;"/><rect x="712.622" y="167.133" width="5.72192" height="5.72551" style="fill:#fff;fill-rule:nonzero;stroke-width:0.32px;stroke:#fff;"/><rect x="706.88" y="167.133" width="5.72551" height="5.72551" style="fill:#fff;fill-rule:nonzero;stroke-width:0.32px;stroke:#fff;"/></g></g></svg>