<?xml version="1.0" standalone="no"?><!DOCTYPE svg PUBLIC "-//W3C//DTD SVG 1.1//EN" "http://www.w3.org/Graphics/SVG/1.1/DTD/svg11.dtd"><svg width="100%" height="100%" viewBox="0 0 199 71" version="1.1" xmlns="http://www.w3.org/2000/svg" xmlns:xlink="http://www.w3.org/1999/xlink" xml:space="preserve" style="fill-rule:evenodd;clip-rule:evenodd;stroke-linejoin:round;stroke-miterlimit:1.41421;"><g id="modem"><rect x="169" y="18.802" width="30" height="35" style="fill:#b4b4b4;fill-rule:nonzero;"/><rect x="184" y="26.302" width="5" height="5" style="fill:#fff;fill-rule:nonzero;"/><rect x="184" y="41.302" width="5" height="5" style="fill:#fff;fill-rule:nonzero;"/><path d="M25.8087,15.0033c0,1.44185 -1.17019,2.61204 -2.61204,2.61204l-21.5846,0c-1.44185,0 -2.61204,-1.17019 -2.61204,-2.61204l0,-1.40528c0,-1.44185 1.17019,-2.61204 2.61204,-2.61204l21.5846,0c1.44185,0 2.61204,1.17019 2.61204,2.61204l0,1.40528Z" style="fill:#b4b4b4;fill-rule:nonzero;"/><path d="M168.972,17.137c-0.297354,-8.79236 -7.45087,-15.8349 -16.2562,-15.8349c-8.00497,0 -127.21,0.213612 -127.21,0.213612c-1.44616,0 -2.61986,1.18146 -2.61986,2.63718l-3.88656,31.8374l3.88656,32.4611c0,1.45572 1.1737,2.63718 2.61986,2.63718c0,0 119.205,0.213612 127.21,0.213612c8.80665,0 15.9615,-7.04391 16.2562,-15.8363c0.0117894,-0.0923013 0.0275085,-0.184603 0.0275085,-0.278223l0,-3.27274l0,-31.2269l0,-3.27274c0.00130993,-0.0949385 -0.0157191,-0.185921 -0.0275085,-0.278223" style="fill:#cdcdcd;fill-rule:nonzero;"/></g></svg>