<?xml version="1.0" standalone="no"?><!DOCTYPE svg PUBLIC "-//W3C//DTD SVG 1.1//EN" "http://www.w3.org/Graphics/SVG/1.1/DTD/svg11.dtd"><svg width="100%" height="100%" viewBox="0 0 152 342" version="1.1" xmlns="http://www.w3.org/2000/svg" xmlns:xlink="http://www.w3.org/1999/xlink" xml:space="preserve" style="fill-rule:evenodd;clip-rule:evenodd;stroke-miterlimit:10;"><g id="phone"><path d="M147.072,125.663c-0.524035,-13.1014 -0.15351,-26.5748 -0.518535,-39.7101c-0.547537,-19.6708 -1.18708,-38.1865 -2.07664,-57.6208c-0.332022,-7.25048 -0.44453,-13.6929 -2.59567,-17.9092c-5.14484,-10.0802 -16.1441,-9.34462 -31.1461,-9.86316c-12.1163,-0.418528 -23.7251,-0.258017 -35.2108,-0.00950063c-11.4848,-0.248517 -23.093,-0.409027 -35.2083,0.00950063c-15.004,0.518535 -26.0027,-0.217014 -31.1466,9.86316c-2.15264,4.21628 -2.26415,10.6587 -2.59567,17.9092c-0.890059,19.4343 -1.5291,37.95 -2.07714,57.6208c-0.365024,13.1354 0.0045003,26.6088 -0.518535,39.7101c-1.5696,39.2556 -0.779052,81.5034 -0.779052,114.724c0,19.5043 0.259517,40.5697 0.259517,60.736c0,7.05447 -0.197013,13.9144 1.29809,18.9463c2.22065,7.4775 7.31499,10.9097 14.5935,12.4138c1.4566,0.350523 2.9692,0.557537 4.58081,0.683546c2.9527,0.29852 37.4744,2.14747 51.0738,1.98796c13.5989,0.159511 49.1603,-1.68944 52.113,-1.98796c1.61261,-0.126008 3.12621,-0.333022 4.58281,-0.683546c7.27949,-1.5041 12.3718,-4.93633 14.5925,-12.4138c1.4941,-5.03184 1.29809,-11.8918 1.29809,-18.9463c0,-20.1663 0.260517,-41.2317 0.260517,-60.736c-0.0015001,-33.2202 0.790053,-75.468 -0.779552,-114.724" style="fill:#d1d3d4;"/><path d="M127.804,315.603c0,3.24918 -2.68668,5.88352 -6.0004,5.88352l-22.4577,0l-70.0484,0c-3.31372,0 -6.0004,-2.63435 -6.0004,-5.88352l0,-280.448c0,-3.24918 2.68668,-5.88352 6.0004,-5.88352l92.5062,0c3.31372,0 6.0004,2.63435 6.0004,5.88352l0,280.448Z" style="fill:none;stroke-width:1.33px;stroke:#656464;"/><path d="M127.804,199.979l0,-165.387c0,-3.21413 -2.68668,-5.82007 -6.0004,-5.82007l-92.5062,0c-3.31372,0 -6.0004,2.60593 -6.0004,5.82007l0,165.387l104.507,0Z" style="fill:#a7a9ac;fill-rule:nonzero;"/><path d="M127.804,199.979l0,-164.904c0,-3.20474 -2.68668,-5.80307 -6.0004,-5.80307l-92.5062,0c-3.31372,0 -6.0004,2.59832 -6.0004,5.80307l0,164.904l104.507,0Z" style="fill:none;stroke-width:1.33px;stroke:#58595b;"/><rect x="30.0018" y="54.2733" width="90.006" height="120.008" style="fill:#656464;fill-rule:nonzero;"/><path d="M94.0061,200.283l0,121.008" style="fill:none;stroke-width:1.33px;stroke:#656464;"/><path d="M58.2997,200.229l0,121.008" style="fill:none;stroke-width:1.33px;stroke:#58595b;"/><path d="M23.5473,297.485l104.007,0" style="fill:none;stroke-width:1.33px;stroke:#58595b;"/><path d="M23.5473,275.984l104.007,0" style="fill:none;stroke-width:1.33px;stroke:#58595b;"/><path d="M23.5473,254.482l104.007,0" style="fill:none;stroke-width:1.33px;stroke:#58595b;"/><path d="M23.5473,232.981l104.007,0" style="fill:none;stroke-width:1.33px;stroke:#58595b;"/><path d="M23.5473,215.48l34.5023,0" style="fill:none;stroke-width:1.33px;stroke:#58595b;"/><path d="M94.052,215.48l34.0023,0" style="fill:none;stroke-width:1.33px;stroke:#58595b;"/><path d="M33.548,207.729l14.501,0" style="fill:none;stroke-width:2px;stroke:#fff;"/><path d="M103.553,207.729l14.501,0" style="fill:none;stroke-width:2px;stroke:#fff;"/><path d="M102.507,226.285l0.0459734,0c0,-1.73612 1.4596,-3.0567 3.19621,-3.0567l10.7587,0c1.73662,0 3.50023,1.32059 3.50023,3.0567" style="fill:none;stroke-width:2.67px;stroke:#fff;"/><path d="M31.4449,226.285l0.0459734,0c0,-1.73612 1.4596,-3.0567 3.19621,-3.0567l10.7587,0c1.73662,0 3.50023,1.32059 3.50023,3.0567" style="fill:none;stroke-width:2.67px;stroke:#fff;"/><path d="M86.0515,212.229c0,-3.31372 -2.68668,-6.0004 -6.0004,-6.0004l-8.00053,0c-3.31372,0 -6.0004,2.68668 -6.0004,6.0004l0,8.50057c0,3.31372 2.68668,6.0004 6.0004,6.0004l8.00053,0c3.31372,0 6.0004,-2.68668 6.0004,-6.0004l0,-8.50057Z" style="fill:none;stroke-width:2px;stroke:#fff;"/><path d="M95.0061,16.5769c0,-1.27397 -0.906402,-2.30626 -2.02453,-2.30626l-35.9536,1.77636e-15c-1.11812,0 -2.02453,1.03229 -2.02453,2.30626l0,0.387248c0,1.27397 0.906402,2.30682 2.02453,2.30682l35.9536,0c1.11812,0 2.02453,-1.03285 2.02453,-2.30682l0,-0.387248Z" style="fill:#a7a9ac;fill-rule:nonzero;"/><g id="type"><text x="38.0023px" y="248px" style="font-family:Myriad Web Pro;font-size:12.0008px;fill:#fff;">1</text><text x="38.0023px" y="269.574px" style="font-family:Myriad Web Pro;font-size:12.0008px;fill:#fff;">4</text><text x="38.0023px" y="291.148px" style="font-family:Myriad Web Pro;font-size:12.0008px;fill:#fff;">7</text><text x="38.0023px" y="316.92px" style="font-family:Myriad Web Pro;font-size:16.0011px;fill:#fff;">*</text><text x="73.009px" y="248px" style="font-family:Myriad Web Pro;font-size:12.0008px;fill:#fff;">2</text><text x="73.009px" y="269.574px" style="font-family:Myriad Web Pro;font-size:12.0008px;fill:#fff;">5</text><text x="73.009px" y="291.148px" style="font-family:Myriad Web Pro;font-size:12.0008px;fill:#fff;">8</text><text x="73.009px" y="312.723px" style="font-family:Myriad Web Pro;font-size:12.0008px;fill:#fff;">0</text><text x="108.016px" y="248px" style="font-family:Myriad Web Pro;font-size:12.0008px;fill:#fff;">3</text><text x="108.016px" y="269.574px" style="font-family:Myriad Web Pro;font-size:12.0008px;fill:#fff;">6</text><text x="108.016px" y="291.148px" style="font-family:Myriad Web Pro;font-size:12.0008px;fill:#fff;">9</text><text x="108.016px" y="312.723px" style="font-family:Myriad Web Pro;font-size:12.0008px;fill:#fff;">#</text><path d="M71.7794,117.142l-8.20394,7.23546c-0.24779,0.218111 -0.626614,0.195152 -0.845845,-0.0543177l-7.53365,-8.54105c-0.219231,-0.24835 -0.195712,-0.628574 0.0520778,-0.847245l8.2031,-7.23518c0.24863,-0.218671 0.628014,-0.194312 0.847525,0.0534778l7.53337,8.54245c0.219791,0.24919 0.195152,0.627734 -0.0526378,0.846405M95.2119,95.8949c-0.0758768,-2.18335 -1.75413,-1.48478 -2.31942,-1.30195c2.27743,-1.41422 4.2393,-5.57401 3.72609,-7.37097c-0.400663,-1.40218 -1.3277,-0.921722 -2.45718,0.173033c3.2977,-7.44293 -1.58501,-11.4384 -1.58557,-11.4333c-0.839965,-0.552417 -1.4383,0.190672 -1.42542,1.29607c0.169393,8.95179 -6.37394,14.126 -13.5195,18.4168c-5.37214,3.47018 -7.27438,9.31073 -7.93319,13.4862c-0.164353,0.511819 -0.550177,0.268229 -0.736089,0.110035l-4.13263,-4.68617c-0.450781,-0.510699 -1.08691,-0.761008 -1.71829,-0.738889c-0.48886,0.0165193 -0.97492,0.195992 -1.36998,0.544577l-0.186472,0.164633l-0.00279988,-0.00335986l-0.00391984,0.00335986l-0.998159,-1.13143c-0.294828,-0.334026 -0.698011,-0.509579 -1.08999,-0.514339c-0.303227,-0.00195992 -0.599735,0.0982759 -0.834925,0.306027l-0.551017,0.4855c-0.542897,0.47822 -0.558017,1.34898 -0.0341586,1.94284l0.997879,1.13143l-6.79308,5.99147c-0.906602,0.799927 -0.992839,2.18195 -0.193472,3.08743l23.535,26.6854c0.448541,0.507899 1.08104,0.758489 1.71017,0.738889c0.49166,-0.0148394 0.980519,-0.195432 1.3781,-0.545417l9.49609,-8.37669c0.906882,-0.799367 0.992559,-2.18195 0.193192,-3.08743l-7.96399,-9.03019c-0.00419983,-0.00755969 -0.00699971,-0.0142794 -0.0123195,-0.0207191c-0.292588,-0.466461 0.533658,-0.376304 0.533658,-0.376304l0.00167993,-0.00811966c1.28235,0.0431182 2.23963,-0.254229 2.9186,-0.71089c1.03092,-0.692971 -0.141114,-1.20423 -0.322547,-1.70793c1.59033,0.765768 4.71696,0.113675 5.49617,-0.891203c0.607855,-0.784807 -0.439302,-1.11351 -1.43886,-1.33834c2.52298,-1.17175 4.53693,-2.34322 5.61769,-5.12715c0.633614,-1.63121 -1.10903,-1.67937 -2.8458,-1.02168c1.41646,-1.41758 2.8388,-3.35146 3.54689,-5.82824c0.801327,-2.80408 -0.24471,-4.2155 -2.50394,-2.32334c2.05567,-2.01424 3.9022,-4.68533 3.82156,-6.98963" style="fill:#fff;fill-rule:nonzero;"/></g></g></svg>