<?xml version="1.0" standalone="no"?><!DOCTYPE svg PUBLIC "-//W3C//DTD SVG 1.1//EN" "http://www.w3.org/Graphics/SVG/1.1/DTD/svg11.dtd"><svg width="100%" height="100%" viewBox="0 0 900 604" version="1.1" xmlns="http://www.w3.org/2000/svg" xmlns:xlink="http://www.w3.org/1999/xlink" xml:space="preserve" style="fill-rule:evenodd;clip-rule:evenodd;stroke-linejoin:round;stroke-miterlimit:1.41421;"><g id="training"><path d="M126.216,52.5914c0,29.0532 -23.5436,52.5914 -52.5969,52.5914c-29.0532,0 -52.5914,-23.5381 -52.5914,-52.5914c0,-29.0532 23.5381,-52.5914 52.5914,-52.5914c29.0532,0 52.5969,23.5381 52.5969,52.5914" style="fill:#e9a721;fill-rule:nonzero;"/><path d="M195.457,232.404c4.70213,0 9.48666,-1.80175 13.0682,-5.38328l67.7634,-67.7195c7.18503,-7.19053 7.20701,-18.8415 0.0219726,-26.0265c-7.19053,-7.19053 -18.8415,-7.19053 -26.032,0l-54.7117,53.8328c0,0 -58.4526,-66.5165 -73.4543,-66.5165c-14.9743,0 -86.6434,0 -86.6434,0c-17.3364,0 -35.4692,15.9027 -35.4692,33.239l2.93099e-14,131.555l135.955,0l-5.68434e-14,-100.25l44.2473,41.8852c3.6035,3.58153 10.5578,5.38328 15.2545,5.38328ZM195.457,232.404" style="fill:#e9a721;fill-rule:nonzero;"/><path d="M177.154,1.11511l0,136.856l16.4135,17.3364l12.4255,-12.3815l0,-108.852l333.168,5.34328e-12l0,222.472l-362.007,-5.40012e-12l0,28.839l390.846,5.34328e-12l0,-284.27l-390.846,-5.34328e-12ZM177.154,1.11511" style="fill:#8c8c8c;fill-rule:nonzero;"/><g id="Layer 1"><g><path d="M528.26,97.252c0,-23.8859 19.1386,-43.252 42.7432,-43.252c23.6045,0 42.7372,19.3661 42.7372,43.252c0,23.8859 -19.1327,43.246 -42.7372,43.246c-23.6045,0 -42.7432,-19.3601 -42.7432,-43.246" style="fill:#64a2c8;"/><path d="M656.188,206.879c-6.92032,-31.764 -34.3562,-56.7335 -60.7444,-56.7335l-22.1498,-0.628576l-21.6649,0c-26.3882,0 -53.8301,24.8916 -60.7444,56.6497l-23.5985,128.93c0,23.9458 37.5709,23.9458 37.5709,0l22.497,-117.496l-1.34695,96.5313l-14.9242,246.156c0,13.3797 7.55489,24.0834 20.7789,24.0834c13.248,0 22.4491,-9.36279 22.4491,-22.7425l14.11,-202.587l10.2248,0l14.11,202.605c0,13.3737 9.79381,23.3531 23.0478,23.3531c13.224,0 20.1803,-11.2725 20.1803,-24.6581l-14.9182,-246.108l-1.35294,-96.6331l22.503,117.496c0,23.9458 37.5649,23.9458 37.5649,0l-23.5926,-128.218Z" style="fill:#64a2c8;"/><path d="M599.003,195.929l-17.9593,0l0,-17.9593l-17.9593,0l0,17.9593l-17.9593,0l0,17.9593l17.9593,0l0,17.9593l17.9593,0l0,-17.9593l17.9593,0l0,-17.9593Z" style="fill:#fff;"/></g><path d="M123,265l-105,1l-16,291.618c0,14.825 8.371,26.6851 23.0236,26.6851c14.6791,0 24.8742,-10.3742 24.8742,-25.1992l15.6343,-203.104l11.3294,0l15.6343,203.124c0,14.8184 10.8518,25.8758 25.5375,25.8758c14.6526,0 22.3603,-12.4902 22.3603,-27.3218l-17.3935,-292.678Z" style="fill:#e9a721;"/></g><g id="Layer 11"><g><path d="M835.333,103.07c0,24.2126 -19.558,43.9501 -43.8962,43.9501c-24.3801,0 -43.9501,-19.7374 -43.9501,-43.9501c0,-24.3323 19.5699,-44.0697 43.9501,-44.0697c24.3383,0 43.8962,19.7374 43.8962,44.0697" style="fill:#64a2c8;fill-rule:nonzero;"/><path d="M893.487,329.174c0,0 -23.1537,-112.143 -34.0903,-134.662l0,-0.173503c-10.9845,-22.4776 -21.981,-36.0048 -63.6397,-36.0048l-8.6213,0c-41.6586,0 -52.6491,13.5272 -63.6337,36.0048l0,0.173503c-10.9845,22.5195 -34.1382,134.662 -34.1382,134.662c-1.74101,7.56233 2.91365,15.1247 10.6435,16.8178c1.01709,0.33504 2.02819,0.508543 3.04527,0.508543c6.54525,0 12.2529,-4.4333 13.7666,-10.9426l31.2305,-111.006l-30.4228,185.463l29.3639,0l9.08796,165.552c0,5.65978 4.64868,10.4341 10.3085,10.4341c6.00081,0 10.817,-4.77432 10.817,-10.4341l8.92044,-165.552l10.6495,0l8.92044,165.552c0,5.65978 4.76834,10.4341 10.7691,10.4341c5.65978,0 10.3144,-4.77432 10.3144,-10.4341l9.07599,-165.552l29.3698,0l-30.381,-185.463l31.2245,111.006c1.52563,6.50935 7.35293,10.9426 13.7366,10.9426c1.0111,0 2.02221,-0.173503 3.24869,-0.508543c7.52643,-1.69315 12.1751,-9.25548 10.4341,-16.8178" style="fill:#64a2c8;fill-rule:nonzero;"/><path d="M818.301,200.676l-17.9486,0l0,-17.9486l-17.9486,0l0,17.9486l-17.9486,0l0,17.9486l17.9486,0l0,17.9486l17.9486,0l0,-17.9486l17.9486,0l0,-17.9486Z" style="fill:#fff;"/></g></g><text x="252.137px" y="107.546px" style="font-family:Helvetica Neue;font-size:60.9438px;fill:#656464;">P<tspan x="292.847px 311.008px 346.112px 364.273px 397.122px 431.068px 466.171px " y="107.546px 107.546px 107.546px 107.546px 107.546px 107.546px 107.546px "> 7 Jane</tspan></text><rect x="0" y="584" width="900" height="20" style="fill:#656464;"/></g></svg>