<?xml version="1.0" standalone="no"?><!DOCTYPE svg PUBLIC "-//W3C//DTD SVG 1.1//EN" "http://www.w3.org/Graphics/SVG/1.1/DTD/svg11.dtd"><svg width="100%" height="100%" viewBox="0 0 60 60" version="1.1" xmlns="http://www.w3.org/2000/svg" xmlns:xlink="http://www.w3.org/1999/xlink" xml:space="preserve" style="fill-rule:evenodd;clip-rule:evenodd;stroke-linejoin:round;stroke-miterlimit:1.41421;"><g id="contact"><path d="M30,4.417c14.106,0 25.583,11.477 25.583,25.583c0,14.106 -11.477,25.583 -25.583,25.583c-14.106,0 -25.583,-11.477 -25.583,-25.583c0,-14.106 11.477,-25.583 25.583,-25.583M30,0c-16.568,0 -30,13.432 -30,30c0,16.569 13.432,30 30,30c16.569,0 30,-13.431 30,-30c0,-16.568 -13.431,-30 -30,-30Z" style="fill:#ebebeb;fill-rule:nonzero;"/><circle cx="30.552" cy="18.405" r="8.098" style="fill:#ebebeb;"/><path d="M37.777,25.743c-1.861,1.833 -4.412,2.969 -7.225,2.969c-3.024,0 -5.739,-1.317 -7.627,-3.399c-5.501,3.12 -8.092,10.108 -7.281,18.491l28.712,0c0.776,-8.018 -1.561,-14.757 -6.579,-18.061Z" style="fill:#ebebeb;fill-rule:nonzero;"/></g></svg>