<?xml version="1.0" standalone="no"?>
<!DOCTYPE svg PUBLIC "-//W3C//DTD SVG 1.1//EN" "http://www.w3.org/Graphics/SVG/1.1/DTD/svg11.dtd">
<svg width="800px" height="800px" version="1.1" xmlns="http://www.w3.org/2000/svg" xmlns:xlink="http://www.w3.org/1999/xlink" xml:space="preserve" style="fill-rule:evenodd;clip-rule:evenodd;stroke-linejoin:round;stroke-miterlimit:1.41421;">
    <g>
        <g id="hospital">
            <g>
                <path d="M480,140L540,140C552.013,140 560,148.084 560,160L560,260L726.092,260.051C742.841,260.051 760.05,274.882 760.05,294L760,659.909L800,659.909L800,760L3.16192e-13,760L1.25624e-11,659.909L39.9501,659.909L40,294C40,274.882 57.251,260 74,260L240,260L240,160C240,148.011 248.103,140 260,140L320,140L320,60C320,48.0026 327.996,40 340,40L460,40C471.898,40 480,48.1299 480,60L480,140Z" style="fill:rgb(51,51,51);"/>
            </g>
            <g>
                <rect x="120" y="340" width="80" height="120" style="fill:white;"/>
            </g>
            <g>
                <rect x="600" y="340" width="80" height="120" style="fill:white;"/>
            </g>
            <g>
                <rect x="120" y="540" width="80" height="120" style="fill:white;"/>
            </g>
            <g>
                <rect x="600" y="540" width="80" height="120" style="fill:white;"/>
            </g>
            <g>
                <path d="M440,500L440,580L360,580L360,500L280,500L280,420L360,420L360,340L440,340L440,420L520,420L520,500L440,500Z" style="fill:white;"/>
            </g>
        </g>
    </g>
</svg>
