<?xml version="1.0" encoding="utf-8"?>
<!-- Generator: Adobe Illustrator 15.0.0, SVG Export Plug-In . SVG Version: 6.00 Build 0)  -->
<!DOCTYPE svg PUBLIC "-//W3C//DTD SVG 1.1//EN" "http://www.w3.org/Graphics/SVG/1.1/DTD/svg11.dtd">
<svg version="1.1" id="Layer_1" xmlns="http://www.w3.org/2000/svg" xmlns:xlink="http://www.w3.org/1999/xlink" x="0px" y="0px"
	 width="100px" height="100px" viewBox="0 0 100 100" enable-background="new 0 0 100 100" xml:space="preserve">
<g>
	<path fill="#323232" d="M49.492,89.507c-21.56,0-39.101-17.541-39.101-39.101s17.541-39.101,39.101-39.101
		c21.561,0,39.101,17.541,39.101,39.101S71.052,89.507,49.492,89.507z"/>
	<path fill="#C8C8C8" d="M49.492,12.306c21.043,0,38.101,17.059,38.101,38.101c0,21.042-17.058,38.101-38.101,38.101
		c-21.042,0-38.101-17.058-38.101-38.101C11.391,29.365,28.45,12.306,49.492,12.306 M49.492,10.306
		c-22.111,0-40.101,17.989-40.101,40.101S27.38,90.507,49.492,90.507c22.112,0,40.101-17.989,40.101-40.101
		S71.604,10.306,49.492,10.306L49.492,10.306z"/>
</g>
<g>
	<path fill-rule="evenodd" clip-rule="evenodd" fill="#FFFFFF" d="M49.785,20.114c2.775,0,5.023,2.235,5.023,4.994
		c0,2.758-2.248,4.993-5.023,4.993c-2.772,0-5.02-2.235-5.02-4.993C44.765,22.349,47.013,20.114,49.785,20.114"/>
	<path fill-rule="evenodd" clip-rule="evenodd" fill="#FFFFFF" d="M59.04,54.178c1.358-1.268,2.211-3.064,2.211-5.06
		c0-1.345-0.391-2.594-1.053-3.657l-8.063-12.114c-1.877-2.602-5.863-2.299-8.132-0.093c0,0-4.806,4.666-5.78,5.621
		c-0.974,0.954-0.667,2.408,0.235,3.05l6.774,4.83c0.708,0.504,1.627,0.481,2.306,0.018l-7.278,14.269h8.815
		c-0.25,2.843-0.483,5.494-0.483,5.494L47.51,78.832c-0.112,1.245,0.816,2.342,2.067,2.451c1.255,0.109,2.356-0.811,2.465-2.056
		l1.6-18.185h5.671C59.314,61.042,59.037,54.179,59.04,54.178z M42.246,39.771l3.619-3.523l1.686,7.454
		c-0.127-0.184-0.283-0.351-0.475-0.487L42.246,39.771z"/>
</g>
</svg>
