<?xml version="1.0" encoding="utf-8"?>
<!-- Generator: Adobe Illustrator 15.0.0, SVG Export Plug-In . SVG Version: 6.00 Build 0)  -->
<!DOCTYPE svg PUBLIC "-//W3C//DTD SVG 1.1//EN" "http://www.w3.org/Graphics/SVG/1.1/DTD/svg11.dtd">
<svg version="1.1" id="Layer_1" xmlns="http://www.w3.org/2000/svg" xmlns:xlink="http://www.w3.org/1999/xlink" x="0px" y="0px"
	 width="100px" height="100px" viewBox="0 0 100 100" enable-background="new 0 0 100 100" xml:space="preserve">
<path fill="#323232" d="M89.399,51.696c-2.262-1.717-5.492-1.29-7.225,0.981c-0.162,0.229-0.297,0.473-0.432,0.709l-12.65-2.145
	c0.121-0.875,0.199-1.76,0.199-2.668c0-3.677-1.021-7.108-2.773-10.063l8.062-5.216c0.514,0.349,1.143,0.537,1.807,0.475
	c1.535-0.141,2.662-1.487,2.529-3.03c-0.139-1.536-1.5-2.66-3.031-2.523c-1.535,0.137-2.66,1.497-2.525,3.032
	c0.012,0.153,0.051,0.29,0.08,0.441l-8.01,5.171c-1.6-2.159-3.609-3.982-5.941-5.34l5.754-9.092c0.613,0.1,1.264,0.008,1.844-0.327
	c1.33-0.775,1.791-2.474,1.014-3.804c-0.77-1.337-2.477-1.801-3.807-1.025c-1.33,0.771-1.791,2.475-1.02,3.813
	c0.074,0.132,0.158,0.246,0.258,0.362l-5.795,9.153c-1.963-0.896-4.084-1.499-6.324-1.71l1.174-6.952
	c0.455-0.108,0.871-0.335,1.17-0.722c0.68-0.904,0.514-2.188-0.387-2.868c-0.902-0.69-2.188-0.514-2.873,0.386
	c-0.68,0.897-0.51,2.187,0.387,2.869c0.088,0.057,0.189,0.079,0.279,0.138l-1.203,7.082c-0.15-0.005-0.295-0.023-0.443-0.023
	c-2.566,0-5.014,0.502-7.253,1.396l-5.55-10.193c0.537-0.683,0.867-1.536,0.853-2.475c-0.034-2.168-1.809-3.897-3.976-3.854
	c-2.16,0.035-3.884,1.81-3.851,3.976c0.032,2.158,1.809,3.878,3.975,3.847c0.216-0.004,0.422-0.043,0.627-0.073l5.422,9.959
	c-2.712,1.533-5.024,3.696-6.74,6.282l-8.101-6.355c0.163-0.594,0.131-1.248-0.135-1.859c-0.634-1.403-2.279-2.03-3.687-1.398
	c-1.41,0.632-2.036,2.282-1.405,3.689c0.641,1.399,2.288,2.025,3.692,1.395c0.136-0.063,0.261-0.148,0.385-0.228l8.231,6.474
	c-1.215,2.324-1.985,4.919-2.193,7.686L17.66,47.044c-0.343-0.799-0.935-1.502-1.761-1.934c-1.915-1.011-4.289-0.281-5.288,1.635
	c-1.006,1.914-0.272,4.283,1.634,5.286c1.915,1.012,4.287,0.274,5.296-1.641c0.103-0.187,0.165-0.381,0.235-0.581l12.027,0.028
	c0.1,1.568,0.363,3.098,0.808,4.553l-7.773,2.991c-0.429-0.443-1.012-0.751-1.675-0.829c-1.53-0.174-2.906,0.923-3.084,2.448
	c-0.178,1.529,0.919,2.926,2.453,3.093c1.525,0.173,2.906-0.929,3.079-2.457c0.014-0.149,0.013-0.29,0.01-0.449l7.657-2.949
	c1.517,3.596,4.074,6.66,7.293,8.792l-3.754,3.876c-0.58-0.221-1.234-0.265-1.866-0.055c-1.473,0.489-2.258,2.064-1.78,3.52
	c0.48,1.465,2.061,2.265,3.521,1.789c1.467-0.489,2.254-2.066,1.781-3.534c-0.053-0.145-0.111-0.272-0.18-0.413l4.02-4.146
	c1.913,1.008,4.014,1.704,6.237,2.031l-1.07,10.032c-0.605,0.141-1.176,0.477-1.588,0.994c-0.943,1.223-0.725,2.963,0.498,3.919
	c1.221,0.945,2.971,0.718,3.916-0.5c0.941-1.222,0.717-2.967-0.502-3.917c-0.119-0.083-0.246-0.156-0.369-0.234l1.074-10.097
	c0.336,0.021,0.668,0.051,1.012,0.051c2.572,0,5.018-0.505,7.275-1.394l1.994,8.887c-0.496,0.362-0.891,0.881-1.068,1.525
	c-0.398,1.491,0.48,3.02,1.971,3.418c1.486,0.389,3.018-0.479,3.416-1.973s-0.488-3.017-1.977-3.419
	c-0.145-0.038-0.291-0.054-0.439-0.07l-2.066-9.2c1.438-0.747,2.756-1.666,3.965-2.74l2.736,3.855
	c-0.248,0.388-0.375,0.838-0.311,1.333c0.15,1.111,1.184,1.9,2.307,1.755c1.123-0.154,1.904-1.187,1.756-2.309
	c-0.154-1.124-1.189-1.904-2.312-1.754c-0.104,0.014-0.184,0.07-0.283,0.101l-2.824-3.979c2.082-2.121,3.672-4.705,4.629-7.601
	L81.3,56.996c0.27,1.12,0.885,2.157,1.865,2.898c2.266,1.723,5.5,1.291,7.227-0.979C92.108,56.652,91.665,53.419,89.399,51.696z
	 M43.37,47.658c-1.625,0-2.954-1.326-2.954-2.965c0-1.632,1.329-2.949,2.954-2.949c1.635,0,2.961,1.316,2.961,2.949
	C46.331,46.329,45.007,47.658,43.37,47.658z M50.995,54.082c-1.197,0-2.17-0.973-2.17-2.169c0-1.203,0.973-2.17,2.17-2.17
	c1.201,0,2.172,0.963,2.172,2.17C53.165,53.117,52.196,54.082,50.995,54.082z M59.056,44.89c-1.77,0-3.201-1.433-3.201-3.196
	c0-1.776,1.432-3.209,3.201-3.209c1.766,0,3.203,1.433,3.203,3.209C62.259,43.458,60.825,44.89,59.056,44.89z"/>
</svg>
