<?xml version="1.0" encoding="utf-8"?>
<!-- Generator: Adobe Illustrator 15.0.0, SVG Export Plug-In . SVG Version: 6.00 Build 0)  -->
<!DOCTYPE svg PUBLIC "-//W3C//DTD SVG 1.1//EN" "http://www.w3.org/Graphics/SVG/1.1/DTD/svg11.dtd">
<svg version="1.1" id="Layer_1" xmlns="http://www.w3.org/2000/svg" xmlns:xlink="http://www.w3.org/1999/xlink" x="0px" y="0px"
	 width="100px" height="100px" viewBox="0 0 100 100" enable-background="new 0 0 100 100" xml:space="preserve">
<path fill="#323232" d="M23.398,60.4l14.491,14.488l32.958-32.962L56.356,27.44L23.398,60.4z M38.349,71.515l-11.572-11.58
	l29.357-29.353l11.566,11.579L38.349,71.515z M57.108,18.782l22.396,22.42l-2.651,2.646L54.458,21.429L57.108,18.782z M92.939,25.11
	l-2.185,2.184l-3.932-3.933L75.875,34.308L63.987,22.409L74.932,11.47L71,7.542l2.182-2.187L92.939,25.11z M26.305,67.159
	l4.827,4.823L13.301,86.925l-1.933-1.939L26.305,67.159z M33.92,52.858l7.245,7.242l-2.708,2.714L31.21,55.57L33.92,52.858z
	 M40.603,46.175l7.248,7.245l-2.709,2.714l-7.25-7.243L40.603,46.175z M47.072,39.708l7.248,7.238l-2.716,2.717l-7.246-7.234
	L47.072,39.708z M52.802,33.981l7.241,7.243l-2.712,2.714l-7.245-7.243L52.802,33.981z"/>
</svg>
