<?xml version="1.0" encoding="utf-8"?>
<!-- Generator: Adobe Illustrator 15.0.0, SVG Export Plug-In . SVG Version: 6.00 Build 0)  -->
<!DOCTYPE svg PUBLIC "-//W3C//DTD SVG 1.1//EN" "http://www.w3.org/Graphics/SVG/1.1/DTD/svg11.dtd">
<svg version="1.1" id="Layer_1" xmlns="http://www.w3.org/2000/svg" xmlns:xlink="http://www.w3.org/1999/xlink" x="0px" y="0px"
	 width="100px" height="100px" viewBox="0 0 100 100" enable-background="new 0 0 100 100" xml:space="preserve">
<g>
	<path fill="#323232" d="M51.751,30.925c6.496,0,11.757-5.433,11.757-12.146c0-6.711-5.261-12.157-11.757-12.157
		c-6.499,0-11.759,5.446-11.759,12.157C39.992,25.492,45.252,30.925,51.751,30.925L51.751,30.925z M51.751,30.925"/>
	<path fill="#323232" d="M72.604,41.229c-0.589-1.769-3.915-7.138-12.958-7.188l-17.709,0.037c-8.775-0.49-12.277,4.7-12.824,7.004
		c0,0-5.938,18.925-4.914,23.306c0.626,2.73,5.354,6.058,10.374,8.536l-6.698,20.398h47.232l-6.512-21.118
		c4.487-2.37,8.428-5.339,9.001-7.816C78.622,59.952,72.604,41.229,72.604,41.229L72.604,41.229z M43.841,62.097
		c-0.827,0.361-1.73,0.573-2.691,0.573c-3.687,0-6.669-3.037-6.669-6.778c0-3.755,2.982-6.79,6.669-6.79
		c3.624,0,6.605,2.943,6.7,6.604c1.157-0.825,2.33-1.226,3.222-1.385v0.026c1.318-0.252,2.355,0,2.355,0
		c4.448,0.986,14.302,5.354,14.302,5.354s-5.287,6.551-14.887,6.498c-0.253,0-0.491,0-0.719-0.014h-0.014
		c-0.88-0.015-1.678-0.08-2.382-0.159C45.184,65.492,43.894,63.801,43.841,62.097L43.841,62.097z M43.841,62.097"/>
</g>
</svg>
