<?xml version="1.0" encoding="utf-8"?>
<!-- Generator: Adobe Illustrator 15.0.0, SVG Export Plug-In . SVG Version: 6.00 Build 0)  -->
<!DOCTYPE svg PUBLIC "-//W3C//DTD SVG 1.1//EN" "http://www.w3.org/Graphics/SVG/1.1/DTD/svg11.dtd">
<svg version="1.1" id="Layer_1" xmlns="http://www.w3.org/2000/svg" xmlns:xlink="http://www.w3.org/1999/xlink" x="0px" y="0px"
	 width="100px" height="100px" viewBox="0 0 100 100" enable-background="new 0 0 100 100" xml:space="preserve">
<g>
	<path fill="#323232" d="M49.946,90.042c-21.56,0-39.101-17.541-39.101-39.101s17.541-39.101,39.101-39.101
		s39.101,17.541,39.101,39.101S71.506,90.042,49.946,90.042z"/>
	<path fill="#C8C8C8" d="M49.946,12.841c21.042,0,38.101,17.059,38.101,38.101c0,21.042-17.059,38.101-38.101,38.101
		c-21.042,0-38.101-17.058-38.101-38.101C11.846,29.899,28.904,12.841,49.946,12.841 M49.946,10.841
		c-22.111,0-40.101,17.989-40.101,40.101s17.989,40.101,40.101,40.101s40.101-17.989,40.101-40.101S72.058,10.841,49.946,10.841
		L49.946,10.841z"/>
</g>
<g>
	<path fill-rule="evenodd" clip-rule="evenodd" fill="#FFFFFF" d="M48.918,23.836h1.278v-1.293h1.274v-1.29h-1.274v-1.294h-1.278
		v1.294h-1.273v1.29h1.273V23.836 M49.564,19.453c1.821,0,4.802,0.772,6.461,2.614l-2.234,4.349c-0.979-1.279-2.506-2.1-4.229-2.1
		c-1.701,0-3.211,0.804-4.189,2.058l-2.279-4.212C45.014,20.218,47.667,19.453,49.564,19.453"/>
	<path fill-rule="evenodd" clip-rule="evenodd" fill="#FFFFFF" d="M53.661,30.002c0,2.296-1.835,4.154-4.104,4.154
		c-2.268,0-4.1-1.858-4.1-4.154c0-2.297,1.832-4.156,4.1-4.156C51.826,25.846,53.661,27.705,53.661,30.002"/>
	<path fill-rule="evenodd" clip-rule="evenodd" fill="#FFFFFF" d="M63.323,53.377l-3.965-12.7C58.869,39.192,57.108,37,53.88,37
		h-0.258h-7.549h-0.257c-3.228,0-4.989,2.192-5.479,3.677l-3.965,12.952c-0.792,2.841,2.774,3.891,3.624,1.123l2.147-6.605L43.99,44
		h1.065L38.87,64H45v15.599c0,1.502,1.276,1.901,2.016,1.829C47.759,81.5,49,81.114,49,79.599V64h1.561l-0.002,15.363
		c0,1.515,0.61,2.15,1.729,2.076C53.399,81.511,54,81.101,54,79.599V64h6.827l-6.185-20h1.065l1.846,4.083l2.147,6.916
		C60.548,57.768,64.116,56.219,63.323,53.377z"/>
</g>
</svg>
