<?xml version="1.0" encoding="utf-8"?>
<!-- Generator: Adobe Illustrator 15.0.0, SVG Export Plug-In . SVG Version: 6.00 Build 0)  -->
<!DOCTYPE svg PUBLIC "-//W3C//DTD SVG 1.1//EN" "http://www.w3.org/Graphics/SVG/1.1/DTD/svg11.dtd">
<svg version="1.1" id="Layer_1" xmlns="http://www.w3.org/2000/svg" xmlns:xlink="http://www.w3.org/1999/xlink" x="0px" y="0px"
	 width="100px" height="100px" viewBox="0 0 100 100" enable-background="new 0 0 100 100" xml:space="preserve">
<path fill="#323232" d="M50.792,7.878c-23.122,0-42.057,18.936-42.057,42.057c0,23.126,18.936,42.058,42.057,42.058
	c23.125,0,42.057-18.932,42.057-42.058C92.849,26.814,73.917,7.878,50.792,7.878L50.792,7.878z M50.792,83.573
	c-18.505,0-33.638-15.133-33.638-33.638s15.133-33.638,33.638-33.638c18.504,0,33.638,15.133,33.638,33.638
	S69.296,83.573,50.792,83.573L50.792,83.573z M50.792,83.573"/>
<rect x="45.25" y="28.833" fill="#323232" width="8.083" height="25.5"/>
<rect x="53.494" y="46.979" transform="matrix(-0.6595 0.7517 -0.7517 -0.6595 140.3786 55.876)" fill="#323232" width="8.083" height="25.501"/>
</svg>
