<?xml version="1.0" encoding="utf-8"?>
<!-- Generator: Adobe Illustrator 15.0.0, SVG Export Plug-In . SVG Version: 6.00 Build 0)  -->
<!DOCTYPE svg PUBLIC "-//W3C//DTD SVG 1.1//EN" "http://www.w3.org/Graphics/SVG/1.1/DTD/svg11.dtd">
<svg version="1.1" id="Layer_1" xmlns="http://www.w3.org/2000/svg" xmlns:xlink="http://www.w3.org/1999/xlink" x="0px" y="0px"
	 width="400px" height="400px" viewBox="0 0 400 400" enable-background="new 0 0 400 400" xml:space="preserve">
<g>
	<rect x="172.725" y="141.516" fill="#323232" width="28.454" height="10.604"/>
	<path fill="#323232" d="M55.675,58.174V74.83l7.266-2.265v-7.121h145.452v92.717H92.66l-0.386,7.266h123.384V58.174H55.675z
		 M55.675,58.174"/>
	<path fill="#323232" d="M88.781,98c0,11.886-9.633,21.519-21.524,21.519c-11.917,0-21.544-9.633-21.544-21.519
		c0-11.922,9.627-21.549,21.544-21.549C79.148,76.451,88.781,86.078,88.781,98L88.781,98z M88.781,98"/>
	<path fill="#323232" d="M85.534,219.614v-46.871h1.374l1.985-38.904l37.15-19.244l-3.103-6.025l0.906,1.563l25.052-14.623
		l-1.816-3.139l-24.995,14.572l-0.911-1.791l-33.966,17.613H75.078l-8.202,9.524l-7.954-9.524l-17.449,3.246l-1.101,38.699h7.404
		l0.381,8.032h1.132v46.871h-1.481l-8.65,1.872v7.955h7.349l8.593-1.404l0.077,1.404H64.7V181.28h5.423v48.161h9.493l0.083-1.404
		l8.593,1.404h7.373v-7.955l-8.644-1.872H85.534z M85.534,219.614"/>
</g>
<path fill="#323232" d="M210.769,272.947c0,10.978-9.019,19.834-20.165,19.834c-11.127,0-20.158-8.856-20.158-19.834
	c0-10.93,9.031-19.793,20.158-19.793C201.75,253.154,210.769,262.018,210.769,272.947L210.769,272.947z M210.769,272.947"/>
<path fill="#323232" d="M190.927,304.519l-7.663-8.751l-17.808,3.185v35.397h6.364l0.285,5.921h36.437l0.299-5.921h4.752v-35.397
	l-15.214-3.185L190.927,304.519z M190.927,304.519"/>
<g>
	<path fill="#323232" d="M344.483,272.007c0,10.973-9.013,19.836-20.165,19.836c-11.114,0-20.159-8.863-20.159-19.836
		c0-10.935,9.045-19.798,20.159-19.798C335.471,252.209,344.483,261.072,344.483,272.007L344.483,272.007z M344.483,272.007"/>
	<path fill="#323232" d="M324.647,303.566l-7.631-8.745l-17.839,3.197v35.372h6.363l0.323,5.935h36.399l0.292-5.935h4.758v-35.372
		l-15.221-3.197L324.647,303.566z M324.647,303.566"/>
</g>
<g>
	<path fill="#323232" d="M243.198,194.887c0,8.789-7.221,15.91-16.158,15.91c-8.938,0-16.209-7.121-16.209-15.91
		c0-8.757,7.271-15.873,16.209-15.873C235.978,179.014,243.198,186.13,243.198,194.887L243.198,194.887z M243.198,194.887"/>
	<path fill="#323232" d="M212.211,248.832h29.203l0.224-4.721h3.813v-28.376l-12.198-2.574l-5.965,7.01l-6.139-7.01l-14.268,2.574
		v28.376h5.074L212.211,248.832z M212.211,248.832"/>
</g>
<g>
	<path fill="#323232" d="M363.846,194.122c0,8.788-7.234,15.911-16.166,15.911c-8.938,0-16.171-7.123-16.171-15.911
		c0-8.752,7.233-15.873,16.171-15.873C356.611,178.249,363.846,185.37,363.846,194.122L363.846,194.122z M363.846,194.122"/>
	<path fill="#323232" d="M353.926,212.434l-5.997,7.009l-6.139-7.009l-14.275,2.538v28.374h5.089l0.255,4.722h29.202l0.255-4.722
		h3.781v-28.374L353.926,212.434z M353.926,212.434"/>
</g>
<g>
	<path fill="#323232" d="M126.317,76.659c0.99-0.169,2.382-0.295,4.343-0.295c1.982,0,3.395,0.38,4.343,1.159
		c0.929,0.696,1.519,1.877,1.519,3.269c0,1.413-0.442,2.594-1.308,3.374c-1.096,1.012-2.72,1.496-4.617,1.496
		c-0.421,0-0.801-0.021-1.096-0.084v5.103h-3.184V76.659z M129.501,83.111c0.274,0.063,0.59,0.085,1.074,0.085
		c1.709,0,2.763-0.865,2.763-2.299c0-1.308-0.906-2.088-2.53-2.088c-0.632,0-1.075,0.043-1.307,0.105V83.111z"/>
	<path fill="#323232" d="M142.883,87.539c0.568,0.316,1.876,0.844,3.184,0.844c1.666,0,2.509-0.802,2.509-1.813
		c0-1.37-1.35-1.982-2.741-1.982h-1.307v-2.298h1.243c1.076,0,2.425-0.422,2.425-1.582c0-0.821-0.653-1.434-2.023-1.434
		c-1.118,0-2.298,0.485-2.847,0.823l-0.653-2.319c0.822-0.527,2.445-1.033,4.237-1.033c2.91,0,4.533,1.539,4.533,3.415
		c0,1.455-0.822,2.615-2.509,3.184v0.043c1.645,0.295,2.973,1.539,2.973,3.353c0,2.404-2.13,4.174-5.608,4.174
		c-1.771,0-3.269-0.463-4.069-0.949L142.883,87.539z"/>
	<path fill="#323232" d="M161.557,76.47h3.204v8.981c0,4.049-1.938,5.461-5.038,5.461c-0.76,0-1.729-0.126-2.362-0.337l0.358-2.594
		c0.443,0.147,1.013,0.253,1.645,0.253c1.35,0,2.193-0.61,2.193-2.804V76.47z"/>
	<path fill="#323232" d="M175.807,88.192c0,0.971,0.042,1.92,0.168,2.488h-2.888l-0.19-1.033h-0.063
		c-0.675,0.822-1.729,1.265-2.951,1.265c-2.088,0-3.331-1.518-3.331-3.162c0-2.678,2.403-3.943,6.051-3.943v-0.126
		c0-0.549-0.295-1.329-1.877-1.329c-1.054,0-2.171,0.359-2.846,0.76l-0.591-2.045c0.717-0.4,2.13-0.929,4.006-0.929
		c3.438,0,4.513,2.024,4.513,4.449V88.192z M172.707,85.811c-1.688,0-2.994,0.4-2.994,1.623c0,0.822,0.548,1.223,1.266,1.223
		c0.779,0,1.454-0.527,1.665-1.181c0.042-0.169,0.063-0.358,0.063-0.548V85.811z"/>
	<path fill="#323232" d="M178.354,83.659c0-1.286-0.042-2.361-0.084-3.289h2.783l0.146,1.434h0.064
		c0.422-0.675,1.453-1.666,3.182-1.666c2.11,0,3.691,1.413,3.691,4.449v6.094h-3.205v-5.714c0-1.328-0.464-2.235-1.623-2.235
		c-0.887,0-1.412,0.611-1.646,1.202c-0.083,0.211-0.105,0.506-0.105,0.802v5.945h-3.204V83.659z"/>
	<path fill="#323232" d="M193.171,86.548c0.104,1.328,1.413,1.961,2.909,1.961c1.097,0,1.982-0.147,2.847-0.442l0.422,2.172
		c-1.055,0.442-2.34,0.653-3.732,0.653c-3.5,0-5.503-2.024-5.503-5.25c0-2.615,1.645-5.504,5.207-5.504
		c3.332,0,4.598,2.594,4.598,5.146c0,0.548-0.064,1.033-0.105,1.265H193.171z M196.944,84.355c0-0.78-0.337-2.088-1.792-2.088
		c-1.37,0-1.918,1.244-2.003,2.088H196.944z"/>
</g>
<g>
	<path fill="#323232" d="M189.187,194.122c0,8.788-7.235,15.911-16.166,15.911c-8.938,0-16.166-7.123-16.166-15.911
		c0-8.752,7.228-15.873,16.166-15.873C181.951,178.249,189.187,185.37,189.187,194.122L189.187,194.122z M189.187,194.122"/>
	<path fill="#323232" d="M190.121,214.972l-9.362-2.213c-0.287,4.242-3.81,7.599-8.126,7.599c-4.255,0-7.744-3.259-8.118-7.415
		l-9.697,2.029l-5.887,28.374h9.012l0.256,4.722H187.4l0.218-4.722h7.741L190.121,214.972z"/>
</g>
<g>
	<path fill="#323232" d="M311.271,194.122c0,8.788-7.234,15.911-16.165,15.911c-8.938,0-16.166-7.123-16.166-15.911
		c0-8.752,7.228-15.873,16.166-15.873C304.037,178.249,311.271,185.37,311.271,194.122L311.271,194.122z M311.271,194.122"/>
	<path fill="#323232" d="M312.207,214.972l-9.362-2.213c-0.287,4.242-3.811,7.599-8.126,7.599c-4.255,0-7.744-3.259-8.118-7.415
		l-9.698,2.029l-5.886,28.374h9.012l0.256,4.722h29.202l0.218-4.722h7.741L312.207,214.972z"/>
</g>
<g>
	<path fill="#323232" d="M278.285,272.067c0,10.881-8.957,19.7-20.016,19.7c-11.066,0-20.016-8.819-20.016-19.7
		c0-10.836,8.949-19.652,20.016-19.652C269.328,252.415,278.285,261.231,278.285,272.067L278.285,272.067z M278.285,272.067"/>
	<path fill="#323232" d="M279.443,297.882l-11.592-2.74c-0.354,5.254-4.719,9.409-10.062,9.409c-5.269,0-9.588-4.034-10.052-9.182
		l-12.008,2.513l-7.288,35.132h11.159l0.316,5.846h36.156l0.271-5.846h9.584L279.443,297.882z"/>
</g>
</svg>
