<?xml version="1.0" encoding="utf-8"?>
<!-- Generator: Adobe Illustrator 15.0.0, SVG Export Plug-In . SVG Version: 6.00 Build 0)  -->
<!DOCTYPE svg PUBLIC "-//W3C//DTD SVG 1.1//EN" "http://www.w3.org/Graphics/SVG/1.1/DTD/svg11.dtd">
<svg version="1.1" id="Layer_1" xmlns="http://www.w3.org/2000/svg" xmlns:xlink="http://www.w3.org/1999/xlink" x="0px" y="0px"
	 width="400px" height="400px" viewBox="0 0 400 400" enable-background="new 0 0 400 400" xml:space="preserve">
<path fill="#323232" d="M172.333,88.327c0,21.841-17.715,39.54-39.54,39.54c-21.841,0-39.501-17.699-39.501-39.54
	c0-21.794,17.66-39.509,39.501-39.509C154.618,48.818,172.333,66.533,172.333,88.327L172.333,88.327z M172.333,88.327"/>
<path fill="#323232" d="M301.126,91.09c0,21.841-17.707,39.492-39.541,39.492c-21.793,0-39.5-17.651-39.5-39.492
	c0-21.833,17.707-39.501,39.5-39.501C283.419,51.589,301.126,69.257,301.126,91.09L301.126,91.09z M301.126,91.09"/>
<path fill="#323232" d="M283.333,154.966L283.333,154.966c-1.545,1.457-3.135,2.953-4.812,4.543c-1.047,1.008-2.094,2.04-3.18,3.079
	l-0.867,0.834c-8.305,7.929-17.611,16.881-25.785,24.73c-1.59,1.544-3.133,3.039-4.629,4.449c-0.361,0.361-0.678,0.677-1.047,1.039
	c-6.992,6.724-12.432,11.943-14.795,14.259c-0.18,0.134-0.275,0.229-0.408,0.362c-0.592,0.59-0.953,0.952-0.953,0.952l13.393,14.078
	c0,0,3.354-2.905,8.439-7.448c1.182-1.048,2.543-2.268,3.859-3.449c0.229-0.181,0.408-0.362,0.637-0.543
	c0.771-0.685,1.496-1.322,2.268-2.047c12.26-10.896,28.832-25.777,38.186-34.683c0.039,0,0.039-0.047,0.039-0.047
	c1.504-1.409,2.771-2.63,3.867-3.725c0.039-0.047,0.182-0.165,0.221-0.221c1.141-1.086,2.047-2.086,2.543-2.685
	c6.133-7.212,7.723-33.722-1.859-27.77C297.952,141.031,291.772,146.888,283.333,154.966L283.333,154.966z M283.333,154.966"/>
<path fill="#323232" d="M244.06,186.162l4.678-23.699h-92.482l3,26.155c5.221,4.803,10.432,9.7,15.479,14.377l3.363,3.181
	l-3.094,3.362l-5.859,6.354h57.666l-3.314-3.496l-3.182-3.314l3.314-3.22C230.306,199.452,237.249,192.736,244.06,186.162
	L244.06,186.162z M201.292,203.719c-4.047,0-7.26-3.268-7.26-7.26c0-4.039,3.213-7.267,7.26-7.267c3.998,0,7.266,3.228,7.266,7.267
	C208.558,200.452,205.29,203.719,201.292,203.719L201.292,203.719z M201.292,203.719"/>
<path fill="#323232" d="M286.833,267.145h28.57l-17.678-89.479c-13.818,13.214-58.205,52.382-58.205,52.382l-9.373-9.974h-13.436
	l-9.109,47.071h28.568v47.077l-27.283,12.168l0.961,5.9l34.164-4.188l0.43,4.188h12.299v-65.146h9.521v65.146h12.301l0.428-4.188
	l34.166,4.188l0.959-5.9l-27.283-12.168V267.145z"/>
<path fill="#323232" d="M95.693,164.321c0.047,0,0.047,0.047,0.095,0.094c0.496,0.961,1.039,1.858,1.638,2.535
	c0.361,0.41,0.905,0.953,1.574,1.638c0.236,0.221,0.504,0.504,0.779,0.771c0.504,0.449,1.056,0.992,1.677,1.591
	c0.37,0.315,0.78,0.732,1.182,1.087c0.646,0.598,1.322,1.22,2.055,1.913c0.449,0.409,0.897,0.811,1.401,1.26
	c0.771,0.692,1.583,1.409,2.401,2.188c0.552,0.457,1.056,0.905,1.583,1.409c1.047,0.953,2.188,1.953,3.33,2.945
	c0.354,0.322,0.717,0.63,1.079,0.952c1.448,1.323,2.952,2.63,4.495,3.992c0.914,0.826,1.858,1.59,2.764,2.417
	c0.732,0.63,1.409,1.213,2.142,1.851c0.905,0.818,1.858,1.638,2.818,2.456c0.678,0.63,1.402,1.221,2.134,1.858
	c1.095,0.952,2.126,1.857,3.221,2.811c0.354,0.323,0.685,0.591,1.047,0.913c6.85,5.944,13.29,11.44,17.976,15.479
	c0.725,0.638,1.408,1.181,2.047,1.725c0.125,0.134,0.268,0.228,0.4,0.361c0.363,0.323,0.773,0.686,1.088,0.953
	c2,1.685,3.275,2.771,3.59,3.047c0.047,0.047,0.236,0.181,0.236,0.181l4.432-4.811l8.725-9.495c0,0-0.361-0.362-0.961-0.952
	c-1.621-1.496-5.307-4.897-10.07-9.346c-1.818-1.686-3.811-3.543-5.951-5.543c-11.394-10.621-26.463-24.604-38.037-35.32
	l-0.047-0.047c-3.858-3.583-7.307-6.764-10.173-9.346c-0.047-0.048-0.142-0.134-0.173-0.189c-2.638-2.401-4.685-4.212-5.905-5.354
	c-0.181-0.134-0.322-0.268-0.448-0.354c-0.504-0.457-0.914-0.819-1-0.866c-0.788-0.457-1.457-0.685-2.095-0.732
	c-0.047-0.047-0.142-0.095-0.236-0.095c-0.078,0-0.173,0.048-0.268,0.048c-0.401,0-0.811,0.142-1.173,0.322c0,0-0.039,0-0.087,0
	v0.056c-4.456,2.479-3.235,17.833,0.717,25.549V164.321z M95.693,164.321"/>
<path fill="#323232" d="M132.107,151.29l-14.573-17.479l-14.629,2.724c5.999,5.26,28.25,25.88,51.713,47.721l-4.535-26.478
	l33.139,0.055l-8.621-19.439l-27.424-4.582L132.107,151.29z M132.107,151.29"/>
<path fill="#323232" d="M166.333,311.458v-85.946h2.504l0.086-4.944h-4.047l-6.078,6.63l-3.4-2.905
	c-2.086-1.771-47.941-40.863-59.468-52.209l1.078,38.674l0.779,14.755h2.048v85.946h-2.74l-15.833,3.448v14.621H94.74l15.811-2.59
	l0.117,2.59h17.44v-88.394h9.951v88.394h17.479l0.127-2.59l15.754,2.59h13.488v-14.621l-15.842-3.448H166.333z M166.333,311.458"/>
<path fill="#323232" d="M292.866,139.583l-12.66-2.406c-0.723,9.749-8.844,17.44-18.777,17.44c-9.893,0-17.988-7.625-18.773-17.313
	l-17.828,3.822l-12.41,16.707l42.225-0.055l-4.229,22.289C269.798,161.416,285.827,146.062,292.866,139.583z"/>
</svg>
