<?xml version="1.0" encoding="utf-8"?>
<!-- Generator: Adobe Illustrator 15.0.0, SVG Export Plug-In . SVG Version: 6.00 Build 0)  -->
<!DOCTYPE svg PUBLIC "-//W3C//DTD SVG 1.1//EN" "http://www.w3.org/Graphics/SVG/1.1/DTD/svg11.dtd">
<svg version="1.1" id="Layer_1" xmlns="http://www.w3.org/2000/svg" xmlns:xlink="http://www.w3.org/1999/xlink" x="0px" y="0px"
	 width="100px" height="100px" viewBox="0 0 100 100" enable-background="new 0 0 100 100" xml:space="preserve">
<ellipse fill-rule="evenodd" clip-rule="evenodd" fill="#323232" cx="50.322" cy="13.517" rx="7.139" ry="7.225"/>
<path fill-rule="evenodd" clip-rule="evenodd" fill="#323232" d="M64.552,31.582c-1.156-5.306-5.739-9.477-10.147-9.477L50.706,22
	h-3.619c-4.408,0-8.992,4.158-10.147,9.463L32.998,53c0,4,6.275,4,6.275,0l3.758-19.627l-0.225,16.125l-2.493,41.119
	c0,2.235,1.262,4.023,3.471,4.023c2.213,0,3.75-1.564,3.75-3.798L49.891,57H51.6l2.357,33.844c0,2.234,1.636,3.901,3.85,3.901
	c2.208,0,3.371-1.883,3.371-4.119l-2.492-41.112l-0.226-16.142L62.218,53c0,4,6.275,4,6.275,0L64.552,31.582z"/>
<polygon fill-rule="evenodd" clip-rule="evenodd" fill="#FFFFFF" points="55,30 52,30 52,27 49,27 49,30 46,30 46,33 49,33 49,36 
	52,36 52,33 55,33 "/>
</svg>
