<?xml version="1.0" encoding="utf-8"?>
<!-- Generator: Adobe Illustrator 15.0.0, SVG Export Plug-In . SVG Version: 6.00 Build 0)  -->
<!DOCTYPE svg PUBLIC "-//W3C//DTD SVG 1.1//EN" "http://www.w3.org/Graphics/SVG/1.1/DTD/svg11.dtd">
<svg version="1.1" id="Layer_1" xmlns="http://www.w3.org/2000/svg" xmlns:xlink="http://www.w3.org/1999/xlink" x="0px" y="0px"
	 width="100px" height="100px" viewBox="0 0 100 100" enable-background="new 0 0 100 100" xml:space="preserve">
<g>
	<rect x="34.25" y="31.333" fill="#323232" width="42" height="6"/>
	<g>
		<path fill="#323232" d="M25.138,40.254c-3.52,0-6.382-2.863-6.382-6.384c0-3.52,2.863-6.382,6.382-6.382
			c3.519,0,6.38,2.862,6.38,6.382C31.518,37.391,28.656,40.254,25.138,40.254z M25.138,29.607c-2.351,0-4.263,1.912-4.263,4.263
			c0,2.352,1.912,4.265,4.263,4.265c2.35,0,4.261-1.913,4.261-4.265C29.398,31.52,27.487,29.607,25.138,29.607z"/>
	</g>
	<circle fill="#323232" cx="25.138" cy="33.872" r="1.552"/>
	<rect x="34.25" y="46.333" fill="#323232" width="42" height="6"/>
	<g>
		<path fill="#323232" d="M25.138,55.254c-3.52,0-6.382-2.863-6.382-6.384c0-3.52,2.863-6.382,6.382-6.382
			c3.519,0,6.38,2.862,6.38,6.382C31.518,52.391,28.656,55.254,25.138,55.254z M25.138,44.607c-2.351,0-4.263,1.912-4.263,4.263
			c0,2.352,1.912,4.265,4.263,4.265c2.35,0,4.261-1.913,4.261-4.265C29.398,46.52,27.487,44.607,25.138,44.607z"/>
	</g>
	<rect x="34.25" y="61.333" fill="#323232" width="42" height="6"/>
	<g>
		<path fill="#323232" d="M25.138,70.254c-3.52,0-6.382-2.863-6.382-6.384c0-3.52,2.863-6.382,6.382-6.382
			c3.519,0,6.38,2.862,6.38,6.382C31.518,67.391,28.656,70.254,25.138,70.254z M25.138,59.607c-2.351,0-4.263,1.912-4.263,4.263
			c0,2.352,1.912,4.265,4.263,4.265c2.35,0,4.261-1.913,4.261-4.265C29.398,61.52,27.487,59.607,25.138,59.607z"/>
	</g>
</g>
<path fill="#323232" d="M88.836,75.414c0,2.344-1.899,4.241-4.241,4.241H14.51c-2.342,0-4.239-1.897-4.239-4.241v-53.09
	c0-2.341,1.897-4.238,4.239-4.238h70.085c2.342,0,4.241,1.897,4.241,4.238V75.414z M84.595,75.414V22.171H14.64v53.243H84.595z"/>
</svg>
