<?xml version="1.0" encoding="utf-8"?>
<!-- Generator: Adobe Illustrator 15.0.0, SVG Export Plug-In . SVG Version: 6.00 Build 0)  -->
<!DOCTYPE svg PUBLIC "-//W3C//DTD SVG 1.1//EN" "http://www.w3.org/Graphics/SVG/1.1/DTD/svg11.dtd">
<svg version="1.1" id="Layer_1" xmlns="http://www.w3.org/2000/svg" xmlns:xlink="http://www.w3.org/1999/xlink" x="0px" y="0px"
	 width="100px" height="100px" viewBox="0 0 100 100" enable-background="new 0 0 100 100" xml:space="preserve">
<path fill="#323232" d="M91.148,80.203c0,2.576-2.088,4.664-4.664,4.664H14.029c-2.576,0-4.666-2.088-4.666-4.664v-58.42
	c0-2.576,2.09-4.664,4.666-4.664h72.455c2.576,0,4.664,2.088,4.664,4.664V80.203z M86.484,80.203V31.216H14.172v48.986H86.484z"/>
<rect x="21.788" y="41.515" fill="#323232" width="5" height="5"/>
<rect x="32.788" y="41.515" fill="#323232" width="45" height="5"/>
<rect x="21.788" y="52.515" fill="#323232" width="5" height="5"/>
<rect x="32.788" y="52.515" fill="#323232" width="45" height="5"/>
<rect x="21.788" y="63.515" fill="#323232" width="5" height="5"/>
<rect x="32.788" y="63.515" fill="#323232" width="45" height="5"/>
<rect x="-47.083" y="26.72" fill="#E9AA22" width="0.897" height="0.256"/>
</svg>
