<?xml version="1.0" encoding="utf-8"?>
<!-- Generator: Adobe Illustrator 15.0.0, SVG Export Plug-In . SVG Version: 6.00 Build 0)  -->
<!DOCTYPE svg PUBLIC "-//W3C//DTD SVG 1.1//EN" "http://www.w3.org/Graphics/SVG/1.1/DTD/svg11.dtd">
<svg version="1.1" id="Layer_1" xmlns="http://www.w3.org/2000/svg" xmlns:xlink="http://www.w3.org/1999/xlink" x="0px" y="0px"
	 width="100px" height="100px" viewBox="0 0 100 100" enable-background="new 0 0 100 100" xml:space="preserve">
<g>
	<path fill="#323232" d="M48.598,9.617c21.615,0,39.139,17.523,39.139,39.141S70.214,87.898,48.598,87.898
		c-21.619,0-39.143-17.523-39.143-39.141S26.979,9.617,48.598,9.617z"/>
	<g>
		<path fill="#323232" d="M48.369,72.84L28.581,53.057c-2.405-2.405-2.406-6.306-0.001-8.712s6.305-2.405,8.712-0.001l11.075,11.073
			l35.605-35.609c2.406-2.406,6.306-2.406,8.712,0c2.406,2.406,2.406,6.306,0.001,8.711L48.369,72.84z"/>
	</g>
</g>
<g>
	<path fill="#FFFFFF" d="M48.369,68.732L28.581,48.95c-2.405-2.405-2.406-6.306-0.001-8.712c2.405-2.405,6.305-2.406,8.712-0.001
		L48.367,51.31l35.606-35.607c2.404-2.406,6.305-2.406,8.711,0c2.406,2.406,2.406,6.306,0,8.711L48.369,68.732z"/>
</g>
</svg>
