<?xml version="1.0" standalone="no"?><!DOCTYPE svg PUBLIC "-//W3C//DTD SVG 1.1//EN" "http://www.w3.org/Graphics/SVG/1.1/DTD/svg11.dtd"><svg width="100%" height="100%" viewBox="0 0 278 760" version="1.1" xmlns="http://www.w3.org/2000/svg" xmlns:xlink="http://www.w3.org/1999/xlink" xml:space="preserve" style="fill-rule:evenodd;clip-rule:evenodd;stroke-linejoin:round;stroke-miterlimit:1.41421;"><g id="anc-trimester3"><path d="M213.345,62.0159c0,-34.2188 -27.9438,-62.0159 -62.3553,-62.0159c-34.4023,0 -62.3278,27.797 -62.3278,62.0159c0,34.2188 27.9255,62.0159 62.3278,62.0159c34.4115,0 62.3553,-27.797 62.3553,-62.0159" style="fill:#f47b63;"/><path d="M117.349,286.799l-59.9701,-42.7506l44.9248,-43.7322l20.9349,92.5559c-1.56874,-2.29349 -3.49527,-4.3668 -5.88967,-6.07315M235,250c-15.8061,-27.6136 -54.8366,-85.6818 -54.8366,-85.6818c-23.311,-32.3015 -72.7952,-28.5585 -100.978,-1.16509c0,0 -59.6581,57.9243 -71.7311,69.7862c-12.0821,11.8436 -8.29324,29.8887 2.90814,37.8609l84.1067,59.9701c8.76112,6.25663 20.2102,7.95381 28.6044,2.1834l-90.3542,179.149l109.427,0c-3.12831,36.6958 -5.98141,66.2083 -5.98141,66.2083l-13.4307,151.673c-1.35774,15.4581 10.1097,28.5493 25.6687,29.8887c15.5682,1.36692 29.2649,-8.33911 30.6226,-23.7972l19.8341,-223.973l61.1401,0c0,0 -10.0183,-99.0473 -10,-99.1023c16.8709,-15.7517 35.1944,-38.8273 25,-83c-4.61015,-19.9759 -25.189,-54.1248 -40,-80Z" style="fill:#f47b63;"/></g></svg>