<?xml version="1.0" standalone="no"?><!DOCTYPE svg PUBLIC "-//W3C//DTD SVG 1.1//EN" "http://www.w3.org/Graphics/SVG/1.1/DTD/svg11.dtd"><svg width="100%" height="100%" viewBox="0 0 531 488" version="1.1" xmlns="http://www.w3.org/2000/svg" xmlns:xlink="http://www.w3.org/1999/xlink" xml:space="preserve" style="fill-rule:evenodd;clip-rule:evenodd;stroke-linejoin:round;stroke-miterlimit:1.41421;"><g id="check"><path d="M474.209,162.648c9.0024,25.4425 13.901,52.8251 13.901,81.3518c0,134.671 -109.173,243.844 -243.844,243.844c-134.671,0 -243.844,-109.173 -243.844,-243.844c0,-134.671 109.173,-243.844 243.844,-243.844c77.5389,0 146.625,36.1911 191.286,92.6034l29.105,-29.1065l1.65519,-1.55995c1.54993,-1.29627 1.91167,-1.65736 3.57277,-2.8124c3.73684,-2.59841 7.93444,-4.52236 12.3422,-5.65698c5.14395,-1.32413 10.5526,-1.56488 15.7938,-0.703007c3.74186,0.615312 7.38908,1.78832 10.7881,3.46964c3.39901,1.68132 6.54463,3.86839 9.30441,6.46911c6.65119,6.26785 10.904,14.8645 11.8506,23.9545c0.392754,3.77172 0.222586,7.59915 -0.503339,11.3211c-1.01681,5.21341 -3.12553,10.1999 -6.15771,14.561c-1.31077,1.88525 -2.80107,3.56108 -4.37209,5.22818l-44.7221,44.7244Z" style="fill:#b5bd21;"/><path d="M242.835,368.449l-123.27,-123.254l-1.56002,-1.65513c-1.29633,-1.54988 -1.65743,-1.9116 -2.81255,-3.57265c-2.59856,-3.73673 -4.52268,-7.93425 -5.65749,-12.342c-1.32434,-5.1439 -1.56531,-10.5525 -0.703653,-15.7938c0.615159,-3.74188 1.78802,-7.38916 3.4692,-10.7882c1.68118,-3.39908 3.86812,-6.54479 6.46873,-9.30468c6.26758,-6.65144 14.864,-10.9047 23.954,-11.8516c3.7717,-0.392909 7.59914,-0.222897 11.3212,0.502876c5.21345,1.0166 10.2,3.12511 14.5612,6.15711c1.88531,1.31069 3.5612,2.80093 5.22836,4.37187l68.9962,68.987l221.827,-221.838l1.65519,-1.55995c1.54993,-1.29627 1.91167,-1.65736 3.57277,-2.8124c3.73684,-2.59841 7.93444,-4.52236 12.3422,-5.65698c5.14395,-1.32413 10.5526,-1.56488 15.7938,-0.703008c3.74186,0.615312 7.38908,1.78832 10.7881,3.46964c3.39901,1.68132 6.54464,3.86839 9.30441,6.46911c2.75978,2.60072 5.12951,5.61113 7.0094,8.90448c4.53063,7.93711 6.08737,17.401 4.33786,26.3711c-1.01681,5.21341 -3.12553,10.1999 -6.15771,14.561c-1.31077,1.88525 -2.80107,3.56108 -4.37209,5.22818c-92.0319,92.0366 -184.064,184.073 -276.096,276.11Z" style="fill:#fff;fill-rule:nonzero;"/></g></svg>