<?xml version="1.0" standalone="no"?><!DOCTYPE svg PUBLIC "-//W3C//DTD SVG 1.1//EN" "http://www.w3.org/Graphics/SVG/1.1/DTD/svg11.dtd"><svg width="100%" height="100%" viewBox="0 0 423 343" version="1.1" xmlns="http://www.w3.org/2000/svg" xmlns:xlink="http://www.w3.org/1999/xlink" xml:space="preserve" style="fill-rule:evenodd;clip-rule:evenodd;stroke-linejoin:round;stroke-miterlimit:1.41421;"><path d="M134.835,342.449l-123.27,-123.253l-1.56,-1.656c-1.296,-1.549 -1.657,-1.911 -2.812,-3.572c-2.599,-3.737 -4.523,-7.934 -5.658,-12.342c-1.324,-5.144 -1.565,-10.553 -0.704,-15.794c0.616,-3.742 1.788,-7.389 3.47,-10.788c1.681,-3.399 3.868,-6.545 6.468,-9.305c6.268,-6.651 14.864,-10.905 23.954,-11.851c3.772,-0.393 7.599,-0.223 11.321,0.502c5.214,1.017 10.2,3.126 14.562,6.158c1.885,1.31 3.561,2.8 5.228,4.371l68.996,68.987l221.827,-221.838l1.655,-1.56c1.55,-1.296 1.912,-1.657 3.573,-2.812c3.737,-2.598 7.934,-4.522 12.342,-5.657c5.144,-1.324 10.553,-1.565 15.794,-0.703c3.742,0.615 7.389,1.788 10.788,3.47c3.399,1.681 6.545,3.868 9.304,6.469c2.76,2.6 5.13,5.611 7.01,8.904c4.53,7.937 6.087,17.401 4.338,26.371c-1.017,5.214 -3.126,10.2 -6.158,14.561c-1.311,1.886 -2.801,3.561 -4.372,5.228c-92.032,92.037 -184.064,184.074 -276.096,276.11Z" style="fill:#f47963;fill-rule:nonzero;"/></svg>