<?xml version="1.0" standalone="no"?><!DOCTYPE svg PUBLIC "-//W3C//DTD SVG 1.1//EN" "http://www.w3.org/Graphics/SVG/1.1/DTD/svg11.dtd"><svg width="100%" height="100%" viewBox="0 0 721 625" version="1.1" xmlns="http://www.w3.org/2000/svg" xmlns:xlink="http://www.w3.org/1999/xlink" xml:space="preserve" style="fill-rule:evenodd;clip-rule:evenodd;stroke-linejoin:round;stroke-miterlimit:1.41421;"><g id="chickens"><path d="M7.67485,131.496c-3.94691,-13.6208 10.3876,-10.035 10.3876,-10.035c-4.30236,-11.8294 14.6957,-8.60187 25.0919,6.80756c10.3933,15.4123 28.3137,32.616 56.6273,35.8435c28.3137,3.22748 46.9506,10.0322 63.0795,-12.9042c16.6919,-32.2009 37.5895,-37.6179 44.1525,-38.5307l0.290047,-0.582937c-1.98767,-0.102369 -3.58293,-1.71184 -3.58293,-3.72795c0,-1.83412 1.34218,-3.29004 3.07961,-3.6199c-0.0995258,-0.335544 -0.210426,-0.671088 -0.210426,-1.03791c0,-2.07582 1.68625,-3.75923 3.76492,-3.75923c0.836017,0 1.57251,0.32417 2.19525,0.790519c0.65687,-1.09763 1.80853,-1.86824 3.17629,-1.86824c1.13175,0 2.11563,0.523221 2.80378,1.31374c0.628434,-1.19147 1.84549,-2.03317 3.29004,-2.03317c1.82843,0 3.28435,1.33649 3.6199,3.07108c0.679619,-0.673932 1.61516,-1.09478 2.65592,-1.09478c2.07298,0 3.75923,1.68341 3.75923,3.76208c0,0.676775 -0.227488,1.27962 -0.540283,1.83127c0.349762,-0.105213 0.696681,-0.218957 1.07772,-0.218957c2.07582,0 3.76208,1.68625 3.76208,3.76208c0,0.705211 -0.247393,1.33365 -0.58578,1.89668c1.38767,0.554501 2.37724,1.89383 2.37724,3.4834c0,1.55829 -0.946917,2.89762 -2.29478,3.46919c0.935543,0.685306 1.58104,1.73459 1.58104,2.98009c0,1.65497 -1.08341,3.01705 -2.56492,3.52606c0.378198,0.477724 0.591468,0.779145 0.591468,0.779145c8.88339,6.98387 9.89571,19.1516 9.89571,19.1516c-6.94121,-5.91183 -12.8786,-5.20093 -13.0862,-5.1725c5.27202,10.709 1.84265,15.5772 -1.4872,15.253c-3.63411,-0.355449 -4.47013,-3.26729 -4.15165,-6.6796l-0.491942,0.753552c0.713742,20.0729 12.6767,25.4416 8.34026,50.6074c-6.49477,37.689 -24.4862,65.9941 -49.5582,72.3098c-22.9734,5.78671 -19.7118,30.8217 -38.707,34.4189c-1.06919,0.201895 -2.34028,0.386729 -3.76492,0.540283c1.49004,4.65781 5.42273,16.9478 6.93553,21.4777c1.88246,5.64169 16.1772,11.2862 22.5725,12.4151c6.39524,1.12891 6.0142,1.12606 9.02557,2.25497c3.01137,1.12891 4.89383,2.63601 1.5071,2.63601c-3.38672,0 -13.1658,-0.756396 -15.0483,-0.756396c-1.87962,0 7.52415,4.89383 9.03126,7.52415c1.5071,2.63886 -10.9109,-4.51563 -22.9506,-9.03126c-12.0398,-4.5071 -16.1744,1.50426 -20.3118,3.38388c-3.83032,1.74312 -7.52699,1.13175 -4.51278,-1.50142c3.01137,-2.63032 5.26349,-4.89098 5.26349,-4.89098c-3.01421,-3.01705 -9.40092,-3.76492 -14.2947,-2.26066c-4.89098,1.50995 -13.544,4.89383 -11.6673,0.756396c1.88815,-4.13743 13.1658,-3.01137 13.1658,-7.89666c0,-4.88529 -3.00568,-19.1857 -5.26349,-22.5725c-1.09478,-1.64928 -3.16776,-2.84644 -5.01326,-3.6398c-4.9706,-1.14312 -10.0066,-2.72132 -14.8578,-4.88814c-29.0246,-6.80472 -30.4577,-29.3885 -36.5516,-35.8407c-6.09667,-6.44927 -2.51089,-10.035 -2.51089,-10.035c-6.81041,-0.716586 -2.86634,-10.3933 -2.86634,-10.3933c-16.8398,1.79715 -16.8426,-16.4843 -16.8426,-16.4843c-12.9071,0.716586 -12.1933,-11.1128 -12.1933,-11.1128c-9.31846,-1.43033 -5.73269,-15.0568 -5.73269,-15.0568c-20.4312,-8.60187 -6.81325,-21.8587 -6.81325,-21.8587c-18.9952,-12.9042 -1.78862,-20.4284 -1.78862,-20.4284c-18.2786,-1.79146 -6.81325,-15.054 -6.81325,-15.054c-10.0237,-8.60756 3.95828,-11.8322 3.95828,-11.8322ZM229.023,107.658c0.0398103,-0.0853078 0.105213,-0.147867 0.147867,-0.2218c-0.0824642,0.0227488 -0.167772,0.0284359 -0.25308,0.0511847l0.105213,0.170616ZM232,117.616l0,0.014218c0.00284359,-0.00284359 0.00284359,-0.00853078 0.00568719,-0.00853078c-0.00284359,0.00284359 -0.00284359,0 -0.00568719,-0.00568719ZM134.141,331.816c6.39809,4.79999 8.65021,1.12891 6.39809,-5.63885c-1.86824,-5.59335 -7.07202,-15.8104 -8.81799,-19.1829c-2.31184,-0.0426539 -4.77155,-0.159241 -7.33363,-0.389572c0.201895,5.65875 1.55829,19.0663 9.75353,25.2113Z" style="fill:#ad7739;fill-rule:nonzero;"/><path d="M434.618,52.9242c-3.33129,-11.4963 8.76743,-8.46982 8.76743,-8.46982c-3.6313,-9.98426 12.4035,-7.26019 21.1782,5.74575c8.77223,13.0083 23.8974,27.5287 47.7949,30.2528c23.8974,2.72407 39.6274,8.46742 53.2406,-10.8915c14.0884,-27.1783 31.7264,-31.7504 37.2658,-32.5209l0.244806,-0.492013c-1.67764,-0.0864023 -3.02408,-1.44484 -3.02408,-3.14648c0,-1.54804 1.13283,-2.77687 2.59927,-3.05528c-0.0840022,-0.283207 -0.177605,-0.566415 -0.177605,-0.876023c0,-1.75205 1.42324,-3.17288 3.17768,-3.17288c0.705619,0 1.32724,0.273607 1.85285,0.667218c0.554415,-0.926425 1.52644,-1.57684 2.68087,-1.57684c0.955225,0 1.78565,0.441612 2.36646,1.10883c0.530414,-1.00563 1.55764,-1.71605 2.77687,-1.71605c1.54324,0 2.77207,1.12803 3.05528,2.59207c0.573615,-0.568815 1.36324,-0.924024 2.24166,-0.924024c1.74965,0 3.17288,1.42084 3.17288,3.17528c0,0.571215 -0.192005,1.08003 -0.456012,1.54564c0.295208,-0.0888023 0.588016,-0.184805 0.909624,-0.184805c1.75205,0 3.17528,1.42324 3.17528,3.17528c0,0.595216 -0.208806,1.12563 -0.494413,1.60084c1.17123,0.468012 2.00645,1.59844 2.00645,2.94008c0,1.31523 -0.799221,2.44566 -1.93685,2.92808c0.789621,0.578415 1.33444,1.46404 1.33444,2.51527c0,1.39684 -0.914424,2.54647 -2.16486,2.97608c0.319208,0.403211 0.499213,0.657617 0.499213,0.657617c7.4978,5.89456 8.35222,16.1644 8.35222,16.1644c-5.85856,-4.98973 -10.8699,-4.38972 -11.0451,-4.36572c4.44972,9.03864 1.55524,13.1475 -1.25523,12.8739c-3.06728,-0.300008 -3.7729,-2.75767 -3.50409,-5.63775l-0.415211,0.636017c0.602416,16.942 10.6995,21.4734 7.03939,42.7139c-5.48175,31.8104 -20.6669,55.7007 -41.8283,61.0312c-19.3901,4.88413 -16.6372,26.0143 -32.6697,29.0504c-0.902424,0.170405 -1.97525,0.326409 -3.17768,0.456012c1.25763,3.9313 4.57692,14.3044 5.85375,18.1277c1.58884,4.76173 13.654,9.52585 19.0517,10.4787c5.39774,0.952825 5.07613,0.950425 7.6178,1.90325c2.54167,0.952825 4.13051,2.22486 1.27203,2.22486c-2.85848,0 -11.1123,-0.638417 -12.7011,-0.638417c-1.58644,0 6.35057,4.13051 7.6226,6.35057c1.27203,2.22726 -9.20904,-3.8113 -19.3709,-7.6226c-10.1619,-3.8041 -13.6516,1.26963 -17.1437,2.85608c-3.23289,1.47124 -6.35297,0.955225 -3.8089,-1.26723c2.54167,-2.22006 4.44252,-4.12811 4.44252,-4.12811c-2.54407,-2.54647 -7.93461,-3.17768 -12.0651,-1.90805c-4.12811,1.27443 -11.4315,4.13051 -9.84746,0.638417c1.59364,-3.49209 11.1123,-2.54167 11.1123,-6.66498c0,-4.12331 -2.53687,-16.1932 -4.44252,-19.0517c-0.924024,-1.39204 -2.67367,-2.40246 -4.23131,-3.07208c-4.19531,-0.964826 -8.44582,-2.29686 -12.5403,-4.12571c-24.4974,-5.74335 -25.7071,-24.8047 -30.8504,-30.2504c-5.14574,-5.44334 -2.11926,-8.46982 -2.11926,-8.46982c-5.74815,-0.604816 -2.41926,-8.77223 -2.41926,-8.77223c-14.2132,1.51684 -14.2156,-13.9132 -14.2156,-13.9132c-10.8939,0.604816 -10.2915,-9.37945 -10.2915,-9.37945c-7.86501,-1.20723 -4.83853,-12.7083 -4.83853,-12.7083c-17.2445,-7.26019 -5.75055,-18.4493 -5.75055,-18.4493c-16.0324,-10.8915 -1.50964,-17.2421 -1.50964,-17.2421c-15.4276,-1.51204 -5.75055,-12.7059 -5.75055,-12.7059c-8.46022,-7.26499 3.34089,-9.98666 3.34089,-9.98666ZM621.441,32.8044c0.0336009,-0.0720019 0.0888023,-0.124803 0.124803,-0.187205c-0.0696018,0.0192005 -0.141604,0.0240006 -0.213606,0.0432011l0.0888023,0.144004ZM623.954,41.2095l0,0.0120003c0.00240006,-0.00240006 0.00240006,-0.00720019 0.00480013,-0.00720019c-0.00240006,0.00240006 -0.00240006,0 -0.00480013,-0.00480013ZM541.358,221.999c5.40014,4.05131 7.30099,0.952825 5.40014,-4.75933c-1.57684,-4.72092 -5.96896,-13.3444 -7.4426,-16.1908c-1.95125,-0.036001 -4.02731,-0.134404 -6.18976,-0.328809c0.170405,4.77613 1.31523,16.0924 8.23222,21.279Z" style="fill:#984a3c;fill-rule:nonzero;"/><path d="M380.712,16.8564c1.98649,-6.85539 -5.22813,-5.05066 -5.22813,-5.05066c2.16539,-5.95374 -7.39638,-4.32934 -12.6288,3.42626c-5.23099,7.75704 -14.2503,16.4157 -28.5007,18.0401c-14.2503,1.6244 -23.6303,5.04923 -31.748,-6.49473c-8.40107,-16.2068 -18.9189,-18.9332 -22.2221,-19.3926l-0.145981,-0.293393c1.0004,-0.0515228 1.8033,-0.861575 1.8033,-1.87629c0,-0.923116 -0.675521,-1.65588 -1.54998,-1.8219c0.0500916,-0.16888 0.105908,-0.33776 0.105908,-0.522383c0,-1.04477 -0.848694,-1.89203 -1.89489,-1.89203c-0.420769,0 -0.791447,0.163155 -1.10488,0.39787c-0.330604,-0.552438 -0.910235,-0.94029 -1.59864,-0.94029c-0.569613,0 -1.0648,0.263339 -1.41115,0.661209c-0.316292,-0.599668 -0.928841,-1.0233 -1.65588,-1.0233c-0.920254,0 -1.65302,0.672658 -1.8219,1.54568c-0.342054,-0.339191 -0.812915,-0.551007 -1.33673,-0.551007c-1.04334,0 -1.89203,0.847263 -1.89203,1.89346c0,0.340623 0.114495,0.644034 0.271926,0.921685c-0.176036,-0.0529539 -0.350641,-0.110201 -0.54242,-0.110201c-1.04477,0 -1.89346,0.848694 -1.89346,1.89346c0,0.354935 0.124513,0.671227 0.294825,0.954602c-0.69842,0.279082 -1.19647,0.953171 -1.19647,1.7532c0,0.784291 0.476585,1.45838 1.15497,1.74605c-0.470861,0.344916 -0.79574,0.873024 -0.79574,1.49988c0,0.832951 0.545282,1.51849 1.29093,1.77467c-0.190348,0.24044 -0.297687,0.392145 -0.297687,0.392145c-4.47103,3.515 -4.98053,9.63905 -4.98053,9.63905c3.49353,-2.97544 6.48185,-2.61764 6.58633,-2.60333c-2.65342,5.38985 -0.92741,7.84005 0.748511,7.67689c1.82906,-0.178898 2.24983,-1.64443 2.08953,-3.36186l0.247595,0.379265c-0.359228,10.1028 -6.38023,12.8048 -4.19767,25.4708c3.26883,18.969 12.324,33.215 24.9427,36.3937c11.5626,2.91247 9.92099,15.5126 19.4813,17.3231c0.538127,0.101614 1.17787,0.194642 1.89489,0.271926c-0.749942,2.34429 -2.72927,8.52988 -3.49067,10.8098c-0.947446,2.83948 -8.14203,5.68038 -11.3608,6.24857c-3.21874,0.568181 -3.02696,0.56675 -4.54259,1.13493c-1.51563,0.568181 -2.46307,1.32671 -0.758529,1.32671c1.70454,0 6.6264,-0.380696 7.57384,-0.380696c0.946015,0 -3.78692,2.46307 -4.54545,3.78692c-0.758529,1.32814 5.49147,-2.27273 11.5511,-4.54545c6.05965,-2.26843 8.1406,0.757098 10.223,1.70311c1.92781,0.877318 3.78835,0.569613 2.27129,-0.755667c-1.51563,-1.32385 -2.64913,-2.46164 -2.64913,-2.46164c1.51706,-1.51849 4.73151,-1.89489 7.19458,-1.13779c2.46164,0.759961 6.81675,2.46307 5.87216,0.380696c-0.950309,-2.08238 -6.6264,-1.51563 -6.6264,-3.97441c0,-2.45878 1.51277,-9.65622 2.64913,-11.3608c0.551007,-0.830089 1.59434,-1.43262 2.52318,-1.83192c2.50172,-0.575337 5.03635,-1.36965 7.47796,-2.46021c14.6081,-3.42483 15.3295,-14.7913 18.3965,-18.0387c3.06847,-3.24593 1.26374,-5.05066 1.26374,-5.05066c3.42769,-0.360659 1.44264,-5.23099 1.44264,-5.23099c8.47549,0.904511 8.47692,-8.29659 8.47692,-8.29659c6.49616,0.360659 6.13693,-5.59308 6.13693,-5.59308c4.69,-0.719887 2.88527,-7.57814 2.88527,-7.57814c10.2831,-4.32934 3.42913,-11.0015 3.42913,-11.0015c9.56033,-6.49473 0.900217,-10.2817 0.900217,-10.2817c9.19967,-0.901648 3.42913,-7.57671 3.42913,-7.57671c5.04494,-4.3322 -1.99221,-5.95517 -1.99221,-5.95517ZM269.307,4.85875c-0.0200366,-0.0429356 -0.0529539,-0.0744218 -0.0744218,-0.111633c0.0415044,0.0114495 0.0844401,0.0143119 0.127376,0.0257614l-0.0529539,0.0858713ZM267.809,9.87077l0,0.00715594c-0.00143119,-0.00143119 -0.00143119,-0.00429356 -0.00286238,-0.00429356c0.00143119,0.00143119 0.00143119,0 0.00286238,-0.00286238ZM317.062,117.678c-3.22017,2.41584 -4.35367,0.568181 -3.22017,-2.83805c0.94029,-2.81515 3.55936,-7.9574 4.43811,-9.65479c1.16356,-0.0214678 2.40153,-0.0801465 3.69103,-0.196073c-0.101614,2.84806 -0.784291,9.59611 -4.90897,12.6889Z" style="fill:#c38923;fill-rule:nonzero;"/><path d="M707.334,232.161c7.00508,-24.1746 -18.4363,-17.8105 -18.4363,-17.8105c7.63594,-20.995 -26.0823,-15.2668 -44.5337,12.0822c-18.4464,27.3541 -50.2518,57.8878 -100.504,63.616c-50.2518,5.72822 -83.3291,17.8054 -111.955,-22.9028c-29.6252,-57.1509 -66.7148,-66.7653 -78.363,-68.3853l-0.514782,-1.03461c3.52777,-0.181688 6.35908,-3.03823 6.35908,-6.61647c0,-3.25524 -2.38213,-5.83925 -5.46578,-6.42469c0.176641,-0.595533 0.37347,-1.19107 0.37347,-1.84211c0,-3.68423 -2.9928,-6.67198 -6.68208,-6.67198c-1.48378,0 -2.79093,0.575345 -3.8962,1.40303c-1.16583,-1.9481 -3.20982,-3.3158 -5.63737,-3.3158c-2.00866,0 -3.75488,0.928627 -4.97623,2.33166c-1.11536,-2.11465 -3.27543,-3.60852 -5.83925,-3.60852c-3.24515,0 -5.82915,2.37204 -6.42469,5.45064c-1.20621,-1.19611 -2.86663,-1.94305 -4.71379,-1.94305c-3.67918,0 -6.67198,2.98776 -6.67198,6.67703c0,1.20116 0.403751,2.2711 0.958908,3.25019c-0.620767,-0.186735 -1.23649,-0.38861 -1.91277,-0.38861c-3.68423,0 -6.67703,2.9928 -6.67703,6.67703c0,1.25163 0.439079,2.36699 1.03966,3.36627c-2.46288,0.984143 -4.2192,3.36123 -4.2192,6.18244c0,2.76569 1.68061,5.14278 4.07284,6.1572c-1.66043,1.2163 -2.80607,3.0786 -2.80607,5.28914c0,2.93729 1.92286,5.35475 4.55229,6.25814c-0.671236,0.847877 -1.04975,1.38285 -1.04975,1.38285c-15.7665,12.3952 -17.5632,33.9908 -17.5632,33.9908c12.3194,-10.4925 22.8573,-9.23076 23.2258,-9.18029c-9.35693,19.0066 -3.27038,27.6468 2.63952,27.0715c6.44992,-0.630861 7.93371,-5.79887 7.36845,-11.8551l0.873111,1.33742c-1.26677,35.626 -22.499,45.1545 -14.8025,89.8194c11.5271,66.8914 43.4587,117.128 87.9571,128.337c40.7738,10.2704 34.985,54.7032 68.6982,61.0875c1.89763,0.358329 4.15359,0.686377 6.68208,0.958908c-2.64457,8.2668 -9.62441,30.0794 -12.3094,38.1191c-3.34104,10.013 -28.7117,20.0311 -40.0622,22.0347c-11.3504,2.00361 -10.6742,1.99857 -16.0188,4.00218c-5.34465,2.00361 -8.68569,4.67846 -2.67485,4.67846c6.01084,0 23.3671,-1.34247 26.7081,-1.34247c3.33599,0 -13.3541,8.68569 -16.0289,13.3541c-2.67485,4.68351 19.3649,-8.01446 40.7334,-16.0289c21.3685,-7.99931 28.7067,2.6698 36.0499,6.00579c6.79816,3.09374 13.3591,2.00866 8.00941,-2.66476c-5.34465,-4.66837 -9.34179,-8.68064 -9.34179,-8.68064c5.3497,-5.35475 16.685,-6.68208 25.3707,-4.01227c8.68064,2.6799 24.0383,8.68569 20.7074,1.34247c-3.35113,-7.34322 -23.3671,-5.34465 -23.3671,-14.0152c0,-8.67055 5.33456,-34.0513 9.34179,-40.0622c1.94305,-2.92719 5.62223,-5.05193 8.89766,-6.46001c8.82196,-2.02885 17.76,-4.82987 26.37,-8.6756c51.5136,-12.0772 54.0572,-52.1596 64.8727,-63.611c10.8205,-11.4463 4.4564,-17.8105 4.4564,-17.8105c12.0873,-1.27182 5.08726,-18.4464 5.08726,-18.4464c29.8877,3.18963 29.8927,-29.2568 29.8927,-29.2568c22.9078,1.27182 21.641,-19.7232 21.641,-19.7232c16.5386,-2.53858 10.1745,-26.7233 10.1745,-26.7233c36.2619,-15.2668 12.0923,-38.7954 12.0923,-38.7954c33.7132,-22.9028 3.17449,-36.2568 3.17449,-36.2568c32.4414,-3.17954 12.0923,-26.7182 12.0923,-26.7182c17.7903,-15.2769 -7.02527,-21.0001 -7.02527,-21.0001ZM314.479,189.853c-0.0706564,-0.151407 -0.186735,-0.262438 -0.262438,-0.393657c0.14636,0.0403751 0.297766,0.0504689 0.449173,0.090844l-0.186735,0.302813ZM309.195,207.527l0,0.0252344c-0.00504689,-0.00504689 -0.00504689,-0.0151407 -0.0100938,-0.0151407c0.00504689,0.00504689 0.00504689,0 0.0100938,-0.0100938ZM482.879,587.694c-11.3555,8.51914 -15.3526,2.00361 -11.3555,-10.008c3.3158,-9.92723 12.5516,-28.0607 15.6504,-34.0463c4.10312,-0.0757033 8.46868,-0.282626 13.0159,-0.691423c-0.358329,10.0433 -2.76569,33.8394 -17.3108,44.7457Z" style="fill:#e9a721;fill-rule:nonzero;"/></g></svg>