<?xml version="1.0" standalone="no"?><!DOCTYPE svg PUBLIC "-//W3C//DTD SVG 1.1//EN" "http://www.w3.org/Graphics/SVG/1.1/DTD/svg11.dtd"><svg width="100%" height="100%" viewBox="0 0 303 738" version="1.1" xmlns="http://www.w3.org/2000/svg" xmlns:xlink="http://www.w3.org/1999/xlink" xml:space="preserve" style="fill-rule:evenodd;clip-rule:evenodd;stroke-linejoin:round;stroke-miterlimit:1.41421;"><g id="chw-nepali"><g id="chw-female-full"><path d="M212.983,71.2125c0,33.0844 -26.7207,60.0435 -59.9698,60.0435c-33.3141,0 -60.0435,-26.9591 -60.0435,-60.0435c0,-33.2404 26.7293,-60.2125 60.0435,-60.2125c33.2491,0 59.9698,26.9721 59.9698,60.2125" style="fill:#64a2c8;fill-rule:nonzero;"/><path d="M292.439,380.12c0,0 -31.6322,-153.21 -46.5791,-183.98l0,-0.234088c-15.0076,-30.7088 -30.0282,-49.1931 -86.9462,-49.1931l-11.7737,0c-56.9136,0 -71.9299,18.4842 -86.9375,49.1931l0,0.234088c-15.0076,30.7695 -46.6441,183.98 -46.6441,183.98c-2.37122,10.3302 3.97949,20.6647 14.5394,22.9709c1.39586,0.459505 2.77437,0.702263 4.16589,0.702263c8.93868,0 16.7416,-6.06027 18.8094,-14.9513l42.6646,-151.663l-41.5635,383.821l46.1157,-6.82121e-13l6.41531,95.7423c0,7.73356 6.35504,14.2577 14.0886,14.2577c8.1974,0 14.7822,-6.52411 14.7822,-14.2577l6.18122,-95.7423l26.5524,0l6.18122,95.7423c0,7.73356 6.51544,14.2577 14.7172,14.2577c7.73356,0 14.0886,-6.52411 14.0886,-14.2577l6.39797,-95.7423l46.133,6.82121e-13l-41.5115,-383.821l42.6603,151.663c2.08511,8.89099 10.0441,14.9513 18.766,14.9513c1.38719,0 2.7657,-0.242757 4.44333,-0.702263c10.2782,-2.3062 16.6289,-12.6407 14.2533,-22.9709" style="fill:#64a2c8;fill-rule:nonzero;"/><path d="M166.333,244.333l0,26.6667l-26.6667,0l0,-26.6667l-26.6667,0l0,-26.6667l26.6667,0l0,-26.6667l26.6667,0l0,26.6667l26.6667,0l0,26.6667l-26.6667,0Z" style="fill:#fff;"/></g></g></svg>