<?xml version="1.0" standalone="no"?><!DOCTYPE svg PUBLIC "-//W3C//DTD SVG 1.1//EN" "http://www.w3.org/Graphics/SVG/1.1/DTD/svg11.dtd"><svg width="100%" height="100%" viewBox="0 0 270 701" version="1.1" xmlns="http://www.w3.org/2000/svg" xmlns:xlink="http://www.w3.org/1999/xlink" xml:space="preserve" style="fill-rule:evenodd;clip-rule:evenodd;stroke-linejoin:round;stroke-miterlimit:1.41421;"><g id="chw-female-full"><path d="M125.707,50.9425c0,27.582 -22.2767,50.0575 -49.9961,50.0575c-27.7736,0 -50.0575,-22.4755 -50.0575,-50.0575c0,-27.7122 22.2839,-50.1985 50.0575,-50.1985c27.7194,0 49.9961,22.4863 49.9961,50.1985" style="fill:#64a2c8;fill-rule:nonzero;"/><path d="M145,216c2.27933,-13.6057 4.45229,-30.5836 -10,-45c-20.4407,-20.3899 -17.2795,-54.5 -49.0231,-54.5l-11.7737,0c-56.2582,8.82217 -42.6688,60.7595 -44.2031,84.5l10,90l-40,180l59.013,-4.20641e-12l12.1812,215.529c0,7.73356 6.51544,14.2577 14.7172,14.2577c7.73356,0 14.0886,-6.52411 14.0886,-14.2577l12.398,-215.529l68.4927,7.61702e-12c0,0 -29.9089,-172.5 -35.8907,-215c-1.85832,-13.2032 -1.68467,-29.944 1.13687e-13,-40Z" style="fill:#64a2c8;fill-rule:nonzero;"/><path d="M188.396,228.11c6.87545,-7.70171 6.20563,-19.5188 -1.49608,-26.3943l-81.2521,-72.5351c-7.70171,-6.87545 -19.5188,-6.20563 -26.3943,1.49608c-6.87545,7.70171 -6.20563,19.5188 1.49608,26.3943l81.2521,72.5351c7.70171,6.87545 19.5188,6.20563 26.3943,-1.49608Z" style="fill:#63a3c8;"/><path d="M164.058,229.465c6.8411,6.65187 17.7793,6.49847 24.4312,-0.342629l76.621,-78.8007c6.65187,-6.8411 6.49847,-17.7793 -0.342629,-24.4312c-6.8411,-6.65187 -17.7793,-6.49847 -24.4312,0.342629l-76.621,78.8007c-6.65187,6.8411 -6.49847,17.7793 0.342629,24.4312Z" style="fill:#63a3c8;"/><path d="M88.5775,169.6l0,14.271l-14.3,0l0,-14.271l-14.2775,0l0,-14.3l14.2775,0l0,-14.3l14.3,0l0,14.3l14.3,0l0,14.3l-14.3,0Z" style="fill:#fff;"/></g></svg>