<?xml version="1.0" standalone="no"?><!DOCTYPE svg PUBLIC "-//W3C//DTD SVG 1.1//EN" "http://www.w3.org/Graphics/SVG/1.1/DTD/svg11.dtd"><svg width="100%" height="100%" viewBox="0 0 668 808" version="1.1" xmlns="http://www.w3.org/2000/svg" xmlns:xlink="http://www.w3.org/1999/xlink" xml:space="preserve" style="fill-rule:evenodd;clip-rule:evenodd;stroke-linecap:round;stroke-linejoin:bevel;stroke-miterlimit:10;"><g id="ChW-clipboard"><g id="clipboard"><g id="clipboard1"><path d="M560.679,130.722c0,-12.5293 -10.157,-22.6863 -22.6863,-22.6863l-407.306,0c-12.5293,0 -22.6863,10.157 -22.6863,22.6863l0,546.592c0,12.5293 10.157,22.6863 22.6863,22.6863l407.306,0c12.5293,0 22.6863,-10.157 22.6863,-22.6863l0,-546.592Z" style="fill:#fff8e0;stroke-width:21.33px;stroke:#6b342a;"/><g id="form"><rect x="182.643" y="337.217" width="243.75" height="21.3333" style="fill:#787878;"/><rect x="182.643" y="418.612" width="243.75" height="21.3333" style="fill:#787878;"/><rect x="182.643" y="500.007" width="243.75" height="21.3333" style="fill:#787878;"/><rect x="182.643" y="581.402" width="243.75" height="21.3333" style="fill:#787878;"/><path d="M472.821,364.279l-16.3212,-16.3212l-0.240254,-0.253174l-0.226674,-0.265401l-0.212474,-0.276901l-0.19769,-0.287641l-0.182366,-0.297594l-0.166541,-0.30673l-0.15026,-0.315026l-0.133566,-0.322458l-0.116507,-0.329006l-0.0991287,-0.334653l-0.0814785,-0.339382l-0.0636049,-0.343182l-0.045557,-0.34604l-0.0273843,-0.34795l-0.00913643,-0.348906l0.00913643,-0.348906l0.0273843,-0.34795l0.045557,-0.34604l0.0636049,-0.343182l0.0814785,-0.339382l0.0991287,-0.334653l0.116507,-0.329006l0.133566,-0.322458l0.15026,-0.315026l0.166541,-0.30673l0.182366,-0.297594l0.19769,-0.287641l0.212474,-0.276901l0.226674,-0.265401l0.240254,-0.253174l0.253174,-0.240254l0.265401,-0.226674l0.276901,-0.212474l0.287641,-0.19769l0.297594,-0.182366l0.30673,-0.166541l0.315026,-0.15026l0.322458,-0.133566l0.329006,-0.116507l0.334653,-0.0991287l0.339382,-0.0814785l0.343182,-0.0636049l0.34604,-0.045557l0.34795,-0.0273843l0.348906,-0.00913643l0.348906,0.00913643l0.34795,0.0273843l0.34604,0.045557l0.343182,0.0636049l0.339382,0.0814785l0.334653,0.0991287l0.329006,0.116507l0.322458,0.133566l0.315026,0.15026l0.30673,0.166541l0.297594,0.182366l0.287641,0.19769l0.276901,0.212474l0.265401,0.226674l0.253174,0.240254l6.8931,6.8931l30.1074,-30.1074l0.253174,-0.240254l0.265401,-0.226674l0.276901,-0.212474l0.287641,-0.19769l0.297594,-0.182366l0.30673,-0.166541l0.315026,-0.15026l0.322458,-0.133566l0.329006,-0.116507l0.334653,-0.0991287l0.339382,-0.0814785l0.343182,-0.0636049l0.34604,-0.045557l0.34795,-0.0273843l0.348906,-0.00913643l0.348906,0.00913643l0.34795,0.0273843l0.34604,0.045557l0.343182,0.0636049l0.339382,0.0814785l0.334653,0.0991287l0.329006,0.116507l0.322458,0.133566l0.315026,0.15026l0.30673,0.166541l0.297594,0.182366l0.287641,0.19769l0.276901,0.212474l0.265401,0.226674l0.253174,0.240254l0.240254,0.253174l0.226674,0.265401l0.212474,0.276901l0.19769,0.287641l0.182366,0.297594l0.166541,0.30673l0.15026,0.315026l0.133566,0.322458l0.116507,0.329006l0.0991287,0.334653l0.0814785,0.339382l0.0636049,0.343182l0.045557,0.34604l0.0273843,0.34795l0.00913643,0.348906l-0.00913643,0.348906l-0.0273843,0.34795l-0.045557,0.34604l-0.0636049,0.343182l-0.0814785,0.339382l-0.0991287,0.334653l-0.116507,0.329006l-0.133566,0.322458l-0.15026,0.315026l-0.166541,0.30673l-0.182366,0.297594l-0.19769,0.287641l-0.212474,0.276901l-0.226674,0.265401l-0.240254,0.253174l-39.5355,39.5355Z" style="fill:#787878;"/><path d="M472.821,609.428l-16.3212,-16.3212l-0.240254,-0.253174l-0.226674,-0.265401l-0.212474,-0.276901l-0.19769,-0.287641l-0.182366,-0.297594l-0.166541,-0.30673l-0.15026,-0.315026l-0.133566,-0.322458l-0.116507,-0.329006l-0.0991287,-0.334653l-0.0814785,-0.339382l-0.0636049,-0.343182l-0.045557,-0.34604l-0.0273843,-0.34795l-0.00913643,-0.348906l0.00913643,-0.348906l0.0273843,-0.34795l0.045557,-0.34604l0.0636049,-0.343182l0.0814785,-0.339382l0.0991287,-0.334653l0.116507,-0.329006l0.133566,-0.322458l0.15026,-0.315026l0.166541,-0.30673l0.182366,-0.297594l0.19769,-0.287641l0.212474,-0.276901l0.226674,-0.265401l0.240254,-0.253174l0.253174,-0.240254l0.265401,-0.226674l0.276901,-0.212474l0.287641,-0.19769l0.297594,-0.182366l0.30673,-0.166541l0.315026,-0.15026l0.322458,-0.133566l0.329006,-0.116507l0.334653,-0.0991287l0.339382,-0.0814785l0.343182,-0.0636049l0.34604,-0.045557l0.34795,-0.0273843l0.348906,-0.00913643l0.348906,0.00913643l0.34795,0.0273843l0.34604,0.045557l0.343182,0.0636049l0.339382,0.0814785l0.334653,0.0991287l0.329006,0.116507l0.322458,0.133566l0.315026,0.15026l0.30673,0.166541l0.297594,0.182366l0.287641,0.19769l0.276901,0.212474l0.265401,0.226674l0.253174,0.240254l6.8931,6.8931l30.1074,-30.1074l0.253174,-0.240254l0.265401,-0.226674l0.276901,-0.212474l0.287641,-0.19769l0.297594,-0.182366l0.30673,-0.166541l0.315026,-0.15026l0.322458,-0.133566l0.329006,-0.116507l0.334653,-0.0991287l0.339382,-0.0814785l0.343182,-0.0636049l0.34604,-0.045557l0.34795,-0.0273843l0.348906,-0.00913643l0.348906,0.00913643l0.34795,0.0273843l0.34604,0.045557l0.343182,0.0636049l0.339382,0.0814785l0.334653,0.0991287l0.329006,0.116507l0.322458,0.133566l0.315026,0.15026l0.30673,0.166541l0.297594,0.182366l0.287641,0.19769l0.276901,0.212474l0.265401,0.226674l0.253174,0.240254l0.240254,0.253174l0.226674,0.265401l0.212474,0.276901l0.19769,0.287641l0.182366,0.297594l0.166541,0.30673l0.15026,0.315026l0.133566,0.322458l0.116507,0.329006l0.0991287,0.334653l0.0814785,0.339382l0.0636049,0.343182l0.045557,0.34604l0.0273843,0.34795l0.00913643,0.348906l-0.00913643,0.348906l-0.0273843,0.34795l-0.045557,0.34604l-0.0636049,0.343182l-0.0814785,0.339382l-0.0991287,0.334653l-0.116507,0.329006l-0.133566,0.322458l-0.15026,0.315026l-0.166541,0.30673l-0.182366,0.297594l-0.19769,0.287641l-0.212474,0.276901l-0.226674,0.265401l-0.240254,0.253174l-39.5355,39.5355Z" style="fill:#787878;"/><path d="M472.821,526.659l-16.3212,-16.3212l-0.240254,-0.253174l-0.226674,-0.265401l-0.212474,-0.276901l-0.19769,-0.287641l-0.182366,-0.297594l-0.166541,-0.30673l-0.15026,-0.315026l-0.133566,-0.322458l-0.116507,-0.329006l-0.0991287,-0.334653l-0.0814785,-0.339382l-0.0636049,-0.343182l-0.045557,-0.34604l-0.0273843,-0.34795l-0.00913643,-0.348906l0.00913643,-0.348906l0.0273843,-0.34795l0.045557,-0.34604l0.0636049,-0.343182l0.0814785,-0.339382l0.0991287,-0.334653l0.116507,-0.329006l0.133566,-0.322458l0.15026,-0.315026l0.166541,-0.30673l0.182366,-0.297594l0.19769,-0.287641l0.212474,-0.276901l0.226674,-0.265401l0.240254,-0.253174l0.253174,-0.240254l0.265401,-0.226674l0.276901,-0.212474l0.287641,-0.19769l0.297594,-0.182366l0.30673,-0.166541l0.315026,-0.15026l0.322458,-0.133566l0.329006,-0.116507l0.334653,-0.0991287l0.339382,-0.0814785l0.343182,-0.0636049l0.34604,-0.045557l0.34795,-0.0273843l0.348906,-0.00913643l0.348906,0.00913643l0.34795,0.0273843l0.34604,0.045557l0.343182,0.0636049l0.339382,0.0814785l0.334653,0.0991287l0.329006,0.116507l0.322458,0.133566l0.315026,0.15026l0.30673,0.166541l0.297594,0.182366l0.287641,0.19769l0.276901,0.212474l0.265401,0.226674l0.253174,0.240254l6.8931,6.8931l30.1074,-30.1074l0.253174,-0.240254l0.265401,-0.226674l0.276901,-0.212474l0.287641,-0.19769l0.297594,-0.182366l0.30673,-0.166541l0.315026,-0.15026l0.322458,-0.133566l0.329006,-0.116507l0.334653,-0.0991287l0.339382,-0.0814785l0.343182,-0.0636049l0.34604,-0.045557l0.34795,-0.0273843l0.348906,-0.00913643l0.348906,0.00913643l0.34795,0.0273843l0.34604,0.045557l0.343182,0.0636049l0.339382,0.0814785l0.334653,0.0991287l0.329006,0.116507l0.322458,0.133566l0.315026,0.15026l0.30673,0.166541l0.297594,0.182366l0.287641,0.19769l0.276901,0.212474l0.265401,0.226674l0.253174,0.240254l0.240254,0.253174l0.226674,0.265401l0.212474,0.276901l0.19769,0.287641l0.182366,0.297594l0.166541,0.30673l0.15026,0.315026l0.133566,0.322458l0.116507,0.329006l0.0991287,0.334653l0.0814785,0.339382l0.0636049,0.343182l0.045557,0.34604l0.0273843,0.34795l0.00913643,0.348906l-0.00913643,0.348906l-0.0273843,0.34795l-0.045557,0.34604l-0.0636049,0.343182l-0.0814785,0.339382l-0.0991287,0.334653l-0.116507,0.329006l-0.133566,0.322458l-0.15026,0.315026l-0.166541,0.30673l-0.182366,0.297594l-0.19769,0.287641l-0.212474,0.276901l-0.226674,0.265401l-0.240254,0.253174l-39.5355,39.5355Z" style="fill:#787878;"/><path d="M472.821,446.143l-16.3212,-16.3212l-0.240254,-0.253174l-0.226674,-0.265401l-0.212474,-0.276901l-0.19769,-0.287641l-0.182366,-0.297594l-0.166541,-0.30673l-0.15026,-0.315026l-0.133566,-0.322458l-0.116507,-0.329006l-0.0991287,-0.334653l-0.0814785,-0.339382l-0.0636049,-0.343182l-0.045557,-0.34604l-0.0273843,-0.34795l-0.00913643,-0.348906l0.00913643,-0.348906l0.0273843,-0.34795l0.045557,-0.34604l0.0636049,-0.343182l0.0814785,-0.339382l0.0991287,-0.334653l0.116507,-0.329006l0.133566,-0.322458l0.15026,-0.315026l0.166541,-0.30673l0.182366,-0.297594l0.19769,-0.287641l0.212474,-0.276901l0.226674,-0.265401l0.240254,-0.253174l0.253174,-0.240254l0.265401,-0.226674l0.276901,-0.212474l0.287641,-0.19769l0.297594,-0.182366l0.30673,-0.166541l0.315026,-0.15026l0.322458,-0.133566l0.329006,-0.116507l0.334653,-0.0991287l0.339382,-0.0814785l0.343182,-0.0636049l0.34604,-0.045557l0.34795,-0.0273843l0.348906,-0.00913643l0.348906,0.00913643l0.34795,0.0273843l0.34604,0.045557l0.343182,0.0636049l0.339382,0.0814785l0.334653,0.0991287l0.329006,0.116507l0.322458,0.133566l0.315026,0.15026l0.30673,0.166541l0.297594,0.182366l0.287641,0.19769l0.276901,0.212474l0.265401,0.226674l0.253174,0.240254l6.8931,6.8931l30.1074,-30.1074l0.253174,-0.240254l0.265401,-0.226674l0.276901,-0.212474l0.287641,-0.19769l0.297594,-0.182366l0.30673,-0.166541l0.315026,-0.15026l0.322458,-0.133566l0.329006,-0.116507l0.334653,-0.0991287l0.339382,-0.0814785l0.343182,-0.0636049l0.34604,-0.045557l0.34795,-0.0273843l0.348906,-0.00913643l0.348906,0.00913643l0.34795,0.0273843l0.34604,0.045557l0.343182,0.0636049l0.339382,0.0814785l0.334653,0.0991287l0.329006,0.116507l0.322458,0.133566l0.315026,0.15026l0.30673,0.166541l0.297594,0.182366l0.287641,0.19769l0.276901,0.212474l0.265401,0.226674l0.253174,0.240254l0.240254,0.253174l0.226674,0.265401l0.212474,0.276901l0.19769,0.287641l0.182366,0.297594l0.166541,0.30673l0.15026,0.315026l0.133566,0.322458l0.116507,0.329006l0.0991287,0.334653l0.0814785,0.339382l0.0636049,0.343182l0.045557,0.34604l0.0273843,0.34795l0.00913643,0.348906l-0.00913643,0.348906l-0.0273843,0.34795l-0.045557,0.34604l-0.0636049,0.343182l-0.0814785,0.339382l-0.0991287,0.334653l-0.116507,0.329006l-0.133566,0.322458l-0.15026,0.315026l-0.166541,0.30673l-0.182366,0.297594l-0.19769,0.287641l-0.212474,0.276901l-0.226674,0.265401l-0.240254,0.253174l-39.5355,39.5355Z" style="fill:#787878;"/></g><path d="M171.259,170c-0.103758,-24.9206 7.32937,-33.6828 17.4107,-40.0446c9.81505,-6.1938 28.9188,-6.02964 52.2321,-6.38393c19.6749,-0.298995 34.8214,-2.84217e-14 34.8214,-2.84217e-14c0,0 9.13942,-58.0357 58.0357,-58.0357c48.8963,0 59.1954,58.0357 59.1954,58.0357c0,0 15.1465,-0.298995 34.8214,2.84217e-14c23.3133,0.354288 42.4171,0.190126 52.2321,6.38393c10.0813,6.36185 17.5145,15.124 17.4107,40.0446l-326.16,0Z" style="fill:#505050;"/><circle cx="334.339" cy="94.5536" r="11.6071" style="fill:#fff;"/></g><g id="Layer 1"><path d="M323.889,263.22l-14.521,12.8068c-0.438588,0.386057 -1.10911,0.345419 -1.49715,-0.0961425l-13.3346,-15.1177c-0.388039,-0.439579 -0.34641,-1.11258 0.0921779,-1.49963l14.5195,-12.8063c0.440075,-0.387048 1.11159,-0.343933 1.50012,0.0946558l13.3341,15.1201c0.38903,0.441066 0.345419,1.11109 -0.093169,1.49814M365.364,225.613c-0.134302,-3.86453 -3.10481,-2.62806 -4.10538,-2.30445c4.03105,-2.50317 7.50358,-9.86601 6.59518,-13.0466c-0.709175,-2.48186 -2.35004,-1.63145 -4.34921,0.306268c5.83694,-13.174 -2.80548,-20.2459 -2.80647,-20.237c-1.48674,-0.977779 -2.54579,0.33749 -2.523,2.29404c0.299826,15.8447 -11.2819,25.003 -23.9296,32.5978c-9.50869,6.14222 -12.8757,16.48 -14.0418,23.8706c-0.290905,0.90592 -0.973815,0.474766 -1.30288,0.194763l-7.31476,-8.29452c-0.797884,-0.903938 -1.92384,-1.34699 -3.04137,-1.30784c-0.865283,0.0292392 -1.72561,0.346906 -2.42487,0.963903l-0.330056,0.291401l-0.0049558,-0.00594696l-0.00693812,0.00594696l-1.76674,-2.00264c-0.521846,-0.591227 -1.23548,-0.901956 -1.92929,-0.91038c-0.536713,-0.00346906 -1.06153,0.173949 -1.47782,0.541669l-0.975301,0.859336c-0.96093,0.846451 -0.987691,2.3877 -0.0604608,3.43883l1.76625,2.00264l-12.0238,10.6049c-1.60469,1.41587 -1.75733,3.86206 -0.342446,5.46476l41.657,47.2332c0.793919,0.898982 1.91343,1.34253 3.027,1.30784c0.870239,-0.0262657 1.73552,-0.345915 2.43924,-0.96539l16.8081,-14.8268c1.60518,-1.41488 1.75683,-3.86206 0.34195,-5.46476l-14.0963,-15.9834c-0.0074337,-0.0133807 -0.0123895,-0.0252746 -0.0218055,-0.0366729c-0.517881,-0.825636 0.944576,-0.66606 0.944576,-0.66606l0.00297348,-0.0143718c2.26976,0.0763193 3.96414,-0.449987 5.16593,-1.25828c1.82473,-1.22656 -0.249772,-2.13149 -0.570908,-3.02304c2.81489,1.35541 8.34904,0.201205 9.72824,-1.57743c1.0759,-1.38911 -0.777565,-1.97092 -2.54679,-2.36887c4.46567,-2.074 8.03038,-4.14751 9.94332,-9.07506c1.1215,-2.88725 -1.96299,-2.97249 -5.03708,-1.80837c2.50714,-2.50912 5.02469,-5.93209 6.27801,-10.316c1.41835,-4.96323 -0.433137,-7.46145 -4.43197,-4.11232c3.63855,-3.5652 6.9069,-8.29304 6.76417,-12.3717" style="fill:#58595b;fill-rule:nonzero;"/></g></g></g></svg>