<?xml version="1.0" standalone="no"?><!DOCTYPE svg PUBLIC "-//W3C//DTD SVG 1.1//EN" "http://www.w3.org/Graphics/SVG/1.1/DTD/svg11.dtd"><svg width="100%" height="100%" viewBox="0 0 118 51" version="1.1" xmlns="http://www.w3.org/2000/svg" xmlns:xlink="http://www.w3.org/1999/xlink" xml:space="preserve" style="fill-rule:evenodd;clip-rule:evenodd;stroke-linejoin:round;stroke-miterlimit:1.41421;"><path id="cloud-2" d="M102.186,24.1375c9.58029,3.02073 14.8609,7.11921 14.8633,11.633c0.00379084,7.22058 -1.40524,14.6754 -29.6861,14.6367c-0.0384703,-5.2569e-05 -18.3659,0.152693 -28.8563,0.152693c-12.0071,0 -32.2854,-0.786378 -32.4544,-0.791659c-25.3998,-0.79377 -27.2667,-9.17184 -25.164,-15.7301c1.24574,-3.88541 6.08967,-7.21674 13.7737,-9.7529c-0.0208603,-0.27938 -0.0314201,-0.561231 -0.0314201,-0.845292c0,-6.91158 6.25155,-12.5145 13.9632,-12.5145c0.889109,0 1.75881,0.0744781 2.60169,0.216904c2.14627,-6.2862 10.7375,-10.9852 21.0092,-10.9852c8.97036,0 16.6591,3.58381 19.8929,8.67887l0.132918,-0.000199455c16.5895,0 30.038,6.37451 30.038,14.2379c0,0.357833 -0.0278495,0.712583 -0.0827161,1.06379Z" style="fill:#fff;"/></svg>