<?xml version="1.0" standalone="no"?><!DOCTYPE svg PUBLIC "-//W3C//DTD SVG 1.1//EN" "http://www.w3.org/Graphics/SVG/1.1/DTD/svg11.dtd"><svg width="100%" height="100%" viewBox="0 0 800 445" version="1.1" xmlns="http://www.w3.org/2000/svg" xmlns:xlink="http://www.w3.org/1999/xlink" xml:space="preserve" style="fill-rule:evenodd;clip-rule:evenodd;stroke-linejoin:round;stroke-miterlimit:1.41421;"><g id="laptop-logo"><path d="M700,30.698l-600,-2.4869e-14l0,363.641l599.93,0.240924l0.070407,-363.882ZM725.193,21.3281l0,381.034c0,5.9934 -4.33179,11.9776 -10.3256,11.9776l-629.43,0c-5.99428,0 -11.5094,-5.98416 -11.5094,-11.9776l0,-83.2l0,-236.338l0,-61.4957c0,-11.9872 10.374,-20.6301 22.3613,-20.6301l607.726,0c11.9877,0 21.178,8.6429 21.178,20.6301" style="fill:#c8c8c8;fill-rule:nonzero;"/><path d="M0,414.339l0,13.1868c0,0 16.2596,17.2972 55.4297,17.2972l689.848,0c39.1696,0 54.7221,-17.2972 54.7221,-17.2972l2.27374e-13,-13.1868l-800,-4.09273e-12Z" style="fill:#b4b4b4;fill-rule:nonzero;"/><path d="M452.075,424.339l-104.151,0l-7.92463,0c0,0 0.121924,10 7.23432,10l105.531,0c7.11284,0 7.23432,-10 7.23432,-10l-7.92463,0Z" style="fill:#fff;fill-rule:nonzero;"/></g></svg>