<?xml version="1.0" standalone="no"?><!DOCTYPE svg PUBLIC "-//W3C//DTD SVG 1.1//EN" "http://www.w3.org/Graphics/SVG/1.1/DTD/svg11.dtd"><svg width="100%" height="100%" viewBox="0 0 800 53" version="1.1" xmlns="http://www.w3.org/2000/svg" xmlns:xlink="http://www.w3.org/1999/xlink" xml:space="preserve" style="fill-rule:evenodd;clip-rule:evenodd;stroke-linejoin:round;stroke-miterlimit:1.41421;"><g id="laptop-closed"><path d="M0,22.3394l0,13.1868c0,0 16.2596,17.2972 55.4297,17.2972l689.848,0c39.1696,0 54.7221,-17.2972 54.7221,-17.2972l2.27374e-13,-13.1868l-800,-4.09273e-12Z" style="fill:#b4b4b4;fill-rule:nonzero;"/><path d="M0,18l0,-7.56325c0,0 16.2596,-9.92079 55.4297,-9.92079l689.848,0c39.1696,0 54.7221,9.92079 54.7221,9.92079l2.27374e-13,7.56325l-800,2.33058e-12Z" style="fill:#b4b4b4;fill-rule:nonzero;"/><path d="M0,18l0,-7.56325c0,0 16.2596,-9.92079 55.4297,-9.92079l689.848,0c39.1696,0 54.7221,9.92079 54.7221,9.92079l2.27374e-13,7.56325l-800,2.33058e-12Z" style="fill:#b4b4b4;fill-rule:nonzero;"/><path d="M452.075,32.3394l-104.151,0l-7.92463,0c0,0 0.121924,10 7.23432,10l105.531,0c7.11284,0 7.23432,-10 7.23432,-10l-7.92463,0Z" style="fill:#fff;fill-rule:nonzero;"/></g></svg>