<?xml version="1.0" standalone="no"?><!DOCTYPE svg PUBLIC "-//W3C//DTD SVG 1.1//EN" "http://www.w3.org/Graphics/SVG/1.1/DTD/svg11.dtd"><svg width="100%" height="100%" viewBox="0 0 800 445" version="1.1" xmlns="http://www.w3.org/2000/svg" xmlns:xlink="http://www.w3.org/1999/xlink" xml:space="preserve" style="fill-rule:evenodd;clip-rule:evenodd;stroke-linejoin:round;stroke-miterlimit:1.41421;"><g id="laptop-logo"><path d="M700,30.698l-600,-2.4869e-14l0,363.641l599.93,0.240924l0.070407,-363.882ZM725.193,21.3281l0,381.034c0,5.9934 -4.33179,11.9776 -10.3256,11.9776l-629.43,0c-5.99428,0 -11.5094,-5.98416 -11.5094,-11.9776l0,-83.2l0,-236.338l0,-61.4957c0,-11.9872 10.374,-20.6301 22.3613,-20.6301l607.726,0c11.9877,0 21.178,8.6429 21.178,20.6301" style="fill:#c8c8c8;fill-rule:nonzero;"/><path d="M0,414.339l0,13.1868c0,0 16.2596,17.2972 55.4297,17.2972l689.848,0c39.1696,0 54.7221,-17.2972 54.7221,-17.2972l2.27374e-13,-13.1868l-800,-4.09273e-12Z" style="fill:#b4b4b4;fill-rule:nonzero;"/><path d="M452.075,424.339l-104.151,0l-7.92463,0c0,0 0.121924,10 7.23432,10l105.531,0c7.11284,0 7.23432,-10 7.23432,-10l-7.92463,0Z" style="fill:#fff;fill-rule:nonzero;"/><path d="M381.8,189.606l-25.966,22.901c-0.785,0.692 -1.984,0.618 -2.679,-0.17l-23.846,-27.035c-0.696,-0.788 -0.619,-1.991 0.164,-2.684l25.967,-22.901c0.787,-0.693 1.988,-0.615 2.681,0.169l23.846,27.04c0.695,0.788 0.618,1.987 -0.167,2.68M455.973,122.352c-0.242,-6.911 -5.553,-4.699 -7.344,-4.121c7.21,-4.476 13.42,-17.643 11.795,-23.332c-1.269,-4.438 -4.202,-2.918 -7.777,0.548c10.437,-23.558 -5.018,-36.205 -5.018,-36.19c-2.659,-1.749 -4.555,0.604 -4.513,4.103c0.537,28.335 -20.175,44.712 -42.794,58.294c-17.005,10.985 -23.025,29.473 -25.111,42.688c-0.52,1.621 -1.743,0.85 -2.331,0.348l-13.079,-14.832c-1.428,-1.618 -3.441,-2.41 -5.439,-2.34c-1.549,0.053 -3.085,0.622 -4.337,1.724l-0.589,0.523l-0.01,-0.012l-0.012,0.012l-3.158,-3.582c-0.935,-1.058 -2.209,-1.614 -3.453,-1.629c-0.959,-0.006 -1.897,0.311 -2.641,0.969l-1.744,1.537c-1.719,1.514 -1.768,4.269 -0.109,6.15l3.159,3.582l-21.503,18.964c-2.869,2.533 -3.143,6.905 -0.611,9.773l74.494,84.465c1.421,1.609 3.422,2.403 5.413,2.341c1.557,-0.046 3.106,-0.619 4.363,-1.728l30.058,-26.512c2.869,-2.531 3.14,-6.908 0.611,-9.773l-25.208,-28.585c-0.014,-0.024 -0.022,-0.045 -0.039,-0.066c-0.927,-1.475 1.689,-1.19 1.689,-1.19l0.003,-0.026c4.061,0.137 7.09,-0.805 9.241,-2.251c3.261,-2.193 -0.448,-3.809 -1.022,-5.405c5.035,2.423 14.93,0.361 17.397,-2.82c1.925,-2.486 -1.389,-3.526 -4.553,-4.236c7.984,-3.711 14.359,-7.418 17.782,-16.232c2.005,-5.16 -3.512,-5.314 -9.009,-3.233c4.483,-4.485 8.985,-10.609 11.226,-18.447c2.538,-8.877 -0.774,-13.343 -7.925,-7.354c6.507,-6.376 12.352,-14.831 12.098,-22.125" style="fill:#656464;fill-rule:nonzero;"/><path d="M210.473,335.215l-0.112,0l-4.928,27.888l-5.433,0l8.624,-44.016l14.504,33.264l14.504,-33.264l8.624,44.016l-5.431,0l-4.928,-27.888l-0.112,0l-12.657,28.784l-12.655,-28.784Z" style="fill:#656464;fill-rule:nonzero;"/><path d="M254.881,320.88l22.68,0l0,4.815l-17.416,0l0,11.817l16.912,0l0,4.815l-16.912,0l0,15.96l17.416,0l0,4.817l-22.68,0l0,-42.224Z" style="fill:#656464;fill-rule:nonzero;"/><path d="M292.792,358.287l1.849,0c10.752,0 20.047,-4.031 20.047,-16.296c0,-12.319 -9.295,-16.296 -20.047,-16.296l-1.849,0l0,32.592ZM287.528,320.88l8.737,0c12.935,0 23.687,6.832 23.687,20.887c0,14.392 -10.528,21.336 -23.855,21.336l-8.569,0l0,-42.223Z" style="fill:#656464;fill-rule:nonzero;"/><rect x="327.847" y="320.88" width="5.264" height="42.224" style="fill:#656464;fill-rule:nonzero;"/><path d="M374.551,328.943c-3.023,-2.688 -7.168,-4.144 -11.144,-4.144c-9.463,0 -16.687,7.896 -16.687,17.248c0,9.24 7.168,17.136 16.575,17.136c4.145,0 8.12,-1.568 11.256,-4.368l0,6.216c-3.247,1.904 -7.392,2.969 -11.088,2.969c-12.04,0 -22.008,-9.577 -22.008,-21.785c0,-12.488 10.025,-22.232 22.456,-22.232c3.697,0 7.449,0.897 10.64,2.856l0,6.104Z" style="fill:#656464;fill-rule:nonzero;"/><path d="M409.775,335.215l-0.112,0l-4.928,27.888l-5.433,0l8.624,-44.016l14.504,33.264l14.504,-33.264l8.624,44.016l-5.431,0l-4.928,-27.888l-0.112,0l-12.657,28.784l-12.655,-28.784Z" style="fill:#8c8c8c;fill-rule:nonzero;"/><path d="M487.95,341.991c0,-9.296 -6.944,-17.079 -16.856,-17.079c-9.913,0 -16.856,7.783 -16.856,17.079c0,9.633 7.728,17.08 16.856,17.08c9.127,0 16.856,-7.447 16.856,-17.08M493.214,341.991c0,12.544 -9.912,22.009 -22.12,22.009c-12.208,0 -22.12,-9.465 -22.12,-22.009c0,-12.096 10.024,-22.008 22.12,-22.008c12.096,0 22.12,9.912 22.12,22.008" style="fill:#8c8c8c;fill-rule:nonzero;"/><path d="M505.925,358.399l4.032,0c4.872,0 9.968,-1.456 9.968,-7.448c0,-5.936 -6.048,-7.168 -10.752,-7.168l-3.248,0l0,14.616ZM505.925,339.584l1.345,0c4.983,0 9.071,-1.009 9.071,-7.057c0,-5.936 -4.031,-6.943 -8.96,-6.943l-1.456,0l0,14ZM500.661,320.879l5.153,0c7.951,0 15.455,2.073 15.455,11.592c0,3.08 -1.68,6.664 -4.535,8.008l0,0.112c4.983,0.896 8.456,5.768 8.456,10.696c0,8.456 -7.225,11.816 -14.673,11.816l-9.856,0l0,-42.224Z" style="fill:#8c8c8c;fill-rule:nonzero;"/><rect x="534.821" y="320.88" width="5.264" height="42.224" style="fill:#8c8c8c;fill-rule:nonzero;"/><path d="M558.284,358.287l12.824,0l0,4.816l-18.088,0l0,-42.223l5.264,0l0,37.407Z" style="fill:#8c8c8c;fill-rule:nonzero;"/><path d="M577.381,320.88l22.68,0l0,4.815l-17.416,0l0,11.817l16.912,0l0,4.815l-16.912,0l0,15.96l17.416,0l0,4.817l-22.68,0l0,-42.224Z" style="fill:#8c8c8c;fill-rule:nonzero;"/><path d="M612.456,328.33l-0.877,0l0,-6.236l-1.672,0l0,-0.804l4.221,0l0,0.804l-1.672,0l0,6.236Z" style="fill:#8c8c8c;fill-rule:nonzero;"/><path d="M616.851,323.68l-0.018,0l-0.822,4.649l-0.906,0l1.438,-7.338l2.418,5.545l2.419,-5.545l1.438,7.338l-0.905,0l-0.822,-4.649l-0.019,0l-2.111,4.8l-2.11,-4.8Z" style="fill:#8c8c8c;fill-rule:nonzero;"/></g></svg>