<?xml version="1.0" standalone="no"?>
<!DOCTYPE svg PUBLIC "-//W3C//DTD SVG 1.1//EN" "http://www.w3.org/Graphics/SVG/1.1/DTD/svg11.dtd">
<svg width="100%" height="100%" viewBox="0 0 800 800" version="1.1" xmlns="http://www.w3.org/2000/svg" xmlns:xlink="http://www.w3.org/1999/xlink" xml:space="preserve" style="fill-rule:evenodd;clip-rule:evenodd;stroke-linejoin:round;stroke-miterlimit:1.41421;">
    <g id="mother/child">
        <g id="Layer 1">
            <path d="M406.9,246.216C459.347,246.216 501.823,202.351 501.823,148.152C501.823,93.9776 459.347,50 406.9,50C354.429,50 311.961,93.9776 311.961,148.152C311.961,202.351 354.429,246.216 406.9,246.216" style="fill:rgb(244,121,99);fill-rule:nonzero;"/>
            <path d="M343.035,497.89C336.358,500.804 329.067,502.516 321.308,502.516C291.541,502.516 267.465,477.996 267.465,447.792C267.465,417.475 291.541,392.971 321.308,392.971C350.568,392.971 374.635,416.732 375.402,446.282C384.744,439.621 394.214,436.392 401.408,435.108L401.408,435.318C412.057,433.284 420.43,435.318 420.43,435.318C456.342,443.279 535.9,478.545 535.9,478.545C535.9,478.545 493.214,531.436 415.707,531.016C413.664,531.016 411.742,531.016 409.902,530.903L409.797,530.903C402.692,530.782 396.249,530.257 390.565,529.619C353.878,525.308 343.463,511.647 343.035,497.89M575.26,329.415C570.504,315.133 543.651,271.785 470.64,271.373L327.662,271.672C256.807,267.716 228.533,309.626 224.117,328.22C224.117,328.22 176.183,481.015 184.443,516.387C189.497,538.428 227.677,565.297 268.199,585.304L214.122,750L595.468,750L542.892,579.491C579.119,560.356 610.938,536.393 615.564,516.387C623.847,480.571 575.26,329.415 575.26,329.415" style="fill:rgb(244,121,99);fill-rule:nonzero;"/>
        </g>
    </g>
</svg>
