<?xml version="1.0" standalone="no"?><!DOCTYPE svg PUBLIC "-//W3C//DTD SVG 1.1//EN" "http://www.w3.org/Graphics/SVG/1.1/DTD/svg11.dtd"><svg width="100%" height="100%" viewBox="0 0 458 596" version="1.1" xmlns="http://www.w3.org/2000/svg" xmlns:xlink="http://www.w3.org/1999/xlink" xml:space="preserve" style="fill-rule:evenodd;clip-rule:evenodd;stroke-linecap:round;stroke-linejoin:bevel;stroke-miterlimit:10;"><g id="paper"><g id="clipboard"><path d="M454.679,23.722c0,-12.529 -10.157,-22.686 -22.687,-22.686l-407.306,0c-12.529,0 -22.686,10.157 -22.686,22.686l0,546.592c0,12.529 10.157,22.686 22.686,22.686l407.306,0c12.53,0 22.687,-10.157 22.687,-22.686l0,-546.592Z" style="fill:#fff8e0;stroke-width:2.67px;stroke:#aba591;"/><g id="form"><rect x="77" y="217.967" width="243.75" height="21.333" style="fill:#787878;"/><rect x="77" y="299.362" width="243.75" height="21.333" style="fill:#787878;"/><rect x="77" y="380.757" width="243.75" height="21.333" style="fill:#787878;"/><rect x="77" y="462.152" width="243.75" height="21.333" style="fill:#787878;"/><path d="M367.179,245.029l-16.322,-16.321l-0.24,-0.253l-0.227,-0.266l-0.212,-0.277l-0.198,-0.287l-0.182,-0.298l-0.167,-0.307l-0.15,-0.315l-0.133,-0.322l-0.117,-0.329l-0.099,-0.335l-0.082,-0.339l-0.063,-0.343l-0.046,-0.346l-0.027,-0.348l-0.009,-0.349l0.009,-0.349l0.027,-0.348l0.046,-0.346l0.063,-0.343l0.082,-0.34l0.099,-0.334l0.117,-0.329l0.133,-0.323l0.15,-0.315l0.167,-0.306l0.182,-0.298l0.198,-0.288l0.212,-0.277l0.227,-0.265l0.24,-0.253l0.254,-0.24l0.265,-0.227l0.277,-0.213l0.288,-0.197l0.297,-0.183l0.307,-0.166l0.315,-0.15l0.322,-0.134l0.329,-0.117l0.335,-0.099l0.339,-0.081l0.344,-0.064l0.346,-0.045l0.348,-0.028l0.348,-0.009l0.349,0.009l0.348,0.028l0.346,0.045l0.344,0.064l0.339,0.081l0.335,0.099l0.329,0.117l0.322,0.134l0.315,0.15l0.307,0.166l0.297,0.183l0.288,0.197l0.277,0.213l0.265,0.227l0.253,0.24l6.894,6.893l30.107,-30.107l0.253,-0.241l0.266,-0.226l0.276,-0.213l0.288,-0.198l0.298,-0.182l0.306,-0.166l0.315,-0.151l0.323,-0.133l0.329,-0.117l0.335,-0.099l0.339,-0.081l0.343,-0.064l0.346,-0.046l0.348,-0.027l0.349,-0.009l0.349,0.009l0.348,0.027l0.346,0.046l0.343,0.064l0.339,0.081l0.335,0.099l0.329,0.117l0.323,0.133l0.315,0.151l0.306,0.166l0.298,0.182l0.288,0.198l0.276,0.213l0.266,0.226l0.253,0.241l0.24,0.253l0.227,0.265l0.212,0.277l0.198,0.288l0.183,0.297l0.166,0.307l0.15,0.315l0.134,0.322l0.116,0.329l0.1,0.335l0.081,0.339l0.064,0.344l0.045,0.346l0.028,0.348l0.009,0.349l-0.009,0.348l-0.028,0.348l-0.045,0.346l-0.064,0.344l-0.081,0.339l-0.1,0.335l-0.116,0.329l-0.134,0.322l-0.15,0.315l-0.166,0.307l-0.183,0.297l-0.198,0.288l-0.212,0.277l-0.227,0.265l-0.24,0.254l-39.535,39.535Z" style="fill:#787878;"/><path d="M367.179,490.178l-16.322,-16.321l-0.24,-0.253l-0.227,-0.266l-0.212,-0.276l-0.198,-0.288l-0.182,-0.298l-0.167,-0.306l-0.15,-0.315l-0.133,-0.323l-0.117,-0.329l-0.099,-0.335l-0.082,-0.339l-0.063,-0.343l-0.046,-0.346l-0.027,-0.348l-0.009,-0.349l0.009,-0.349l0.027,-0.348l0.046,-0.346l0.063,-0.343l0.082,-0.339l0.099,-0.335l0.117,-0.329l0.133,-0.323l0.15,-0.315l0.167,-0.306l0.182,-0.298l0.198,-0.288l0.212,-0.276l0.227,-0.266l0.24,-0.253l0.254,-0.24l0.265,-0.227l0.277,-0.212l0.288,-0.198l0.297,-0.183l0.307,-0.166l0.315,-0.15l0.322,-0.134l0.329,-0.116l0.335,-0.1l0.339,-0.081l0.344,-0.064l0.346,-0.045l0.348,-0.028l0.348,-0.009l0.349,0.009l0.348,0.028l0.346,0.045l0.344,0.064l0.339,0.081l0.335,0.1l0.329,0.116l0.322,0.134l0.315,0.15l0.307,0.166l0.297,0.183l0.288,0.198l0.277,0.212l0.265,0.227l0.253,0.24l6.894,6.893l30.107,-30.107l0.253,-0.241l0.266,-0.226l0.276,-0.213l0.288,-0.197l0.298,-0.183l0.306,-0.166l0.315,-0.151l0.323,-0.133l0.329,-0.117l0.335,-0.099l0.339,-0.081l0.343,-0.064l0.346,-0.045l0.348,-0.028l0.349,-0.009l0.349,0.009l0.348,0.028l0.346,0.045l0.343,0.064l0.339,0.081l0.335,0.099l0.329,0.117l0.323,0.133l0.315,0.151l0.306,0.166l0.298,0.183l0.288,0.197l0.276,0.213l0.266,0.226l0.253,0.241l0.24,0.253l0.227,0.265l0.212,0.277l0.198,0.288l0.183,0.297l0.166,0.307l0.15,0.315l0.134,0.323l0.116,0.329l0.1,0.334l0.081,0.34l0.064,0.343l0.045,0.346l0.028,0.348l0.009,0.349l-0.009,0.349l-0.028,0.348l-0.045,0.346l-0.064,0.343l-0.081,0.339l-0.1,0.335l-0.116,0.329l-0.134,0.322l-0.15,0.315l-0.166,0.307l-0.183,0.298l-0.198,0.287l-0.212,0.277l-0.227,0.266l-0.24,0.253l-39.535,39.535Z" style="fill:#787878;"/><path d="M367.179,407.409l-16.322,-16.321l-0.24,-0.254l-0.227,-0.265l-0.212,-0.277l-0.198,-0.288l-0.182,-0.297l-0.167,-0.307l-0.15,-0.315l-0.133,-0.322l-0.117,-0.329l-0.099,-0.335l-0.082,-0.339l-0.063,-0.344l-0.046,-0.346l-0.027,-0.348l-0.009,-0.348l0.009,-0.349l0.027,-0.348l0.046,-0.346l0.063,-0.344l0.082,-0.339l0.099,-0.335l0.117,-0.329l0.133,-0.322l0.15,-0.315l0.167,-0.307l0.182,-0.297l0.198,-0.288l0.212,-0.277l0.227,-0.265l0.24,-0.254l0.254,-0.24l0.265,-0.226l0.277,-0.213l0.288,-0.198l0.297,-0.182l0.307,-0.167l0.315,-0.15l0.322,-0.133l0.329,-0.117l0.335,-0.099l0.339,-0.081l0.344,-0.064l0.346,-0.046l0.348,-0.027l0.348,-0.009l0.349,0.009l0.348,0.027l0.346,0.046l0.344,0.064l0.339,0.081l0.335,0.099l0.329,0.117l0.322,0.133l0.315,0.15l0.307,0.167l0.297,0.182l0.288,0.198l0.277,0.213l0.265,0.226l0.253,0.24l6.894,6.894l30.107,-30.108l0.253,-0.24l0.266,-0.227l0.276,-0.212l0.288,-0.198l0.298,-0.182l0.306,-0.167l0.315,-0.15l0.323,-0.134l0.329,-0.116l0.335,-0.099l0.339,-0.082l0.343,-0.063l0.346,-0.046l0.348,-0.027l0.349,-0.009l0.349,0.009l0.348,0.027l0.346,0.046l0.343,0.063l0.339,0.082l0.335,0.099l0.329,0.116l0.323,0.134l0.315,0.15l0.306,0.167l0.298,0.182l0.288,0.198l0.276,0.212l0.266,0.227l0.253,0.24l0.24,0.253l0.227,0.266l0.212,0.277l0.198,0.287l0.183,0.298l0.166,0.307l0.15,0.315l0.134,0.322l0.116,0.329l0.1,0.335l0.081,0.339l0.064,0.343l0.045,0.346l0.028,0.348l0.009,0.349l-0.009,0.349l-0.028,0.348l-0.045,0.346l-0.064,0.343l-0.081,0.34l-0.1,0.334l-0.116,0.329l-0.134,0.323l-0.15,0.315l-0.166,0.307l-0.183,0.297l-0.198,0.288l-0.212,0.277l-0.227,0.265l-0.24,0.253l-39.535,39.536Z" style="fill:#787878;"/><path d="M367.179,326.893l-16.322,-16.321l-0.24,-0.253l-0.227,-0.266l-0.212,-0.277l-0.198,-0.287l-0.182,-0.298l-0.167,-0.306l-0.15,-0.316l-0.133,-0.322l-0.117,-0.329l-0.099,-0.335l-0.082,-0.339l-0.063,-0.343l-0.046,-0.346l-0.027,-0.348l-0.009,-0.349l0.009,-0.349l0.027,-0.348l0.046,-0.346l0.063,-0.343l0.082,-0.34l0.099,-0.334l0.117,-0.329l0.133,-0.323l0.15,-0.315l0.167,-0.306l0.182,-0.298l0.198,-0.288l0.212,-0.277l0.227,-0.265l0.24,-0.253l0.254,-0.24l0.265,-0.227l0.277,-0.213l0.288,-0.197l0.297,-0.183l0.307,-0.166l0.315,-0.15l0.322,-0.134l0.329,-0.116l0.335,-0.1l0.339,-0.081l0.344,-0.064l0.346,-0.045l0.348,-0.028l0.348,-0.009l0.349,0.009l0.348,0.028l0.346,0.045l0.344,0.064l0.339,0.081l0.335,0.1l0.329,0.116l0.322,0.134l0.315,0.15l0.307,0.166l0.297,0.183l0.288,0.197l0.277,0.213l0.265,0.227l0.253,0.24l6.894,6.893l30.107,-30.107l0.253,-0.241l0.266,-0.226l0.276,-0.213l0.288,-0.198l0.298,-0.182l0.306,-0.166l0.315,-0.151l0.323,-0.133l0.329,-0.117l0.335,-0.099l0.339,-0.081l0.343,-0.064l0.346,-0.046l0.348,-0.027l0.349,-0.009l0.349,0.009l0.348,0.027l0.346,0.046l0.343,0.064l0.339,0.081l0.335,0.099l0.329,0.117l0.323,0.133l0.315,0.151l0.306,0.166l0.298,0.182l0.288,0.198l0.276,0.213l0.266,0.226l0.253,0.241l0.24,0.253l0.227,0.265l0.212,0.277l0.198,0.288l0.183,0.297l0.166,0.307l0.15,0.315l0.134,0.322l0.116,0.329l0.1,0.335l0.081,0.34l0.064,0.343l0.045,0.346l0.028,0.348l0.009,0.349l-0.009,0.349l-0.028,0.347l-0.045,0.347l-0.064,0.343l-0.081,0.339l-0.1,0.335l-0.116,0.329l-0.134,0.322l-0.15,0.315l-0.166,0.307l-0.183,0.298l-0.198,0.287l-0.212,0.277l-0.227,0.265l-0.24,0.254l-39.535,39.535Z" style="fill:#787878;"/></g></g><g id="person"><g id="Layer1"><g id="chw"><path d="M101.592,84.051c0,-6.741 5.465,-12.206 12.206,-12.206c6.741,0 12.205,5.465 12.205,12.206c0,6.741 -5.464,12.205 -12.205,12.205c-6.741,0 -12.206,-5.464 -12.206,-12.205" style="fill:#787878;"/><path d="M96.361,134.617l-10.462,0l2.831,-17.692c2.097,-9.632 10.42,-17.181 18.424,-17.181l13.289,0c8.003,0 16.324,7.763 18.423,17.397l2.83,17.476l-10.462,0l-3.487,-14.211l0,14.211l-27.899,0l0,-14.211l-3.487,14.211Z" style="fill:#787878;"/></g><g id="Layer2"></g><g id="Layer3"></g></g></g><rect x="159.618" y="110.381" width="207.955" height="21.333" style="fill:#787878;"/><path d="M408.79,75.891c0,-15.773 -12.787,-28.559 -28.56,-28.559l-293.932,0c-15.773,0 -28.559,12.786 -28.559,28.559l0,57.118c0,15.773 12.786,28.559 28.559,28.559l293.932,0c15.773,0 28.56,-12.786 28.56,-28.559l0,-57.118Z" style="fill:none;stroke-width:8px;stroke:#787878;"/></g></svg>