<?xml version="1.0" standalone="no"?><!DOCTYPE svg PUBLIC "-//W3C//DTD SVG 1.1//EN" "http://www.w3.org/Graphics/SVG/1.1/DTD/svg11.dtd"><svg width="100%" height="100%" viewBox="0 0 747 295" version="1.1" xmlns="http://www.w3.org/2000/svg" xmlns:xlink="http://www.w3.org/1999/xlink" xml:space="preserve" style="fill-rule:evenodd;clip-rule:evenodd;stroke-linecap:round;stroke-linejoin:bevel;stroke-miterlimit:1.41421;"><g id="paper-pile"><g id="paper-pile1"><path d="M707.809,205.046c8.026,-1.592 10.561,-6.755 5.661,-11.531l-182.936,-128.164c-4.901,-4.776 -15.38,-7.358 -23.407,-5.767l-409.453,58.778c-8.026,1.592 -10.561,6.754 -5.659,11.53l159.303,155.279c4.9,4.776 15.379,7.358 23.406,5.766l433.085,-85.891Z" style="fill:#fff8e0;"/><path d="M707.809,205.046c8.026,-1.592 10.561,-6.755 5.661,-11.531l-182.936,-128.164c-4.901,-4.776 -15.38,-7.358 -23.407,-5.767l-409.453,58.778c-8.026,1.592 -10.561,6.754 -5.659,11.53l159.303,155.279c4.9,4.776 15.379,7.358 23.406,5.766l433.085,-85.891Z" style="fill:none;stroke-width:2px;stroke:#aba591;"/><path d="M581.624,140.626c2.964,-0.65 0.837,-1.591 0.193,-1.923c3.53,1.149 10.637,1.333 12.765,0.494c1.66,-0.654 0.354,-1.147 -1.939,-1.61c12.566,0.186 14.708,-4.204 14.701,-4.203c0.182,-0.719 -1.259,-0.919 -2.778,-0.606c-12.252,2.567 -23.932,-0.43 -34.808,-4.076c-8.515,-2.674 -17.902,-2.356 -24.129,-1.657c-0.821,0.03 -0.751,-0.298 -0.661,-0.467l3.614,-4.072c0.394,-0.444 0.299,-0.942 -0.169,-1.362c-0.36,-0.325 -0.945,-0.604 -1.7,-0.774l-0.356,-0.081l0.003,-0.003l-0.008,-0.002l0.873,-0.983c0.257,-0.29 0.221,-0.61 -0.045,-0.877c-0.206,-0.205 -0.551,-0.378 -1,-0.479l-1.053,-0.239c-1.036,-0.235 -2.25,-0.007 -2.708,0.51l-0.873,0.983l-12.981,-2.942c-1.733,-0.393 -3.702,-0.072 -4.4,0.715l-20.584,23.195c-0.391,0.441 -0.299,0.938 0.163,1.356c0.361,0.328 0.95,0.608 1.708,0.78l18.149,4.112c1.733,0.393 3.702,0.072 4.4,-0.716l6.965,-7.849c0.008,-0.005 0.016,-0.009 0.021,-0.015c0.442,-0.324 0.89,0.258 0.89,0.258l0.013,-0.001c0.827,0.877 1.901,1.44 3.002,1.774c1.671,0.506 1.566,-0.426 2.138,-0.687c0.042,1.284 3.108,3.215 5.035,3.466c1.506,0.194 1.234,-0.603 0.854,-1.338c3.366,1.381 6.379,2.418 10.975,2.385c2.692,-0.02 1.553,-1.208 -0.559,-2.2c2.938,0.567 6.597,0.997 10.509,0.796c4.43,-0.228 5.656,-1.32 1.478,-2.326c4.204,0.835 9.173,1.35 12.302,0.664M536.041,130.636l-15.678,-3.553c-0.473,-0.107 -0.703,-0.369 -0.51,-0.585l6.588,-7.425c0.19,-0.216 0.732,-0.304 1.206,-0.196l15.677,3.552c0.475,0.108 0.702,0.371 0.513,0.586l-6.589,7.425c-0.193,0.217 -0.733,0.303 -1.207,0.196" style="fill:#58595b;fill-rule:nonzero;"/><path d="M581.624,140.626c2.964,-0.65 0.837,-1.591 0.193,-1.923c3.53,1.149 10.637,1.333 12.765,0.494c1.66,-0.654 0.354,-1.147 -1.939,-1.61c12.566,0.186 14.708,-4.204 14.701,-4.203c0.182,-0.719 -1.259,-0.919 -2.778,-0.606c-12.252,2.567 -23.932,-0.43 -34.808,-4.076c-8.515,-2.674 -17.902,-2.356 -24.129,-1.657c-0.821,0.03 -0.751,-0.298 -0.661,-0.467l3.614,-4.072c0.394,-0.444 0.299,-0.942 -0.169,-1.362c-0.36,-0.325 -0.945,-0.604 -1.7,-0.774l-0.356,-0.081l0.003,-0.003l-0.008,-0.002l0.873,-0.983c0.257,-0.29 0.221,-0.61 -0.045,-0.877c-0.206,-0.205 -0.551,-0.378 -1,-0.479l-1.053,-0.239c-1.036,-0.235 -2.25,-0.007 -2.708,0.51l-0.873,0.983l-12.981,-2.942c-1.733,-0.393 -3.702,-0.072 -4.4,0.715l-20.584,23.195c-0.391,0.441 -0.299,0.938 0.163,1.356c0.361,0.328 0.95,0.608 1.708,0.78l18.149,4.112c1.733,0.393 3.702,0.072 4.4,-0.716l6.965,-7.849c0.008,-0.005 0.016,-0.009 0.021,-0.015c0.442,-0.324 0.89,0.258 0.89,0.258l0.013,-0.001c0.827,0.877 1.901,1.44 3.002,1.774c1.671,0.506 1.566,-0.426 2.138,-0.687c0.042,1.284 3.108,3.215 5.035,3.466c1.506,0.194 1.234,-0.603 0.854,-1.338c3.366,1.381 6.379,2.418 10.975,2.385c2.692,-0.02 1.553,-1.208 -0.559,-2.2c2.938,0.567 6.597,0.997 10.509,0.796c4.43,-0.228 5.656,-1.32 1.478,-2.326c4.204,0.835 9.173,1.35 12.302,0.664M536.041,130.636l-15.678,-3.553c-0.473,-0.107 -0.703,-0.369 -0.51,-0.585l6.588,-7.425c0.19,-0.216 0.732,-0.304 1.206,-0.196l15.677,3.552c0.475,0.108 0.702,0.371 0.513,0.586l-6.589,7.425c-0.193,0.217 -0.733,0.303 -1.207,0.196" style="fill:none;stroke-width:0.75px;stroke-linecap:butt;stroke-linejoin:round;stroke:#aba591;"/><path d="M512.789,192.026l-97.907,-94.725l-15.432,2.55l97.724,95.272l15.615,-3.097Z" style="fill:#787878;"/><path d="M465.08,201.488l-99.109,-95.805l-15.232,2.662l98.727,96.24l15.614,-3.097Z" style="fill:#787878;"/><path d="M417.369,210.95l-99.643,-96.714l-15.599,2.679l99.628,97.132l15.614,-3.097Z" style="fill:#787878;"/><path d="M369.659,220.412l-100.302,-97.485l-16.331,2.404l101.019,98.178l15.614,-3.097Z" style="fill:#787878;"/><path d="M321.949,229.874l-101.827,-98.743l-15.477,2.721l101.69,99.12l15.614,-3.098Z" style="fill:#787878;"/><path d="M522.866,209.65l21.797,4.755c2.003,0.437 3.001,1.53 2.229,2.442c-0.772,0.913 -3.022,1.299 -5.025,0.86l-26.321,-5.741c-2.004,-0.437 -3.002,-1.53 -2.229,-2.442c0.065,-0.075 0.14,-0.148 0.224,-0.217c0.029,-0.036 0.061,-0.073 0.096,-0.108l5.193,-5.333c0.951,-0.979 3.473,-1.345 5.63,-0.816c2.156,0.527 3.134,1.746 2.181,2.726l-3.775,3.874Z" style="fill:#787878;"/><path d="M474.284,219.284l21.796,4.755c2.004,0.437 3,1.53 2.229,2.443c-0.772,0.912 -3.022,1.298 -5.024,0.861l-26.321,-5.742c-2.004,-0.437 -3.002,-1.531 -2.229,-2.443c0.065,-0.075 0.139,-0.147 0.223,-0.216c0.029,-0.037 0.062,-0.072 0.096,-0.109l5.193,-5.333c0.952,-0.979 3.473,-1.344 5.629,-0.816c2.158,0.527 3.134,1.747 2.183,2.726l-3.775,3.874Z" style="fill:#787878;"/><path d="M425.702,228.92l21.796,4.754c2.002,0.437 3,1.531 2.228,2.443c-0.772,0.912 -3.021,1.298 -5.023,0.861l-26.322,-5.742c-2.003,-0.437 -3.001,-1.53 -2.229,-2.443c0.063,-0.075 0.139,-0.147 0.222,-0.216c0.03,-0.036 0.062,-0.072 0.097,-0.108l5.193,-5.333c0.952,-0.979 3.473,-1.344 5.629,-0.817c2.158,0.528 3.134,1.748 2.182,2.726l-3.773,3.875Z" style="fill:#787878;"/><path d="M377.118,238.555l21.798,4.755c2.002,0.438 3,1.53 2.228,2.442c-0.772,0.912 -3.021,1.298 -5.023,0.861l-26.323,-5.742c-2.003,-0.437 -3,-1.53 -2.229,-2.442c0.064,-0.076 0.139,-0.147 0.223,-0.217c0.029,-0.036 0.062,-0.071 0.097,-0.107l5.192,-5.334c0.952,-0.979 3.472,-1.344 5.63,-0.816c2.157,0.527 3.134,1.748 2.182,2.726l-3.775,3.874Z" style="fill:#787878;"/><path d="M633.829,133.976c6.991,-2.456 8.173,-7.636 2.64,-11.566l-195.564,-99.365c-5.533,-3.931 -15.689,-5.126 -22.681,-2.67l-361.623,104.138c-6.992,2.456 -8.173,7.635 -2.639,11.565l179.914,127.787c5.534,3.931 15.688,5.127 22.681,2.669l377.272,-132.558Z" style="fill:#fff8e0;"/><path d="M633.829,133.976c6.991,-2.456 8.173,-7.636 2.64,-11.566l-195.564,-99.365c-5.533,-3.931 -15.689,-5.126 -22.681,-2.67l-361.623,104.138c-6.992,2.456 -8.173,7.635 -2.639,11.565l179.914,127.787c5.534,3.931 15.688,5.127 22.681,2.669l377.272,-132.558Z" style="fill:none;stroke-width:2px;stroke:#aba591;"/><path d="M504.213,88.0949c2.569,-0.967 0.416,-1.603 -0.246,-1.839c3.482,0.666 10.024,-0.003 11.786,-1.049c1.375,-0.815 0.071,-1.127 -2.13,-1.291c11.538,-1.317 12.53,-5.718 12.523,-5.717c0.009,-0.699 -1.354,-0.719 -2.675,-0.243c-10.643,3.88 -21.987,2.435 -32.738,0.282c-8.379,-1.516 -16.896,-0.103 -22.438,1.299c-0.745,0.125 -0.752,-0.192 -0.708,-0.362l2.41,-4.277c0.263,-0.466 0.066,-0.925 -0.454,-1.267c-0.402,-0.265 -0.999,-0.459 -1.727,-0.53l-0.344,-0.033l0.001,-0.004l-0.006,-0.001l0.581,-1.032c0.172,-0.306 0.067,-0.604 -0.233,-0.823c-0.234,-0.169 -0.586,-0.292 -1.021,-0.334l-1.017,-0.101c-0.999,-0.1 -2.059,0.261 -2.365,0.803l-0.581,1.033l-12.523,-1.238c-1.672,-0.165 -3.402,0.371 -3.868,1.198l-13.722,24.355c-0.261,0.465 -0.068,0.921 0.447,1.263c0.401,0.267 1.002,0.461 1.733,0.534l17.508,1.73c1.672,0.165 3.403,-0.371 3.868,-1.198l4.644,-8.241c0.006,-0.006 0.012,-0.011 0.016,-0.017c0.333,-0.359 0.87,0.137 0.87,0.137l0.011,-0.002c0.95,0.73 2.057,1.137 3.138,1.32c1.64,0.279 1.339,-0.588 1.805,-0.901c0.321,1.206 3.55,2.667 5.369,2.675c1.421,0.006 0.998,-0.715 0.486,-1.365c3.383,0.905 6.367,1.528 10.563,0.951c2.46,-0.339 1.155,-1.326 -0.995,-2.013c2.814,0.188 6.254,0.159 9.789,-0.495c4.002,-0.741 4.884,-1.919 0.84,-2.373c4.032,0.289 8.692,0.184 11.403,-0.834M460.316,84.0679l-15.124,-1.495c-0.456,-0.045 -0.725,-0.266 -0.596,-0.493l4.392,-7.796c0.127,-0.227 0.603,-0.375 1.06,-0.329l15.123,1.495c0.458,0.046 0.725,0.266 0.599,0.493l-4.393,7.796c-0.129,0.228 -0.605,0.374 -1.061,0.329" style="fill:#58595b;fill-rule:nonzero;"/><path d="M504.213,88.0949c2.569,-0.967 0.416,-1.603 -0.246,-1.839c3.482,0.666 10.024,-0.003 11.786,-1.049c1.375,-0.815 0.071,-1.127 -2.13,-1.291c11.538,-1.317 12.53,-5.718 12.523,-5.717c0.009,-0.699 -1.354,-0.719 -2.675,-0.243c-10.643,3.88 -21.987,2.435 -32.738,0.282c-8.379,-1.516 -16.896,-0.103 -22.438,1.299c-0.745,0.125 -0.752,-0.192 -0.708,-0.362l2.41,-4.277c0.263,-0.466 0.066,-0.925 -0.454,-1.267c-0.402,-0.265 -0.999,-0.459 -1.727,-0.53l-0.344,-0.033l0.001,-0.004l-0.006,-0.001l0.581,-1.032c0.172,-0.306 0.067,-0.604 -0.233,-0.823c-0.234,-0.169 -0.586,-0.292 -1.021,-0.334l-1.017,-0.101c-0.999,-0.1 -2.059,0.261 -2.365,0.803l-0.581,1.033l-12.523,-1.238c-1.672,-0.165 -3.402,0.371 -3.868,1.198l-13.722,24.355c-0.261,0.465 -0.068,0.921 0.447,1.263c0.401,0.267 1.002,0.461 1.733,0.534l17.508,1.73c1.672,0.165 3.403,-0.371 3.868,-1.198l4.644,-8.241c0.006,-0.006 0.012,-0.011 0.016,-0.017c0.333,-0.359 0.87,0.137 0.87,0.137l0.011,-0.002c0.95,0.73 2.057,1.137 3.138,1.32c1.64,0.279 1.339,-0.588 1.805,-0.901c0.321,1.206 3.55,2.667 5.369,2.675c1.421,0.006 0.998,-0.715 0.486,-1.365c3.383,0.905 6.367,1.528 10.563,0.951c2.46,-0.339 1.155,-1.326 -0.995,-2.013c2.814,0.188 6.254,0.159 9.789,-0.495c4.002,-0.741 4.884,-1.919 0.84,-2.373c4.032,0.289 8.692,0.184 11.403,-0.834M460.316,84.0679l-15.124,-1.495c-0.456,-0.045 -0.725,-0.266 -0.596,-0.493l4.392,-7.796c0.127,-0.227 0.603,-0.375 1.06,-0.329l15.123,1.495c0.458,0.046 0.725,0.266 0.599,0.493l-4.393,7.796c-0.129,0.228 -0.605,0.374 -1.061,0.329" style="fill:none;stroke-width:0.75px;stroke-linecap:butt;stroke-linejoin:round;stroke:#aba591;"/><path d="M452.561,144.827l-110.418,-77.87l-13.556,4.242l110.373,78.407l13.601,-4.779Z" style="fill:#787878;"/><path d="M411,159.43l-111.756,-78.746l-13.348,4.323l111.502,79.202l13.602,-4.779Z" style="fill:#787878;"/><path d="M369.439,174.032l-112.446,-79.541l-13.68,4.383l112.524,79.939l13.602,-4.781Z" style="fill:#787878;"/><path d="M327.878,188.636l-113.218,-80.193l-14.409,4.211l114.024,80.762l13.603,-4.78Z" style="fill:#787878;"/><path d="M286.316,203.239l-114.89,-81.2l-13.558,4.407l114.846,81.572l13.602,-4.779Z" style="fill:#787878;"/><path d="M465.658,160.28l20.986,1.904c1.929,0.175 3.083,1.09 2.577,2.043c-0.506,0.953 -2.479,1.585 -4.407,1.41l-25.343,-2.3c-1.929,-0.176 -3.082,-1.09 -2.577,-2.043c0.042,-0.08 0.095,-0.156 0.156,-0.23c0.019,-0.038 0.04,-0.077 0.064,-0.114l3.576,-5.656c0.656,-1.036 2.881,-1.682 4.97,-1.439c2.089,0.243 3.251,1.279 2.596,2.316l-2.598,4.109Z" style="fill:#787878;"/><path d="M423.338,175.15l20.985,1.904c1.929,0.176 3.082,1.091 2.577,2.045c-0.506,0.953 -2.479,1.584 -4.407,1.409l-25.343,-2.3c-1.929,-0.175 -3.082,-1.09 -2.577,-2.044c0.042,-0.079 0.095,-0.155 0.155,-0.23c0.02,-0.038 0.041,-0.075 0.065,-0.113l3.576,-5.655c0.655,-1.038 2.881,-1.682 4.97,-1.44c2.089,0.242 3.251,1.279 2.597,2.315l-2.598,4.109Z" style="fill:#787878;"/><path d="M381.016,190.021l20.986,1.904c1.928,0.175 3.081,1.09 2.576,2.044c-0.506,0.953 -2.479,1.584 -4.408,1.409l-25.342,-2.3c-1.929,-0.175 -3.082,-1.09 -2.577,-2.044c0.042,-0.078 0.095,-0.156 0.156,-0.23c0.019,-0.037 0.04,-0.075 0.064,-0.113l3.576,-5.655c0.655,-1.037 2.882,-1.682 4.971,-1.439c2.088,0.241 3.251,1.279 2.596,2.315l-2.598,4.109Z" style="fill:#787878;"/><path d="M338.695,204.891l20.986,1.904c1.928,0.176 3.081,1.09 2.576,2.043c-0.506,0.953 -2.479,1.585 -4.407,1.41l-25.343,-2.3c-1.929,-0.176 -3.082,-1.09 -2.576,-2.043c0.042,-0.08 0.094,-0.156 0.155,-0.23c0.019,-0.038 0.041,-0.077 0.064,-0.114l3.576,-5.656c0.655,-1.036 2.881,-1.682 4.97,-1.438c2.09,0.242 3.252,1.278 2.596,2.315l-2.597,4.109Z" style="fill:#787878;"/><path d="M725.007,184.118c7.627,-0.899 10.448,-5.533 6.302,-10.349l-159.257,-132.951c-4.147,-4.815 -13.691,-7.989 -21.318,-7.089l-387.102,24.993c-7.627,0.9 -10.448,5.534 -6.301,10.35l134.809,156.534c4.146,4.814 13.691,7.988 21.318,7.088l411.549,-48.576Z" style="fill:#fff8e0;"/><path d="M725.007,184.118c7.627,-0.899 10.448,-5.533 6.302,-10.349l-159.257,-132.951c-4.147,-4.815 -13.691,-7.989 -21.318,-7.089l-387.102,24.993c-7.627,0.9 -10.448,5.534 -6.301,10.35l134.809,156.534c4.146,4.814 13.691,7.988 21.318,7.088l411.549,-48.576Z" style="fill:none;stroke-width:2px;stroke:#aba591;"/><path d="M613.028,114.794c2.822,-0.39 0.922,-1.423 0.35,-1.779c3.191,1.33 9.804,2.021 11.863,1.393c1.606,-0.49 0.433,-1.046 -1.667,-1.645c11.705,1.089 14.091,-2.852 14.085,-2.851c0.232,-0.657 -1.094,-0.948 -2.538,-0.77c-11.654,1.504 -22.283,-2.146 -32.104,-6.341c-7.704,-3.117 -16.487,-3.506 -22.356,-3.307c-0.769,-0.032 -0.674,-0.333 -0.576,-0.483l3.733,-3.538c0.406,-0.386 0.361,-0.857 -0.037,-1.283c-0.308,-0.33 -0.828,-0.633 -1.517,-0.848l-0.326,-0.102l0.003,-0.002l-0.007,-0.002l0.901,-0.854c0.266,-0.252 0.26,-0.554 0.036,-0.821c-0.174,-0.207 -0.48,-0.393 -0.891,-0.521l-0.961,-0.299c-0.945,-0.296 -2.098,-0.171 -2.57,0.277l-0.901,0.854l-11.847,-3.692c-1.581,-0.493 -3.447,-0.337 -4.169,0.347l-21.253,20.145c-0.404,0.385 -0.362,0.854 0.031,1.278c0.308,0.332 0.831,0.636 1.523,0.854l16.563,5.161c1.58,0.492 3.446,0.337 4.167,-0.347l7.192,-6.817c0.007,-0.005 0.015,-0.008 0.02,-0.013c0.441,-0.271 0.808,0.306 0.808,0.306l0.011,0c0.695,0.879 1.646,1.483 2.644,1.875c1.514,0.593 1.499,-0.282 2.055,-0.484c-0.074,1.2 2.613,3.226 4.39,3.601c1.387,0.291 1.205,-0.472 0.914,-1.187c3.017,1.534 5.735,2.724 10.023,3.026c2.513,0.179 1.556,-1.014 -0.325,-2.094c2.691,0.744 6.063,1.412 9.731,1.51c4.151,0.11 5.393,-0.82 1.583,-2.064c3.851,1.087 8.44,1.929 11.419,1.517M571.4,102.149l-14.307,-4.46c-0.433,-0.135 -0.623,-0.396 -0.425,-0.584l6.802,-6.448c0.199,-0.187 0.711,-0.23 1.144,-0.096l14.307,4.459c0.433,0.136 0.623,0.396 0.427,0.584l-6.805,6.449c-0.199,0.187 -0.71,0.229 -1.143,0.096" style="fill:#58595b;fill-rule:nonzero;"/><path d="M613.028,114.794c2.822,-0.39 0.922,-1.423 0.35,-1.779c3.191,1.33 9.804,2.021 11.863,1.393c1.606,-0.49 0.433,-1.046 -1.667,-1.645c11.705,1.089 14.091,-2.852 14.085,-2.851c0.232,-0.657 -1.094,-0.948 -2.538,-0.77c-11.654,1.504 -22.283,-2.146 -32.104,-6.341c-7.704,-3.117 -16.487,-3.506 -22.356,-3.307c-0.769,-0.032 -0.674,-0.333 -0.576,-0.483l3.733,-3.538c0.406,-0.386 0.361,-0.857 -0.037,-1.283c-0.308,-0.33 -0.828,-0.633 -1.517,-0.848l-0.326,-0.102l0.003,-0.002l-0.007,-0.002l0.901,-0.854c0.266,-0.252 0.26,-0.554 0.036,-0.821c-0.174,-0.207 -0.48,-0.393 -0.891,-0.521l-0.961,-0.299c-0.945,-0.296 -2.098,-0.171 -2.57,0.277l-0.901,0.854l-11.847,-3.692c-1.581,-0.493 -3.447,-0.337 -4.169,0.347l-21.253,20.145c-0.404,0.385 -0.362,0.854 0.031,1.278c0.308,0.332 0.831,0.636 1.523,0.854l16.563,5.161c1.58,0.492 3.446,0.337 4.167,-0.347l7.192,-6.817c0.007,-0.005 0.015,-0.008 0.02,-0.013c0.441,-0.271 0.808,0.306 0.808,0.306l0.011,0c0.695,0.879 1.646,1.483 2.644,1.875c1.514,0.593 1.499,-0.282 2.055,-0.484c-0.074,1.2 2.613,3.226 4.39,3.601c1.387,0.291 1.205,-0.472 0.914,-1.187c3.017,1.534 5.735,2.724 10.023,3.026c2.513,0.179 1.556,-1.014 -0.325,-2.094c2.691,0.744 6.063,1.412 9.731,1.51c4.151,0.11 5.393,-0.82 1.583,-2.064c3.851,1.087 8.44,1.929 11.419,1.517M571.4,102.149l-14.307,-4.46c-0.433,-0.135 -0.623,-0.396 -0.425,-0.584l6.802,-6.448c0.199,-0.187 0.711,-0.23 1.144,-0.096l14.307,4.459c0.433,0.136 0.623,0.396 0.427,0.584l-6.805,6.449c-0.199,0.187 -0.71,0.229 -1.143,0.096" style="fill:none;stroke-width:0.75px;stroke-linecap:butt;stroke-linejoin:round;stroke:#aba591;"/><path d="M558.157,154.945l-87.852,-92.081l-14.523,1.863l87.662,92.586l14.713,-2.368Z" style="fill:#787878;"/><path d="M513.198,162.179l-88.935,-93.133l-14.339,1.975l88.561,93.526l14.713,-2.368Z" style="fill:#787878;"/><path d="M468.239,169.413l-89.398,-94.002l-14.685,1.977l89.37,94.393l14.713,-2.368Z" style="fill:#787878;"/><path d="M423.281,176.649l-89.985,-94.748l-15.358,1.695l90.629,95.421l14.714,-2.368Z" style="fill:#787878;"/><path d="M378.322,183.883l-91.362,-95.978l-14.572,2.02l91.22,96.325l14.714,-2.367Z" style="fill:#787878;"/><path d="M566.895,171.798l20.189,5.198c1.855,0.479 2.745,1.537 1.987,2.365c-0.757,0.827 -2.873,1.111 -4.729,0.635l-24.381,-6.278c-1.854,-0.478 -2.745,-1.537 -1.988,-2.364c0.064,-0.069 0.136,-0.134 0.217,-0.195c0.028,-0.032 0.061,-0.065 0.095,-0.098l5.06,-4.82c0.928,-0.883 3.297,-1.139 5.293,-0.571c1.996,0.568 2.862,1.743 1.935,2.627l-3.678,3.501Z" style="fill:#787878;"/><path d="M521.114,179.165l20.189,5.198c1.855,0.479 2.745,1.537 1.989,2.364c-0.757,0.828 -2.875,1.112 -4.73,0.635l-24.382,-6.277c-1.854,-0.479 -2.745,-1.537 -1.987,-2.365c0.062,-0.068 0.135,-0.134 0.216,-0.194c0.028,-0.033 0.061,-0.065 0.095,-0.098l5.06,-4.82c0.928,-0.883 3.297,-1.14 5.293,-0.571c1.997,0.567 2.862,1.743 1.935,2.627l-3.678,3.501Z" style="fill:#787878;"/><path d="M475.333,186.532l20.189,5.197c1.855,0.478 2.746,1.536 1.988,2.364c-0.756,0.829 -2.874,1.113 -4.729,0.636l-24.381,-6.277c-1.854,-0.479 -2.745,-1.537 -1.988,-2.365c0.063,-0.068 0.135,-0.134 0.217,-0.194c0.027,-0.033 0.06,-0.065 0.094,-0.098l5.06,-4.82c0.928,-0.883 3.298,-1.141 5.294,-0.573c1.996,0.568 2.861,1.745 1.934,2.629l-3.678,3.501Z" style="fill:#787878;"/><path d="M429.551,193.899l20.189,5.198c1.855,0.478 2.746,1.536 1.989,2.364c-0.757,0.828 -2.875,1.113 -4.73,0.636l-24.38,-6.278c-1.855,-0.478 -2.746,-1.536 -1.989,-2.364c0.063,-0.068 0.135,-0.134 0.217,-0.195c0.029,-0.033 0.06,-0.066 0.094,-0.099l5.06,-4.818c0.928,-0.884 3.297,-1.141 5.294,-0.573c1.996,0.567 2.861,1.745 1.934,2.629l-3.678,3.5Z" style="fill:#787878;"/><path d="M736.928,131.295c7.794,-2.285 9.734,-7.652 4.333,-11.989l-196.017,-111.884c-5.401,-4.338 -16.098,-6.001 -23.892,-3.716l-400.099,94.2c-7.794,2.284 -9.734,7.652 -4.332,11.988l175.576,140.975c5.4,4.336 16.098,5.999 23.892,3.715l420.539,-123.289Z" style="fill:#fff8e0;"/><path d="M736.928,131.295c7.794,-2.285 9.734,-7.652 4.333,-11.989l-196.017,-111.884c-5.401,-4.338 -16.098,-6.001 -23.892,-3.716l-400.099,94.2c-7.794,2.284 -9.734,7.652 -4.332,11.988l175.576,140.975c5.4,4.336 16.098,5.999 23.892,3.715l420.539,-123.289Z" style="fill:none;stroke-width:2px;stroke:#aba591;"/><path d="M604.4,78.0329c2.871,-0.906 0.653,-1.658 -0.023,-1.934c3.636,0.839 10.714,0.404 12.734,-0.616c1.575,-0.797 0.223,-1.176 -2.106,-1.438c12.502,-0.908 14.138,-5.471 14.131,-5.47c0.101,-0.731 -1.354,-0.806 -2.827,-0.362c-11.883,3.625 -23.817,1.651 -35.027,-1.037c-8.755,-1.927 -18.043,-0.794 -24.149,0.444c-0.812,0.101 -0.779,-0.231 -0.708,-0.408l3.135,-4.374c0.34,-0.478 0.191,-0.966 -0.32,-1.344c-0.395,-0.294 -1.006,-0.521 -1.776,-0.625l-0.363,-0.05l0.003,-0.004l-0.008,-0.001l0.757,-1.056c0.224,-0.312 0.152,-0.628 -0.142,-0.87c-0.229,-0.187 -0.59,-0.328 -1.047,-0.391l-1.072,-0.147c-1.057,-0.145 -2.236,0.189 -2.633,0.744l-0.757,1.056l-13.223,-1.805c-1.765,-0.24 -3.686,0.25 -4.291,1.097l-17.85,24.915c-0.34,0.476 -0.193,0.961 0.312,1.339c0.396,0.295 1.011,0.523 1.784,0.63l18.485,2.521c1.765,0.241 3.685,-0.251 4.29,-1.097l6.041,-8.431c0.006,-0.006 0.014,-0.01 0.018,-0.016c0.402,-0.362 0.912,0.18 0.912,0.18l0.014,-0.003c0.92,0.803 2.049,1.271 3.18,1.508c1.716,0.359 1.509,-0.56 2.046,-0.869c0.186,1.276 3.446,2.935 5.389,3.017c1.518,0.064 1.16,-0.707 0.698,-1.408c3.497,1.086 6.606,1.858 11.167,1.425c2.672,-0.253 1.406,-1.34 -0.801,-2.145c2.982,0.31 6.663,0.42 10.526,-0.12c4.374,-0.612 5.471,-1.808 1.207,-2.447c4.27,0.468 9.263,0.547 12.294,-0.408M558.012,72.0359l-15.969,-2.18c-0.481,-0.066 -0.74,-0.307 -0.572,-0.54l5.712,-7.976c0.166,-0.231 0.694,-0.366 1.176,-0.301l15.968,2.179c0.483,0.066 0.74,0.31 0.575,0.541l-5.715,7.976c-0.167,0.234 -0.693,0.367 -1.175,0.301" style="fill:#58595b;fill-rule:nonzero;"/><path d="M604.4,78.0329c2.871,-0.906 0.653,-1.658 -0.023,-1.934c3.636,0.839 10.714,0.404 12.734,-0.616c1.575,-0.797 0.223,-1.176 -2.106,-1.438c12.502,-0.908 14.138,-5.471 14.131,-5.47c0.101,-0.731 -1.354,-0.806 -2.827,-0.362c-11.883,3.625 -23.817,1.651 -35.027,-1.037c-8.755,-1.927 -18.043,-0.794 -24.149,0.444c-0.812,0.101 -0.779,-0.231 -0.708,-0.408l3.135,-4.374c0.34,-0.478 0.191,-0.966 -0.32,-1.344c-0.395,-0.294 -1.006,-0.521 -1.776,-0.625l-0.363,-0.05l0.003,-0.004l-0.008,-0.001l0.757,-1.056c0.224,-0.312 0.152,-0.628 -0.142,-0.87c-0.229,-0.187 -0.59,-0.328 -1.047,-0.391l-1.072,-0.147c-1.057,-0.145 -2.236,0.189 -2.633,0.744l-0.757,1.056l-13.223,-1.805c-1.765,-0.24 -3.686,0.25 -4.291,1.097l-17.85,24.915c-0.34,0.476 -0.193,0.961 0.312,1.339c0.396,0.295 1.011,0.523 1.784,0.63l18.485,2.521c1.765,0.241 3.685,-0.251 4.29,-1.097l6.041,-8.431c0.006,-0.006 0.014,-0.01 0.018,-0.016c0.402,-0.362 0.912,0.18 0.912,0.18l0.014,-0.003c0.92,0.803 2.049,1.271 3.18,1.508c1.716,0.359 1.509,-0.56 2.046,-0.869c0.186,1.276 3.446,2.935 5.389,3.017c1.518,0.064 1.16,-0.707 0.698,-1.408c3.497,1.086 6.606,1.858 11.167,1.425c2.672,-0.253 1.406,-1.34 -0.801,-2.145c2.982,0.31 6.663,0.42 10.526,-0.12c4.374,-0.612 5.471,-1.808 1.207,-2.447c4.27,0.468 9.263,0.547 12.294,-0.408M558.012,72.0359l-15.969,-2.18c-0.481,-0.066 -0.74,-0.307 -0.572,-0.54l5.712,-7.976c0.166,-0.231 0.694,-0.366 1.176,-0.301l15.968,2.179c0.483,0.066 0.74,0.31 0.575,0.541l-5.715,7.976c-0.167,0.234 -0.693,0.367 -1.175,0.301" style="fill:none;stroke-width:0.75px;stroke-linecap:butt;stroke-linejoin:round;stroke:#aba591;"/><path d="M541.78,135.267l-107.829,-85.936l-15.043,3.884l107.71,86.497l15.162,-4.445Z" style="fill:#787878;"/><path d="M495.452,148.849l-109.143,-86.909l-14.832,3.979l108.813,87.374l15.162,-4.444Z" style="fill:#787878;"/><path d="M449.124,162.431l-109.777,-87.769l-15.194,4.028l109.81,88.186l15.161,-4.445Z" style="fill:#787878;"/><path d="M402.797,176.012l-110.517,-88.479l-15.951,3.817l111.305,89.107l15.163,-4.445Z" style="fill:#787878;"/><path d="M356.468,189.595l-112.172,-89.603l-15.067,4.058l112.077,89.99l15.162,-4.445Z" style="fill:#787878;"/><path d="M553.758,151.962l22.18,2.847c2.038,0.262 3.15,1.265 2.486,2.241c-0.665,0.977 -2.857,1.557 -4.896,1.296l-26.784,-3.438c-2.038,-0.262 -3.151,-1.265 -2.486,-2.241c0.056,-0.082 0.121,-0.159 0.196,-0.235c0.025,-0.038 0.054,-0.077 0.084,-0.116l4.562,-5.77c0.836,-1.058 3.299,-1.642 5.5,-1.304c2.201,0.338 3.308,1.47 2.472,2.528l-3.314,4.192Z" style="fill:#787878;"/><path d="M506.583,165.793l22.18,2.846c2.038,0.262 3.152,1.266 2.486,2.242c-0.665,0.977 -2.855,1.557 -4.895,1.295l-26.785,-3.437c-2.037,-0.262 -3.149,-1.266 -2.486,-2.242c0.057,-0.081 0.121,-0.16 0.198,-0.235c0.023,-0.039 0.052,-0.077 0.083,-0.116l4.561,-5.769c0.838,-1.059 3.3,-1.642 5.501,-1.304c2.202,0.338 3.308,1.47 2.472,2.527l-3.315,4.193Z" style="fill:#787878;"/><path d="M459.407,179.622l22.181,2.847c2.038,0.262 3.151,1.266 2.486,2.242c-0.665,0.976 -2.856,1.557 -4.894,1.295l-26.785,-3.437c-2.039,-0.262 -3.151,-1.266 -2.486,-2.242c0.055,-0.082 0.121,-0.159 0.196,-0.234c0.025,-0.039 0.054,-0.078 0.084,-0.116l4.562,-5.771c0.836,-1.058 3.298,-1.642 5.499,-1.304c2.202,0.339 3.309,1.471 2.473,2.529l-3.316,4.191Z" style="fill:#787878;"/><path d="M412.233,193.453l22.181,2.846c2.037,0.262 3.15,1.266 2.484,2.242c-0.665,0.977 -2.855,1.557 -4.894,1.295l-26.784,-3.437c-2.038,-0.262 -3.152,-1.266 -2.486,-2.242c0.055,-0.081 0.121,-0.16 0.196,-0.235c0.025,-0.038 0.053,-0.077 0.084,-0.116l4.561,-5.769c0.836,-1.059 3.299,-1.642 5.501,-1.304c2.201,0.338 3.307,1.47 2.471,2.527l-3.314,4.193Z" style="fill:#787878;"/><path d="M627.596,113.777c7.452,-3.279 8.636,-8.828 2.644,-12.392l-211.11,-84.49c-5.993,-3.563 -16.892,-3.794 -24.343,-0.515l-385.799,145.581c-7.452,3.28 -8.636,8.827 -2.644,12.392l194.796,115.862c5.991,3.564 16.892,3.795 24.344,0.516l402.112,-176.954Z" style="fill:#fff8e0;"/><path d="M627.596,113.777c7.452,-3.279 8.636,-8.828 2.644,-12.392l-211.11,-84.49c-5.993,-3.563 -16.892,-3.794 -24.343,-0.515l-385.799,145.581c-7.452,3.28 -8.636,8.827 -2.644,12.392l194.796,115.862c5.991,3.564 16.892,3.795 24.344,0.516l402.112,-176.954Z" style="fill:none;stroke-width:2px;stroke:#aba591;"/><path d="M487.993,78.7229c2.737,-1.271 0.42,-1.722 -0.292,-1.903c3.741,0.348 10.739,-1.013 12.61,-2.286c1.461,-0.993 0.059,-1.188 -2.302,-1.14c12.342,-2.541 13.334,-7.256 13.327,-7.253c-0.002,-0.734 -1.462,-0.616 -2.869,0.014c-11.343,5.14 -23.52,4.767 -35.073,3.592c-9,-0.745 -18.104,1.594 -24.02,3.62c-0.796,0.206 -0.811,-0.125 -0.765,-0.309l2.515,-4.727c0.274,-0.515 0.057,-0.978 -0.507,-1.282c-0.435,-0.237 -1.076,-0.38 -1.858,-0.383l-0.368,-0.001l0.001,-0.003l-0.008,0l0.607,-1.142c0.18,-0.337 0.062,-0.639 -0.263,-0.84c-0.254,-0.152 -0.634,-0.246 -1.1,-0.247l-1.089,-0.003c-1.074,-0.003 -2.203,0.481 -2.522,1.08l-0.606,1.142l-13.438,-0.038c-1.794,-0.006 -3.641,0.731 -4.125,1.646l-14.315,26.917c-0.273,0.513 -0.059,0.973 0.499,1.278c0.435,0.238 1.081,0.384 1.866,0.386l18.786,0.051c1.793,0.006 3.64,-0.731 4.125,-1.645l4.845,-9.108c0.006,-0.007 0.013,-0.013 0.017,-0.019c0.35,-0.411 0.934,0.056 0.934,0.056l0.012,-0.003c1.031,0.669 2.223,0.984 3.384,1.068c1.761,0.128 1.425,-0.752 1.918,-1.127c0.363,1.233 3.848,2.439 5.796,2.265c1.521,-0.138 1.057,-0.851 0.498,-1.481c3.64,0.61 6.848,0.962 11.335,-0.065c2.629,-0.602 1.216,-1.508 -1.099,-2.01c3.018,-0.087 6.703,-0.463 10.479,-1.505c4.277,-1.18 5.202,-2.503 0.861,-2.573c4.327,-0.102 9.316,-0.681 12.204,-2.022M440.897,78.9209l-16.229,-0.046c-0.489,-0.002 -0.781,-0.206 -0.646,-0.456l4.58,-8.616c0.134,-0.251 0.641,-0.454 1.132,-0.451l16.228,0.044c0.49,0.002 0.779,0.207 0.648,0.458l-4.583,8.615c-0.133,0.252 -0.64,0.453 -1.13,0.452" style="fill:#58595b;fill-rule:nonzero;"/><path d="M487.993,78.7229c2.737,-1.271 0.42,-1.722 -0.292,-1.903c3.741,0.348 10.739,-1.013 12.61,-2.286c1.461,-0.993 0.059,-1.188 -2.302,-1.14c12.342,-2.541 13.334,-7.256 13.327,-7.253c-0.002,-0.734 -1.462,-0.616 -2.869,0.014c-11.343,5.14 -23.52,4.767 -35.073,3.592c-9,-0.745 -18.104,1.594 -24.02,3.62c-0.796,0.206 -0.811,-0.125 -0.765,-0.309l2.515,-4.727c0.274,-0.515 0.057,-0.978 -0.507,-1.282c-0.435,-0.237 -1.076,-0.38 -1.858,-0.383l-0.368,-0.001l0.001,-0.003l-0.008,0l0.607,-1.142c0.18,-0.337 0.062,-0.639 -0.263,-0.84c-0.254,-0.152 -0.634,-0.246 -1.1,-0.247l-1.089,-0.003c-1.074,-0.003 -2.203,0.481 -2.522,1.08l-0.606,1.142l-13.438,-0.038c-1.794,-0.006 -3.641,0.731 -4.125,1.646l-14.315,26.917c-0.273,0.513 -0.059,0.973 0.499,1.278c0.435,0.238 1.081,0.384 1.866,0.386l18.786,0.051c1.793,0.006 3.64,-0.731 4.125,-1.645l4.845,-9.108c0.006,-0.007 0.013,-0.013 0.017,-0.019c0.35,-0.411 0.934,0.056 0.934,0.056l0.012,-0.003c1.031,0.669 2.223,0.984 3.384,1.068c1.761,0.128 1.425,-0.752 1.918,-1.127c0.363,1.233 3.848,2.439 5.796,2.265c1.521,-0.138 1.057,-0.851 0.498,-1.481c3.64,0.61 6.848,0.962 11.335,-0.065c2.629,-0.602 1.216,-1.508 -1.099,-2.01c3.018,-0.087 6.703,-0.463 10.479,-1.505c4.277,-1.18 5.202,-2.503 0.861,-2.573c4.327,-0.102 9.316,-0.681 12.204,-2.022M440.897,78.9209l-16.229,-0.046c-0.489,-0.002 -0.781,-0.206 -0.646,-0.456l4.58,-8.616c0.134,-0.251 0.641,-0.454 1.132,-0.451l16.228,0.044c0.49,0.002 0.779,0.207 0.648,0.458l-4.583,8.615c-0.133,0.252 -0.64,0.453 -1.13,0.452" style="fill:none;stroke-width:0.75px;stroke-linecap:butt;stroke-linejoin:round;stroke:#aba591;"/><path d="M433.553,143.401l-119.542,-70.525l-14.458,5.813l119.503,71.091l14.497,-6.379Z" style="fill:#787878;"/><path d="M389.256,162.895l-120.99,-71.309l-14.233,5.876l120.725,71.812l14.498,-6.379Z" style="fill:#787878;"/><path d="M344.958,182.389l-121.741,-72.074l-14.588,5.971l121.832,72.482l14.497,-6.379Z" style="fill:#787878;"/><path d="M300.66,201.881l-122.578,-72.676l-15.372,5.863l123.452,73.194l14.498,-6.381Z" style="fill:#787878;"/><path d="M256.362,221.375l-124.387,-73.565l-14.457,5.985l124.347,73.96l14.497,-6.38Z" style="fill:#787878;"/><path d="M447.833,158.284l22.516,-0.116c2.068,-0.011 3.318,0.832 2.792,1.883c-0.526,1.051 -2.63,1.911 -4.698,1.921l-27.19,0.141c-2.069,0.011 -3.319,-0.832 -2.793,-1.883c0.043,-0.088 0.098,-0.173 0.163,-0.258c0.021,-0.042 0.042,-0.084 0.067,-0.126l3.741,-6.288c0.686,-1.154 3.061,-2.055 5.302,-2.01c2.243,0.043 3.505,1.013 2.819,2.166l-2.719,4.57Z" style="fill:#787878;"/><path d="M402.724,178.134l22.516,-0.116c2.068,-0.01 3.318,0.832 2.792,1.883c-0.526,1.051 -2.63,1.911 -4.698,1.923l-27.19,0.14c-2.068,0.01 -3.319,-0.833 -2.792,-1.884c0.044,-0.088 0.097,-0.173 0.163,-0.257c0.02,-0.042 0.041,-0.085 0.066,-0.127l3.742,-6.288c0.686,-1.154 3.06,-2.053 5.303,-2.01c2.241,0.043 3.503,1.013 2.817,2.166l-2.719,4.57Z" style="fill:#787878;"/><path d="M357.617,197.984l22.515,-0.115c2.068,-0.011 3.32,0.832 2.793,1.883c-0.525,1.051 -2.631,1.911 -4.699,1.922l-27.189,0.14c-2.069,0.011 -3.319,-0.833 -2.793,-1.884c0.044,-0.086 0.099,-0.173 0.163,-0.257c0.02,-0.042 0.042,-0.083 0.067,-0.125l3.741,-6.29c0.686,-1.152 3.061,-2.053 5.303,-2.01c2.242,0.044 3.504,1.014 2.817,2.167l-2.718,4.569Z" style="fill:#787878;"/><path d="M312.508,217.834l22.516,-0.115c2.068,-0.012 3.319,0.832 2.793,1.882c-0.527,1.051 -2.631,1.911 -4.699,1.922l-27.19,0.14c-2.068,0.012 -3.319,-0.832 -2.793,-1.882c0.044,-0.088 0.099,-0.174 0.164,-0.259c0.02,-0.041 0.042,-0.083 0.066,-0.125l3.742,-6.29c0.686,-1.152 3.06,-2.053 5.302,-2.009c2.242,0.043 3.504,1.014 2.818,2.167l-2.719,4.569Z" style="fill:#787878;"/></g></g></svg>