<?xml version="1.0" standalone="no"?><!DOCTYPE svg PUBLIC "-//W3C//DTD SVG 1.1//EN" "http://www.w3.org/Graphics/SVG/1.1/DTD/svg11.dtd"><svg width="100%" height="100%" viewBox="0 0 1920 1200" version="1.1" xmlns="http://www.w3.org/2000/svg" xmlns:xlink="http://www.w3.org/1999/xlink" xml:space="preserve" style="fill-rule:evenodd;clip-rule:evenodd;stroke-linejoin:round;stroke-miterlimit:1.41421;"><g id="scene-background"><g id="background"><rect id="Land" x="0" y="600" width="1920" height="600" style="fill:#fffae9;"/><rect id="Sky" x="0" y="0" width="1920" height="600" style="fill:#d4e4ee;"/><g id="Mountains"><path d="M0,380l82.212,-46.801l137.916,-37.656c0,0 102.536,55.598 139.579,67.479c27.658,8.871 136.86,8.445 136.86,8.445c0,0 41.288,-19.989 59.577,-35.048c19.038,-15.673 72.708,-59.007 72.708,-59.007l53.991,29.426c0,0 59.225,80.418 59.879,81.964c0.655,1.545 110.532,5.206 109.618,5.59c-0.914,0.383 45.391,-25.435 45.391,-25.435l55.136,-68.028c0,0 53.415,-89.545 47.852,-80.391c-9.766,16.068 26.195,-32.35 46.151,-34.75c29.85,-3.589 40.965,12.82 66.602,10.896c25.637,-1.923 34.133,-14.14 47.054,-16.33c23.076,-3.912 51.42,43.089 51.42,43.089c0,0 32.818,48.402 52.696,63.429c19.879,15.028 42.115,47.49 69.455,56.166c27.341,8.675 115.351,17.492 115.351,17.492c0,0 48.949,34.629 84.001,40.507c35.052,5.877 113.927,22.642 135.903,25.05c21.977,2.409 109.877,3.949 132.508,2.313c22.631,-1.636 118.14,-48.4 118.14,-48.4l0,220l-1920,0l0,-220Z" style="fill:#c3cfc8;"/><path d="M990.13,238.426l14.528,-26.551l38.052,-42.786l31.88,14.057c0,0 20.896,4.625 36.958,2.401c16.063,-2.224 50.485,-19.396 50.485,-19.396c0,0 13.166,2.313 24.64,13.078c11.474,10.766 27.085,36.583 37.35,49.927c10.266,13.344 21.646,38.696 21.646,38.696l-16.121,13.502l-39.255,-31.672l-17.271,45.459l-31.036,-44.568l-20.657,73.833l-21.619,-86.109l-42.875,37.276l-33.094,-39.057l-33.611,1.91Z" style="fill:#edf6ff;"/><path d="M1099.47,238.457l-39.731,99.027l-2.599,-62.519l42.33,-36.508Z" style="fill:#a3b5ac;"/><path d="M1141.91,282.766l14.793,58.641l15.929,-46.89l-30.48,-43.512" style="fill:#a3b5ac;"/><path d="M1190.52,249.944l23.291,58.42l15.948,-27.303c0,0 -39.359,-30.595 -39.239,-31.117Z" style="fill:#a3b5ac;"/><path d="M1008.48,237.399l9.342,53.164l5.757,-54.045l-15.099,0.881Z" style="fill:#a3b5ac;"/><path d="M621.063,314.399l-9.988,23.334l-10.247,-37.552l20.235,14.218Z" style="fill:#a3b5ac;"/><path d="M183.024,312.883l-4.464,16.595l26.094,-10.979l-10.041,-5.952l-11.589,0.336Z" style="fill:#a3b5ac;"/><path d="M640.243,315.378l18.333,27.615l6.679,-30.709l-25.012,3.094Z" style="fill:#a3b5ac;"/><path d="M227.807,313.066l-4.521,3.381l11.423,13.824l13.004,-15.277l-19.906,-1.928Z" style="fill:#a3b5ac;"/><path d="M628.461,277.124l-27.699,23.084l20.301,14.186l32.068,1.579l29.709,-9.135l-54.379,-29.714Z" style="fill:#edf6ff;"/><path d="M220.13,295.54l-67.073,18.316l41.531,-1.249l18.805,11.02l14.378,-10.49l31.119,2.887l-38.76,-20.484Z" style="fill:#edf6ff;"/></g><path id="hills-middle-ground" d="M1920,530c0,0 -82.962,-40.629 -127.511,-51.348c-55.761,-13.417 -139.749,-27.721 -207.061,-29.154c-65.944,-1.404 -131.749,9.774 -196.808,20.553c-65.06,10.779 -133.072,45.715 -193.548,44.122c-59.184,-1.559 -95.143,-33.064 -169.309,-53.681c-74.165,-20.617 -150.707,-28.569 -226.162,-21.971c-75.845,6.632 -175.801,44.517 -228.909,61.761c-53.108,17.244 -101.088,31.13 -152.786,41.911c-53.435,11.144 -111.348,21.965 -167.825,24.949c-58.258,3.079 -140.043,-0.289 -181.724,-6.48c-24.702,-3.668 -68.357,-30.662 -68.357,-30.662l0,70l1920,0l0,-70Z" style="fill:#b5be98;"/><path id="hills-forground" d="M0,530c0,0 68.032,-47.954 107.263,-61.536c43.596,-15.094 101.919,-30.875 154.316,-29.026c62.783,2.216 159.04,30.108 222.379,42.323c52.59,10.141 103.999,31.515 157.654,30.964c60.669,-0.622 132.203,-15.069 206.363,-34.697c74.161,-19.629 178.677,-33.598 252.962,-28.808c67.181,4.332 139.212,41.056 192.75,57.549c43.018,13.252 84.006,33.651 128.48,41.406c57.728,10.067 144.957,18.439 217.887,18.996c73.662,0.562 177.176,-2.375 224.082,-15.622c30.407,-8.588 55.864,-21.549 55.864,-21.549l0,70l-1920,0l0,-70Z" style="fill:#bed17a;"/></g><g id="clouds"><path id="cloud-1" d="M331.135,117.221c13.234,4.368 21.577,10.106 23.723,16.798c3.621,11.295 0.406,25.724 -43.34,27.092c-0.291,0.009 -35.217,1.363 -55.896,1.363c-18.068,0 -49.633,-0.263 -49.699,-0.263c-48.708,0.067 -51.135,-12.773 -51.128,-25.209c0.004,-7.774 9.098,-14.833 25.599,-20.035c-0.095,-0.605 -0.143,-1.216 -0.143,-1.832c0,-13.543 23.162,-24.522 51.734,-24.522l0.229,0c5.57,-8.775 18.812,-14.947 34.262,-14.947c17.69,0 32.487,8.093 36.184,18.919c1.451,-0.245 2.949,-0.373 4.481,-0.373c13.281,0 24.048,9.65 24.048,21.554c0,0.489 -0.018,0.974 -0.054,1.455Z" style="fill:#fff;"/><path id="cloud-2" d="M1261.19,99.138c9.58,3.02 14.861,7.119 14.863,11.633c0.004,7.22 -1.405,14.675 -29.686,14.636c-0.038,0 -18.366,0.153 -28.856,0.153c-12.007,0 -32.285,-0.786 -32.454,-0.792c-25.4,-0.793 -27.267,-9.172 -25.164,-15.73c1.245,-3.885 6.089,-7.217 13.773,-9.753c-0.021,-0.279 -0.031,-0.561 -0.031,-0.845c0,-6.912 6.251,-12.514 13.963,-12.514c0.889,0 1.759,0.074 2.602,0.216c2.146,-6.286 10.737,-10.985 21.009,-10.985c8.97,0 16.659,3.584 19.893,8.679l0.133,0c16.589,0 30.038,6.374 30.038,14.238c0,0.358 -0.028,0.712 -0.083,1.064Z" style="fill:#fff;"/><path id="cloud-3" d="M1638.03,137.395c19.385,4.584 28.597,11.525 28.86,18.853c0.467,13.011 -6.736,17.998 -42.138,18.464c-0.31,0.005 -37.558,1.097 -59.613,1.097c-19.27,0 -52.934,-0.213 -53.005,-0.212c-36.686,0.614 -43.848,-8.478 -44.2,-18.603c-0.195,-5.616 5.607,-13.071 29.439,-18.41c0.168,-12.245 13.863,-26.46 30.563,-26.46c5.944,0 11.521,1.643 16.247,4.311c8.496,-12.205 24.988,-18.382 42.893,-18.382c25.934,0 49.154,15.566 50.939,39.129c0.006,0.071 0.011,0.142 0.015,0.213Z" style="fill:#fff;"/><path id="cloud-4" d="M527.876,171.58c-9.133,2.16 -13.473,5.43 -13.597,8.883c-0.22,6.13 3.174,8.479 19.853,8.699c0.146,0.002 17.695,0.516 28.086,0.516c9.078,0 24.939,-0.1 24.972,-0.099c17.284,0.289 20.658,-3.995 20.824,-8.765c0.092,-2.646 -2.641,-6.158 -13.87,-8.673c-0.078,-5.77 -6.531,-12.467 -14.399,-12.467c-2.8,0 -5.428,0.775 -7.654,2.031c-4.003,-5.75 -11.773,-8.66 -20.209,-8.66c-12.218,0 -23.158,7.333 -23.999,18.435c-0.003,0.034 -0.005,0.067 -0.007,0.1Z" style="fill:#fff;"/></g></g></svg>