<?xml version="1.0" standalone="no"?><!DOCTYPE svg PUBLIC "-//W3C//DTD SVG 1.1//EN" "http://www.w3.org/Graphics/SVG/1.1/DTD/svg11.dtd"><svg width="100%" height="100%" viewBox="0 0 366 700" version="1.1" xmlns="http://www.w3.org/2000/svg" xmlns:xlink="http://www.w3.org/1999/xlink" xml:space="preserve" style="fill-rule:evenodd;clip-rule:evenodd;stroke-linejoin:round;stroke-miterlimit:1.41421;"><g id="smart-phone"><path d="M345.631,62.304l-321.597,0l0,573.56l321.597,0l0,-573.56ZM365.788,660.574c0,21.774 -17.653,39.426 -39.428,39.426l-286.72,0c-21.775,0 -39.428,-17.652 -39.428,-39.426l0,-621.149c0,-21.774 17.653,-39.425 39.428,-39.425l286.72,0c21.775,0 39.428,17.651 39.428,39.425l0,621.149Z" style="fill:#dcddde;fill-rule:nonzero;"/><path d="M221.94,30.374c0,-2.101 -1.703,-3.803 -3.803,-3.803l-67.526,0c-2.1,0 -3.802,1.702 -3.802,3.803l0,0.639c0,2.101 1.702,3.804 3.802,3.804l67.526,0c2.1,0 3.803,-1.703 3.803,-3.804l0,-0.639Z" style="fill:#fff;fill-rule:nonzero;"/><path d="M223.772,668.532c0,7.259 -5.886,13.143 -13.145,13.143l-54.338,0c-7.259,0 -13.145,-5.884 -13.145,-13.143l0,-2.117c0,-7.259 5.886,-13.143 13.145,-13.143l54.338,0c7.259,0 13.145,5.884 13.145,13.143l0,2.117Z" style="fill:#fff;fill-rule:nonzero;"/></g></svg>