<?xml version="1.0" standalone="no"?><!DOCTYPE svg PUBLIC "-//W3C//DTD SVG 1.1//EN" "http://www.w3.org/Graphics/SVG/1.1/DTD/svg11.dtd"><svg width="100%" height="100%" viewBox="0 0 761 564" version="1.1" xmlns="http://www.w3.org/2000/svg" xmlns:xlink="http://www.w3.org/1999/xlink" xml:space="preserve" style="fill-rule:evenodd;clip-rule:evenodd;stroke-linejoin:round;stroke-miterlimit:1.41421;"><g id="village"><path d="M741.048,101.012c0,-4.42278 0,-14.719 -128.464,-80.1938c0,-0.212293 0,-0.415741 0,-0.592652c0,-12.0211 -4.49354,-19.761 -11.4727,-19.761c-6.97914,0 -11.5081,7.73986 -11.5081,19.761c0,0.212293 0,0.415741 0,0.592652c-128.473,65.4748 -128.473,75.771 -128.473,80.1938c0,2.83058 0.0353822,11.1631 26.3686,20.3536c-0.964166,35.966 0.106147,42.0518 0.486506,44.0863l0.583807,3.24632l10.022,5.36041l1.5922,0.619189c13.2949,3.2817 46.678,9.22592 79.61,11.2692l6.59879,0.415741l3.06941,0.0973011c4.11318,0.141529 8.22637,0.274212 12.2334,0.274212c8.26175,0 17.8326,-0.513042 27.8193,-1.34452l0.0619189,0c36.9037,-3.10479 79.3712,-10.7474 83.0332,-14.4094c2.62713,-2.55637 2.86596,-2.97211 2.35292,-49.6501c26.0502,-9.19053 26.0855,-17.4877 26.0855,-20.3182ZM574.23,171.953c-29.2346,-2.24677 -57.6023,-7.29758 -70.0391,-10.2697l-3.1844,-1.6895c-0.309595,-4.42278 -0.548425,-13.9937 -0.0353822,-34.4446c0.451123,0.132683 0.973011,0.23883 1.45067,0.344977c1.14108,0.274212 2.31754,0.548425 3.45861,0.822637c2.52098,0.628035 5.04197,1.21184 7.70448,1.76911c1.31799,0.274212 2.62713,0.548425 3.97166,0.822637c2.66251,0.521888 5.39579,1.04378 8.1556,1.52144c1.31799,0.247676 2.62713,0.451123 4.00704,0.689953c3.21978,0.521888 6.50148,1.00839 9.81857,1.41529c0.928784,0.141529 1.86641,0.283058 2.7952,0.380359c4.31663,0.55727 8.71287,1.04378 13.1622,1.45952c1.04378,0.0973011 2.07871,0.168066 3.11364,0.23883c3.45861,0.309595 6.90838,0.583807 10.4378,0.7961c1.61874,0.0973011 3.2817,0.168066 4.93582,0.274212c2.97211,0.168066 5.9796,0.309595 8.98709,0.415741c1.79565,0.0707645 3.62668,0.132683 5.42233,0.168066c1.14108,0.0353822 2.28215,0.0707645 3.42323,0.106147c-8.42982,5.36041 -14.8959,18.0361 -17.585,35.1788ZM701.349,160.861c-10.7827,2.4856 -41.8837,8.53596 -73.3208,11.0923c-2.69789,-17.1073 -9.15515,-29.8184 -17.6292,-35.1434c1.17646,-0.0353822 2.31754,-0.0707645 3.494,-0.106147c1.76027,-0.0353822 3.55591,-0.0973011 5.32503,-0.168066c3.06941,-0.106147 6.0769,-0.247676 9.11977,-0.415741c1.65412,-0.106147 3.2817,-0.176911 4.93582,-0.274212c3.494,-0.247676 6.97914,-0.521888 10.4024,-0.7961c1.07031,-0.106147 2.14062,-0.176911 3.1844,-0.274212c4.44932,-0.415741 8.81018,-0.902247 13.0914,-1.45952c1.10569,-0.132683 2.17601,-0.309595 3.2817,-0.442278c3.17556,-0.415741 6.28919,-0.866865 9.36745,-1.38875c1.45067,-0.23883 2.86596,-0.47766 4.28125,-0.725336c2.66251,-0.442278 5.25426,-0.928784 7.81063,-1.45067c1.45067,-0.274212 2.86596,-0.583807 4.28125,-0.858019c2.55637,-0.55727 5.01543,-1.10569 7.43027,-1.73373c1.24722,-0.309595 2.4856,-0.583807 3.69744,-0.893401c0.415741,-0.106147 0.866865,-0.212293 1.24722,-0.309595c0.168066,20.8313 0.132683,30.7118 0,35.3468Z" style="fill:#bb8555;fill-rule:nonzero;"/><path d="M425.215,55.8667c0,-2.34246 0,-7.79572 -68.0392,-42.4735c0,-0.112438 0,-0.220192 0,-0.31389c0,-6.36681 -2.37994,-10.4661 -6.07635,-10.4661c-3.69641,0 -6.09509,4.09931 -6.09509,10.4661c0,0.112438 0,0.220192 0,0.31389c-68.0439,34.6778 -68.0439,40.1311 -68.0439,42.4735c0,1.49918 0.0187397,5.91238 13.9658,10.78c-0.510657,19.0489 0.0562191,22.2721 0.257671,23.3497l0.309205,1.71937l5.30802,2.83907l0.843287,0.327945c7.04144,1.73811 24.7224,4.88638 42.1643,5.9686l3.49495,0.220192l1.62567,0.0515342c2.17849,0.0749588 4.35698,0.145233 6.47925,0.145233c4.37572,0 9.44481,-0.271726 14.7341,-0.712109l0.0327945,0c19.5455,-1.64441 42.0378,-5.69218 43.9774,-7.63174c1.39142,-1.35394 1.51792,-1.57414 1.24619,-26.2965c13.7971,-4.86764 13.8158,-9.2621 13.8158,-10.7613ZM336.862,93.4398c-15.4837,-1.18997 -30.5082,-3.86506 -37.0952,-5.4392l-1.68657,-0.894821c-0.163972,-2.34246 -0.290465,-7.41155 -0.0187397,-18.2431c0.238931,0.0702739 0.515342,0.126493 0.768328,0.182712c0.604355,0.145233 1.22745,0.290465 1.83181,0.435698c1.3352,0.33263 2.67041,0.641835 4.08057,0.936985c0.698054,0.145233 1.39142,0.290465 2.10353,0.435698c1.41016,0.276411 2.8578,0.552821 4.3195,0.805807c0.698054,0.131178 1.39142,0.238931 2.12227,0.365424c1.70531,0.276411 3.44342,0.534082 5.20027,0.749588c0.491917,0.0749588 0.988519,0.149918 1.48044,0.201452c2.28624,0.29515 4.61465,0.552821 6.97117,0.773013c0.552821,0.0515342 1.10096,0.0890136 1.64909,0.126493c1.83181,0.163972 3.65893,0.309205 5.52821,0.421643c0.857341,0.0515342 1.73811,0.0890136 2.61419,0.145233c1.57414,0.0890136 3.16701,0.163972 4.75988,0.220192c0.95104,0.0374794 1.92082,0.0702739 2.87186,0.0890136c0.604355,0.0187397 1.20871,0.0374794 1.81307,0.0562191c-4.46473,2.83907 -7.88942,9.55256 -9.31363,18.632ZM404.189,87.5649c-5.71092,1.31646 -22.1831,4.52095 -38.8334,5.8749c-1.4289,-9.06065 -4.8489,-15.7929 -9.33706,-18.6132c0.623095,-0.0187397 1.22745,-0.0374794 1.85055,-0.0562191c0.9323,-0.0187397 1.88334,-0.0515342 2.82033,-0.0890136c1.62567,-0.0562191 3.21854,-0.131178 4.83016,-0.220192c0.876081,-0.0562191 1.73811,-0.0936985 2.61419,-0.145233c1.85055,-0.131178 3.69641,-0.276411 5.50947,-0.421643c0.566876,-0.0562191 1.13375,-0.0936985 1.68657,-0.145233c2.35652,-0.220192 4.66619,-0.477862 6.93369,-0.773013c0.585616,-0.0702739 1.15249,-0.163972 1.73811,-0.234246c1.68189,-0.220192 3.33098,-0.459123 4.96134,-0.735533c0.768328,-0.126493 1.51792,-0.252986 2.2675,-0.384164c1.41016,-0.234246 2.78285,-0.491917 4.13679,-0.768328c0.768328,-0.145233 1.51792,-0.309205 2.2675,-0.454438c1.35394,-0.29515 2.65635,-0.585616 3.93534,-0.918245c0.660575,-0.163972 1.31646,-0.309205 1.9583,-0.473178c0.220192,-0.0562191 0.459123,-0.112438 0.660575,-0.163972c0.0890136,11.033 0.0702739,16.2661 0,18.721Z" style="fill:#cca374;fill-rule:nonzero;"/><path d="M165.091,238.181l11.6341,-0.333325c-3.81711,-0.129029 -7.68798,-0.333325 -11.5481,-0.591383c-0.0430097,0.344077 -0.0860194,0.634393 -0.0860194,0.924708ZM165.091,238.181" style="fill:#231f20;fill-rule:nonzero;"/><path d="M343.644,151.357c0,-5.42619 0,-18.0584 -157.62,-98.3876c0,-0.260457 0,-0.466652 0,-0.727109c0,-14.7484 -5.55642,-24.2442 -14.0755,-24.2442c-8.56253,0 -14.1189,9.53924 -14.1189,24.2442c0,0.260457 0,0.510062 0,0.727109c-157.609,80.3293 -157.609,92.9615 -157.609,98.3876c0,3.48361 0.0434095,13.6957 32.3401,24.9713c-1.51933,56.5517 0.510062,58.2881 4.41692,61.3376c6.35949,5.00295 63.7143,15.0522 108.817,17.8956l8.05246,0.510062l3.82004,0.0759666c5.04636,0.173638 10.0927,0.347276 14.9654,0.347276c10.1253,0 21.8675,-0.64029 34.0765,-1.66041l0.130229,0c45.1893,-3.76577 97.335,-13.1422 101.915,-17.7111c3.13634,-3.13634 3.47276,-3.6464 2.87588,-60.9252c31.9711,-11.2322 32.0145,-21.3575 32.0145,-24.8411ZM139.011,238.35c-40.7398,-3.09293 -78.2999,-10.4291 -89.7817,-13.5221c-0.390686,-4.66652 -0.770519,-16.0724 -0.130229,-43.4095c0.596881,0.162786 1.26973,0.293014 1.86661,0.466652c1.26973,0.336424 2.62628,0.629438 3.93941,0.976714c3.17975,0.803076 6.44631,1.51933 9.83225,2.24644c1.53019,0.293014 3.01696,0.629438 4.53629,0.933304c3.4402,0.672847 6.91296,1.31314 10.4725,1.94258c1.48678,0.260457 2.93014,0.510062 4.40606,0.770519c4.24328,0.672847 8.60593,1.31314 13.0229,1.89917c0.846485,0.130229 1.64956,0.260457 2.49605,0.347276c5.42619,0.672847 10.9392,1.31314 16.5716,1.8232c0.770519,0.0759666 1.57359,0.119376 2.33326,0.206195c4.75334,0.423243 9.53924,0.803076 14.3685,1.10694c1.66041,0.0759666 3.30997,0.162786 5.00295,0.293014c4.06964,0.217048 8.18269,0.423243 12.2957,0.553471c1.86661,0.086819 3.73322,0.130229 5.59983,0.162786c1.56274,0.0434095 3.13634,0.130229 4.69908,0.130229c-10.3423,6.53313 -18.2646,22.0846 -21.5311,43.0731ZM294.971,224.784c-13.2616,3.04952 -51.4186,10.4725 -89.9554,13.5655c-3.30997,-20.9885 -11.2322,-36.54 -21.6179,-43.1165c1.60615,-0.0434095 3.22316,-0.086819 4.82931,-0.162786c1.77979,-0.0434095 3.55958,-0.086819 5.38278,-0.173638c4.24328,-0.130229 8.44315,-0.336424 12.6322,-0.596881c1.617,-0.086819 3.17975,-0.162786 4.79675,-0.249605c5.00295,-0.336424 10.0059,-0.727109 14.8786,-1.15035c0.629438,-0.0434095 1.31314,-0.0759666 1.91002,-0.162786c5.67579,-0.553471 11.2322,-1.15035 16.7018,-1.86661c0.846485,-0.130229 1.64956,-0.260457 2.49605,-0.336424c4.44947,-0.596881 8.77957,-1.23717 13.0554,-1.91002c1.48678,-0.260457 2.93014,-0.510062 4.41692,-0.759666c3.55958,-0.64029 7.07575,-1.28058 10.5051,-1.95343c1.53019,-0.303867 3.06037,-0.596881 4.53629,-0.933304c3.4402,-0.716257 6.73933,-1.53019 9.96248,-2.33326c1.23717,-0.293014 2.55031,-0.596881 3.73322,-0.933304c0.596881,-0.162786 1.18291,-0.293014 1.73638,-0.423243c0.260457,25.8178 0.130229,37.8531 0,43.4963Z" style="fill:#ad7739;fill-rule:nonzero;"/><path d="M760.407,361.909c0,-13.0921 0,-27.929 -207.557,-138.984c-1.15183,-0.627233 -2.44051,-1.11762 -3.74059,-1.42553c-0.490382,-0.136851 -0.935148,-0.228085 -1.3343,-0.364936c-1.19745,-1.24306 -2.57736,-2.31506 -4.13974,-3.15898c-37.6454,-20.0487 -70.1247,-36.8357 -85.5318,-44.7274c0,-0.490382 0,-0.935148 0,-1.42553c0,-28.2369 -10.6059,-46.5065 -26.9938,-46.5065c-16.4449,0 -27.0509,18.2696 -27.0509,46.5065c0,0.490382 0,0.935148 0,1.42553c-22.7629,11.6779 -82.8974,42.7659 -142.462,75.5075c-159.785,87.8127 -159.785,100.677 -159.785,113.107c0,6.68289 0.0798297,26.2412 62.0049,47.8978c-2.94229,108.739 0.935148,111.807 8.41633,117.646c12.2139,9.57956 122.196,28.9554 208.709,34.3496l15.5098,0.980765l6.54604,0.125447c9.9331,0.364936 19.775,0.581616 29.4458,0.581616c19.3302,0 41.6939,-1.15183 64.9928,-3.11336l0.627233,0l0,-0.045617c86.6836,-7.2645 186.562,-25.2148 195.389,-33.9504c6.01004,-5.96442 6.67148,-6.68289 5.51965,-116.802c61.3434,-21.5198 61.4347,-40.9868 61.4347,-47.6241ZM367.975,528.787c-78.0392,-5.96442 -150.125,-20.0487 -172.079,-26.0131c-0.718467,-8.95233 -1.51676,-30.8257 -0.228085,-83.2624c0.627233,0.182468 1.3343,0.307915 2.00715,0.490382c6.36357,1.65362 12.8754,3.29583 19.6495,4.81259c1.15183,0.262298 2.36068,0.535999 3.55812,0.75268c6.54604,1.47115 13.2745,2.85106 20.1399,4.15114c0.75268,0.125447 1.50536,0.307915 2.31506,0.444765c7.38995,1.37991 14.9624,2.66859 22.6716,3.86604c1.42553,0.228085 2.85106,0.45617 4.27659,0.67285c7.8005,1.20885 15.7265,2.31506 23.7893,3.29583c0.798297,0.0912339 1.64221,0.182468 2.45191,0.307915c8.10842,0.980765 16.3423,1.91591 24.7244,2.72561c0.581616,0.045617 1.10621,0.125447 1.68783,0.171064c8.64442,0.855318 17.4257,1.56238 26.2868,2.18961c1.11762,0.0912339 2.17821,0.171064 3.29583,0.216681c9.04356,0.627233 18.1327,1.16323 27.3132,1.56238c0.0798297,0 0.171064,0 0.262298,0c9.48833,0.399148 19.0679,0.718467 28.7273,0.889531c0.228085,0 0.45617,0 0.67285,0c-20.003,12.5675 -35.2391,42.4124 -41.5228,82.7264ZM667.074,502.683c-25.4315,5.88459 -98.6239,20.0943 -172.489,26.0587c-6.32935,-40.2684 -21.611,-70.1133 -41.5228,-82.6808c0.319319,0 0.627233,-0.045617 0.980765,-0.045617c9.53395,-0.171064 19.0679,-0.490382 28.465,-0.889531c0.0912339,0 0.182468,0 0.273702,0c9.26024,-0.399148 18.4407,-0.935148 27.5298,-1.56238c0.980765,-0.045617 2.00715,-0.125447 2.98791,-0.216681c9.04356,-0.627233 17.9503,-1.37991 26.7658,-2.22383c0.273702,0 0.490382,-0.045617 0.718467,-0.0912339c8.81548,-0.843914 17.5055,-1.82468 26.0587,-2.89668c0.535999,-0.045617 1.02638,-0.136851 1.51676,-0.182468c8.37071,-1.02638 16.5704,-2.17821 24.6788,-3.43268c1.072,-0.171064 2.13259,-0.307915 3.20459,-0.490382c8.0628,-1.24306 16.0344,-2.62298 23.7436,-4.04851c0.136851,-0.045617 0.273702,-0.045617 0.399148,-0.0912339c7.66365,-1.47115 15.1448,-2.98791 22.455,-4.63012c0.75268,-0.182468 1.51676,-0.307915 2.22383,-0.490382c7.12765,-1.608 14.0842,-3.34144 20.8127,-5.1205c0.399148,-0.0912339 0.843914,-0.182468 1.24306,-0.319319c0.399148,49.4488 0.216681,72.5766 -0.045617,83.3536Z" style="fill:#925b1d;fill-rule:nonzero;"/></g></svg>