<?xml version="1.0" standalone="no"?><!DOCTYPE svg PUBLIC "-//W3C//DTD SVG 1.1//EN" "http://www.w3.org/Graphics/SVG/1.1/DTD/svg11.dtd"><svg width="100%" height="100%" viewBox="0 0 500 334" version="1.1" xmlns="http://www.w3.org/2000/svg" xmlns:xlink="http://www.w3.org/1999/xlink" xml:space="preserve" style="fill-rule:evenodd;clip-rule:evenodd;stroke-linejoin:round;stroke-miterlimit:1.41421;"><path d="M500,180.264c0,-7.9 0,-26.291 -229.483,-143.245c0,-0.379 0,-0.679 0,-1.059c0,-21.472 -8.09,-35.297 -20.493,-35.297c-12.467,0 -20.556,13.888 -20.556,35.297c0,0.38 0,0.743 0,1.059c-229.468,116.954 -229.468,135.345 -229.468,143.245c0,5.072 0.063,19.94 47.085,36.357c-2.212,82.335 0.742,84.863 6.431,89.303c9.259,7.284 92.763,21.915 158.429,26.055l11.724,0.742l5.562,0.111c7.347,0.253 14.694,0.505 21.788,0.505c14.742,0 31.838,-0.932 49.613,-2.417l0.19,0c65.792,-5.483 141.712,-19.134 148.38,-25.786c4.566,-4.566 5.056,-5.309 4.187,-88.703c46.548,-16.353 46.611,-31.095 46.611,-36.167ZM202.07,306.919c-59.314,-4.503 -113.999,-15.184 -130.716,-19.687c-0.569,-6.794 -1.122,-23.4 -0.19,-63.201c0.869,0.237 1.849,0.427 2.718,0.68c1.849,0.489 3.824,0.916 5.736,1.422c4.629,1.169 9.385,2.212 14.315,3.27c2.228,0.427 4.392,0.917 6.604,1.359c5.009,0.98 10.065,1.912 15.247,2.828c2.165,0.38 4.267,0.743 6.415,1.122c6.178,0.98 12.53,1.912 18.961,2.765c1.232,0.19 2.401,0.379 3.634,0.506c7.9,0.979 15.926,1.912 24.127,2.654c1.122,0.111 2.291,0.174 3.397,0.3c6.92,0.617 13.888,1.17 20.919,1.612c2.418,0.111 4.82,0.237 7.284,0.427c5.926,0.316 11.914,0.616 17.902,0.805c2.718,0.127 5.435,0.19 8.153,0.237c2.275,0.064 4.566,0.19 6.842,0.19c-15.058,9.512 -26.592,32.154 -31.348,62.711ZM429.136,287.169c-19.308,4.44 -74.862,15.247 -130.969,19.75c-4.819,-30.557 -16.353,-53.199 -31.474,-62.774c2.338,-0.063 4.693,-0.127 7.031,-0.237c2.591,-0.063 5.183,-0.127 7.837,-0.253c6.178,-0.19 12.293,-0.49 18.392,-0.869c2.354,-0.126 4.629,-0.237 6.983,-0.363c7.284,-0.49 14.568,-1.059 21.663,-1.675c0.916,-0.063 1.911,-0.111 2.78,-0.237c8.264,-0.806 16.354,-1.675 24.317,-2.718c1.232,-0.189 2.402,-0.379 3.634,-0.49c6.478,-0.869 12.782,-1.801 19.008,-2.78c2.164,-0.38 4.266,-0.743 6.431,-1.107c5.182,-0.932 10.301,-1.864 15.294,-2.844c2.228,-0.442 4.456,-0.869 6.605,-1.358c5.008,-1.043 9.812,-2.228 14.504,-3.397c1.802,-0.427 3.713,-0.869 5.436,-1.359c0.869,-0.237 1.722,-0.427 2.528,-0.616c0.379,37.588 0.189,55.111 0,63.327Z" style="fill:#ad7739;fill-rule:nonzero;"/></svg>