<?xml version="1.0" standalone="no"?><!DOCTYPE svg PUBLIC "-//W3C//DTD SVG 1.1//EN" "http://www.w3.org/Graphics/SVG/1.1/DTD/svg11.dtd"><svg width="100%" height="100%" viewBox="0 0 500 334" version="1.1" xmlns="http://www.w3.org/2000/svg" xmlns:xlink="http://www.w3.org/1999/xlink" xml:space="preserve" style="fill-rule:evenodd;clip-rule:evenodd;stroke-linejoin:round;stroke-miterlimit:1.41421;"><path d="M500,180.241c0,-7.901 0,-26.292 -229.468,-143.246c0,-0.379 0,-0.742 0,-1.058c0,-21.473 -8.026,-35.298 -20.492,-35.298c-12.467,0 -20.557,13.825 -20.557,35.298c0,0.379 0,0.742 0,1.058c-229.483,116.954 -229.483,135.345 -229.483,143.246c0,5.056 0.063,19.94 47.101,36.356c-1.723,64.244 0.189,75.115 0.869,78.749l1.042,5.798l17.902,9.575l2.844,1.106c23.748,5.862 83.378,16.48 142.203,20.13l11.787,0.743l5.483,0.173c7.347,0.253 14.694,0.49 21.851,0.49c14.758,0 31.854,-0.916 49.692,-2.401l0.111,0c65.919,-5.546 141.776,-19.198 148.317,-25.739c4.693,-4.566 5.119,-5.309 4.203,-88.687c46.532,-16.417 46.595,-31.237 46.595,-36.293ZM202.022,306.959c-52.22,-4.013 -102.891,-13.035 -125.106,-18.344l-5.688,-3.018c-0.553,-7.9 -0.98,-24.996 -0.064,-61.526c0.806,0.237 1.739,0.426 2.592,0.616c2.038,0.49 4.139,0.979 6.178,1.469c4.503,1.122 9.006,2.165 13.762,3.16c2.354,0.49 4.692,0.98 7.094,1.47c4.756,0.932 9.638,1.864 14.568,2.717c2.354,0.443 4.693,0.806 7.157,1.233c5.752,0.932 11.614,1.801 17.539,2.528c1.659,0.253 3.334,0.505 4.993,0.679c7.71,0.996 15.563,1.865 23.51,2.607c1.865,0.174 3.714,0.301 5.562,0.427c6.178,0.553 12.34,1.043 18.644,1.422c2.892,0.174 5.862,0.3 8.817,0.49c5.309,0.3 10.681,0.553 16.053,0.742c3.208,0.127 6.478,0.237 9.686,0.301c2.038,0.063 4.076,0.126 6.114,0.189c-15.057,9.575 -26.607,32.217 -31.411,62.838ZM429.088,287.145c-19.26,4.44 -74.814,15.248 -130.968,19.814c-4.819,-30.558 -16.354,-53.263 -31.49,-62.775c2.101,-0.063 4.139,-0.126 6.241,-0.189c3.144,-0.063 6.352,-0.174 9.512,-0.3c5.482,-0.19 10.854,-0.443 16.29,-0.743c2.954,-0.19 5.862,-0.316 8.816,-0.49c6.241,-0.442 12.467,-0.932 18.581,-1.422c1.912,-0.189 3.824,-0.316 5.689,-0.49c7.947,-0.742 15.737,-1.611 23.384,-2.607c1.975,-0.237 3.887,-0.553 5.862,-0.79c5.672,-0.742 11.234,-1.548 16.732,-2.48c2.592,-0.427 5.12,-0.854 7.648,-1.296c4.756,-0.79 9.385,-1.659 13.951,-2.591c2.592,-0.49 5.12,-1.043 7.648,-1.533c4.566,-0.995 8.958,-1.975 13.272,-3.097c2.228,-0.553 4.44,-1.043 6.604,-1.596c0.743,-0.189 1.549,-0.379 2.228,-0.553c0.301,37.21 0.237,54.859 0,63.138Z" style="fill:#cca374;fill-rule:nonzero;"/></svg>