<?xml version="1.0" encoding="utf-8"?>
<!-- Generator: Adobe Illustrator 15.0.0, SVG Export Plug-In . SVG Version: 6.00 Build 0)  -->
<!DOCTYPE svg PUBLIC "-//W3C//DTD SVG 1.1//EN" "http://www.w3.org/Graphics/SVG/1.1/DTD/svg11.dtd">
<svg version="1.1" id="Layer_1" xmlns="http://www.w3.org/2000/svg" xmlns:xlink="http://www.w3.org/1999/xlink" x="0px" y="0px"
	 width="100px" height="100px" viewBox="0 0 100 100" enable-background="new 0 0 100 100" xml:space="preserve">
<path fill="#323232" d="M63.446,62.692c0,0,8.393,8.423,8.422,8.423c2.693,2.7,2.005,7.449-0.545,10.055L59.579,93.373
	c-4.527,4.534-10.575-1.747-6.189-6.122l7.449-7.456l-7.276-7.212L63.446,62.692z M37.291,62.692L37.291,62.692l-8.426,8.423
	c-2.689,2.7-2.002,7.449,0.522,10.055l11.771,12.204c4.523,4.534,10.575-1.747,6.217-6.122l-7.449-7.456l7.245-7.212L37.291,62.692
	 M50.641,31.351c6.761,0,12.203-5.443,12.203-12.232c0-6.725-5.442-12.176-12.203-12.176c-6.732,0-12.204,5.451-12.204,12.176
	C38.437,25.908,43.908,31.351,50.641,31.351L50.641,31.351z M63.876,57.793l0.171-8.337l10.142,9.483
	c0.83,0.78,1.891,1.145,2.95,1.145c1.146,0,2.321-0.458,3.152-1.346c1.633-1.741,1.547-4.491-0.201-6.132
	c0,0-11.63-12.633-13.292-14.09c-3.094-2.75-7.649-4.301-15.015-4.301h-2.288c-7.363,0-11.917,1.551-15.012,4.301
	c-1.665,1.458-13.288,14.09-13.288,14.09c-1.752,1.641-1.834,4.391-0.204,6.132c0.827,0.888,2.008,1.346,3.151,1.346
	c1.056,0,2.12-0.365,2.951-1.145l10.141-9.455l0.168,8.309H63.876z M63.876,57.793"/>
</svg>
