<?xml version="1.0" encoding="utf-8"?>
<!-- Generator: Adobe Illustrator 15.0.0, SVG Export Plug-In . SVG Version: 6.00 Build 0)  -->
<!DOCTYPE svg PUBLIC "-//W3C//DTD SVG 1.1//EN" "http://www.w3.org/Graphics/SVG/1.1/DTD/svg11.dtd">
<svg version="1.1" id="Layer_1" xmlns="http://www.w3.org/2000/svg" xmlns:xlink="http://www.w3.org/1999/xlink" x="0px" y="0px"
	 width="100px" height="100px" viewBox="0 0 100 100" enable-background="new 0 0 100 100" xml:space="preserve">
<g>
	<path fill="#323232" d="M83.06,15.784H17.954c-3.203,0-5.826,2.623-5.826,5.827V76.68c0,3.205,2.623,5.829,5.826,5.829H83.06
		c3.205,0,5.828-2.624,5.828-5.829V21.611C88.888,18.406,86.265,15.784,83.06,15.784L83.06,15.784z M81.118,74.737H19.897V23.553
		h61.221V74.737z"/>
	<rect x="27.667" y="54.624" fill="#323232" width="45.682" height="3.885"/>
	<rect x="27.667" y="63.886" fill="#323232" width="45.682" height="3.883"/>
	<path fill="#323232" d="M31.552,34.966c0,3.218,2.609,5.828,5.827,5.828c3.22,0,5.827-2.61,5.827-5.828s-2.607-5.827-5.827-5.827
		C34.161,29.139,31.552,31.748,31.552,34.966L31.552,34.966z"/>
	<path fill="#323232" d="M41.265,40.794h-7.77c-3.205,0-5.828,1.748-5.828,3.885v3.885h19.425v-3.885
		C47.092,42.542,44.47,40.794,41.265,40.794L41.265,40.794z"/>
	<path fill="#323232" d="M41.265,39.094"/>
</g>
</svg>
