<?xml version="1.0" encoding="utf-8"?>
<!-- Generator: Adobe Illustrator 15.0.0, SVG Export Plug-In . SVG Version: 6.00 Build 0)  -->
<!DOCTYPE svg PUBLIC "-//W3C//DTD SVG 1.1//EN" "http://www.w3.org/Graphics/SVG/1.1/DTD/svg11.dtd">
<svg version="1.1" id="Layer_1" xmlns="http://www.w3.org/2000/svg" xmlns:xlink="http://www.w3.org/1999/xlink" x="0px" y="0px"
	 width="100px" height="100px" viewBox="0 0 100 100" enable-background="new 0 0 100 100" xml:space="preserve">
<g>
	<path fill="#323232" d="M30.863,77.741h1.667v-5.947h10.297v5.947h1.664v-5.947H55.28v5.947h1.664v-5.947h11.484v5.947h1.664
		v-5.947h9.534v-1.668h-9.534V59.352h9.534v-1.665h-9.534v-9.834h9.534v-1.66h-9.534v-6.646h-1.664v6.646H56.943v-6.646H55.28v6.646
		H44.491v-6.646h-1.664v6.646H32.53v-6.646h-1.667v6.646H19.858v1.66h11.005v9.834H19.858v1.665h11.005v10.774H19.858v1.668h11.005
		V77.741z M44.491,70.125V59.352H55.28v10.774H44.491z M68.427,70.125H56.943V59.352h11.484V70.125z M68.427,47.853v9.834H56.943
		v-9.834H68.427z M55.28,47.853v9.834H44.491v-9.834H55.28z M32.53,47.853h10.297v9.834H32.53V47.853z M32.53,59.352h10.297v10.774
		H32.53V59.352z M32.53,59.352"/>
	<path fill="#323232" d="M90.988,15.406L79.445,15.42l-1.688,0.015v6.832c0,1.827-1.486,3.314-3.314,3.314h-3.874
		c-1.827,0-3.314-1.487-3.314-3.314v-6.832l-4.433,0.013v6.819c0,1.827-1.486,3.314-3.327,3.314h-3.874
		c-1.829,0-3.314-1.487-3.314-3.314v-6.819L47.6,15.462v6.804c0,1.827-1.483,3.314-3.312,3.314h-3.888
		c-1.816,0-3.312-1.487-3.312-3.314v-6.792h-4.843v6.792c0,1.827-1.487,3.314-3.314,3.314h-3.875c-1.827,0-3.327-1.487-3.327-3.314
		v-6.775L9.398,15.5v73.053h75.834l5.838-0.025L90.988,15.406z M85.232,82.729H15.235V36.056h69.997V82.729z M85.232,82.729"/>
	<path fill="#323232" d="M25.054,23.235h3.875c0.465,0,0.832-0.381,0.832-0.83V10.784c0-0.465-0.367-0.832-0.832-0.832h-3.875
		c-0.461,0-0.83,0.367-0.83,0.832v11.621C24.224,22.854,24.593,23.235,25.054,23.235L25.054,23.235z M25.054,23.235"/>
	<path fill="#323232" d="M40.399,23.235h3.888c0.463,0,0.83-0.381,0.83-0.83V10.784c0-0.465-0.381-0.832-0.83-0.832h-3.888
		c-0.451,0-0.817,0.367-0.817,0.832v11.621C39.582,22.854,39.949,23.235,40.399,23.235L40.399,23.235z M40.399,23.235"/>
	<path fill="#323232" d="M55.621,23.235h3.874c0.463,0,0.845-0.381,0.845-0.83V10.784c0-0.465-0.381-0.832-0.845-0.832h-3.874
		c-0.45,0-0.832,0.367-0.832,0.832v11.621C54.79,22.854,55.171,23.235,55.621,23.235L55.621,23.235z M55.621,23.235"/>
	<path fill="#323232" d="M70.569,23.235h3.874c0.465,0,0.831-0.381,0.831-0.83V10.784c0-0.465-0.366-0.832-0.831-0.832h-3.874
		c-0.463,0-0.831,0.367-0.831,0.832v11.621C69.738,22.854,70.106,23.235,70.569,23.235L70.569,23.235z M70.569,23.235"/>
</g>
</svg>
