<?xml version="1.0" encoding="utf-8"?>
<!-- Generator: Adobe Illustrator 15.0.0, SVG Export Plug-In . SVG Version: 6.00 Build 0)  -->
<!DOCTYPE svg PUBLIC "-//W3C//DTD SVG 1.1//EN" "http://www.w3.org/Graphics/SVG/1.1/DTD/svg11.dtd">
<svg version="1.1" id="Layer_1" xmlns="http://www.w3.org/2000/svg" xmlns:xlink="http://www.w3.org/1999/xlink" x="0px" y="0px"
	 width="100px" height="100px" viewBox="0 0 100 100" enable-background="new 0 0 100 100" xml:space="preserve">
<path fill="#323232" d="M57.847,13.686c0,4.047-3.269,7.346-7.337,7.346c-4.075,0-7.345-3.298-7.345-7.346
	c0-4.067,3.271-7.366,7.345-7.366C54.578,6.319,57.847,9.619,57.847,13.686L57.847,13.686z"/>
<path fill="#323232" d="M67.567,51.478c0,0-3.87-18.744-5.698-22.508c0,0,0,0,0-0.028c-1.836-3.757-3.674-6.018-10.637-6.018h-1.44
	c-6.963,0-8.8,2.261-10.636,6.018c0,0.028,0,0.028,0,0.028c-1.836,3.765-5.706,22.508-5.706,22.508
	c-0.291,1.264,0.487,2.528,1.779,2.811c0.17,0.057,0.339,0.086,0.51,0.086c1.093,0,2.047-0.742,2.301-1.829l5.22-18.554
	l-5.085,30.999h4.908L44.6,92.661c0,0.946,0.777,1.744,1.724,1.744c1.003,0,1.808-0.798,1.808-1.744l1.491-27.671h1.78l1.491,27.671
	c0,0.946,0.797,1.744,1.8,1.744c0.946,0,1.724-0.798,1.724-1.744l1.517-27.671h4.91l-5.079-30.999l5.22,18.554
	c0.254,1.087,1.228,1.829,2.296,1.829c0.169,0,0.338-0.029,0.543-0.086C67.081,54.006,67.858,52.742,67.567,51.478L67.567,51.478z"
	/>
<polygon fill-rule="evenodd" clip-rule="evenodd" fill="#FFFFFF" points="55,30 52,30 52,27 49,27 49,30 46,30 46,33 49,33 49,36 
	52,36 52,33 55,33 "/>
</svg>
