<?xml version="1.0" encoding="utf-8"?>
<!-- Generator: Adobe Illustrator 15.0.0, SVG Export Plug-In . SVG Version: 6.00 Build 0)  -->
<!DOCTYPE svg PUBLIC "-//W3C//DTD SVG 1.1//EN" "http://www.w3.org/Graphics/SVG/1.1/DTD/svg11.dtd">
<svg version="1.1" id="Layer_1" xmlns="http://www.w3.org/2000/svg" xmlns:xlink="http://www.w3.org/1999/xlink" x="0px" y="0px"
	 width="100px" height="100px" viewBox="0 0 100 100" enable-background="new 0 0 100 100" xml:space="preserve">
<g>
	<path fill="#323232" d="M22.991,52.763c0.348,0.219,0.782,0.246,1.153,0.07l7.261-3.41c0.145,11.363-6.738,18.797-8.121,20.172
		c-0.324,0.324-0.438,0.805-0.289,1.238l0.996,2.91c0.133,0.395,0.465,0.695,0.875,0.785c0.086,0.02,0.172,0.027,0.258,0.027
		c0.324,0,0.637-0.129,0.867-0.367c2.563-2.664,5.071-6.383,6.887-10.203l8.535,3.453c0.606,0.246,1.293-0.035,1.551-0.637
		l1.605-3.727c0.129-0.297,0.133-0.633,0.008-0.93c-0.121-0.301-0.359-0.535-0.66-0.656l-8.871-3.59
		c0.52-1.957,1.727-6.945,1.664-11l6.531-3.176c0.414-0.203,0.676-0.617,0.676-1.078l0.008-3.93c0-0.41-0.211-0.793-0.559-1.015
		c-0.347-0.219-0.785-0.246-1.156-0.071l-19.113,9.098c-0.422,0.199-0.688,0.621-0.684,1.086l0.02,3.941
		C22.437,52.165,22.648,52.544,22.991,52.763L22.991,52.763z M22.991,52.763"/>
	<g>
		<path fill="#323232" d="M64.046,58.774l5.664,2.434l-2.891-13.425L64.046,58.774z M64.046,58.774"/>
		<path fill="#323232" d="M88.269,44.388V12.896c0-0.723-0.363-1.395-0.965-1.789c-0.605-0.399-1.364-0.461-2.023-0.176
			L50.483,25.986L15.624,11.408c-0.66-0.286-1.418-0.219-2.023,0.175c-0.602,0.395-0.965,1.067-0.965,1.789v30.34
			c0,0.024-0.008,0.039-0.008,0.063v41.527c0,0.723,0.363,1.395,0.965,1.789c0.355,0.234,0.762,0.352,1.176,0.352
			c0.285,0,0.578-0.059,0.847-0.176l34.86-15.086l34.82,16.039c0.273,0.121,0.562,0.18,0.852,0.18c0.41,0,0.82-0.121,1.172-0.352
			c0.605-0.398,0.965-1.07,0.965-1.789V44.728C88.288,44.638,88.28,44.521,88.269,44.388L88.269,44.388z M50.464,67.524
			l-33.559,14.52V45.181l33.586-14.535L50.464,67.524z M78.081,77.216c-0.223,0.188-0.5,0.285-0.781,0.285
			c-0.16,0-0.32-0.031-0.473-0.098l-3.164-1.359c-0.348-0.148-0.605-0.457-0.695-0.828l-1.844-7.801l-8.41-3.617l-1.566,5.438
			c-0.098,0.332-0.332,0.605-0.641,0.75c-0.312,0.148-0.672,0.156-0.988,0.02l-3.387-1.457c-0.559-0.242-0.848-0.863-0.672-1.449
			l8.012-26.609c0.098-0.328,0.332-0.598,0.641-0.743c0.312-0.144,0.668-0.148,0.984-0.015l4.137,1.781
			c0.344,0.149,0.598,0.445,0.691,0.805l8.539,33.691C78.577,76.45,78.429,76.919,78.081,77.216L78.081,77.216z M83.987,39.537
			L56.058,28.24l27.93-12.086V39.537z M83.987,39.537"/>
	</g>
</g>
</svg>
