<?xml version="1.0" encoding="utf-8"?>
<!-- Generator: Adobe Illustrator 15.0.0, SVG Export Plug-In . SVG Version: 6.00 Build 0)  -->
<!DOCTYPE svg PUBLIC "-//W3C//DTD SVG 1.1//EN" "http://www.w3.org/Graphics/SVG/1.1/DTD/svg11.dtd">
<svg version="1.1" id="Layer_1" xmlns="http://www.w3.org/2000/svg" xmlns:xlink="http://www.w3.org/1999/xlink" x="0px" y="0px"
	 width="100px" height="100px" viewBox="0 0 100 100" enable-background="new 0 0 100 100" xml:space="preserve">
<path fill="#323232" d="M50,15.75c19.161,0,34.75,15.589,34.75,34.75S69.161,85.25,50,85.25S15.25,69.661,15.25,50.5
	S30.839,15.75,50,15.75 M50,9.75C27.495,9.75,9.25,27.995,9.25,50.5c0,22.506,18.245,40.75,40.75,40.75
	c22.506,0,40.75-18.244,40.75-40.75C90.75,27.995,72.506,9.75,50,9.75L50,9.75z"/>
<circle fill="#323232" cx="50.75" cy="34.75" r="11"/>
<g>
	<path fill="#323232" d="M60.564,44.718c-2.528,2.49-5.993,4.032-9.814,4.032c-4.108,0-7.796-1.789-10.36-4.617
		c-7.472,4.239-10.992,13.73-9.89,25.117H50h19.5C70.554,58.359,67.38,49.205,60.564,44.718z"/>
</g>
</svg>
