<?xml version="1.0" encoding="utf-8"?>
<!-- Generator: Adobe Illustrator 15.0.0, SVG Export Plug-In . SVG Version: 6.00 Build 0)  -->
<!DOCTYPE svg PUBLIC "-//W3C//DTD SVG 1.1//EN" "http://www.w3.org/Graphics/SVG/1.1/DTD/svg11.dtd">
<svg version="1.1" id="Layer_1" xmlns="http://www.w3.org/2000/svg" xmlns:xlink="http://www.w3.org/1999/xlink" x="0px" y="0px"
	 width="100px" height="100px" viewBox="0 0 100 100" enable-background="new 0 0 100 100" xml:space="preserve">
<g>
	<g>
		<path fill="#323232" d="M22.054,51.978v-1.156l1.043-0.943c1.799-1.609,2.666-2.527,2.678-3.484c0-0.666-0.389-1.195-1.332-1.195
			c-0.703,0-1.32,0.354-1.748,0.668l-0.541-1.359c0.604-0.465,1.572-0.842,2.666-0.842c1.861,0,2.867,1.082,2.867,2.564
			c0,1.371-0.98,2.467-2.176,3.523l-0.754,0.627v0.025h3.094v1.572H22.054z"/>
	</g>
	<g>
		<path fill="#323232" d="M22.38,64.947c0.34,0.188,1.119,0.502,1.898,0.502c0.994,0,1.496-0.479,1.496-1.082
			c0-0.816-0.805-1.182-1.633-1.182H23.36v-1.373h0.742c0.641,0,1.447-0.25,1.447-0.941c0-0.492-0.391-0.855-1.209-0.855
			c-0.666,0-1.369,0.291-1.697,0.49l-0.389-1.385c0.49-0.312,1.457-0.613,2.527-0.613c1.736,0,2.705,0.918,2.705,2.035
			c0,0.869-0.492,1.561-1.498,1.9v0.025c0.98,0.176,1.773,0.918,1.773,1.998c0,1.434-1.271,2.492-3.346,2.492
			c-1.057,0-1.949-0.277-2.426-0.566L22.38,64.947z"/>
	</g>
	<circle fill="#323232" cx="24.499" cy="34.367" r="6.027"/>
	<g>
		<path fill="#323232" d="M24.462,38.076l-3.047-3.047c-0.369-0.369-0.369-0.971,0-1.342c0.371-0.369,0.971-0.369,1.342,0
			l1.705,1.705l5.482-5.482c0.371-0.371,0.973-0.371,1.342,0c0.371,0.369,0.371,0.971,0,1.342L24.462,38.076z"/>
	</g>
	<rect x="33.788" y="31.515" fill="#323232" width="42" height="6"/>
	<rect x="33.788" y="46.515" fill="#323232" width="42" height="6"/>
	<rect x="33.788" y="60.515" fill="#323232" width="42" height="6"/>
	<path fill="#323232" d="M87.972,75.132c0,2.316-1.879,4.193-4.195,4.193H14.415c-2.316,0-4.195-1.877-4.195-4.193V22.607
		c0-2.316,1.879-4.193,4.195-4.193h69.361c2.316,0,4.195,1.877,4.195,4.193V75.132z M83.776,75.132V22.457H14.542v52.676H83.776z"/>
</g>
<g>
	<path fill="#FFFFFF" d="M24.462,37.443l-3.047-3.047c-0.369-0.371-0.369-0.971,0-1.342c0.371-0.369,0.971-0.369,1.342,0
		l1.705,1.705l5.482-5.482c0.371-0.371,0.973-0.371,1.342,0c0.371,0.369,0.371,0.971,0,1.342L24.462,37.443z"/>
</g>
</svg>
