<?xml version="1.0" encoding="utf-8"?>
<!-- Generator: Adobe Illustrator 17.0.0, SVG Export Plug-In . SVG Version: 6.00 Build 0)  -->
<!DOCTYPE svg PUBLIC "-//W3C//DTD SVG 1.1//EN" "http://www.w3.org/Graphics/SVG/1.1/DTD/svg11.dtd">
<svg version="1.1" xmlns="http://www.w3.org/2000/svg" xmlns:xlink="http://www.w3.org/1999/xlink" x="0px" y="0px" width="612px"
	 height="792px" viewBox="0 0 612 792" enable-background="new 0 0 612 792" xml:space="preserve">
<g id="Layer_1">
	<g id="ChW-clipboard">
		<g id="clipboard">
			<g id="clipboard1">
				
					<path fill="#FFF8E0" stroke="#6B342A" stroke-width="21.33" stroke-linecap="round" stroke-linejoin="bevel" stroke-miterlimit="10" d="
					M513.676,145.632c0-11.479-9.305-20.784-20.784-20.784H119.731c-11.479,0-20.784,9.306-20.784,20.784v500.77
					c0,11.479,9.306,20.784,20.784,20.784h373.161c11.479,0,20.784-9.305,20.784-20.784V145.632L513.676,145.632z"/>
				<g id="form">
					<rect x="167.332" y="284.816" fill="#787878" width="223.316" height="19.545"/>
					<rect x="167.332" y="359.387" fill="#787878" width="223.316" height="19.545"/>
					<rect x="167.332" y="433.958" fill="#787878" width="223.316" height="19.545"/>
					<rect x="167.332" y="508.53" fill="#787878" width="223.316" height="19.545"/>
					<path fill="#787878" d="M433.183,309.609l-14.953-14.953l-0.22-0.232l-0.208-0.243l-0.195-0.254l-0.181-0.264l-0.167-0.273
						l-0.153-0.281l-0.138-0.289l-0.122-0.295l-0.107-0.301l-0.091-0.307l-0.075-0.311l-0.058-0.314l-0.042-0.317l-0.025-0.319
						l-0.008-0.32l0.008-0.32l0.025-0.319l0.042-0.317l0.058-0.314l0.075-0.311l0.091-0.307l0.107-0.301l0.122-0.295l0.138-0.289
						l0.153-0.281l0.167-0.273l0.181-0.264l0.195-0.254l0.208-0.243l0.22-0.232l0.232-0.22l0.243-0.208l0.254-0.195l0.264-0.181
						l0.273-0.167l0.281-0.153l0.289-0.138l0.295-0.122l0.301-0.107l0.307-0.091l0.311-0.075l0.314-0.058l0.317-0.042l0.319-0.025
						l0.32-0.008l0.32,0.008l0.319,0.025l0.317,0.042l0.314,0.058l0.311,0.075l0.307,0.091l0.301,0.107l0.295,0.122l0.289,0.138
						l0.281,0.153l0.273,0.167l0.264,0.181l0.254,0.195l0.243,0.208l0.232,0.22l6.315,6.315l27.583-27.583l0.232-0.22l0.243-0.208
						l0.254-0.195l0.264-0.181l0.273-0.167l0.281-0.153l0.289-0.138l0.295-0.122l0.301-0.107l0.307-0.091l0.311-0.075l0.314-0.058
						l0.317-0.042l0.319-0.025l0.32-0.008l0.32,0.008l0.319,0.025l0.317,0.042l0.314,0.058l0.311,0.075l0.307,0.091l0.301,0.107
						l0.295,0.122l0.289,0.138l0.281,0.153l0.273,0.167l0.264,0.181l0.254,0.195l0.243,0.208l0.232,0.22l0.22,0.232l0.208,0.243
						l0.195,0.254l0.181,0.264l0.167,0.273l0.153,0.281l0.138,0.289l0.122,0.295l0.107,0.301l0.091,0.307l0.075,0.311l0.058,0.314
						l0.042,0.317l0.025,0.319l0.008,0.32l-0.008,0.32l-0.025,0.319l-0.042,0.317l-0.058,0.314l-0.075,0.311l-0.091,0.307
						l-0.107,0.301l-0.122,0.295l-0.138,0.289l-0.153,0.281l-0.167,0.273l-0.181,0.264l-0.195,0.254l-0.208,0.243l-0.22,0.232
						L433.183,309.609z"/>
					<path fill="#787878" d="M433.183,534.206l-14.953-14.953l-0.22-0.232l-0.208-0.243l-0.195-0.254l-0.181-0.264l-0.167-0.273
						l-0.153-0.281l-0.138-0.289l-0.122-0.295l-0.107-0.301l-0.091-0.307l-0.075-0.311l-0.058-0.314l-0.042-0.317l-0.025-0.319
						l-0.008-0.32l0.008-0.32l0.025-0.319l0.042-0.317l0.058-0.314l0.075-0.311l0.091-0.307l0.107-0.301l0.122-0.295l0.138-0.289
						l0.153-0.281l0.167-0.273l0.181-0.264l0.195-0.254l0.208-0.243l0.22-0.232l0.232-0.22l0.243-0.208l0.254-0.195l0.264-0.181
						l0.273-0.167l0.281-0.153l0.289-0.138l0.295-0.122l0.301-0.107l0.307-0.091l0.311-0.075l0.314-0.058l0.317-0.042l0.319-0.025
						l0.32-0.008l0.32,0.008l0.319,0.025l0.317,0.042l0.314,0.058l0.311,0.075l0.307,0.091l0.301,0.107l0.295,0.122l0.289,0.138
						l0.281,0.153l0.273,0.167l0.264,0.181l0.254,0.195l0.243,0.208l0.232,0.22l6.315,6.315l27.583-27.583l0.232-0.22l0.243-0.208
						l0.254-0.195l0.264-0.181l0.273-0.167l0.281-0.153l0.289-0.138l0.295-0.122l0.301-0.107l0.307-0.091l0.311-0.075l0.314-0.058
						l0.317-0.042l0.319-0.025l0.32-0.008l0.32,0.008l0.319,0.025l0.317,0.042l0.314,0.058l0.311,0.075l0.307,0.091l0.301,0.107
						l0.295,0.122l0.289,0.138l0.281,0.153l0.273,0.167l0.264,0.181l0.254,0.195l0.243,0.208l0.232,0.22l0.22,0.232l0.208,0.243
						l0.195,0.254l0.181,0.264l0.167,0.273l0.153,0.281l0.138,0.289l0.122,0.295l0.107,0.301l0.091,0.307l0.075,0.311l0.058,0.314
						l0.042,0.317l0.025,0.319l0.008,0.32l-0.008,0.32l-0.025,0.319l-0.042,0.317l-0.058,0.314l-0.075,0.311l-0.091,0.307
						l-0.107,0.301l-0.122,0.295l-0.138,0.289l-0.153,0.281l-0.167,0.273l-0.181,0.264l-0.195,0.254l-0.208,0.243l-0.22,0.232
						L433.183,534.206z"/>
					<path fill="#787878" d="M433.183,458.376l-14.953-14.953l-0.22-0.232l-0.208-0.243l-0.195-0.254l-0.181-0.264l-0.167-0.273
						l-0.153-0.281l-0.138-0.289l-0.122-0.295l-0.107-0.301l-0.091-0.307l-0.075-0.311l-0.058-0.314l-0.042-0.317l-0.025-0.319
						l-0.008-0.32l0.008-0.32l0.025-0.319l0.042-0.317l0.058-0.314l0.075-0.311l0.091-0.307l0.107-0.301l0.122-0.295l0.138-0.289
						l0.153-0.281l0.167-0.273l0.181-0.264l0.195-0.254l0.208-0.243l0.22-0.232l0.232-0.22l0.243-0.208l0.254-0.195l0.264-0.181
						l0.273-0.167l0.281-0.153l0.289-0.138l0.295-0.122l0.301-0.107l0.307-0.091l0.311-0.075l0.314-0.058l0.317-0.042l0.319-0.025
						l0.32-0.008l0.32,0.008l0.319,0.025l0.317,0.042l0.314,0.058l0.311,0.075l0.307,0.091l0.301,0.107l0.295,0.122l0.289,0.138
						l0.281,0.153l0.273,0.167l0.264,0.181l0.254,0.195l0.243,0.208l0.232,0.22l6.315,6.315l27.583-27.583l0.232-0.22l0.243-0.208
						l0.254-0.195l0.264-0.181l0.273-0.167l0.281-0.153l0.289-0.138l0.295-0.122l0.301-0.107l0.307-0.091l0.311-0.075l0.314-0.058
						l0.317-0.042l0.319-0.025l0.32-0.008l0.32,0.008l0.319,0.025l0.317,0.042l0.314,0.058l0.311,0.075l0.307,0.091l0.301,0.107
						l0.295,0.122l0.289,0.138l0.281,0.153l0.273,0.167l0.264,0.181l0.254,0.195l0.243,0.208l0.232,0.22l0.22,0.232l0.208,0.243
						l0.195,0.254l0.181,0.264l0.167,0.273l0.153,0.281l0.138,0.289l0.122,0.295l0.107,0.301l0.091,0.307l0.075,0.311l0.058,0.314
						l0.042,0.317l0.025,0.319l0.008,0.32l-0.008,0.32l-0.025,0.319l-0.042,0.317l-0.058,0.314l-0.075,0.311l-0.091,0.307
						l-0.107,0.301l-0.122,0.295l-0.138,0.289l-0.153,0.281l-0.167,0.273l-0.181,0.264l-0.195,0.254l-0.208,0.243l-0.22,0.232
						L433.183,458.376z"/>
					<path fill="#787878" d="M433.183,384.61l-14.953-14.953l-0.22-0.232l-0.208-0.243l-0.195-0.254l-0.181-0.264l-0.167-0.273
						l-0.153-0.281l-0.138-0.289l-0.122-0.295l-0.107-0.301l-0.091-0.307l-0.075-0.311l-0.058-0.314l-0.042-0.317l-0.025-0.319
						l-0.008-0.32l0.008-0.32l0.025-0.319l0.042-0.317l0.058-0.314l0.075-0.311l0.091-0.307l0.107-0.301l0.122-0.295l0.138-0.289
						l0.153-0.281l0.167-0.273l0.181-0.264l0.195-0.254l0.208-0.243l0.22-0.232l0.232-0.22l0.243-0.208l0.254-0.195l0.264-0.181
						l0.273-0.167l0.281-0.153l0.289-0.138l0.295-0.122l0.301-0.107l0.307-0.091l0.311-0.075l0.314-0.058l0.317-0.042l0.319-0.025
						l0.32-0.008l0.32,0.008l0.319,0.025l0.317,0.042l0.314,0.058l0.311,0.075l0.307,0.091l0.301,0.107l0.295,0.122l0.289,0.138
						l0.281,0.153l0.273,0.167l0.264,0.181l0.254,0.195l0.243,0.208l0.232,0.22l6.315,6.315l27.583-27.583l0.232-0.22l0.243-0.208
						l0.254-0.195l0.264-0.181l0.273-0.167l0.281-0.153l0.289-0.138l0.295-0.122l0.301-0.107l0.307-0.091l0.311-0.075l0.314-0.058
						l0.317-0.042l0.319-0.025l0.32-0.008l0.32,0.008l0.319,0.025l0.317,0.042l0.314,0.058l0.311,0.075l0.307,0.091l0.301,0.107
						l0.295,0.122l0.289,0.138l0.281,0.153l0.273,0.167l0.264,0.181l0.254,0.195l0.243,0.208l0.232,0.22l0.22,0.232l0.208,0.243
						l0.195,0.254l0.181,0.264l0.167,0.273l0.153,0.281l0.138,0.289l0.122,0.295l0.107,0.301l0.091,0.307l0.075,0.311l0.058,0.314
						l0.042,0.317l0.025,0.319l0.008,0.32l-0.008,0.32l-0.025,0.319l-0.042,0.317l-0.058,0.314l-0.075,0.311l-0.091,0.307
						l-0.107,0.301l-0.122,0.295l-0.138,0.289l-0.153,0.281l-0.167,0.273l-0.181,0.264l-0.195,0.254l-0.208,0.243l-0.22,0.232
						L433.183,384.61z"/>
				</g>
				<path fill="#505050" d="M156.902,181.617c-0.095-22.831,6.715-30.859,15.951-36.688c8.992-5.675,26.494-5.524,47.853-5.849
					c18.026-0.274,31.902,0,31.902,0s8.373-53.17,53.17-53.17s54.233,53.17,54.233,53.17s13.877-0.274,31.902,0
					c21.359,0.325,38.861,0.174,47.853,5.849c9.236,5.829,16.046,13.856,15.951,36.688H156.902L156.902,181.617z"/>
				<circle fill="#FFFFFF" cx="306.311" cy="112.495" r="10.634"/>
			</g>
			<g id="Layer_1_1_">
				<path fill="#58595B" d="M431.265,229.52l-8.05,7.017c-0.243,0.212-0.615,0.189-0.83-0.053l-7.393-8.283
					c-0.215-0.241-0.192-0.61,0.051-0.822l8.05-7.017c0.244-0.212,0.616-0.188,0.832,0.052l7.392,8.285
					C431.532,228.941,431.508,229.308,431.265,229.52 M454.259,208.915c-0.074-2.117-1.721-1.44-2.276-1.263
					c2.235-1.372,4.16-5.406,3.656-7.148c-0.393-1.36-1.303-0.894-2.411,0.168c3.236-7.218-1.555-11.093-1.556-11.088
					c-0.824-0.536-1.411,0.185-1.399,1.257c0.166,8.682-6.255,13.7-13.267,17.861c-5.272,3.365-7.138,9.03-7.785,13.079
					c-0.161,0.496-0.54,0.26-0.722,0.107l-4.055-4.545c-0.442-0.495-1.067-0.738-1.686-0.717c-0.48,0.016-0.957,0.19-1.344,0.528
					l-0.183,0.16l-0.003-0.003l-0.004,0.003l-0.979-1.097c-0.289-0.324-0.685-0.494-1.07-0.499
					c-0.298-0.002-0.589,0.095-0.819,0.297l-0.541,0.471c-0.533,0.464-0.548,1.308-0.034,1.884l0.979,1.097l-6.666,5.811
					c-0.89,0.776-0.974,2.116-0.19,2.994l23.095,25.88c0.44,0.493,1.061,0.736,1.678,0.717c0.482-0.014,0.962-0.19,1.352-0.529
					l9.318-8.124c0.89-0.775,0.974-2.116,0.19-2.994l-7.815-8.758c-0.004-0.007-0.007-0.014-0.012-0.02
					c-0.287-0.452,0.524-0.365,0.524-0.365l0.002-0.008c1.258,0.042,2.198-0.247,2.864-0.689c1.012-0.672-0.138-1.168-0.317-1.656
					c1.561,0.743,4.629,0.11,5.393-0.864c0.596-0.761-0.431-1.08-1.412-1.298c2.476-1.136,4.452-2.272,5.513-4.972
					c0.622-1.582-1.088-1.629-2.793-0.991c1.39-1.375,2.786-3.25,3.481-5.652c0.786-2.719-0.24-4.088-2.457-2.253
					C452.526,213.74,454.338,211.15,454.259,208.915"/>
			</g>
		</g>
	</g>
</g>
<g id="Layer_2">
	<rect x="165.5" y="220.5" fill="none" width="231" height="51"/>
	<text transform="matrix(1 0 0 1 165.5 253.5)" fill="#58595B" font-family="'Futura-Medium'" font-size="40">CHW: Lalita</text>
</g>
</svg>
