<?xml version="1.0" standalone="no"?><!DOCTYPE svg PUBLIC "-//W3C//DTD SVG 1.1//EN" "http://www.w3.org/Graphics/SVG/1.1/DTD/svg11.dtd"><svg width="100%" height="100%" viewBox="0 0 1920 1200" version="1.1" xmlns="http://www.w3.org/2000/svg" xmlns:xlink="http://www.w3.org/1999/xlink" xml:space="preserve" style="fill-rule:evenodd;clip-rule:evenodd;stroke-linejoin:round;stroke-miterlimit:1.41421;"><g id="scene-1"><rect x="0" y="600" width="1920" height="600" style="fill:#fffae9;"/><rect x="0" y="0" width="1920" height="600" style="fill:#d4e4ee;"/><path d="M0,380l82.212,-46.801l137.916,-37.6558c0,0 102.536,55.5977 139.579,67.4787c27.6585,8.87099 136.86,8.44516 136.86,8.44516c0,0 41.2875,-19.9895 59.5772,-35.0476c19.0375,-15.6738 72.7081,-59.0074 72.7081,-59.0074l53.9908,29.4258c0,0 59.2247,80.4182 59.879,81.9638c0.654332,1.54558 110.531,5.20645 109.618,5.59003c-0.913809,0.383574 45.3915,-25.4343 45.3915,-25.4343l55.1355,-68.028c0,0 53.4148,-89.5453 47.8518,-80.3917c-9.76564,16.0688 26.1953,-32.3497 46.1514,-34.7494c29.8497,-3.58941 40.9647,12.8196 66.6021,10.8961c25.6374,-1.92351 34.1329,-14.1402 47.0539,-16.3307c23.0763,-3.91214 51.4197,43.0895 51.4197,43.0895c0,0 32.8186,48.4022 52.6968,63.4292c19.8782,15.0271 42.1142,47.4898 69.4551,56.1654c27.3409,8.67554 115.351,17.4923 115.351,17.4923c0,0 48.9485,34.6286 84.0003,40.5063c35.0519,5.87771 113.927,22.6421 135.904,25.0508c21.9765,2.40862 109.877,3.94856 132.508,2.31273c22.6309,-1.63583 118.14,-48.4 118.14,-48.4l0,220l-1920,0l0,-220Z" style="fill:#c3cfc8;"/><path d="M990.13,238.426l14.5273,-26.5513l38.0521,-42.7865l31.8802,14.0573c0,0 20.8958,4.625 36.9583,2.40104c16.0625,-2.22396 50.4844,-19.3958 50.4844,-19.3958c0,0 13.1667,2.3125 24.6406,13.0781c11.474,10.7656 27.0844,36.583 37.35,49.9267c10.2656,13.3437 21.6457,38.6962 21.6457,38.6962l-16.1207,13.5021l-39.2552,-31.6719l-17.2708,45.4583l-31.0365,-44.5677l-20.6562,73.8333l-21.6198,-86.1094l-42.875,37.276l-33.0937,-39.0573l-33.6106,1.91071Z" style="fill:#edf6ff;"/><path d="M1099.47,238.457l-39.7312,99.0269l-2.59823,-62.5193l42.3295,-36.5076Z" style="fill:#a3b5ac;"/><path d="M1141.91,282.766l14.7934,58.6415l15.929,-46.8901l-30.4799,-43.5123" style="fill:#a3b5ac;"/><path d="M1190.52,249.944l23.2908,58.4193l15.9484,-27.3031c0,0 -39.3588,-30.5941 -39.2391,-31.1162Z" style="fill:#a3b5ac;"/><path d="M1008.48,237.399l9.34201,53.1647l5.75684,-54.0451l-15.0988,0.880441Z" style="fill:#a3b5ac;"/><path d="M621.063,314.399l-9.98803,23.3333l-10.2462,-37.5517l20.2342,14.2183Z" style="fill:#a3b5ac;"/><path d="M183.024,312.883l-4.46402,16.5949l26.0936,-10.9793l-10.0408,-5.95204l-11.5888,0.336518Z" style="fill:#a3b5ac;"/><path d="M640.243,315.378l18.3331,27.6153l6.67928,-30.7096l-25.0124,3.09428Z" style="fill:#a3b5ac;"/><path d="M227.807,313.066l-4.52092,3.38135l11.4227,13.8233l13.0045,-15.2763l-19.9063,-1.92834Z" style="fill:#a3b5ac;"/><path d="M628.461,277.124l-27.6991,23.0844l20.3013,14.1851l32.0681,1.57908l29.7088,-9.13488l-54.3792,-29.7137Z" style="fill:#edf6ff;"/><path d="M220.13,295.54l-67.0728,18.3156l41.5309,-1.24854l18.8056,11.0198l14.3783,-10.4903l31.118,2.88729l-38.76,-20.4838Z" style="fill:#edf6ff;"/></g></svg>