<?xml version="1.0" standalone="no"?>
<!DOCTYPE svg PUBLIC "-//W3C//DTD SVG 1.1//EN" "http://www.w3.org/Graphics/SVG/1.1/DTD/svg11.dtd" >
<svg xmlns="http://www.w3.org/2000/svg">
<metadata>
Generated by SVGconv.
Copyright   : Copyright  1990- 2008 ParaType, Inc. All rights reserved.
Designer    : Paul Renner,Vladimir Yefimov, Isabella Chaeva 
Foundry     : ParaType, Inc.
Foundry URL : http://www.paratype.com
</metadata>
<defs>
<font id="FuturaPTWeb-Bold" horiz-adv-x="588" >
<font-face units-per-em="1000" ascent="982" descent="300" />
<missing-glyph horiz-adv-x="500" />
<glyph unicode="&#32;" horiz-adv-x="233" />
<glyph unicode="&#33;" horiz-adv-x="341" d="M87 227v440h166v-440zM171 -19q-17 0 -36 6.5q-19 6.5 -37 24.5q-10 10 -20.5 28q-10.5 18 -10.5 45q0 27 10.5 45q10.5 18 20.5 28q18 18 37 24.5q19 6.5 36 6.5q19 0 38 -7.5q19 -7.5 36 -24.5q13 -13 21 -30q8 -17 8 -42q0 -25 -8 -42q-8 -17 -22 -31q-16 -16 -34.5 -23.5t-38.5 -7.5z" />
<glyph unicode="&#34;" horiz-adv-x="413" d="M160 399h-95l-24 268h144zM348 399h-96l-24 268l144 0z" />
<glyph unicode="&#35;" horiz-adv-x="600" d="M576 299l-17 -117h-102l-29 -182h-134l30 182h-85l-29 -182h-132l30 182h-102l18 117h101l14 83h-101l18 116h101l27 169h132l-28 -169h85l27 169h133l-27 -169h100l-18 -116h-100l-13 -83zM355 382h-85l-13 -83l85 0z" />
<glyph unicode="&#36;" horiz-adv-x="600" d="M367 775v-110q25 -2 62.5 -11.5q37.5 -9.5 88.5 -39.5l-66 -128q-17 13 -46 28q-29 15 -66 15q-17 0 -33 -4q-16 -4 -27 -14q-6 -5 -10.5 -13.5q-4.5 -8.5 -4.5 -19.5q0 -19 14 -33q8 -7 21.5 -14q13.5 -7 24.5 -11l52 -18q27 -9 57 -22q30 -13 59 -41q29 -29 39.5 -58.5q10.5 -29.5 10.5 -63.5q0 -30 -5.5 -54.5q-5.5 -24.5 -14 -43q-8.5 -18.5 -18.5 -31.5q-10 -13 -18 -22q-22 -23 -54.5 -40q-32.5 -17 -65.5 -25l0 -113h-100v108q-57 1 -113 24q-22 9 -46.5 23q-24.5 14 -50.5 34l72 134q16 -15 34 -29q18 -14 35 -22q19 -9 44 -16q25 -7 47 -7q42 0 65 23q18 18 18 42q0 23 -20 38q-14 10 -45 20l-59 20q-48 17 -73.5 33.5q-25.5 16.5 -36.5 28.5q-25 26 -34 54q-9 28 -9 62q0 48 14 82.5q14 34.5 36 58.5q23 25 54.5 42q31.5 17 67.5 24l0 110z" />
<glyph unicode="&#37;" horiz-adv-x="895" d="M214 347q-35 0 -71 10q-36 10 -68 43q-42 45 -42 108q0 32 10.5 62q10.5 30 30.5 51q16 18 34.5 28.5q18.5 10.5 37 16q18.5 5.5 36.5 7q18 1.5 32 1.5q54 0 88 -16q34 -16 54 -37q15 -16 28.5 -42.5q13.5 -26.5 13.5 -67.5q0 -38 -13 -65.5q-13 -27.5 -30 -45.5q-32 -33 -70.5 -43q-38.5 -10 -70.5 -10zt0 0zM597 667h87l-387 -667h-86zM216 586q-17 0 -31.5 -6.5q-14.5 -6.5 -23.5 -16.5q-20 -22 -20 -52q0 -17 7.5 -32q7.5 -15 18.5 -25q20 -18 49 -18q15 0 29 6q14 6 24 15q10 10 16 24q6 14 6 30q0 15 -6 30q-6 15 -18 26q-11 11 -24 15q-13 4 -27 4zt0 0zM680 231q-17 0 -31.5 -6.5q-14.5 -6.5 -23.5 -16.5q-20 -22 -20 -52q0 -17 7.5 -32q7.5 -15 18.5 -25q20 -18 49 -18q15 0 29 6q14 6 24 15q10 10 16 24q6 14 6 30q0 15 -6 30q-6 15 -18 26q-11 11 -24 15q-13 4 -27 4zt0 0zM678 -8q-35 0 -71 10q-36 10 -68 43q-42 45 -42 108q0 32 10.5 62q10.5 30 30.5 51q16 18 34.5 28.5q18.5 10.5 37 16q18.5 5.5 36.5 7q18 1.5 32 1.5q54 0 88 -16q34 -16 54 -37q15 -16 28.5 -42.5q13.5 -26.5 13.5 -67.5q0 -38 -13 -65.5q-13 -27.5 -30 -45.5q-32 -33 -70.5 -43t-70.5 -10z" />
<glyph unicode="&#38;" horiz-adv-x="756" d="M698 255q-40 -51 -91 -97l149 -158h-216l-58 61q-34 -25 -66 -40q-32 -15 -61 -23q-29 -8 -54 -10.5q-25 -2.5 -43 -2.5q-18 0 -38.5 2q-20.5 2 -42.5 8q-22 6 -43 17q-21 11 -40 29q-24 23 -39 56.5q-15 33.5 -15 75.5q0 49 16.5 80q16.5 31 33.5 48q20 20 50 37.5q30 17.5 59 27.5q-10 11 -20.5 25q-10.5 14 -18.5 28q-11 19 -17 38q-6 19 -6 44q0 34 14 66q14 32 37 56q19 19 40 30.5q21 11.5 42 18q21 6.5 40.5 8.5q19.5 2 34.5 2q61 0 98 -18q37 -18 57 -37q27 -26 40 -59.5q13 -33.5 13 -65.5q0 -61 -46 -107q-16 -16 -36 -29.5q-20 -13.5 -42 -22.5l84 -88q22 20 44 44q22 24 43 51zM282 279q-3 -2 -13 -7.5q-10 -5.5 -21 -15.5q-11 -10 -20 -24q-9 -14 -9 -31q0 -11 4.5 -23.5q4.5 -12.5 15.5 -21.5q14 -12 29.5 -15.5q15.5 -3.5 27.5 -3.5q17 0 39.5 5.5q22.5 5.5 51.5 23.5zM301 509q0 -13 5.5 -24q5.5 -11 12.5 -21q8 -11 17.5 -21.5q9.5 -10.5 17.5 -18.5q11 6 21.5 14q10.5 8 18.5 16q21 24 21 49q0 17 -5 28q-5 11 -13 18q-17 15 -40 15q-23 0 -38 -14q-11 -10 -14.5 -21t-3.5 -20z" />
<glyph unicode="&#39;" horiz-adv-x="225" d="M160 399h-95l-24 268l144 0z" />
<glyph unicode="&#40;" horiz-adv-x="354" d="M194 -188q-19 28 -33.5 54q-14.5 26 -26 53q-11.5 27 -20.5 56q-9 29 -18 61q-8 29 -13 55.5q-5 26.5 -9 54q-4 27.5 -5.5 58q-1.5 30.5 -1.5 66.5q0 91 12 155.5q12 64.5 25 106.5q16 52 40 103.5q24 51.5 50 93.5l113 -60q-22 -40 -42 -87.5q-20 -47.5 -32 -93.5q-6 -23 -11 -49.5q-5 -26.5 -9 -54.5q-4 -28 -6 -56q-2 -28 -2 -53q0 -24 2 -51.5q2 -27.5 5 -55q3 -27.5 7.5 -53.5q4.5 -26 9.5 -47q11 -47 30 -96q19 -49 48 -100z" />
<glyph unicode="&#41;" horiz-adv-x="354" d="M47 -128q29 51 48 100q19 49 30 96q5 21 9.5 47q4.5 26 7.5 53.5q3 27.5 5 55q2 27.5 2 51.5q0 25 -2 53q-2 28 -6 56q-4 28 -9 54.5q-5 26.5 -11 49.5q-12 46 -32 93.5q-20 47.5 -42 87.5l113 60q26 -42 50 -93.5q24 -51.5 40 -103.5q20 -64 28.5 -130q8.5 -66 8.5 -133q0 -36 -1.5 -66q-1.5 -30 -5.5 -57.5q-4 -27.5 -9.5 -54q-5.5 -26.5 -12.5 -55.5q-9 -32 -18 -61q-9 -29 -20.5 -56q-11.5 -27 -26 -53q-14.5 -26 -33.5 -54z" />
<glyph unicode="&#42;" horiz-adv-x="647" d="M278 617l-10 112h110l-10 -112l104 44l34 -103l-110 -26l74 -85l-88 -64l-59 95l-58 -95l-88 64l74 84l-110 26l34 104z" />
<glyph unicode="&#43;" horiz-adv-x="500" d="M33 400h152v153h130v-153h152v-120h-152v-153h-130v153l-152 0z" />
<glyph unicode="&#44;" horiz-adv-x="416" d="M116 167h150l-172 -316l-103 0z" />
<glyph unicode="&#45;" horiz-adv-x="353" d="M50 335h253v-133l-253 0z" />
<glyph unicode="&#46;" horiz-adv-x="303" d="M152 -19q-17 0 -36 6.5q-19 6.5 -37 24.5q-10 10 -20.5 28q-10.5 18 -10.5 45q0 27 10.5 45q10.5 18 20.5 28q18 18 37 24.5q19 6.5 36 6.5q19 0 38 -7.5q19 -7.5 36 -24.5q13 -13 21 -30q8 -17 8 -42q0 -25 -8 -42q-8 -17 -22 -31q-16 -16 -34.5 -23.5t-38.5 -7.5z" />
<glyph unicode="&#47;" horiz-adv-x="672" d="M481 729h131l-512 -917l-130 0z" />
<glyph unicode="&#48;" horiz-adv-x="600" d="M300 527q-15 0 -29 -6q-14 -6 -24 -15q-14 -12 -24.5 -31.5q-10.5 -19.5 -18 -43.5q-7.5 -24 -11.5 -50q-4 -26 -4 -49q0 -20 3.5 -45q3.5 -25 11 -49.5q7.5 -24.5 18 -45.5q10.5 -21 25.5 -34q10 -9 24 -15q14 -6 29 -6q15 0 29 6q14 6 24 15q14 12 24.5 32.5q10.5 20.5 18 44.5q7.5 24 11.5 49.5q4 25.5 4 46.5q0 22 -4 48q-4 26 -11.5 50q-7.5 24 -18.5 44.5q-11 20.5 -24 32.5q-10 9 -24 15q-14 6 -29 6zt0 0zM583 333q0 -88 -27 -157.5q-27 -69.5 -72 -114.5q-39 -38 -87 -57q-48 -19 -97 -19q-49 0 -97 19q-48 19 -87 57q-45 45 -72 114.5q-27 69.5 -27 157.5q0 89 27 158.5q27 69.5 72 114.5q39 38 87 57q48 19 97 19q49 0 97 -19q48 -19 87 -57q45 -45 72 -114.5t27 -158.5z" />
<glyph unicode="&#49;" horiz-adv-x="600" d="M234 520h-95v147h268v-667l-173 0z" />
<glyph unicode="&#50;" horiz-adv-x="600" d="M561 0h-535l169 177q45 48 79 89.5q34 41.5 58 79.5q14 21 25 46.5q11 25.5 11 57.5q0 3 -0.5 10q-0.5 7 -2 16.5q-1.5 9.5 -6 19.5q-4.5 10 -11.5 18q-8 8 -20 14q-12 6 -29 6q-21 0 -35.5 -8q-14.5 -8 -22.5 -19q-12 -16 -17.5 -40.5q-5.5 -24.5 -6.5 -41.5l-179 0q0 33 7 61q7 28 17.5 51q10.5 23 23.5 41.5q13 18.5 26 31.5q34 34 80 53q46 19 109 19q37 0 67 -6.5q30 -6.5 53 -16.5q23 -10 40 -22.5q17 -12.5 28 -23.5q10 -10 21.5 -25q11.5 -15 21 -35q9.5 -20 16 -46q6.5 -26 6.5 -58q0 -63 -27 -109.5q-27 -46.5 -72 -88.5l-112 -104l218 0z" />
<glyph unicode="&#51;" horiz-adv-x="600" d="M205 228q1 -19 8 -37q7 -18 19 -30q24 -26 68 -26q26 0 42 9q16 9 26 20q11 13 15.5 26.5q4.5 13.5 4.5 28.5q0 22 -8.5 36.5q-8.5 14.5 -17.5 22.5q-13 11 -30.5 15q-17.5 4 -33.5 4q-17 0 -29 -4l0 117q26 -4 43 2q17 6 28 15q12 11 17 23.5q5 12.5 5 23.5q0 14 -5 27q-5 13 -13 21q-18 18 -49 18q-31 0 -48 -17q-11 -11 -17 -27q-6 -16 -6 -32l-161 0q3 53 22.5 91.5q19.5 38.5 42.5 61.5q37 38 82.5 51.5q45.5 13.5 93.5 13.5q38 0 83 -11q45 -11 83 -48q25 -25 39.5 -58q14.5 -33 14.5 -71q0 -22 -4.5 -42q-4.5 -20 -15.5 -40q-9 -17 -21 -29.5q-12 -12.5 -30 -21.5q31 -11 49.5 -28.5q18.5 -17.5 29.5 -32.5q28 -41 28 -98q0 -54 -19 -89.5q-19 -35.5 -40 -56.5q-27 -27 -75.5 -49q-48.5 -22 -123.5 -22q-48 0 -97.5 14q-49.5 14 -93.5 55q-13 12 -26.5 28.5q-13.5 16.5 -25 38q-11.5 21.5 -20 48.5q-8.5 27 -11.5 59z" />
<glyph unicode="&#52;" horiz-adv-x="600" d="M494 259h81v-133h-81v-126h-160v126h-323v111l257 430h226zM334 259v272l-157 -272z" />
<glyph unicode="&#53;" horiz-adv-x="600" d="M495 520h-231l-12 -74q19 3 33 4q14 1 21 1q67 0 110 -21q43 -21 66 -45q23 -23 42 -61.5q19 -38.5 19 -96.5q0 -60 -20 -101q-20 -41 -44 -66q-23 -24 -49.5 -38.5q-26.5 -14.5 -53.5 -23q-27 -8.5 -54 -11q-27 -2.5 -51 -2.5q-76 0 -130 17q-54 17 -95 43l26 162q26 -24 49 -37q23 -13 31 -17q23 -11 49 -17q26 -6 51 -6q26 0 49 8.5q23 8.5 38 24.5q11 12 18.5 29.5q7.5 17.5 7.5 38.5q0 26 -10.5 44q-10.5 18 -21.5 28q-14 12 -31 18.5q-17 6.5 -34 10q-17 3.5 -32 4q-15 0.5 -23 0.5q-35 0 -65.5 -7q-30.5 -7 -57.5 -21l58 359l347 0z" />
<glyph unicode="&#54;" horiz-adv-x="600" d="M464 667l-190 -227q20 9 44 15q24 6 49 6q38 0 78 -15.5q40 -15.5 73 -48.5q35 -35 49 -75.5q14 -40.5 14 -83.5q0 -47 -15 -91q-15 -44 -54 -83q-25 -25 -52.5 -40.5q-27.5 -15.5 -55 -24q-27.5 -8.5 -54.5 -11.5q-27 -3 -51 -3q-43 0 -77.5 7.5q-34.5 7.5 -61.5 19q-27 11.5 -46.5 26q-19.5 14.5 -33.5 28.5q-24 25 -42.5 63.5q-18.5 38.5 -18.5 92.5q0 69 29.5 132.5q29.5 63.5 69.5 116.5l149 196zM296 122q28 0 47 10q19 10 30 21q14 14 22.5 33.5q8.5 19.5 8.5 42.5q0 16 -6.5 34.5q-6.5 18.5 -24.5 35.5q-20 20 -41 25.5q-21 5.5 -36 5.5q-20 0 -40 -7.5q-20 -7.5 -35 -21.5q-16 -14 -24.5 -33q-8.5 -19 -8.5 -36q0 -21 7.5 -41q7.5 -20 21.5 -35q20 -20 41 -27t38 -7z" />
<glyph unicode="&#55;" horiz-adv-x="600" d="M362 520h-278v147h547l-382 -667l-191 0z" />
<glyph unicode="&#56;" horiz-adv-x="600" d="M418 351q27 -8 48.5 -21.5q21.5 -13.5 37.5 -29.5q31 -30 41 -61.5q10 -31.5 10 -56.5q0 -34 -14 -67q-14 -33 -40 -59q-9 -9 -24.5 -21q-15.5 -12 -40.5 -23q-25 -11 -58.5 -19q-33.5 -8 -78.5 -8q-43 0 -75.5 7.5q-32.5 7.5 -57 18q-24.5 10.5 -40.5 22.5q-16 12 -26 22q-27 27 -41 61q-14 34 -14 66q0 33 14 66q14 33 35 54q16 16 39 29q23 13 45 20q-36 14 -60 38q-16 16 -30.5 42q-14.5 26 -14.5 64q0 38 15 70.5q15 32.5 40 55.5q31 29 77 45q46 16 101 16q54 0 98.5 -17q44.5 -17 73.5 -47q19 -19 34 -49q15 -30 15 -73q0 -36 -12 -61.5q-12 -25.5 -29 -42.5q-12 -12 -30 -23q-18 -11 -38 -18zt0 0zM302 566q-19 0 -32.5 -6.5q-13.5 -6.5 -22.5 -16.5q-20 -22 -20 -51q0 -13 6 -25.5q6 -12.5 15 -22.5q11 -12 25 -17q14 -5 28 -5q11 0 24 4q13 4 25 16q23 23 23 51q0 14 -6 28q-6 14 -17 25q-22 20 -48 20zt0 0zM300 281q-31 0 -56 -23q-24 -24 -24 -55q0 -14 5 -28.5q5 -14.5 18 -27.5q11 -11 25.5 -17.5q14.5 -6.5 31.5 -6.5q18 0 31.5 6q13.5 6 24.5 17q24 24 24 57q0 32 -24 55q-14 13 -28.5 18t-27.5 5z" />
<glyph unicode="&#57;" horiz-adv-x="600" d="M137 0l189 225q-21 -11 -42 -16q-21 -5 -47 -5q-43 0 -81 14q-38 14 -72 47q-20 20 -33 41q-13 21 -20.5 42q-7.5 21 -10.5 41q-3 20 -3 37q0 51 17.5 94.5q17.5 43.5 49.5 77.5q15 15 35 30q20 15 47 27q27 12 61 19.5q34 7.5 76 7.5q46 0 81.5 -8.5q35.5 -8.5 62 -21q26.5 -12.5 43.5 -26q17 -13.5 27 -23.5q32 -33 49 -76q17 -43 17 -89q0 -38 -10 -73.5q-10 -35.5 -25.5 -67q-15.5 -31.5 -33 -58.5q-17.5 -27 -32.5 -46l-149 -193zM305 545q-16 0 -36.5 -6q-20.5 -6 -40.5 -26q-15 -15 -24 -35q-9 -20 -9 -41q0 -21 9 -40q9 -19 23 -32q15 -14 36 -22q21 -8 42 -8q19 0 39 7q20 7 36 21q15 14 25 35q10 21 10 41q0 20 -9 40q-9 20 -23 34q-14 13 -34.5 22.5t-43.5 9.5z" />
<glyph unicode="&#58;" horiz-adv-x="303" d="M152 254q-17 0 -36 6.5q-19 6.5 -37 24.5q-10 10 -20.5 28q-10.5 18 -10.5 45q0 27 10.5 45q10.5 18 20.5 28q18 18 37 24.5q19 6.5 36 6.5q19 0 38 -7.5q19 -7.5 36 -24.5q13 -13 21 -30q8 -17 8 -42q0 -25 -8 -42q-8 -17 -22 -31q-16 -16 -34.5 -23.5q-18.5 -7.5 -38.5 -7.5zt0 0zM152 -15q-17 0 -36 6.5q-19 6.5 -37 24.5q-10 10 -20.5 28q-10.5 18 -10.5 45q0 27 10.5 45q10.5 18 20.5 28q18 18 37 24.5q19 6.5 36 6.5q19 0 38 -7.5q19 -7.5 36 -24.5q13 -13 21 -30q8 -17 8 -42q0 -25 -8 -42q-8 -17 -22 -31q-16 -16 -34.5 -23.5t-38.5 -7.5z" />
<glyph unicode="&#59;" horiz-adv-x="393" d="M116 167h150l-172 -316h-103zM185 254q-17 0 -36 6.5q-19 6.5 -37 24.5q-10 10 -20.5 28q-10.5 18 -10.5 45q0 27 10.5 45q10.5 18 20.5 28q18 18 37 24.5q19 6.5 36 6.5q19 0 38 -7.5q19 -7.5 36 -24.5q13 -13 21 -30q8 -17 8 -42q0 -25 -8 -42q-8 -17 -22 -31q-16 -16 -34.5 -23.5t-38.5 -7.5z" />
<glyph unicode="&#60;" horiz-adv-x="500" d="M467 609v-128l-297 -147l297 -148v-128l-434 222l0 109z" />
<glyph unicode="&#61;" horiz-adv-x="500" d="M33 483h434v-113h-434zM33 310h434v-113l-434 0z" />
<glyph unicode="&#62;" horiz-adv-x="500" d="M33 58v129l297 147l-297 147v128l434 -221l0 -109z" />
<glyph unicode="&#63;" horiz-adv-x="547" d="M184 231v162q8 -2 16 -3.5q8 -1.5 18 -1.5q23 0 49.5 7.5q26.5 7.5 44.5 25.5q11 11 17 26q6 15 6 29q0 12 -4 25q-4 13 -13 22q-17 19 -48 19q-28 0 -43 -17q-18 -18 -18 -50l-176 0q2 48 19.5 83.5q17.5 35.5 40.5 58.5q25 25 68 45q43 20 106 20q63 0 106.5 -19.5q43.5 -19.5 70.5 -45.5q27 -26 45 -62q18 -36 18 -81q0 -32 -12 -65.5q-12 -33.5 -36 -60.5q-20 -23 -48.5 -39.5q-28.5 -16.5 -63.5 -24.5l0 -53zM270 -15q-17 0 -36 6.5q-19 6.5 -37 24.5q-10 10 -20.5 28q-10.5 18 -10.5 45q0 27 10.5 45q10.5 18 20.5 28q18 18 36.5 24.5q18.5 6.5 35.5 6.5q20 0 39 -7.5q19 -7.5 36 -24.5q13 -13 21 -30q8 -17 8 -42q0 -25 -8 -42q-8 -17 -22 -31q-16 -16 -34.5 -23.5t-38.5 -7.5z" />
<glyph unicode="&#64;" horiz-adv-x="733" d="M472 492l89 -1l-37 -189q-2 -11 -4 -20q-2 -9 -2 -20q0 -3 0 -8.5q0 -5.5 2 -11.5q2 -6 6.5 -10.5q4.5 -4.5 13.5 -4.5q15 0 30 13q12 10 21.5 26.5q9.5 16.5 16 36q6.5 19.5 10.5 41q4 21.5 4 40.5q0 45 -17.5 85q-17.5 40 -43.5 66q-30 29 -77 46q-47 17 -95 17q-47 0 -97 -17.5q-50 -17.5 -93 -60.5q-14 -14 -28.5 -33q-14.5 -19 -25.5 -43q-11 -24 -18 -53.5q-7 -29.5 -7 -64.5q0 -58 22 -110q22 -52 61 -87q42 -38 91 -49.5q49 -11.5 96 -11.5q44 0 90 8q46 8 90 22l20 -80q-66 -20 -119 -25q-53 -5 -84 -5q-28 0 -59 3.5q-31 3.5 -63.5 13.5q-32.5 10 -64 27.5q-31.5 17.5 -61.5 44.5q-51 47 -78.5 112.5q-27.5 65.5 -27.5 137.5q0 77 29 142q29 65 74 108q52 50 120 75.5q68 25.5 129 25.5q64 0 128 -23q64 -23 111 -74q34 -36 55 -86.5q21 -50.5 21 -110.5q0 -57 -19.5 -104.5q-19.5 -47.5 -51.5 -80.5q-25 -26 -49 -35.5q-24 -9.5 -44 -9.5q-20 0 -44 12q-24 12 -34 42q-22 -31 -54.5 -47q-32.5 -16 -69.5 -16q-54 0 -91 36q-22 21 -36 52q-14 31 -14 69q0 41 15 78q15 37 40 65q27 29 58 43q31 14 62 14q24 0 51 -11q27 -11 46 -37zM380 409q-14 0 -28 -6.5q-14 -6.5 -25 -17.5q-16 -15 -24 -36.5q-8 -21.5 -8 -42.5q0 -14 4.5 -27.5q4.5 -13.5 15.5 -25.5q17 -17 43 -17q12 0 25.5 5q13.5 5 27.5 19q15 16 23.5 38q8.5 22 8.5 42q0 14 -5.5 28.5q-5.5 14.5 -15.5 24.5q-18 16 -42 16z" />
<glyph unicode="&#65;" horiz-adv-x="710" d="M477 112h-242l-45 -112h-183l256 667h189l251 -667h-185zM431 244l-75 216l-73 -216z" />
<glyph unicode="&#66;" horiz-adv-x="618" d="M70 0v667h258q36 0 75.5 -9q39.5 -9 70.5 -43q17 -19 29 -49.5q12 -30.5 12 -75.5q0 -22 -4 -41.5q-4 -19.5 -15 -40.5q-11 -20 -23 -32q-12 -12 -31 -20q26 -3 50.5 -14q24.5 -11 40.5 -26q20 -20 32.5 -51q12.5 -31 12.5 -71q0 -48 -15 -80q-15 -32 -34 -51q-27 -28 -73 -45.5q-46 -17.5 -108 -17.5zM243 404h32q14 0 33 3.5q19 3.5 33 17.5q8 8 12 20.5q4 12.5 4 23.5q0 27 -16 45q-8 8 -24 14q-16 6 -42 6h-32zM243 135h39q36 0 64.5 5q28.5 5 42.5 22q6 7 10 18q4 11 4 25q0 31 -17 48q-16 16 -45.5 19q-29.5 3 -61.5 3l-36 0z" />
<glyph unicode="&#67;" horiz-adv-x="589" d="M549 18q-26 -9 -46.5 -15.5q-20.5 -6.5 -38 -10.5q-17.5 -4 -33.5 -5.5q-16 -1.5 -32 -1.5q-88 0 -152 29.5q-64 29.5 -106 70.5q-49 49 -75 113q-26 64 -26 130q0 72 28 136q28 64 73 110q45 45 109.5 74.5q64.5 29.5 142.5 29.5q24 0 63 -6q39 -6 93 -28l0 -207q-21 26 -43 40.5q-22 14.5 -42.5 22q-20.5 7.5 -37.5 9q-17 1.5 -28 1.5q-38 0 -67 -11q-29 -11 -53 -33q-31 -29 -44.5 -65.5q-13.5 -36.5 -13.5 -71.5q0 -35 14 -70q14 -35 40 -60q22 -20 54.5 -33q32.5 -13 69.5 -13q10 0 26 1.5q16 1.5 36.5 8.5q20.5 7 43 21q22.5 14 45.5 39z" />
<glyph unicode="&#68;" horiz-adv-x="695" d="M70 0v667h227q25 0 57.5 -2.5q32.5 -2.5 68 -12q35.5 -9.5 71.5 -28q36 -18.5 68 -49.5q29 -28 47.5 -59.5q18.5 -31.5 28.5 -63q10 -31.5 13.5 -62.5q3.5 -31 3.5 -58q0 -66 -19 -124q-19 -58 -68 -107q-40 -40 -105 -70.5q-65 -30.5 -151 -30.5zM243 147h35q16 0 34.5 1.5q18.5 1.5 37.5 6q19 4.5 38 14q19 9.5 36 26.5q17 16 34 48.5q17 32.5 17 88.5q0 47 -13.5 85q-13.5 38 -38.5 61q-31 29 -68.5 35.5q-37.5 6.5 -69.5 6.5l-42 0z" />
<glyph unicode="&#69;" horiz-adv-x="489" d="M449 520h-206v-111h195v-147h-195v-115h206v-147h-379v667l379 0z" />
<glyph unicode="&#70;" horiz-adv-x="485" d="M452 520h-209v-111h190v-147h-190v-262h-173v667l382 0z" />
<glyph unicode="&#71;" horiz-adv-x="774" d="M390 378h344q0 -99 -23.5 -172q-23.5 -73 -83.5 -128q-53 -49 -112 -66.5q-59 -17.5 -123 -17.5q-90 0 -153 29q-63 29 -103 70q-19 19 -36 43.5q-17 24.5 -30.5 54.5q-13.5 30 -21.5 66q-8 36 -8 77q0 80 28 143.5q28 63.5 72 106.5q42 42 106 70q64 28 153 28q47 0 94.5 -11q47.5 -11 85.5 -34q39 -24 70 -61q31 -37 49 -76l-165 -68q-9 23 -22 39.5q-13 16.5 -26 27.5q-22 18 -45 25.5q-23 7.5 -48 7.5q-31 0 -61 -11.5q-30 -11.5 -53 -34.5q-29 -29 -43.5 -71.5q-14.5 -42.5 -14.5 -81.5q0 -46 15 -82.5q15 -36.5 38 -61.5q48 -51 122 -51q23 0 48 5.5q25 5.5 48 25.5q12 10 24 28q12 18 17 46l-142 0z" />
<glyph unicode="&#72;" horiz-adv-x="737" d="M243 418h250v249h174v-667h-174v270h-250v-270h-173v667l173 0z" />
<glyph unicode="&#73;" horiz-adv-x="313" d="M243 667v-667h-173l0 667z" />
<glyph unicode="&#74;" horiz-adv-x="468" d="M398 667v-459q0 -23 -1.5 -43.5q-1.5 -20.5 -7.5 -40q-6 -19.5 -17.5 -38.5q-11.5 -19 -30.5 -38q-33 -33 -72.5 -48q-39.5 -15 -90.5 -15q-28 0 -52.5 6q-24.5 6 -52.5 24q-38 25 -66 68l113 116q2 -14 8.5 -29.5q6.5 -15.5 15.5 -23.5q7 -5 16 -8.5q9 -3.5 17 -3.5q8 0 16.5 3q8.5 3 13.5 8q11 11 14.5 31.5q3.5 20.5 3.5 35.5l0 455z" />
<glyph unicode="&#75;" horiz-adv-x="700" d="M243 392l212 275h214l-265 -316l289 -351h-224l-226 289v-289h-173v667l173 0z" />
<glyph unicode="&#76;" horiz-adv-x="470" d="M243 667v-520h208v-147h-381l0 667z" />
<glyph unicode="&#77;" horiz-adv-x="915" d="M40 0l113 667h171l135 -356l143 356h173l100 -667h-173l-49 384l-161 -384h-69l-154 384l-57 -384z" />
<glyph unicode="&#78;" horiz-adv-x="805" d="M70 0v667h173l319 -408v408h173v-667h-173l-319 408l0 -408z" />
<glyph unicode="&#79;" horiz-adv-x="816" d="M776 333q0 -66 -25.5 -132q-25.5 -66 -79.5 -117q-51 -49 -119.5 -74q-68.5 -25 -143.5 -25q-75 0 -143.5 25q-68.5 25 -119.5 74q-54 51 -79.5 117q-25.5 66 -25.5 132q0 67 25.5 133q25.5 66 79.5 117q51 49 119.5 74q68.5 25 143.5 25q75 0 143.5 -25q68.5 -25 119.5 -74q54 -51 79.5 -117q25.5 -66 25.5 -133zt0 0zM408 514q-36 0 -72 -13q-36 -13 -63 -40q-27 -26 -40 -61q-13 -35 -13 -70q0 -45 17 -75.5q17 -30.5 36 -48.5q24 -23 57.5 -38q33.5 -15 77.5 -15q45 0 78 14.5q33 14.5 56 37.5q23 23 38.5 56.5q15.5 33.5 15.5 71.5q0 39 -15.5 72q-15.5 33 -38.5 56q-28 26 -63.5 39.5t-70.5 13.5z" />
<glyph unicode="&#80;" horiz-adv-x="599" d="M243 221v-221h-173v667h276q44 0 87.5 -11.5q43.5 -11.5 81.5 -48.5q39 -38 50.5 -79q11.5 -41 11.5 -83q0 -20 -2 -41q-2 -21 -8 -42.5q-6 -21.5 -18 -42.5q-12 -21 -31 -40q-39 -38 -83 -48q-44 -10 -83 -10zM243 361h58q14 0 35.5 3.5q21.5 3.5 37.5 17.5q16 14 19 31.5q3 17.5 3 29.5q0 14 -3 30q-3 16 -17 30q-15 16 -36 20q-21 4 -38 4l-59 0z" />
<glyph unicode="&#81;" horiz-adv-x="816" d="M802 -12l-159 -24l-56 64q-45 -24 -86.5 -33.5q-41.5 -9.5 -88.5 -9.5q-52 0 -94.5 9.5q-42.5 9.5 -77 24.5q-34.5 15 -61 35q-26.5 20 -45.5 41q-48 51 -71 115q-23 64 -23 126q0 71 27.5 135q27.5 64 75.5 110q51 49 119 75q68 26 145 26q72 0 142 -24.5q70 -24.5 123 -75.5q43 -42 73 -105.5q30 -63.5 30 -145.5q0 -35 -6 -67q-6 -32 -21 -67q-11 -26 -25.5 -48q-14.5 -22 -35.5 -43zM517 287l46 -50q16 23 23.5 48.5q7.5 25.5 7.5 49.5q0 31 -14.5 65q-14.5 34 -39.5 59q-27 27 -64 41q-37 14 -69 14q-36 0 -71 -14q-35 -14 -61 -41q-26 -26 -40 -61.5q-14 -35.5 -14 -72.5q0 -38 14.5 -69.5q14.5 -31.5 35.5 -51.5q24 -23 60 -37q36 -14 75 -14q16 0 29 2q13 2 25 5l-106 106z" />
<glyph unicode="&#82;" horiz-adv-x="627" d="M340 667q38 0 82 -10.5q44 -10.5 81 -48.5q29 -29 43 -69.5q14 -40.5 14 -80.5q0 -43 -14 -79q-14 -36 -39 -60q-20 -19 -44.5 -30q-24.5 -11 -47.5 -16l209 -273h-215l-166 256v-256h-173v667zM243 368h33q20 0 44 6q24 6 40 21q10 10 16 25q6 15 6 31q0 15 -6 30q-6 15 -17 26q-26 26 -83 26l-33 0z" />
<glyph unicode="&#83;" horiz-adv-x="571" d="M114 200q28 -26 68 -47q40 -21 85 -21q26 0 42.5 7q16.5 7 24.5 16q17 17 17 42q0 10 -4 20.5q-4 10.5 -15 19.5q-13 11 -33.5 18q-20.5 7 -52.5 17l-45 14q-21 7 -48.5 19q-27.5 12 -47.5 35q-26 28 -32 60q-6 32 -6 58q0 62 19.5 100.5q19.5 38.5 41.5 60.5q26 26 68 44.5q42 18.5 103 18.5q50 0 104 -14.5q54 -14.5 102 -39.5l-69 -135q-39 31 -68 38q-29 7 -46 7q-13 0 -28.5 -4q-15.5 -4 -28.5 -16q-8 -8 -12.5 -16.5q-4.5 -8.5 -4.5 -19.5q0 -18 9 -30q4 -5 15.5 -13q11.5 -8 42.5 -17l53 -16q32 -10 63.5 -23.5q31.5 -13.5 57.5 -42.5q26 -27 34.5 -55.5q8.5 -28.5 8.5 -63.5q0 -46 -13.5 -89q-13.5 -43 -49.5 -79q-43 -43 -93 -55.5q-50 -12.5 -104 -12.5q-32 0 -63 4q-31 4 -68 18q-8 3 -36.5 15.5q-28.5 12.5 -64.5 37.5z" />
<glyph unicode="&#84;" horiz-adv-x="471" d="M321 520v-520h-173v520h-141v147h458l0 -147z" />
<glyph unicode="&#85;" horiz-adv-x="721" d="M243 667v-395q0 -21 4.5 -50q4.5 -29 29.5 -53q15 -14 37 -23q22 -9 45 -9q23 0 44.5 8q21.5 8 35.5 21q15 13 23 28.5q8 15.5 11.5 31.5q3.5 16 4 31.5q0.5 15.5 0.5 29.5v380h173v-383q0 -26 -1.5 -53q-1.5 -27 -9 -54q-7.5 -27 -22.5 -54.5q-15 -27.5 -42 -54.5q-42 -43 -95.5 -63q-53.5 -20 -124.5 -20q-79 0 -134.5 23.5q-55.5 23.5 -86.5 56.5q-22 24 -35 51q-13 27 -19.5 55.5q-6.5 28.5 -8.5 57q-2 28.5 -2 55.5l0 383z" />
<glyph unicode="&#86;" horiz-adv-x="699" d="M189 667l160 -406l162 406h188l-284 -667h-135l-280 667z" />
<glyph unicode="&#87;" horiz-adv-x="1014" d="M181 667l116 -431l141 431h138l131 -431l126 431h181l-213 -667h-177l-121 386l-128 -386h-176l-199 667z" />
<glyph unicode="&#88;" horiz-adv-x="711" d="M261 356l-214 311h214l99 -173l103 173h213l-217 -311l252 -356h-210l-142 217l-150 -217l-209 0z" />
<glyph unicode="&#89;" horiz-adv-x="640" d="M229 320l-241 347h207l126 -182l121 182h210l-249 -347v-320l-174 0z" />
<glyph unicode="&#90;" horiz-adv-x="631" d="M304 147h280v-147h-571l316 520h-262v147l551 0z" />
<glyph unicode="&#91;" horiz-adv-x="337" d="M207 636v-730h90v-94h-217v917h217l0 -93z" />
<glyph unicode="&#92;" horiz-adv-x="672" d="M572 -188l-512 917h131l511 -917z" />
<glyph unicode="&#93;" horiz-adv-x="337" d="M40 636v93h217v-917h-217v94h90l0 730z" />
<glyph unicode="&#94;" horiz-adv-x="500" d="M140 330h-135l160 337h170l161 -337h-136l-110 233z" />
<glyph unicode="&#95;" horiz-adv-x="500" d="M0 -46h500v-132l-500 0z" />
<glyph unicode="&#96;" horiz-adv-x="500" d="M96 656l102 73l126 -154l-74 -55z" />
<glyph unicode="&#97;" horiz-adv-x="616" d="M401 447h160v-447h-160v49q-14 -19 -31 -31.5q-17 -12.5 -35.5 -19.5q-18.5 -7 -37.5 -10q-19 -3 -35 -3q-36 0 -78 14q-42 14 -83 57q-32 35 -48 74q-16 39 -16 90q0 63 21 107.5q21 44.5 48 71.5q29 29 71 46q42 17 90 17q27 0 48.5 -6q21.5 -6 38 -15q16.5 -9 28.5 -19q12 -10 19 -18zM303 326q-15 0 -34 -6q-19 -6 -36 -23q-17 -16 -24.5 -36q-7.5 -20 -7.5 -37q0 -20 8 -39.5q8 -19.5 23 -33.5q13 -12 32.5 -21q19.5 -9 39.5 -9q41 0 72 31q11 11 20.5 28q9.5 17 9.5 44q0 16 -6 35.5q-6 19.5 -25 37.5q-11 11 -28.5 20t-43.5 9z" />
<glyph unicode="&#98;" horiz-adv-x="616" d="M215 729v-325q22 23 54.5 40.5q32.5 17.5 78.5 17.5q42 0 83.5 -14q41.5 -14 74.5 -46q31 -29 52 -74.5q21 -45.5 21 -102.5q0 -54 -19 -99.5q-19 -45.5 -53 -78.5q-32 -31 -70.5 -46.5q-38.5 -15.5 -86.5 -15.5q-12 0 -28 2q-16 2 -34 8.5q-18 6.5 -37 19q-19 12.5 -36 34.5l0 -49h-160v729zM313 121q17 0 35.5 6.5q18.5 6.5 35.5 23.5q16 16 23.5 34.5q7.5 18.5 7.5 35.5q0 23 -8.5 42.5q-8.5 19.5 -22.5 33.5q-11 11 -28 20q-17 9 -43 9q-45 0 -73 -30q-12 -13 -21 -33q-9 -20 -9 -39q0 -20 9 -41q9 -21 25 -35q13 -11 31 -19t38 -8z" />
<glyph unicode="&#99;" horiz-adv-x="429" d="M393 10q-32 -16 -59 -20.5q-27 -4.5 -52 -4.5q-33 0 -60 6.5q-27 6.5 -48.5 16q-21.5 9.5 -38.5 21.5q-17 12 -29 24q-32 31 -50.5 74q-18.5 43 -18.5 93q0 50 19 95q19 45 53 78q32 30 77.5 49q45.5 19 102.5 19q21 0 47.5 -5q26.5 -5 56.5 -20l0 -134q-16 11 -36.5 20q-20.5 9 -46.5 9q-29 0 -47.5 -9.5q-18.5 -9.5 -30.5 -21.5q-17 -17 -24 -37q-7 -20 -7 -40q0 -19 7 -39q7 -20 21 -36q11 -12 31 -23q20 -11 51 -11q17 0 38.5 5.5q21.5 5.5 43.5 24.5z" />
<glyph unicode="&#100;" horiz-adv-x="616" d="M561 0h-160v49q-17 -22 -36 -34.5q-19 -12.5 -37 -19q-18 -6.5 -34 -8.5q-16 -2 -28 -2q-48 0 -86.5 15.5q-38.5 15.5 -70.5 46.5q-34 33 -53 78.5q-19 45.5 -19 99.5q0 57 21 102.5q21 45.5 52 74.5q33 32 74.5 46q41.5 14 83.5 14q46 0 78.5 -17.5q32.5 -17.5 54.5 -40.5l0 325h160zM303 121q20 0 38 8q18 8 31 19q16 14 25 35q9 21 9 41q0 19 -9 39q-9 20 -21 33q-28 30 -73 30q-26 0 -43 -9q-17 -9 -28 -20q-14 -14 -22.5 -33.5q-8.5 -19.5 -8.5 -42.5q0 -17 7.5 -35.5q7.5 -18.5 23.5 -34.5q17 -17 35.5 -23.5t35.5 -6.5z" />
<glyph unicode="&#101;" horiz-adv-x="566" d="M529 194h-333q0 -18 7 -39.5q7 -21.5 21 -35.5q8 -8 23.5 -15q15.5 -7 42.5 -7q3 0 20 2q17 2 32 10q8 5 15.5 12q7.5 7 12.5 18l153 0q-5 -19 -17 -43.5q-12 -24.5 -37 -48.5q-25 -24 -67 -43q-42 -19 -115 -19q-44 0 -94 13.5q-50 13.5 -91 54.5q-11 11 -22.5 26.5q-11.5 15.5 -21.5 36.5q-10 21 -16 47.5q-6 26.5 -6 58.5q0 57 19 100.5q19 43.5 48 72.5q28 27 72.5 46q44.5 19 110.5 19q39 0 85.5 -12q46.5 -12 86.5 -49q24 -23 38 -48q14 -25 21.5 -50q7.5 -25 9.5 -48q2 -23 2 -42zM382 286q-3 13 -10 26q-7 13 -16 22q-16 16 -35 20q-19 4 -31 4q-41 0 -65 -24q-8 -9 -15 -21q-7 -12 -9 -27z" />
<glyph unicode="&#102;" horiz-adv-x="345" d="M227 316v-316h-160v316h-56v131h56v75q0 36 7 73.5q7 37.5 34 73.5q31 41 73 56q42 15 82 15q23 0 41.5 -4q18.5 -4 35.5 -11l0 -138q-17 10 -30 12.5q-13 2.5 -20 2.5q-18 0 -29 -5.5q-11 -5.5 -16 -11.5q-13 -14 -15.5 -36q-2.5 -22 -2.5 -39v-63h112l0 -131z" />
<glyph unicode="&#103;" horiz-adv-x="613" d="M558 447v-419q0 -25 -2 -49q-2 -24 -8 -47q-6 -23 -18 -45.5q-12 -22.5 -33 -43.5q-21 -22 -45.5 -36q-24.5 -14 -50 -22q-25.5 -8 -51.5 -11q-26 -3 -50 -3q-63 0 -114.5 17.5q-51.5 17.5 -94.5 61.5q-20 20 -32 42q-12 22 -17 51l178 0q2 -7 6.5 -15q4.5 -8 13 -15q8.5 -7 22 -11.5q13.5 -4.5 33.5 -4.5q19 0 37 5q18 5 34 20q20 19 26 41q6 22 6 42v45q-19 -20 -37 -31.5q-18 -11.5 -35 -17.5q-17 -6 -33 -8q-16 -2 -29 -2q-62 0 -102 20q-40 20 -63 43q-30 31 -46 74q-16 43 -16 89q0 53 18.5 98.5q18.5 45.5 47.5 76.5q32 34 74.5 51q42.5 17 87.5 17q10 0 25.5 -2q15.5 -2 33.5 -8q18 -6 37 -17.5q19 -11.5 37 -31.5l0 46zM303 327q-41 0 -71 -30q-17 -18 -24 -37q-7 -19 -7 -35q0 -20 8 -39q8 -19 23 -34q16 -16 35 -22.5q19 -6.5 37 -6.5q19 0 38.5 8q19.5 8 33.5 22q15 15 22.5 35q7.5 20 7.5 37q0 17 -9 38q-9 21 -23 35q-14 14 -32.5 21.5t-38.5 7.5z" />
<glyph unicode="&#104;" horiz-adv-x="585" d="M55 729h160v-338q9 11 22.5 23.5q13.5 12.5 27.5 20.5q23 14 47 18q24 4 45 4q48 0 80 -14q32 -14 52 -34q30 -30 36 -61.5q6 -31.5 6 -63.5v-284h-160v226q0 25 -3 48.5q-3 23.5 -17 38.5q-11 13 -25 16q-14 3 -26 3q-13 0 -28.5 -3.5q-15.5 -3.5 -29.5 -15.5q-11 -10 -19 -28q-8 -18 -8 -45v-240l-160 0z" />
<glyph unicode="&#105;" horiz-adv-x="269" d="M215 447v-447h-160v447zM45 633q0 38 26 64q26 26 64 26q38 0 64 -26q26 -26 26 -64q0 -38 -26 -64q-26 -26 -64 -26q-38 0 -64 26t-26 64z" />
<glyph unicode="&#106;" horiz-adv-x="269" d="M215 447v-676h-160v676zM45 633q0 38 26 64q26 26 64 26q38 0 64 -26q26 -26 26 -64q0 -38 -26 -64q-26 -26 -64 -26q-38 0 -64 26t-26 64z" />
<glyph unicode="&#107;" horiz-adv-x="601" d="M215 729v-443l151 161h217l-211 -206l228 -241h-222l-163 183v-183h-160l0 729z" />
<glyph unicode="&#108;" horiz-adv-x="269" d="M215 729v-729h-160l0 729z" />
<glyph unicode="&#109;" horiz-adv-x="873" d="M55 447h160v-54q29 35 65 48.5q36 13.5 69 13.5q49 0 86 -20q25 -13 39.5 -30q14.5 -17 22.5 -34q14 24 30 39q16 15 31 23q24 14 47 18q23 4 46 4q25 0 60.5 -7q35.5 -7 63.5 -34q15 -15 23.5 -31.5q8.5 -16.5 12.5 -33q4 -16.5 5 -31.5q1 -15 1 -27v-291h-160v221q0 35 -4.5 59q-4.5 24 -18.5 37q-7 6 -16.5 10.5q-9.5 4.5 -25.5 4.5q-28 0 -47 -18q-20 -20 -24.5 -44q-4.5 -24 -4.5 -41v-229h-160v221q0 32 -3.5 57q-3.5 25 -17.5 39q-11 11 -23.5 14.5q-12.5 3.5 -24.5 3.5q-13 0 -23.5 -3q-10.5 -3 -20.5 -13q-11 -10 -16.5 -22.5q-5.5 -12.5 -8 -26q-2.5 -13.5 -3 -26.5q-0.5 -13 -0.5 -23v-221l-160 0z" />
<glyph unicode="&#110;" horiz-adv-x="585" d="M55 447h160v-56q16 22 35 35q19 13 38 20q19 7 36.5 9q17.5 2 32.5 2q35 0 69.5 -10q34.5 -10 62.5 -38q28 -29 35 -58.5q7 -29.5 7 -66.5v-284h-160v226q0 20 -2 45q-2 25 -18 42q-11 12 -25 15.5q-14 3.5 -26 3.5q-19 0 -34 -6q-15 -6 -25 -15q-12 -11 -19 -31q-7 -20 -7 -40v-240l-160 0z" />
<glyph unicode="&#111;" horiz-adv-x="611" d="M306 326q-20 0 -39 -8q-19 -8 -33 -21q-15 -14 -23 -33.5q-8 -19.5 -8 -39.5q0 -20 8.5 -38.5q8.5 -18.5 22.5 -32.5q30 -30 72 -30q41 0 71 30q15 14 23 32.5q8 18.5 8 38.5q0 18 -8 38q-8 20 -23 35q-14 13 -33 21q-19 8 -38 8zt0 0zM574 224q0 -45 -16 -87q-16 -42 -53 -78q-45 -44 -95.5 -59q-50.5 -15 -104.5 -15q-49 0 -100.5 14q-51.5 14 -98.5 60q-37 36 -53 78q-16 42 -16 87q0 60 22 100q22 40 47 64q28 27 77 50.5q49 23.5 122 23.5q37 0 67.5 -6.5q30.5 -6.5 55.5 -17q25 -10.5 44 -24q19 -13.5 33 -26.5q25 -24 47 -64t22 -100z" />
<glyph unicode="&#112;" horiz-adv-x="616" d="M215 -229h-160v676h160v-49q21 26 54 45q33 19 83 19q52 0 92 -19q40 -19 67 -46q28 -28 48 -71.5q20 -43.5 20 -101.5q0 -57 -20 -101q-20 -44 -52 -76q-38 -37 -78.5 -49.5q-40.5 -12.5 -74.5 -12.5q-11 0 -27 1.5q-16 1.5 -34.5 7.5q-18.5 6 -38.5 17.5q-20 11.5 -39 31.5zM313 326q-42 0 -72 -30q-15 -15 -23 -35q-8 -20 -8 -39q0 -20 9 -39q9 -19 22 -32q30 -30 72 -30q43 0 71 30q13 13 22 32q9 19 9 39q0 19 -8 39q-8 20 -23 35q-28 30 -71 30z" />
<glyph unicode="&#113;" horiz-adv-x="616" d="M401 43q-19 -20 -39 -31.5q-20 -11.5 -38.5 -17.5q-18.5 -6 -34.5 -7.5q-16 -1.5 -27 -1.5q-34 0 -74.5 12.5q-40.5 12.5 -78.5 49.5q-9 9 -21 24q-12 15 -23.5 37q-11.5 22 -19.5 51q-8 29 -8 65q0 58 20 101.5q20 43.5 48 71.5q32 32 74 48.5q42 16.5 85 16.5q42 0 77 -16q35 -16 60 -48l0 49h160v-676h-160zM303 326q-43 0 -71 -30q-15 -15 -23 -35q-8 -20 -8 -39q0 -20 9 -39q9 -19 22 -32q28 -30 71 -30q42 0 72 30q13 13 22 32q9 19 9 39q0 19 -8 39q-8 20 -23 35q-30 30 -72 30z" />
<glyph unicode="&#114;" horiz-adv-x="409" d="M55 447h160v-73q12 23 28.5 38q16.5 15 34.5 24q18 10 39 14q21 4 44 4q3 0 9.5 -0.5q6.5 -0.5 22.5 -1.5l0 -151q-6 3 -23 9.5q-17 6.5 -46 6.5q-16 0 -36 -4q-20 -4 -37 -20q-13 -12 -20 -26q-7 -14 -10.5 -28q-3.5 -14 -4.5 -26.5q-1 -12.5 -1 -21.5v-191l-160 0z" />
<glyph unicode="&#115;" horiz-adv-x="444" d="M84 148q30 -22 64 -33q15 -5 32 -8q17 -3 30 -3q9 0 21 2.5q12 2.5 20 9.5q5 5 6.5 10q1.5 5 1.5 11q0 5 -1.5 10q-1.5 5 -6.5 10q-8 7 -19 10q-11 3 -23 6l-42 10q-17 4 -38.5 11.5q-21.5 7.5 -39.5 27.5q-13 14 -21 32.5q-8 18.5 -8 44.5q0 32 11.5 60.5q11.5 28.5 30.5 48.5q26 26 68 40q42 14 92 14q50 0 86.5 -10.5q36.5 -10.5 56.5 -18.5l-54 -102q-17 8 -39.5 15q-22.5 7 -44.5 7q-22 0 -37 -9q-14 -8 -14 -22q0 -11 5.5 -16.5q5.5 -5.5 13.5 -8.5q11 -5 22.5 -6.5q11.5 -1.5 30.5 -6.5l29 -8q16 -5 36 -15q20 -10 30 -20q17 -16 25.5 -40q8.5 -24 8.5 -49q0 -41 -14 -68q-14 -27 -31 -43q-20 -20 -43 -31q-23 -11 -45.5 -16.5q-22.5 -5.5 -42.5 -7q-20 -1.5 -34 -1.5q-30 0 -76 8.5q-46 8.5 -104 43.5z" />
<glyph unicode="&#116;" horiz-adv-x="328" d="M232 316v-316h-160v316h-51v131h51v147h160v-147h91l0 -131z" />
<glyph unicode="&#117;" horiz-adv-x="590" d="M215 447v-250q0 -14 4 -32.5q4 -18.5 20 -32.5q12 -11 27 -14q15 -3 29 -3q15 0 29 3q14 3 28 16q15 15 19 31.5q4 16.5 4 31.5v250h160v-279q0 -29 -6.5 -59q-6.5 -30 -36.5 -61q-21 -21 -45 -33.5q-24 -12.5 -49.5 -19q-25.5 -6.5 -50.5 -8.5q-25 -2 -48 -2q-25 0 -52.5 2q-27.5 2 -54 8.5q-26.5 6.5 -51 19.5q-24.5 13 -44.5 34q-26 27 -34 57q-8 30 -8 62l0 279z" />
<glyph unicode="&#118;" horiz-adv-x="573" d="M179 447l107 -229l109 229h178l-233 -447h-109l-231 447z" />
<glyph unicode="&#119;" horiz-adv-x="899" d="M179 447l106 -236l113 236h98l113 -243l112 243h178l-234 -447h-108l-112 246l-107 -246h-108l-230 447z" />
<glyph unicode="&#120;" horiz-adv-x="652" d="M223 243l-181 204h208l77 -92l79 92h207l-185 -204l224 -243h-212l-114 133l-114 -133l-212 0z" />
<glyph unicode="&#121;" horiz-adv-x="604" d="M216 61l-216 386h186l119 -229l116 229h183l-359 -676l-179 0z" />
<glyph unicode="&#122;" horiz-adv-x="517" d="M288 131h187v-131h-455l211 316h-180v131l446 0z" />
<glyph unicode="&#123;" horiz-adv-x="500" d="M304 398q0 -18 -1.5 -38q-1.5 -20 -10.5 -38q-6 -11 -13.5 -20q-7.5 -9 -14.5 -15q-7 -6 -12.5 -10q-5.5 -4 -7.5 -5q2 -1 7.5 -5q5.5 -4 12.5 -10q7 -6 14.5 -15q7.5 -9 13.5 -20q9 -18 10.5 -38q1.5 -20 1.5 -38v-160q0 -14 2 -25q2 -11 10 -18q8 -7 23.5 -10.5q15.5 -3.5 43.5 -3.5h20v-114h-19q-18 0 -36 -1.5q-18 -1.5 -36 -1.5q-51 0 -79 15.5q-28 15.5 -41 37.5q-13 22 -15.5 47q-2.5 25 -2.5 45v197q0 8 -1.5 18.5q-1.5 10.5 -6.5 20.5q-5 10 -16.5 18q-11.5 8 -30.5 11l0 110q19 3 30.5 11q11.5 8 16.5 18q5 10 6.5 20.5q1.5 10.5 1.5 18.5v184q0 19 2.5 44.5q2.5 25.5 15.5 47.5q13 22 41 37.5q28 15.5 79 15.5q18 0 36 -1.5q18 -1.5 36 -1.5h19v-114h-20q-28 0 -43.5 -3.5q-15.5 -3.5 -23.5 -10.5q-8 -7 -10 -18q-2 -11 -2 -25z" />
<glyph unicode="&#124;" horiz-adv-x="500" d="M185 750h130v-1000l-130 0z" />
<glyph unicode="&#125;" horiz-adv-x="500" d="M218 555q0 14 -2 25q-2 11 -10 18q-8 7 -23.5 10.5q-15.5 3.5 -43.5 3.5h-20v114h19q18 0 36 1.5q18 1.5 36 1.5q51 0 78.5 -15.5q27.5 -15.5 41 -37.5q13.5 -22 16 -47.5q2.5 -25.5 2.5 -44.5v-184q0 -8 1 -18.5q1 -10.5 6.5 -20.5q5.5 -10 16.5 -18q11 -8 31 -11l0 -110q-20 -3 -31 -11q-11 -8 -16.5 -18q-5.5 -10 -6.5 -20.5q-1 -10.5 -1 -18.5v-197q0 -20 -2.5 -45q-2.5 -25 -16 -47q-13.5 -22 -41 -37.5q-27.5 -15.5 -78.5 -15.5q-18 0 -36 1.5q-18 1.5 -36 1.5h-19v114h20q28 0 43.5 3.5q15.5 3.5 23.5 10.5q8 7 10 18q2 11 2 25v160q0 18 1.5 38q1.5 20 10.5 38q6 11 13.5 20q7.5 9 14.5 15q7 6 12.5 10q5.5 4 7.5 5q-2 1 -7.5 5q-5.5 4 -12.5 10q-7 6 -14.5 15q-7.5 9 -13.5 20q-9 18 -10.5 38q-1.5 20 -1.5 38z" />
<glyph unicode="&#126;" horiz-adv-x="500" d="M222 237q-23 8 -41 13.5q-18 5.5 -32 5.5q-25 0 -43 -17q-8 -8 -16 -20q-8 -12 -13 -24l-71 47l8 17q10 20 22 44.5q12 24.5 31 42.5q22 22 45.5 28.5q23.5 6.5 42.5 6.5q5 0 27.5 -3q22.5 -3 64.5 -18l36 -13q16 -6 32 -10.5q16 -4.5 32 -4.5q28 0 46 15q7 6 14.5 16.5q7.5 10.5 12.5 19.5l74 -43l-5 -11q-14 -32 -28 -51.5q-14 -19.5 -25 -30.5q-20 -21 -43 -31q-23 -10 -52 -10q-26 0 -46.5 7q-20.5 7 -37.5 12z" />
<glyph unicode="&#160;" horiz-adv-x="233" />
<glyph unicode="&#161;" horiz-adv-x="341" d="M88 210h166v-440h-166zM171 248q-17 0 -36 6.5q-19 6.5 -37 24.5q-10 10 -20.5 28q-10.5 18 -10.5 45q0 27 10.5 45q10.5 18 20.5 28q18 18 37 24.5q19 6.5 36 6.5q19 0 38 -7.5q19 -7.5 36 -24.5q13 -13 21 -30q8 -17 8 -42q0 -25 -8 -42q-8 -17 -22 -31q-16 -16 -34.5 -23.5t-38.5 -7.5z" />
<glyph unicode="&#162;" horiz-adv-x="600" d="M426 660v-91q27 -2 52 -15l0 -144q-10 10 -29 22q-19 12 -51 12q-26 0 -45 -9.5q-19 -9.5 -30 -20.5q-17 -17 -25 -37.5q-8 -20.5 -8 -42.5q0 -23 9 -44q9 -21 24 -35q16 -14 36.5 -21q20.5 -7 38.5 -7q14 0 36 6q22 6 44 28l0 -144q-27 -13 -52 -14l0 -93h-94v87q-48 7 -83.5 26.5q-35.5 19.5 -59.5 43.5q-31 32 -49 75q-18 43 -18 93q0 52 19.5 97q19.5 45 51.5 76q24 24 59.5 42q35.5 18 79.5 25l0 85z" />
<glyph unicode="&#163;" horiz-adv-x="600" d="M31 252v96h72q-11 26 -17.5 54.5q-6.5 28.5 -6.5 51.5q0 41 15.5 82.5q15.5 41.5 50.5 75.5q22 22 47 35q25 13 50.5 20q25.5 7 50.5 9.5q25 2.5 48 2.5q18 0 41 -2q23 -2 47 -8q24 -6 47.5 -18.5q23.5 -12.5 44.5 -33.5q19 -19 31 -41q12 -22 18.5 -43.5q6.5 -21.5 8.5 -42.5q2 -21 2 -37q0 -8 0 -14q0 -6 -1 -11l-174 0q1 6 1 12q0 6 0 12q0 20 -5 38q-5 18 -19 32q-10 9 -24 15q-14 6 -31 6q-23 0 -37 -8.5q-14 -8.5 -22 -16.5q-12 -14 -18 -32q-6 -18 -6 -37q0 -20 7 -48.5q7 -28.5 18 -52.5l153 0v-96h-125q1 -5 2.5 -20.5q1.5 -15.5 1.5 -29.5q0 -7 -1.5 -21.5q-1.5 -14.5 -6.5 -33.5l47 -14q45 -14 64.5 -17q19.5 -3 29.5 -3q22 0 33 12.5q11 12.5 11 31.5l108 0q-1 -39 -15.5 -75.5q-14.5 -36.5 -40.5 -59.5q-22 -20 -48 -28q-26 -8 -54 -8q-32 0 -57.5 6q-25.5 6 -48.5 14l-38 12q-22 7 -46 11q-24 4 -43 4q-33 0 -45 -12q-12 -12 -16 -21l-115 0q6 32 20.5 62q14.5 30 33.5 50q14 15 36.5 27.5q22.5 12.5 51.5 17.5q6 18 6 42q0 16 -3 28q-3 12 -9 25z" />
<glyph unicode="&#164;" horiz-adv-x="667" d="M20 137l103 103q-18 25 -31 58.5q-13 33.5 -13 79.5q0 25 7.5 59q7.5 34 37.5 78l-105 104l71 71l104 -104q45 30 81 37q36 7 59 7q22 0 57 -7q35 -7 80 -36l103 102l70 -70l-102 -102q21 -29 33.5 -64q12.5 -35 12.5 -76q0 -23 -7.5 -58.5q-7.5 -35.5 -36.5 -77.5l103 -103l-69 -71l-103 103q-44 -31 -81.5 -38q-37.5 -7 -60.5 -7q-28 0 -64.5 8.5q-36.5 8.5 -75.5 35.5l-103 -102zM469 377q0 26 -9.5 51.5q-9.5 25.5 -29.5 45.5q-20 21 -45.5 30.5q-25.5 9.5 -50.5 9.5q-26 0 -51 -9.5q-25 -9.5 -45 -29.5q-17 -17 -28.5 -42.5q-11.5 -25.5 -11.5 -55.5q0 -26 9.5 -50.5q9.5 -24.5 30.5 -45.5q21 -21 45.5 -30.5q24.5 -9.5 50.5 -9.5q26 0 50.5 9.5q24.5 9.5 44.5 29.5q17 17 28.5 42.5t11.5 54.5z" />
<glyph unicode="&#165;" horiz-adv-x="600" d="M45 329v105h100l-141 233h197l100 -192l96 192h200l-147 -233h105v-105h-171l-6 -9v-53h177v-104h-177v-163h-164v163h-169v104h169v53l-6 9z" />
<glyph unicode="&#166;" horiz-adv-x="500" d="M188 750h130v-411h-130zM188 161h130v-411l-130 0z" />
<glyph unicode="&#167;" horiz-adv-x="600" d="M362 542q0 16 -5.5 33q-5.5 17 -16.5 28q-9 8 -18.5 10.5q-9.5 2.5 -19.5 2.5q-25 0 -40 -15q-7 -7 -11.5 -16.5q-4.5 -9.5 -4.5 -21.5q0 -17 7.5 -28.5q7.5 -11.5 18.5 -19.5q7 -5 17.5 -11q10.5 -6 21.5 -11.5q11 -5.5 20.5 -9.5q9.5 -4 14.5 -6l40 -17q17 -8 43.5 -22q26.5 -14 47.5 -37q23 -24 33.5 -53q10.5 -29 10.5 -58q0 -23 -7 -51q-7 -28 -16 -45q-12 -23 -33 -41.5q-21 -18.5 -46 -29.5q16 -9 31 -22.5q15 -13.5 25 -30.5q11 -19 15.5 -39.5q4.5 -20.5 4.5 -41.5q0 -70 -45 -118q-35 -38 -76 -48.5q-41 -10.5 -76 -10.5q-35 0 -73 10q-38 10 -71 42q-8 8 -18 21q-10 13 -18 30.5q-8 17.5 -13.5 40.5q-5.5 23 -5.5 52l140 0v-7q0 -23 7 -37q7 -14 15 -22q15 -14 40 -14q16 0 27 4.5q11 4.5 18 11.5q18 18 18 43q0 13 -4.5 28q-4.5 15 -19.5 29q-12 11 -32 18.5q-20 7.5 -60 21.5q-32 11 -59.5 23q-27.5 12 -53.5 38q-26 26 -37.5 57q-11.5 31 -11.5 70q0 26 5.5 51.5q5.5 25.5 25.5 51.5q11 15 28 30q17 15 38 26q-15 10 -29 22.5q-14 12.5 -22 25.5q-13 19 -17 38.5q-4 19.5 -4 40.5q0 45 13 74.5q13 29.5 31 47.5q21 21 57 35q36 14 85 14q35 0 75 -9.5q40 -9.5 69 -32.5q22 -17 34 -38.5q12 -21.5 18 -41.5q6 -20 7.5 -37.5q1.5 -17.5 1.5 -27.5zM375 275q0 18 -6 30q-6 12 -12 19q-9 11 -23.5 17.5q-14.5 6.5 -31.5 6.5q-10 0 -23.5 -4q-13.5 -4 -26.5 -17q-11 -11 -16.5 -25q-5.5 -14 -5.5 -27q0 -11 6 -25.5q6 -14.5 15 -24.5q8 -9 22.5 -15.5q14.5 -6.5 28.5 -6.5q13 0 27.5 5.5q14.5 5.5 27.5 19.5q18 21 18 47z" />
<glyph unicode="&#168;" horiz-adv-x="500" d="M363 523q-36 0 -61 27q-25 28 -25 60q0 23 9 38q9 15 17 23q8 8 22.5 17q14.5 9 37.5 9q17 0 33 -7q16 -7 27 -18q27 -27 27 -62q0 -33 -26 -61q-14 -14 -29.5 -20q-15.5 -6 -31.5 -6zt0 0zM136 523q-36 0 -61 27q-25 28 -25 60q0 23 9 38q9 15 17 23q8 8 22.5 17q14.5 9 37.5 9q17 0 33 -7q16 -7 27 -18q27 -27 27 -62q0 -33 -26 -61q-14 -14 -29.5 -20t-31.5 -6z" />
<glyph unicode="&#169;" horiz-adv-x="760" d="M501 377q-17 26 -43 40q-26 14 -55 14q-40 0 -68 -25q-14 -13 -22.5 -32q-8.5 -19 -8.5 -43q0 -23 7.5 -40.5q7.5 -17.5 18.5 -28.5q11 -11 29 -19.5q18 -8.5 44 -8.5q19 0 44 8.5q25 8.5 54 40.5l0 -139q-15 -8 -35.5 -14.5q-20.5 -6.5 -58.5 -6.5q-64 0 -106 20.5q-42 20.5 -66 45.5q-30 31 -43.5 68q-13.5 37 -13.5 74q0 43 16.5 80.5q16.5 37.5 40.5 63.5q23 24 62.5 45.5q39.5 21.5 100.5 21.5q21 0 44.5 -4q23.5 -4 58.5 -18zM727 334q0 -65 -26 -131q-26 -66 -78 -118q-44 -44 -106.5 -72q-62.5 -28 -136.5 -28q-74 0 -136.5 28q-62.5 28 -106.5 72q-52 52 -78 118q-26 66 -26 131q0 64 26 130q26 66 78 118q44 44 106.5 72q62.5 28 136.5 28q74 0 136.5 -28q62.5 -28 106.5 -72q52 -52 78 -118q26 -66 26 -130zt0 0zM380 619q-51 0 -99.5 -19q-48.5 -19 -86.5 -55q-39 -37 -65 -91.5q-26 -54.5 -26 -120.5q0 -66 26 -120.5q26 -54.5 65 -91.5q38 -36 86.5 -55q48.5 -19 99.5 -19q51 0 99.5 19q48.5 19 86.5 55q39 37 65 91.5q26 54.5 26 120.5q0 66 -26 120.5q-26 54.5 -65 91.5q-38 36 -86.5 55t-99.5 19z" />
<glyph unicode="&#170;" horiz-adv-x="360" d="M237 658h94v-265h-94v30q-19 -26 -41 -32q-22 -6 -36 -6q-33 0 -57 10.5q-24 10.5 -40 26.5q-20 19 -31 46q-11 27 -11 58q0 31 12.5 59q12.5 28 29.5 45q17 17 41 27q24 10 53 10q14 0 37 -6q23 -6 43 -29zM28 343h303v-76h-303zM179 586q-23 0 -40 -15q-8 -8 -14 -19.5q-6 -11.5 -6 -25.5q0 -10 4.5 -22q4.5 -12 15.5 -23q16 -16 40 -16q24 0 40 16q12 11 16 23q4 12 4 22q0 10 -4 22q-4 12 -17 23q-10 8 -20 11.5t-19 3.5z" />
<glyph unicode="&#171;" horiz-adv-x="531" d="M377 228l114 -154l-91 -64l-152 218l152 217l88 -61zM157 228l114 -154l-91 -64l-152 218l152 217l88 -61z" />
<glyph unicode="&#172;" horiz-adv-x="500" d="M337 0v150h-304v117h434l0 -267z" />
<glyph unicode="&#173;" horiz-adv-x="353" d="M50 335h253v-133l-253 0z" />
<glyph unicode="&#174;" horiz-adv-x="771" d="M33 334q0 72 28 135.5q28 63.5 76 111q48 47.5 112 74.5q64 27 137 27q73 0 137 -27q64 -27 112 -74.5q48 -47.5 75.5 -111q27.5 -63.5 27.5 -135.5q-1 -72 -29 -135.5q-28 -63.5 -75.5 -111q-47.5 -47.5 -111.5 -75q-64 -27.5 -136 -27.5q-73 0 -137 27.5q-64 27.5 -112 75q-48 47.5 -76 111q-28 63.5 -28 135.5zt0 0zM668 334q0 60 -21.5 112q-21.5 52 -59.5 90.5q-38 38.5 -89.5 60.5q-51.5 22 -111.5 22q-59 0 -110.5 -22q-51.5 -22 -90 -60.5q-38.5 -38.5 -60.5 -90.5q-22 -52 -22 -112q0 -60 22 -112q22 -52 60.5 -91q38.5 -39 90 -61.5q51.5 -22.5 110.5 -22.5q58 0 109.5 22.5q51.5 22.5 90 61.5q38.5 39 60.5 91q22 52 22 112zt0 0zM448 302l119 -152h-149l-73 112v-112h-117v379h158q61 0 97.5 -33q36.5 -33 36.5 -89q0 -36 -18.5 -64.5q-18.5 -28.5 -49.5 -38.5zM345 364h7q53 0 53 39q0 38 -53 38l-7 0z" />
<glyph unicode="&#175;" horiz-adv-x="500" d="M52 637h396v-98l-396 0z" />
<glyph unicode="&#176;" horiz-adv-x="500" d="M252 363q-39 0 -66.5 14q-27.5 14 -44.5 31q-16 16 -30.5 42.5q-14.5 26.5 -14.5 65.5q0 23 8.5 51q8.5 28 36.5 55q24 23 52 34q28 11 56 11q32 0 61 -12q29 -12 49 -32q20 -19 32.5 -46.5q12.5 -27.5 12.5 -60.5q0 -23 -8.5 -51.5q-8.5 -28.5 -36.5 -56.5q-45 -45 -107 -45zt0 0zM178 515q0 -29 20 -49.5q20 -20.5 52 -20.5q32 0 52 20.5q20 20.5 20 49.5q0 29 -20 49.5q-20 20.5 -52 20.5q-32 0 -52 -20.5t-20 -49.5z" />
<glyph unicode="&#177;" horiz-adv-x="500" d="M33 477h152v153h130v-153h152v-120h-152v-154h-130v154h-152zM33 170h434v-120l-434 0z" />
<glyph unicode="&#178;" horiz-adv-x="374" d="M341 274h-308l97 107q22 24 39.5 44q17.5 20 31.5 41q10 14 19.5 34.5q9.5 20.5 9.5 40.5q0 11 -3 21.5q-3 10.5 -10 18.5q-6 7 -13 9q-7 2 -15 2q-7 0 -13.5 -2q-6.5 -2 -13.5 -9q-10 -10 -13.5 -24q-3.5 -14 -3.5 -24l-106 0q2 31 14 60q12 29 32 49q23 23 51.5 31.5q28.5 8.5 55.5 8.5q27 0 55.5 -7.5q28.5 -7.5 52.5 -32.5q23 -23 29.5 -50q6.5 -27 6.5 -49q0 -44 -18.5 -77q-18.5 -33 -60.5 -70l-42 -37l126 0z" />
<glyph unicode="&#179;" horiz-adv-x="374" d="M135 410q1 -10 5 -20q4 -10 11 -17q7 -7 16.5 -11.5q9.5 -4.5 22.5 -4.5q25 0 38 15q14 14 14 38q0 13 -4.5 21.5q-4.5 8.5 -9.5 13.5q-7 6 -16.5 10q-9.5 4 -20.5 4q-5 0 -11.5 -1q-6.5 -1 -11.5 -2l0 68q14 -1 25.5 1q11.5 2 19.5 9q7 6 10 15q3 9 3 17q0 17 -11 28q-9 11 -28 11q-11 0 -18.5 -4q-7.5 -4 -11.5 -9q-11 -13 -11 -31l-93 0q2 31 13.5 53q11.5 22 25.5 36q23 23 49 30q26 7 53 7q21 0 46.5 -5.5q25.5 -5.5 47.5 -28.5q14 -14 22 -32.5q8 -18.5 8 -44.5q0 -20 -4 -32.5q-4 -12.5 -9 -20.5q-10 -16 -27 -27q10 -3 20.5 -9.5q10.5 -6.5 19.5 -18.5q5 -6 14 -22.5q9 -16.5 9 -45.5q0 -23 -7.5 -46q-7.5 -23 -27.5 -43q-25 -25 -55 -32.5q-30 -7.5 -57 -7.5q-26 0 -56 7q-30 7 -57 33q-14 14 -29 38q-15 24 -19 61z" />
<glyph unicode="&#180;" horiz-adv-x="500" d="M404 656l-154 -136l-74 55l127 154z" />
<glyph unicode="&#181;" horiz-adv-x="584" d="M55 -230v677h160v-200q0 -38 6.5 -67q6.5 -29 23.5 -45q6 -6 17.5 -11.5q11.5 -5.5 29.5 -5.5q17 0 28.5 5.5q11.5 5.5 19.5 13.5q20 20 24.5 52.5q4.5 32.5 4.5 61.5v196h160v-447h-160v56q-10 -27 -28 -44q-11 -10 -22.5 -15q-11.5 -5 -26.5 -5q-31 0 -52 20q-9 8 -15 18.5q-6 10.5 -10 20.5l0 -281z" />
<glyph unicode="&#182;" horiz-adv-x="667" d="M215 -95v413h-10q-42 0 -77.5 15q-35.5 15 -58.5 39q-26 28 -34 59q-8 31 -8 57q0 51 16.5 81.5q16.5 30.5 32.5 45.5q32 30 80 41q48 11 102 11h336v-106h-72v-656h-114v656h-79l0 -656z" />
<glyph unicode="&#183;" horiz-adv-x="248" d="M124 229q-20 0 -42.5 7.5q-22.5 7.5 -42.5 26.5q-20 19 -29.5 42.5q-9.5 23.5 -9.5 47.5q0 23 9.5 47.5q9.5 24.5 29.5 43.5q17 16 39 25q22 9 46 9q22 0 43 -7.5q21 -7.5 40 -25.5q25 -23 33 -48q8 -25 8 -44q0 -24 -9 -46.5q-9 -22.5 -27 -40.5q-19 -19 -42 -28t-46 -9z" />
<glyph unicode="&#184;" horiz-adv-x="500" d="M394 -90l-124 -146l-84 40l102 150z" />
<glyph unicode="&#185;" horiz-adv-x="221" d="M88 583h-55v84h155v-400l-100 0z" />
<glyph unicode="&#186;" horiz-adv-x="355" d="M178 385q-39 0 -69 12q-30 12 -49 31q-16 16 -27.5 41q-11.5 25 -11.5 57q0 35 12 58.5q12 23.5 27 38.5q18 18 47 31q29 13 71 13q45 0 73 -14q28 -14 42 -28q20 -19 30.5 -45q10.5 -26 10.5 -53q0 -29 -11 -55q-11 -26 -29 -44q-15 -15 -43 -29q-28 -14 -73 -14zt0 0zM26 343h303v-76h-303zM178 586q-10 0 -22 -4q-12 -4 -20 -12q-18 -16 -18 -44q0 -16 5.5 -26.5q5.5 -10.5 12.5 -16.5q8 -8 18.5 -12.5q10.5 -4.5 23.5 -4.5q21 0 38 14q21 18 21 46q0 28 -18 44q-18 16 -41 16z" />
<glyph unicode="&#187;" horiz-adv-x="534" d="M154 228l-111 156l88 61l152 -217l-152 -218l-91 64zM374 228l-111 156l88 61l152 -217l-152 -218l-91 64z" />
<glyph unicode="&#188;" horiz-adv-x="775" d="M506 667h87l-387 -667h-86zM88 583h-55v84h155v-400h-100zM703 153h47v-77h-47v-76h-94v76h-186v63l149 261h131zM609 153v154l-84 -154z" />
<glyph unicode="&#189;" horiz-adv-x="786" d="M490 667h87l-387 -667h-86zM88 583h-55v84h155v-400h-100zM753 0h-308l97 107q22 24 39.5 44q17.5 20 31.5 41q10 14 19.5 34.5q9.5 20.5 9.5 40.5q0 11 -3 21.5q-3 10.5 -10 18.5q-6 7 -13 9q-7 2 -15 2q-7 0 -13.5 -2q-6.5 -2 -13.5 -9q-10 -10 -13.5 -24q-3.5 -14 -3.5 -24l-106 0q2 31 14 60q12 29 32 49q23 23 51.5 31.5q28.5 8.5 55.5 8.5q27 0 55.5 -7.5q28.5 -7.5 52.5 -32.5q23 -23 29.5 -50q6.5 -27 6.5 -49q0 -44 -18.5 -77q-18.5 -33 -60.5 -70l-42 -37l126 0z" />
<glyph unicode="&#190;" horiz-adv-x="889" d="M622 667h87l-387 -667h-86zM135 410q1 -10 5 -20q4 -10 11 -17q7 -7 16.5 -11.5q9.5 -4.5 22.5 -4.5q25 0 38 15q6 7 10 17q4 10 4 22q0 12 -4.5 20.5q-4.5 8.5 -9.5 13.5q-8 8 -17.5 11q-9.5 3 -19.5 3q-13 0 -23 -3l0 68q14 0 25.5 1q11.5 1 19.5 9q7 6 10 15q3 9 3 17q0 17 -11 28q-9 11 -28 11q-11 0 -18.5 -4q-7.5 -4 -11.5 -9q-11 -13 -11 -31l-93 0q2 31 13.5 53q11.5 22 25.5 36q23 23 49 30q26 7 53 7q21 0 46.5 -5.5q25.5 -5.5 47.5 -28.5q14 -14 22 -32.5q8 -18.5 8 -44.5q0 -20 -4 -32.5q-4 -12.5 -9 -20.5q-10 -16 -27 -27q8 -2 18.5 -8q10.5 -6 21.5 -20q11 -14 17 -33q6 -19 6 -37q0 -21 -7.5 -44q-7.5 -23 -27.5 -43q-25 -25 -55 -32.5q-30 -7.5 -57 -7.5q-26 0 -56 7q-30 7 -57 33q-14 14 -29 38q-15 24 -19 61zM708 153v154l-84 -154zM802 153h47v-77h-47v-76h-94v76h-186v63l149 261l131 0z" />
<glyph unicode="&#191;" horiz-adv-x="547" d="M363 213v-172q-10 4 -17.5 4.5q-7.5 0.5 -17.5 0.5q-24 0 -48 -4.5q-24 -4.5 -45 -26.5q-15 -15 -19 -29.5q-4 -14.5 -4 -25.5q0 -14 5 -26q5 -12 13 -20q8 -8 20 -12q12 -4 24 -4q14 0 26 5q12 5 20 13q18 20 18 49l176 0q-4 -53 -25 -92.5q-21 -39.5 -48 -62.5q-38 -33 -83 -42.5q-45 -9.5 -83 -9.5q-41 0 -87.5 10.5q-46.5 10.5 -88.5 50.5q-21 20 -33 41.5q-12 21.5 -17.5 40.5q-5.5 19 -7 35q-1.5 16 -1.5 26q0 34 12.5 66q12.5 32 35.5 58q21 23 50 39.5q29 16.5 62 24.5l0 63zM277 456q17 0 36 -6.5q19 -6.5 37 -24.5q10 -10 20.5 -28q10.5 -18 10.5 -45q0 -27 -10.5 -45q-10.5 -18 -20.5 -28q-18 -18 -37 -24.5q-19 -6.5 -36 -6.5q-19 0 -38 7.5q-19 7.5 -36 24.5q-13 13 -21 30q-8 17 -8 42q0 25 8 42q8 17 22 31q16 16 34.5 23.5t38.5 7.5z" />
<glyph unicode="&#192;" horiz-adv-x="710" d="M477 112h-242l-45 -112h-183l256 667h189l251 -667h-185zM431 244l-75 216l-73 -216zM201 856l102 73l126 -154l-74 -55z" />
<glyph unicode="&#193;" horiz-adv-x="710" d="M477 112h-242l-45 -112h-183l256 667h189l251 -667h-185zM431 244l-75 216l-73 -216zM509 856l-154 -136l-74 55l127 154z" />
<glyph unicode="&#194;" horiz-adv-x="710" d="M477 112h-242l-45 -112h-183l256 667h189l251 -667h-185zM431 244l-75 216l-73 -216zM158 797l196 147l198 -147l-71 -77l-127 98l-128 -98z" />
<glyph unicode="&#195;" horiz-adv-x="710" d="M477 112h-242l-45 -112h-183l256 667h189l251 -667h-185zM431 244l-75 216l-73 -216zM533 821q-7 -17 -19 -37q-12 -20 -25 -32q-29 -29 -72 -29q-17 0 -30.5 4q-13.5 4 -27.5 11l-30 15q-17 8 -24.5 10q-7.5 2 -11.5 2q-11 0 -22 -9.5q-11 -9.5 -16 -32.5l-78 46q6 18 17 37.5q11 19.5 23 30.5q13 12 31 20q18 8 39 8q19 0 34 -4.5q15 -4.5 26 -9.5l29 -13q15 -7 25 -11q10 -4 18 -4q9 0 19 9q10 9 18 35z" />
<glyph unicode="&#196;" horiz-adv-x="710" d="M477 112h-242l-45 -112h-183l256 667h189l251 -667h-185zM431 244l-75 216l-73 -216zM468 723q-36 0 -61 27q-25 28 -25 60q0 23 9 38q9 15 17 23q8 8 22.5 17q14.5 9 37.5 9q17 0 33 -7q16 -7 27 -18q27 -27 27 -62q0 -33 -26 -61q-14 -14 -29.5 -20q-15.5 -6 -31.5 -6zt0 0zM241 723q-36 0 -61 27q-25 28 -25 60q0 23 9 38q9 15 17 23q8 8 22.5 17q14.5 9 37.5 9q17 0 33 -7q16 -7 27 -18q27 -27 27 -62q0 -33 -26 -61q-14 -14 -29.5 -20t-31.5 -6z" />
<glyph unicode="&#197;" horiz-adv-x="710" d="M477 112h-242l-45 -112h-183l256 667h189l251 -667h-185zM431 244l-75 216l-73 -216zM492 826q0 -18 -6 -35q-6 -17 -20 -31q-3 -3 -10.5 -9q-7.5 -6 -21 -12q-13.5 -6 -33 -11q-19.5 -5 -46.5 -5q-27 0 -46.5 5q-19.5 5 -33 11q-13.5 6 -21 12q-7.5 6 -10.5 9q-14 14 -20 31q-6 17 -6 35q0 19 6 36q6 17 20 31q3 3 10.5 9q7.5 6 21 12q13.5 6 33 11q19.5 5 46.5 5q27 0 46.5 -5q19.5 -5 33 -11q13.5 -6 21 -12q7.5 -6 10.5 -9q14 -14 20 -31q6 -17 6 -36zt0 0zM355 867q-28 0 -43 -15q-10 -10 -10 -25q0 -15 10 -25q15 -15 43 -15q28 0 43 15q10 10 10 25q0 15 -10 25q-15 15 -43 15z" />
<glyph unicode="&#198;" horiz-adv-x="924" d="M472 117h-241l-42 -117h-182l257 667h184h224l53 -147h-219l41 -111h219l55 -147h-220l44 -115h218l54 -147h-219h-183zM425 249l-71 197l-75 -197z" />
<glyph unicode="&#199;" horiz-adv-x="589" d="M549 18q-26 -9 -46.5 -15.5q-20.5 -6.5 -38 -10.5q-17.5 -4 -33.5 -5.5q-16 -1.5 -32 -1.5q-88 0 -152 29.5q-64 29.5 -106 70.5q-49 49 -75 113q-26 64 -26 130q0 72 28 136q28 64 73 110q45 45 109.5 74.5q64.5 29.5 142.5 29.5q24 0 63 -6q39 -6 93 -28l0 -207q-21 26 -43 40.5q-22 14.5 -42.5 22q-20.5 7.5 -37.5 9q-17 1.5 -28 1.5q-38 0 -67 -11q-29 -11 -53 -33q-31 -29 -44.5 -65.5q-13.5 -36.5 -13.5 -71.5q0 -35 14 -70q14 -35 40 -60q22 -20 54.5 -33q32.5 -13 69.5 -13q10 0 26 1.5q16 1.5 36.5 8.5q20.5 7 43 21q22.5 14 45.5 39zM444 -90l-116 -146l-92 40l96 150z" />
<glyph unicode="&#200;" horiz-adv-x="489" d="M449 520h-206v-111h195v-147h-195v-115h206v-147h-379v667h379zM126 856l102 73l126 -154l-74 -55z" />
<glyph unicode="&#201;" horiz-adv-x="489" d="M449 520h-206v-111h195v-147h-195v-115h206v-147h-379v667h379zM389 856l-154 -136l-74 55l127 154z" />
<glyph unicode="&#202;" horiz-adv-x="489" d="M449 520h-206v-111h195v-147h-195v-115h206v-147h-379v667h379zM63 797l196 147l198 -147l-71 -77l-127 98l-128 -98z" />
<glyph unicode="&#203;" horiz-adv-x="489" d="M449 520h-206v-111h195v-147h-195v-115h206v-147h-379v667h379zM373 723q-36 0 -61 27q-25 28 -25 60q0 23 9 38q9 15 17 23q8 8 22.5 17q14.5 9 37.5 9q17 0 33 -7q16 -7 27 -18q27 -27 27 -62q0 -33 -26 -61q-14 -14 -29.5 -20q-15.5 -6 -31.5 -6zt0 0zM146 723q-36 0 -61 27q-25 28 -25 60q0 23 9 38q9 15 17 23q8 8 22.5 17q14.5 9 37.5 9q17 0 33 -7q16 -7 27 -18q27 -27 27 -62q0 -33 -26 -61q-14 -14 -29.5 -20t-31.5 -6z" />
<glyph unicode="&#204;" horiz-adv-x="313" d="M243 667v-667h-173v667zM16 856l102 73l126 -154l-74 -55z" />
<glyph unicode="&#205;" horiz-adv-x="313" d="M243 667v-667h-173v667zM304 856l-154 -136l-74 55l127 154z" />
<glyph unicode="&#206;" horiz-adv-x="313" d="M243 667v-667h-173v667zM-40 797l196 147l198 -147l-71 -77l-127 98l-128 -98z" />
<glyph unicode="&#207;" horiz-adv-x="313" d="M243 667v-667h-173v667zM270 723q-36 0 -61 27q-25 28 -25 60q0 23 9 38q9 15 17 23q8 8 22.5 17q14.5 9 37.5 9q17 0 33 -7q16 -7 27 -18q27 -27 27 -62q0 -33 -26 -61q-14 -14 -29.5 -20q-15.5 -6 -31.5 -6zt0 0zM43 723q-36 0 -61 27q-25 28 -25 60q0 23 9 38q9 15 17 23q8 8 22.5 17q14.5 9 37.5 9q17 0 33 -7q16 -7 27 -18q27 -27 27 -62q0 -33 -26 -61q-14 -14 -29.5 -20t-31.5 -6z" />
<glyph unicode="&#208;" horiz-adv-x="737" d="M112 0v296h-92v120h92v251h227q25 0 57.5 -2.5q32.5 -2.5 68 -12q35.5 -9.5 71.5 -28q36 -18.5 68 -49.5q29 -28 47.5 -59.5q18.5 -31.5 28.5 -63q10 -31.5 13.5 -62.5q3.5 -31 3.5 -58q0 -66 -19 -124q-19 -58 -68 -107q-40 -40 -105 -70.5q-65 -30.5 -151 -30.5zM285 416h118v-120h-118v-149h35q16 0 34.5 1.5q18.5 1.5 37.5 6q19 4.5 38 14q19 9.5 36 26.5q17 16 34 48.5q17 32.5 17 88.5q0 47 -13.5 85q-13.5 38 -38.5 61q-31 29 -68.5 35.5q-37.5 6.5 -69.5 6.5l-42 0z" />
<glyph unicode="&#209;" horiz-adv-x="805" d="M70 0v667h173l319 -408v408h173v-667h-173l-319 408v-408zM580 821q-7 -17 -19 -37q-12 -20 -25 -32q-29 -29 -72 -29q-17 0 -30.5 4q-13.5 4 -27.5 11l-30 15q-17 8 -24.5 10q-7.5 2 -11.5 2q-11 0 -22 -9.5q-11 -9.5 -16 -32.5l-78 46q6 18 17 37.5q11 19.5 23 30.5q13 12 31 20q18 8 39 8q19 0 34 -4.5q15 -4.5 26 -9.5l29 -13q15 -7 25 -11q10 -4 18 -4q9 0 19 9q10 9 18 35z" />
<glyph unicode="&#210;" horiz-adv-x="816" d="M776 333q0 -66 -25.5 -132q-25.5 -66 -79.5 -117q-51 -49 -119.5 -74q-68.5 -25 -143.5 -25q-75 0 -143.5 25q-68.5 25 -119.5 74q-54 51 -79.5 117q-25.5 66 -25.5 132q0 67 25.5 133q25.5 66 79.5 117q51 49 119.5 74q68.5 25 143.5 25q75 0 143.5 -25q68.5 -25 119.5 -74q54 -51 79.5 -117q25.5 -66 25.5 -133zt0 0zM408 514q-36 0 -72 -13q-36 -13 -63 -40q-27 -26 -40 -61q-13 -35 -13 -70q0 -45 17 -75.5q17 -30.5 36 -48.5q24 -23 57.5 -38q33.5 -15 77.5 -15q45 0 78 14.5q33 14.5 56 37.5q23 23 38.5 56.5q15.5 33.5 15.5 71.5q0 39 -15.5 72q-15.5 33 -38.5 56q-28 26 -63.5 39.5q-35.5 13.5 -70.5 13.5zt0 0zM255 856l102 73l126 -154l-74 -55z" />
<glyph unicode="&#211;" horiz-adv-x="816" d="M776 333q0 -66 -25.5 -132q-25.5 -66 -79.5 -117q-51 -49 -119.5 -74q-68.5 -25 -143.5 -25q-75 0 -143.5 25q-68.5 25 -119.5 74q-54 51 -79.5 117q-25.5 66 -25.5 132q0 67 25.5 133q25.5 66 79.5 117q51 49 119.5 74q68.5 25 143.5 25q75 0 143.5 -25q68.5 -25 119.5 -74q54 -51 79.5 -117q25.5 -66 25.5 -133zt0 0zM408 514q-36 0 -72 -13q-36 -13 -63 -40q-27 -26 -40 -61q-13 -35 -13 -70q0 -45 17 -75.5q17 -30.5 36 -48.5q24 -23 57.5 -38q33.5 -15 77.5 -15q45 0 78 14.5q33 14.5 56 37.5q23 23 38.5 56.5q15.5 33.5 15.5 71.5q0 39 -15.5 72q-15.5 33 -38.5 56q-28 26 -63.5 39.5q-35.5 13.5 -70.5 13.5zt0 0zM563 856l-154 -136l-74 55l127 154z" />
<glyph unicode="&#212;" horiz-adv-x="816" d="M776 333q0 -66 -25.5 -132q-25.5 -66 -79.5 -117q-51 -49 -119.5 -74q-68.5 -25 -143.5 -25q-75 0 -143.5 25q-68.5 25 -119.5 74q-54 51 -79.5 117q-25.5 66 -25.5 132q0 67 25.5 133q25.5 66 79.5 117q51 49 119.5 74q68.5 25 143.5 25q75 0 143.5 -25q68.5 -25 119.5 -74q54 -51 79.5 -117q25.5 -66 25.5 -133zt0 0zM408 514q-36 0 -72 -13q-36 -13 -63 -40q-27 -26 -40 -61q-13 -35 -13 -70q0 -45 17 -75.5q17 -30.5 36 -48.5q24 -23 57.5 -38q33.5 -15 77.5 -15q45 0 78 14.5q33 14.5 56 37.5q23 23 38.5 56.5q15.5 33.5 15.5 71.5q0 39 -15.5 72q-15.5 33 -38.5 56q-28 26 -63.5 39.5q-35.5 13.5 -70.5 13.5zt0 0zM212 797l196 147l198 -147l-71 -77l-127 98l-128 -98z" />
<glyph unicode="&#213;" horiz-adv-x="816" d="M776 333q0 -66 -25.5 -132q-25.5 -66 -79.5 -117q-51 -49 -119.5 -74q-68.5 -25 -143.5 -25q-75 0 -143.5 25q-68.5 25 -119.5 74q-54 51 -79.5 117q-25.5 66 -25.5 132q0 67 25.5 133q25.5 66 79.5 117q51 49 119.5 74q68.5 25 143.5 25q75 0 143.5 -25q68.5 -25 119.5 -74q54 -51 79.5 -117q25.5 -66 25.5 -133zt0 0zM408 514q-36 0 -72 -13q-36 -13 -63 -40q-27 -26 -40 -61q-13 -35 -13 -70q0 -45 17 -75.5q17 -30.5 36 -48.5q24 -23 57.5 -38q33.5 -15 77.5 -15q45 0 78 14.5q33 14.5 56 37.5q23 23 38.5 56.5q15.5 33.5 15.5 71.5q0 39 -15.5 72q-15.5 33 -38.5 56q-28 26 -63.5 39.5q-35.5 13.5 -70.5 13.5zt0 0zM587 821q-7 -17 -19 -37q-12 -20 -25 -32q-29 -29 -72 -29q-17 0 -30.5 4q-13.5 4 -27.5 11l-30 15q-17 8 -24.5 10q-7.5 2 -11.5 2q-11 0 -22 -9.5q-11 -9.5 -16 -32.5l-78 46q6 18 17 37.5q11 19.5 23 30.5q13 12 31 20q18 8 39 8q19 0 34 -4.5q15 -4.5 26 -9.5l29 -13q15 -7 25 -11q10 -4 18 -4q9 0 19 9q10 9 18 35z" />
<glyph unicode="&#214;" horiz-adv-x="816" d="M776 333q0 -66 -25.5 -132q-25.5 -66 -79.5 -117q-51 -49 -119.5 -74q-68.5 -25 -143.5 -25q-75 0 -143.5 25q-68.5 25 -119.5 74q-54 51 -79.5 117q-25.5 66 -25.5 132q0 67 25.5 133q25.5 66 79.5 117q51 49 119.5 74q68.5 25 143.5 25q75 0 143.5 -25q68.5 -25 119.5 -74q54 -51 79.5 -117q25.5 -66 25.5 -133zt0 0zM408 514q-36 0 -72 -13q-36 -13 -63 -40q-27 -26 -40 -61q-13 -35 -13 -70q0 -45 17 -75.5q17 -30.5 36 -48.5q24 -23 57.5 -38q33.5 -15 77.5 -15q45 0 78 14.5q33 14.5 56 37.5q23 23 38.5 56.5q15.5 33.5 15.5 71.5q0 39 -15.5 72q-15.5 33 -38.5 56q-28 26 -63.5 39.5q-35.5 13.5 -70.5 13.5zt0 0zM522 723q-36 0 -61 27q-25 28 -25 60q0 23 9 38q9 15 17 23q8 8 22.5 17q14.5 9 37.5 9q17 0 33 -7q16 -7 27 -18q27 -27 27 -62q0 -33 -26 -61q-14 -14 -29.5 -20q-15.5 -6 -31.5 -6zt0 0zM295 723q-36 0 -61 27q-25 28 -25 60q0 23 9 38q9 15 17 23q8 8 22.5 17q14.5 9 37.5 9q17 0 33 -7q16 -7 27 -18q27 -27 27 -62q0 -33 -26 -61q-14 -14 -29.5 -20t-31.5 -6z" />
<glyph unicode="&#215;" horiz-adv-x="500" d="M39 211l122 122l-123 123l92 92l123 -123l122 123l85 -85l-122 -123l123 -123l-92 -92l-123 123l-123 -122z" />
<glyph unicode="&#216;" horiz-adv-x="828" d="M711 544q43 -58 57 -113q14 -55 14 -97q0 -68 -26 -133.5q-26 -65.5 -79 -116.5q-48 -47 -113 -73q-65 -26 -150 -26q-66 0 -116 16q-50 16 -91 40l-88 -88l-89 84l87 86q-29 36 -50 86.5q-21 50.5 -21 122.5q0 81 30 145q30 64 75 106q43 41 109 70q66 29 154 29q63 0 113 -15q50 -15 94 -41l88 88l89 -84zM494 494q-16 9 -35 14.5q-19 5.5 -45 5.5q-45 0 -78.5 -15q-33.5 -15 -56.5 -38q-23 -23 -38 -56q-15 -33 -15 -75q0 -25 5.5 -45q5.5 -20 15.5 -37zM335 173q36 -20 80 -20q44 0 77 14.5q33 14.5 56 37.5q24 24 39 56.5q15 32.5 15 71.5q0 26 -5.5 47q-5.5 21 -16.5 38z" />
<glyph unicode="&#217;" horiz-adv-x="721" d="M243 667v-395q0 -21 4.5 -50q4.5 -29 29.5 -53q15 -14 37 -23q22 -9 45 -9q23 0 44.5 8q21.5 8 35.5 21q15 13 23 28.5q8 15.5 11.5 31.5q3.5 16 4 31.5q0.5 15.5 0.5 29.5v380h173v-383q0 -26 -1.5 -53q-1.5 -27 -9 -54q-7.5 -27 -22.5 -54.5q-15 -27.5 -42 -54.5q-42 -43 -95.5 -63q-53.5 -20 -124.5 -20q-79 0 -134.5 23.5q-55.5 23.5 -86.5 56.5q-22 24 -35 51q-13 27 -19.5 55.5q-6.5 28.5 -8.5 57q-2 28.5 -2 55.5v383zM206 856l102 73l126 -154l-74 -55z" />
<glyph unicode="&#218;" horiz-adv-x="721" d="M243 667v-395q0 -21 4.5 -50q4.5 -29 29.5 -53q15 -14 37 -23q22 -9 45 -9q23 0 44.5 8q21.5 8 35.5 21q15 13 23 28.5q8 15.5 11.5 31.5q3.5 16 4 31.5q0.5 15.5 0.5 29.5v380h173v-383q0 -26 -1.5 -53q-1.5 -27 -9 -54q-7.5 -27 -22.5 -54.5q-15 -27.5 -42 -54.5q-42 -43 -95.5 -63q-53.5 -20 -124.5 -20q-79 0 -134.5 23.5q-55.5 23.5 -86.5 56.5q-22 24 -35 51q-13 27 -19.5 55.5q-6.5 28.5 -8.5 57q-2 28.5 -2 55.5v383zM514 856l-154 -136l-74 55l127 154z" />
<glyph unicode="&#219;" horiz-adv-x="721" d="M243 667v-395q0 -21 4.5 -50q4.5 -29 29.5 -53q15 -14 37 -23q22 -9 45 -9q23 0 44.5 8q21.5 8 35.5 21q15 13 23 28.5q8 15.5 11.5 31.5q3.5 16 4 31.5q0.5 15.5 0.5 29.5v380h173v-383q0 -26 -1.5 -53q-1.5 -27 -9 -54q-7.5 -27 -22.5 -54.5q-15 -27.5 -42 -54.5q-42 -43 -95.5 -63q-53.5 -20 -124.5 -20q-79 0 -134.5 23.5q-55.5 23.5 -86.5 56.5q-22 24 -35 51q-13 27 -19.5 55.5q-6.5 28.5 -8.5 57q-2 28.5 -2 55.5v383zM163 797l196 147l198 -147l-71 -77l-127 98l-128 -98z" />
<glyph unicode="&#220;" horiz-adv-x="721" d="M243 667v-395q0 -21 4.5 -50q4.5 -29 29.5 -53q15 -14 37 -23q22 -9 45 -9q23 0 44.5 8q21.5 8 35.5 21q15 13 23 28.5q8 15.5 11.5 31.5q3.5 16 4 31.5q0.5 15.5 0.5 29.5v380h173v-383q0 -26 -1.5 -53q-1.5 -27 -9 -54q-7.5 -27 -22.5 -54.5q-15 -27.5 -42 -54.5q-42 -43 -95.5 -63q-53.5 -20 -124.5 -20q-79 0 -134.5 23.5q-55.5 23.5 -86.5 56.5q-22 24 -35 51q-13 27 -19.5 55.5q-6.5 28.5 -8.5 57q-2 28.5 -2 55.5v383zM473 723q-36 0 -61 27q-25 28 -25 60q0 23 9 38q9 15 17 23q8 8 22.5 17q14.5 9 37.5 9q17 0 33 -7q16 -7 27 -18q27 -27 27 -62q0 -33 -26 -61q-14 -14 -29.5 -20q-15.5 -6 -31.5 -6zt0 0zM246 723q-36 0 -61 27q-25 28 -25 60q0 23 9 38q9 15 17 23q8 8 22.5 17q14.5 9 37.5 9q17 0 33 -7q16 -7 27 -18q27 -27 27 -62q0 -33 -26 -61q-14 -14 -29.5 -20t-31.5 -6z" />
<glyph unicode="&#221;" horiz-adv-x="640" d="M229 320l-241 347h207l126 -182l121 182h210l-249 -347v-320h-174zM474 856l-154 -136l-74 55l127 154z" />
<glyph unicode="&#222;" horiz-adv-x="599" d="M243 131v-131h-173v667h173v-90h103q44 0 87.5 -11.5q43.5 -11.5 81.5 -48.5q39 -38 50.5 -79q11.5 -41 11.5 -83q0 -20 -2 -41q-2 -21 -8 -42.5q-6 -21.5 -18 -42.5q-12 -21 -31 -40q-39 -38 -83 -48q-44 -10 -83 -10zM243 271h58q14 0 35.5 3.5q21.5 3.5 37.5 17.5q16 14 19 31.5q3 17.5 3 29.5q0 14 -3 30q-3 16 -17 30q-15 16 -36 20q-21 4 -38 4l-59 0z" />
<glyph unicode="&#223;" horiz-adv-x="590" d="M55 0v530q0 34 10.5 76.5q10.5 42.5 46.5 77.5q20 19 60 37q40 18 105 18q35 0 62 -5.5q27 -5.5 48 -14q21 -8.5 36 -19q15 -10.5 25 -20.5q19 -19 35.5 -52q16.5 -33 16.5 -86q0 -12 -2.5 -29.5q-2.5 -17.5 -10.5 -37q-8 -19.5 -23 -38q-15 -18.5 -41 -32.5q19 -6 38 -16.5q19 -10.5 38 -30.5q29 -29 41.5 -62.5q12.5 -33.5 12.5 -78.5q0 -35 -6.5 -63q-6.5 -28 -17 -50q-10.5 -22 -24 -38.5q-13.5 -16.5 -26.5 -27.5q-44 -37 -98 -46q-54 -9 -119 -5l0 134q26 0 50 9q24 9 40 25q8 8 17.5 25q9.5 17 9.5 44q0 28 -9 46q-9 18 -19 29q-11 11 -32.5 24q-21.5 13 -56.5 11l0 127h11q23 0 36.5 7q13.5 7 20.5 13q11 11 14.5 24q3.5 13 3.5 30q0 17 -5 29q-5 12 -12 20q-6 7 -17.5 13q-11.5 6 -31.5 6q-19 0 -30.5 -6.5q-11.5 -6.5 -16.5 -11.5q-14 -14 -17 -30q-3 -16 -3 -32l0 -523z" />
<glyph unicode="&#224;" horiz-adv-x="616" d="M401 447h160v-447h-160v49q-14 -19 -31 -31.5q-17 -12.5 -35.5 -19.5q-18.5 -7 -37.5 -10q-19 -3 -35 -3q-36 0 -78 14q-42 14 -83 57q-32 35 -48 74q-16 39 -16 90q0 63 21 107.5q21 44.5 48 71.5q29 29 71 46q42 17 90 17q27 0 48.5 -6q21.5 -6 38 -15q16.5 -9 28.5 -19q12 -10 19 -18zM303 326q-15 0 -34 -6q-19 -6 -36 -23q-17 -16 -24.5 -36q-7.5 -20 -7.5 -37q0 -20 8 -39.5q8 -19.5 23 -33.5q13 -12 32.5 -21q19.5 -9 39.5 -9q41 0 72 31q11 11 20.5 28q9.5 17 9.5 44q0 16 -6 35.5q-6 19.5 -25 37.5q-11 11 -28.5 20q-17.5 9 -43.5 9zt0 0zM196 656l102 73l126 -154l-74 -55z" />
<glyph unicode="&#225;" horiz-adv-x="616" d="M401 447h160v-447h-160v49q-14 -19 -31 -31.5q-17 -12.5 -35.5 -19.5q-18.5 -7 -37.5 -10q-19 -3 -35 -3q-36 0 -78 14q-42 14 -83 57q-32 35 -48 74q-16 39 -16 90q0 63 21 107.5q21 44.5 48 71.5q29 29 71 46q42 17 90 17q27 0 48.5 -6q21.5 -6 38 -15q16.5 -9 28.5 -19q12 -10 19 -18zM303 326q-15 0 -34 -6q-19 -6 -36 -23q-17 -16 -24.5 -36q-7.5 -20 -7.5 -37q0 -20 8 -39.5q8 -19.5 23 -33.5q13 -12 32.5 -21q19.5 -9 39.5 -9q41 0 72 31q11 11 20.5 28q9.5 17 9.5 44q0 16 -6 35.5q-6 19.5 -25 37.5q-11 11 -28.5 20q-17.5 9 -43.5 9zt0 0zM469 656l-154 -136l-74 55l127 154z" />
<glyph unicode="&#226;" horiz-adv-x="616" d="M401 447h160v-447h-160v49q-14 -19 -31 -31.5q-17 -12.5 -35.5 -19.5q-18.5 -7 -37.5 -10q-19 -3 -35 -3q-36 0 -78 14q-42 14 -83 57q-32 35 -48 74q-16 39 -16 90q0 63 21 107.5q21 44.5 48 71.5q29 29 71 46q42 17 90 17q27 0 48.5 -6q21.5 -6 38 -15q16.5 -9 28.5 -19q12 -10 19 -18zM303 326q-15 0 -34 -6q-19 -6 -36 -23q-17 -16 -24.5 -36q-7.5 -20 -7.5 -37q0 -20 8 -39.5q8 -19.5 23 -33.5q13 -12 32.5 -21q19.5 -9 39.5 -9q41 0 72 31q11 11 20.5 28q9.5 17 9.5 44q0 16 -6 35.5q-6 19.5 -25 37.5q-11 11 -28.5 20q-17.5 9 -43.5 9zt0 0zM128 597l196 147l198 -147l-71 -77l-127 98l-128 -98z" />
<glyph unicode="&#227;" horiz-adv-x="616" d="M401 447h160v-447h-160v49q-14 -19 -31 -31.5q-17 -12.5 -35.5 -19.5q-18.5 -7 -37.5 -10q-19 -3 -35 -3q-36 0 -78 14q-42 14 -83 57q-32 35 -48 74q-16 39 -16 90q0 63 21 107.5q21 44.5 48 71.5q29 29 71 46q42 17 90 17q27 0 48.5 -6q21.5 -6 38 -15q16.5 -9 28.5 -19q12 -10 19 -18zM303 326q-15 0 -34 -6q-19 -6 -36 -23q-17 -16 -24.5 -36q-7.5 -20 -7.5 -37q0 -20 8 -39.5q8 -19.5 23 -33.5q13 -12 32.5 -21q19.5 -9 39.5 -9q41 0 72 31q11 11 20.5 28q9.5 17 9.5 44q0 16 -6 35.5q-6 19.5 -25 37.5q-11 11 -28.5 20q-17.5 9 -43.5 9zt0 0zM503 621q-7 -17 -19 -37q-12 -20 -25 -32q-29 -29 -72 -29q-17 0 -30.5 4q-13.5 4 -27.5 11l-30 15q-17 8 -24.5 10q-7.5 2 -11.5 2q-11 0 -22 -9.5q-11 -9.5 -16 -32.5l-78 46q6 18 17 37.5q11 19.5 23 30.5q13 12 31 20q18 8 39 8q19 0 34 -4.5q15 -4.5 26 -9.5l29 -13q15 -7 25 -11q10 -4 18 -4q9 0 19 9q10 9 18 35z" />
<glyph unicode="&#228;" horiz-adv-x="616" d="M401 447h160v-447h-160v49q-14 -19 -31 -31.5q-17 -12.5 -35.5 -19.5q-18.5 -7 -37.5 -10q-19 -3 -35 -3q-36 0 -78 14q-42 14 -83 57q-32 35 -48 74q-16 39 -16 90q0 63 21 107.5q21 44.5 48 71.5q29 29 71 46q42 17 90 17q27 0 48.5 -6q21.5 -6 38 -15q16.5 -9 28.5 -19q12 -10 19 -18zM303 326q-15 0 -34 -6q-19 -6 -36 -23q-17 -16 -24.5 -36q-7.5 -20 -7.5 -37q0 -20 8 -39.5q8 -19.5 23 -33.5q13 -12 32.5 -21q19.5 -9 39.5 -9q41 0 72 31q11 11 20.5 28q9.5 17 9.5 44q0 16 -6 35.5q-6 19.5 -25 37.5q-11 11 -28.5 20q-17.5 9 -43.5 9zt0 0zM438 523q-36 0 -61 27q-25 28 -25 60q0 23 9 38q9 15 17 23q8 8 22.5 17q14.5 9 37.5 9q17 0 33 -7q16 -7 27 -18q27 -27 27 -62q0 -33 -26 -61q-14 -14 -29.5 -20q-15.5 -6 -31.5 -6zt0 0zM211 523q-36 0 -61 27q-25 28 -25 60q0 23 9 38q9 15 17 23q8 8 22.5 17q14.5 9 37.5 9q17 0 33 -7q16 -7 27 -18q27 -27 27 -62q0 -33 -26 -61q-14 -14 -29.5 -20t-31.5 -6z" />
<glyph unicode="&#229;" horiz-adv-x="616" d="M401 447h160v-447h-160v49q-14 -19 -31 -31.5q-17 -12.5 -35.5 -19.5q-18.5 -7 -37.5 -10q-19 -3 -35 -3q-36 0 -78 14q-42 14 -83 57q-32 35 -48 74q-16 39 -16 90q0 63 21 107.5q21 44.5 48 71.5q29 29 71 46q42 17 90 17q27 0 48.5 -6q21.5 -6 38 -15q16.5 -9 28.5 -19q12 -10 19 -18zM303 326q-15 0 -34 -6q-19 -6 -36 -23q-17 -16 -24.5 -36q-7.5 -20 -7.5 -37q0 -20 8 -39.5q8 -19.5 23 -33.5q13 -12 32.5 -21q19.5 -9 39.5 -9q41 0 72 31q11 11 20.5 28q9.5 17 9.5 44q0 16 -6 35.5q-6 19.5 -25 37.5q-11 11 -28.5 20q-17.5 9 -43.5 9zt0 0zM462 626q0 -18 -6 -35q-6 -17 -20 -31q-3 -3 -10.5 -9q-7.5 -6 -21 -12q-13.5 -6 -33 -11q-19.5 -5 -46.5 -5q-27 0 -46.5 5q-19.5 5 -33 11q-13.5 6 -21 12q-7.5 6 -10.5 9q-14 14 -20 31q-6 17 -6 35q0 19 6 36q6 17 20 31q3 3 10.5 9q7.5 6 21 12q13.5 6 33 11q19.5 5 46.5 5q27 0 46.5 -5q19.5 -5 33 -11q13.5 -6 21 -12q7.5 -6 10.5 -9q14 -14 20 -31q6 -17 6 -36zt0 0zM325 667q-28 0 -43 -15q-10 -10 -10 -25q0 -15 10 -25q15 -15 43 -15q28 0 43 15q10 10 10 25q0 15 -10 25q-15 15 -43 15z" />
<glyph unicode="&#230;" horiz-adv-x="858" d="M486 198q0 -27 9.5 -46.5q9.5 -19.5 20.5 -30.5q17 -17 35 -21q18 -4 37 -4q14 0 26.5 2.5q12.5 2.5 23.5 10.5q14 9 23 29l153 0q-14 -46 -38 -72.5q-24 -26.5 -43 -40.5q-36 -26 -73.5 -33q-37.5 -7 -73.5 -7q-34 0 -62.5 5.5q-28.5 5.5 -56.5 20.5q-41 22 -61 61q-17 -22 -38 -37.5q-21 -15.5 -42 -25.5q-12 -5 -38.5 -13.5q-26.5 -8.5 -65.5 -8.5q-47 0 -85 14q-38 14 -62 38q-14 14 -26 36.5q-12 22.5 -12 55.5q0 58 39 97q23 23 60 37q37 14 88 14q25 0 53.5 -4.5q28.5 -4.5 60.5 -18.5l0 11q0 17 -6 31.5q-6 14.5 -15 23.5q-9 9 -21.5 14q-12.5 5 -25 8q-12.5 3 -23 3.5q-10.5 0.5 -16.5 0.5q-20 0 -51 -4.5q-31 -4.5 -73 -20.5l0 119q29 8 64 14.5q35 6.5 69 6.5q23 0 45 -2.5q22 -2.5 48 -14.5q23 -11 41 -25q18 -14 32 -37q12 16 29.5 31q17.5 15 38.5 26q9 5 35 13.5q26 8.5 69 8.5q57 0 103 -17.5q46 -17.5 75 -46.5q23 -23 36 -50.5q13 -27.5 19.5 -53.5q6.5 -26 8 -48.5q1.5 -22.5 1.5 -35.5v-13zM674 289q-4 17 -11.5 28.5q-7.5 11.5 -15.5 19.5q-14 12 -32 18.5q-18 6.5 -35 6.5q-34 0 -59 -22q-11 -11 -19 -24.5q-8 -13.5 -12 -26.5zM264 190q-5 0 -23.5 -1.5q-18.5 -1.5 -33.5 -12.5q-16 -12 -16 -34q0 -21 19 -34q11 -8 25 -11.5q14 -3.5 28 -3.5q13 0 27 3.5q14 3.5 25 8.5q14 8 20.5 18q6.5 10 6.5 19q0 11 -7 21q-7 10 -17 15q-10 5 -25.5 8.5t-28.5 3.5z" />
<glyph unicode="&#231;" horiz-adv-x="429" d="M393 10q-32 -16 -59 -20.5q-27 -4.5 -52 -4.5q-33 0 -60 6.5q-27 6.5 -48.5 16q-21.5 9.5 -38.5 21.5q-17 12 -29 24q-32 31 -50.5 74q-18.5 43 -18.5 93q0 50 19 95q19 45 53 78q32 30 77.5 49q45.5 19 102.5 19q21 0 47.5 -5q26.5 -5 56.5 -20l0 -134q-16 11 -36.5 20q-20.5 9 -46.5 9q-29 0 -47.5 -9.5q-18.5 -9.5 -30.5 -21.5q-17 -17 -24 -37q-7 -20 -7 -40q0 -19 7 -39q7 -20 21 -36q11 -12 31 -23q20 -11 51 -11q17 0 38.5 5.5q21.5 5.5 43.5 24.5zM354 -90l-124 -146l-84 40l102 150z" />
<glyph unicode="&#232;" horiz-adv-x="566" d="M529 194h-333q0 -18 7 -39.5q7 -21.5 21 -35.5q8 -8 23.5 -15q15.5 -7 42.5 -7q3 0 20 2q17 2 32 10q8 5 15.5 12q7.5 7 12.5 18l153 0q-5 -19 -17 -43.5q-12 -24.5 -37 -48.5q-25 -24 -67 -43q-42 -19 -115 -19q-44 0 -94 13.5q-50 13.5 -91 54.5q-11 11 -22.5 26.5q-11.5 15.5 -21.5 36.5q-10 21 -16 47.5q-6 26.5 -6 58.5q0 57 19 100.5q19 43.5 48 72.5q28 27 72.5 46q44.5 19 110.5 19q39 0 85.5 -12q46.5 -12 86.5 -49q24 -23 38 -48q14 -25 21.5 -50q7.5 -25 9.5 -48q2 -23 2 -42zM382 286q-3 13 -10 26q-7 13 -16 22q-16 16 -35 20q-19 4 -31 4q-41 0 -65 -24q-8 -9 -15 -21q-7 -12 -9 -27zM151 656l102 73l126 -154l-74 -55z" />
<glyph unicode="&#233;" horiz-adv-x="566" d="M529 194h-333q0 -18 7 -39.5q7 -21.5 21 -35.5q8 -8 23.5 -15q15.5 -7 42.5 -7q3 0 20 2q17 2 32 10q8 5 15.5 12q7.5 7 12.5 18l153 0q-5 -19 -17 -43.5q-12 -24.5 -37 -48.5q-25 -24 -67 -43q-42 -19 -115 -19q-44 0 -94 13.5q-50 13.5 -91 54.5q-11 11 -22.5 26.5q-11.5 15.5 -21.5 36.5q-10 21 -16 47.5q-6 26.5 -6 58.5q0 57 19 100.5q19 43.5 48 72.5q28 27 72.5 46q44.5 19 110.5 19q39 0 85.5 -12q46.5 -12 86.5 -49q24 -23 38 -48q14 -25 21.5 -50q7.5 -25 9.5 -48q2 -23 2 -42zM382 286q-3 13 -10 26q-7 13 -16 22q-16 16 -35 20q-19 4 -31 4q-41 0 -65 -24q-8 -9 -15 -21q-7 -12 -9 -27zM444 656l-154 -136l-74 55l127 154z" />
<glyph unicode="&#234;" horiz-adv-x="566" d="M529 194h-333q0 -18 7 -39.5q7 -21.5 21 -35.5q8 -8 23.5 -15q15.5 -7 42.5 -7q3 0 20 2q17 2 32 10q8 5 15.5 12q7.5 7 12.5 18l153 0q-5 -19 -17 -43.5q-12 -24.5 -37 -48.5q-25 -24 -67 -43q-42 -19 -115 -19q-44 0 -94 13.5q-50 13.5 -91 54.5q-11 11 -22.5 26.5q-11.5 15.5 -21.5 36.5q-10 21 -16 47.5q-6 26.5 -6 58.5q0 57 19 100.5q19 43.5 48 72.5q28 27 72.5 46q44.5 19 110.5 19q39 0 85.5 -12q46.5 -12 86.5 -49q24 -23 38 -48q14 -25 21.5 -50q7.5 -25 9.5 -48q2 -23 2 -42zM382 286q-3 13 -10 26q-7 13 -16 22q-16 16 -35 20q-19 4 -31 4q-41 0 -65 -24q-8 -9 -15 -21q-7 -12 -9 -27zM89 597l196 147l198 -147l-71 -77l-127 98l-128 -98z" />
<glyph unicode="&#235;" horiz-adv-x="566" d="M529 194h-333q0 -18 7 -39.5q7 -21.5 21 -35.5q8 -8 23.5 -15q15.5 -7 42.5 -7q3 0 20 2q17 2 32 10q8 5 15.5 12q7.5 7 12.5 18l153 0q-5 -19 -17 -43.5q-12 -24.5 -37 -48.5q-25 -24 -67 -43q-42 -19 -115 -19q-44 0 -94 13.5q-50 13.5 -91 54.5q-11 11 -22.5 26.5q-11.5 15.5 -21.5 36.5q-10 21 -16 47.5q-6 26.5 -6 58.5q0 57 19 100.5q19 43.5 48 72.5q28 27 72.5 46q44.5 19 110.5 19q39 0 85.5 -12q46.5 -12 86.5 -49q24 -23 38 -48q14 -25 21.5 -50q7.5 -25 9.5 -48q2 -23 2 -42zM382 286q-3 13 -10 26q-7 13 -16 22q-16 16 -35 20q-19 4 -31 4q-41 0 -65 -24q-8 -9 -15 -21q-7 -12 -9 -27zM399 523q-36 0 -61 27q-25 28 -25 60q0 23 9 38q9 15 17 23q8 8 22.5 17q14.5 9 37.5 9q17 0 33 -7q16 -7 27 -18q27 -27 27 -62q0 -33 -26 -61q-14 -14 -29.5 -20q-15.5 -6 -31.5 -6zt0 0zM172 523q-36 0 -61 27q-25 28 -25 60q0 23 9 38q9 15 17 23q8 8 22.5 17q14.5 9 37.5 9q17 0 33 -7q16 -7 27 -18q27 -27 27 -62q0 -33 -26 -61q-14 -14 -29.5 -20t-31.5 -6z" />
<glyph unicode="&#236;" horiz-adv-x="267" d="M213 447v-447h-160v447zM-19 656l102 73l126 -154l-74 -55z" />
<glyph unicode="&#237;" horiz-adv-x="267" d="M213 447v-447h-160v447zM291 656l-154 -136l-74 55l127 154z" />
<glyph unicode="&#238;" horiz-adv-x="267" d="M213 447v-447h-160v447zM-62 597l196 147l198 -147l-71 -77l-127 98l-128 -98z" />
<glyph unicode="&#239;" horiz-adv-x="267" d="M213 447v-447h-160v447zM248 523q-36 0 -61 27q-25 28 -25 60q0 23 9 38q9 15 17 23q8 8 22.5 17q14.5 9 37.5 9q17 0 33 -7q16 -7 27 -18q27 -27 27 -62q0 -33 -26 -61q-14 -14 -29.5 -20q-15.5 -6 -31.5 -6zt0 0zM21 523q-36 0 -61 27q-25 28 -25 60q0 23 9 38q9 15 17 23q8 8 22.5 17q14.5 9 37.5 9q17 0 33 -7q16 -7 27 -18q27 -27 27 -62q0 -33 -26 -61q-14 -14 -29.5 -20t-31.5 -6z" />
<glyph unicode="&#240;" horiz-adv-x="590" d="M108 726q86 0 141.5 -15q55.5 -15 88.5 -32l157 73l41 -76l-116 -53q33 -24 60 -56q27 -32 46 -77q21 -50 27.5 -100q6.5 -50 6.5 -95q0 -26 -2.5 -57q-2.5 -31 -11 -63.5q-8.5 -32.5 -24 -63.5q-15.5 -31 -42.5 -58q-39 -40 -86.5 -54q-47.5 -14 -101.5 -14q-51 0 -99 14q-48 14 -93 59q-34 34 -52 76.5q-18 42.5 -18 96.5q0 45 15 86q15 41 52 75q33 31 80 48q47 17 95 17q50 0 83 -15.5q33 -15.5 55 -32.5q-3 27 -13 53q-10 26 -27 47q-14 17 -31 29.5q-17 12.5 -35 20.5l-198 -96l-40 76l142 64q-29 7 -62 9.5q-33 2.5 -68 2.5zM295 323q-16 0 -34.5 -6q-18.5 -6 -32.5 -19q-16 -14 -24 -35q-8 -21 -8 -41q0 -20 8 -41q8 -21 24 -35q14 -13 32.5 -19q18.5 -6 34.5 -6q16 0 34.5 6q18.5 6 32.5 19q16 14 24 35q8 21 8 41q0 20 -8 41q-8 21 -24 35q-14 13 -32.5 19t-34.5 6z" />
<glyph unicode="&#241;" horiz-adv-x="585" d="M55 447h160v-56q16 22 35 35q19 13 38 20q19 7 36.5 9q17.5 2 32.5 2q35 0 69.5 -10q34.5 -10 62.5 -38q28 -29 35 -58.5q7 -29.5 7 -66.5v-284h-160v226q0 20 -2 45q-2 25 -18 42q-11 12 -25 15.5q-14 3.5 -26 3.5q-19 0 -34 -6q-15 -6 -25 -15q-12 -11 -19 -31q-7 -20 -7 -40v-240h-160zM471 621q-7 -17 -19 -37q-12 -20 -25 -32q-29 -29 -72 -29q-17 0 -30.5 4q-13.5 4 -27.5 11l-30 15q-17 8 -24.5 10q-7.5 2 -11.5 2q-11 0 -22 -9.5q-11 -9.5 -16 -32.5l-78 46q6 18 17 37.5q11 19.5 23 30.5q13 12 31 20q18 8 39 8q19 0 34 -4.5q15 -4.5 26 -9.5l29 -13q15 -7 25 -11q10 -4 18 -4q9 0 19 9q10 9 18 35z" />
<glyph unicode="&#242;" horiz-adv-x="611" d="M306 326q-20 0 -39 -8q-19 -8 -33 -21q-15 -14 -23 -33.5q-8 -19.5 -8 -39.5q0 -20 8.5 -38.5q8.5 -18.5 22.5 -32.5q30 -30 72 -30q41 0 71 30q15 14 23 32.5q8 18.5 8 38.5q0 18 -8 38q-8 20 -23 35q-14 13 -33 21q-19 8 -38 8zt0 0zM574 224q0 -45 -16 -87q-16 -42 -53 -78q-45 -44 -95.5 -59q-50.5 -15 -104.5 -15q-49 0 -100.5 14q-51.5 14 -98.5 60q-37 36 -53 78q-16 42 -16 87q0 60 22 100q22 40 47 64q28 27 77 50.5q49 23.5 122 23.5q37 0 67.5 -6.5q30.5 -6.5 55.5 -17q25 -10.5 44 -24q19 -13.5 33 -26.5q25 -24 47 -64q22 -40 22 -100zt0 0zM161 656l102 73l126 -154l-74 -55z" />
<glyph unicode="&#243;" horiz-adv-x="611" d="M306 326q-20 0 -39 -8q-19 -8 -33 -21q-15 -14 -23 -33.5q-8 -19.5 -8 -39.5q0 -20 8.5 -38.5q8.5 -18.5 22.5 -32.5q30 -30 72 -30q41 0 71 30q15 14 23 32.5q8 18.5 8 38.5q0 18 -8 38q-8 20 -23 35q-14 13 -33 21q-19 8 -38 8zt0 0zM574 224q0 -45 -16 -87q-16 -42 -53 -78q-45 -44 -95.5 -59q-50.5 -15 -104.5 -15q-49 0 -100.5 14q-51.5 14 -98.5 60q-37 36 -53 78q-16 42 -16 87q0 60 22 100q22 40 47 64q28 27 77 50.5q49 23.5 122 23.5q37 0 67.5 -6.5q30.5 -6.5 55.5 -17q25 -10.5 44 -24q19 -13.5 33 -26.5q25 -24 47 -64q22 -40 22 -100zt0 0zM454 656l-154 -136l-74 55l127 154z" />
<glyph unicode="&#244;" horiz-adv-x="611" d="M306 326q-20 0 -39 -8q-19 -8 -33 -21q-15 -14 -23 -33.5q-8 -19.5 -8 -39.5q0 -20 8.5 -38.5q8.5 -18.5 22.5 -32.5q30 -30 72 -30q41 0 71 30q15 14 23 32.5q8 18.5 8 38.5q0 18 -8 38q-8 20 -23 35q-14 13 -33 21q-19 8 -38 8zt0 0zM574 224q0 -45 -16 -87q-16 -42 -53 -78q-45 -44 -95.5 -59q-50.5 -15 -104.5 -15q-49 0 -100.5 14q-51.5 14 -98.5 60q-37 36 -53 78q-16 42 -16 87q0 60 22 100q22 40 47 64q28 27 77 50.5q49 23.5 122 23.5q37 0 67.5 -6.5q30.5 -6.5 55.5 -17q25 -10.5 44 -24q19 -13.5 33 -26.5q25 -24 47 -64q22 -40 22 -100zt0 0zM112 597l196 147l198 -147l-71 -77l-127 98l-128 -98z" />
<glyph unicode="&#245;" horiz-adv-x="611" d="M306 326q-20 0 -39 -8q-19 -8 -33 -21q-15 -14 -23 -33.5q-8 -19.5 -8 -39.5q0 -20 8.5 -38.5q8.5 -18.5 22.5 -32.5q30 -30 72 -30q41 0 71 30q15 14 23 32.5q8 18.5 8 38.5q0 18 -8 38q-8 20 -23 35q-14 13 -33 21q-19 8 -38 8zt0 0zM574 224q0 -45 -16 -87q-16 -42 -53 -78q-45 -44 -95.5 -59q-50.5 -15 -104.5 -15q-49 0 -100.5 14q-51.5 14 -98.5 60q-37 36 -53 78q-16 42 -16 87q0 60 22 100q22 40 47 64q28 27 77 50.5q49 23.5 122 23.5q37 0 67.5 -6.5q30.5 -6.5 55.5 -17q25 -10.5 44 -24q19 -13.5 33 -26.5q25 -24 47 -64q22 -40 22 -100zt0 0zM478 621q-7 -17 -19 -37q-12 -20 -25 -32q-29 -29 -72 -29q-17 0 -30.5 4q-13.5 4 -27.5 11l-30 15q-17 8 -24.5 10q-7.5 2 -11.5 2q-11 0 -22 -9.5q-11 -9.5 -16 -32.5l-78 46q6 18 17 37.5q11 19.5 23 30.5q13 12 31 20q18 8 39 8q19 0 34 -4.5q15 -4.5 26 -9.5l29 -13q15 -7 25 -11q10 -4 18 -4q9 0 19 9q10 9 18 35z" />
<glyph unicode="&#246;" horiz-adv-x="611" d="M306 326q-20 0 -39 -8q-19 -8 -33 -21q-15 -14 -23 -33.5q-8 -19.5 -8 -39.5q0 -20 8.5 -38.5q8.5 -18.5 22.5 -32.5q30 -30 72 -30q41 0 71 30q15 14 23 32.5q8 18.5 8 38.5q0 18 -8 38q-8 20 -23 35q-14 13 -33 21q-19 8 -38 8zt0 0zM574 224q0 -45 -16 -87q-16 -42 -53 -78q-45 -44 -95.5 -59q-50.5 -15 -104.5 -15q-49 0 -100.5 14q-51.5 14 -98.5 60q-37 36 -53 78q-16 42 -16 87q0 60 22 100q22 40 47 64q28 27 77 50.5q49 23.5 122 23.5q37 0 67.5 -6.5q30.5 -6.5 55.5 -17q25 -10.5 44 -24q19 -13.5 33 -26.5q25 -24 47 -64q22 -40 22 -100zt0 0zM422 523q-36 0 -61 27q-25 28 -25 60q0 23 9 38q9 15 17 23q8 8 22.5 17q14.5 9 37.5 9q17 0 33 -7q16 -7 27 -18q27 -27 27 -62q0 -33 -26 -61q-14 -14 -29.5 -20q-15.5 -6 -31.5 -6zt0 0zM195 523q-36 0 -61 27q-25 28 -25 60q0 23 9 38q9 15 17 23q8 8 22.5 17q14.5 9 37.5 9q17 0 33 -7q16 -7 27 -18q27 -27 27 -62q0 -33 -26 -61q-14 -14 -29.5 -20t-31.5 -6z" />
<glyph unicode="&#247;" horiz-adv-x="500" d="M175 510q0 17 6 30q6 13 15 22q22 22 54 22q17 0 30 -6q13 -6 22 -15q8 -8 15 -21q7 -13 7 -32q0 -15 -5 -28q-5 -13 -17 -25q-23 -21 -52 -21q-34 0 -54 22q-21 21 -21 52zt0 0zM33 400h434v-120h-434zM175 170q0 17 6 30q6 13 15 22q22 22 54 22q17 0 30 -6q13 -6 22 -15q8 -8 15 -21q7 -13 7 -32q0 -15 -5 -28q-5 -13 -17 -25q-23 -21 -52 -21q-34 0 -54 22q-21 21 -21 52z" />
<glyph unicode="&#248;" horiz-adv-x="600" d="M346 314q-9 5 -19.5 8.5q-10.5 3.5 -24.5 3.5q-23 0 -41 -8q-18 -8 -32 -21q-16 -15 -23 -34q-7 -19 -7 -37q0 -12 4 -24q4 -12 9 -22zM260 135q18 -12 42 -12q19 0 37 6.5q18 6.5 35 23.5q17 17 23.5 34q6.5 17 6.5 37q0 12 -2 22.5q-2 10.5 -9 21.5zM507 378q26 -25 44.5 -61.5q18.5 -36.5 18.5 -92.5q0 -45 -16 -87q-16 -42 -53 -78q-45 -44 -95.5 -59q-50.5 -15 -104.5 -15q-46 0 -81 8.5q-35 8.5 -69 27.5l-72 -72l-53 50l68 68q-10 11 -21 26q-11 15 -20 34.5q-9 19.5 -14.5 43.5q-5.5 24 -5.5 53q0 59 22.5 100q22.5 41 46.5 64q13 13 32 26.5q19 13.5 43.5 24q24.5 10.5 55 17q30.5 6.5 68.5 6.5q39 0 75 -7.5q36 -7.5 74 -29.5l71 70l53 -51z" />
<glyph unicode="&#249;" horiz-adv-x="590" d="M215 447v-250q0 -14 4 -32.5q4 -18.5 20 -32.5q12 -11 27 -14q15 -3 29 -3q15 0 29 3q14 3 28 16q15 15 19 31.5q4 16.5 4 31.5v250h160v-279q0 -29 -6.5 -59q-6.5 -30 -36.5 -61q-21 -21 -45 -33.5q-24 -12.5 -49.5 -19q-25.5 -6.5 -50.5 -8.5q-25 -2 -48 -2q-25 0 -52.5 2q-27.5 2 -54 8.5q-26.5 6.5 -51 19.5q-24.5 13 -44.5 34q-26 27 -34 57q-8 30 -8 62v279zM142 656l102 73l126 -154l-74 -55z" />
<glyph unicode="&#250;" horiz-adv-x="590" d="M215 447v-250q0 -14 4 -32.5q4 -18.5 20 -32.5q12 -11 27 -14q15 -3 29 -3q15 0 29 3q14 3 28 16q15 15 19 31.5q4 16.5 4 31.5v250h160v-279q0 -29 -6.5 -59q-6.5 -30 -36.5 -61q-21 -21 -45 -33.5q-24 -12.5 -49.5 -19q-25.5 -6.5 -50.5 -8.5q-25 -2 -48 -2q-25 0 -52.5 2q-27.5 2 -54 8.5q-26.5 6.5 -51 19.5q-24.5 13 -44.5 34q-26 27 -34 57q-8 30 -8 62v279zM450 656l-154 -136l-74 55l127 154z" />
<glyph unicode="&#251;" horiz-adv-x="590" d="M215 447v-250q0 -14 4 -32.5q4 -18.5 20 -32.5q12 -11 27 -14q15 -3 29 -3q15 0 29 3q14 3 28 16q15 15 19 31.5q4 16.5 4 31.5v250h160v-279q0 -29 -6.5 -59q-6.5 -30 -36.5 -61q-21 -21 -45 -33.5q-24 -12.5 -49.5 -19q-25.5 -6.5 -50.5 -8.5q-25 -2 -48 -2q-25 0 -52.5 2q-27.5 2 -54 8.5q-26.5 6.5 -51 19.5q-24.5 13 -44.5 34q-26 27 -34 57q-8 30 -8 62v279zM99 597l196 147l198 -147l-71 -77l-127 98l-128 -98z" />
<glyph unicode="&#252;" horiz-adv-x="590" d="M215 447v-250q0 -14 4 -32.5q4 -18.5 20 -32.5q12 -11 27 -14q15 -3 29 -3q15 0 29 3q14 3 28 16q15 15 19 31.5q4 16.5 4 31.5v250h160v-279q0 -29 -6.5 -59q-6.5 -30 -36.5 -61q-21 -21 -45 -33.5q-24 -12.5 -49.5 -19q-25.5 -6.5 -50.5 -8.5q-25 -2 -48 -2q-25 0 -52.5 2q-27.5 2 -54 8.5q-26.5 6.5 -51 19.5q-24.5 13 -44.5 34q-26 27 -34 57q-8 30 -8 62v279zM409 523q-36 0 -61 27q-25 28 -25 60q0 23 9 38q9 15 17 23q8 8 22.5 17q14.5 9 37.5 9q17 0 33 -7q16 -7 27 -18q27 -27 27 -62q0 -33 -26 -61q-14 -14 -29.5 -20q-15.5 -6 -31.5 -6zt0 0zM182 523q-36 0 -61 27q-25 28 -25 60q0 23 9 38q9 15 17 23q8 8 22.5 17q14.5 9 37.5 9q17 0 33 -7q16 -7 27 -18q27 -27 27 -62q0 -33 -26 -61q-14 -14 -29.5 -20t-31.5 -6z" />
<glyph unicode="&#253;" horiz-adv-x="604" d="M216 61l-216 386h186l119 -229l116 229h183l-359 -676h-179zM458 656l-154 -136l-74 55l127 154z" />
<glyph unicode="&#254;" horiz-adv-x="616" d="M215 -229h-160v958h160v-331q21 26 54 45q33 19 83 19q52 0 92 -19q40 -19 67 -46q28 -28 48 -71.5q20 -43.5 20 -101.5q0 -57 -20 -101q-20 -44 -52 -76q-38 -37 -78.5 -49.5q-40.5 -12.5 -74.5 -12.5q-11 0 -27 1.5q-16 1.5 -34.5 7.5q-18.5 6 -38.5 17.5q-20 11.5 -39 31.5zM313 326q-42 0 -72 -30q-15 -15 -23 -35q-8 -20 -8 -39q0 -20 9 -39q9 -19 22 -32q30 -30 72 -30q43 0 71 30q13 13 22 32q9 19 9 39q0 19 -8 39q-8 20 -23 35q-28 30 -71 30z" />
<glyph unicode="&#255;" horiz-adv-x="604" d="M216 61l-216 386h186l119 -229l116 229h183l-359 -676h-179zM417 523q-36 0 -61 27q-25 28 -25 60q0 23 9 38q9 15 17 23q8 8 22.5 17q14.5 9 37.5 9q17 0 33 -7q16 -7 27 -18q27 -27 27 -62q0 -33 -26 -61q-14 -14 -29.5 -20q-15.5 -6 -31.5 -6zt0 0zM190 523q-36 0 -61 27q-25 28 -25 60q0 23 9 38q9 15 17 23q8 8 22.5 17q14.5 9 37.5 9q17 0 33 -7q16 -7 27 -18q27 -27 27 -62q0 -33 -26 -61q-14 -14 -29.5 -20t-31.5 -6z" />
<glyph unicode="&#256;" horiz-adv-x="710" d="M477 112h-242l-45 -112h-183l256 667h189l251 -667h-185zM431 244l-75 216l-73 -216zM167 847h376v-98l-376 0z" />
<glyph unicode="&#257;" horiz-adv-x="616" d="M401 447h160v-447h-160v49q-14 -19 -31 -31.5q-17 -12.5 -35.5 -19.5q-18.5 -7 -37.5 -10q-19 -3 -35 -3q-36 0 -78 14q-42 14 -83 57q-32 35 -48 74q-16 39 -16 90q0 63 21 107.5q21 44.5 48 71.5q29 29 71 46q42 17 90 17q27 0 48.5 -6q21.5 -6 38 -15q16.5 -9 28.5 -19q12 -10 19 -18zM303 326q-15 0 -34 -6q-19 -6 -36 -23q-17 -16 -24.5 -36q-7.5 -20 -7.5 -37q0 -20 8 -39.5q8 -19.5 23 -33.5q13 -12 32.5 -21q19.5 -9 39.5 -9q41 0 72 31q11 11 20.5 28q9.5 17 9.5 44q0 16 -6 35.5q-6 19.5 -25 37.5q-11 11 -28.5 20q-17.5 9 -43.5 9zt0 0zM117 637h396v-98l-396 0z" />
<glyph unicode="&#258;" horiz-adv-x="710" d="M477 112h-242l-45 -112h-183l256 667h189l251 -667h-185zM431 244l-75 216l-73 -216zM528 877q0 -24 -6 -42.5q-6 -18.5 -13 -32q-7 -13.5 -14.5 -22.5q-7.5 -9 -10.5 -12q-30 -30 -65.5 -37.5q-35.5 -7.5 -64.5 -7.5q-29 0 -64.5 7.5q-35.5 7.5 -65.5 37.5q-3 3 -10.5 12q-7.5 9 -14.5 22.5q-7 13.5 -13 32q-6 18.5 -6 42.5l103 0q3 -26 20 -41q9 -8 23 -13q14 -5 28 -5q14 0 28 5q14 5 23 13q17 15 20 41z" />
<glyph unicode="&#259;" horiz-adv-x="616" d="M401 447h160v-447h-160v49q-14 -19 -31 -31.5q-17 -12.5 -35.5 -19.5q-18.5 -7 -37.5 -10q-19 -3 -35 -3q-36 0 -78 14q-42 14 -83 57q-32 35 -48 74q-16 39 -16 90q0 63 21 107.5q21 44.5 48 71.5q29 29 71 46q42 17 90 17q27 0 48.5 -6q21.5 -6 38 -15q16.5 -9 28.5 -19q12 -10 19 -18zM303 326q-15 0 -34 -6q-19 -6 -36 -23q-17 -16 -24.5 -36q-7.5 -20 -7.5 -37q0 -20 8 -39.5q8 -19.5 23 -33.5q13 -12 32.5 -21q19.5 -9 39.5 -9q41 0 72 31q11 11 20.5 28q9.5 17 9.5 44q0 16 -6 35.5q-6 19.5 -25 37.5q-11 11 -28.5 20q-17.5 9 -43.5 9zt0 0zM489 677q0 -24 -6 -42.5q-6 -18.5 -13 -32q-7 -13.5 -14.5 -22.5q-7.5 -9 -10.5 -12q-30 -30 -65.5 -37.5q-35.5 -7.5 -64.5 -7.5q-29 0 -64.5 7.5q-35.5 7.5 -65.5 37.5q-3 3 -10.5 12q-7.5 9 -14.5 22.5q-7 13.5 -13 32q-6 18.5 -6 42.5l103 0q3 -26 20 -41q9 -8 23 -13q14 -5 28 -5q14 0 28 5q14 5 23 13q17 15 20 41z" />
<glyph unicode="&#260;" horiz-adv-x="710" d="M190 0h-183l256 667h189l251 -667h-106q-8 -5 -19 -13.5q-11 -8.5 -18 -16.5q-21 -23 -21 -46q0 -13 10 -22q9 -9 26 -9q11 0 24.5 5q13.5 5 24.5 13l-22 -86q-11 -6 -27 -12q-16 -6 -39 -6q-25 0 -43.5 8q-18.5 8 -29.5 20q-21 21 -21 55q0 33 21 61q11 15 25.5 27.5q14.5 12.5 29.5 21.5l-43 116h-239zM428 248l-72 212l-72 -212z" />
<glyph unicode="&#261;" horiz-adv-x="616" d="M400 447h160v-447h-40q-9 -6 -20 -14q-11 -8 -19 -16q-8 -7 -13.5 -16.5q-5.5 -9.5 -5.5 -21.5q0 -16 11 -27q4 -4 11 -7.5q7 -3.5 18 -3.5q13 0 25.5 5q12.5 5 23.5 13l-21 -85q-5 -3 -21 -10q-16 -7 -45 -7q-48 0 -72 27q-8 9 -14 23q-6 14 -6 28q0 16 5.5 32q5.5 16 13.5 29q10 14 25 28q15 14 31 23l-47 0v53q-24 -32 -59 -50q-35 -18 -79 -18q-42 0 -84.5 17q-42.5 17 -77.5 54q-33 34 -48 74q-15 40 -15 91q0 62 20.5 106.5q20.5 44.5 47.5 71.5q29 29 70.5 46q41.5 17 85.5 17q41 0 76 -14.5q35 -14.5 63 -43.5zM303 326q-24 0 -41 -8q-17 -8 -30 -21q-19 -18 -25 -37q-6 -19 -6 -36q0 -19 7 -38q7 -19 23 -35q14 -14 33.5 -22q19.5 -8 38.5 -8q17 0 35.5 6.5q18.5 6.5 36.5 24.5q11 11 20.5 28q9.5 17 9.5 44q0 42 -31 73q-13 13 -30 21t-41 8z" />
<glyph unicode="&#262;" horiz-adv-x="589" d="M549 18q-26 -9 -46.5 -15.5q-20.5 -6.5 -38 -10.5q-17.5 -4 -33.5 -5.5q-16 -1.5 -32 -1.5q-88 0 -152 29.5q-64 29.5 -106 70.5q-49 49 -75 113q-26 64 -26 130q0 72 28 136q28 64 73 110q45 45 109.5 74.5q64.5 29.5 142.5 29.5q24 0 63 -6q39 -6 93 -28l0 -207q-21 26 -43 40.5q-22 14.5 -42.5 22q-20.5 7.5 -37.5 9q-17 1.5 -28 1.5q-38 0 -67 -11q-29 -11 -53 -33q-31 -29 -44.5 -65.5q-13.5 -36.5 -13.5 -71.5q0 -35 14 -70q14 -35 40 -60q22 -20 54.5 -33q32.5 -13 69.5 -13q10 0 26 1.5q16 1.5 36.5 8.5q20.5 7 43 21q22.5 14 45.5 39zM544 856l-154 -136l-74 55l127 154z" />
<glyph unicode="&#263;" horiz-adv-x="429" d="M393 10q-32 -16 -59 -20.5q-27 -4.5 -52 -4.5q-33 0 -60 6.5q-27 6.5 -48.5 16q-21.5 9.5 -38.5 21.5q-17 12 -29 24q-32 31 -50.5 74q-18.5 43 -18.5 93q0 50 19 95q19 45 53 78q32 30 77.5 49q45.5 19 102.5 19q21 0 47.5 -5q26.5 -5 56.5 -20l0 -134q-16 11 -36.5 20q-20.5 9 -46.5 9q-29 0 -47.5 -9.5q-18.5 -9.5 -30.5 -21.5q-17 -17 -24 -37q-7 -20 -7 -40q0 -19 7 -39q7 -20 21 -36q11 -12 31 -23q20 -11 51 -11q17 0 38.5 5.5q21.5 5.5 43.5 24.5zM434 656l-154 -136l-74 55l127 154z" />
<glyph unicode="&#264;" horiz-adv-x="589" d="M549 18q-26 -9 -46.5 -15.5q-20.5 -6.5 -38 -10.5q-17.5 -4 -33.5 -5.5q-16 -1.5 -32 -1.5q-88 0 -152 29.5q-64 29.5 -106 70.5q-49 49 -75 113q-26 64 -26 130q0 72 28 136q28 64 73 110q45 45 109.5 74.5q64.5 29.5 142.5 29.5q24 0 63 -6q39 -6 93 -28l0 -207q-21 26 -43 40.5q-22 14.5 -42.5 22q-20.5 7.5 -37.5 9q-17 1.5 -28 1.5q-38 0 -67 -11q-29 -11 -53 -33q-31 -29 -44.5 -65.5q-13.5 -36.5 -13.5 -71.5q0 -35 14 -70q14 -35 40 -60q22 -20 54.5 -33q32.5 -13 69.5 -13q10 0 26 1.5q16 1.5 36.5 8.5q20.5 7 43 21q22.5 14 45.5 39zM203 797l196 147l198 -147l-71 -77l-127 98l-128 -98z" />
<glyph unicode="&#265;" horiz-adv-x="429" d="M393 10q-32 -16 -59 -20.5q-27 -4.5 -52 -4.5q-33 0 -60 6.5q-27 6.5 -48.5 16q-21.5 9.5 -38.5 21.5q-17 12 -29 24q-32 31 -50.5 74q-18.5 43 -18.5 93q0 50 19 95q19 45 53 78q32 30 77.5 49q45.5 19 102.5 19q21 0 47.5 -5q26.5 -5 56.5 -20l0 -134q-16 11 -36.5 20q-20.5 9 -46.5 9q-29 0 -47.5 -9.5q-18.5 -9.5 -30.5 -21.5q-17 -17 -24 -37q-7 -20 -7 -40q0 -19 7 -39q7 -20 21 -36q11 -12 31 -23q20 -11 51 -11q17 0 38.5 5.5q21.5 5.5 43.5 24.5zM83 597l196 147l198 -147l-71 -77l-127 98l-128 -98z" />
<glyph unicode="&#266;" horiz-adv-x="589" d="M549 18q-26 -9 -46.5 -15.5q-20.5 -6.5 -38 -10.5q-17.5 -4 -33.5 -5.5q-16 -1.5 -32 -1.5q-88 0 -152 29.5q-64 29.5 -106 70.5q-49 49 -75 113q-26 64 -26 130q0 72 28 136q28 64 73 110q45 45 109.5 74.5q64.5 29.5 142.5 29.5q24 0 63 -6q39 -6 93 -28l0 -207q-21 26 -43 40.5q-22 14.5 -42.5 22q-20.5 7.5 -37.5 9q-17 1.5 -28 1.5q-38 0 -67 -11q-29 -11 -53 -33q-31 -29 -44.5 -65.5q-13.5 -36.5 -13.5 -71.5q0 -35 14 -70q14 -35 40 -60q22 -20 54.5 -33q32.5 -13 69.5 -13q10 0 26 1.5q16 1.5 36.5 8.5q20.5 7 43 21q22.5 14 45.5 39zM374 723q-19 0 -35 7q-16 7 -29 19q-8 8 -17.5 23.5q-9.5 15.5 -9.5 39.5q0 21 7.5 38q7.5 17 19.5 29q26 26 64 26q38 0 64 -26q11 -11 19 -28q8 -17 8 -37q0 -18 -6 -34.5q-6 -16.5 -21 -30.5q-15 -14 -31.5 -20t-32.5 -6z" />
<glyph unicode="&#267;" horiz-adv-x="429" d="M393 10q-32 -16 -59 -20.5q-27 -4.5 -52 -4.5q-33 0 -60 6.5q-27 6.5 -48.5 16q-21.5 9.5 -38.5 21.5q-17 12 -29 24q-32 31 -50.5 74q-18.5 43 -18.5 93q0 50 19 95q19 45 53 78q32 30 77.5 49q45.5 19 102.5 19q21 0 47.5 -5q26.5 -5 56.5 -20l0 -134q-16 11 -36.5 20q-20.5 9 -46.5 9q-29 0 -47.5 -9.5q-18.5 -9.5 -30.5 -21.5q-17 -17 -24 -37q-7 -20 -7 -40q0 -19 7 -39q7 -20 21 -36q11 -12 31 -23q20 -11 51 -11q17 0 38.5 5.5q21.5 5.5 43.5 24.5zM260 523q-19 0 -35 7q-16 7 -29 19q-8 8 -17.5 23.5q-9.5 15.5 -9.5 39.5q0 21 7.5 38q7.5 17 19.5 29q26 26 64 26q38 0 64 -26q11 -11 19 -28q8 -17 8 -37q0 -18 -6 -34.5q-6 -16.5 -21 -30.5q-15 -14 -31.5 -20t-32.5 -6z" />
<glyph unicode="&#268;" horiz-adv-x="589" d="M549 18q-26 -9 -46.5 -15.5q-20.5 -6.5 -38 -10.5q-17.5 -4 -33.5 -5.5q-16 -1.5 -32 -1.5q-88 0 -152 29.5q-64 29.5 -106 70.5q-49 49 -75 113q-26 64 -26 130q0 72 28 136q28 64 73 110q45 45 109.5 74.5q64.5 29.5 142.5 29.5q24 0 63 -6q39 -6 93 -28l0 -207q-21 26 -43 40.5q-22 14.5 -42.5 22q-20.5 7.5 -37.5 9q-17 1.5 -28 1.5q-38 0 -67 -11q-29 -11 -53 -33q-31 -29 -44.5 -65.5q-13.5 -36.5 -13.5 -71.5q0 -35 14 -70q14 -35 40 -60q22 -20 54.5 -33q32.5 -13 69.5 -13q10 0 26 1.5q16 1.5 36.5 8.5q20.5 7 43 21q22.5 14 45.5 39zM203 867l68 77l128 -98l127 98l71 -77l-198 -147z" />
<glyph unicode="&#269;" horiz-adv-x="429" d="M393 10q-32 -16 -59 -20.5q-27 -4.5 -52 -4.5q-33 0 -60 6.5q-27 6.5 -48.5 16q-21.5 9.5 -38.5 21.5q-17 12 -29 24q-32 31 -50.5 74q-18.5 43 -18.5 93q0 50 19 95q19 45 53 78q32 30 77.5 49q45.5 19 102.5 19q21 0 47.5 -5q26.5 -5 56.5 -20l0 -134q-16 11 -36.5 20q-20.5 9 -46.5 9q-29 0 -47.5 -9.5q-18.5 -9.5 -30.5 -21.5q-17 -17 -24 -37q-7 -20 -7 -40q0 -19 7 -39q7 -20 21 -36q11 -12 31 -23q20 -11 51 -11q17 0 38.5 5.5q21.5 5.5 43.5 24.5zM93 667l68 77l128 -98l127 98l71 -77l-198 -147z" />
<glyph unicode="&#270;" horiz-adv-x="695" d="M70 0v667h227q25 0 57.5 -2.5q32.5 -2.5 68 -12q35.5 -9.5 71.5 -28q36 -18.5 68 -49.5q29 -28 47.5 -59.5q18.5 -31.5 28.5 -63q10 -31.5 13.5 -62.5q3.5 -31 3.5 -58q0 -66 -19 -124q-19 -58 -68 -107q-40 -40 -105 -70.5q-65 -30.5 -151 -30.5zM243 147h35q16 0 34.5 1.5q18.5 1.5 37.5 6q19 4.5 38 14q19 9.5 36 26.5q17 16 34 48.5q17 32.5 17 88.5q0 47 -13.5 85q-13.5 38 -38.5 61q-31 29 -68.5 35.5q-37.5 6.5 -69.5 6.5h-42zM113 867l68 77l128 -98l127 98l71 -77l-198 -147z" />
<glyph unicode="&#271;" horiz-adv-x="772" d="M561 0h-160v49q-17 -22 -36 -34.5q-19 -12.5 -37 -19q-18 -6.5 -34 -8.5q-16 -2 -28 -2q-48 0 -86.5 15.5q-38.5 15.5 -70.5 46.5q-34 33 -53 78.5q-19 45.5 -19 99.5q0 57 21 102.5q21 45.5 52 74.5q33 32 74.5 46q41.5 14 83.5 14q46 0 78.5 -17.5q32.5 -17.5 54.5 -40.5l0 325h160zM303 121q20 0 38 8q18 8 31 19q16 14 25 35q9 21 9 41q0 19 -9 39q-9 20 -21 33q-28 30 -73 30q-26 0 -43 -9q-17 -9 -28 -20q-14 -14 -22.5 -33.5q-8.5 -19.5 -8.5 -42.5q0 -17 7.5 -35.5q7.5 -18.5 23.5 -34.5q17 -17 35.5 -23.5q18.5 -6.5 35.5 -6.5zt0 0zM652 700l150 -26l-104 -202l-100 18z" />
<glyph unicode="&#272;" horiz-adv-x="737" d="M112 0v296h-92v120h92v251h227q25 0 57.5 -2.5q32.5 -2.5 68 -12q35.5 -9.5 71.5 -28q36 -18.5 68 -49.5q29 -28 47.5 -59.5q18.5 -31.5 28.5 -63q10 -31.5 13.5 -62.5q3.5 -31 3.5 -58q0 -66 -19 -124q-19 -58 -68 -107q-40 -40 -105 -70.5q-65 -30.5 -151 -30.5zM285 416h118v-120h-118v-149h35q16 0 34.5 1.5q18.5 1.5 37.5 6q19 4.5 38 14q19 9.5 36 26.5q17 16 34 48.5q17 32.5 17 88.5q0 47 -13.5 85q-13.5 38 -38.5 61q-31 29 -68.5 35.5q-37.5 6.5 -69.5 6.5l-42 0z" />
<glyph unicode="&#273;" horiz-adv-x="614" d="M560 634h82v-108h-82v-526h-160v49q-7 -9 -17.5 -20q-10.5 -11 -26.5 -21q-16 -10 -38 -16.5q-22 -6.5 -52 -6.5q-55 0 -93.5 18.5q-38.5 18.5 -64.5 43.5q-33 32 -52 78.5q-19 46.5 -19 99.5q0 48 18 95q18 47 54 82q33 31 75 45.5q42 14.5 84 14.5q38 0 72 -14.5q34 -14.5 60 -43.5l0 122h-164v108h164v95h160zM302 121q20 0 39 8q19 8 31 19q15 14 24 35q9 21 9 41q0 18 -9 39q-9 21 -20 33q-13 14 -32 22q-19 8 -42 8q-42 0 -71 -29q-15 -15 -22.5 -36q-7.5 -21 -7.5 -40q0 -17 8 -36q8 -19 22 -34q14 -14 33 -22t38 -8z" />
<glyph unicode="&#274;" horiz-adv-x="489" d="M449 520h-206v-111h195v-147h-195v-115h206v-147h-379v667h379zM72 847h376v-98l-376 0z" />
<glyph unicode="&#275;" horiz-adv-x="566" d="M529 194h-333q0 -18 7 -39.5q7 -21.5 21 -35.5q8 -8 23.5 -15q15.5 -7 42.5 -7q3 0 20 2q17 2 32 10q8 5 15.5 12q7.5 7 12.5 18l153 0q-5 -19 -17 -43.5q-12 -24.5 -37 -48.5q-25 -24 -67 -43q-42 -19 -115 -19q-44 0 -94 13.5q-50 13.5 -91 54.5q-11 11 -22.5 26.5q-11.5 15.5 -21.5 36.5q-10 21 -16 47.5q-6 26.5 -6 58.5q0 57 19 100.5q19 43.5 48 72.5q28 27 72.5 46q44.5 19 110.5 19q39 0 85.5 -12q46.5 -12 86.5 -49q24 -23 38 -48q14 -25 21.5 -50q7.5 -25 9.5 -48q2 -23 2 -42zM382 286q-3 13 -10 26q-7 13 -16 22q-16 16 -35 20q-19 4 -31 4q-41 0 -65 -24q-8 -9 -15 -21q-7 -12 -9 -27zM88 637h396v-98l-396 0z" />
<glyph unicode="&#278;" horiz-adv-x="489" d="M449 520h-206v-111h195v-147h-195v-115h206v-147h-379v667h379zM260 723q-19 0 -35 7q-16 7 -29 19q-8 8 -17.5 23.5q-9.5 15.5 -9.5 39.5q0 21 7.5 38q7.5 17 19.5 29q26 26 64 26q38 0 64 -26q11 -11 19 -28q8 -17 8 -37q0 -18 -6 -34.5q-6 -16.5 -21 -30.5q-15 -14 -31.5 -20t-32.5 -6z" />
<glyph unicode="&#279;" horiz-adv-x="566" d="M529 194h-333q0 -18 7 -39.5q7 -21.5 21 -35.5q8 -8 23.5 -15q15.5 -7 42.5 -7q3 0 20 2q17 2 32 10q8 5 15.5 12q7.5 7 12.5 18l153 0q-5 -19 -17 -43.5q-12 -24.5 -37 -48.5q-25 -24 -67 -43q-42 -19 -115 -19q-44 0 -94 13.5q-50 13.5 -91 54.5q-11 11 -22.5 26.5q-11.5 15.5 -21.5 36.5q-10 21 -16 47.5q-6 26.5 -6 58.5q0 57 19 100.5q19 43.5 48 72.5q28 27 72.5 46q44.5 19 110.5 19q39 0 85.5 -12q46.5 -12 86.5 -49q24 -23 38 -48q14 -25 21.5 -50q7.5 -25 9.5 -48q2 -23 2 -42zM382 286q-3 13 -10 26q-7 13 -16 22q-16 16 -35 20q-19 4 -31 4q-41 0 -65 -24q-8 -9 -15 -21q-7 -12 -9 -27zM286 523q-19 0 -35 7q-16 7 -29 19q-8 8 -17.5 23.5q-9.5 15.5 -9.5 39.5q0 21 7.5 38q7.5 17 19.5 29q26 26 64 26q38 0 64 -26q11 -11 19 -28q8 -17 8 -37q0 -18 -6 -34.5q-6 -16.5 -21 -30.5q-15 -14 -31.5 -20t-32.5 -6z" />
<glyph unicode="&#280;" horiz-adv-x="489" d="M449 520h-206v-111h195v-147h-195v-115h206v-147h-40q-8 -5 -19 -13.5q-11 -8.5 -18 -16.5q-21 -23 -21 -46q0 -13 10 -22q9 -9 26 -9q11 0 24.5 5q13.5 5 24.5 13l-22 -86q-11 -6 -27 -12q-16 -6 -39 -6q-25 0 -43.5 8q-18.5 8 -29.5 20q-21 21 -21 55q0 33 21 61q11 15 25.5 27.5q14.5 12.5 29.5 21.5l-260 0v667l379 0z" />
<glyph unicode="&#281;" horiz-adv-x="566" d="M529 194h-333q0 -21 7.5 -42q7.5 -21 21.5 -34q10 -9 26 -15.5q16 -6.5 42 -6.5q16 0 28 3.5q12 3.5 24 11.5q17 11 25 27l153 0q-8 -30 -22.5 -53.5q-14.5 -23.5 -31.5 -40.5q-15 -14 -30.5 -23.5q-15.5 -9.5 -28.5 -16.5q-13 -8 -25.5 -15.5q-12.5 -7.5 -23.5 -18.5q-8 -7 -13.5 -16.5q-5.5 -9.5 -5.5 -21.5q0 -16 11 -27q4 -4 11 -7.5q7 -3.5 18 -3.5q13 0 25.5 5q12.5 5 23.5 13l-21 -85q-5 -3 -21 -10q-16 -7 -45 -7q-48 0 -72 27q-8 10 -14 23.5q-6 13.5 -6 27.5q0 12 3.5 26.5q3.5 14.5 13.5 30.5q15 25 37 40q-6 -1 -12 -1q-6 0 -13 0q-43 0 -92.5 15q-49.5 15 -90.5 57q-10 11 -21 26.5q-11 15.5 -20 35.5q-9 20 -15 46q-6 26 -6 58q0 62 20.5 104.5q20.5 42.5 46.5 68.5q28 27 72.5 46q44.5 19 110.5 19q39 0 85.5 -12q46.5 -12 86.5 -49q24 -23 38 -48q14 -25 21.5 -50q7.5 -25 9.5 -48q2 -23 2 -42zM382 286q-3 13 -10 26q-7 13 -16 22q-10 10 -26 17q-16 7 -40 7q-17 0 -34 -5q-17 -5 -31 -19q-8 -8 -15 -20.5q-7 -12.5 -9 -27.5z" />
<glyph unicode="&#282;" horiz-adv-x="489" d="M449 520h-206v-111h195v-147h-195v-115h206v-147h-379v667h379zM63 867l68 77l128 -98l127 98l71 -77l-198 -147z" />
<glyph unicode="&#283;" horiz-adv-x="566" d="M529 194h-333q0 -18 7 -39.5q7 -21.5 21 -35.5q8 -8 23.5 -15q15.5 -7 42.5 -7q3 0 20 2q17 2 32 10q8 5 15.5 12q7.5 7 12.5 18l153 0q-5 -19 -17 -43.5q-12 -24.5 -37 -48.5q-25 -24 -67 -43q-42 -19 -115 -19q-44 0 -94 13.5q-50 13.5 -91 54.5q-11 11 -22.5 26.5q-11.5 15.5 -21.5 36.5q-10 21 -16 47.5q-6 26.5 -6 58.5q0 57 19 100.5q19 43.5 48 72.5q28 27 72.5 46q44.5 19 110.5 19q39 0 85.5 -12q46.5 -12 86.5 -49q24 -23 38 -48q14 -25 21.5 -50q7.5 -25 9.5 -48q2 -23 2 -42zM382 286q-3 13 -10 26q-7 13 -16 22q-16 16 -35 20q-19 4 -31 4q-41 0 -65 -24q-8 -9 -15 -21q-7 -12 -9 -27zM89 667l68 77l128 -98l127 98l71 -77l-198 -147z" />
<glyph unicode="&#284;" horiz-adv-x="774" d="M390 378h344q0 -99 -23.5 -172q-23.5 -73 -83.5 -128q-53 -49 -112 -66.5q-59 -17.5 -123 -17.5q-90 0 -153 29q-63 29 -103 70q-19 19 -36 43.5q-17 24.5 -30.5 54.5q-13.5 30 -21.5 66q-8 36 -8 77q0 80 28 143.5q28 63.5 72 106.5q42 42 106 70q64 28 153 28q47 0 94.5 -11q47.5 -11 85.5 -34q39 -24 70 -61q31 -37 49 -76l-165 -68q-9 23 -22 39.5q-13 16.5 -26 27.5q-22 18 -45 25.5q-23 7.5 -48 7.5q-31 0 -61 -11.5q-30 -11.5 -53 -34.5q-29 -29 -43.5 -71.5q-14.5 -42.5 -14.5 -81.5q0 -46 15 -82.5q15 -36.5 38 -61.5q48 -51 122 -51q23 0 48 5.5q25 5.5 48 25.5q12 10 24 28q12 18 17 46l-142 0zM203 797l196 147l198 -147l-71 -77l-127 98l-128 -98z" />
<glyph unicode="&#285;" horiz-adv-x="613" d="M558 447v-419q0 -25 -2 -49q-2 -24 -8 -47q-6 -23 -18 -45.5q-12 -22.5 -33 -43.5q-21 -22 -45.5 -36q-24.5 -14 -50 -22q-25.5 -8 -51.5 -11q-26 -3 -50 -3q-63 0 -114.5 17.5q-51.5 17.5 -94.5 61.5q-20 20 -32 42q-12 22 -17 51l178 0q2 -7 6.5 -15q4.5 -8 13 -15q8.5 -7 22 -11.5q13.5 -4.5 33.5 -4.5q19 0 37 5q18 5 34 20q20 19 26 41q6 22 6 42v45q-19 -20 -37 -31.5q-18 -11.5 -35 -17.5q-17 -6 -33 -8q-16 -2 -29 -2q-62 0 -102 20q-40 20 -63 43q-30 31 -46 74q-16 43 -16 89q0 53 18.5 98.5q18.5 45.5 47.5 76.5q32 34 74.5 51q42.5 17 87.5 17q10 0 25.5 -2q15.5 -2 33.5 -8q18 -6 37 -17.5q19 -11.5 37 -31.5l0 46zM303 327q-41 0 -71 -30q-17 -18 -24 -37q-7 -19 -7 -35q0 -20 8 -39q8 -19 23 -34q16 -16 35 -22.5q19 -6.5 37 -6.5q19 0 38.5 8q19.5 8 33.5 22q15 15 22.5 35q7.5 20 7.5 37q0 17 -9 38q-9 21 -23 35q-14 14 -32.5 21.5q-18.5 7.5 -38.5 7.5zt0 0zM103 597l196 147l198 -147l-71 -77l-127 98l-128 -98z" />
<glyph unicode="&#286;" horiz-adv-x="774" d="M390 378h344q0 -99 -23.5 -172q-23.5 -73 -83.5 -128q-53 -49 -112 -66.5q-59 -17.5 -123 -17.5q-90 0 -153 29q-63 29 -103 70q-19 19 -36 43.5q-17 24.5 -30.5 54.5q-13.5 30 -21.5 66q-8 36 -8 77q0 80 28 143.5q28 63.5 72 106.5q42 42 106 70q64 28 153 28q47 0 94.5 -11q47.5 -11 85.5 -34q39 -24 70 -61q31 -37 49 -76l-165 -68q-9 23 -22 39.5q-13 16.5 -26 27.5q-22 18 -45 25.5q-23 7.5 -48 7.5q-31 0 -61 -11.5q-30 -11.5 -53 -34.5q-29 -29 -43.5 -71.5q-14.5 -42.5 -14.5 -81.5q0 -46 15 -82.5q15 -36.5 38 -61.5q48 -51 122 -51q23 0 48 5.5q25 5.5 48 25.5q12 10 24 28q12 18 17 46l-142 0zM569 877q0 -24 -6 -42.5q-6 -18.5 -13 -32q-7 -13.5 -14.5 -22.5q-7.5 -9 -10.5 -12q-30 -30 -65.5 -37.5q-35.5 -7.5 -64.5 -7.5q-29 0 -64.5 7.5q-35.5 7.5 -65.5 37.5q-3 3 -10.5 12q-7.5 9 -14.5 22.5q-7 13.5 -13 32q-6 18.5 -6 42.5l103 0q3 -26 20 -41q9 -8 23 -13q14 -5 28 -5q14 0 28 5q14 5 23 13q17 15 20 41z" />
<glyph unicode="&#287;" horiz-adv-x="613" d="M558 447v-419q0 -25 -2 -49q-2 -24 -8 -47q-6 -23 -18 -45.5q-12 -22.5 -33 -43.5q-21 -22 -45.5 -36q-24.5 -14 -50 -22q-25.5 -8 -51.5 -11q-26 -3 -50 -3q-63 0 -114.5 17.5q-51.5 17.5 -94.5 61.5q-20 20 -32 42q-12 22 -17 51l178 0q2 -7 6.5 -15q4.5 -8 13 -15q8.5 -7 22 -11.5q13.5 -4.5 33.5 -4.5q19 0 37 5q18 5 34 20q20 19 26 41q6 22 6 42v45q-19 -20 -37 -31.5q-18 -11.5 -35 -17.5q-17 -6 -33 -8q-16 -2 -29 -2q-62 0 -102 20q-40 20 -63 43q-30 31 -46 74q-16 43 -16 89q0 53 18.5 98.5q18.5 45.5 47.5 76.5q32 34 74.5 51q42.5 17 87.5 17q10 0 25.5 -2q15.5 -2 33.5 -8q18 -6 37 -17.5q19 -11.5 37 -31.5l0 46zM303 327q-41 0 -71 -30q-17 -18 -24 -37q-7 -19 -7 -35q0 -20 8 -39q8 -19 23 -34q16 -16 35 -22.5q19 -6.5 37 -6.5q19 0 38.5 8q19.5 8 33.5 22q15 15 22.5 35q7.5 20 7.5 37q0 17 -9 38q-9 21 -23 35q-14 14 -32.5 21.5q-18.5 7.5 -38.5 7.5zt0 0zM474 677q0 -24 -6 -42.5q-6 -18.5 -13 -32q-7 -13.5 -14.5 -22.5q-7.5 -9 -10.5 -12q-30 -30 -65.5 -37.5q-35.5 -7.5 -64.5 -7.5q-29 0 -64.5 7.5q-35.5 7.5 -65.5 37.5q-3 3 -10.5 12q-7.5 9 -14.5 22.5q-7 13.5 -13 32q-6 18.5 -6 42.5l103 0q3 -26 20 -41q9 -8 23 -13q14 -5 28 -5q14 0 28 5q14 5 23 13q17 15 20 41z" />
<glyph unicode="&#288;" horiz-adv-x="774" d="M390 378h344q0 -99 -23.5 -172q-23.5 -73 -83.5 -128q-53 -49 -112 -66.5q-59 -17.5 -123 -17.5q-90 0 -153 29q-63 29 -103 70q-19 19 -36 43.5q-17 24.5 -30.5 54.5q-13.5 30 -21.5 66q-8 36 -8 77q0 80 28 143.5q28 63.5 72 106.5q42 42 106 70q64 28 153 28q47 0 94.5 -11q47.5 -11 85.5 -34q39 -24 70 -61q31 -37 49 -76l-165 -68q-9 23 -22 39.5q-13 16.5 -26 27.5q-22 18 -45 25.5q-23 7.5 -48 7.5q-31 0 -61 -11.5q-30 -11.5 -53 -34.5q-29 -29 -43.5 -71.5q-14.5 -42.5 -14.5 -81.5q0 -46 15 -82.5q15 -36.5 38 -61.5q48 -51 122 -51q23 0 48 5.5q25 5.5 48 25.5q12 10 24 28q12 18 17 46l-142 0zM398 723q-19 0 -35 7q-16 7 -29 19q-8 8 -17.5 23.5q-9.5 15.5 -9.5 39.5q0 21 7.5 38q7.5 17 19.5 29q26 26 64 26q38 0 64 -26q11 -11 19 -28q8 -17 8 -37q0 -18 -6 -34.5q-6 -16.5 -21 -30.5q-15 -14 -31.5 -20t-32.5 -6z" />
<glyph unicode="&#289;" horiz-adv-x="613" d="M558 447v-419q0 -25 -2 -49q-2 -24 -8 -47q-6 -23 -18 -45.5q-12 -22.5 -33 -43.5q-21 -22 -45.5 -36q-24.5 -14 -50 -22q-25.5 -8 -51.5 -11q-26 -3 -50 -3q-63 0 -114.5 17.5q-51.5 17.5 -94.5 61.5q-20 20 -32 42q-12 22 -17 51l178 0q2 -7 6.5 -15q4.5 -8 13 -15q8.5 -7 22 -11.5q13.5 -4.5 33.5 -4.5q19 0 37 5q18 5 34 20q20 19 26 41q6 22 6 42v45q-19 -20 -37 -31.5q-18 -11.5 -35 -17.5q-17 -6 -33 -8q-16 -2 -29 -2q-62 0 -102 20q-40 20 -63 43q-30 31 -46 74q-16 43 -16 89q0 53 18.5 98.5q18.5 45.5 47.5 76.5q32 34 74.5 51q42.5 17 87.5 17q10 0 25.5 -2q15.5 -2 33.5 -8q18 -6 37 -17.5q19 -11.5 37 -31.5l0 46zM303 327q-41 0 -71 -30q-17 -18 -24 -37q-7 -19 -7 -35q0 -20 8 -39q8 -19 23 -34q16 -16 35 -22.5q19 -6.5 37 -6.5q19 0 38.5 8q19.5 8 33.5 22q15 15 22.5 35q7.5 20 7.5 37q0 17 -9 38q-9 21 -23 35q-14 14 -32.5 21.5q-18.5 7.5 -38.5 7.5zt0 0zM300 523q-19 0 -35 7q-16 7 -29 19q-8 8 -17.5 23.5q-9.5 15.5 -9.5 39.5q0 21 7.5 38q7.5 17 19.5 29q26 26 64 26q38 0 64 -26q11 -11 19 -28q8 -17 8 -37q0 -18 -6 -34.5q-6 -16.5 -21 -30.5q-15 -14 -31.5 -20t-32.5 -6z" />
<glyph unicode="&#290;" horiz-adv-x="774" d="M390 378h344q0 -99 -23.5 -172q-23.5 -73 -83.5 -128q-53 -49 -112 -66.5q-59 -17.5 -123 -17.5q-90 0 -153 29q-63 29 -103 70q-19 19 -36 43.5q-17 24.5 -30.5 54.5q-13.5 30 -21.5 66q-8 36 -8 77q0 80 28 143.5q28 63.5 72 106.5q42 42 106 70q64 28 153 28q47 0 94.5 -11q47.5 -11 85.5 -34q39 -24 70 -61q31 -37 49 -76l-165 -68q-9 23 -22 39.5q-13 16.5 -26 27.5q-22 18 -45 25.5q-23 7.5 -48 7.5q-31 0 -61 -11.5q-30 -11.5 -53 -34.5q-29 -29 -43.5 -71.5q-14.5 -42.5 -14.5 -81.5q0 -46 15 -82.5q15 -36.5 38 -61.5q48 -51 122 -51q23 0 48 5.5q25 5.5 48 25.5q12 10 24 28q12 18 17 46l-142 0zM322 -50l150 -16l-102 -194l-100 12z" />
<glyph unicode="&#291;" horiz-adv-x="613" d="M558 447v-419q0 -25 -2 -49q-2 -24 -8 -47q-6 -23 -18 -45.5q-12 -22.5 -33 -43.5q-21 -22 -45.5 -36q-24.5 -14 -50 -22q-25.5 -8 -51.5 -11q-26 -3 -50 -3q-63 0 -114.5 17.5q-51.5 17.5 -94.5 61.5q-20 20 -32 42q-12 22 -17 51l178 0q2 -7 6.5 -15q4.5 -8 13 -15q8.5 -7 22 -11.5q13.5 -4.5 33.5 -4.5q19 0 37 5q18 5 34 20q20 19 26 41q6 22 6 42v45q-19 -20 -37 -31.5q-18 -11.5 -35 -17.5q-17 -6 -33 -8q-16 -2 -29 -2q-62 0 -102 20q-40 20 -63 43q-30 31 -46 74q-16 43 -16 89q0 53 18.5 98.5q18.5 45.5 47.5 76.5q32 34 74.5 51q42.5 17 87.5 17q10 0 25.5 -2q15.5 -2 33.5 -8q18 -6 37 -17.5q19 -11.5 37 -31.5l0 46zM303 327q-41 0 -71 -30q-17 -18 -24 -37q-7 -19 -7 -35q0 -20 8 -39q8 -19 23 -34q16 -16 35 -22.5q19 -6.5 37 -6.5q19 0 38.5 8q19.5 8 33.5 22q15 15 22.5 35q7.5 20 7.5 37q0 17 -9 38q-9 21 -23 35q-14 14 -32.5 21.5q-18.5 7.5 -38.5 7.5zt0 0zM358 510l-150 16l102 184l100 -12z" />
<glyph unicode="&#292;" horiz-adv-x="737" d="M243 418h250v249h174v-667h-174v270h-250v-270h-173v667h173zM171 797l196 147l198 -147l-71 -77l-127 98l-128 -98z" />
</font>
</defs>
</svg>
