<?xml version="1.0" standalone="no"?><!DOCTYPE svg PUBLIC "-//W3C//DTD SVG 1.1//EN" "http://www.w3.org/Graphics/SVG/1.1/DTD/svg11.dtd"><svg width="100%" height="100%" viewBox="0 0 200 78" version="1.1" xmlns="http://www.w3.org/2000/svg" xmlns:xlink="http://www.w3.org/1999/xlink" xml:space="preserve" style="fill-rule:evenodd;clip-rule:evenodd;stroke-linejoin:round;stroke-miterlimit:1.41421;"><path id="cloud-3" d="M171.034,39.3949c19.3849,4.58384 28.5975,11.5256 28.8603,18.8532c0.466549,13.0114 -6.73612,17.9976 -42.1377,18.4645c-0.310448,0.00409409 -37.5585,1.09617 -59.6136,1.09617c-19.2693,0 -52.9338,-0.212608 -53.0044,-0.211427c-36.6868,0.613521 -43.8481,-8.4781 -44.2002,-18.603c-0.195302,-5.61611 5.60678,-13.0712 29.4394,-18.4097c0.167247,-12.2456 13.8627,-26.4602 30.5622,-26.4602c5.94454,0 11.5217,1.64294 16.2473,4.31085c8.496,-12.2049 24.9885,-18.3825 42.893,-18.3825c25.9339,0 49.1537,15.5659 50.9394,39.1295c0.00538468,0.0710528 0.0102397,0.141971 0.0144071,0.212742Z" style="fill:#fff;"/></svg>