<?xml version="1.0" standalone="no"?><!DOCTYPE svg PUBLIC "-//W3C//DTD SVG 1.1//EN" "http://www.w3.org/Graphics/SVG/1.1/DTD/svg11.dtd"><svg width="100%" height="100%" viewBox="0 0 1920 161" version="1.1" xmlns="http://www.w3.org/2000/svg" xmlns:xlink="http://www.w3.org/1999/xlink" xml:space="preserve" style="fill-rule:evenodd;clip-rule:evenodd;stroke-linejoin:round;stroke-miterlimit:1.41421;"><path id="hills-forground" d="M-5.17435e-17,91c0,0 68.0324,-47.9543 107.263,-61.5362c43.5965,-15.0936 101.92,-30.8751 154.317,-29.0255c62.7825,2.21615 159.04,30.1079 222.378,42.3224c52.59,10.1417 103.999,31.5149 157.654,30.9647c60.6696,-0.622147 132.203,-15.069 206.364,-34.6975c74.1602,-19.6285 178.677,-33.5981 252.962,-28.8079c67.1809,4.33206 139.211,41.0564 192.749,57.549c43.0181,13.2518 84.0064,33.6509 128.48,41.4065c57.7279,10.067 144.957,18.4388 217.887,18.9954c73.6615,0.562195 177.175,-2.37512 224.081,-15.6223c30.4076,-8.58769 55.8642,-21.5486 55.8642,-21.5486l-9.09495e-13,70l-1920,-1.13687e-13l0,-70Z" style="fill:#bed17a;"/></svg>