<?xml version="1.0" standalone="no"?><!DOCTYPE svg PUBLIC "-//W3C//DTD SVG 1.1//EN" "http://www.w3.org/Graphics/SVG/1.1/DTD/svg11.dtd"><svg width="100%" height="100%" viewBox="0 0 263 730" version="1.1" xmlns="http://www.w3.org/2000/svg" xmlns:xlink="http://www.w3.org/1999/xlink" xml:space="preserve" style="fill-rule:evenodd;clip-rule:evenodd;stroke-linejoin:round;stroke-miterlimit:1.41421;"><g id="mother/newborn"><path d="M136.126,118.761c31.7449,0 57.4453,-26.5541 57.4453,-59.3544c0,-32.7946 -25.7004,-59.4063 -57.4453,-59.4063c-31.7564,0 -57.4569,26.6117 -57.4569,59.4063c-2.27374e-13,32.8004 25.7004,59.3544 57.4569,59.3544Z" style="fill:#f47b63;fill-rule:nonzero;"/><path d="M238.022,169.106c-2.87803,-8.6341 -19.1254,-34.8825 -63.3225,-35.1247l-86.5256,0.178796c-42.8879,-2.39356 -59.9946,22.9551 -62.665,34.2192c0,0 -29.0168,92.4778 -24.0163,113.887c3.0626,13.3405 38.3834,27.9556 62.9188,40.0502l-44.9527,178.006l60.8828,0l0,208.147c0,11.8928 9.6319,21.5305 21.5305,21.5305c11.8928,0 21.5305,-9.63767 21.5305,-21.5305l0,-208.147l24.6104,0l0,208.147c0,11.8928 9.6319,21.5305 21.5305,21.5305c11.8928,0 21.5305,-9.63767 21.5305,-21.5305l0,-208.147l59.1872,0l-44.0587,-181.524c21.9227,-11.5814 53.4196,-25.2621 56.2226,-37.3625c5.01205,-21.6747 -24.4027,-112.33 -24.4027,-112.33ZM141.467,291.172c-1.23427,0 -2.40509,-0.0173028 -3.51824,-0.0173028l-0.0634437,0c-4.30263,0 -8.20153,-0.438338 -11.6448,-0.830535c-22.1937,-2.60696 -28.5035,-10.9008 -28.763,-19.2292c-4.04309,1.76489 -8.45531,2.79152 -13.1559,2.79152c-18.018,0 -32.587,-14.8516 -32.587,-33.1349c0,-18.3468 14.569,-33.181 32.587,-33.181c17.7008,0 30.6548,14.3786 31.122,32.264c5.65225,-4.02579 7.95929,-5.98677 14.1133,-6.77117l0,0.126887c6.15403,-1.23427 13.1444,0 13.1444,0c21.7381,4.82172 70.6935,26.1849 70.6935,26.1849c0,0 -25.0256,32.0563 -71.9278,31.7968Z" style="fill:#f47b63;fill-rule:nonzero;"/></g></svg>