<?xml version="1.0" standalone="no"?><!DOCTYPE svg PUBLIC "-//W3C//DTD SVG 1.1//EN" "http://www.w3.org/Graphics/SVG/1.1/DTD/svg11.dtd"><svg width="100%" height="100%" viewBox="0 0 730 313" version="1.1" xmlns="http://www.w3.org/2000/svg" xmlns:xlink="http://www.w3.org/1999/xlink" xml:space="preserve" style="fill-rule:evenodd;clip-rule:evenodd;stroke-linejoin:round;stroke-miterlimit:1.41421;"><g id="oxcart"><g id="anc-delivery"><path d="M159.459,111.611c1.54952,-0.086558 3.13961,0.29958 4.54236,1.20724l31.1671,20.167c3.52086,2.27821 4.52824,6.97928 2.25003,10.5001c-2.27821,3.52086 -6.97928,4.52824 -10.5001,2.25003l-29.2858,-18.9497l-8.34148,0l0.0451936,0.110669l-53.9966,5.11591e-13l10.2721,-39.6358c-2.19674,1.51011 -5.19294,1.06596 -7.48571,-0.571392l-22.0106,-15.6941c-2.93138,-2.0863 -3.92292,-6.80868 -0.761055,-9.90812c3.15946,-3.10424 18.7719,-18.2629 18.7719,-18.2629c7.37527,-7.16881 20.3252,-8.14833 26.4257,0.304902l26.1952,39.354c2.15592,3.45236 3.41875,7.76901 3.41875,12.1385c0,6.49178 -2.76813,12.5706 -7.18321,16.6928c-0.000383273,0.00114982 0.0397766,0.101398 0.114037,0.284871l15.935,0c0.143385,0 0.285842,0.00397425 0.427302,0.0118491ZM104.114,75.1819l-15.6941,-11.1878l11.7567,-11.4446l5.47864,24.2217c-0.410538,-0.600201 -0.914707,-1.14278 -1.54132,-1.58933Z" style="fill:#f47963;"/><path d="M129.235,16.2294c0,-8.955 -7.31285,-16.2294 -16.3183,-16.2294c-9.00302,0 -16.3111,7.27444 -16.3111,16.2294c0,8.955 7.30805,16.2294 16.3111,16.2294c9.00542,0 16.3183,-7.27444 16.3183,-16.2294" style="fill:#f47b63;"/></g><g id="cart"><path d="M357.065,218.489c0,7.61227 -5.32878,13.7832 -11.9022,13.7832l-325.326,0c-6.57339,0 -11.9022,-6.17096 -11.9022,-13.7832l0,-27.5665c8.52651e-14,-1.3415e-11 8.52651e-14,-41.3497 8.52651e-14,-41.3497l349.13,0l0,68.9161Z" style="fill:#985b3c;"/><rect x="0" y="148.273" width="365" height="9.52174" style="fill:#6b342a;"/><rect x="7.93478" y="126.785" width="263.435" height="22.7871" style="fill:#6b342a;"/><rect x="271.37" y="133.703" width="47.6087" height="15.8696" style="fill:#985b3c;"/><path d="M449.094,181.704l-107.839,26.8776l3.13004,12.5584l107.839,-26.8776l-3.13004,-12.5584Z" style="fill:#985b3c;"/><rect x="7.93478" y="98.2841" width="84.1087" height="28.5652" style="fill:#985b3c;"/></g><g id="wheel"><circle cx="150.761" cy="233.554" r="23.8043" style="fill:#bf7d31;"/><rect x="147.587" y="170.076" width="6.34783" height="126.957" style="fill:#bf7d31;"/><path d="M108.119,186.424l-4.48859,4.48859l89.7718,89.7718l4.48859,-4.48859l-89.7718,-89.7718Z" style="fill:#bf7d31;"/><path d="M87.2826,230.38l9.09495e-13,6.34783l126.957,-1.35856e-11l-9.09495e-13,-6.34783l-126.957,1.35856e-11Z" style="fill:#bf7d31;"/><path d="M103.631,276.196l4.48859,4.48859l89.7718,-89.7718l-4.48859,-4.48859l-89.7718,89.7718Z" style="fill:#bf7d31;"/><path d="M150.761,154.206c43.8226,0 79.3478,35.5252 79.3478,79.3478c0,43.8226 -35.5252,79.3478 -79.3478,79.3478c-43.8226,0 -79.3478,-35.5252 -79.3478,-79.3478c0,-43.8226 35.5252,-79.3478 79.3478,-79.3478ZM150.761,170.076c35.0581,0 63.4783,28.4202 63.4783,63.4783c0,35.0581 -28.4202,63.4783 -63.4783,63.4783c-35.0581,0 -63.4783,-28.4202 -63.4783,-63.4783c0,-35.0581 28.4202,-63.4783 63.4783,-63.4783Z" style="fill:#bf7d31;"/></g><g id="chw-on-cart"><path d="M348.734,123.521l1.7053e-13,24.7525l-17.4687,0l-1.13687e-13,-14.5625l-34.2969,0c-1.43643e-10,-4.54747e-13 -10.4966,-4.54747e-13 -10.4966,-4.54747e-13c-7.87041,0 -14.2506,-6.38023 -14.2506,-14.2506l0,-58.1079c0,-7.87041 6.38023,-14.2506 14.2506,-14.2506l12.2453,0c6.98067,0 12.789,5.01921 14.0131,11.6456l17.7717,8.11285c0.324725,0.148238 0.631997,0.319071 0.920756,0.509791l24.7404,-8.77415c2.85517,-1.01258 5.99059,0.481133 7.00317,3.3363c1.01258,2.85516 -0.481133,5.99059 -3.3363,7.00317l-30.4531,10.8001c-1.98125,0.702646 -4.09745,0.19846 -5.54559,-1.13007l-10.8635,-4.95922l0,39.6847l25.5762,0c0.653989,0 1.29359,0.0616085 1.91329,0.179372c4.61113,0.241696 8.27677,4.11616 8.27677,8.86031l5.68434e-14,1.15038Z" style="fill:#63a3c8;"/><circle cx="293.572" cy="23.4711" r="19.4096" style="fill:#63a3c8;"/></g><path id="ox" d="M718.543,87.9665c1.52068,1.14602 -3.21451,14.6778 5.09096,12.7384c-2.92171,8.18583 -10.4495,8.38733 -11.4633,16.5511c-1.51123,12.2536 11.5987,21.5098 17.8294,29.2958c-3.48842,12.6251 -20.6881,13.7994 -29.299,5.09096c-8.49752,1.8733 -16.4252,-0.815435 -22.914,2.5502c-15.6948,8.13231 -8.87533,37.7461 -15.2823,57.3071c-5.85287,17.8829 -17.6499,21.258 -21.6515,33.1117c2.48408,10.9785 -0.639124,20.7763 1.27195,29.299c2.05275,9.13035 12.0552,13.664 11.4696,22.9203c-2.05275,1.90163 -6.3881,-1.10509 -11.4696,0c-2.43371,-6.4794 -5.87176,-11.9608 -10.1882,-16.5574c-0.68635,-8.22361 1.48289,-19.3091 -1.26566,-25.4705c-10.5219,13.6798 -2.39278,36.4962 7.64116,44.575c-18.1505,6.46366 -24.0349,-16.4346 -19.1013,-33.1148c-5.26412,-8.7431 -12.9557,-15.0619 -11.4633,-30.5646c-10.6983,-1.84181 -20.8078,3.82845 -31.8334,5.08781c-29.8374,3.43175 -61.3654,-3.55139 -87.8749,-6.36291c-5.56951,10.8179 -7.59708,25.7476 -5.09411,39.4809c2.39908,13.1257 15.9403,21.6389 19.1013,30.5646c-30.423,5.57581 -23.3359,-34.1664 -39.4777,-45.847c0.749318,-9.43889 3.13265,-17.2501 2.5502,-28.0176c-5.33024,11.0855 -18.1631,25.417 -19.1013,40.7497c-0.711538,11.5767 6.66201,18.6417 10.1882,29.2927c-4.67537,0 -9.34129,0 -14.0104,0c-2.23536,-7.15001 -2.67929,-10.4779 -2.5502,-20.3796c0.144826,-11.1768 -5.85917,-25.4013 -5.09096,-34.3836c0.695796,-8.11971 8.4377,-15.1595 8.91311,-22.9172c0.535227,-8.71476 -4.96502,-19.1989 -7.64431,-28.0176c-2.67299,-8.82496 -4.63759,-18.7707 -11.4602,-24.1986c-2.7391,38.9142 7.468,76.7138 2.54705,109.517c-10.1882,-3.58917 -6.36606,-17.2154 -6.36606,-25.4737c0,-17.9144 -0.340027,-33.6249 -1.27195,-52.213c-1.3664,-27.3438 -8.50697,-55.4244 0,-71.308c40.841,-13.6105 93.6239,-1.30973 149.001,-3.82215c27.0888,-1.23102 57.6534,-1.2814 73.8614,-5.09411c7.87414,-1.85441 14.1426,-8.69272 22.9235,-6.36606c-0.00944519,-6.36291 -6.62423,-11.4728 -2.55335,-17.8294c6.40699,0.384104 9.49556,4.09292 15.2823,5.09411c7.76709,-6.24327 10.5031,-17.5177 26.7425,-15.2823c-2.4526,4.76352 -12.7919,1.64346 -11.4665,10.1882c9.1272,2.29518 22.977,-1.64031 25.48,-10.1945Z" style="fill:#be8e4e;fill-rule:nonzero;"/></g></svg>