<?xml version="1.0" encoding="utf-8"?>
<!-- Generator: Adobe Illustrator 17.0.0, SVG Export Plug-In . SVG Version: 6.00 Build 0)  -->
<!DOCTYPE svg PUBLIC "-//W3C//DTD SVG 1.1//EN" "http://www.w3.org/Graphics/SVG/1.1/DTD/svg11.dtd">
<svg version="1.1" id="Layer_1" xmlns="http://www.w3.org/2000/svg" xmlns:xlink="http://www.w3.org/1999/xlink" x="0px" y="0px"
	 width="612px" height="792px" viewBox="0 0 612 792" enable-background="new 0 0 612 792" xml:space="preserve">
<g id="village">
	<path display="none" fill="#BB8555" d="M595.954,250.449c0-3.557,0-11.837-103.311-64.492c0-0.171,0-0.334,0-0.477
		c0-9.667-3.614-15.892-9.226-15.892c-5.613,0-9.255,6.224-9.255,15.892c0,0.171,0,0.334,0,0.477
		c-103.319,52.655-103.319,60.935-103.319,64.492c0,2.276,0.028,8.977,21.206,16.368c-0.775,28.924,0.085,33.818,0.391,35.454
		l0.47,2.611l8.06,4.311l1.28,0.498c10.692,2.639,37.539,7.42,64.023,9.063l5.307,0.334l2.468,0.078
		c3.308,0.114,6.616,0.221,9.838,0.221c6.644,0,14.341-0.413,22.372-1.081h0.05c29.678-2.497,63.831-8.643,66.776-11.588
		c2.113-2.056,2.305-2.39,1.892-39.929C595.926,259.398,595.954,252.725,595.954,250.449L595.954,250.449z M461.799,307.5
		c-23.511-1.807-46.324-5.869-56.326-8.259l-2.561-1.359c-0.249-3.557-0.441-11.254-0.028-27.701
		c0.363,0.107,0.783,0.192,1.167,0.277c0.918,0.221,1.864,0.441,2.781,0.662c2.027,0.505,4.055,0.975,6.196,1.423
		c1.06,0.221,2.113,0.441,3.194,0.662c2.141,0.42,4.339,0.839,6.559,1.224c1.06,0.199,2.113,0.363,3.222,0.555
		c2.589,0.42,5.229,0.811,7.896,1.138c0.747,0.114,1.501,0.228,2.248,0.306c3.471,0.448,7.007,0.839,10.585,1.174
		c0.839,0.078,1.672,0.135,2.504,0.192c2.781,0.249,5.556,0.469,8.394,0.64c1.302,0.078,2.639,0.135,3.969,0.221
		c2.39,0.135,4.809,0.249,7.227,0.334c1.444,0.057,2.917,0.107,4.361,0.135c0.918,0.028,1.835,0.057,2.753,0.085
		C469.161,283.52,463.961,293.713,461.799,307.5L461.799,307.5z M564.028,298.579c-8.672,1.999-33.683,6.865-58.965,8.92
		c-2.17-13.758-7.363-23.98-14.177-28.262c0.946-0.028,1.864-0.057,2.81-0.085c1.416-0.028,2.86-0.078,4.282-0.135
		c2.468-0.085,4.887-0.199,7.334-0.334c1.33-0.085,2.639-0.142,3.969-0.221c2.81-0.199,5.613-0.42,8.366-0.64
		c0.861-0.085,1.722-0.142,2.561-0.221c3.578-0.334,7.085-0.726,10.528-1.174c0.889-0.107,1.75-0.249,2.639-0.356
		c2.554-0.334,5.058-0.697,7.533-1.117c1.167-0.192,2.305-0.384,3.443-0.583c2.141-0.356,4.226-0.747,6.281-1.167
		c1.167-0.221,2.305-0.469,3.443-0.69c2.056-0.448,4.033-0.889,5.975-1.394c1.003-0.249,1.999-0.469,2.974-0.718
		c0.334-0.085,0.697-0.171,1.003-0.249C564.164,286.906,564.135,294.852,564.028,298.579L564.028,298.579z"/>
	<path display="none" fill="#CCA374" d="M341.96,214.142c0-1.884,0-6.269-54.717-34.157c0-0.09,0-0.177,0-0.252
		c0-5.12-1.914-8.417-4.887-8.417c-2.973,0-4.902,3.297-4.902,8.417c0,0.09,0,0.177,0,0.252
		c-54.721,27.888-54.721,32.274-54.721,34.157c0,1.206,0.015,4.755,11.231,8.669c-0.411,15.319,0.045,17.911,0.207,18.778
		l0.249,1.383l4.269,2.283l0.678,0.264c5.663,1.398,19.882,3.93,33.909,4.8l2.811,0.177l1.307,0.041
		c1.752,0.06,3.504,0.117,5.211,0.117c3.519,0,7.596-0.219,11.849-0.573h0.026c15.719-1.322,33.807-4.578,35.367-6.137
		c1.119-1.089,1.221-1.266,1.002-21.148C341.945,218.882,341.96,215.348,341.96,214.142L341.96,214.142z M270.906,244.359
		c-12.452-0.957-24.535-3.108-29.832-4.374l-1.356-0.72c-0.132-1.884-0.234-5.96-0.015-14.671c0.192,0.057,0.414,0.102,0.618,0.147
		c0.486,0.117,0.987,0.234,1.473,0.35c1.074,0.268,2.148,0.516,3.282,0.754c0.561,0.117,1.119,0.234,1.692,0.35
		c1.134,0.222,2.298,0.445,3.474,0.648c0.561,0.105,1.119,0.192,1.707,0.294c1.371,0.222,2.769,0.43,4.182,0.603
		c0.396,0.06,0.795,0.121,1.191,0.162c1.839,0.237,3.711,0.445,5.606,0.622c0.445,0.041,0.885,0.072,1.326,0.102
		c1.473,0.132,2.943,0.249,4.446,0.339c0.689,0.041,1.398,0.072,2.102,0.117c1.266,0.072,2.547,0.132,3.828,0.177
		c0.765,0.03,1.545,0.057,2.31,0.072c0.486,0.015,0.972,0.03,1.458,0.045C274.806,231.658,272.051,237.057,270.906,244.359
		L270.906,244.359z M325.051,239.634c-4.593,1.059-17.84,3.636-31.23,4.725c-1.149-7.287-3.9-12.701-7.509-14.969
		c0.501-0.015,0.987-0.03,1.488-0.045c0.75-0.015,1.515-0.041,2.268-0.072c1.307-0.045,2.588-0.105,3.884-0.177
		c0.705-0.045,1.398-0.075,2.102-0.117c1.488-0.105,2.973-0.222,4.431-0.339c0.456-0.045,0.912-0.075,1.356-0.117
		c1.895-0.177,3.753-0.384,5.576-0.622c0.471-0.057,0.927-0.132,1.398-0.188c1.353-0.177,2.679-0.369,3.99-0.592
		c0.618-0.102,1.221-0.203,1.824-0.309c1.134-0.188,2.238-0.396,3.327-0.618c0.618-0.117,1.221-0.249,1.824-0.365
		c1.089-0.237,2.136-0.471,3.165-0.738c0.531-0.132,1.059-0.249,1.575-0.381c0.177-0.045,0.369-0.09,0.531-0.132
		C325.122,233.452,325.107,237.66,325.051,239.634L325.051,239.634z"/>
	<path display="none" fill="#231F20" d="M132.767,360.761l9.356-0.268c-3.07-0.104-6.183-0.268-9.287-0.476
		C132.802,360.294,132.767,360.527,132.767,360.761L132.767,360.761z"/>
	<path display="none" fill="#AD7739" d="M276.36,290.936c0-4.364,0-14.523-126.759-79.124c0-0.209,0-0.375,0-0.585
		c0-11.861-4.469-19.497-11.32-19.497c-6.886,0-11.354,7.671-11.354,19.497c0,0.209,0,0.41,0,0.585
		c-126.75,64.601-126.75,74.76-126.75,79.124c0,2.802,0.035,11.014,26.008,20.082c-1.222,45.479,0.41,46.876,3.552,49.328
		c5.114,4.023,51.239,12.105,87.511,14.392l6.476,0.41l3.072,0.061c4.058,0.14,8.117,0.279,12.035,0.279
		c8.143,0,17.586-0.515,27.404-1.335h0.105c36.341-3.028,78.277-10.569,81.961-14.243c2.522-2.522,2.793-2.932,2.313-48.996
		C276.326,301.881,276.361,293.738,276.36,290.936L276.36,290.936z M111.793,360.896c-32.763-2.487-62.969-8.387-72.203-10.875
		c-0.314-3.753-0.62-12.926-0.105-34.91c0.48,0.131,1.021,0.236,1.501,0.375c1.021,0.271,2.112,0.506,3.168,0.785
		c2.557,0.646,5.184,1.222,7.907,1.807c1.231,0.236,2.426,0.506,3.648,0.751c2.767,0.541,5.559,1.056,8.422,1.562
		c1.196,0.209,2.356,0.41,3.543,0.62c3.412,0.541,6.921,1.056,10.473,1.527c0.681,0.105,1.327,0.209,2.007,0.279
		c4.364,0.541,8.797,1.056,13.327,1.466c0.62,0.061,1.265,0.096,1.876,0.166c3.823,0.34,7.672,0.646,11.555,0.89
		c1.335,0.061,2.662,0.131,4.023,0.236c3.273,0.175,6.581,0.34,9.888,0.445c1.501,0.07,3.002,0.105,4.503,0.131
		c1.257,0.035,2.522,0.105,3.779,0.105C120.791,331.511,114.42,344.017,111.793,360.896L111.793,360.896z M237.217,349.987
		c-10.665,2.452-41.351,8.422-72.343,10.909c-2.662-16.879-9.033-29.386-17.385-34.674c1.292-0.035,2.592-0.07,3.884-0.131
		c1.431-0.035,2.863-0.07,4.329-0.14c3.412-0.105,6.79-0.271,10.159-0.48c1.3-0.07,2.557-0.131,3.858-0.201
		c4.023-0.271,8.047-0.585,11.965-0.925c0.506-0.035,1.056-0.061,1.536-0.131c4.565-0.445,9.033-0.925,13.432-1.501
		c0.681-0.105,1.327-0.209,2.007-0.271c3.578-0.48,7.061-0.995,10.499-1.536c1.196-0.209,2.356-0.41,3.552-0.611
		c2.863-0.515,5.69-1.03,8.448-1.571c1.231-0.244,2.461-0.48,3.648-0.751c2.767-0.576,5.42-1.231,8.012-1.876
		c0.995-0.236,2.051-0.48,3.002-0.751c0.48-0.131,0.951-0.236,1.396-0.34C237.427,335.769,237.322,345.448,237.217,349.987
		L237.217,349.987z"/>
	<path fill="#925B1D" d="M611.523,460.263c0-10.529,0-22.461-166.918-111.772c-0.926-0.504-1.963-0.899-3.008-1.146
		c-0.394-0.11-0.752-0.183-1.073-0.293c-0.963-1-2.073-1.862-3.329-2.54c-30.275-16.123-56.395-29.623-68.785-35.97
		c0-0.394,0-0.752,0-1.146c0-22.708-8.529-37.401-21.709-37.401c-13.225,0-21.754,14.693-21.754,37.401c0,0.394,0,0.752,0,1.146
		c-18.306,9.391-66.667,34.393-114.569,60.723c-128.5,70.619-128.5,80.965-128.5,90.961c0,5.374,0.064,21.103,49.865,38.52
		c-2.366,87.448,0.752,89.916,6.768,94.611c9.822,7.704,98.271,23.286,167.845,27.624l12.473,0.789l5.264,0.101
		c7.988,0.294,15.903,0.468,23.68,0.468c15.545,0,33.53-0.926,52.268-2.504h0.504v-0.037
		c69.711-5.842,150.034-20.278,157.133-27.303c4.833-4.797,5.365-5.374,4.439-93.933C611.45,481.256,611.523,465.6,611.523,460.263
		L611.523,460.263z M295.927,594.467c-62.76-4.797-120.731-16.123-138.387-20.92c-0.578-7.2-1.22-24.79-0.183-66.96
		c0.504,0.147,1.073,0.248,1.614,0.394c5.118,1.33,10.354,2.651,15.802,3.87c0.926,0.211,1.898,0.431,2.861,0.605
		c5.264,1.183,10.675,2.293,16.197,3.338c0.605,0.101,1.211,0.248,1.862,0.358c5.943,1.11,12.033,2.146,18.233,3.109
		c1.146,0.183,2.293,0.367,3.439,0.541c6.273,0.972,12.647,1.862,19.131,2.651c0.642,0.073,1.321,0.147,1.972,0.248
		c6.521,0.789,13.143,1.541,19.883,2.192c0.468,0.037,0.89,0.101,1.357,0.138c6.952,0.688,14.014,1.256,21.14,1.761
		c0.899,0.073,1.752,0.138,2.651,0.174c7.273,0.504,14.582,0.935,21.965,1.256c0.064,0,0.138,0,0.211,0
		c7.631,0.321,15.335,0.578,23.103,0.715c0.183,0,0.367,0,0.541,0C313.233,538.045,300.981,562.047,295.927,594.467L295.927,594.467
		z M536.464,573.474c-20.452,4.732-79.314,16.16-138.717,20.957c-5.09-32.384-17.38-56.385-33.393-66.492
		c0.257,0,0.504-0.037,0.789-0.037c7.667-0.138,15.334-0.394,22.892-0.715c0.073,0,0.147,0,0.22,0
		c7.447-0.321,14.83-0.752,22.14-1.256c0.789-0.037,1.614-0.101,2.403-0.174c7.273-0.504,14.436-1.11,21.525-1.788
		c0.22,0,0.394-0.037,0.578-0.073c7.089-0.679,14.078-1.467,20.957-2.33c0.431-0.037,0.825-0.11,1.22-0.147
		c6.732-0.825,13.326-1.752,19.847-2.761c0.862-0.138,1.715-0.248,2.577-0.394c6.484-1,12.895-2.109,19.095-3.256
		c0.11-0.037,0.22-0.037,0.321-0.073c6.163-1.183,12.18-2.403,18.058-3.724c0.605-0.147,1.22-0.248,1.788-0.394
		c5.732-1.293,11.327-2.687,16.738-4.118c0.321-0.073,0.679-0.147,1-0.257C536.822,546.208,536.675,564.807,536.464,573.474
		L536.464,573.474z"/>
</g>
</svg>
