<?xml version="1.0" standalone="no"?><!DOCTYPE svg PUBLIC "-//W3C//DTD SVG 1.1//EN" "http://www.w3.org/Graphics/SVG/1.1/DTD/svg11.dtd"><svg width="100%" height="100%" viewBox="0 0 500 520" version="1.1" xmlns="http://www.w3.org/2000/svg" xmlns:xlink="http://www.w3.org/1999/xlink" xml:space="preserve" style="fill-rule:evenodd;clip-rule:evenodd;stroke-linejoin:round;stroke-miterlimit:1.41421;"><path d="M15.4591,68.3486c-8.05305,-27.7912 21.1944,-20.4749 21.1944,-20.4749c-8.77829,-24.136 29.9843,-17.5508 51.1961,13.8898c21.206,31.4464 57.7696,66.5479 115.539,73.1331c57.7696,6.58517 95.7954,20.4691 128.704,-26.3291c34.0572,-65.7009 76.6955,-76.7535 90.0863,-78.6159l0.591795,-1.18939c-4.05554,-0.208869 -7.31041,-3.49275 -7.31041,-7.60631c0,-3.74223 2.7385,-6.71281 6.28347,-7.38583c-0.203067,-0.684626 -0.429342,-1.36925 -0.429342,-2.1177c0,-4.2354 3.44053,-7.67013 7.68173,-7.67013c1.70576,0 3.20846,0.661418 4.47908,1.61293c1.34024,-2.23954 3.69002,-3.81186 6.48074,-3.81186c2.30916,0 4.31662,1.06755 5.72069,2.68048c1.28222,-2.431 3.76544,-4.14837 6.71281,-4.14837c3.73063,0 6.70121,2.7269 7.38583,6.26607c1.38666,-1.37505 3.29549,-2.23374 5.41899,-2.23374c4.22959,0 7.67013,3.43473 7.67013,7.67593c0,1.38086 -0.464153,2.61086 -1.10236,3.73643c0.713635,-0.214671 1.42147,-0.446747 2.19892,-0.446747c4.2354,0 7.67593,3.44053 7.67593,7.67593c0,1.43887 -0.504766,2.7211 -1.19519,3.86988c2.83133,1.13137 4.8504,3.86407 4.8504,7.10734c0,3.17945 -1.93204,5.91215 -4.68214,7.07833c1.90883,1.39826 3.22586,3.53917 3.22586,6.0804c0,3.37671 -2.21053,6.15583 -5.23332,7.19437c0.771654,0.974721 1.2068,1.58972 1.2068,1.58972c18.1252,14.2495 20.1907,39.0759 20.1907,39.0759c-14.1625,-12.0622 -26.2769,-10.6117 -26.7004,-10.5537c10.7567,21.85 3.75964,31.7829 -3.0344,31.1215c-7.41484,-0.725239 -9.12061,-6.6664 -8.47079,-13.6287l-1.00373,1.53751c1.45628,40.9557 25.8649,51.9097 17.017,103.257c-13.2516,76.8985 -49.9603,134.651 -101.116,147.537c-46.8737,11.8069 -40.2189,62.8869 -78.9756,70.2263c-2.18152,0.411936 -4.77497,0.78906 -7.68173,1.10236c3.0402,9.50353 11.0642,34.5794 14.1509,43.8218c3.84087,11.511 33.0071,23.0278 46.0556,25.3311c13.0485,2.30336 12.271,2.29756 18.4153,4.60092c6.14423,2.30336 9.98509,5.37837 3.07501,5.37837c-6.91008,0 -26.8629,-1.54331 -30.7037,-1.54331c-3.83506,0 15.3519,9.98509 18.4269,15.3519c3.07501,5.38417 -22.2619,-9.21344 -46.8272,-18.4269c-24.5653,-9.19603 -33.0013,3.06921 -41.4431,6.90428c-7.81518,3.55657 -15.3577,2.30916 -9.20763,-3.06341c6.14423,-5.36677 10.7393,-9.97929 10.7393,-9.97929c-6.15003,-6.15583 -19.1811,-7.68173 -29.1662,-4.61252c-9.97929,3.08082 -27.6345,9.98509 -23.8052,1.54331c3.85247,-8.44178 26.8629,-6.14423 26.8629,-16.1119c0,-9.96769 -6.13262,-39.1455 -10.7393,-46.0556c-2.23374,-3.36511 -6.46333,-5.80771 -10.2288,-7.42645c-10.1417,-2.33237 -20.4169,-5.55243 -30.315,-9.97349c-59.2201,-13.884 -62.1443,-59.9628 -74.5778,-73.1273c-12.4393,-13.1587 -5.12309,-20.4749 -5.12309,-20.4749c-13.8956,-1.46208 -5.84833,-21.206 -5.84833,-21.206c-34.3589,3.66681 -34.3647,-33.6337 -34.3647,-33.6337c-26.3349,1.46208 -24.8786,-22.6739 -24.8786,-22.6739c-19.0129,-2.91836 -11.6967,-30.7211 -11.6967,-30.7211c-41.6867,-17.5508 -13.9014,-44.5993 -13.9014,-44.5993c-38.7568,-26.3291 -3.6494,-41.6809 -3.6494,-41.6809c-37.2947,-3.6552 -13.9014,-30.7153 -13.9014,-30.7153c-20.4517,-17.5624 8.07626,-24.1418 8.07626,-24.1418ZM467.086,19.7112c0.0812268,-0.174057 0.214671,-0.301699 0.301699,-0.452549c-0.168255,0.0464153 -0.342313,0.0580191 -0.51637,0.104434l0.214671,0.348115ZM473.16,40.0295l0,0.0290096c0.00580191,-0.00580191 0.00580191,-0.0174057 0.0116038,-0.0174057c-0.00580191,0.00580191 -0.00580191,0 -0.0116038,-0.0116038ZM273.493,477.07c13.0543,9.79363 17.6494,2.30336 13.0543,-11.5052c-3.81186,-11.4124 -14.4294,-32.2586 -17.9917,-39.1397c-4.71695,-0.0870287 -9.73561,-0.324907 -14.9631,-0.794862c0.411936,11.5458 3.17945,38.9018 19.9006,51.4398Z" style="fill:#984a3c;fill-rule:nonzero;"/></svg>