<?xml version="1.0" standalone="no"?><!DOCTYPE svg PUBLIC "-//W3C//DTD SVG 1.1//EN" "http://www.w3.org/Graphics/SVG/1.1/DTD/svg11.dtd"><svg width="100%" height="100%" viewBox="0 0 95 37" version="1.1" xmlns="http://www.w3.org/2000/svg" xmlns:xlink="http://www.w3.org/1999/xlink" xml:space="preserve" style="fill-rule:evenodd;clip-rule:evenodd;stroke-linejoin:round;stroke-miterlimit:1.41421;"><path id="cloud-4" d="M13.8762,18.5803c-9.13289,2.15961 -13.4733,5.43012 -13.5971,8.88239c-0.219807,6.13015 3.17362,8.4793 19.8525,8.69926c0.146263,0.00192887 17.6951,0.516446 28.0861,0.516446c9.07843,0 24.939,-0.100167 24.9723,-0.0996106c17.2844,0.289051 20.6584,-3.99433 20.8243,-8.76453c0.0920134,-2.64595 -2.64155,-6.1583 -13.8699,-8.67347c-0.0787961,-5.76935 -6.5312,-12.4663 -14.3989,-12.4663c-2.80068,0 -5.4283,0.774047 -7.65467,2.03099c-4.00276,-5.75018 -11.7729,-8.66066 -20.2084,-8.66066c-12.2184,0 -23.158,7.33364 -23.9994,18.4353c-0.00253691,0.0334755 -0.00482429,0.0668877 -0.00678771,0.10023Z" style="fill:#fff;"/></svg>