<?xml version="1.0" standalone="no"?><!DOCTYPE svg PUBLIC "-//W3C//DTD SVG 1.1//EN" "http://www.w3.org/Graphics/SVG/1.1/DTD/svg11.dtd"><svg width="100%" height="100%" viewBox="0 0 1921 465" version="1.1" xmlns="http://www.w3.org/2000/svg" xmlns:xlink="http://www.w3.org/1999/xlink" xml:space="preserve" style="fill-rule:evenodd;clip-rule:evenodd;stroke-linejoin:round;stroke-miterlimit:1.41421;"><g id="Layer1"><path id="path-R-L" d="M0.0335175,0.199568l120.655,2.14548c0,0 76.9656,1.8737 75.0992,16.934c-1.26963,10.2445 -56.7598,15.6732 -73.4906,16.962c-25.9091,1.99582 -44.7259,5.99605 -40.3602,15.2382c4.38955,9.29263 49.6901,6.93741 72.2878,5.43447c23.8141,-1.58385 142.588,-1.59313 142.157,14.8525c-0.495588,18.9036 -125.175,29.5187 -148.448,56.3831c-28.8366,33.2869 48.2368,74.8653 92.6333,103.548c51.2734,33.1253 127.298,65.092 200.292,90.3177c69.8258,24.1308 144.06,34.6185 217.51,42.5521c78.6719,8.49753 169.636,7.8657 254.521,8.43308c210.278,1.40551 1007.14,0 1007.14,0l0,90c0,0 -798.257,3.21801 -1008.48,0c-84.5167,-1.29377 -170.942,-7.02843 -252.844,-19.3081c-80.66,-12.0934 -162.891,-26.7648 -238.568,-54.3698c-75.6762,-27.605 -163.519,-69.6769 -215.49,-111.26c-43.8543,-35.0896 -106.889,-96.3646 -96.3321,-138.241c12.0892,-47.954 154.982,-52.3095 157.177,-69.2568c1.42013,-10.9677 -154.511,-3.53456 -154.511,-3.53456c0,0 -64.287,3.935 -62.1204,-15.0413c0.975293,-8.54203 24.649,-18.1005 80.8045,-22.6443c11.6242,-0.940574 40.4166,-2.80923 41.0431,-9.77013c0.958634,-10.6507 -33.4412,-10.7067 -50.4887,-10.9984c-34.5969,-0.591938 -120.227,-0.375936 -120.227,-0.375936l0.0335175,-8Z" style="fill:url(#tag1);"/></g><defs><linearGradient id="tag1" x1="0" y1="0" x2="1" y2="0" gradientUnits="userSpaceOnUse" gradientTransform="matrix(-1923.51,0,0,462.26,1922.81,232.28)"><stop offset="0%" style="stop-color:#fbeec9;stop-opacity:1"/><stop offset="100%" style="stop-color:#f5deab;stop-opacity:1"/></linearGradient></defs></svg>