<?xml version="1.0" standalone="no"?><!DOCTYPE svg PUBLIC "-//W3C//DTD SVG 1.1//EN" "http://www.w3.org/Graphics/SVG/1.1/DTD/svg11.dtd"><svg width="100%" height="100%" viewBox="0 0 640 711" version="1.1" xmlns="http://www.w3.org/2000/svg" xmlns:xlink="http://www.w3.org/1999/xlink" xml:space="preserve" style="fill-rule:evenodd;clip-rule:evenodd;stroke-linejoin:round;stroke-miterlimit:1.41421;"><g id="clinic-gold"><path d="M640,241.5l-320,-241l-320,241l-9.21929e-13,40l640,0l-9.09495e-13,-40Z" style="fill:#5c8561;fill-rule:nonzero;"/><rect x="80" y="311" width="480" height="400" style="fill:#d0b069;"/><path d="M343.333,194.833l-8.29914e-12,46.6667l-46.6667,-3.97904e-13l-5.68434e-14,-46.6667l-46.6667,-2.84217e-14l-4.54747e-13,-46.6667l46.6667,2.84217e-14l-5.68434e-14,-46.6667l46.6667,4.26326e-13l5.68434e-14,46.6667l46.6667,5.68434e-14l4.54747e-13,46.6667l-46.6667,8.86757e-12Z" style="fill:#fff;"/><rect x="340" y="451" width="140" height="260" style="fill:#965b33;"/><rect x="140" y="451" width="60" height="80" style="fill:#fef5d2;"/><rect x="140" y="541" width="60" height="80" style="fill:#fef5d2;"/><rect x="210" y="451" width="60" height="80" style="fill:#fef5d2;"/><rect x="210" y="541" width="60" height="80" style="fill:#fef5d2;"/></g></svg>