<?xml version="1.0" standalone="no"?><!DOCTYPE svg PUBLIC "-//W3C//DTD SVG 1.1//EN" "http://www.w3.org/Graphics/SVG/1.1/DTD/svg11.dtd"><svg width="100%" height="100%" viewBox="0 0 728 511" version="1.1" xmlns="http://www.w3.org/2000/svg" xmlns:xlink="http://www.w3.org/1999/xlink" xml:space="preserve" style="fill-rule:evenodd;clip-rule:evenodd;stroke-linejoin:round;stroke-miterlimit:1.41421;"><g id="soccer-kids"><path d="M211.98,397.975c-8.0271,-16.4826 -24.3991,-26.7225 -42.7273,-26.7225c-7.22271,0 -14.2007,1.61569 -20.7394,4.80264c-23.5276,11.4648 -33.3382,39.9529 -21.8705,63.5032c8.02513,16.4835 24.3962,26.7225 42.7253,26.7225c7.22271,0 14.2016,-1.61667 20.7414,-4.80264c23.5266,-11.4648 33.3382,-39.9519 21.8705,-63.5032ZM194.694,390.269l-4.89838,14.9113l-15.3238,1.88118l-13.8602,-10.2152l2.60957,-10.7038l18.2483,-4.0476l13.2245,8.17416ZM149.81,378.718c6.13112,-2.98857 12.6728,-4.50359 19.4425,-4.50359c2.84546,0 5.63763,0.268458 8.35478,0.77774l1.69563,4.54997l-17.2258,3.82158l-12.6136,-0.627719l-0.423414,-3.61827c0.257602,-0.132255 0.508294,-0.272406 0.769844,-0.399727ZM158.52,398.983l13.8937,10.2399l-2.82572,14.5372l-18.1584,6.01169l-9.17891,-6.0719l3.31921,-20.7315l12.9502,-3.98542ZM146.24,380.672l0.384922,3.2896l-8.61436,9.75234l-6.5111,1.58114c3.60149,-5.83403 8.57488,-10.8903 14.7405,-14.6231ZM129.537,398.819l8.89861,-2.15951l4.29336,5.33265l-3.3962,21.2112l-6.9582,3.39422l-7.45663,-4.83225c-0.530995,-7.97183 1.10344,-15.8993 4.61906,-22.9463ZM136.126,448.471c-2.67965,-3.01917 -4.98425,-6.43708 -6.82003,-10.2083c-2.00554,-4.11866 -3.31526,-8.39821 -3.97851,-12.7044l6.16073,3.99332l5.88832,12.0737l-1.2505,6.84569ZM169.368,463.32c-11.7273,0 -22.5969,-4.47299 -30.7118,-12.2237l1.26136,-6.90787l11.4865,3.22051l18.722,12.7764l0.290172,3.10504c-0.349391,0.00789583 -0.697794,0.0296094 -1.04817,0.0296094ZM183.816,451.406l-12.4211,6.05907l-17.7923,-12.1418l-0.603044,-12.9541l17.7034,-5.86068l13.112,7.26812l0,17.6294l0.000986979,0ZM197.498,453.242l-10.7216,-2.33322l0,-17.1912l11.5713,-10.6841l15.1037,1.27024c-1.41039,11.1588 -7.00755,21.6139 -15.9535,28.9382ZM198.79,420.099l-6.44103,-13.2058l5.20237,-15.8341l6.898,0.361234c1.85848,2.40724 3.49489,5.03063 4.86877,7.85142c3.46232,7.11119 4.84508,14.7001 4.40686,22.0837l-14.935,-1.25642Z" style="fill:#000;"/><path d="M514.667,46.2716c-24.9915,0 -45.12,20.1231 -45.12,45.1254c0,25.0023 20.1286,45.1254 45.12,45.1254c24.9969,0 45.1254,-20.1231 45.1254,-45.1254c0,-25.0023 -20.1286,-45.1254 -45.1254,-45.1254Z" style="fill:#e9a721;fill-rule:nonzero;"/><path d="M314.372,73.3959c-24.9969,0 -45.1254,20.1231 -45.1254,45.1254c0,25.0023 20.1286,45.1254 45.1254,45.1254c25.0023,0 45.1309,-20.1231 45.1309,-45.1254c0,-25.0023 -20.134,-45.1254 -45.1309,-45.1254Z" style="fill:#78b1b1;fill-rule:nonzero;"/><path d="M125.353,0.666104c20.1572,0 36.3886,16.227 36.3886,36.3886c0,20.1615 -16.2314,36.3886 -36.3886,36.3886c-20.1615,0 -36.3929,-16.227 -36.3929,-36.3886c0,-20.1615 16.2358,-36.3886 36.3929,-36.3886Z" style="fill:#b5bd21;fill-rule:nonzero;"/><path d="M282.14,176.546c-12.8938,0 -18.9914,6.09759 -25.7875,12.8883l-54.7971,54.8025c-7.0561,7.0561 -9.67167,13.3703 -9.67167,22.5654c0,12.8883 19.7116,18.9697 30.6234,8.05251l46.7392,-46.7338c25.7875,0 35.4538,64.4688 25.7875,90.2563l-38.6813,103.15c-10.7168,28.5656 29.5078,37.3545 38.6813,12.8938l38.6813,-103.145c0,0 12.8938,25.7821 38.6813,25.7821l77.3626,0c25.7929,0 25.7929,-38.6813 0,-38.6813l-64.4742,0c-12.8938,0 -12.8938,-25.7875 -12.8938,-38.6867c0,-51.5696 -25.7875,-103.139 -51.5696,-103.139l-38.6813,0l0,-0.00541527Z" style="fill:#78b1b1;fill-rule:nonzero;"/><path d="M546.904,149.416c-9.6121,0 -25.4409,3.47119 -38.6813,12.8938l-83.8121,59.633c-22.7387,16.1808 -1.87368,44.6597 19.3379,30.6234l54.808,-36.2607c0,0 36.1199,77.4654 22.5546,113.623c-0.449467,1.21302 -0.833952,2.30149 -0.796045,3.22209l-56.4163,149.884c-6.46583,17.2639 5.97846,27.5746 18.5311,27.4067c8.23663,-0.113721 16.1158,-4.98205 20.1556,-14.5075l70.1061,-166.011c0,0 12.8992,77.3517 64.4634,77.3626c30.9916,0.00541527 53.7303,0 70.9184,0c19.3379,0 19.3379,-19.3433 19.3379,-19.3433c0,0 0,-19.3379 -19.3379,-19.3379c-12.8992,0 -45.1254,-0.00541527 -58.0246,0c-27.5204,0 -25.7821,-41.3185 -25.7821,-64.4688c0,-38.6813 -25.7983,-103.139 -25.7983,-103.139l77.3626,51.5696c23.3723,15.5851 43.6254,-12.0111 20.9571,-29.0096l-85.4205,-61.2467c-15.5635,-11.0851 -20.551,-12.8883 -38.6813,-12.8938c0.00541527,0 -12.8938,0 -25.7821,0Z" style="fill:#e9a721;fill-rule:nonzero;"/><path d="M138.401,168.25c-1.01209,11.4355 -0.201255,22.6378 2.54572,29.9662l31.1921,83.1789c8.6419,23.0349 -23.7947,30.1222 -31.1921,10.3974l-31.1921,-83.1745c0,0 -10.3974,20.7903 -31.1921,20.7903l-62.3841,0c-20.7991,0 -20.7991,-31.1921 0,-31.1921l51.9912,0c10.3974,0 10.3974,-20.7947 10.3974,-31.1964c0,-41.5851 20.7947,-83.1701 41.5851,-83.1701l31.1921,0l0,-0.0043668c10.3974,0 15.3144,4.91702 20.7947,10.393l44.1877,44.192c5.68994,5.68994 7.79911,10.7816 7.79911,18.1965c0,10.393 -15.8952,15.2969 -24.6943,6.49344l-37.6899,-37.6855c-6.69039,0 -12.0351,5.38133 -15.9477,13.374c9.84931,9.53933 22.059,21.4093 25.6346,25.0788c6.27828,6.44301 4.63244,15.2961 1.91371,18.4424c-2.71873,3.1463 -9.90755,7.61521 -18.2261,0.435455c-3.14947,-2.71832 -10.1482,-8.54767 -16.715,-14.5153Z" style="fill:#b5bd21;"/></g></svg>