<?xml version="1.0" standalone="no"?><!DOCTYPE svg PUBLIC "-//W3C//DTD SVG 1.1//EN" "http://www.w3.org/Graphics/SVG/1.1/DTD/svg11.dtd"><svg width="100%" height="100%" viewBox="0 0 980 321" version="1.1" xmlns="http://www.w3.org/2000/svg" xmlns:xlink="http://www.w3.org/1999/xlink" xml:space="preserve" style="fill-rule:evenodd;clip-rule:evenodd;stroke-miterlimit:10;"><g id="anc-flow"><g id="Layer 1"><path d="M799.769,101.883c-2.09792,0 -3.80226,-1.70266 -3.80226,-3.80058l0,-4.78873c0,-2.11312 -1.70097,-3.8124 -3.81071,-3.8124l-2.54047,0c-2.09961,0 -3.80058,1.69928 -3.80058,3.8124l0,4.78873c0,2.09792 -1.70941,3.80058 -3.8124,3.80058l-24.1142,0c-2.11143,0 -3.81409,1.70941 -3.81409,3.8124l0,85.768c0,2.10805 1.70266,3.81071 3.81409,3.81071l41.8807,0c2.1013,0 3.81409,-1.70266 3.81409,-3.81071l0,-85.768c0,-2.10299 -1.70435,-3.8124 -3.81409,-3.8124" style="fill:#b3b3b3;fill-rule:nonzero;"/><path d="M762.405,175.673c0,-2.1013 1.70097,-3.81071 3.81409,-3.81071c2.09792,0 3.80058,1.70941 3.80058,3.81071c0,2.1013 -1.70266,3.81409 -3.80058,3.81409c-2.11312,0 -3.81409,-1.71279 -3.81409,-3.81409" style="fill:#fff;fill-rule:nonzero;"/><path d="M766.218,159.256c2.09792,0 3.80058,1.70266 3.80058,3.80058c0,2.09961 -1.70266,3.81409 -3.80058,3.81409c-2.11312,0 -3.81409,-1.71448 -3.81409,-3.81409c0,-2.09792 1.70097,-3.80058 3.81409,-3.80058" style="fill:#fff;fill-rule:nonzero;"/><path d="M762.405,150.442c0,-2.1013 1.70097,-3.80226 3.81409,-3.80226c2.09792,0 3.80058,1.70097 3.80058,3.80226c0,2.10805 -1.70266,3.81071 -3.80058,3.81071c-2.11312,0 -3.81409,-1.70266 -3.81409,-3.81071" style="fill:#fff;fill-rule:nonzero;"/><path d="M786.559,188.794l-15.9438,0c-1.05234,0 -1.90704,-0.851329 -1.90704,-1.89691c0,-1.06247 0.854707,-1.91042 1.90704,-1.91042l15.9438,0c1.05909,0 1.90367,0.847951 1.90367,1.91042c0,1.04558 -0.844572,1.89691 -1.90367,1.89691" style="fill:#fff;fill-rule:nonzero;"/><path d="M778.59,159.256c2.10299,0 3.80226,1.70266 3.80226,3.80058c0,2.09961 -1.69928,3.81409 -3.80226,3.81409c-2.10974,0 -3.8124,-1.71448 -3.8124,-3.81409c0,-2.09792 1.70266,-3.80058 3.8124,-3.80058" style="fill:#fff;fill-rule:nonzero;"/><path d="M774.778,150.442c0,-2.1013 1.70266,-3.80226 3.8124,-3.80226c2.10299,0 3.80226,1.70097 3.80226,3.80226c0,2.10805 -1.69928,3.81071 -3.80226,3.81071c-2.10974,0 -3.8124,-1.70266 -3.8124,-3.81071" style="fill:#fff;fill-rule:nonzero;"/><path d="M778.59,171.863c2.10299,0 3.80226,1.70941 3.80226,3.81071c0,2.1013 -1.69928,3.81409 -3.80226,3.81409c-2.10974,0 -3.8124,-1.71279 -3.8124,-3.81409c0,-2.1013 1.70266,-3.81071 3.8124,-3.81071" style="fill:#fff;fill-rule:nonzero;"/><path d="M790.963,179.487c-2.09792,0 -3.81071,-1.71279 -3.81071,-3.81409c0,-2.1013 1.71279,-3.81071 3.81071,-3.81071c2.10299,0 3.81578,1.70941 3.81578,3.81071c0,2.1013 -1.71279,3.81409 -3.81578,3.81409" style="fill:#fff;fill-rule:nonzero;"/><path d="M790.963,166.87c-2.09792,0 -3.81071,-1.71448 -3.81071,-3.81409c0,-2.09792 1.71279,-3.80058 3.81071,-3.80058c2.10299,0 3.81578,1.70266 3.81578,3.80058c0,2.09961 -1.71279,3.81409 -3.81578,3.81409" style="fill:#fff;fill-rule:nonzero;"/><path d="M790.963,154.253c-2.09792,0 -3.81071,-1.70266 -3.81071,-3.81071c0,-2.1013 1.71279,-3.80226 3.81071,-3.80226c2.10299,0 3.81578,1.70097 3.81578,3.80226c0,2.10805 -1.71279,3.81071 -3.81578,3.81071" style="fill:#fff;fill-rule:nonzero;"/><path d="M797.157,135.631c0,2.10299 -1.7111,3.80395 -3.81409,3.80395l-29.0313,0c-2.11143,0 -3.8124,-1.70097 -3.8124,-3.80395l0,-21.0011c0,-2.10299 1.70097,-3.80564 3.8124,-3.80564l29.0313,0c2.10299,0 3.81409,1.70266 3.81409,3.80564l0,21.0011Z" style="fill:#fff;fill-rule:nonzero;"/><path d="M777.739,127.246l-2.53034,2.23136c-0.0760115,0.0675658 -0.192563,0.0608092 -0.260128,-0.0152023l-2.32426,-2.63675c-0.0658766,-0.0760115 -0.0591201,-0.192563 0.0152023,-0.260128l2.53034,-2.23305c0.0777007,-0.0658766 0.195941,-0.0591201 0.263507,0.0185806l2.32257,2.63338c0.0675658,0.0777007 0.0608092,0.194252 -0.0168914,0.261817M784.967,120.692c-0.0219589,-0.67228 -0.540526,-0.457758 -0.714508,-0.400327c0.700995,-0.437488 1.3074,-1.71955 1.14862,-2.27359c-0.123308,-0.43411 -0.408773,-0.285465 -0.758426,0.0523635c1.01518,-2.29555 -0.488163,-3.52862 -0.488163,-3.52693c-0.258439,-0.170604 -0.444245,0.0591201 -0.439178,0.400327c0.0506743,2.76175 -1.96616,4.35799 -4.17219,5.68059c-1.65536,1.07092 -2.2415,2.87155 -2.44588,4.16036c-0.0506743,0.15878 -0.167225,0.0810789 -0.228035,0.0320938l-1.27362,-1.44591c-0.13851,-0.15709 -0.334451,-0.234791 -0.528702,-0.226345c-0.152023,0.00506743 -0.302357,0.0608092 -0.423975,0.168914l-0.0557418,0.0489852l-0.00168914,0l-0.00168914,0l-0.307424,-0.349653c-0.0912138,-0.101349 -0.216211,-0.15709 -0.33614,-0.15709c-0.0945921,0 -0.184117,0.0304046 -0.25675,0.092903l-0.172293,0.153712c-0.167225,0.143577 -0.170604,0.41384 -0.0101349,0.596268l0.309113,0.349653l-2.09623,1.84792c-0.278709,0.246615 -0.305735,0.67228 -0.0608092,0.954367l7.25994,8.22951c0.13851,0.155401 0.334451,0.233102 0.528702,0.228035c0.153712,-0.00506743 0.302357,-0.0608092 0.423975,-0.167225l2.92898,-2.58439c0.280398,-0.248304 0.307424,-0.673969 0.0608092,-0.952678l-2.45602,-2.7854c-0.00337829,-0.00337829 -0.00337829,-0.00506743 -0.00506743,-0.00675658c-0.0895247,-0.145266 0.165536,-0.116551 0.165536,-0.116551l0,-0.00168914c0.39526,0.011824 0.69086,-0.0793898 0.900314,-0.2179c0.317559,-0.214521 -0.0422286,-0.373301 -0.0996595,-0.530391c0.491541,0.239859 1.45604,0.0371612 1.69421,-0.273641c0.189184,-0.243237 -0.135132,-0.342896 -0.444245,-0.412151c0.780385,-0.363166 1.40199,-0.722954 1.73306,-1.58273c0.195941,-0.501676 -0.341207,-0.516878 -0.876666,-0.314181c0.437488,-0.437488 0.876666,-1.03376 1.09457,-1.79894c0.248304,-0.863153 -0.0760115,-1.29726 -0.771939,-0.716197c0.633429,-0.621605 1.20267,-1.44422 1.17733,-2.15535" style="fill:#787878;fill-rule:nonzero;"/><path d="M226.852,97.9418c-2.09792,0 -3.80226,-1.70266 -3.80226,-3.80058l0,-4.78873c0,-2.11312 -1.70097,-3.8124 -3.81071,-3.8124l-2.54047,0c-2.09961,0 -3.80058,1.69928 -3.80058,3.8124l0,4.78873c0,2.09792 -1.70941,3.80058 -3.8124,3.80058l-24.1142,0c-2.11143,0 -3.81409,1.70941 -3.81409,3.8124l0,85.768c0,2.10805 1.70266,3.81071 3.81409,3.81071l41.8807,0c2.1013,0 3.81409,-1.70266 3.81409,-3.81071l0,-85.768c0,-2.10299 -1.70435,-3.8124 -3.81409,-3.8124" style="fill:#b3b3b3;fill-rule:nonzero;"/><path d="M189.488,171.732c0,-2.1013 1.70097,-3.81071 3.81409,-3.81071c2.09792,0 3.80058,1.70941 3.80058,3.81071c0,2.1013 -1.70266,3.81409 -3.80058,3.81409c-2.11312,0 -3.81409,-1.71279 -3.81409,-3.81409" style="fill:#fff;fill-rule:nonzero;"/><path d="M193.301,155.315c2.09792,0 3.80058,1.70266 3.80058,3.80058c0,2.09961 -1.70266,3.81409 -3.80058,3.81409c-2.11312,0 -3.81409,-1.71448 -3.81409,-3.81409c0,-2.09792 1.70097,-3.80058 3.81409,-3.80058" style="fill:#fff;fill-rule:nonzero;"/><path d="M189.488,146.502c0,-2.1013 1.70097,-3.80226 3.81409,-3.80226c2.09792,0 3.80058,1.70097 3.80058,3.80226c0,2.10805 -1.70266,3.81071 -3.80058,3.81071c-2.11312,0 -3.81409,-1.70266 -3.81409,-3.81071" style="fill:#fff;fill-rule:nonzero;"/><path d="M213.642,184.853l-15.9438,0c-1.05234,0 -1.90704,-0.851329 -1.90704,-1.89691c0,-1.06247 0.854707,-1.91042 1.90704,-1.91042l15.9438,0c1.05909,0 1.90367,0.847951 1.90367,1.91042c0,1.04558 -0.844572,1.89691 -1.90367,1.89691" style="fill:#fff;fill-rule:nonzero;"/><path d="M205.673,155.315c2.10299,0 3.80226,1.70266 3.80226,3.80058c0,2.09961 -1.69928,3.81409 -3.80226,3.81409c-2.10974,0 -3.8124,-1.71448 -3.8124,-3.81409c0,-2.09792 1.70266,-3.80058 3.8124,-3.80058" style="fill:#fff;fill-rule:nonzero;"/><path d="M201.861,146.502c0,-2.1013 1.70266,-3.80226 3.8124,-3.80226c2.10299,0 3.80226,1.70097 3.80226,3.80226c0,2.10805 -1.69928,3.81071 -3.80226,3.81071c-2.10974,0 -3.8124,-1.70266 -3.8124,-3.81071" style="fill:#fff;fill-rule:nonzero;"/><path d="M205.673,167.922c2.10299,0 3.80226,1.70941 3.80226,3.81071c0,2.1013 -1.69928,3.81409 -3.80226,3.81409c-2.10974,0 -3.8124,-1.71279 -3.8124,-3.81409c0,-2.1013 1.70266,-3.81071 3.8124,-3.81071" style="fill:#fff;fill-rule:nonzero;"/><path d="M218.046,175.546c-2.09792,0 -3.81071,-1.71279 -3.81071,-3.81409c0,-2.1013 1.71279,-3.81071 3.81071,-3.81071c2.10299,0 3.81578,1.70941 3.81578,3.81071c0,2.1013 -1.71279,3.81409 -3.81578,3.81409" style="fill:#fff;fill-rule:nonzero;"/><path d="M218.046,162.929c-2.09792,0 -3.81071,-1.71448 -3.81071,-3.81409c0,-2.09792 1.71279,-3.80058 3.81071,-3.80058c2.10299,0 3.81578,1.70266 3.81578,3.80058c0,2.09961 -1.71279,3.81409 -3.81578,3.81409" style="fill:#fff;fill-rule:nonzero;"/><path d="M218.046,150.312c-2.09792,0 -3.81071,-1.70266 -3.81071,-3.81071c0,-2.1013 1.71279,-3.80226 3.81071,-3.80226c2.10299,0 3.81578,1.70097 3.81578,3.80226c0,2.10805 -1.71279,3.81071 -3.81578,3.81071" style="fill:#fff;fill-rule:nonzero;"/><path d="M224.24,131.69c0,2.10299 -1.7111,3.80395 -3.81409,3.80395l-29.0313,0c-2.11143,0 -3.8124,-1.70097 -3.8124,-3.80395l0,-21.0011c0,-2.10299 1.70097,-3.80564 3.8124,-3.80564l29.0313,0c2.10299,0 3.81409,1.70266 3.81409,3.80564l0,21.0011Z" style="fill:#fff;fill-rule:nonzero;"/><path d="M204.822,123.305l-2.53034,2.23136c-0.0760115,0.0675658 -0.192563,0.0608092 -0.260128,-0.0152023l-2.32426,-2.63675c-0.0658766,-0.0760115 -0.0591201,-0.192563 0.0152023,-0.260128l2.53034,-2.23305c0.0777007,-0.0658766 0.195941,-0.0591201 0.263507,0.0185806l2.32257,2.63338c0.0675658,0.0777007 0.0608092,0.194252 -0.0168914,0.261817M212.05,116.751c-0.0219589,-0.67228 -0.540526,-0.457758 -0.714508,-0.400327c0.700995,-0.437488 1.3074,-1.71955 1.14862,-2.27359c-0.123308,-0.43411 -0.408773,-0.285465 -0.758426,0.0523635c1.01518,-2.29555 -0.488163,-3.52862 -0.488163,-3.52693c-0.258439,-0.170604 -0.444245,0.0591201 -0.439178,0.400327c0.0506743,2.76175 -1.96616,4.35799 -4.17219,5.68059c-1.65536,1.07092 -2.2415,2.87155 -2.44588,4.16036c-0.0506743,0.15878 -0.167225,0.0810789 -0.228035,0.0320938l-1.27362,-1.44591c-0.13851,-0.15709 -0.334451,-0.234791 -0.528702,-0.226345c-0.152023,0.00506743 -0.302357,0.0608092 -0.423975,0.168914l-0.0557418,0.0489852l-0.00168914,0l-0.00168914,0l-0.307424,-0.349653c-0.0912138,-0.101349 -0.216211,-0.15709 -0.33614,-0.15709c-0.0945921,0 -0.184117,0.0304046 -0.25675,0.092903l-0.172293,0.153712c-0.167225,0.143577 -0.170604,0.41384 -0.0101349,0.596268l0.309113,0.349653l-2.09623,1.84792c-0.278709,0.246615 -0.305735,0.67228 -0.0608092,0.954367l7.25994,8.22951c0.13851,0.155401 0.334451,0.233102 0.528702,0.228035c0.153712,-0.00506743 0.302357,-0.0608092 0.423975,-0.167225l2.92898,-2.58439c0.280398,-0.248304 0.307424,-0.673969 0.0608092,-0.952678l-2.45602,-2.7854c-0.00337829,-0.00337829 -0.00337829,-0.00506743 -0.00506743,-0.00675658c-0.0895247,-0.145266 0.165536,-0.116551 0.165536,-0.116551l0,-0.00168914c0.39526,0.011824 0.69086,-0.0793898 0.900314,-0.2179c0.317559,-0.214521 -0.0422286,-0.373301 -0.0996595,-0.530391c0.491541,0.239859 1.45604,0.0371612 1.69421,-0.273641c0.189184,-0.243237 -0.135132,-0.342896 -0.444245,-0.412151c0.780385,-0.363166 1.40199,-0.722954 1.73306,-1.58273c0.195941,-0.501676 -0.341207,-0.516878 -0.876666,-0.314181c0.437488,-0.437488 0.876666,-1.03376 1.09457,-1.79894c0.248304,-0.863153 -0.0760115,-1.29726 -0.771939,-0.716197c0.633429,-0.621605 1.20267,-1.44422 1.17733,-2.15535" style="fill:#787878;fill-rule:nonzero;"/><path d="M874.916,85.3302c0,10.417 -8.41532,18.9049 -18.8846,18.9049c-10.4896,0 -18.9049,-8.48795 -18.9049,-18.9049c0,-10.4676 8.41532,-18.959 18.9049,-18.959c10.4693,0 18.8846,8.49133 18.8846,18.959" style="fill:#64a2c8;fill-rule:nonzero;"/><path d="M899.933,182.598c0,0 -9.9592,-48.2437 -14.6668,-57.9309l0,-0.0743224c-4.72454,-9.66866 -9.45414,-15.4895 -27.3777,-15.4895l-3.70598,0c-17.9218,0 -22.6497,5.82079 -27.3743,15.4895l0,0.0743224c-4.72623,9.68725 -14.6871,57.9309 -14.6871,57.9309c-0.746602,3.2516 1.25335,6.50659 4.57927,7.23123c0.437488,0.146956 0.871599,0.221278 1.31078,0.221278c2.81412,0 5.27013,-1.90873 5.92383,-4.70765l13.4338,-47.7538l-13.0875,79.7834l12.6297,0l3.91037,71.2194c0,2.43406 1.99995,4.48975 4.43569,4.48975c2.57932,0 4.65528,-2.05569 4.65528,-4.48975l3.83436,-71.2194l4.58096,0l3.83774,71.2194c0,2.43406 2.05062,4.48975 4.63332,4.48975c2.43575,0 4.43569,-2.05569 4.43569,-4.48975l3.90361,-71.2194l12.6382,0l-13.0723,-79.7834l13.4355,47.7538c0.653699,2.79891 3.16039,4.70765 5.90863,4.70765c0.43411,0 0.86991,-0.0743224 1.39861,-0.221278c3.2364,-0.724643 5.23466,-3.97963 4.48637,-7.23123" style="fill:#64a2c8;fill-rule:nonzero;"/><rect x="852.552" y="134.054" width="6.71604" height="6.71604" style="fill:#fff;stroke-width:0.4px;stroke:#fff;"/><rect x="852.552" y="120.671" width="6.71604" height="6.71604" style="fill:#fff;stroke-width:0.4px;stroke:#fff;"/><rect x="859.251" y="127.355" width="6.71773" height="6.71604" style="fill:#fff;stroke-width:0.4px;stroke:#fff;"/><rect x="852.552" y="127.355" width="6.71604" height="6.71604" style="fill:#fff;stroke-width:0.4px;stroke:#fff;"/><rect x="845.817" y="127.355" width="6.71773" height="6.71604" style="fill:#fff;stroke-width:0.4px;stroke:#fff;"/><path d="M147.171,81.3894c0,10.417 -8.41532,18.9049 -18.8846,18.9049c-10.4896,0 -18.9049,-8.48795 -18.9049,-18.9049c0,-10.4676 8.41532,-18.959 18.9049,-18.959c10.4693,0 18.8846,8.49133 18.8846,18.959" style="fill:#64a2c8;fill-rule:nonzero;"/><path d="M172.189,178.657c0,0 -9.9592,-48.2437 -14.6668,-57.9309l0,-0.0743224c-4.72454,-9.66866 -9.45414,-15.4895 -27.3777,-15.4895l-3.70598,0c-17.9218,0 -22.6497,5.82079 -27.3743,15.4895l0,0.0743224c-4.72623,9.68725 -14.6871,57.9309 -14.6871,57.9309c-0.746602,3.2516 1.25335,6.50659 4.57927,7.23123c0.437488,0.146956 0.871599,0.221278 1.31078,0.221278c2.81412,0 5.27013,-1.90873 5.92383,-4.70765l13.4338,-47.7538l-13.0875,79.7834l12.6297,0l3.91037,71.2194c0,2.43406 1.99995,4.48975 4.43569,4.48975c2.57932,0 4.65528,-2.05569 4.65528,-4.48975l3.83436,-71.2194l4.58096,0l3.83774,71.2194c0,2.43406 2.05062,4.48975 4.63332,4.48975c2.43575,0 4.43569,-2.05569 4.43569,-4.48975l3.90361,-71.2194l12.6382,0l-13.0723,-79.7834l13.4355,47.7538c0.653699,2.79891 3.16039,4.70765 5.90863,4.70765c0.43411,0 0.86991,-0.0743224 1.39861,-0.221278c3.2364,-0.724643 5.23466,-3.97963 4.48637,-7.23123" style="fill:#64a2c8;fill-rule:nonzero;"/><rect x="124.807" y="130.113" width="6.71604" height="6.71604" style="fill:#fff;stroke-width:0.4px;stroke:#fff;"/><rect x="124.807" y="116.73" width="6.71604" height="6.71604" style="fill:#fff;stroke-width:0.4px;stroke:#fff;"/><rect x="131.506" y="123.414" width="6.71773" height="6.71604" style="fill:#fff;stroke-width:0.4px;stroke:#fff;"/><rect x="124.807" y="123.414" width="6.71604" height="6.71604" style="fill:#fff;stroke-width:0.4px;stroke:#fff;"/><rect x="118.073" y="123.414" width="6.71773" height="6.71604" style="fill:#fff;stroke-width:0.4px;stroke:#fff;"/><path d="M59.8984,125.182c0,-9.61123 -7.83763,-17.4083 -17.5029,-17.4083c-9.66529,0 -17.4995,7.79709 -17.4995,17.4083c0,9.61123 7.83425,17.4049 17.4995,17.4049c9.66529,0 17.5029,-7.79371 17.5029,-17.4049" style="fill:#f47b63;"/><path d="M32.9447,188.292l-16.8289,-12.0048l12.6145,-12.2784l5.87147,25.9807c-0.439178,-0.638497 -0.983082,-1.22294 -1.65705,-1.69759M78.6867,196.125c0,-0.00675658 -28.1057,-42.2219 -28.1057,-42.2219c-6.54206,-9.07071 -20.4336,-8.01499 -28.3455,-0.326005c0,0 -16.7512,16.2631 -20.1447,19.5924c-3.3918,3.32593 -2.32257,8.39336 0.819235,10.6332l23.6109,16.8323c2.46615,1.75671 5.67553,1.46787 8.03695,-0.150334l-25.3693,49.524l30.7239,0c-0.873288,10.1349 -1.68408,19.3593 -1.68408,19.3593c0,0.00337829 -3.76848,42.96 -3.76848,42.96c-0.383436,4.34279 2.84452,8.21769 7.20758,8.59606c4.37151,0.380058 8.21431,-3.01175 8.59606,-7.35116l5.57418,-63.5642l19.7681,0c0,0 -0.962813,-23.7105 -0.959434,-23.7139c4.73636,-4.42049 7.71095,-10.574 7.71095,-17.5333c0,-4.68231 -1.35976,-8.93389 -3.67051,-12.6365" style="fill:#f47b63;"/><path d="M556.547,0.0152023l-18.5806,0l0,27.0162l-33.3184,-27.0314l-83.2326,68.2313l0,9.48455l165.536,0l0,-9.48455l-30.4046,-24.648l0,-43.5681Z" style="fill:#576e60;"/><path d="M526.142,109.81l0,13.5132l-15.2023,0l0,15.2023l-13.5132,0l0,-15.2023l-15.2023,0l0,-13.5132l15.2023,0l0,-15.2023l13.5132,0l0,15.2023l15.2023,0ZM436.617,84.4724l0,104.727l55.7418,0l0,-37.1612l23.648,0l0,37.1612l57.4309,0l0,-104.727l-68.1637,0l-68.657,0Z" style="fill:#576e60;"/><path d="M348.904,176.763c0,0 -1.27699,1.41213 -3.62828,3.53031" style="fill:none;stroke-width:2px;stroke:#b3b3b3;"/><path d="M337.47,186.517c-8.65518,6.10288 -21.6211,12.8139 -36.793,12.8139c-12.7632,0 -24.4504,-5.28364 -33.2069,-10.8376" style="fill:none;stroke-width:2px;stroke-dasharray:5.92,5.92;stroke:#b3b3b3;"/><path d="M263.319,185.701c-1.46956,-1.04727 -2.82087,-2.07427 -4.04381,-3.04384" style="fill:none;stroke-width:2px;stroke:#b3b3b3;"/><path d="M251.672,175.871c4.77352,1.83948 11.2463,3.50329 16.1398,3.532l-7.49474,4.09955l-3.13674,7.94405c-0.636808,-4.85291 -3.08945,-11.069 -5.5083,-15.5756" style="fill:#b3b3b3;fill-rule:nonzero;"/><path d="M251.877,148.749c0,0 1.27699,-1.41213 3.62828,-3.53031" style="fill:none;stroke-width:2px;stroke:#b3b3b3;"/><path d="M263.312,138.995c8.65349,-6.10288 21.6194,-12.8139 36.7913,-12.8139c12.7649,0 24.4521,5.28364 33.2086,10.8376" style="fill:none;stroke-width:2px;stroke-dasharray:5.92,5.92;stroke:#b3b3b3;"/><path d="M337.463,139.813c1.46956,1.04727 2.82087,2.07427 4.04381,3.04384" style="fill:none;stroke-width:2px;stroke:#b3b3b3;"/><path d="M349.108,149.643c-4.77352,-1.84117 -11.2463,-3.50329 -16.1398,-3.53369l7.49474,-4.09955l3.13674,-7.94405c0.636808,4.85291 3.08945,11.069 5.5083,15.5773" style="fill:#b3b3b3;fill-rule:nonzero;"/><path d="M739.096,171.696c0,0 -1.27699,1.41213 -3.62828,3.53031" style="fill:none;stroke-width:2px;stroke:#b3b3b3;"/><path d="M727.662,181.45c-8.65349,6.10288 -21.6194,12.8139 -36.7913,12.8139c-12.7649,0 -24.4521,-5.28364 -33.2069,-10.8376" style="fill:none;stroke-width:2px;stroke-dasharray:5.92,5.92;stroke:#b3b3b3;"/><path d="M653.511,180.633c-1.46787,-1.04727 -2.82087,-2.07427 -4.04381,-3.04384" style="fill:none;stroke-width:2px;stroke:#b3b3b3;"/><path d="M641.865,170.804c4.77352,1.83948 11.2446,3.50329 16.1415,3.532l-7.49642,4.09955l-3.13674,7.94405c-0.636808,-4.85291 -3.08776,-11.069 -5.5083,-15.5756" style="fill:#b3b3b3;fill-rule:nonzero;"/><path d="M642.069,143.682c0,0 1.27699,-1.41213 3.62828,-3.53031" style="fill:none;stroke-width:2px;stroke:#b3b3b3;"/><path d="M653.504,133.928c8.65349,-6.10288 21.6194,-12.8139 36.7913,-12.8139c12.7649,0 24.4521,5.28364 33.2069,10.8376" style="fill:none;stroke-width:2px;stroke-dasharray:5.92,5.92;stroke:#b3b3b3;"/><path d="M727.655,134.745c1.46956,1.04727 2.82087,2.07427 4.04381,3.04384" style="fill:none;stroke-width:2px;stroke:#b3b3b3;"/><path d="M739.301,144.576c-4.77352,-1.84117 -11.2446,-3.50329 -16.1398,-3.53369l7.49474,-4.09955l3.13674,-7.94405c0.636808,4.85291 3.08776,11.069 5.5083,15.5773" style="fill:#b3b3b3;fill-rule:nonzero;"/><path d="M945.165,152.002c8.71599,0 15.7732,-7.29035 15.7732,-16.2969c0,-9.00483 -7.05725,-16.3121 -15.7732,-16.3121c-8.71937,0 -15.7766,7.30724 -15.7766,16.3121c0,9.00652 7.05725,16.2969 15.7766,16.2969" style="fill:#f47b63;"/><path d="M946.63,199.339c-0.339518,0 -0.660456,-0.00506743 -0.966191,-0.00506743l-0.0168914,0c-1.18071,0 -2.25163,-0.119929 -3.19755,-0.226345c-6.09275,-0.716197 -7.82412,-2.99316 -7.89506,-5.28027c-1.11146,0.484785 -2.32088,0.766872 -3.61139,0.766872c-4.9475,0 -8.9474,-4.0776 -8.9474,-9.09604c0,-5.03872 3.99989,-9.10956 8.9474,-9.10956c4.85967,0 8.41701,3.94753 8.54369,8.85788c1.55063,-1.10639 2.18406,-1.64185 3.87321,-1.85637l0,0.035472c1.68914,-0.339518 3.6097,0 3.6097,0c5.96775,1.3226 19.41,7.189 19.41,7.189c0,0 -6.87144,8.79538 -19.7495,8.72443M973.141,165.825c-0.787141,-2.37156 -5.25155,-9.57745 -17.3847,-9.64333l-23.7578,0.0489852c-11.775,-0.655388 -16.4725,6.30558 -17.2056,9.39671c0,0 -7.96601,25.3912 -6.59442,31.2694c0.841194,3.66375 10.5386,7.67378 17.2749,10.9946l-12.3426,48.8737l16.7158,0l0,57.1505c0,3.26512 2.64689,5.91201 5.91201,5.91201c3.26512,0 5.91201,-2.64689 5.91201,-5.91201l0,-57.1505l6.75658,0l0,57.1505c0,3.26512 2.64689,5.91201 5.91201,5.91201c3.26512,0 5.91201,-2.64689 5.91201,-5.91201l0,-57.1505l16.2513,0l-12.0977,-49.8382c6.0218,-3.18066 14.6668,-6.93563 15.4371,-10.2582c1.37665,-5.95086 -6.70084,-30.8438 -6.70084,-30.8438" style="fill:#f47b63;"/><rect x="465.682" y="160.479" width="165.832" height="103.874" style="fill:#fff;fill-rule:nonzero;"/><path d="M511.667,237.051l-0.0219589,0l-1.05572,5.98126l-1.1672,0l1.84961,-9.44063l3.10803,7.13326l3.10972,-7.13326l1.8513,9.44063l-1.16382,0l-1.0574,-5.98126l-0.0253372,0l-2.71783,6.17382l-2.70939,-6.17382Z" style="fill:#000;fill-rule:nonzero;"/><path d="M520.411,233.977l4.86474,0l0,1.03207l-3.7347,0l0,2.5371l3.62659,0l0,1.03207l-3.62659,0l0,3.42052l3.7347,0l0,1.03376l-4.86474,0l0,-9.0555Z" style="fill:#000;fill-rule:nonzero;"/><path d="M527.671,241.998l0.39526,0c2.31075,0 4.29718,-0.863153 4.29718,-3.48977c0,-2.64351 -1.98643,-3.49991 -4.29718,-3.49991l-0.39526,0l0,6.98968ZM526.546,233.977l1.87157,0c2.77189,0 5.07926,1.46111 5.07926,4.47961c0,3.08607 -2.25839,4.57589 -5.11642,4.57589l-1.83441,0l0,-9.0555Z" style="fill:#000;fill-rule:nonzero;"/><rect x="534.715" y="233.977" width="1.13004" height="9.0555" style="fill:#000;fill-rule:nonzero;"/><path d="M544.21,235.705c-0.653699,-0.577688 -1.53712,-0.88849 -2.39183,-0.88849c-2.02697,0 -3.57761,1.69083 -3.57761,3.69923c0,1.98475 1.53543,3.6722 3.55565,3.6722c0.890179,0 1.73982,-0.334451 2.41379,-0.937475l0,1.33611c-0.695928,0.410462 -1.58442,0.638497 -2.37832,0.638497c-2.58439,0 -4.71609,-2.054 -4.71609,-4.67386c0,-2.67898 2.14521,-4.77014 4.809,-4.77014c0.798965,0 1.603,0.195941 2.28879,0.616538l0,1.31078l-0.00337829,0l0,-0.00337829Z" style="fill:#000;fill-rule:nonzero;"/><path d="M556.972,235.539l-0.0270263,0l-3.1587,7.79371l-3.15025,-7.79371l-0.0219589,0l-1.55063,7.49474l-0.548972,0l1.94421,-9.35786l3.32762,8.23627l3.33606,-8.23627l1.94421,9.35786l-0.548972,0l-1.54557,-7.49474Z" style="fill:#000;fill-rule:nonzero;"/><path d="M560.364,238.505c0,2.23136 1.85975,4.108 4.12151,4.108c2.24656,0 4.12151,-1.89015 4.12151,-4.108c0,-2.23305 -1.87495,-4.10969 -4.12151,-4.10969c-2.26176,0 -4.12151,1.87664 -4.12151,4.10969M569.178,238.505c0,2.54554 -2.14859,4.64853 -4.69244,4.64853c-2.54554,0 -4.69751,-2.10299 -4.69751,-4.64853c0,-2.54723 2.14184,-4.65022 4.69751,-4.65022c2.54385,0 4.69244,2.10299 4.69244,4.65022" style="fill:#000;fill-rule:nonzero;"/><path d="M571.368,242.488l1.38172,0c0.63174,0 1.2922,0.0304046 1.84624,-0.347964c0.548972,-0.369923 0.885112,-0.935786 0.885112,-1.60975c0,-0.657077 -0.322627,-1.31753 -0.932408,-1.6182c-0.554039,-0.275331 -1.31078,-0.290533 -1.91549,-0.290533l-1.27024,0l0,3.86645l0.00506743,0ZM571.368,238.081l0.994906,0c0.614849,0 1.10639,0.035472 1.62158,-0.334451c0.515189,-0.371612 0.67059,-0.831059 0.67059,-1.45435c0,-0.587822 -0.224656,-1.1672 -0.741535,-1.48983c-0.456069,-0.292222 -1.02024,-0.292222 -1.55063,-0.292222l-0.994906,0l0,3.57085ZM570.79,243.032l0,-9.0555l1.81245,0c0.684104,0 1.33611,0.0489852 1.87664,0.530391c0.550661,0.481406 0.755048,1.15031 0.755048,1.86819c0,0.832748 -0.322627,1.44084 -1.04389,1.84961c1.11484,0.231413 1.87326,1.13004 1.87326,2.27866c0,0.7314 -0.27702,1.39523 -0.841194,1.87833c-0.635118,0.535459 -1.3074,0.643564 -2.11481,0.643564l-2.31751,0l0,0.00675658Z" style="fill:#000;fill-rule:nonzero;"/><rect x="577.716" y="233.977" width="0.575998" height="9.0555" style="fill:#000;fill-rule:nonzero;"/><path d="M580.988,242.488l2.30568,0l0,0.537148l-2.88506,0l0,-9.04875l0.579377,0l0,8.5116Z" style="fill:#000;fill-rule:nonzero;"/><path d="M585.051,234.516l0,3.29214l3.64686,0l0,0.542215l-3.64686,0l0,4.1384l3.74652,0l0,0.537148l-4.32421,0l0,-9.05044l4.32421,0l0,0.53377l-3.74652,0l0,0.00675658Z" style="fill:#000;fill-rule:nonzero;"/><rect x="475.036" y="169.862" width="147.116" height="8.33762" style="fill:#58595b;fill-rule:nonzero;"/><rect x="475.036" y="178.198" width="147.116" height="5.00156" style="fill:#64a2c8;fill-rule:nonzero;"/><path d="M545.117,213.57l-4.90021,4.31745c-0.145266,0.130064 -0.371612,0.11824 -0.501676,-0.0287155l-4.49819,-5.1046c-0.130064,-0.141888 -0.114862,-0.371612 0.0320938,-0.501676l4.89514,-4.32083c0.148645,-0.128375 0.376679,-0.109794 0.506743,0.0320938l4.49481,5.10291c0.128375,0.146956 0.119929,0.369923 -0.0287155,0.503365M559.101,200.884c-0.0405395,-1.30402 -1.04727,-0.881734 -1.38679,-0.773628c1.36483,-0.846262 2.53372,-3.32762 2.22291,-4.40529c-0.238169,-0.832748 -0.787141,-0.548972 -1.46111,0.106416c1.96954,-4.44245 -0.945921,-6.82752 -0.945921,-6.82583c-0.501676,-0.329383 -0.858086,0.113173 -0.854707,0.773628c0.103038,5.34445 -3.79889,8.43559 -8.07073,10.9946c-3.20262,2.07258 -4.3411,5.55898 -4.72961,8.05046c-0.0996595,0.307424 -0.332762,0.15709 -0.440867,0.0658766l-2.46615,-2.79891c-0.266885,-0.307424 -0.648632,-0.449313 -1.02531,-0.440867c-0.288844,0.011824 -0.584444,0.113173 -0.817546,0.326005l-0.111484,0.0996595l0,-0.00168914l-0.00337829,0.00168914l-0.59289,-0.679036c-0.170604,-0.19763 -0.417219,-0.302357 -0.65201,-0.304046c-0.180738,0 -0.35641,0.0557418 -0.496609,0.179049l-0.329383,0.288844c-0.322627,0.288844 -0.334451,0.805722 -0.0219589,1.15875l0.59289,0.679036l-4.05395,3.57592c-0.543905,0.476339 -0.591201,1.29895 -0.11824,1.84624l14.0571,15.9236c0.260128,0.305735 0.641875,0.45438 1.01518,0.442556c0.297289,-0.00844572 0.589512,-0.113173 0.824303,-0.326005l5.66877,-5.00325c0.535459,-0.471271 0.587822,-1.29726 0.109794,-1.84117l-4.75325,-5.3833c0,-0.00506743 -0.00168914,-0.00844572 -0.00675658,-0.0135132c-0.173982,-0.278709 0.31587,-0.228035 0.31587,-0.228035l0,-0.00675658c0.77025,0.0287155 1.34118,-0.148645 1.74995,-0.420597c0.61147,-0.41384 -0.0912138,-0.719576 -0.19763,-1.01349c0.94761,0.449313 2.81412,0.0675658 3.28201,-0.53377c0.359788,-0.467893 -0.260128,-0.667212 -0.859775,-0.804033c1.50165,-0.697617 2.7077,-1.39692 3.34788,-3.05904c0.381747,-0.974637 -0.657077,-1.00166 -1.6959,-0.604714c0.84964,-0.851329 1.6959,-2.00333 2.11988,-3.47795c0.481406,-1.67901 -0.146956,-2.51683 -1.4932,-1.39186c1.22463,-1.20605 2.32764,-2.79891 2.27866,-4.17557" style="fill:#58595b;fill-rule:nonzero;"/><rect x="526.727" y="171.531" width="10.0031" height="6.66705" style="fill:#64a2c8;fill-rule:nonzero;"/><rect x="540.067" y="171.531" width="10.0031" height="6.66705" style="fill:#cc8c21;fill-rule:nonzero;"/><rect x="553.404" y="171.531" width="10.0031" height="6.66705" style="fill:#78b1b1;fill-rule:nonzero;"/><path d="M622.13,254.976l-147.054,0l0,-85.1076l147.054,0l0,85.1076ZM631.514,160.479l-165.832,0l0,103.874l165.832,0l0,-103.874Z" style="fill:#b3b3b3;fill-rule:nonzero;"/><path d="M565.927,282.972l-34.6613,0l0,-5.68397l34.6613,0l0,5.68397ZM455.775,271.086c0,0 3.72625,18.0823 17.0604,18.0823l0,0.00675658l151.521,0l0,-0.00675658c13.3392,0 17.0621,-18.0823 17.0621,-18.0823l-185.644,0Z" style="fill:#b3b3b3;fill-rule:nonzero;"/><path d="M445.089,185.895c2.6148,9.36969 -9.14672,14.4827 -11.9439,5.36135l-7.07921,-22.2916l-6.08937,-12.8443l-3.50835,0l20.393,69.282l-23.4994,0l0,47.1761c0,4.94919 -0.935786,7.96094 -5.15696,7.94405c-4.57083,0.0168914 -4.89345,-2.79385 -4.89345,-7.78865l-0.300668,-47.3349l-5.8039,0l-0.194252,47.3349c0,4.9948 -0.444245,7.61804 -4.59785,7.60115c-3.83943,0.0168914 -4.75325,-2.80736 -4.75325,-7.75655l0,-47.1761l-23.1987,0l20.3914,-69.282l-3.51004,0l-6.08768,13.2226l-7.07921,21.5265c-2.79891,9.12645 -14.5587,5.90863 -11.9473,-3.46106l13.0723,-41.8925c1.61482,-4.89514 7.42041,-10.6264 18.0637,-10.6264l26.5888,0c10.6416,0 16.4472,5.68059 18.0654,10.5757l13.0689,40.4297ZM413.986,114.399c0,7.56906 -6.05558,13.7007 -13.5334,13.7007c-7.47784,0 -13.5199,-6.1316 -13.5199,-13.7007c0,-7.57244 6.04038,-13.7023 13.5199,-13.7023c7.47784,-0.00337829 13.5334,6.12991 13.5334,13.7023M400.474,96.499c7.064,0 13.3257,3.20431 17.3458,8.20418l9.1653,-16.9945c-6.80725,-7.19745 -19.3964,-11.4997 -26.8709,-11.4997c-7.78358,0 -18.3053,4.27016 -26.1801,11.873l9.35111,16.459c4.01172,-4.90021 10.2109,-8.04202 17.1887,-8.04202" style="fill:#89ac96;fill-rule:nonzero;"/><rect x="398.067" y="88.9098" width="4.71609" height="4.71609" style="fill:#fff;stroke-width:0.28px;stroke:#fff;"/><rect x="398.067" y="79.5114" width="4.71609" height="4.71609" style="fill:#fff;stroke-width:0.28px;stroke:#fff;"/><rect x="402.771" y="84.2056" width="4.71609" height="4.71609" style="fill:#fff;stroke-width:0.28px;stroke:#fff;"/><rect x="398.067" y="84.2056" width="4.71609" height="4.71609" style="fill:#fff;stroke-width:0.28px;stroke:#fff;"/><rect x="393.337" y="84.2056" width="4.71609" height="4.71609" style="fill:#fff;stroke-width:0.28px;stroke:#fff;"/></g></g></svg>