<?xml version="1.0" standalone="no"?><!DOCTYPE svg PUBLIC "-//W3C//DTD SVG 1.1//EN" "http://www.w3.org/Graphics/SVG/1.1/DTD/svg11.dtd"><svg width="100%" height="100%" viewBox="0 0 980 439" version="1.1" xmlns="http://www.w3.org/2000/svg" xmlns:xlink="http://www.w3.org/1999/xlink" xml:space="preserve" style="fill-rule:evenodd;clip-rule:evenodd;stroke-miterlimit:10;"><g id="stock-diagram"><g id="Layer 1"><path d="M258.164,221.682c1.41363,-1.12771 2.82371,-2.20569 4.23201,-3.2375" style="fill:none;stroke-width:2px;stroke:#b3b3b3;"/><path d="M271.946,212.102c33.2612,-19.8317 63.8176,-15.1024 82.6761,-8.33616" style="fill:none;stroke-width:2px;stroke-dasharray:6.45,6.45;stroke:#b3b3b3;"/><path d="M359.957,205.849c1.76171,0.745886 3.37957,1.49 4.84293,2.20391" style="fill:none;stroke-width:2px;stroke:#b3b3b3;"/><path d="M374.106,213.358c-5.31355,-0.834681 -12.3338,-1.10817 -17.3703,-0.0550535l6.79466,-5.87296l1.46336,-8.86005c1.72974,4.8447 5.62788,10.6893 9.11223,14.7881" style="fill:#b3b3b3;fill-rule:nonzero;"/><path d="M381.135,307.29c-1.22183,1.33194 -2.44899,2.6177 -3.67793,3.85374" style="fill:none;stroke-width:2px;stroke:#b3b3b3;"/><path d="M369.004,318.887c-29.7839,24.751 -60.7027,24.8149 -80.3834,21.0517" style="fill:none;stroke-width:2px;stroke-dasharray:6.45,6.45;stroke:#b3b3b3;"/><path d="M283.026,338.71c-1.85583,-0.46529 -3.5696,-0.950116 -5.12352,-1.42784" style="fill:none;stroke-width:2px;stroke:#b3b3b3;"/><path d="M267.884,333.486c5.37926,0 12.3568,-0.816922 17.1696,-2.63901l-5.80192,6.85682l-0.0745886,8.97904c-2.45965,-4.51971 -7.21555,-9.68941 -11.2931,-13.1968" style="fill:#b3b3b3;fill-rule:nonzero;"/><path d="M571.847,254.097c1.73507,-0.51324 3.44528,-0.985634 5.13595,-1.42073" style="fill:none;stroke-width:2px;stroke:#b3b3b3;"/><path d="M587.024,250.485c46.1383,-8.20652 73.8853,13.156 87.979,29.8265" style="fill:none;stroke-width:2px;stroke-dasharray:5.78,5.78;stroke:#b3b3b3;"/><path d="M678.208,284.312c1.15612,1.52374 2.18615,2.97999 3.0972,4.32969" style="fill:none;stroke-width:2px;stroke:#b3b3b3;"/><path d="M686.691,297.904c-4.17873,-3.38845 -10.1103,-7.14985 -14.9959,-8.76771l8.83164,-1.66936l5.71313,-6.9243c-0.943012,5.05604 -0.506137,12.0674 0.451083,17.3614" style="fill:#b3b3b3;fill-rule:nonzero;"/><path d="M665.557,363.365c-1.76171,0.378271 -3.51277,0.717471 -5.22297,1.02293" style="fill:none;stroke-width:2px;stroke:#b3b3b3;"/><path d="M650.149,365.8c-46.6338,4.64403 -72.6564,-18.7821 -85.4288,-36.4862" style="fill:none;stroke-width:2px;stroke-dasharray:5.78,5.78;stroke:#b3b3b3;"/><path d="M561.827,325.082c-1.03536,-1.60898 -1.96061,-3.13982 -2.76333,-4.5499" style="fill:none;stroke-width:2px;stroke:#b3b3b3;"/><path d="M554.411,310.882c3.90524,3.69746 9.53313,7.90283 14.2784,9.89009l-8.91866,0.98741l-6.22814,6.475c1.31418,-4.97967 1.41896,-12.0034 0.868424,-17.3525" style="fill:#b3b3b3;fill-rule:nonzero;"/><path d="M597.596,19.6763l-19.5351,0l0,27.8127l-35.03,-28.4218l-87.5084,71.7364l0,10.5649l174.04,0l0,-10.5649l-31.9665,-25.9124l0,-45.2149Z" style="fill:#576e60;fill-rule:nonzero;"/><path d="M565.63,135.111l0,14.2073l-15.9833,0l0,15.9833l-14.2073,0l0,-15.9833l-15.9833,0l0,-14.2073l15.9833,0l0,-15.9833l14.2073,0l0,15.9833l15.9833,0ZM471.506,108.472l0,110.107l58.6053,0l0,-39.0702l24.8629,0l0,39.0702l60.3812,0l0,-110.107l-72.5534,0l-71.296,0Z" style="fill:#576e60;fill-rule:nonzero;"/><path d="M99.4514,97.8167l-14.2073,0l0,20.043l-24.2555,-19.8956l-60.9886,50.2141l0,8.24381l120.762,0l0,-8.24381l-21.311,-18.1374l0,-32.224Z" style="fill:#cc8c21;fill-rule:nonzero;"/><path d="M76.3645,179.509l0,8.87959l-10.6555,0l0,12.4314l-10.6555,0l0,-12.4314l-10.6555,0l0,-8.87959l10.6555,0l0,-10.6555l10.6555,0l0,10.6555l10.6555,0ZM10.6555,159.974l0,78.1404l40.8461,0l0,-28.4147l17.7592,0l0,28.4147l42.622,0l0,-78.1404l-51.3276,0l-49.8997,0Z" style="fill:#cc8c21;fill-rule:nonzero;"/><rect x="49.866" y="332.239" width="63.933" height="56.8294" style="fill:#89ac96;fill-rule:nonzero;"/><path d="M81.9602,330.462l8.9968,0l2.94625,3.55184l6.07186,0l-6.23525,-7.10367l-11.7797,0l-12.0318,0l-6.23702,7.10367l6.07719,0l2.94092,-3.55184l9.25076,0Z" style="fill:#89ac96;fill-rule:nonzero;"/><path d="M73.5514,349.38c1.45092,0 2.62658,1.17743 2.62658,2.62658c0,1.4527 -1.17566,2.62836 -2.62658,2.62836c-1.45092,0 -2.62658,-1.17566 -2.62658,-2.62836c0,-1.44915 1.17566,-2.62658 2.62658,-2.62658" style="fill:#fff;fill-rule:nonzero;"/><path d="M82.3426,349.38c1.44915,0 2.62658,1.17743 2.62658,2.62658c0,1.4527 -1.17743,2.62836 -2.62658,2.62836c-1.45092,0 -2.62658,-1.17566 -2.62658,-2.62836c0,-1.44915 1.17566,-2.62658 2.62658,-2.62658" style="fill:#fff;fill-rule:nonzero;"/><path d="M73.5514,357.607c1.45092,0 2.62658,1.17566 2.62658,2.62658c0,1.45092 -1.17566,2.62658 -2.62658,2.62658c-1.45092,0 -2.62658,-1.17566 -2.62658,-2.62658c0,-1.45092 1.17566,-2.62658 2.62658,-2.62658" style="fill:#fff;fill-rule:nonzero;"/><path d="M82.3426,357.607c1.44915,0 2.62658,1.17566 2.62658,2.62658c0,1.45092 -1.17743,2.62658 -2.62658,2.62658c-1.45092,0 -2.62658,-1.17566 -2.62658,-2.62658c0,-1.45092 1.17566,-2.62658 2.62658,-2.62658" style="fill:#fff;fill-rule:nonzero;"/><path d="M73.5514,365.772c1.45092,0 2.62658,1.17566 2.62658,2.62658c0,1.45092 -1.17566,2.62658 -2.62658,2.62658c-1.45092,0 -2.62658,-1.17566 -2.62658,-2.62658c0,-1.45092 1.17566,-2.62658 2.62658,-2.62658" style="fill:#fff;fill-rule:nonzero;"/><path d="M84.9457,380.448c-2.67808,0 -4.85536,-2.1826 -4.85536,-4.85714c0,-2.67631 2.17905,-4.85536 4.85536,-4.85536l6.21216,0l0.0461739,9.7125l-6.25833,0ZM68.0017,345.002l19.8938,0l0,24.6089l-2.9498,0c-0.104779,0 -0.200679,0.0248629 -0.301906,0.0284147c0.200679,-0.367615 0.330321,-0.781404 0.330321,-1.23249c0,-1.4527 -1.17566,-2.62836 -2.63013,-2.62836c-1.44915,0 -2.62836,1.17566 -2.62836,2.62836c0,1.09752 0.685504,2.03698 1.64983,2.4259c-1.39942,1.06377 -2.3229,2.70117 -2.38151,4.57476l-10.9805,0l-0.00177592,-30.4055ZM98.2242,369.609l-9.20458,0l0,-25.7366l-22.1475,0l0,32.6556l12.1863,0c0.454635,2.85212 2.91073,5.05249 5.88539,5.05249l13.2785,0c3.30143,0 5.98484,-2.69052 5.98484,-5.98307c0.00177592,-3.30498 -2.68341,-5.9884 -5.98307,-5.9884" style="fill:#fff;fill-rule:nonzero;"/><path d="M217.348,123.008c-0.767197,-0.63933 -1.74573,-1.06555 -2.76866,-1.06555c-0.767197,0 -1.79013,0.447531 -1.79013,1.34082c0,0.937685 1.12948,1.29997 1.85406,1.53439l1.06555,0.319665c2.23588,0.660641 3.9603,1.78835 3.9603,4.38829c0,1.59655 -0.383598,3.2375 -1.66226,4.32436c-1.25557,1.06555 -2.93914,1.51308 -4.55701,1.51308c-2.02455,0 -4.00469,-0.681952 -5.64564,-1.83097l1.79013,-3.36536c1.04424,0.916374 2.2785,1.66226 3.70634,1.66226c0.980307,0 2.02455,-0.490153 2.02455,-1.61964c0,-1.17211 -1.64095,-1.57524 -2.53601,-1.83097c-2.61948,-0.745886 -4.3439,-1.42784 -4.3439,-4.53747c0,-3.25881 2.3229,-5.38814 5.53731,-5.38814c1.61786,0 3.59979,0.511464 5.02585,1.32128l-1.66048,3.23395Z" style="fill:#000;fill-rule:nonzero;"/><path d="M226.156,134.935l-3.87683,0l0,-7.73235l-1.25735,0l0,-3.19488l1.25735,0l0,-3.28012l3.87683,0l0,3.28012l2.19326,0l0,3.19488l-2.19326,0l0,7.73235Z" style="fill:#000;fill-rule:nonzero;"/><path d="M233.372,129.483c0,1.38522 0.916374,2.44899 2.49161,2.44899c1.57524,0 2.49161,-1.06555 2.49161,-2.44899c0,-1.34082 -0.916374,-2.4703 -2.49161,-2.4703c-1.57524,0 -2.49161,1.12771 -2.49161,2.4703M242.447,129.483c0,3.70634 -3.06879,5.81436 -6.58155,5.81436c-3.49323,0 -6.58155,-2.08848 -6.58155,-5.81436c0,-3.72588 3.06879,-5.83567 6.58155,-5.83567c3.51277,0 6.58155,2.10801 6.58155,5.83567" style="fill:#000;fill-rule:nonzero;"/><path d="M252.507,127.565c-0.575397,-0.42622 -1.25735,-0.767197 -2.00146,-0.767197c-1.49177,0 -2.66388,1.15079 -2.66388,2.6621c0,1.57702 1.12948,2.68341 2.72603,2.68341c0.681952,0 1.42784,-0.277043 1.9393,-0.74411l0,3.28012c-0.850665,0.42622 -1.79013,0.618019 -2.72603,0.618019c-3.2375,0 -5.944,-2.40637 -5.944,-5.7078c0,-3.51454 2.68519,-5.94222 6.11271,-5.94222c0.895063,0 1.79013,0.21311 2.55555,0.63933l0.00177592,3.27834Z" style="fill:#000;fill-rule:nonzero;"/><path d="M259.104,127.948l4.02601,-3.94076l5.30289,0l-5.47338,5.04893l5.81436,5.87829l-5.43253,0l-4.23912,-4.45223l0,4.45223l-3.87683,0l0,-17.6793l3.87683,0l0.00177592,10.6928Z" style="fill:#000;fill-rule:nonzero;"/><path d="M281.931,125.798l0.042622,0c0.74411,-1.34259 2.02277,-1.93753 3.53408,-1.93753l0.745886,0l0,3.72765c-0.532775,-0.298354 -1.04424,-0.362287 -1.63917,-0.362287c-2.15241,0 -2.68519,1.42784 -2.68519,3.30143l0,4.40783l-3.87683,0l0,-10.9272l3.87683,0l0.00177592,1.79013Z" style="fill:#000;fill-rule:nonzero;"/><path d="M295.826,127.885c-0.191799,-1.04424 -1.15079,-1.72619 -2.19326,-1.72619c-1.12948,0 -2.06717,0.596708 -2.30159,1.72619l4.49485,0ZM299.425,130.121l-8.15857,0c0,1.57524 0.83113,2.42768 2.42768,2.42768c0.83113,0 1.42784,-0.277043 1.85406,-0.999842l3.72765,0c-0.618019,2.57686 -3.06701,3.74896 -5.55862,3.74896c-3.6211,0 -6.32582,-2.04408 -6.32582,-5.81436c0,-3.64241 2.49161,-5.83567 6.04878,-5.83567c3.79158,0 5.98484,2.34244 5.98484,6.07009l0,0.403133Z" style="fill:#000;fill-rule:nonzero;"/><path d="M305.291,129.483c0,1.38522 0.916374,2.44899 2.49161,2.44899c1.57524,0 2.49161,-1.06555 2.49161,-2.44899c0,-1.34082 -0.91815,-2.4703 -2.49161,-2.4703c-1.57524,-0.00177592 -2.49161,1.12771 -2.49161,2.4703M305.419,125.244l0.042622,0c0.703264,-1.08686 2.02455,-1.59655 3.30143,-1.59655c3.25881,0 5.51423,2.72603 5.51423,5.85698c0,3.15225 -2.23588,5.79304 -5.47338,5.79304c-1.25557,0 -2.55555,-0.447531 -3.38668,-1.40653l0,6.49631l-3.87683,0l0,-16.3793l3.87683,0l0.00177592,1.23604Z" style="fill:#000;fill-rule:nonzero;"/><path d="M319.88,129.483c0,1.38522 0.916374,2.44899 2.49161,2.44899c1.57524,0 2.49161,-1.06555 2.49161,-2.44899c0,-1.34082 -0.916374,-2.4703 -2.49161,-2.4703c-1.57524,0 -2.49161,1.12771 -2.49161,2.4703M328.953,129.483c0,3.70634 -3.06701,5.81436 -6.58155,5.81436c-3.49323,0 -6.58155,-2.08848 -6.58155,-5.81436c0,-3.72588 3.06879,-5.83567 6.58155,-5.83567c3.51632,-0.00177592 6.58155,2.10801 6.58155,5.83567" style="fill:#000;fill-rule:nonzero;"/><path d="M334.965,125.798l0.042622,0c0.74411,-1.34259 2.02277,-1.93753 3.53408,-1.93753l0.745886,0l0,3.72765c-0.532775,-0.298354 -1.04424,-0.362287 -1.63917,-0.362287c-2.15241,0 -2.68519,1.42784 -2.68519,3.30143l0,4.40783l-3.87683,0l0,-10.9272l3.87683,0l0.00177592,1.79013Z" style="fill:#000;fill-rule:nonzero;"/><path d="M345.59,134.935l-3.87683,0l0,-7.73235l-1.25735,0l0,-3.19488l1.25735,0l0,-3.28012l3.87683,0l0,3.28012l2.19326,0l0,3.19488l-2.19326,0l0,7.73235Z" style="fill:#000;fill-rule:nonzero;"/><path d="M356.448,126.821c-0.596708,-0.319665 -1.42784,-0.532775 -2.0867,-0.532775c-0.447531,0 -1.21473,0.191799 -1.21473,0.74411c0,0.745886 1.21473,0.852441 1.74573,0.958996c1.81144,0.362287 3.17357,1.21473 3.17357,3.2375c0,2.87521 -2.62125,4.06863 -5.15371,4.06863c-1.5557,0 -3.08832,-0.447531 -4.4096,-1.25735l1.40653,-2.70472c0.786732,0.554086 2.10979,1.10817 3.06701,1.10817c0.490153,0 1.21473,-0.234421 1.21473,-0.83113c0,-0.850665 -1.21473,-0.893287 -2.42768,-1.21473c-1.21473,-0.319665 -2.42768,-0.916374 -2.42768,-2.87521c0,-2.68341 2.42768,-3.87683 4.81451,-3.87683c1.23426,0 2.4703,0.191799 3.59801,0.703264l-1.29997,2.47208Z" style="fill:#000;fill-rule:nonzero;"/><path d="M211.725,157.898c0,1.38522 0.916374,2.44899 2.49161,2.44899c1.57524,0 2.49161,-1.06555 2.49161,-2.44899c0,-1.34082 -0.916374,-2.4703 -2.49161,-2.4703c-1.57524,0 -2.49161,1.12771 -2.49161,2.4703M220.798,157.898c0,3.70634 -3.06879,5.81436 -6.58155,5.81436c-3.49323,0 -6.58155,-2.08848 -6.58155,-5.81436c0,-3.72588 3.06879,-5.83567 6.58155,-5.83567c3.51277,0 6.58155,2.10801 6.58155,5.83567" style="fill:#000;fill-rule:nonzero;"/><path d="M226.811,154.213l0.042622,0c0.74411,-1.34259 2.02277,-1.93753 3.53408,-1.93753l0.745886,0l0,3.72765c-0.532775,-0.298354 -1.04424,-0.362287 -1.63917,-0.362287c-2.15241,0 -2.68519,1.42784 -2.68519,3.30143l0,4.40783l-3.87683,0l0,-10.9272l3.87683,0l0.00177592,1.79013Z" style="fill:#000;fill-rule:nonzero;"/><path d="M247.969,155.236c-0.596708,-0.319665 -1.42784,-0.532775 -2.0867,-0.532775c-0.447531,0 -1.21473,0.191799 -1.21473,0.74411c0,0.745886 1.21473,0.852441 1.74573,0.958996c1.81144,0.362287 3.17357,1.21473 3.17357,3.2375c0,2.87521 -2.62125,4.06863 -5.15371,4.06863c-1.5557,0 -3.08832,-0.447531 -4.4096,-1.25735l1.40653,-2.70472c0.786732,0.554086 2.10979,1.10817 3.06701,1.10817c0.490153,0 1.21473,-0.234421 1.21473,-0.83113c0,-0.850665 -1.21473,-0.893287 -2.42768,-1.21473c-1.21473,-0.319665 -2.42768,-0.916374 -2.42768,-2.87521c0,-2.68341 2.42768,-3.87683 4.81451,-3.87683c1.23426,0 2.4703,0.191799 3.59801,0.703264l-1.29997,2.47208Z" style="fill:#000;fill-rule:nonzero;"/><path d="M256.156,163.35l-3.87683,0l0,-7.73235l-1.25735,0l0,-3.19488l1.25735,0l0,-3.28012l3.87683,0l0,3.28012l2.19326,0l0,3.19488l-2.19326,0l0,7.73235Z" style="fill:#000;fill-rule:nonzero;"/><path d="M263.372,157.898c0,1.38522 0.916374,2.44899 2.49161,2.44899c1.57524,0 2.49161,-1.06555 2.49161,-2.44899c0,-1.34082 -0.916374,-2.4703 -2.49161,-2.4703c-1.57524,0 -2.49161,1.12771 -2.49161,2.4703M272.445,157.898c0,3.70634 -3.06879,5.81436 -6.58155,5.81436c-3.49323,0 -6.58155,-2.08848 -6.58155,-5.81436c0,-3.72588 3.06879,-5.83567 6.58155,-5.83567c3.51277,0 6.58155,2.10801 6.58155,5.83567" style="fill:#000;fill-rule:nonzero;"/><path d="M282.505,155.98c-0.575397,-0.42622 -1.25735,-0.767197 -2.00324,-0.767197c-1.49,0 -2.6621,1.15079 -2.6621,2.6621c0,1.57702 1.12948,2.68341 2.72603,2.68341c0.681952,0 1.42784,-0.277043 1.9393,-0.74411l0,3.28012c-0.850665,0.42622 -1.79013,0.618019 -2.72603,0.618019c-3.2375,0 -5.944,-2.40637 -5.944,-5.7078c0,-3.51454 2.68519,-5.94222 6.11271,-5.94222c0.895063,0 1.79013,0.21311 2.55555,0.63933l0.00177592,3.27834Z" style="fill:#000;fill-rule:nonzero;"/><path d="M289.105,156.363l4.02601,-3.94076l5.30289,0l-5.47338,5.04893l5.81436,5.87829l-5.43253,0l-4.23912,-4.45223l0,4.45223l-3.87683,0l0,-17.6793l3.87683,0l0.00177592,10.6928Z" style="fill:#000;fill-rule:nonzero;"/><path d="M302.79,157.898c0,1.38522 0.916374,2.44899 2.49161,2.44899c1.57524,0 2.49161,-1.06555 2.49161,-2.44899c0,-1.34082 -0.916374,-2.4703 -2.49161,-2.4703c-1.57524,0 -2.49161,1.12771 -2.49161,2.4703M311.864,157.898c0,3.70634 -3.06701,5.81436 -6.58155,5.81436c-3.49323,0 -6.58155,-2.08848 -6.58155,-5.81436c0,-3.72588 3.06879,-5.83567 6.58155,-5.83567c3.51632,-0.00177592 6.58155,2.10801 6.58155,5.83567" style="fill:#000;fill-rule:nonzero;"/><path d="M317.769,152.423l0,5.83744c0,1.38344 0.340976,2.36375 1.9393,2.36375c1.59833,0 1.93753,-0.980307 1.93753,-2.36375l0,-5.83744l3.8786,0l0,6.58155c0,3.59979 -2.53601,4.70796 -5.81436,4.70796c-3.2819,0 -5.81436,-1.10817 -5.81436,-4.70796l0,-6.58155l3.87328,0Z" style="fill:#000;fill-rule:nonzero;"/><path d="M332.665,163.35l-3.87683,0l0,-7.73235l-1.25735,0l0,-3.19488l1.25735,0l0,-3.28012l3.87683,0l0,3.28012l2.19326,0l0,3.19488l-2.19326,0l0,7.73235Z" style="fill:#000;fill-rule:nonzero;"/><path d="M343.525,155.236c-0.596708,-0.319665 -1.42784,-0.532775 -2.0867,-0.532775c-0.447531,0 -1.21473,0.191799 -1.21473,0.74411c0,0.745886 1.21473,0.852441 1.74573,0.958996c1.81144,0.362287 3.17357,1.21473 3.17357,3.2375c0,2.87521 -2.62125,4.06863 -5.15371,4.06863c-1.5557,0 -3.08832,-0.447531 -4.4096,-1.25735l1.40653,-2.70472c0.786732,0.554086 2.10979,1.10817 3.06701,1.10817c0.490153,0 1.21473,-0.234421 1.21473,-0.83113c0,-0.850665 -1.21473,-0.893287 -2.42768,-1.21473c-1.21473,-0.319665 -2.42768,-0.916374 -2.42768,-2.87521c0,-2.68341 2.42768,-3.87683 4.81451,-3.87683c1.23426,0 2.4703,0.191799 3.59801,0.703264l-1.29997,2.47208Z" style="fill:#000;fill-rule:nonzero;"/><path d="M658.29,95.7815c-0.767197,-0.63933 -1.73862,-1.06555 -2.76866,-1.06555c-0.772524,0 -1.78835,0.447531 -1.78835,1.34082c0,0.937685 1.12771,1.29997 1.85406,1.53439l1.06377,0.319665c2.23588,0.660641 3.96207,1.78835 3.96207,4.38829c0,1.59655 -0.390702,3.2375 -1.66759,4.32436c-1.25557,1.06555 -2.93914,1.51308 -4.5499,1.51308c-2.03165,0 -4.0118,-0.681952 -5.65275,-1.83097l1.79545,-3.36714c1.04602,0.916374 2.27317,1.66404 3.70812,1.66404c0.978531,0 2.02277,-0.490153 2.02277,-1.61964c0,-1.17211 -1.64095,-1.57524 -2.53423,-1.83097c-2.62658,-0.745886 -4.34567,-1.42784 -4.34567,-4.53747c0,-3.25881 2.3229,-5.38814 5.53731,-5.38814c1.61964,0 3.59446,0.511464 5.02762,1.32128l-1.66404,3.23395Z" style="fill:#000;fill-rule:nonzero;"/><path d="M667.098,107.708l-3.87683,0l0,-7.73235l-1.25735,0l0,-3.19488l1.25735,0l0,-3.28012l3.87683,0l0,3.28012l2.19326,0l0,3.19488l-2.19326,0l0,7.73235Z" style="fill:#000;fill-rule:nonzero;"/><path d="M674.315,102.256c0,1.38522 0.916374,2.44899 2.48984,2.44899c1.57702,0 2.48806,-1.06555 2.48806,-2.44899c0,-1.34082 -0.916374,-2.4703 -2.48806,-2.4703c-1.57346,0 -2.48984,1.12948 -2.48984,2.4703M683.388,102.256c0,3.70634 -3.06701,5.81436 -6.57445,5.81436c-3.49856,0 -6.58155,-2.08848 -6.58155,-5.81436c0,-3.72588 3.06879,-5.83567 6.58155,-5.83567c3.50744,0 6.57445,2.10801 6.57445,5.83567" style="fill:#000;fill-rule:nonzero;"/><path d="M693.449,100.338c-0.568294,-0.42622 -1.25735,-0.767197 -2.00146,-0.767197c-1.49177,0 -2.66388,1.14724 -2.66388,2.6621c0,1.57702 1.13659,2.68341 2.72603,2.68341c0.681952,0 1.43494,-0.277043 1.9393,-0.74411l0,3.28012c-0.850665,0.42622 -1.79013,0.618019 -2.71893,0.618019c-3.2375,0 -5.9511,-2.40637 -5.9511,-5.7078c0,-3.51454 2.69229,-5.94222 6.11449,-5.94222c0.893287,0 1.78835,0.21311 2.55199,0.63933l0.00355184,3.27834Z" style="fill:#000;fill-rule:nonzero;"/><path d="M700.048,100.724l4.02601,-3.94076l5.30289,0l-5.47338,5.04893l5.80725,5.88184l-5.43076,0l-4.24089,-4.45223l0,4.45223l-3.88038,0l0,-17.6793l3.88038,0l0.00887959,10.6893Z" style="fill:#000;fill-rule:nonzero;"/><path d="M722.873,98.5711l0.042622,0c0.74411,-1.34259 2.02277,-1.93753 3.52875,-1.93753l0.745886,0l0,3.72765c-0.532775,-0.298354 -1.04424,-0.362287 -1.63917,-0.362287c-2.15241,0 -2.68519,1.42784 -2.68519,3.30143l0,4.40783l-3.87683,0l0,-10.9272l3.87683,0l0.00710367,1.79013Z" style="fill:#000;fill-rule:nonzero;"/><path d="M736.768,100.66c-0.191799,-1.04424 -1.15079,-1.72619 -2.19326,-1.72619c-1.12948,0 -2.06717,0.596708 -2.30159,1.72619l4.49485,0ZM740.368,102.896l-8.16212,0c0,1.57524 0.829354,2.42768 2.42768,2.42768c0.83113,0 1.42784,-0.277043 1.85406,-0.999842l3.7312,0c-0.621571,2.57686 -3.06879,3.74896 -5.56217,3.74896c-3.62287,0 -6.32582,-2.04408 -6.32582,-5.81436c0,-3.64241 2.48984,-5.83567 6.04878,-5.83567c3.79158,0 5.97952,2.34244 5.97952,6.07009l0,0.403133l0.00887959,0Z" style="fill:#000;fill-rule:nonzero;"/><path d="M746.234,102.256c0,1.38522 0.916374,2.44899 2.48451,2.44899c1.58234,0 2.49339,-1.06555 2.49339,-2.44899c0,-1.34082 -0.91815,-2.4703 -2.49339,-2.4703c-1.56814,0 -2.48451,1.12948 -2.48451,2.4703M746.362,98.0174l0.042622,0c0.703264,-1.08686 2.02277,-1.59655 3.30143,-1.59655c3.25881,0 5.51245,2.72603 5.51245,5.85698c0,3.15225 -2.23588,5.79304 -5.47338,5.79304c-1.25557,0 -2.55377,-0.447531 -3.38845,-1.40653l0,6.49631l-3.87505,0l0,-16.3793l3.87505,0l0,1.23604l0.00532775,0Z" style="fill:#000;fill-rule:nonzero;"/><path d="M760.823,102.256c0,1.38522 0.916374,2.44899 2.49161,2.44899c1.57524,0 2.48629,-1.06555 2.48629,-2.44899c0,-1.34082 -0.916374,-2.4703 -2.48629,-2.4703c-1.57524,0 -2.49161,1.12948 -2.49161,2.4703M769.898,102.256c0,3.70634 -3.07056,5.81436 -6.58155,5.81436c-3.49856,0 -6.58155,-2.08848 -6.58155,-5.81436c0,-3.72588 3.06879,-5.83567 6.58155,-5.83567c3.51454,0 6.58155,2.10801 6.58155,5.83567" style="fill:#000;fill-rule:nonzero;"/><path d="M775.908,98.5711l0.0372943,0c0.742334,-1.34259 2.0281,-1.93753 3.53408,-1.93753l0.745886,0l0,3.72765c-0.532775,-0.298354 -1.04424,-0.362287 -1.63917,-0.362287c-2.15241,0 -2.68519,1.42784 -2.68519,3.30143l0,4.40783l-3.88216,0l0,-10.9272l3.88216,0l0.00710367,1.79013Z" style="fill:#000;fill-rule:nonzero;"/><path d="M786.532,107.708l-3.87683,0l0,-7.73235l-1.25735,0l0,-3.19488l1.25735,0l0,-3.28012l3.87683,0l0,3.28012l2.19326,0l0,3.19488l-2.19326,0l0,7.73235Z" style="fill:#000;fill-rule:nonzero;"/><path d="M797.391,99.5944c-0.596708,-0.319665 -1.42784,-0.532775 -2.0867,-0.532775c-0.447531,0 -1.21473,0.191799 -1.21473,0.74411c0,0.745886 1.21473,0.852441 1.7404,0.958996c1.81499,0.362287 3.17357,1.21473 3.17357,3.2375c0,2.87521 -2.62303,4.06863 -5.15371,4.06863c-1.5557,0 -3.08122,-0.447531 -4.40428,-1.25735l1.40653,-2.70472c0.781404,0.554086 2.10979,1.10817 3.06701,1.10817c0.490153,0 1.22006,-0.234421 1.22006,-0.83113c0,-0.850665 -1.22006,-0.893287 -2.42768,-1.21473c-1.22006,-0.319665 -2.42768,-0.916374 -2.42768,-2.87521c0,-2.68341 2.42768,-3.87683 4.81451,-3.87683c1.23426,0 2.4703,0.191799 3.59801,0.703264l-1.3053,2.47208Z" style="fill:#000;fill-rule:nonzero;"/><path d="M652.667,130.671c0,1.38522 0.923477,2.44899 2.49161,2.44899c1.56991,0 2.49339,-1.06555 2.49339,-2.44899c0,-1.34082 -0.923477,-2.4703 -2.49339,-2.4703c-1.56814,0 -2.49161,1.12948 -2.49161,2.4703M661.74,130.671c0,3.70634 -3.07056,5.81436 -6.58155,5.81436c-3.49145,0 -6.58155,-2.08848 -6.58155,-5.81436c0,-3.72588 3.06879,-5.83567 6.58155,-5.83567c3.51277,0 6.58155,2.10801 6.58155,5.83567" style="fill:#000;fill-rule:nonzero;"/><path d="M667.754,126.986l0.042622,0c0.74411,-1.34259 2.02277,-1.93753 3.5323,-1.93753l0.749437,0l0,3.72765c-0.539879,-0.298354 -1.05134,-0.362287 -1.64628,-0.362287c-2.15241,0 -2.68519,1.42784 -2.68519,3.30143l0,4.40783l-3.87683,0l0,-10.9272l3.87683,0l0.00710367,1.79013Z" style="fill:#000;fill-rule:nonzero;"/><path d="M688.912,128.009c-0.596708,-0.319665 -1.42784,-0.532775 -2.0867,-0.532775c-0.447531,0 -1.21473,0.191799 -1.21473,0.74411c0,0.745886 1.21473,0.852441 1.7404,0.958996c1.81321,0.362287 3.17357,1.21473 3.17357,3.2375c0,2.87521 -2.62125,4.06863 -5.15371,4.06863c-1.5557,0 -3.08122,-0.447531 -4.40428,-1.25735l1.40653,-2.70472c0.781404,0.554086 2.10979,1.10817 3.06701,1.10817c0.490153,0 1.22006,-0.234421 1.22006,-0.83113c0,-0.850665 -1.22006,-0.893287 -2.42768,-1.21473c-1.22006,-0.319665 -2.42768,-0.916374 -2.42768,-2.87521c0,-2.68341 2.42768,-3.87683 4.81451,-3.87683c1.23426,0 2.4703,0.191799 3.59801,0.703264l-1.3053,2.47208Z" style="fill:#000;fill-rule:nonzero;"/><path d="M697.1,136.123l-3.88393,0l0,-7.73235l-1.25735,0l0,-3.19488l1.25735,0l0,-3.28012l3.88393,0l0,3.28012l2.18615,0l0,3.19488l-2.18615,0l0,7.73235Z" style="fill:#000;fill-rule:nonzero;"/><path d="M704.314,130.671c0,1.38522 0.923477,2.44899 2.49161,2.44899c1.56991,0 2.49339,-1.06555 2.49339,-2.44899c0,-1.34082 -0.923477,-2.4703 -2.49339,-2.4703c-1.56814,0 -2.49161,1.12948 -2.49161,2.4703M713.388,130.671c0,3.70634 -3.07056,5.81436 -6.58155,5.81436c-3.49145,0 -6.58155,-2.08848 -6.58155,-5.81436c0,-3.72588 3.06879,-5.83567 6.58155,-5.83567c3.51277,0 6.58155,2.10801 6.58155,5.83567" style="fill:#000;fill-rule:nonzero;"/><path d="M723.447,128.753c-0.575397,-0.42622 -1.25735,-0.767197 -2.00324,-0.767197c-1.49,0 -2.6621,1.14724 -2.6621,2.6621c0,1.57702 1.12948,2.68341 2.72603,2.68341c0.681952,0 1.42784,-0.277043 1.9393,-0.74411l0,3.28012c-0.850665,0.42622 -1.79013,0.618019 -2.72603,0.618019c-3.2375,0 -5.944,-2.40637 -5.944,-5.7078c0,-3.51454 2.68519,-5.94222 6.10738,-5.94222c0.895063,0 1.78835,0.21311 2.55555,0.63933l0.00710367,3.27834Z" style="fill:#000;fill-rule:nonzero;"/><path d="M730.048,129.139l4.02601,-3.94076l5.30289,0l-5.47338,5.04893l5.81436,5.88184l-5.43786,0l-4.23912,-4.45223l0,4.45223l-3.8786,0l0,-17.6793l3.8786,0l0.00710367,10.6893Z" style="fill:#000;fill-rule:nonzero;"/><path d="M743.733,130.671c0,1.38522 0.916374,2.44899 2.49161,2.44899c1.57524,0 2.48629,-1.06555 2.48629,-2.44899c0,-1.34082 -0.916374,-2.4703 -2.48629,-2.4703c-1.57524,0 -2.49161,1.12948 -2.49161,2.4703M752.806,130.671c0,3.70634 -3.07056,5.81436 -6.58155,5.81436c-3.49856,0 -6.58155,-2.08848 -6.58155,-5.81436c0,-3.72588 3.06879,-5.83567 6.58155,-5.83567c3.51632,0 6.58155,2.10801 6.58155,5.83567" style="fill:#000;fill-rule:nonzero;"/><path d="M758.711,125.196l0,5.83744c0,1.38344 0.340976,2.36375 1.94641,2.36375c1.59122,0 1.93753,-0.980307 1.93753,-2.36375l0,-5.83744l3.87683,0l0,6.58155c0,3.59979 -2.53601,4.70796 -5.80725,4.70796c-3.289,0 -5.81613,-1.10817 -5.81613,-4.70796l0,-6.58155l3.86262,0Z" style="fill:#000;fill-rule:nonzero;"/><path d="M773.608,136.123l-3.88393,0l0,-7.73235l-1.25735,0l0,-3.19488l1.25735,0l0,-3.28012l3.88393,0l0,3.28012l2.18615,0l0,3.19488l-2.18615,0l0,7.73235Z" style="fill:#000;fill-rule:nonzero;"/><path d="M784.467,128.009c-0.596708,-0.319665 -1.42784,-0.532775 -2.0867,-0.532775c-0.447531,0 -1.21295,0.191799 -1.21295,0.74411c0,0.745886 1.21295,0.852441 1.73862,0.958996c1.81499,0.362287 3.17357,1.21473 3.17357,3.2375c0,2.87521 -2.61948,4.06863 -5.14661,4.06863c-1.5557,0 -3.08832,-0.447531 -4.41138,-1.25735l1.40653,-2.70472c0.788508,0.554086 2.11157,1.10817 3.07234,1.10817c0.48305,0 1.21295,-0.234421 1.21295,-0.83113c0,-0.850665 -1.21295,-0.893287 -2.42768,-1.21473c-1.21295,-0.319665 -2.42768,-0.916374 -2.42768,-2.87521c0,-2.68341 2.42768,-3.87683 4.81451,-3.87683c1.23426,0 2.47741,0.191799 3.59801,0.703264l-1.30352,2.47208Z" style="fill:#000;fill-rule:nonzero;"/><path d="M277.391,378.245l0.935909,0c2.49161,0 4.62449,-1.3639 4.62449,-4.49485c0,-2.87521 -1.89668,-4.49662 -4.58009,-4.49662l-0.980307,0l0,8.99147ZM273.218,365.72l5.92091,0c4.47354,0 8.15857,3.51632 8.15857,8.0307c0,4.51438 -3.70634,8.02892 -8.15857,8.02892l-5.92091,0l0,-16.0596Z" style="fill:#000;fill-rule:nonzero;"/><path d="M293.359,381.78l-3.87683,0l0,-10.9272l3.87683,0l0,10.9272ZM293.591,366.656c0,1.19164 -0.980307,2.17195 -2.17372,2.17195c-1.19164,0 -2.17195,-0.980307 -2.17195,-2.17195c0,-1.19342 0.980307,-2.17195 2.17195,-2.17195c1.19519,0.00177592 2.17372,0.978531 2.17372,2.17195" style="fill:#000;fill-rule:nonzero;"/><path d="M303.255,373.665c-0.596708,-0.321441 -1.42784,-0.532775 -2.0867,-0.532775c-0.447531,0 -1.21473,0.186471 -1.21473,0.742334c0,0.747661 1.21473,0.850665 1.74573,0.960772c1.81144,0.360511 3.17357,1.21473 3.17357,3.23572c0,2.87166 -2.62125,4.06863 -5.15371,4.06863c-1.5557,0 -3.08832,-0.445755 -4.4096,-1.25557l1.40653,-2.70472c0.786732,0.554086 2.10979,1.10817 3.06701,1.10817c0.490153,0 1.21473,-0.234421 1.21473,-0.83113c0,-0.850665 -1.21473,-0.895063 -2.42768,-1.22006c-1.21473,-0.319665 -2.42768,-0.916374 -2.42768,-2.86811c0,-2.69052 2.42768,-3.88393 4.81451,-3.88393c1.23426,0 2.4703,0.184695 3.59801,0.701488l-1.29997,2.47918Z" style="fill:#000;fill-rule:nonzero;"/><path d="M311.443,381.78l-3.87683,0l0,-7.73235l-1.25735,0l0,-3.19488l1.25735,0l0,-3.28012l3.87683,0l0,3.28012l2.19326,0l0,3.19488l-2.19326,0l0,7.73235Z" style="fill:#000;fill-rule:nonzero;"/><path d="M319.25,372.642l0.042622,0c0.74411,-1.34259 2.02277,-1.93753 3.53408,-1.93753l0.745886,0l0,3.72765c-0.532775,-0.298354 -1.04424,-0.362287 -1.64095,-0.362287c-2.15064,0 -2.68341,1.42784 -2.68341,3.30143l0,4.4096l-3.87683,0l0,-10.929l3.87683,0l0.00177592,1.79013Z" style="fill:#000;fill-rule:nonzero;"/><path d="M329.063,381.78l-3.87683,0l0,-10.9272l3.87683,0l0,10.9272ZM329.298,366.656c0,1.19164 -0.980307,2.17195 -2.17372,2.17195c-1.19164,0 -2.17195,-0.980307 -2.17195,-2.17195c0,-1.19342 0.980307,-2.17195 2.17195,-2.17195c1.19342,0.00177592 2.17372,0.978531 2.17372,2.17195" style="fill:#000;fill-rule:nonzero;"/><path d="M335.574,376.327c0,1.38344 0.916374,2.44899 2.49161,2.44899c1.57524,0 2.49161,-1.06555 2.49161,-2.44899c0,-1.34259 -0.91815,-2.4703 -2.49161,-2.4703c-1.57524,0 -2.49161,1.12771 -2.49161,2.4703M331.825,364.1l3.87683,0l0,7.81404c0.83113,-0.951892 2.1311,-1.42784 3.38668,-1.42784c3.2375,0 5.47338,2.68341 5.47338,5.80903c0,3.15225 -2.25719,5.83922 -5.51423,5.83922c-1.27866,0 -2.59994,-0.486602 -3.30143,-1.57879l-0.042622,0l0,1.21295l-3.87683,0l-0.00177592,-17.6686Z" style="fill:#000;fill-rule:nonzero;"/><path d="M350.55,370.854l0,5.83744c0,1.38344 0.340976,2.36197 1.9393,2.36197c1.59833,0 1.93753,-0.978531 1.93753,-2.36197l0,-5.83744l3.8786,0l0,6.58155c0,3.59801 -2.53601,4.70796 -5.81436,4.70796c-3.27834,0 -5.81436,-1.10995 -5.81436,-4.70796l0,-6.58155l3.87328,0Z" style="fill:#000;fill-rule:nonzero;"/><path d="M365.444,381.78l-3.87683,0l0,-7.73235l-1.25735,0l0,-3.19488l1.25735,0l0,-3.28012l3.87683,0l0,3.28012l2.19326,0l0,3.19488l-2.19326,0l0,7.73235Z" style="fill:#000;fill-rule:nonzero;"/><path d="M373.181,381.78l-3.87683,0l0,-10.9272l3.87683,0l0,10.9272ZM373.415,366.656c0,1.19164 -0.980307,2.17195 -2.17372,2.17195c-1.19164,0 -2.17195,-0.980307 -2.17195,-2.17195c0,-1.19342 0.980307,-2.17195 2.17195,-2.17195c1.19342,0.00177592 2.17372,0.978531 2.17372,2.17195" style="fill:#000;fill-rule:nonzero;"/><path d="M379.325,376.327c0,1.38344 0.916374,2.44899 2.49161,2.44899c1.57524,0 2.49161,-1.06555 2.49161,-2.44899c0,-1.34259 -0.916374,-2.4703 -2.49161,-2.4703c-1.57524,0 -2.49161,1.12771 -2.49161,2.4703M388.398,376.327c0,3.70634 -3.06879,5.81258 -6.58155,5.81258c-3.49323,0 -6.58155,-2.09203 -6.58155,-5.81258c0,-3.72588 3.06879,-5.83567 6.58155,-5.83567c3.51277,0 6.58155,2.10979 6.58155,5.83567" style="fill:#000;fill-rule:nonzero;"/><path d="M394.412,372.26l0.042622,0c0.893287,-1.32128 1.98015,-1.76881 3.49323,-1.76881c2.93914,0 4.10947,1.85228 4.10947,4.53925l0,6.74849l-3.87683,0l0,-5.3242c0,-1.04424 0.170488,-2.87521 -1.74573,-2.87521c-1.57702,0 -2.02455,1.17211 -2.02455,2.53956l0,5.65985l-3.87683,0l0,-10.9219l3.87683,0l0.00177592,1.40298Z" style="fill:#000;fill-rule:nonzero;"/><path d="M276.413,404.742c0,1.38344 0.916374,2.44899 2.49161,2.44899c1.57524,0 2.49161,-1.06555 2.49161,-2.44899c0,-1.34259 -0.916374,-2.4703 -2.49161,-2.4703c-1.57524,0 -2.49161,1.12771 -2.49161,2.4703M285.486,404.742c0,3.70634 -3.06879,5.81258 -6.58155,5.81258c-3.49323,0 -6.58155,-2.09203 -6.58155,-5.81258c0,-3.72588 3.06879,-5.83567 6.58155,-5.83567c3.51277,0 6.58155,2.10979 6.58155,5.83567" style="fill:#000;fill-rule:nonzero;"/><path d="M291.499,401.056l0.042622,0c0.74411,-1.34259 2.02277,-1.93753 3.53408,-1.93753l0.745886,0l0,3.72765c-0.532775,-0.298354 -1.04424,-0.362287 -1.63917,-0.362287c-2.15241,0 -2.68519,1.42784 -2.68519,3.30143l0,4.4096l-3.87683,0l0,-10.929l3.87683,0l0.00177592,1.79013Z" style="fill:#000;fill-rule:nonzero;"/><path d="M308.652,404.742c0,1.38344 0.916374,2.44899 2.49161,2.44899c1.57524,0 2.49161,-1.06555 2.49161,-2.44899c0,-1.34259 -0.916374,-2.4703 -2.49161,-2.4703c-1.57524,0 -2.49161,1.12771 -2.49161,2.4703M317.386,410.194l-3.8786,0l0,-1.22006l-0.0408461,0c-0.681952,1.08509 -2.02455,1.58057 -3.30143,1.58057c-3.23572,0 -5.516,-2.70295 -5.516,-5.83744c0,-3.1345 2.23766,-5.81258 5.47515,-5.81258c1.25557,0 2.57686,0.468842 3.3849,1.42784l0,-1.06555l3.8786,0l-0.00177592,10.9272Z" style="fill:#000;fill-rule:nonzero;"/><path d="M323.622,404.742c0,1.38344 0.916374,2.44899 2.49161,2.44899c1.57524,0 2.49161,-1.06555 2.49161,-2.44899c0,-1.34259 -0.916374,-2.4703 -2.49161,-2.4703c-1.57524,0 -2.49161,1.12771 -2.49161,2.4703M328.477,408.981l-0.0408461,0c-0.681952,1.08686 -2.02455,1.57702 -3.30143,1.57702c-3.23572,0 -5.516,-2.6994 -5.516,-5.83744c0,-3.13094 2.23766,-5.80903 5.47515,-5.80903c1.25557,0 2.57686,0.47417 3.3849,1.43139l0,-7.81759l3.8786,0l0,17.6793l-3.8786,0l-0.00177592,-1.22361Z" style="fill:#000;fill-rule:nonzero;"/><path d="M340.649,404.87l2.59817,-5.60125l4.3439,0l-5.7078,10.9254l-2.47208,0l-5.72911,-10.9254l4.3439,0l2.62303,5.60125Z" style="fill:#000;fill-rule:nonzero;"/><path d="M352.861,410.194l-3.87683,0l0,-10.9272l3.87683,0l0,10.9272ZM353.095,395.071c0,1.19164 -0.980307,2.17195 -2.17372,2.17195c-1.19164,0 -2.17195,-0.980307 -2.17195,-2.17195c0,-1.19342 0.980307,-2.17195 2.17195,-2.17195c1.19342,0.00177592 2.17372,0.978531 2.17372,2.17195" style="fill:#000;fill-rule:nonzero;"/><path d="M363.594,402.825c-0.575397,-0.42622 -1.25735,-0.768972 -2.00324,-0.768972c-1.49,0 -2.6621,1.14724 -2.6621,2.66388c0,1.57702 1.12948,2.68341 2.72603,2.68341c0.681952,0 1.42784,-0.277043 1.9393,-0.74411l0,3.28012c-0.850665,0.42622 -1.79013,0.618019 -2.72603,0.618019c-3.2375,0 -5.944,-2.40282 -5.944,-5.7078c0,-3.51454 2.68519,-5.94222 6.11271,-5.94222c0.895063,0 1.79013,0.21311 2.55555,0.637555l0.00177592,3.28012Z" style="fill:#000;fill-rule:nonzero;"/><path d="M373.871,403.145c-0.191799,-1.04424 -1.15079,-1.72619 -2.19326,-1.72619c-1.12948,0 -2.06717,0.596708 -2.30159,1.72619l4.49485,0ZM377.471,405.38l-8.15857,0c0,1.58057 0.83113,2.42768 2.42768,2.42768c0.83113,0 1.42784,-0.277043 1.85406,-0.998066l3.72765,0c-0.618019,2.57686 -3.06701,3.74896 -5.55862,3.74896c-3.6211,0 -6.32582,-2.04408 -6.32582,-5.81436c0,-3.64418 2.49161,-5.83567 6.04878,-5.83567c3.79158,0 5.98484,2.34066 5.98484,6.07009l0,0.401357Z" style="fill:#000;fill-rule:nonzero;"/><path d="M819.77,371.7l0.935909,0c2.49339,0 4.62627,-1.36568 4.62627,-4.49485c0,-2.87521 -1.89846,-4.4913 -4.58009,-4.4913l-0.98741,0l0.00532775,8.98614ZM815.595,359.173l5.92091,0c4.47887,0 8.15857,3.51632 8.15857,8.02892c0,4.51616 -3.70634,8.02892 -8.15857,8.02892l-5.92091,0l0,-16.0578Z" style="fill:#808080;fill-rule:nonzero;"/><path d="M835.736,375.232l-3.87683,0l0,-10.9272l3.87683,0l0,10.9272ZM835.971,360.112c0,1.19164 -0.980307,2.17017 -2.17372,2.17017c-1.19164,0 -2.17195,-0.978531 -2.17195,-2.17017c0,-1.19342 0.980307,-2.1755 2.17195,-2.1755c1.19342,0.00355184 2.17372,0.982083 2.17372,2.1755" style="fill:#808080;fill-rule:nonzero;"/><path d="M845.634,367.118c-0.596708,-0.319665 -1.42784,-0.532775 -2.0867,-0.532775c-0.447531,0 -1.22006,0.193575 -1.22006,0.74411c0,0.745886 1.22006,0.854217 1.74573,0.958996c1.81144,0.362287 3.17357,1.2165 3.17357,3.2375c0,2.87699 -2.62658,4.06863 -5.15371,4.06863c-1.5557,0 -3.08832,-0.447531 -4.40428,-1.25735l1.40653,-2.70295c0.781404,0.554086 2.10979,1.1064 3.06701,1.1064c0.490153,0 1.21473,-0.234421 1.21473,-0.83113c0,-0.850665 -1.21473,-0.893287 -2.42235,-1.21473c-1.22006,-0.319665 -2.42768,-0.916374 -2.42768,-2.87344c0,-2.68341 2.42768,-3.87683 4.81451,-3.87683c1.23426,0 2.4703,0.184695 3.59801,0.701488l-1.3053,2.47208Z" style="fill:#808080;fill-rule:nonzero;"/><path d="M853.821,375.233l-3.88393,0l0,-7.73235l-1.25735,0l0,-3.19488l1.25735,0l0,-3.28012l3.88393,0l0,3.28012l2.18615,0l0,3.19488l-2.18615,0l0,7.73235Z" style="fill:#808080;fill-rule:nonzero;"/><path d="M861.627,366.095l0.042622,0c0.74411,-1.34259 2.02277,-1.93575 3.52875,-1.93575l0.752989,0l0,3.72765c-0.539879,-0.30013 -1.05134,-0.362287 -1.64805,-0.362287c-2.15064,0 -2.68341,1.42606 -2.68341,3.30143l0,4.4025l-3.87683,0l0,-10.9237l3.87683,0l0.00710367,1.79013Z" style="fill:#808080;fill-rule:nonzero;"/><path d="M871.441,375.232l-3.88393,0l0,-10.9272l3.88393,0l0,10.9272ZM871.676,360.112c0,1.19164 -0.980307,2.17017 -2.17372,2.17017c-1.19697,0 -2.17728,-0.978531 -2.17728,-2.17017c0,-1.19342 0.980307,-2.1755 2.17728,-2.1755c1.19342,0.00355184 2.17372,0.982083 2.17372,2.1755" style="fill:#808080;fill-rule:nonzero;"/><path d="M882.177,367.864c-0.575397,-0.42622 -1.25735,-0.767197 -2.00146,-0.767197c-1.49177,0 -2.66388,1.15257 -2.66388,2.6621c0,1.57702 1.12948,2.68341 2.72603,2.68341c0.681952,0 1.42784,-0.277043 1.9393,-0.74411l0,3.28012c-0.850665,0.42622 -1.79013,0.623347 -2.72603,0.623347c-3.2375,0 -5.944,-2.40282 -5.944,-5.70602c0,-3.51632 2.68519,-5.94755 6.10738,-5.94755c0.895063,0 1.79013,0.211334 2.55555,0.637555l0.00710367,3.27834Z" style="fill:#808080;fill-rule:nonzero;"/><path d="M889.28,375.233l-3.88393,0l0,-7.73235l-1.25025,0l0,-3.19488l1.25025,0l0,-3.28012l3.88393,0l0,3.28012l2.19148,0l0,3.19488l-2.19148,0l0,7.73235Z" style="fill:#808080;fill-rule:nonzero;"/><path d="M904.752,357.555l0,8.13726l0.042622,0c0.893287,-1.19342 1.97482,-1.74395 3.49323,-1.74395c2.76866,0 4.10592,1.83097 4.10592,4.59785l0,6.69343l-3.87683,0l0,-5.59592c0,-1.28399 -0.191799,-2.59817 -1.74573,-2.59817c-1.52729,0 -2.02455,1.31596 -2.02455,2.59817l0,5.59592l-3.88038,0l0,-17.6793l3.88571,-0.00532775Z" style="fill:#808080;fill-rule:nonzero;"/><path d="M922.933,368.185c-0.191799,-1.04602 -1.15079,-1.72619 -2.19326,-1.72619c-1.12948,0 -2.06717,0.596708 -2.30159,1.72619l4.49485,0ZM926.531,370.42l-8.15679,0c0,1.57524 0.829354,2.42768 2.42768,2.42768c0.83113,0 1.42784,-0.277043 1.85406,-0.999842l3.72588,0c-0.616244,2.57686 -3.06523,3.74896 -5.55862,3.74896c-3.6211,0 -6.32404,-2.04586 -6.32404,-5.81613c0,-3.64063 2.48451,-5.83389 6.04167,-5.83389c3.79869,0 5.98484,2.34244 5.98484,6.07009l0.00532775,0.403133Z" style="fill:#808080;fill-rule:nonzero;"/><path d="M931.982,369.782c0,1.38344 0.916374,2.44899 2.49161,2.44899c1.57524,0 2.48629,-1.06733 2.48629,-2.44899c0,-1.34259 -0.916374,-2.47208 -2.48629,-2.47208c-1.57524,0 -2.49161,1.12948 -2.49161,2.47208M940.716,375.232l-3.8786,0l0,-1.21473l-0.0408461,0c-0.681952,1.08864 -2.02455,1.57702 -3.30143,1.57702c-3.23039,0 -5.51245,-2.70472 -5.51245,-5.83744c0,-3.12917 2.23766,-5.81258 5.47515,-5.81258c1.25557,0 2.57686,0.472394 3.3849,1.43317l0,-1.07265l3.8786,0l-0.00532775,10.9272Z" style="fill:#808080;fill-rule:nonzero;"/><rect x="943.567" y="357.553" width="3.87683" height="17.6793" style="fill:#808080;fill-rule:nonzero;"/><path d="M954.693,375.233l-3.87683,0l0,-7.73235l-1.25913,0l0,-3.19488l1.25913,0l0,-3.28012l3.87683,0l0,3.28012l2.19326,0l0,3.19488l-2.19326,0l0,7.73235Z" style="fill:#808080;fill-rule:nonzero;"/><path d="M962.499,357.555l0,8.13726l0.042622,0c0.893287,-1.19342 1.98192,-1.74395 3.49323,-1.74395c2.77576,0 4.11125,1.83097 4.11125,4.59785l0,6.69343l-3.88393,0l0,-5.59592c0,-1.28399 -0.184695,-2.59817 -1.73862,-2.59817c-1.53439,0 -2.03165,1.31596 -2.03165,2.59817l0,5.59592l-3.87683,0l0,-17.6793l3.88393,-0.00532775Z" style="fill:#808080;fill-rule:nonzero;"/><path d="M823.391,396.279c-0.568294,-0.42622 -1.25735,-0.767197 -2.00146,-0.767197c-1.49177,0 -2.66388,1.15257 -2.66388,2.6621c0,1.57702 1.13659,2.68341 2.72603,2.68341c0.681952,0 1.43494,-0.277043 1.9393,-0.74411l0,3.28012c-0.850665,0.42622 -1.79013,0.623347 -2.71893,0.623347c-3.2375,0 -5.9511,-2.40282 -5.9511,-5.70602c0,-3.51632 2.69229,-5.94755 6.11449,-5.94755c0.893287,0 1.78835,0.211334 2.55199,0.637555l0.00355184,3.27834Z" style="fill:#808080;fill-rule:nonzero;"/><path d="M833.669,396.599c-0.184695,-1.04602 -1.14724,-1.72619 -2.18615,-1.72619c-1.13659,0 -2.06894,0.596708 -2.30159,1.72619l4.48774,0ZM837.267,398.835l-8.15679,0c0,1.57524 0.829354,2.42768 2.42058,2.42768c0.838233,0 1.43494,-0.277043 1.86116,-0.999842l3.72588,0c-0.616244,2.57686 -3.07056,3.74896 -5.55862,3.74896c-3.6211,0 -6.32582,-2.04586 -6.32582,-5.81613c0,-3.64063 2.49161,-5.83389 6.04878,-5.83389c3.79158,0 5.98484,2.34244 5.98484,6.07009l0,0.403133Z" style="fill:#808080;fill-rule:nonzero;"/><path d="M843.325,394.128l0.0372943,0c0.891511,-1.32128 1.98015,-1.76881 3.49856,-1.76881c2.93382,0 4.10592,1.85228 4.10592,4.54457l0,6.75026l-3.87683,0l0,-5.32598c0,-1.04246 0.170488,-2.87166 -1.74573,-2.87166c-1.57702,0 -2.02455,1.16855 -2.02455,2.53601l0,5.65985l-3.88216,0l0,-10.9219l3.88216,0l0.00532775,1.39765Z" style="fill:#808080;fill-rule:nonzero;"/><path d="M858.081,403.647l-3.87683,0l0,-7.73235l-1.25735,0l0,-3.19488l1.25735,0l0,-3.28012l3.87683,0l0,3.28012l2.19326,0l0,3.19488l-2.19326,0l0,7.73235Z" style="fill:#808080;fill-rule:nonzero;"/><path d="M869.676,396.599c-0.191799,-1.04602 -1.15079,-1.72619 -2.19326,-1.72619c-1.12948,0 -2.06717,0.596708 -2.30159,1.72619l4.49485,0ZM873.274,398.835l-8.16389,0c0,1.57524 0.836457,2.42768 2.42768,2.42768c0.83113,0 1.42784,-0.277043 1.85406,-0.999842l3.73298,0c-0.623347,2.57686 -3.07056,3.74896 -5.56395,3.74896c-3.61577,0 -6.32582,-2.04586 -6.32582,-5.81613c0,-3.64063 2.49161,-5.83389 6.04878,-5.83389c3.79158,0 5.98129,2.34244 5.98129,6.07009l0.00887959,0.403133Z" style="fill:#808080;fill-rule:nonzero;"/><path d="M879.333,394.51l0.042622,0c0.74411,-1.34259 2.02277,-1.93575 3.53585,-1.93575l0.745886,0l0,3.72765c-0.532775,-0.30013 -1.04424,-0.362287 -1.63917,-0.362287c-2.15241,0 -2.69229,1.42606 -2.69229,3.30143l0,4.4025l-3.87683,0l0,-10.9237l3.87683,0l0.00710367,1.79013Z" style="fill:#808080;fill-rule:nonzero;"/><path d="M379.51,14.1457l5.00454,0l0,3.53585l-9.17972,0l0,-16.0596l4.17518,0l0,12.5238Z" style="fill:#808080;fill-rule:nonzero;"/><path d="M389.661,12.2284c0,1.38522 0.916374,2.44899 2.49161,2.44899c1.57524,0 2.49161,-1.06555 2.49161,-2.44899c0,-1.34082 -0.916374,-2.4703 -2.49161,-2.4703c-1.57524,0 -2.49161,1.12948 -2.49161,2.4703M398.735,12.2284c0,3.70634 -3.06879,5.81436 -6.58155,5.81436c-3.49323,0 -6.58155,-2.08848 -6.58155,-5.81436c0,-3.72588 3.06879,-5.83567 6.58155,-5.83567c3.51277,0 6.58155,2.10979 6.58155,5.83567" style="fill:#808080;fill-rule:nonzero;"/><path d="M408.795,10.312c-0.575397,-0.42622 -1.25735,-0.767197 -2.00146,-0.767197c-1.49177,0 -2.66388,1.15079 -2.66388,2.6621c0,1.57702 1.12948,2.68341 2.72603,2.68341c0.681952,0 1.42784,-0.277043 1.9393,-0.74411l0,3.28012c-0.850665,0.42622 -1.79013,0.618019 -2.72603,0.618019c-3.2375,0 -5.944,-2.40637 -5.944,-5.7078c0,-3.51454 2.68519,-5.94222 6.11271,-5.94222c0.895063,0 1.79013,0.21311 2.55555,0.63933l0.00177592,3.27834Z" style="fill:#808080;fill-rule:nonzero;"/><path d="M414.652,12.2284c0,1.38522 0.916374,2.44899 2.49161,2.44899c1.57524,0 2.49161,-1.06555 2.49161,-2.44899c0,-1.34082 -0.916374,-2.4703 -2.49161,-2.4703c-1.57524,0 -2.49161,1.12948 -2.49161,2.4703M423.386,17.6805l-3.8786,0l0,-1.21473l-0.0408461,0c-0.681952,1.08686 -2.02455,1.57702 -3.30143,1.57702c-3.23572,0 -5.516,-2.70472 -5.516,-5.83744c0,-3.13094 2.23766,-5.81436 5.47515,-5.81436c1.25557,0 2.57686,0.468842 3.3849,1.42784l0,-1.06555l3.8786,0l-0.00177592,10.9272Z" style="fill:#808080;fill-rule:nonzero;"/><rect x="426.238" y="-2.20529e-14" width="3.87683" height="17.6793" style="fill:#808080;fill-rule:nonzero;"/><path d="M444.713,0.00248629l0,8.13726l0.042622,0c0.893287,-1.19342 1.98015,-1.74573 3.49323,-1.74573c2.76866,0 4.10947,1.83097 4.10947,4.59963l0,6.68811l-3.87683,0l0,-5.60125c0,-1.27866 -0.191799,-2.59817 -1.74573,-2.59817c-1.53262,0 -2.02455,1.32128 -2.02455,2.59817l0,5.60125l-3.87683,0l0,-17.6793l3.8786,0Z" style="fill:#808080;fill-rule:nonzero;"/><path d="M462.893,10.6319c-0.191799,-1.04424 -1.15079,-1.72619 -2.19326,-1.72619c-1.12948,0 -2.06717,0.596708 -2.30159,1.72619l4.49485,0ZM466.493,12.8678l-8.15857,0c0,1.57524 0.83113,2.42768 2.42768,2.42768c0.83113,0 1.42784,-0.277043 1.85406,-0.999842l3.72765,0c-0.618019,2.57686 -3.06701,3.74896 -5.55862,3.74896c-3.6211,0 -6.32582,-2.04408 -6.32582,-5.81436c0,-3.64241 2.49161,-5.83567 6.04878,-5.83567c3.79158,0 5.98484,2.34244 5.98484,6.07009l0,0.403133Z" style="fill:#808080;fill-rule:nonzero;"/><path d="M471.943,12.2284c0,1.38522 0.916374,2.44899 2.49161,2.44899c1.57524,0 2.49339,-1.06555 2.49339,-2.44899c0,-1.34082 -0.91815,-2.4703 -2.49339,-2.4703c-1.57524,0 -2.49161,1.12948 -2.49161,2.4703M480.677,17.6805l-3.8786,0l0,-1.21473l-0.0408461,0c-0.681952,1.08686 -2.02455,1.57702 -3.30143,1.57702c-3.23572,0 -5.516,-2.70472 -5.516,-5.83744c0,-3.13094 2.23766,-5.81436 5.47515,-5.81436c1.25557,0 2.57508,0.468842 3.38312,1.42784l0,-1.06555l3.88038,0l-0.00177592,10.9272Z" style="fill:#808080;fill-rule:nonzero;"/><rect x="483.527" y="-2.20529e-14" width="3.87683" height="17.6793" style="fill:#808080;fill-rule:nonzero;"/><path d="M494.654,17.6802l-3.88393,0l0,-7.73235l-1.25557,0l0,-3.19488l1.25557,0l0,-3.28012l3.88393,0l0,3.28012l2.18615,0l0,3.19488l-2.18615,0l0,7.73235Z" style="fill:#808080;fill-rule:nonzero;"/><path d="M502.46,0.00248629l0,8.13726l0.042622,0c0.893287,-1.19342 1.98192,-1.74573 3.49323,-1.74573c2.77576,0 4.11125,1.83097 4.11125,4.59963l0,6.68811l-3.88393,0l0,-5.60125c0,-1.27866 -0.184695,-2.59817 -1.73862,-2.59817c-1.53439,0 -2.03165,1.32128 -2.03165,2.59817l0,5.60125l-3.87683,0l0,-17.6793l3.88393,0Z" style="fill:#808080;fill-rule:nonzero;"/><path d="M379.51,46.0948l-3.87683,0l0,-7.73235l-1.3639,0l0,-3.19488l1.3639,0l0,-1.38344c0,-1.51308 0.042622,-2.61948 1.10817,-3.83421c0.95722,-1.12948 2.34066,-1.74573 3.81112,-1.74573c0.596708,0 1.12948,0.106555 1.66226,0.383598l0,3.34405c-0.447531,-0.191799 -0.850665,-0.362287 -1.3639,-0.362287c-0.999842,0 -1.34259,0.596708 -1.34259,1.83275l0,1.76704l2.70472,0l0,3.19488l-2.70472,0l0,7.73057l0.00177592,0Z" style="fill:#808080;fill-rule:nonzero;"/><path d="M387.207,40.6431c0,1.38522 0.916374,2.44899 2.49161,2.44899c1.57524,0 2.49161,-1.06555 2.49161,-2.44899c0,-1.34082 -0.916374,-2.4703 -2.49161,-2.4703c-1.57524,0 -2.49161,1.12948 -2.49161,2.4703M395.941,46.0952l-3.8786,0l0,-1.21473l-0.0408461,0c-0.681952,1.08686 -2.02455,1.57702 -3.30143,1.57702c-3.23572,0 -5.516,-2.70472 -5.516,-5.83744c0,-3.13094 2.23766,-5.81436 5.47515,-5.81436c1.25557,0 2.57686,0.468842 3.3849,1.42784l0,-1.06555l3.8786,0l-0.00177592,10.9272Z" style="fill:#808080;fill-rule:nonzero;"/><path d="M406.765,38.7267c-0.575397,-0.42622 -1.25735,-0.767197 -2.00324,-0.767197c-1.49,0 -2.6621,1.15079 -2.6621,2.6621c0,1.57702 1.12948,2.68341 2.72603,2.68341c0.681952,0 1.42784,-0.277043 1.9393,-0.74411l0,3.28012c-0.850665,0.42622 -1.79013,0.618019 -2.72603,0.618019c-3.2375,0 -5.944,-2.40637 -5.944,-5.7078c0,-3.51454 2.68519,-5.94222 6.11271,-5.94222c0.895063,0 1.79013,0.21311 2.55555,0.63933l0.00177592,3.27834Z" style="fill:#808080;fill-rule:nonzero;"/><path d="M413.311,46.094l-3.87683,0l0,-10.9272l3.87683,0l0,10.9272ZM413.546,30.972c0,1.19342 -0.980307,2.17195 -2.17372,2.17195c-1.19164,0 -2.17195,-0.978531 -2.17195,-2.17195c0,-1.19342 0.980307,-2.17195 2.17195,-2.17195c1.19519,0.00177592 2.17372,0.978531 2.17372,2.17195" style="fill:#808080;fill-rule:nonzero;"/><rect x="416.13" y="28.4147" width="3.87683" height="17.6793" style="fill:#808080;fill-rule:nonzero;"/><path d="M426.7,46.094l-3.87683,0l0,-10.9272l3.87683,0l0,10.9272ZM426.932,30.972c0,1.19342 -0.980307,2.17195 -2.17372,2.17195c-1.19164,0 -2.17195,-0.978531 -2.17195,-2.17195c0,-1.19342 0.980307,-2.17195 2.17195,-2.17195c1.19519,0.00177592 2.17372,0.978531 2.17372,2.17195" style="fill:#808080;fill-rule:nonzero;"/><path d="M433.889,46.0948l-3.87683,0l0,-7.73235l-1.25735,0l0,-3.19488l1.25735,0l0,-3.28012l3.87683,0l0,3.28012l2.19326,0l0,3.19488l-2.19326,0l0,7.73235Z" style="fill:#808080;fill-rule:nonzero;"/><path d="M436.791,35.1696l4.47354,0l2.91783,5.60125l2.8539,-5.60125l4.40783,0l-8.7535,16.3793l-4.34567,0l3.72943,-6.94384l-5.28336,-9.43545Z" style="fill:#808080;fill-rule:nonzero;"/><path d="M19.2932,61.5189l0.404909,0c1.3639,0 2.8983,-0.255732 2.8983,-2.00146c0,-1.74573 -1.53439,-2.00146 -2.8983,-2.00146l-0.404909,0l0,4.00292ZM28.4729,70.3789l-5.19634,0l-3.94076,-6.17664l-0.042622,0l0,6.17664l-4.17518,0l0,-16.0596l6.24058,0c3.17357,0 5.58171,1.51308 5.58171,4.9406c0,2.21635 -1.23426,4.13256 -3.51454,4.53747l5.04716,6.58155Z" style="fill:#808080;fill-rule:nonzero;"/><path d="M33.2985,59.4515l0,5.83744c0,1.38344 0.340976,2.36375 1.9393,2.36375c1.59833,0 1.93753,-0.980307 1.93753,-2.36375l0,-5.83744l3.8786,0l0,6.58155c0,3.59979 -2.53601,4.70796 -5.81436,4.70796c-3.27834,0 -5.81436,-1.10817 -5.81436,-4.70796l0,-6.58155l3.87328,0Z" style="fill:#808080;fill-rule:nonzero;"/><path d="M47.6957,61.2422l0.042622,0c0.74411,-1.34259 2.02277,-1.93753 3.53408,-1.93753l0.745886,0l0,3.72765c-0.532775,-0.298354 -1.04424,-0.362287 -1.64095,-0.362287c-2.15064,0 -2.68341,1.42784 -2.68341,3.30143l0,4.40783l-3.87683,0l0,-10.9272l3.87683,0l0.00177592,1.79013Z" style="fill:#808080;fill-rule:nonzero;"/><path d="M57.1597,64.9267c0,1.38522 0.916374,2.44899 2.49161,2.44899c1.57524,0 2.49161,-1.06555 2.49161,-2.44899c0,-1.34082 -0.916374,-2.4703 -2.49161,-2.4703c-1.57524,0 -2.49161,1.12948 -2.49161,2.4703M65.8937,70.3787l-3.8786,0l0,-1.21473l-0.0408461,0c-0.681952,1.08686 -2.02455,1.57702 -3.30143,1.57702c-3.23572,0 -5.516,-2.70472 -5.516,-5.83744c0,-3.13094 2.23766,-5.81436 5.47515,-5.81436c1.25557,0 2.57686,0.468842 3.3849,1.42784l0,-1.06555l3.8786,0l-0.00177592,10.9272Z" style="fill:#808080;fill-rule:nonzero;"/><rect x="68.7458" y="52.6986" width="3.87683" height="17.6793" style="fill:#808080;fill-rule:nonzero;"/><path d="M91.2257,63.0085c-0.575397,-0.42622 -1.25735,-0.767197 -2.00146,-0.767197c-1.49177,0 -2.66388,1.15079 -2.66388,2.6621c0,1.57702 1.12948,2.68341 2.72603,2.68341c0.681952,0 1.42784,-0.277043 1.9393,-0.74411l0,3.28012c-0.850665,0.42622 -1.79013,0.618019 -2.72603,0.618019c-3.2375,0 -5.944,-2.40637 -5.944,-5.7078c0,-3.51454 2.68519,-5.94222 6.11271,-5.94222c0.895063,0 1.79013,0.21311 2.55555,0.63933l0.00177592,3.27834Z" style="fill:#808080;fill-rule:nonzero;"/><rect x="93.9585" y="52.6986" width="3.87683" height="17.6793" style="fill:#808080;fill-rule:nonzero;"/><path d="M104.523,70.3779l-3.87683,0l0,-10.9272l3.87683,0l0,10.9272ZM104.758,55.2577c0,1.19164 -0.980307,2.17017 -2.17372,2.17017c-1.19164,0 -2.17195,-0.978531 -2.17195,-2.17017c0,-1.19342 0.980307,-2.17372 2.17195,-2.17372c1.19519,0.00177592 2.17372,0.978531 2.17372,2.17372" style="fill:#808080;fill-rule:nonzero;"/><path d="M111.226,60.858l0.042622,0c0.893287,-1.32128 1.98015,-1.76881 3.49323,-1.76881c2.93914,0 4.10947,1.85228 4.10947,4.53747l0,6.75204l-3.87683,0l0,-5.32598c0,-1.04246 0.170488,-2.87521 -1.74573,-2.87521c-1.57702,0 -2.02455,1.17211 -2.02455,2.53423l0,5.66518l-3.87683,0l0,-10.9272l3.87683,0l0.00177592,1.4083Z" style="fill:#808080;fill-rule:nonzero;"/><path d="M125.534,70.3779l-3.87683,0l0,-10.9272l3.87683,0l0,10.9272ZM125.767,55.2577c0,1.19164 -0.980307,2.17017 -2.17372,2.17017c-1.19164,0 -2.17195,-0.978531 -2.17195,-2.17017c0,-1.19342 0.980307,-2.17372 2.17195,-2.17372c1.19519,0.00177592 2.17372,0.978531 2.17372,2.17372" style="fill:#808080;fill-rule:nonzero;"/><path d="M136.266,63.0085c-0.575397,-0.42622 -1.25735,-0.767197 -2.00324,-0.767197c-1.49,0 -2.6621,1.15079 -2.6621,2.6621c0,1.57702 1.12948,2.68341 2.72603,2.68341c0.681952,0 1.42784,-0.277043 1.9393,-0.74411l0,3.28012c-0.850665,0.42622 -1.79013,0.618019 -2.72603,0.618019c-3.2375,0 -5.944,-2.40637 -5.944,-5.7078c0,-3.51454 2.68519,-5.94222 6.11271,-5.94222c0.895063,0 1.79013,0.21311 2.55555,0.63933l0.00177592,3.27834Z" style="fill:#808080;fill-rule:nonzero;"/><path d="M502.76,406.298l0.935909,0c2.49339,0 4.62627,-1.36568 4.62627,-4.49485c0,-2.87521 -1.89846,-4.49485 -4.58009,-4.49485l-0.98741,0l0.00532775,8.9897ZM498.585,393.774l5.92091,0c4.47354,0 8.15857,3.51454 8.15857,8.02892c0,4.51438 -3.70634,8.02715 -8.15857,8.02715l-5.92091,0l0,-16.0561Z" style="fill:#000;fill-rule:nonzero;"/><path d="M518.726,409.834l-3.87683,0l0,-10.9272l3.87683,0l0,10.9272ZM518.961,394.71c0,1.19342 -0.980307,2.17195 -2.17372,2.17195c-1.19164,0 -2.17195,-0.978531 -2.17195,-2.17195c0,-1.19342 0.980307,-2.17195 2.17195,-2.17195c1.19342,0 2.17372,0.978531 2.17372,2.17195" style="fill:#000;fill-rule:nonzero;"/><path d="M528.623,401.719c-0.596708,-0.321441 -1.42784,-0.532775 -2.0867,-0.532775c-0.447531,0 -1.22006,0.191799 -1.22006,0.74411c0,0.745886 1.22006,0.852441 1.74573,0.958996c1.81144,0.360511 3.17357,1.21473 3.17357,3.23572c0,2.87699 -2.62658,4.06863 -5.15371,4.06863c-1.5557,0 -3.08832,-0.445755 -4.41138,-1.25557l1.41363,-2.70472c0.781404,0.554086 2.10979,1.10817 3.06701,1.10817c0.490153,0 1.21473,-0.234421 1.21473,-0.83113c0,-0.850665 -1.21473,-0.895063 -2.42235,-1.21295c-1.22006,-0.326769 -2.42768,-0.923477 -2.42768,-2.87521c0,-2.69052 2.42768,-3.88393 4.81451,-3.88393c1.22716,0 2.4703,0.184695 3.59091,0.701488l-1.2982,2.47918Z" style="fill:#000;fill-rule:nonzero;"/><path d="M536.811,409.834l-3.88393,0l0,-7.73235l-1.25735,0l0,-3.19488l1.25735,0l0,-3.28012l3.88393,0l0,3.28012l2.18615,0l0,3.19488l-2.18615,0l0,7.73235Z" style="fill:#000;fill-rule:nonzero;"/><path d="M544.617,400.696l0.042622,0c0.74411,-1.34259 2.02277,-1.93753 3.52875,-1.93753l0.745886,0l0,3.72943c-0.532775,-0.298354 -1.04424,-0.364063 -1.64095,-0.364063c-2.15064,0 -2.68341,1.43317 -2.68341,3.30143l0,4.4096l-3.87683,0l0,-10.929l3.87683,0l0.00710367,1.79013Z" style="fill:#000;fill-rule:nonzero;"/><path d="M554.431,409.834l-3.88393,0l0,-10.9272l3.88393,0l0,10.9272ZM554.665,394.71c0,1.19342 -0.980307,2.17195 -2.17905,2.17195c-1.19164,0 -2.17195,-0.978531 -2.17195,-2.17195c0,-1.19342 0.980307,-2.17195 2.17195,-2.17195c1.19874,0 2.17905,0.978531 2.17905,2.17195" style="fill:#000;fill-rule:nonzero;"/><path d="M560.942,404.381c0,1.38344 0.916374,2.44899 2.48451,2.44899c1.58234,0 2.49339,-1.06555 2.49339,-2.44899c0,-1.34082 -0.91815,-2.4703 -2.49339,-2.4703c-1.56814,-0.00355184 -2.48451,1.12771 -2.48451,2.4703M557.193,392.154l3.87505,0l0,7.81937c0.838233,-0.960772 2.1311,-1.43494 3.38845,-1.43494c3.2375,0 5.47338,2.69052 5.47338,5.80725c0,3.15403 -2.25719,5.83922 -5.51245,5.83922c-1.28576,0 -2.60705,-0.484826 -3.30143,-1.57702l-0.0443979,0l0,1.21473l-3.87505,0l-0.00355184,-17.6686Z" style="fill:#000;fill-rule:nonzero;"/><path d="M575.918,398.906l0,5.83744c0,1.38166 0.340976,2.36375 1.9393,2.36375c1.59833,0 1.93753,-0.982083 1.93753,-2.36375l0,-5.83744l3.88393,0l0,6.58155c0,3.59979 -2.53601,4.70618 -5.81436,4.70618c-3.27834,0 -5.80903,-1.1064 -5.80903,-4.70618l0,-6.58155l3.86262,0Z" style="fill:#000;fill-rule:nonzero;"/><path d="M590.814,409.834l-3.87683,0l0,-7.73235l-1.25735,0l0,-3.19488l1.25735,0l0,-3.28012l3.87683,0l0,3.28012l2.19326,0l0,3.19488l-2.19326,0l0,7.73235Z" style="fill:#000;fill-rule:nonzero;"/><path d="M598.548,409.834l-3.88393,0l0,-10.9272l3.88393,0l0,10.9272ZM598.783,394.71c0,1.19342 -0.980307,2.17195 -2.17372,2.17195c-1.19164,0 -2.17728,-0.978531 -2.17728,-2.17195c0,-1.19342 0.985634,-2.17195 2.17728,-2.17195c1.19342,0 2.17372,0.978531 2.17372,2.17195" style="fill:#000;fill-rule:nonzero;"/><path d="M604.693,404.381c0,1.38344 0.916374,2.44899 2.49161,2.44899c1.57524,0 2.48629,-1.06555 2.48629,-2.44899c0,-1.34082 -0.916374,-2.4703 -2.48629,-2.4703c-1.57524,0 -2.49161,1.12771 -2.49161,2.4703M613.766,404.381c0,3.70634 -3.07056,5.81258 -6.58155,5.81258c-3.49856,0 -6.58155,-2.0867 -6.58155,-5.81258c0,-3.72588 3.06879,-5.83567 6.58155,-5.83567c3.51277,0 6.58155,2.10624 6.58155,5.83567" style="fill:#000;fill-rule:nonzero;"/><path d="M619.78,400.312l0.0372943,0c0.891511,-1.32128 1.98015,-1.76881 3.49856,-1.76881c2.93382,0 4.10592,1.85228 4.10592,4.53747l0,6.75204l-3.87683,0l0,-5.32775c0,-1.04069 0.170488,-2.86811 -1.74573,-2.86811c-1.57702,0 -2.02455,1.165 -2.02455,2.53423l0,5.66163l-3.88216,0l0,-10.9219l3.88216,0l0.00532775,1.4012Z" style="fill:#000;fill-rule:nonzero;"/><path d="M641.431,404.381c0,1.38344 0.923477,2.44899 2.49161,2.44899c1.56991,0 2.49339,-1.06555 2.49339,-2.44899c0,-1.34082 -0.923477,-2.4703 -2.49339,-2.4703c-1.56814,0 -2.49161,1.12771 -2.49161,2.4703M650.504,404.381c0,3.70634 -3.06523,5.81258 -6.58155,5.81258c-3.49145,0 -6.58155,-2.0867 -6.58155,-5.81258c0,-3.72588 3.07234,-5.83567 6.58155,-5.83567c3.51632,-0.00177592 6.58155,2.10624 6.58155,5.83567" style="fill:#000;fill-rule:nonzero;"/><path d="M656.517,400.696l0.042622,0c0.74411,-1.34259 2.02277,-1.93753 3.53585,-1.93753l0.745886,0l0,3.72943c-0.532775,-0.298354 -1.04424,-0.364063 -1.64272,-0.364063c-2.15596,0 -2.68874,1.43317 -2.68874,3.30143l0,4.4096l-3.87683,0l0,-10.929l3.87683,0l0.00710367,1.79013Z" style="fill:#000;fill-rule:nonzero;"/><path d="M502.377,429.11l0.042622,0c0.74411,-1.34259 2.02277,-1.93753 3.53408,-1.93753l0.747661,0l0,3.72943c-0.539879,-0.298354 -1.05134,-0.364063 -1.64805,-0.364063c-2.15064,0 -2.68341,1.43317 -2.68341,3.30143l0,4.4096l-3.8715,0l0,-10.929l3.87683,0l0,1.79013l0.00177592,0Z" style="fill:#000;fill-rule:nonzero;"/><path d="M516.272,431.197c-0.191799,-1.04424 -1.15079,-1.72619 -2.19326,-1.72619c-1.12948,0 -2.06717,0.596708 -2.30159,1.72619l4.49485,0ZM519.87,433.434l-8.16389,0c0,1.57346 0.836457,2.42768 2.42768,2.42768c0.83113,0 1.42784,-0.277043 1.85406,-1.00162l3.73298,0c-0.623347,2.57686 -3.07056,3.74896 -5.56395,3.74896c-3.61577,0 -6.32582,-2.04408 -6.32582,-5.81436c0,-3.64063 2.49161,-5.83567 6.04878,-5.83567c3.79158,0 5.98484,2.34421 5.98484,6.07009l0.00532775,0.404909Z" style="fill:#000;fill-rule:nonzero;"/><path d="M529.007,430.134c-0.596708,-0.321441 -1.42784,-0.532775 -2.0867,-0.532775c-0.447531,0 -1.22006,0.191799 -1.22006,0.74411c0,0.745886 1.22006,0.852441 1.74573,0.958996c1.81321,0.360511 3.17357,1.21473 3.17357,3.23572c0,2.87699 -2.62658,4.06863 -5.15371,4.06863c-1.5557,0 -3.08122,-0.445755 -4.40428,-1.25557l1.40653,-2.70472c0.781404,0.554086 2.10979,1.10817 3.06701,1.10817c0.490153,0 1.22006,-0.234421 1.22006,-0.83113c0,-0.850665 -1.22006,-0.895063 -2.42768,-1.21295c-1.22006,-0.326769 -2.42768,-0.923477 -2.42768,-2.87521c0,-2.69052 2.42768,-3.88393 4.81451,-3.88393c1.23426,0 2.4703,0.184695 3.59801,0.701488l-1.3053,2.47918Z" style="fill:#000;fill-rule:nonzero;"/><path d="M536.204,432.796c0,1.38344 0.923477,2.44899 2.49161,2.44899c1.56991,0 2.49339,-1.06555 2.49339,-2.44899c0,-1.34082 -0.923477,-2.4703 -2.49339,-2.4703c-1.56814,0 -2.49161,1.12771 -2.49161,2.4703M545.277,432.796c0,3.70634 -3.06523,5.81258 -6.58155,5.81258c-3.49145,0 -6.58155,-2.0867 -6.58155,-5.81258c0,-3.72588 3.07234,-5.83567 6.58155,-5.83567c3.51454,-0.00177592 6.58155,2.10624 6.58155,5.83567" style="fill:#000;fill-rule:nonzero;"/><path d="M551.18,427.321l0,5.83744c0,1.38166 0.333873,2.36375 1.9393,2.36375c1.60365,0 1.93753,-0.982083 1.93753,-2.36375l0,-5.83744l3.88393,0l0,6.58155c0,3.59979 -2.54311,4.70618 -5.81436,4.70618c-3.27302,0 -5.81436,-1.1064 -5.81436,-4.70618l0,-6.58155l3.86795,0Z" style="fill:#000;fill-rule:nonzero;"/><path d="M565.578,429.11l0.042622,0c0.74411,-1.34259 2.02277,-1.93753 3.53585,-1.93753l0.745886,0l0,3.72943c-0.532775,-0.298354 -1.04424,-0.364063 -1.64095,-0.364063c-2.15774,0 -2.69052,1.43317 -2.69052,3.30143l0,4.4096l-3.87683,0l0,-10.929l3.87683,0l0.00710367,1.79013Z" style="fill:#000;fill-rule:nonzero;"/><path d="M579.697,430.878c-0.575397,-0.42622 -1.25735,-0.767197 -2.00146,-0.767197c-1.49177,0 -2.66388,1.14724 -2.66388,2.66033c0,1.57879 1.12948,2.68519 2.72603,2.68519c0.681952,0 1.42784,-0.277043 1.9393,-0.74411l0,3.28012c-0.850665,0.42622 -1.79013,0.618019 -2.72603,0.618019c-3.2375,0 -5.944,-2.40459 -5.944,-5.70602c0,-3.51454 2.68519,-5.944 6.11449,-5.944c0.893287,0 1.78835,0.21311 2.55199,0.63933l0.00355184,3.27834Z" style="fill:#000;fill-rule:nonzero;"/><path d="M589.972,431.197c-0.191799,-1.04424 -1.15079,-1.72619 -2.19326,-1.72619c-1.12948,0 -2.06717,0.596708 -2.30159,1.72619l4.49485,0ZM593.57,433.434l-8.16389,0c0,1.57346 0.836457,2.42768 2.42768,2.42768c0.83113,0 1.42784,-0.277043 1.85406,-1.00162l3.73298,0c-0.623347,2.57686 -3.07056,3.74896 -5.56395,3.74896c-3.61577,0 -6.32582,-2.04408 -6.32582,-5.81436c0,-3.64063 2.49161,-5.83567 6.04878,-5.83567c3.79158,0 5.98484,2.34421 5.98484,6.07009l0.00532775,0.404909Z" style="fill:#000;fill-rule:nonzero;"/><path d="M606.724,432.796c0,1.38344 0.923477,2.44899 2.49161,2.44899c1.56991,0 2.49339,-1.06555 2.49339,-2.44899c0,-1.34082 -0.923477,-2.4703 -2.49339,-2.4703c-1.56814,0 -2.49161,1.12771 -2.49161,2.4703M615.458,438.248l-3.8786,0l0,-1.22006l-0.0408461,0c-0.681952,1.08686 -2.02455,1.58057 -3.2961,1.58057c-3.23572,0 -5.516,-2.70295 -5.516,-5.83744c0,-3.12739 2.24476,-5.81258 5.47515,-5.81258c1.25557,0 2.57686,0.468842 3.3849,1.42961l0,-1.06733l3.88038,0l-0.00887959,10.9272Z" style="fill:#000;fill-rule:nonzero;"/><rect x="618.311" y="420.569" width="3.87683" height="17.6793" style="fill:#000;fill-rule:nonzero;"/><rect x="624.988" y="420.569" width="3.88393" height="17.6793" style="fill:#000;fill-rule:nonzero;"/><path d="M635.087,432.796c0,1.38344 0.916374,2.44899 2.48451,2.44899c1.58234,0 2.49339,-1.06555 2.49339,-2.44899c0,-1.34082 -0.916374,-2.4703 -2.49339,-2.4703c-1.56814,0 -2.48451,1.12771 -2.48451,2.4703M644.16,432.796c0,3.70634 -3.06523,5.81258 -6.58155,5.81258c-3.49145,0 -6.58155,-2.0867 -6.58155,-5.81258c0,-3.72588 3.07234,-5.83567 6.58155,-5.83567c3.51632,-0.00177592 6.58155,2.10624 6.58155,5.83567" style="fill:#000;fill-rule:nonzero;"/><path d="M654.223,430.878c-0.575397,-0.42622 -1.25735,-0.767197 -2.00146,-0.767197c-1.49177,0 -2.66388,1.14724 -2.66388,2.66033c0,1.57879 1.12948,2.68519 2.72603,2.68519c0.681952,0 1.42784,-0.277043 1.9393,-0.74411l0,3.28012c-0.850665,0.42622 -1.79013,0.618019 -2.72603,0.618019c-3.23039,0 -5.944,-2.40459 -5.944,-5.70602c0,-3.51454 2.68519,-5.944 6.11449,-5.944c0.893287,0 1.78835,0.21311 2.55199,0.63933l0.00355184,3.27834Z" style="fill:#000;fill-rule:nonzero;"/><path d="M660.078,432.796c0,1.38344 0.923477,2.44899 2.49161,2.44899c1.56991,0 2.49339,-1.06555 2.49339,-2.44899c0,-1.34082 -0.923477,-2.4703 -2.49339,-2.4703c-1.56814,0 -2.49161,1.12771 -2.49161,2.4703M668.812,438.248l-3.8786,0l0,-1.22006l-0.0408461,0c-0.681952,1.08686 -2.02455,1.58057 -3.2961,1.58057c-3.23572,0 -5.516,-2.70295 -5.516,-5.83744c0,-3.12739 2.24476,-5.81258 5.47515,-5.81258c1.25557,0 2.57686,0.468842 3.3849,1.42961l0,-1.06733l3.88393,0l-0.0124314,10.9272Z" style="fill:#000;fill-rule:nonzero;"/><path d="M676.084,438.248l-3.88393,0l0,-7.73235l-1.25735,0l0,-3.19488l1.25735,0l0,-3.28012l3.88393,0l0,3.28012l2.18615,0l0,3.19488l-2.18615,0l0,7.73235Z" style="fill:#000;fill-rule:nonzero;"/><path d="M683.819,438.249l-3.87683,0l0,-10.9272l3.87683,0l0,10.9272ZM684.053,423.125c0,1.19342 -0.980307,2.17195 -2.17372,2.17195c-1.19164,0 -2.17195,-0.978531 -2.17195,-2.17195c0,-1.19342 0.980307,-2.17195 2.17195,-2.17195c1.19342,0 2.17372,0.978531 2.17372,2.17195" style="fill:#000;fill-rule:nonzero;"/><path d="M689.963,432.796c0,1.38344 0.923477,2.44899 2.49161,2.44899c1.56991,0 2.49339,-1.06555 2.49339,-2.44899c0,-1.34082 -0.923477,-2.4703 -2.49339,-2.4703c-1.56814,0 -2.49161,1.12771 -2.49161,2.4703M699.036,432.796c0,3.70634 -3.07056,5.81258 -6.58155,5.81258c-3.49145,0 -6.58155,-2.0867 -6.58155,-5.81258c0,-3.72588 3.06879,-5.83567 6.58155,-5.83567c3.51632,-0.00177592 6.58155,2.10624 6.58155,5.83567" style="fill:#000;fill-rule:nonzero;"/><path d="M705.05,428.727l0.042622,0c0.893287,-1.32128 1.97482,-1.76881 3.49323,-1.76881c2.93914,0 4.10592,1.85228 4.10592,4.53747l0,6.75204l-3.87683,0l0,-5.32775c0,-1.04069 0.170488,-2.86811 -1.74573,-2.86811c-1.57702,0 -2.02455,1.165 -2.02455,2.53423l0,5.66163l-3.87683,0l0,-10.9219l3.87683,0l0.00532775,1.4012Z" style="fill:#000;fill-rule:nonzero;"/><path d="M841.542,186.567l14.0617,0l0,18.2191l-14.0617,0l0,14.0582l-18.2262,0l0,-14.0582l-14.0688,0l0,-18.2191l14.0688,0l0,-14.0741l18.2262,0l0,14.0741ZM950.477,232.357l-14.9266,0l0,-14.9284l14.9266,0l0,14.9284ZM950.477,257.712l-14.9266,0l0,-14.9426l14.9266,0l0,14.9426ZM950.477,283.928l-14.9266,0l0,-14.9319l14.9266,0l0,14.9319ZM927.223,232.357l-14.9266,0l0,-14.9284l14.9266,0l0,14.9284ZM927.223,257.712l-14.9266,0l0,-14.9426l14.9266,0l0,14.9426ZM927.223,283.928l-14.9266,0l0,-14.9319l14.9266,0l0,14.9319ZM832.423,232.387c-20.281,0 -36.7189,-16.4397 -36.7189,-36.7171c0,-20.2828 16.4557,-36.7189 36.7189,-36.7189c20.2774,0 36.7189,16.4361 36.7189,36.7189c0,20.2774 -16.4414,36.7171 -36.7189,36.7171M855.604,325.765l-43.8439,0l0,-54.6965l43.8439,0l0,54.6965ZM756.737,232.357l-14.9319,0l0,-14.9284l14.9319,0l0,14.9284ZM756.737,257.712l-14.9319,0l0,-14.9426l14.9319,0l0,14.9426ZM756.737,283.928l-14.9319,0l0,-14.9319l14.9319,0l0,14.9319ZM733.474,232.357l-14.9213,0l0,-14.9284l14.9213,0l0,14.9284ZM733.474,257.712l-14.9213,0l0,-14.9426l14.9213,0l0,14.9426ZM733.474,283.928l-14.9213,0l0,-14.9319l14.9213,0l0,14.9319ZM963.486,326.452c0.332097,-1.03714 0.532775,-2.15064 0.532775,-3.29433l0,-121.345c0,-5.76463 -4.66889,-10.414 -10.4175,-10.414l-57.9731,0l0,129.154c0,2.07427 -0.385374,4.05264 -1.03536,5.8996l-6.80177,0c0.332097,-1.03714 0.532775,-2.15064 0.532775,-3.29433l0,-166.663c0,-5.74865 -4.66356,-10.414 -10.4158,-10.414l-90.9661,0c-5.74865,0 -10.414,4.66534 -10.414,10.414l0,166.663c0,1.14547 0.197127,2.25719 0.539879,3.29433l-6.79821,0c-0.653538,-1.84695 -1.03003,-3.82533 -1.03003,-5.8996l0,-129.154l-56.5878,0c-5.76108,0 -10.4158,4.64935 -10.4158,10.414l0,121.345c0,1.14547 0.200679,2.25719 0.534551,3.29433l-17.903,0l0,21.5295l295.133,0l0,-21.5295l-16.5143,0Z" style="fill:#646464;fill-rule:nonzero;"/><path d="M251.096,238.768c-2.19503,0 -3.98161,-1.78125 -3.98161,-3.98161l0,-5.01342c0,-2.21279 -1.77947,-3.99049 -3.99049,-3.99049l-2.66033,0c-2.19859,0 -3.97983,1.77769 -3.97983,3.99049l0,5.01342c0,2.20036 -1.7919,3.98161 -3.99226,3.98161l-25.2536,0c-2.20924,0 -3.99226,1.78835 -3.99226,3.98871l0,89.8135c0,2.21279 1.78302,3.99582 3.99226,3.99582l43.8563,0c2.20036,0 3.99404,-1.78302 3.99404,-3.99582l0,-89.8135c0.00177592,-2.20036 -1.78125,-3.98871 -3.99226,-3.98871" style="fill:#b3b3b3;fill-rule:nonzero;"/><path d="M211.97,316.041c0,-2.20391 1.77947,-3.99049 3.99226,-3.99049c2.19681,0 3.98161,1.78657 3.98161,3.99049c0,2.20036 -1.78302,3.99404 -3.98161,3.99404c-2.21279,0 -3.99226,-1.79368 -3.99226,-3.99404" style="fill:#fff;fill-rule:nonzero;"/><path d="M215.962,298.848c2.19681,0 3.98161,1.7848 3.98161,3.97983c0,2.19859 -1.78302,3.99226 -3.98161,3.99226c-2.21279,0 -3.99226,-1.79368 -3.99226,-3.99226c0,-2.19503 1.77947,-3.97983 3.99226,-3.97983" style="fill:#fff;fill-rule:nonzero;"/><path d="M211.97,289.619c0,-2.20214 1.77947,-3.98161 3.99226,-3.98161c2.19681,0 3.98161,1.77947 3.98161,3.98161c0,2.20747 -1.78302,3.98871 -3.98161,3.98871c-2.21279,0 -3.99226,-1.78125 -3.99226,-3.98871" style="fill:#fff;fill-rule:nonzero;"/><path d="M237.263,329.779l-16.6954,0c-1.10107,0 -1.99791,-0.887959 -1.99791,-1.9837c0,-1.11528 0.896839,-2.00146 1.99791,-2.00146l16.6954,0c1.10995,0 1.99436,0.886183 1.99436,2.00146c0,1.09574 -0.884407,1.9837 -1.99436,1.9837" style="fill:#fff;fill-rule:nonzero;"/><path d="M228.917,298.848c2.20214,0 3.98161,1.7848 3.98161,3.97983c0,2.19859 -1.77947,3.99226 -3.98161,3.99226c-2.20924,0 -3.99226,-1.79368 -3.99226,-3.99226c0,-2.19503 1.78302,-3.97983 3.99226,-3.97983" style="fill:#fff;fill-rule:nonzero;"/><path d="M224.925,289.619c0,-2.20214 1.78125,-3.98161 3.99226,-3.98161c2.20214,0 3.98161,1.77947 3.98161,3.98161c0,2.20747 -1.77947,3.98871 -3.98161,3.98871c-2.20924,0 -3.99226,-1.78125 -3.99226,-3.98871" style="fill:#fff;fill-rule:nonzero;"/><path d="M228.917,312.051c2.20214,0 3.98161,1.78657 3.98161,3.99049c0,2.20036 -1.77947,3.99404 -3.98161,3.99404c-2.20924,0 -3.99226,-1.79368 -3.99226,-3.99404c0,-2.20391 1.78302,-3.99049 3.99226,-3.99049" style="fill:#fff;fill-rule:nonzero;"/><path d="M241.874,320.035c-2.19681,0 -3.99049,-1.79368 -3.99049,-3.99404c0,-2.20391 1.79368,-3.99049 3.99049,-3.99049c2.20214,0 3.99582,1.78657 3.99582,3.99049c0,2.20036 -1.79368,3.99404 -3.99582,3.99404" style="fill:#fff;fill-rule:nonzero;"/><path d="M241.874,306.82c-2.19681,0 -3.99049,-1.79368 -3.99049,-3.99226c0,-2.19503 1.79368,-3.97983 3.99049,-3.97983c2.20214,0 3.99582,1.7848 3.99582,3.97983c0,2.20214 -1.79368,3.99226 -3.99582,3.99226" style="fill:#fff;fill-rule:nonzero;"/><path d="M241.874,293.608c-2.19681,0 -3.99049,-1.78125 -3.99049,-3.98871c0,-2.20214 1.79368,-3.98161 3.99049,-3.98161c2.20214,0 3.99582,1.77947 3.99582,3.98161c0,2.20747 -1.79368,3.98871 -3.99582,3.98871" style="fill:#fff;fill-rule:nonzero;"/><path d="M248.362,274.111c0,2.19859 -1.7919,3.97806 -3.99404,3.97806l-30.4037,0c-2.20924,0 -3.99049,-1.77947 -3.99049,-3.97806l0,-21.9947c0,-2.20214 1.78125,-3.98516 3.99049,-3.98516l30.4037,0c2.20214,0 3.99404,1.78302 3.99404,3.98516l0,21.9947Z" style="fill:#fff;fill-rule:nonzero;"/><path d="M228.026,265.329l-2.64967,2.33356c-0.0799163,0.0728126 -0.202455,0.065709 -0.273491,-0.0142073l-2.43478,-2.76155c-0.0692608,-0.0799163 -0.0621571,-0.204231 0.0159833,-0.273491l2.64967,-2.33711c0.0816922,-0.0692608 0.204231,-0.0603812 0.275267,0.0195351l2.43301,2.75978c0.0728126,0.0799163 0.065709,0.204231 -0.0159833,0.273491M235.597,258.465c-0.0230869,-0.705039 -0.566518,-0.479498 -0.747661,-0.420893c0.73523,-0.456411 1.36923,-1.799 1.2023,-2.37795c-0.129642,-0.454635 -0.427996,-0.298354 -0.795611,0.0550535c1.06555,-2.40459 -0.511464,-3.69569 -0.511464,-3.69391c-0.271715,-0.181144 -0.463515,0.0621571 -0.459963,0.419117c0.0532775,2.88942 -2.05829,4.56056 -4.36698,5.94933c-1.7333,1.1206 -2.34776,3.00663 -2.56265,4.35633c-0.0532775,0.166936 -0.17404,0.0834681 -0.236197,0.0337424l-1.33371,-1.51308c-0.145625,-0.168712 -0.349856,-0.248629 -0.554086,-0.239749c-0.158057,0.00710367 -0.316113,0.063933 -0.443979,0.179368l-0.0586053,0.0497257l-0.00177592,0l-0.00177592,0l-0.321441,-0.365839c-0.0958996,-0.108331 -0.225542,-0.163384 -0.351632,-0.163384c-0.0994514,0 -0.193575,0.0319665 -0.26994,0.0958996l-0.181144,0.161609c-0.17404,0.149177 -0.179368,0.433324 -0.0106555,0.623347l0.323217,0.367615l-2.19681,1.93575c-0.293026,0.259284 -0.319665,0.703264 -0.0621571,0.998066l7.60093,8.62031c0.147401,0.163384 0.349856,0.245077 0.554086,0.241525c0.159833,-0.00710367 0.316113,-0.063933 0.443979,-0.179368l3.06701,-2.70827c0.293026,-0.257508 0.319665,-0.701488 0.063933,-0.992738l-2.57153,-2.91961c-0.00355184,-0.00355184 -0.00355184,-0.00710367 -0.00532775,-0.00710367c-0.0941237,-0.154505 0.17404,-0.122538 0.17404,-0.122538c0.413789,0.0142073 0.722799,-0.0852441 0.943012,-0.229093c0.332097,-0.225542 -0.0443979,-0.392478 -0.106555,-0.554086c0.516792,0.253956 1.52551,0.0372943 1.77592,-0.287699c0.197127,-0.257508 -0.142073,-0.35696 -0.46529,-0.429772c0.815146,-0.381822 1.46868,-0.756541 1.81499,-1.65871c0.206006,-0.523896 -0.35696,-0.541655 -0.91815,-0.328545c0.459963,-0.459963 0.91815,-1.07976 1.14724,-1.88425c0.259284,-0.90927 -0.0799163,-1.36035 -0.808043,-0.752989c0.662417,-0.649986 1.25913,-1.51131 1.23249,-2.25719" style="fill:#787878;fill-rule:nonzero;"/><path d="M778.28,389.629l-60.7986,0l6.75382,-11.1528l47.2891,0l6.75559,11.1528Z" style="fill:#b4b4b4;fill-rule:nonzero;"/><rect x="694.595" y="297.923" width="106.576" height="78.0747" style="fill:#b4b4b4;fill-rule:nonzero;"/><rect x="701.912" y="302.766" width="91.7031" height="58.2448" style="fill:#fff;fill-rule:nonzero;"/><path d="M718.749,353.226l-0.0195351,0l-0.834681,4.74703l-0.927029,0l1.46868,-7.49437l2.46675,5.6634l2.46853,-5.6634l1.47046,7.49437l-0.927029,0l-0.836457,-4.74703l-0.0177592,0l-2.15596,4.89798l-2.15596,-4.89798Z" style="fill:#000;fill-rule:nonzero;"/><path d="M725.678,350.784l3.86085,0l0,0.824026l-2.96578,0l0,2.01034l2.87521,0l0,0.818698l-2.87521,0l0,2.71538l2.96578,0l0,0.820474l-3.86085,0l0,-7.18892Z" style="fill:#000;fill-rule:nonzero;"/><path d="M731.423,357.153l0.314337,0c1.83097,0 3.40799,-0.68728 3.40799,-2.77398c0,-2.09558 -1.57702,-2.77043 -3.40799,-2.77043l-0.314337,0l0,5.54442ZM730.525,350.784l1.49,0c2.19859,0 4.02956,1.16145 4.02956,3.55894c0,2.44899 -1.79368,3.62998 -4.06152,3.62998l-1.45625,0l0,-7.18892l-0.00177592,0Z" style="fill:#000;fill-rule:nonzero;"/><rect x="737.001" y="350.785" width="0.895063" height="7.18892" style="fill:#000;fill-rule:nonzero;"/><path d="M744.512,352.156c-0.515016,-0.454635 -1.22183,-0.705039 -1.89668,-0.705039c-1.61076,0 -2.84147,1.34792 -2.84147,2.94092c0,1.57169 1.22006,2.91251 2.82193,2.91251c0.703264,0 1.37989,-0.264612 1.91266,-0.740558l0,1.05667c-0.550535,0.326769 -1.25735,0.504361 -1.88425,0.504361c-2.05119,0 -3.74896,-1.62674 -3.74896,-3.70812c0,-2.12222 1.70843,-3.78093 3.82355,-3.78093c0.626899,0 1.26978,0.150953 1.81144,0.488377l0,1.03181l0.00177592,0Z" style="fill:#000;fill-rule:nonzero;"/><path d="M754.645,352.023l-0.0230869,0l-2.50404,6.18552l-2.49694,-6.18552l-0.021311,0l-1.22716,5.95288l-0.4351,0l1.54327,-7.42689l2.63724,6.53893l2.64612,-6.53893l1.54505,7.42689l-0.4351,0l-1.22894,-5.95288Z" style="fill:#000;fill-rule:nonzero;"/><path d="M757.323,354.378c0,1.77414 1.47579,3.26059 3.26946,3.26059c1.78125,0 3.26946,-1.49532 3.26946,-3.26059c0,-1.76881 -1.48822,-3.25703 -3.26946,-3.25703c-1.79368,0 -3.26946,1.48822 -3.26946,3.25703M764.32,354.378c0,2.02277 -1.70843,3.69036 -3.72765,3.69036c-2.02277,0 -3.72943,-1.66759 -3.72943,-3.69036c0,-2.02277 1.696,-3.68681 3.72943,-3.68681c2.01922,0 3.72765,1.66581 3.72765,3.68681" style="fill:#000;fill-rule:nonzero;"/><path d="M766.04,357.545l1.09752,0c0.504361,0 1.03003,0.0177592 1.46513,-0.278819c0.443979,-0.293026 0.706815,-0.740558 0.706815,-1.27511c0,-0.523896 -0.255732,-1.05134 -0.745886,-1.28754c-0.433324,-0.218438 -1.04069,-0.229093 -1.51308,-0.229093l-1.01227,0l0,3.07056l0.00177592,0ZM766.04,354.044l0.792059,0c0.488377,0 0.875528,0.0284147 1.28754,-0.266388c0.408461,-0.294802 0.534551,-0.658866 0.534551,-1.15435c0,-0.467066 -0.181144,-0.921701 -0.589605,-1.18099c-0.360511,-0.227317 -0.809819,-0.227317 -1.23071,-0.227317l-0.792059,0l0,2.82904l-0.00177592,0ZM765.585,357.973l0,-7.18892l1.44205,0c0.541655,0 1.05312,0.0390702 1.48467,0.420893c0.438652,0.381822 0.598484,0.914598 0.598484,1.48822c0,0.653538 -0.257508,1.14369 -0.83113,1.46513c0.893287,0.184695 1.49,0.90039 1.49,1.80788c0,0.582501 -0.22199,1.10995 -0.665969,1.49177c-0.507913,0.429772 -1.04069,0.515016 -1.68179,0.515016l-1.8363,0Z" style="fill:#000;fill-rule:nonzero;"/><rect x="771.064" y="350.785" width="0.458187" height="7.18892" style="fill:#000;fill-rule:nonzero;"/><path d="M773.645,357.545l1.82387,0l0,0.427996l-2.28561,0l0,-7.18892l0.461739,0l0,6.76092Z" style="fill:#000;fill-rule:nonzero;"/><path d="M776.844,351.215l0,2.61415l2.90007,0l0,0.427996l-2.90007,0l0,3.28722l2.97466,0l0,0.427996l-3.4293,0l0,-7.18359l3.4293,0l0,0.42622l-2.97466,0Z" style="fill:#000;fill-rule:nonzero;"/><rect x="701.924" y="302.766" width="91.7208" height="7.43399" style="fill:#58595b;fill-rule:nonzero;"/><rect x="701.924" y="309.262" width="91.7208" height="4.65468" style="fill:#64a2c8;fill-rule:nonzero;"/><path d="M745.225,334.576l-3.88571,3.42752c-0.118987,0.103003 -0.294802,0.0887959 -0.403133,-0.0248629l-3.5696,-4.04732c-0.106555,-0.122538 -0.0941237,-0.301906 0.0248629,-0.403133l3.88926,-3.43285c0.117211,-0.101227 0.296578,-0.0923477 0.39603,0.0266388l3.5767,4.04909c0.101227,0.120762 0.0887959,0.298354 -0.0284147,0.404909M756.333,324.506c-0.0372943,-1.04069 -0.83113,-0.706815 -1.10107,-0.623347c1.07621,-0.667745 2.01034,-2.63724 1.76704,-3.49501c-0.186471,-0.662417 -0.628675,-0.436876 -1.16323,0.0834681c1.56103,-3.52697 -0.751213,-5.42365 -0.751213,-5.41833c-0.392478,-0.26106 -0.681952,0.0905718 -0.674849,0.614468c0.0816922,4.24267 -3.02261,6.69166 -6.40929,8.72864c-2.54667,1.6445 -3.45061,4.41138 -3.76139,6.39508c-0.0745886,0.239749 -0.259284,0.122538 -0.344528,0.0497257l-1.96061,-2.22167c-0.21311,-0.239749 -0.518568,-0.362287 -0.811594,-0.349856c-0.236197,0.0106555 -0.467066,0.0941237 -0.653538,0.26106l-0.0834681,0.0728126l-0.00355184,0l-0.472394,-0.538103c-0.143849,-0.156281 -0.333873,-0.239749 -0.516792,-0.243301c-0.145625,0 -0.282371,0.0497257 -0.397806,0.143849l-0.262836,0.234421c-0.253956,0.225542 -0.264612,0.637555 -0.0142073,0.921701l0.472394,0.536327l-3.21796,2.84324c-0.433324,0.378271 -0.475946,1.03003 -0.0958996,1.46336l11.1581,12.6445c0.211334,0.245077 0.515016,0.360511 0.809819,0.355184c0.234421,-0.00710367 0.46529,-0.0941237 0.651762,-0.259284l4.5055,-3.96918c0.427996,-0.376495 0.46529,-1.03536 0.0905718,-1.46513l-3.7756,-4.28174c-0.00355184,0 -0.00710367,-0.00355184 -0.00710367,-0.00355184c-0.136746,-0.227317 0.250404,-0.18292 0.250404,-0.18292l0,-0.00355184c0.610916,0.021311 1.06733,-0.120762 1.39054,-0.337424c0.48305,-0.324993 -0.0710367,-0.568294 -0.158057,-0.811594c0.756541,0.364063 2.23588,0.0568294 2.60527,-0.419117c0.289475,-0.371167 -0.207782,-0.523896 -0.680177,-0.628675c1.19342,-0.557638 2.14886,-1.1135 2.65855,-2.43123c0.303682,-0.779628 -0.527448,-0.797387 -1.34437,-0.481274c0.671297,-0.673073 1.34437,-1.593 1.68179,-2.76688c0.376495,-1.32839 -0.118987,-2.00146 -1.18987,-1.10107c0.974979,-0.960772 1.84695,-2.227 1.80966,-3.31564" style="fill:#58595b;fill-rule:nonzero;"/><rect x="730.707" y="304.419" width="9.91495" height="4.95481" style="fill:#64a2c8;fill-rule:nonzero;"/><rect x="741.858" y="304.419" width="9.91495" height="4.95481" style="fill:#cc8c21;fill-rule:nonzero;"/><rect x="753.016" y="304.419" width="7.43577" height="4.95481" style="fill:#78b1b1;fill-rule:nonzero;"/><path d="M171.058,198.126c0,10.0979 -8.15324,18.3204 -18.2991,18.3204c-10.1671,0 -18.3204,-8.22428 -18.3204,-18.3204c0,-10.1423 8.15502,-18.3736 18.3204,-18.3736c10.144,0.00177592 18.2991,8.23138 18.2991,18.3736" style="fill:#64a2c8;fill-rule:nonzero;"/><path d="M195.305,292.391c0,0 -9.65211,-46.7475 -14.2144,-56.1403l0,-0.0692608c-4.57832,-9.36974 -9.16196,-15.0118 -26.5304,-15.0118l-3.59091,0c-17.3685,0 -21.9503,5.64209 -26.5304,15.0118l0,0.0692608c-4.57832,9.39283 -14.234,56.1403 -14.234,56.1403c-0.722799,3.1487 1.21473,6.30806 4.43802,7.00777c0.424444,0.140298 0.847113,0.21311 1.27156,0.21311c2.72603,0 5.10754,-1.84873 5.73799,-4.56056l13.0193,-46.2786l-12.6836,77.3164l12.2432,0l3.78803,69.0211c0,2.35842 1.9393,4.35277 4.2995,4.35277c2.50049,0 4.50906,-1.99436 4.50906,-4.35277l3.717,-69.0211l4.43979,0l3.71877,69.0211c0,2.35842 1.98903,4.35277 4.48952,4.35277c2.36019,0 4.2995,-1.99436 4.2995,-4.35277l3.78271,-69.0211l12.2467,0l-12.6676,-77.3164l13.0193,46.2786c0.635779,2.71183 3.06346,4.56056 5.72556,4.56056c0.422668,0 0.843561,-0.0728126 1.3568,-0.21311c3.13627,-0.701488 5.07202,-3.85907 4.34922,-7.00777" style="fill:#64a2c8;fill-rule:nonzero;"/><rect x="149.387" y="245.348" width="6.50874" height="6.50519" style="fill:#fff;fill-rule:nonzero;stroke-width:0.37px;stroke:#fff;"/><rect x="149.387" y="232.381" width="6.50874" height="6.50696" style="fill:#fff;fill-rule:nonzero;stroke-width:0.37px;stroke:#fff;"/><rect x="155.879" y="238.856" width="6.50874" height="6.50874" style="fill:#fff;fill-rule:nonzero;stroke-width:0.37px;stroke:#fff;"/><rect x="149.387" y="238.856" width="6.50874" height="6.50874" style="fill:#fff;fill-rule:nonzero;stroke-width:0.37px;stroke:#fff;"/><rect x="142.86" y="238.856" width="6.50874" height="6.50874" style="fill:#fff;fill-rule:nonzero;stroke-width:0.37px;stroke:#fff;"/><rect x="395.266" y="187.539" width="151.296" height="94.7683" style="fill:#fff;fill-rule:nonzero;"/><path d="M437.222,257.396l-0.021311,0l-0.964323,5.45562l-1.06555,0l1.6889,-8.61143l2.83437,6.50874l2.83969,-6.50874l1.68712,8.61143l-1.062,0l-0.964323,-5.45562l-0.0248629,0l-2.47918,5.63499l-2.46853,-5.63499Z" style="fill:#000;fill-rule:nonzero;"/><path d="M445.201,254.59l4.43624,0l0,0.943012l-3.40443,0l0,2.31402l3.30676,0l0,0.939461l-3.30676,0l0,3.12562l3.40443,0l0,0.939461l-4.43624,0l0,-8.26157Z" style="fill:#000;fill-rule:nonzero;"/><path d="M451.824,261.912l0.362287,0c2.10446,0 3.91945,-0.788508 3.91945,-3.18777c0,-2.40814 -1.81499,-3.19132 -3.91945,-3.19132l-0.362287,0l0,6.3791ZM450.795,254.59l1.71021,0c2.52891,0 4.63159,1.33727 4.63159,4.08994c0,2.81661 -2.06006,4.17518 -4.66711,4.17518l-1.67469,0l0,-8.26512Z" style="fill:#000;fill-rule:nonzero;"/><rect x="458.253" y="254.594" width="1.03003" height="8.26157" style="fill:#000;fill-rule:nonzero;"/><path d="M466.91,256.17c-0.593157,-0.527448 -1.4012,-0.811594 -2.1826,-0.811594c-1.85051,0 -3.26414,1.54327 -3.26414,3.37247c0,1.81321 1.40298,3.35293 3.24283,3.35293c0.811594,0 1.58945,-0.305458 2.20214,-0.854217l0,1.22006c-0.634003,0.374719 -1.4456,0.582501 -2.1684,0.582501c-2.35842,0 -4.30483,-1.87182 -4.30483,-4.26398c0,-2.44366 1.96061,-4.351 4.39185,-4.351c0.724575,0 1.45803,0.177592 2.08493,0.56119l0,1.19519l-0.00177592,-0.00355184Z" style="fill:#000;fill-rule:nonzero;"/><path d="M478.554,256.017l-0.0248629,0l-2.88231,7.11078l-2.87166,-7.11078l-0.021311,0l-1.41363,6.83906l-0.504361,0l1.77592,-8.53861l3.03504,7.51391l3.0457,-7.51391l1.77592,8.53861l-0.504361,0l-1.41008,-6.83906Z" style="fill:#000;fill-rule:nonzero;"/><path d="M481.65,258.721c0,2.03698 1.69778,3.74719 3.75962,3.74719c2.04941,0 3.75784,-1.71909 3.75784,-3.74719c0,-2.0352 -1.70843,-3.74364 -3.75784,-3.74364c-2.06184,-0.00177592 -3.75962,1.70843 -3.75962,3.74364M489.691,258.721c0,2.32645 -1.96061,4.24622 -4.28174,4.24622c-2.32112,0 -4.28529,-1.91977 -4.28529,-4.24622c0,-2.3229 1.95351,-4.24089 4.28529,-4.24089c2.32112,0 4.28174,1.91977 4.28174,4.24089" style="fill:#000;fill-rule:nonzero;"/><path d="M491.688,262.356l1.2609,0c0.578949,0 1.17921,0.0301906 1.68357,-0.316113c0.500809,-0.337424 0.808043,-0.852441 0.808043,-1.47046c0,-0.60026 -0.293026,-1.20407 -0.850665,-1.47401c-0.502585,-0.253956 -1.19342,-0.264612 -1.74573,-0.264612l-1.1579,0l0.00177592,3.5252ZM491.688,258.339l0.911046,0c0.557638,0 1.00695,0.0337424 1.47756,-0.307234c0.472394,-0.337424 0.612692,-0.756541 0.612692,-1.32839c0,-0.532775 -0.206006,-1.06377 -0.678401,-1.3568c-0.413789,-0.264612 -0.928805,-0.264612 -1.41185,-0.264612l-0.911046,0l0,3.25703ZM491.163,262.855l0,-8.26157l1.65338,0c0.625123,0 1.21828,0.0443979 1.71198,0.479498c0.502585,0.438652 0.689056,1.05312 0.689056,1.70666c0,0.761869 -0.294802,1.31596 -0.951892,1.69067c1.0176,0.207782 1.71021,1.03003 1.71021,2.07605c0,0.665969 -0.253956,1.27511 -0.768972,1.71554c-0.578949,0.488377 -1.19164,0.589605 -1.92687,0.589605l-2.11689,0l0,0.00355184Z" style="fill:#000;fill-rule:nonzero;"/><rect x="497.481" y="254.594" width="0.525672" height="8.26157" style="fill:#000;fill-rule:nonzero;"/><path d="M500.465,262.356l2.10624,0l0,0.491929l-2.63191,0l0,-8.25802l0.527448,0l0,7.76609l-0.00177592,0Z" style="fill:#000;fill-rule:nonzero;"/><path d="M504.173,255.086l0,3.0013l3.32629,0l0,0.491929l-3.32629,0l0,3.77738l3.42042,0l0,0.491929l-3.94964,0l0,-8.26157l3.94964,0l0,0.488377l-3.42042,0l0,0.0106555Z" style="fill:#000;fill-rule:nonzero;"/><rect x="403.803" y="196.095" width="134.22" height="7.60626" style="fill:#58595b;fill-rule:nonzero;"/><rect x="403.803" y="203.703" width="134.22" height="4.56411" style="fill:#64a2c8;fill-rule:nonzero;"/><path d="M467.739,235.974l-4.47176,3.94076c-0.131418,0.117211 -0.3392,0.106555 -0.458187,-0.0301906l-4.10415,-4.65468c-0.115435,-0.131418 -0.106555,-0.337424 0.0301906,-0.459963l4.46643,-3.93899c0.13497,-0.118987 0.342752,-0.104779 0.463515,0.0284147l4.10059,4.65468c0.118987,0.129642 0.106555,0.3392 -0.0266388,0.459963M480.496,224.4c-0.0355184,-1.18987 -0.953668,-0.804491 -1.26268,-0.706815c1.24137,-0.772524 2.31225,-3.03504 2.02987,-4.01713c-0.218438,-0.763645 -0.721023,-0.502585 -1.33549,0.0958996c1.79545,-4.05264 -0.863096,-6.22814 -0.863096,-6.22459c-0.458187,-0.303682 -0.78318,0.101227 -0.777852,0.703264c0.0941237,4.87489 -3.46837,7.69505 -7.36296,10.0304c-2.92316,1.8878 -3.9603,5.07025 -4.31903,7.34342c-0.0905718,0.280595 -0.301906,0.145625 -0.401357,0.0586053l-2.25186,-2.55199c-0.245077,-0.278819 -0.589605,-0.412013 -0.934133,-0.404909c-0.264612,0.0124314 -0.532775,0.104779 -0.745886,0.298354l-0.101227,0.0905718l0,-0.00177592l-0.00355184,0.00177592l-0.541655,-0.618019c-0.159833,-0.181144 -0.381822,-0.275267 -0.594933,-0.278819c-0.16516,-0.00177592 -0.324993,0.0532775 -0.452859,0.16516l-0.301906,0.262836c-0.294802,0.262836 -0.303682,0.733454 -0.0177592,1.06022l0.541655,0.616244l-3.70101,3.26236c-0.495481,0.4351 -0.538103,1.18631 -0.106555,1.68179l12.8221,14.5323c0.239749,0.277043 0.586053,0.413789 0.925253,0.403133c0.273491,-0.00710367 0.539879,-0.104779 0.752989,-0.294802l5.17147,-4.56589c0.491929,-0.431548 0.538103,-1.18631 0.103003,-1.68002l-4.33679,-4.91219c0,-0.00355184 -0.00355184,-0.00710367 -0.00710367,-0.0106555c-0.159833,-0.257508 0.287699,-0.209558 0.287699,-0.209558l0,-0.00532775c0.703264,0.0284147 1.22361,-0.136746 1.59477,-0.385374c0.557638,-0.378271 -0.0799163,-0.651762 -0.177592,-0.925253c0.863096,0.415565 2.5662,0.0603812 2.99242,-0.484826c0.330321,-0.424444 -0.237973,-0.607364 -0.781404,-0.729902c1.36923,-0.63933 2.4703,-1.27866 3.05635,-2.79352c0.346304,-0.887959 -0.603812,-0.911046 -1.5486,-0.55231c0.776076,-0.779628 1.5486,-1.82564 1.93397,-3.17179c0.436876,-1.53084 -0.13497,-2.29804 -1.36568,-1.26801c1.1206,-1.10285 2.12755,-2.55732 2.08138,-3.8129" style="fill:#58595b;fill-rule:nonzero;"/><rect x="450.962" y="197.619" width="9.12644" height="6.08429" style="fill:#64a2c8;fill-rule:nonzero;"/><rect x="463.129" y="197.619" width="9.12999" height="6.08429" style="fill:#cc8c21;fill-rule:nonzero;"/><rect x="475.301" y="197.619" width="9.12822" height="6.08429" style="fill:#78b1b1;fill-rule:nonzero;"/><path d="M538.002,273.747l-134.165,0l0,-77.6467l134.165,0l0,77.6467ZM546.564,187.539l-151.298,0l0,94.7665l151.296,0l0,-94.7665l0.00177592,0Z" style="fill:#b3b3b3;fill-rule:nonzero;"/><path d="M486.726,299.294l-31.6238,0l0,-5.18568l31.6238,0l0,5.18568ZM386.227,288.446c0,0 3.39911,16.4965 15.5677,16.4965l0,0.00887959l138.241,0l0,-0.00887959c12.1686,0 15.5677,-16.4965 15.5677,-16.4965l-169.376,0Z" style="fill:#b3b3b3;fill-rule:nonzero;"/></g></g></svg>