<?xml version="1.0" standalone="no"?>
<!DOCTYPE svg PUBLIC "-//W3C//DTD SVG 20010904//EN"
 "http://www.w3.org/TR/2001/REC-SVG-20010904/DTD/svg10.dtd">
<svg version="1.0" xmlns="http://www.w3.org/2000/svg"
 width="512.000000pt" height="516.000000pt" viewBox="0 0 512.000000 516.000000"
 preserveAspectRatio="xMidYMid meet">
<metadata>
Created by potrace 1.12, written by Peter Selinger 2001-2015
</metadata>
<g transform="translate(0.000000,516.000000) scale(0.100000,-0.100000)"
fill="#000000" stroke="none">
<path d="M1522 5094 c-18 -9 -43 -31 -55 -48 -21 -30 -22 -41 -25 -283 l-3
-252 -373 -3 -372 -3 -76 -38 c-91 -44 -146 -102 -192 -197 l-31 -65 -3 -247
-4 -248 2202 0 2202 0 -4 248 -3 247 -31 65 c-46 95 -101 153 -192 197 l-76
38 -373 3 -373 3 0 241 c0 266 -4 288 -64 331 -43 31 -129 31 -172 0 -60 -43
-64 -65 -64 -332 l0 -241 -850 0 -850 0 0 241 c0 266 -4 289 -63 331 -39 28
-112 34 -155 12z m-58 -1067 c23 -34 85 -67 126 -67 45 0 107 35 127 73 14 25
19 64 23 185 l5 153 42 -36 c98 -84 128 -238 70 -357 -67 -137 -227 -201 -370
-148 -29 11 -72 36 -95 55 -97 84 -127 239 -69 357 16 32 47 74 70 93 l42 36
5 -158 c4 -133 8 -162 24 -186z m2000 0 c23 -34 85 -67 126 -67 45 0 107 35
127 73 14 25 19 64 23 185 l5 153 42 -36 c23 -19 54 -61 70 -93 23 -47 28 -70
28 -132 0 -62 -5 -85 -28 -132 -34 -69 -91 -121 -164 -148 -143 -53 -303 11
-370 148 -23 47 -28 70 -28 132 0 62 5 85 28 132 16 32 47 74 70 93 l42 36 5
-158 c4 -133 8 -162 24 -186z"/>
<path d="M392 1963 l3 -1548 32 -67 c41 -88 113 -160 201 -201 l67 -32 1895 0
1895 0 67 32 c77 36 155 108 189 174 51 100 49 38 49 1667 l0 1522 -2200 0
-2200 0 2 -1547z m1098 847 l0 -400 -400 0 -400 0 0 400 0 400 400 0 400 0 0
-400z m1000 0 l0 -400 -400 0 -400 0 0 400 0 400 400 0 400 0 0 -400z m1000 0
l0 -400 -400 0 -400 0 0 400 0 400 400 0 400 0 0 -400z m1000 0 l0 -400 -400
0 -400 0 0 400 0 400 400 0 400 0 0 -400z m-3000 -1000 l0 -400 -400 0 -400 0
0 400 0 400 400 0 400 0 0 -400z m1000 0 l0 -400 -400 0 -400 0 0 400 0 400
400 0 400 0 0 -400z m1000 0 l0 -400 -400 0 -400 0 0 400 0 400 400 0 400 0 0
-400z m1000 0 l0 -400 -400 0 -400 0 0 400 0 400 400 0 400 0 0 -400z m-3000
-1000 l0 -400 -400 0 -400 0 0 400 0 400 400 0 400 0 0 -400z m1000 0 l0 -400
-400 0 -400 0 0 400 0 400 400 0 400 0 0 -400z m1000 0 l0 -400 -400 0 -400 0
0 400 0 400 400 0 400 0 0 -400z m1000 0 l0 -400 -400 0 -400 0 0 400 0 400
400 0 400 0 0 -400z"/>
</g>
</svg>
