<?xml version="1.0" encoding="utf-8"?>
<!-- Generator: Adobe Illustrator 15.1.1, SVG Export Plug-In . SVG Version: 6.00 Build 0)  -->
<!DOCTYPE svg PUBLIC "-//W3C//DTD SVG 1.1//EN" "http://www.w3.org/Graphics/SVG/1.1/DTD/svg11.dtd">
<svg version="1.1" id="Layer_1" xmlns="http://www.w3.org/2000/svg" xmlns:xlink="http://www.w3.org/1999/xlink" x="0px" y="0px"
	 width="612px" height="792px" viewBox="0 0 612 792" enable-background="new 0 0 612 792" xml:space="preserve">
<g id="chw-female-full">
	<path fill="#64A2C8" d="M316.499,57.556c0-31.31,25.169-56.715,56.486-56.715c31.379,0,56.556,25.405,56.556,56.715
		c0,31.163-25.177,56.556-56.556,56.556C341.668,114.111,316.499,88.718,316.499,57.556"/>
	<path fill="#64A2C8" d="M294.702,244.04c1.903,11.361,2.1,30.275,0,45.192c-6.759,48.017-40.55,242.91-40.55,242.91h77.384
		l14.007,243.508c0,8.737,7.181,16.108,15.918,16.108c9.267,0,16.627-7.371,16.627-16.108l13.763-243.508h66.674l-45.192-203.367
		l11.298-101.683c-1.733-26.822,13.62-85.502-49.941-95.469h-13.302c-35.864,0-32.293,38.538-55.387,61.575
		C289.672,209.486,292.127,228.668,294.702,244.04L294.702,244.04z"/>
	<path fill="#63A3C8" d="M275.493,259.412l91.8-81.951c8.701-7.768,9.458-21.119,1.69-29.82c-7.769-8.702-21.119-9.458-29.821-1.69
		l-91.8,81.951c-8.701,7.768-9.458,21.119-1.689,29.821C253.44,266.423,266.792,267.18,275.493,259.412z"/>
	<path fill="#63A3C8" d="M273.17,259.253c7.729-7.516,7.902-19.874,0.387-27.603l-86.567-89.03
		c-7.516-7.729-19.873-7.903-27.603-0.387c-7.729,7.515-7.902,19.874-0.387,27.603l86.567,89.03
		C253.083,266.595,265.44,266.768,273.17,259.253L273.17,259.253z"/>
	<path fill="#FFFFFF" d="M342.292,191.617V175.46h16.156v-16.156h16.156v16.156h16.132v16.157h-16.132v16.124h-16.156v-16.124
		H342.292z"/>
</g>
</svg>
