<?xml version="1.0" standalone="no"?><!DOCTYPE svg PUBLIC "-//W3C//DTD SVG 1.1//EN" "http://www.w3.org/Graphics/SVG/1.1/DTD/svg11.dtd"><svg width="100%" height="100%" viewBox="0 0 202 88" version="1.1" xmlns="http://www.w3.org/2000/svg" xmlns:xlink="http://www.w3.org/1999/xlink" xml:space="preserve" style="fill-rule:evenodd;clip-rule:evenodd;stroke-linejoin:round;stroke-miterlimit:1.41421;"><path id="cloud-1" d="M177.135,42.2214c13.2341,4.36801 21.5768,10.1055 23.7223,16.7974c3.62145,11.2952 0.40614,25.7247 -43.3398,27.0918c-0.291032,0.00909504 -35.2162,1.36347 -55.896,1.36347c-18.0676,0 -49.6327,-0.263072 -49.699,-0.262982c-48.7079,0.0665585 -51.1347,-12.7728 -51.1281,-25.2087c0.00408144,-7.77409 9.09891,-14.8329 25.599,-20.0354c-0.0944962,-0.604889 -0.142461,-1.21587 -0.142461,-1.83217c0,-13.543 23.1622,-24.5218 51.7343,-24.5218l0.228924,0.00034352c5.56948,-8.77518 18.8118,-14.9475 34.2613,-14.9475c17.6908,0 32.4875,8.09312 36.184,18.9198c1.45168,-0.245298 2.94956,-0.373572 4.48087,-0.373572c13.2818,0 24.0488,9.64991 24.0488,21.5537c0,0.489236 -0.0181871,0.974666 -0.0541146,1.45584Z" style="fill:#fff;"/></svg>