<?xml version="1.0" standalone="no"?>
<!DOCTYPE svg PUBLIC "-//W3C//DTD SVG 1.1//EN" "http://www.w3.org/Graphics/SVG/1.1/DTD/svg11.dtd">
<svg width="100%" height="100%" viewBox="0 0 263 730" version="1.1" xmlns="http://www.w3.org/2000/svg" xmlns:xlink="http://www.w3.org/1999/xlink" xml:space="preserve" style="fill-rule:evenodd;clip-rule:evenodd;stroke-linejoin:round;stroke-miterlimit:1.41421;">
    <g id="mother/newborn">
        <path d="M136.126,118.761c31.745,0 57.446,-26.554 57.446,-59.355c0,-32.794 -25.701,-59.406 -57.446,-59.406c-31.756,0 -57.457,26.612 -57.457,59.406c0,32.801 25.701,59.355 57.457,59.355Z" style="fill:#f47b63;fill-rule:nonzero;"/>
        <path d="M238.022,169.106c-2.878,-8.634 -19.125,-34.882 -63.322,-35.125l-86.526,0.179c-42.888,-2.393 -59.994,22.955 -62.665,34.219c0,0 -29.017,92.478 -24.016,113.888c3.063,13.34 38.383,27.955 62.919,40.05l-44.953,178.005l60.883,0l0,208.148c0,11.892 9.632,21.53 21.53,21.53c11.893,0 21.531,-9.638 21.531,-21.53l0,-208.148l24.61,0l0,208.148c0,11.892 9.632,21.53 21.531,21.53c11.893,0 21.53,-9.638 21.53,-21.53l0,-208.148l59.187,0l-44.058,-181.523c21.922,-11.582 53.419,-25.263 56.222,-37.363c5.012,-21.675 -24.403,-112.33 -24.403,-112.33Z" style="fill:#f47b63;fill-rule:nonzero;"/>
        <path d="M141.467,291.172c-1.234,0 -2.405,-0.018 -3.518,-0.018l-0.064,0c-4.302,0 -8.201,-0.438 -11.644,-0.83c-22.194,-2.607 -28.504,-10.901 -28.764,-19.229c-4.043,1.765 -8.455,2.791 -13.155,2.791c-18.018,0 -32.587,-14.851 -32.587,-33.135c0,-18.346 14.569,-33.181 32.587,-33.181c17.7,0 30.654,14.379 31.122,32.264c5.652,-4.025 7.959,-5.986 14.113,-6.771l0,0.127c6.154,-1.234 13.144,0 13.144,0c21.738,4.822 70.694,26.185 70.694,26.185c0,0 -25.026,32.056 -71.928,31.797Z" style="fill:#fff;"/>
    </g>
</svg>
