<?xml version="1.0" standalone="no"?><!DOCTYPE svg PUBLIC "-//W3C//DTD SVG 1.1//EN" "http://www.w3.org/Graphics/SVG/1.1/DTD/svg11.dtd"><svg width="100%" height="100%" viewBox="0 0 280 728" version="1.1" xmlns="http://www.w3.org/2000/svg" xmlns:xlink="http://www.w3.org/1999/xlink" xml:space="preserve" style="fill-rule:evenodd;clip-rule:evenodd;stroke-linejoin:round;stroke-miterlimit:1.41421;"><g id="nurse"><path id="body" d="M129.818,562.248l-5.02306,146.074c0,12.445 -7.77764,18.7745 -15.1206,18.746c-7.34294,0.0308093 -15.8412,-3.88905 -15.8412,-18.8674l-2.80406,-145.953l-72.2638,0l68.893,-296.289l-6.48359,-4.54747e-13l-51.4422,136.836c-5.19484,16.5435 -33.7119,9.89134 -28.4809,-7.49894l56.2523,-161.488c19.0143,-34.3448 39.2532,-41.9215 61.0413,-41.9215l7.82697,-0.0288631l-0.000660173,-0.101763l13.7981,0.0508825l13.7981,-0.0508825l-0.000660173,0.101763l7.82697,0.0288631c21.788,1.13687e-13 42.027,7.57677 61.0413,41.9215l56.2523,161.488c5.23104,17.3903 -23.2861,24.0425 -28.4809,7.49894l-51.4422,-136.836l-6.48359,4.54747e-13l68.893,296.289l-72.2638,0l-2.80406,145.953c9.66338e-13,14.9783 -8.49827,18.8982 -15.8412,18.8674c-7.34295,0.0284795 -15.1206,-6.30099 -15.1206,-18.746l-5.02306,-146.074l-20.7032,0Z" style="fill:#89ac96;"/><circle id="head" cx="140.169" cy="128.396" r="47.6179" style="fill:#8bac96;"/><path id="hat" d="M138.168,61.4202c21.215,0 40.0253,9.6226 52.1058,24.6487l31.6089,-52.1115c-20.4475,-21.6231 -62.3442,-33.4804 -84.8014,-33.4804c-23.3711,0 -54.9805,12.8257 -78.6267,35.6644l28.0781,49.4395c12.0538,-14.72 30.6779,-24.1607 51.6355,-24.1607" style="fill:#89ac96;fill-rule:nonzero;"/><path id="Cross" d="M147.235,37.9917l0,14.1413l-14.1309,0l0,-14.1413l-14.1446,0l0,-14.1413l14.1446,0l0,-14.1375l14.1309,0l0,14.1375l14.1446,0l0,14.1413l-14.1446,0Z" style="fill:#fff;"/></g></svg>