<?xml version="1.0" standalone="no"?><!DOCTYPE svg PUBLIC "-//W3C//DTD SVG 1.1//EN" "http://www.w3.org/Graphics/SVG/1.1/DTD/svg11.dtd"><svg width="100%" height="100%" viewBox="0 0 292 671" version="1.1" xmlns="http://www.w3.org/2000/svg" xmlns:xlink="http://www.w3.org/1999/xlink" xml:space="preserve" style="fill-rule:evenodd;clip-rule:evenodd;stroke-miterlimit:1.41421;"><g id="phone_logo"><path d="M289.125,251.045c-1.048,-26.201 -0.307,-53.146 -1.037,-79.415c-1.095,-39.339 -2.374,-76.368 -4.153,-115.234c-0.664,-14.4997 -0.889,-27.3837 -5.191,-35.8157c-10.289,-20.159 -32.286,-18.688 -62.288,-19.725c-24.231,-0.837 -47.447,-0.516 -70.417,-0.019c-22.968,-0.497 -46.183,-0.818 -70.412,0.019c-30.006,1.037 -52.002,-0.434 -62.289,19.725c-4.305,8.432 -4.528,21.316 -5.191,35.8157c-1.78,38.866 -3.058,75.895 -4.154,115.234c-0.73,26.269 0.009,53.214 -1.037,79.415c-3.139,78.506 -1.558,162.996 -1.558,229.432c0,39.006 0.519,81.134 0.519,121.464c0,14.108 -0.394,27.827 2.596,37.89c4.441,14.954 14.629,21.818 29.185,24.826c2.913,0.701 5.938,1.115 9.161,1.367c5.905,0.597 74.944,4.295 102.141,3.976c27.196,0.319 98.314,-3.379 104.219,-3.976c3.225,-0.252 6.252,-0.666 9.165,-1.367c14.558,-3.008 24.742,-9.872 29.183,-24.826c2.988,-10.063 2.596,-23.782 2.596,-37.89c0,-40.33 0.521,-82.458 0.521,-121.464c-0.003,-66.436 1.58,-150.926 -1.559,-229.432" style="fill:#d1d3d4;"/><path d="M250.592,622.625c0,6.498 -5.373,11.766 -12,11.766l-44.913,0l-140.087,0c-6.627,0 -12,-5.268 -12,-11.766l0,-560.859c0,-6.498 5.373,-11.766 12,-11.766l185,0c6.627,0 12,5.268 12,11.766l0,560.859Z" style="fill:none;stroke-width:2px;stroke:#000;"/><path d="M250.592,391.391l0,-330.752c0,-6.427 -5.373,-11.639 -12,-11.639l-185,0c-6.627,0 -12,5.212 -12,11.639l0,330.752l209,0Z" style="fill:#a7a9ac;fill-rule:nonzero;"/><path d="M250.592,391.391l0,-329.786c0,-6.409 -5.373,-11.605 -12,-11.605l-185,0c-6.627,0 -12,5.196 -12,11.605l0,329.786l209,0Z" style="fill:none;stroke-width:2px;stroke:#000;"/><rect x="55" y="100" width="180" height="240" style="fill:#dcdcdc;"/><path d="M183,392l0,242" style="fill:none;stroke-width:2px;stroke:#656464;"/><path d="M111.592,391.891l0,242" style="fill:none;stroke-width:2px;stroke:#58595b;"/><path d="M42.092,586.391l208,0" style="fill:none;stroke-width:2px;stroke:#58595b;"/><path d="M42.092,543.391l208,0" style="fill:none;stroke-width:2px;stroke:#58595b;"/><path d="M42.092,500.391l208,0" style="fill:none;stroke-width:2px;stroke:#58595b;"/><path d="M42.092,457.391l208,0" style="fill:none;stroke-width:2px;stroke:#58595b;"/><path d="M42.092,422.391l69,0" style="fill:none;stroke-width:2px;stroke:#58595b;"/><path d="M183.092,422.391l68,0" style="fill:none;stroke-width:2px;stroke:#58595b;"/><rect x="62.092" y="405.391" width="29" height="3" style="fill:#000;"/><rect x="202.092" y="405.391" width="29" height="3" style="fill:#000;"/><path d="M92.8266,445.499l-0.142203,-0.0124352l-0.140377,-0.0258961l-0.13728,-0.0391226l-0.132939,-0.0519947l-0.127395,-0.064396l-0.120697,-0.0762141l-0.112906,-0.0873419l-0.104092,-0.0976788l-0.0943359,-0.107131l-0.0837253,-0.115613l-0.0723565,-0.123048l-0.0603324,-0.129369l-0.0477618,-0.134518l-0.0347588,-0.138449l-0.021441,-0.141126l-0.00792899,-0.142525l-0.000553311,-0.0693793l-0.00135843,-0.0571699l-0.00225407,-0.0568277l-0.00314418,-0.0565952l-0.00402352,-0.0563774l-0.00488839,-0.0560318l-0.00576259,-0.0558395l-0.00661856,-0.0556189l-0.00746341,-0.0552945l-0.00832172,-0.0551386l-0.0091654,-0.0549347l-0.00999703,-0.0546832l-0.0108286,-0.0544556l-0.0116776,-0.0543316l-0.0124873,-0.0540797l-0.0132909,-0.0537807l-0.0141339,-0.0536719l-0.0149693,-0.0535497l-0.0157549,-0.0532766l-0.0165761,-0.0530981l-0.0173872,-0.0529366l-0.0181906,-0.0527262l-0.0189959,-0.0525545l-0.0198106,-0.05239l-0.0205644,-0.0521031l-0.0214027,-0.0519815l-0.0222067,-0.0518486l-0.0229789,-0.0515813l-0.0237788,-0.0514313l-0.0245156,-0.0511078l-0.0253418,-0.0509929l-0.026145,-0.0508281l-0.0268868,-0.050555l-0.0276573,-0.0503189l-0.028486,-0.0502064l-0.0292107,-0.0499079l-0.0300051,-0.049721l-0.0307917,-0.0495355l-0.0314783,-0.0491835l-0.0322118,-0.048897l-0.0329864,-0.0486806l-0.0337624,-0.0484641l-0.0345345,-0.0482472l-0.0351839,-0.0478613l-0.0359829,-0.0476594l-0.0366731,-0.047347l-0.037362,-0.0469937l-0.0381516,-0.0468015l-0.0387851,-0.0463957l-0.0395309,-0.0461343l-0.0402604,-0.0458495l-0.0408509,-0.0454179l-0.0415167,-0.0450436l-0.0423166,-0.0448394l-0.042878,-0.0443774l-0.0434881,-0.0439548l-0.0441815,-0.0436229l-0.0448727,-0.0432879l-0.0455564,-0.0429497l-0.0460977,-0.0424793l-0.0467651,-0.0421106l-0.0472533,-0.0416048l-0.0479413,-0.041234l-0.0486147,-0.0409012l-0.049068,-0.0403422l-0.0496979,-0.0399531l-0.0501294,-0.0393901l-0.0507776,-0.0389955l-0.0512407,-0.0384726l-0.0519683,-0.0381221l-0.0523585,-0.0375723l-0.0528013,-0.0369962l-0.0535617,-0.0366967l-0.0537434,-0.0359779l-0.0542581,-0.03547l-0.0550116,-0.0351336l-0.0553834,-0.0345632l-0.0556916,-0.0339331l-0.0560111,-0.033319l-0.0566699,-0.0328853l-0.0570018,-0.0323058l-0.0573081,-0.0316568l-0.0579406,-0.0312323l-0.0582048,-0.0305878l-0.058651,-0.0300447l-0.0588892,-0.0293979l-0.0593132,-0.0288274l-0.0597309,-0.0282762l-0.0597214,-0.0275088l-0.0603222,-0.0270035l-0.0607277,-0.0264547l-0.0606487,-0.0256588l-0.0609895,-0.0250444l-0.0615995,-0.0245403l-0.0616945,-0.0238576l-0.0618104,-0.0231404l-0.0621194,-0.0225268l-0.0624324,-0.0218891l-0.0625152,-0.0212013l-0.06278,-0.0205324l-0.0630517,-0.0199122l-0.0630698,-0.0191713l-0.0633581,-0.0185374l-0.063122,-0.0177384l-0.0635521,-0.0171051l-0.0640215,-0.0165231l-0.0637708,-0.0157375l-0.0637079,-0.0149862l-0.064132,-0.0143489l-0.0643013,-0.0136767l-0.0639867,-0.0128844l-0.0641419,-0.0121729l-0.0642668,-0.011478l-0.0641524,-0.0107219l-0.0645209,-0.0100478l-0.0643685,-0.00931571l-0.064222,-0.00854634l-0.0643019,-0.00783352l-0.0643801,-0.00709864l-0.0644454,-0.00638555l-0.0639928,-0.00560568l-0.0640358,-0.00485397l-0.0643164,-0.00413971l-0.0640927,-0.00339336l-0.0638435,-0.00263096l-0.063852,-0.00188209l-0.063838,-0.00113338l-0.0680926,-0.000410609l-21.507,0l-0.067923,0.00041017l-0.0633683,0.00112958l-0.063071,0.00187161l-0.0627595,0.00261056l-0.0627122,0.00336025l-0.0626536,0.00409166l-0.0620834,0.00478665l-0.0617563,0.00551669l-0.0619495,0.00627471l-0.0616204,0.00696287l-0.0612934,0.00766962l-0.0609467,0.00835104l-0.060867,0.00909112l-0.060778,0.00979075l-0.0601647,0.0104258l-0.0600724,0.0111492l-0.0597188,0.0118033l-0.0593431,0.0124733l-0.0594861,0.0132356l-0.0591176,0.0138664l-0.0584942,0.0144552l-0.058366,0.0151636l-0.0584694,0.0159201l-0.05782,0.0164507l-0.0571962,0.0170262l-0.0573109,0.0177982l-0.0568684,0.018384l-0.0566961,0.0190798l-0.0563004,0.0196606l-0.0559105,0.0202833l-0.0557056,0.0209331l-0.055278,0.0215242l-0.0548517,0.0220919l-0.0546197,0.022763l-0.0544251,0.0234132l-0.053785,0.0238905l-0.0533186,0.0244412l-0.0533041,0.0252069l-0.0528466,0.0257245l-0.0521409,0.0261618l-0.0521538,0.0269419l-0.0516903,0.0274562l-0.051156,0.0279585l-0.0509063,0.0285977l-0.0504229,0.0291062l-0.0501605,0.0297488l-0.0494469,0.0300967l-0.0491392,0.0307427l-0.0488672,0.0313454l-0.0481065,0.0316827l-0.0478136,0.0323068l-0.0475172,0.0329327l-0.0471791,0.0335161l-0.0464452,0.0338181l-0.0459177,0.0342916l-0.0457336,0.0350038l-0.0450233,0.0353002l-0.0446875,0.035929l-0.0443079,0.036468l-0.0435681,0.0367522l-0.043173,0.0373108l-0.0426552,0.0377637l-0.0422165,0.0382909l-0.0416501,0.0386898l-0.041264,0.0392774l-0.0406603,0.0396206l-0.0401187,0.0400722l-0.0396845,0.0405848l-0.039066,0.040944l-0.0386109,0.0414522l-0.0380523,0.0418606l-0.0374694,0.0422336l-0.0368413,0.042568l-0.0363976,0.043115l-0.0358759,0.0435577l-0.0351944,0.0438148l-0.0347041,0.044321l-0.0341598,0.0447384l-0.0335805,0.0451297l-0.0329681,0.0454598l-0.0324121,0.0458932l-0.0318192,0.0462472l-0.0312042,0.0465994l-0.030627,0.046988l-0.0300309,0.0473672l-0.029477,0.0478011l-0.028843,0.0481124l-0.0282085,0.0484274l-0.0275737,0.0487462l-0.0269999,0.0491815l-0.0263885,0.0495383l-0.0257635,0.0498877l-0.0251201,0.0501894l-0.0245161,0.0505994l-0.023866,0.050883l-0.0232049,0.0511919l-0.0225955,0.051583l-0.0219031,0.0518172l-0.0212871,0.0522304l-0.0206385,0.0525658l-0.01994,0.0527884l-0.0193415,0.0532984l-0.0186468,0.0535057l-0.0179616,0.053819l-0.0173088,0.0541743l-0.0166158,0.054473l-0.0159509,0.054828l-0.0152498,0.0551126l-0.0145567,0.0554058l-0.0138652,0.0557655l-0.013178,0.0561082l-0.0124531,0.056354l-0.0117498,0.0567001l-0.01103,0.0569961l-0.0103065,0.0573012l-0.00959589,0.0577181l-0.00886172,0.0579836l-0.00811597,0.0582758l-0.00738391,0.058642l-0.00662563,0.0588899l-0.00587219,0.0592334l-0.00510967,0.0595343l-0.00434587,0.0599289l-0.00357314,0.0602095l-0.00278507,0.0604906l-0.00200373,0.0609051l-0.00120598,0.0611647l-0.000467142,0.0713409l-0.00772559,0.142537l-0.0212396,0.141157l-0.0345612,0.138499l-0.0475698,0.134586l-0.0601477,0.129455l-0.0721808,0.123151l-0.0835603,0.115733l-0.094183,0.107266l-0.103953,0.0978273l-0.112781,0.087503l-0.120588,0.0763862l-0.127303,0.0645777l-0.132865,0.0521844l-0.137224,0.0393184l-0.14034,0.0260964l-0.142185,0.0126381l-0.142743,-0.000934682l-0.142007,-0.014499l-0.139986,-0.027932l-0.136697,-0.0411121l-0.13217,-0.0539198l-0.126446,-0.0662393l-0.119577,-0.0779588l-0.111626,-0.0889724l-0.102663,-0.0991802l-0.0927702,-0.10849l-0.0820375,-0.116817l-0.0705619,-0.124086l-0.0584472,-0.130232l-0.0458033,-0.135198l-0.0327445,-0.138939l-0.0193892,-0.141423l-0.00585835,-0.142625l0.000596462,-0.0910904l0.00198483,-0.100667l0.00330065,-0.100326l0.00460561,-0.100032l0.00591747,-0.0997128l0.00720376,-0.0993388l0.008499,-0.0990244l0.00978187,-0.0986707l0.0110602,-0.0983051l0.01232,-0.097844l0.0135788,-0.0975011l0.0148375,-0.0970843l0.0160669,-0.0966407l0.0173199,-0.096294l0.0185463,-0.0958355l0.0197628,-0.0953679l0.0209822,-0.0949504l0.0221664,-0.094378l0.0233609,-0.0939571l0.0245648,-0.0934987l0.0257261,-0.0929737l0.0268932,-0.0924401l0.0280555,-0.091977l0.0292034,-0.0914029l0.0303505,-0.0909401l0.0314789,-0.0903262l0.0325569,-0.0897153l0.033731,-0.0892981l0.0348052,-0.088648l0.0358884,-0.0880562l0.0370041,-0.0875421l0.0380435,-0.086849l0.039125,-0.0863129l0.0401683,-0.08564l0.0411819,-0.0849963l0.0422551,-0.0844246l0.043248,-0.0837444l0.0442729,-0.0831121l0.0452842,-0.0824871l0.0463195,-0.081886l0.04728,-0.0811686l0.0482274,-0.0804472l0.0491614,-0.0797221l0.0501621,-0.0791198l0.0511068,-0.078408l0.0520705,-0.0777604l0.0529554,-0.0769672l0.0538761,-0.0762848l0.0548065,-0.0755728l0.0556667,-0.074812l0.0565465,-0.0740579l0.0574612,-0.0733844l0.058389,-0.0726906l0.0591393,-0.0718023l0.0600221,-0.0710996l0.0609693,-0.0704466l0.061732,-0.0695811l0.0624991,-0.0687541l0.0633041,-0.0679625l0.0641853,-0.0672708l0.0649032,-0.0663755l0.0657644,-0.0656881l0.0665318,-0.0648307l0.0672098,-0.063974l0.068092,-0.0632524l0.0687937,-0.0623969l0.0695959,-0.061615l0.0703053,-0.0607589l0.0711374,-0.0600084l0.0715976,-0.058929l0.0724043,-0.0582135l0.0732412,-0.0574242l0.0737036,-0.0564115l0.0746648,-0.0557601l0.0752828,-0.0548155l0.0756671,-0.0537539l0.0764334,-0.0529737l0.0772279,-0.0521815l0.0780259,-0.0513874l0.0783425,-0.0502521l0.0791068,-0.0494912l0.0798627,-0.0486099l0.0801582,-0.0475397l0.0809185,-0.0467096l0.0814305,-0.0457454l0.0821762,-0.044912l0.0826237,-0.043887l0.083101,-0.0429287l0.0840684,-0.0421815l0.0843036,-0.041037l0.0847598,-0.040082l0.0856589,-0.0392659l0.0860788,-0.0382349l0.0863114,-0.0371304l0.0869895,-0.0362533l0.0876166,-0.0352881l0.0880221,-0.0342741l0.0884263,-0.0332289l0.0890259,-0.0322969l0.0894268,-0.0312287l0.0898221,-0.0302277l0.090427,-0.0292327l0.0907481,-0.0281822l0.0915855,-0.0272633l0.0917116,-0.0260934l0.0917714,-0.0249877l0.0925838,-0.0240534l0.0931374,-0.0230163l0.0931959,-0.0218597l0.0934819,-0.0207997l0.0942794,-0.0198166l0.0945446,-0.0186866l0.0948046,-0.0175954l0.0953259,-0.0165188l0.0953126,-0.0153539l0.0957962,-0.0143082l0.0962893,-0.0131937l0.0965016,-0.0120752l0.0967065,-0.0109275l0.0969092,-0.0098157l0.0976069,-0.00871923l0.0977979,-0.00754024l0.097705,-0.00638074l0.0981237,-0.00525767l0.0985264,-0.00409832l0.0986785,-0.00292824l0.0988039,-0.00176124l0.0946583,-0.000571618l21.5251,0l0.0947205,0.000571179l0.0989887,0.00175744l0.0989883,0.00291776l0.098956,0.00407793l0.0986795,0.00522455l0.0983876,0.00633269l0.0985863,0.00747292l0.0985203,0.00863024l0.097945,0.00970485l0.0978739,0.0107917l0.0977748,0.0119113l0.0976775,0.0129984l0.0973128,0.0140836l0.0969423,0.0150968l0.0970653,0.0162227l0.0966782,0.0172666l0.0965167,0.018317l0.096372,0.0194055l0.0957165,0.0203586l0.0955448,0.0213772l0.0955871,0.0224853l0.0951424,0.0234795l0.0944826,0.0243847l0.0945157,0.025439l0.0944822,0.0265511l0.0937961,0.027443l0.0935798,0.0284454l0.0930798,0.0293953l0.0928197,0.0303569l0.0925254,0.0313789l0.0920492,0.0322729l0.0917485,0.0332714l0.0914576,0.0342396l0.0909189,0.0351588l0.090373,0.0360033l0.0903013,0.0370809l0.089933,0.0380483l0.0891449,0.0388341l0.0888141,0.039758l0.0886512,0.0408345l0.0878645,0.0415944l0.0874777,0.0425158l0.0870835,0.0434726l0.0864763,0.0442985l0.0860634,0.045228l0.0854412,0.0460562l0.0851738,0.0470498l0.0845665,0.0479281l0.0839439,0.0487122l0.0836345,0.0497511l0.0829722,0.0505552l0.0822714,0.0513432l0.0816342,0.0521364l0.081324,0.0531636l0.0807751,0.0540739l0.079866,0.0547186l0.0795355,0.0557281l0.0788329,0.0565702l0.0780776,0.0572749l0.0776325,0.0582881l0.0769229,0.0590742l0.0763439,0.0599886l0.0755482,0.0607347l0.0749236,0.0616l0.0741087,0.0623501l0.0735004,0.0632173l0.0728657,0.0641555l0.0720176,0.0648497l0.071335,0.0657355l0.070499,0.0664651l0.0697919,0.0673269l0.069065,0.0681918l0.0683266,0.0690599l0.0674776,0.0698372l0.0665528,0.0705206l0.0658663,0.0714618l0.0650186,0.0722875l0.0640546,0.0729468l0.0632432,0.0738075l0.0623936,0.0746368l0.0614453,0.0753765l0.0605986,0.0762206l0.0596511,0.0770128l0.0586914,0.0777367l0.0577995,0.0786257l0.0567444,0.0792761l0.0557984,0.0800955l0.054829,0.0809154l0.0538446,0.0817353l0.0527918,0.0824851l0.0516648,0.0831149l0.0506378,0.0839111l0.0495778,0.0847061l0.048448,0.0853894l0.0473812,0.0862041l0.0462427,0.0869498l0.0450618,0.0876039l0.0439152,0.0883664l0.0427777,0.0891787l0.0415101,0.0897825l0.0403191,0.0905052l0.0390459,0.0911651l0.0378182,0.0918504l0.0365702,0.092656l0.0352376,0.0931873l0.0339388,0.0938955l0.032617,0.0945419l0.0312522,0.0951497l0.0299088,0.0958064l0.028521,0.096446l0.0270976,0.0969365l0.0257104,0.0976325l0.0242898,0.0982873l0.0228025,0.0987519l0.021335,0.0992636l0.0198659,0.0999032l0.0183521,0.100385l0.0168247,0.100842l0.0152957,0.101347l0.0137541,0.101901l0.0121718,0.102285l0.0106005,0.102719l0.00900663,0.103236l0.00738976,0.103545l0.00577373,0.103927l0.00414118,0.104404l0.0024869,0.104661l0.000742103,0.093052l-0.00565481,0.142634l-0.0191874,0.14145l-0.0325462,0.138986l-0.0456103,0.135263l-0.0582613,0.130315l-0.0703847,0.124187l-0.0818707,0.116934l-0.0926153,0.108622l-0.102521,0.0993266l-0.111498,0.0891316l-0.119466,0.0781294l-0.126352,0.0664196l-0.132093,0.0541084l-0.136638,0.0413071l-0.139946,0.0281318l-0.141987,0.0147016l-0.142741,0.00113838Z" style="fill:#000;"/><path d="M234.999,445.499l-0.142204,-0.0124232l-0.140379,-0.0258844l-0.137283,-0.0391111l-0.132944,-0.0519836l-0.1274,-0.0643853l-0.120703,-0.0762039l-0.112913,-0.0873325l-0.1041,-0.0976701l-0.0943449,-0.107123l-0.083735,-0.115606l-0.0723668,-0.123042l-0.0603432,-0.129364l-0.0477731,-0.134514l-0.0347704,-0.138446l-0.0214528,-0.141124l-0.00794096,-0.142525l-0.00056066,-0.0695686l-0.00135178,-0.057296l-0.00223924,-0.0565744l-0.00315382,-0.0565957l-0.00402321,-0.0564404l-0.00488767,-0.0559686l-0.00578224,-0.0560299l-0.00660889,-0.0556184l-0.00744633,-0.0551679l-0.00830265,-0.0550123l-0.00916461,-0.0548724l-0.0100593,-0.0549973l-0.0108387,-0.0545795l-0.0115792,-0.0538958l-0.0124927,-0.0540194l-0.0133821,-0.0541501l-0.01414,-0.0537319l-0.0149133,-0.0533669l-0.0157598,-0.0532767l-0.0165712,-0.053098l-0.017334,-0.0527598l-0.0182614,-0.0529031l-0.0190488,-0.0527278l-0.0197186,-0.0521595l-0.0206192,-0.0522169l-0.0213416,-0.051869l-0.0222031,-0.0517941l-0.0230667,-0.0518007l-0.0237035,-0.0512685l-0.0244955,-0.0510554l-0.0254255,-0.0511513l-0.0261347,-0.0508274l-0.0268103,-0.0504018l-0.0277457,-0.0504705l-0.0284476,-0.0501565l-0.0292207,-0.0499078l-0.0300238,-0.0497688l-0.030738,-0.049441l-0.0314788,-0.0491844l-0.0322174,-0.0488978l-0.033017,-0.0487258l-0.0338231,-0.0485511l-0.0344925,-0.048203l-0.0352192,-0.0479022l-0.0358734,-0.0475348l-0.0366009,-0.0472269l-0.0376151,-0.0473121l-0.0380025,-0.0466442l-0.0387111,-0.0462822l-0.0397177,-0.0463584l-0.040216,-0.045811l-0.0407541,-0.0453103l-0.0415227,-0.0450444l-0.0423809,-0.0449076l-0.042872,-0.0443766l-0.0433602,-0.0438256l-0.0442314,-0.0436564l-0.0449324,-0.0433506l-0.0455301,-0.0429198l-0.0462245,-0.0425961l-0.0466525,-0.0420237l-0.047238,-0.0415771l-0.0480249,-0.0413152l-0.048582,-0.0408736l-0.0489693,-0.0402656l-0.049777,-0.0400036l-0.050235,-0.0394859l-0.0506476,-0.0388998l-0.0511261,-0.0383825l-0.0520478,-0.0381684l-0.052473,-0.0376584l-0.0527939,-0.0369949l-0.0534384,-0.036616l-0.0538191,-0.0360176l-0.0543556,-0.0355444l-0.0548897,-0.0350593l-0.0552776,-0.0344938l-0.055767,-0.033969l-0.0560891,-0.0333687l-0.0566957,-0.0329002l-0.0569095,-0.0322597l-0.0573516,-0.0316718l-0.0580013,-0.0312739l-0.0581004,-0.0305329l-0.0586825,-0.030058l-0.0588347,-0.0293734l-0.0593077,-0.0288167l-0.0598289,-0.0283225l-0.0597381,-0.027519l-0.0602689,-0.0269821l-0.0606885,-0.0264353l-0.060744,-0.0256968l-0.0610135,-0.0250611l-0.0614429,-0.0244801l-0.0616995,-0.023851l-0.0618948,-0.023172l-0.0621389,-0.0225339l-0.0624636,-0.021902l-0.0624638,-0.0211876l-0.0627128,-0.0205086l-0.0630836,-0.0199188l-0.0631226,-0.0191873l-0.0633839,-0.0185465l-0.0630917,-0.0177329l-0.0635194,-0.0170963l-0.0639926,-0.0165156l-0.0638121,-0.015745l-0.063697,-0.0149862l-0.0641049,-0.0143404l-0.064383,-0.0136929l-0.0639495,-0.0128813l-0.0640962,-0.0121622l-0.0642863,-0.0114805l-0.0641795,-0.0107255l-0.0645332,-0.0100506l-0.0643604,-0.00931532l-0.0641913,-0.00854298l-0.0643005,-0.00783203l-0.0644081,-0.00710113l-0.0644454,-0.00638609l-0.0639866,-0.00560514l-0.0640358,-0.00485397l-0.0643197,-0.00413992l-0.0640833,-0.00339315l-0.0638506,-0.00263103l-0.0638399,-0.00188205l-0.0638412,-0.00113334l-0.0680937,-0.000410615l-21.5069,0l-0.0679309,0.000410183l-0.0633747,0.0011296l-0.0630699,0.00187157l-0.0627561,0.00261042l-0.0627054,0.00336017l-0.0626521,0.00409156l-0.0620823,0.00478697l-0.061768,0.00551726l-0.061951,0.00627486l-0.0616272,0.00696304l-0.0612776,0.00766764l-0.0609494,0.00835212l-0.0608723,0.00909111l-0.0607727,0.00979075l-0.0601816,0.0104278l-0.0600491,0.0111449l-0.059712,0.011803l-0.0593554,0.0124759l-0.0594861,0.0132356l-0.0591176,0.0138664l-0.0584942,0.0144552l-0.058366,0.0151636l-0.0584694,0.0159201l-0.0578381,0.0164559l-0.0572029,0.0170267l-0.0572541,0.0177805l-0.0568751,0.0183896l-0.056762,0.0191002l-0.0562658,0.0196467l-0.0558833,0.0202753l-0.0557493,0.0209495l-0.0552846,0.0215247l-0.0548055,0.0220733l-0.0546374,0.0227726l-0.0544303,0.0234131l-0.0537544,0.0238792l-0.0533692,0.0244644l-0.0532575,0.0251824l-0.0528349,0.0257239l-0.0522275,0.0262026l-0.0521336,0.0269287l-0.051606,0.0274114l-0.0511721,0.0279729l-0.050969,0.02863l-0.0504241,0.0291069l-0.0501367,0.0297316l-0.0494417,0.0300968l-0.0491444,0.0307427l-0.0488306,0.0313253l-0.048137,0.0317028l-0.0478136,0.0323068l-0.0475495,0.0329551l-0.0471528,0.0334937l-0.04644,0.0338181l-0.0459229,0.0342916l-0.0457284,0.0350038l-0.0450284,0.0353001l-0.0446486,0.0359019l-0.0443408,0.0364951l-0.0435681,0.0367522l-0.043173,0.0373108l-0.0426208,0.0377333l-0.0422792,0.0383525l-0.0416613,0.0386906l-0.0412252,0.0392453l-0.0406654,0.0396206l-0.040079,0.0400377l-0.0397183,0.0406193l-0.039066,0.040944l-0.0386109,0.0414522l-0.0380867,0.0418985l-0.037441,0.0421957l-0.0368361,0.042568l-0.0363686,0.0430746l-0.0358649,0.0435569l-0.0352327,0.043856l-0.0347324,0.0443638l-0.0341707,0.0447392l-0.0335429,0.0450861l-0.0329404,0.0454146l-0.0324013,0.0458924l-0.0319204,0.0463868l-0.0311785,0.0465534l-0.0305645,0.0468922l-0.0300564,0.0474155l-0.0295129,0.047851l-0.0288131,0.0480626l-0.0281787,0.0483761l-0.0275976,0.0487975l-0.027034,0.0492343l-0.026332,0.0494323l-0.0257859,0.049941l-0.0251526,0.0502441l-0.0244896,0.0505448l-0.0238398,0.0508271l-0.0231739,0.0511347l-0.0226648,0.0517529l-0.0219136,0.0518179l-0.0212348,0.0521144l-0.0206614,0.052624l-0.01994,0.0527884l-0.0193415,0.0532984l-0.0186678,0.0535657l-0.0179467,0.053759l-0.0172842,0.0541133l-0.0166344,0.054534l-0.0159688,0.0548896l-0.0152379,0.0550511l-0.0145352,0.0553433l-0.0138807,0.0558278l-0.013178,0.0561082l-0.012467,0.0564169l-0.0117419,0.0566372l-0.0110126,0.0569324l-0.0103179,0.0573647l-0.00959589,0.0577181l-0.00887145,0.0580473l-0.00811222,0.0582123l-0.00737875,0.0586417l-0.00663796,0.0589541l-0.00586585,0.0591695l-0.0051042,0.0594706l-0.00434073,0.0599288l-0.00357693,0.0602733l-0.00278799,0.0605539l-0.00200888,0.0609051l-0.00120473,0.0611013l-0.000467142,0.0713409l-0.00772559,0.142537l-0.0212396,0.141157l-0.0345612,0.138499l-0.0475698,0.134586l-0.0601477,0.129455l-0.0721808,0.123151l-0.0835603,0.115733l-0.094183,0.107266l-0.103953,0.0978273l-0.112781,0.087503l-0.120588,0.0763862l-0.127303,0.0645777l-0.132865,0.0521844l-0.137224,0.0393184l-0.14034,0.0260964l-0.142185,0.0126381l-0.142743,-0.000934682l-0.142007,-0.014499l-0.139986,-0.027932l-0.136697,-0.0411121l-0.13217,-0.0539198l-0.126446,-0.0662393l-0.119577,-0.0779588l-0.111626,-0.0889724l-0.102663,-0.0991802l-0.0927702,-0.10849l-0.0820375,-0.116817l-0.0705619,-0.124086l-0.0584472,-0.130232l-0.0458033,-0.135198l-0.0327445,-0.138939l-0.0193892,-0.141423l-0.00585835,-0.142625l0.000596462,-0.0910904l0.00198608,-0.10073l0.00330914,-0.100326l0.00460269,-0.0999684l0.00591368,-0.099649l0.00719527,-0.0993389l0.00850446,-0.0990881l0.0097882,-0.0987347l0.0110615,-0.098241l0.0123115,-0.0978444l0.0135962,-0.0975646l0.0148278,-0.0970206l0.0160669,-0.0966407l0.0173085,-0.0962305l0.0185501,-0.0958992l0.0197844,-0.0954307l0.0209683,-0.0948874l0.0221664,-0.094378l0.0233454,-0.0938948l0.0245727,-0.0935612l0.0257517,-0.0930352l0.0268753,-0.0923785l0.0280369,-0.091916l0.0292143,-0.091464l0.0303791,-0.0910001l0.0314579,-0.0902662l0.0325569,-0.0897153l0.033731,-0.0892981l0.0347823,-0.0885898l0.035927,-0.0881721l0.0370209,-0.0875414l0.0379605,-0.0866791l0.0391423,-0.08637l0.0401945,-0.0856959l0.0412083,-0.085051l0.0422362,-0.0843699l0.043212,-0.0836912l0.0443294,-0.0832181l0.0452638,-0.0824343l0.046282,-0.0818348l0.0473099,-0.0812198l0.0482572,-0.080497l0.0491392,-0.0796723l0.0501229,-0.0790715l0.0511693,-0.0785039l0.0521098,-0.0778064l0.0528678,-0.0768276l0.0538597,-0.0762856l0.0548478,-0.075618l0.0556907,-0.0748556l0.0565629,-0.074057l0.0574192,-0.0733416l0.0583644,-0.0726494l0.059123,-0.0718031l0.0600647,-0.07114l0.0609608,-0.0704466l0.0617741,-0.069619l0.0624647,-0.0687162l0.0633041,-0.0679625l0.0641853,-0.0672708l0.0648694,-0.066341l0.0657905,-0.0657227l0.0665403,-0.0648307l0.067235,-0.064006l0.068108,-0.0632516l0.0687173,-0.0623352l0.0696302,-0.0616454l0.0703053,-0.0607589l0.0711374,-0.0600084l0.0715647,-0.0589019l0.0724295,-0.0582406l0.0732497,-0.0574242l0.0736951,-0.0564115l0.0746733,-0.0557601l0.0752743,-0.0548155l0.075707,-0.0537763l0.0764011,-0.0529513l0.0772279,-0.0521815l0.0779954,-0.0513673l0.0783654,-0.0502721l0.0791152,-0.0494912l0.0798542,-0.0486099l0.0801956,-0.0475569l0.0809172,-0.0467089l0.0813814,-0.0457131l0.0821329,-0.0448975l0.0827079,-0.0439318l0.0831349,-0.0429419l0.0839955,-0.0421407l0.0842881,-0.0410376l0.08482,-0.0401065l0.0856082,-0.0392427l0.0860958,-0.0382461l0.0863199,-0.0371304l0.0869582,-0.0362437l0.0876627,-0.0353067l0.0880291,-0.0342736l0.0883825,-0.0332124l0.0890394,-0.0323049l0.0894751,-0.0312426l0.0897698,-0.0302073l0.090393,-0.0292271l0.0908049,-0.0281999l0.0915925,-0.0272629l0.0916936,-0.0260883l0.0917714,-0.0249877l0.0925838,-0.0240534l0.0931374,-0.0230163l0.0931959,-0.0218597l0.0934819,-0.0207997l0.094267,-0.019814l0.0945377,-0.0186869l0.0948278,-0.0175997l0.0953227,-0.0165168l0.0953042,-0.0153539l0.0958046,-0.0143082l0.096273,-0.0131927l0.0965175,-0.0120772l0.0967133,-0.0109273l0.0969077,-0.00981554l0.0976089,-0.00871866l0.0977854,-0.00753992l0.0977065,-0.00638084l0.0981169,-0.00525775l0.0985298,-0.00409847l0.0986796,-0.00292828l0.0988111,-0.00176122l0.094664,-0.000571604l21.525,0l0.0947194,0.000571172l0.0989992,0.00175748l0.0989732,0.0029178l0.0989624,0.00407785l0.0986752,0.00522476l0.0983843,0.00633248l0.0985863,0.00747292l0.0985265,0.00863078l0.0979313,0.00970431l0.0978595,0.0107892l0.0978035,0.0119128l0.0976946,0.0130018l0.0973073,0.014084l0.0969163,0.0150941l0.0970518,0.0162191l0.0966723,0.0172641l0.0965897,0.0183278l0.0963546,0.0194086l0.0956484,0.0203424l0.0955992,0.0213858l0.0955708,0.0224853l0.0951284,0.023472l0.0945116,0.0243922l0.0945484,0.0254478l0.0944852,0.0265566l0.0937567,0.0274338l0.0935271,0.0284294l0.0930751,0.0293887l0.0929005,0.0303807l0.0925495,0.0313926l0.0920043,0.03226l0.091729,0.0332644l0.0913732,0.034208l0.0909684,0.0351654l0.090516,0.0360634l0.0902363,0.0370642l0.0898513,0.0380103l0.0891977,0.0388536l0.0888538,0.0397794l0.0886209,0.0408243l0.0877665,0.041548l0.087524,0.0425265l0.0871243,0.043497l0.0864584,0.0442852l0.0861678,0.0452829l0.0853397,0.0460146l0.0851712,0.0470349l0.0846315,0.0479742l0.0839181,0.0486972l0.0835429,0.0497015l0.0829378,0.0505193l0.0823908,0.0514126l0.0817424,0.0522107l0.0811857,0.0530892l0.0807404,0.0540342l0.0799756,0.0547993l0.0795292,0.0557295l0.0787047,0.0564841l0.078039,0.0572286l0.0777608,0.0583782l0.0770393,0.0591699l0.0761974,0.0598928l0.07551,0.0606841l0.0750086,0.0616767l0.0741415,0.0623777l0.0733895,0.0631361l0.0729219,0.0641832l0.0720893,0.0649366l0.0712082,0.0656187l0.070539,0.0664949l0.0697185,0.0672641l0.069056,0.0681583l0.0684544,0.0691891l0.06747,0.069838l0.0664884,0.0704524l0.065874,0.071461l0.0651153,0.0723951l0.0640716,0.0729853l0.0630427,0.0735833l0.0625221,0.0747503l0.0615398,0.0755338l0.0603454,0.0759022l0.0597779,0.0771328l0.05876,0.0778612l0.0577779,0.0785848l0.0567591,0.0793203l0.0557378,0.0800085l0.0547984,0.0808702l0.0538526,0.0817345l0.0527913,0.0824842l0.0517321,0.0832094l0.0505919,0.0838634l0.049595,0.0847062l0.0484591,0.0854393l0.0473065,0.0860525l0.0463328,0.087103l0.0450449,0.0876046l0.0438451,0.088208l0.0428115,0.0892311l0.0415854,0.0899453l0.040204,0.0902858l0.0391041,0.0912196l0.0378383,0.0919628l0.0365427,0.0925422l0.0353161,0.0934178l0.0338587,0.0937222l0.0325734,0.094365l0.0313191,0.0953265l0.0299,0.0958065l0.0285297,0.0964459l0.0271399,0.0971193l0.025677,0.0975725l0.0241985,0.0979179l0.0228516,0.0988122l0.0214198,0.0996994l0.0198148,0.0997794l0.0183035,0.100071l0.0168528,0.100905l0.0153148,0.101474l0.0137712,0.102027l0.0121542,0.102286l0.0105809,0.102529l0.00902099,0.103299l0.00737644,0.103482l0.00579135,0.103927l0.00414237,0.104657l0.00246629,0.104535l0.00074839,0.0928627l-0.00564283,0.142634l-0.0191755,0.141452l-0.0325346,0.138989l-0.0455989,0.135267l-0.0582504,0.13032l-0.0703743,0.124193l-0.0818609,0.116941l-0.0926062,0.10863l-0.102513,0.0993352l-0.111491,0.0891409l-0.11946,0.0781394l-0.126346,0.0664302l-0.132089,0.0541195l-0.136635,0.0413186l-0.139944,0.0281435l-0.141985,0.0147136l-0.142741,0.00115036Z" style="fill:#000;"/><path d="M139.097,443.391l15.9904,0l0.140958,-0.000902457l0.135581,-0.00255601l0.134998,-0.00429232l0.134872,-0.0059893l0.134278,-0.00763933l0.133501,-0.00930264l0.133202,-0.0109973l0.132736,-0.0126254l0.132109,-0.0142647l0.131622,-0.0158922l0.131142,-0.0175192l0.13062,-0.0191186l0.129984,-0.0206977l0.129469,-0.0222971l0.128939,-0.0238688l0.128412,-0.0254442l0.127734,-0.0269607l0.127165,-0.0285295l0.126601,-0.0300503l0.125922,-0.031568l0.125326,-0.0330807l0.124741,-0.0346045l0.124173,-0.0361022l0.123407,-0.0375496l0.122938,-0.0390879l0.122168,-0.0404845l0.121417,-0.0419364l0.120905,-0.0434254l0.119986,-0.0447674l0.119459,-0.0462881l0.118941,-0.047739l0.117863,-0.0489906l0.117275,-0.0504765l0.116711,-0.051906l0.115785,-0.0531959l0.115026,-0.0545665l0.114268,-0.0559227l0.113443,-0.0572466l0.112817,-0.0586719l0.112061,-0.0599924l0.111032,-0.0611839l0.110342,-0.062584l0.109571,-0.063878l0.108651,-0.0651291l0.10775,-0.0663528l0.106984,-0.0677062l0.106155,-0.0689469l0.105097,-0.070093l0.104333,-0.0714154l0.103476,-0.0726589l0.102577,-0.0738747l0.101581,-0.0750118l0.100604,-0.0761783l0.0996243,-0.0773346l0.0988506,-0.078665l0.0978044,-0.0797132l0.096719,-0.0808164l0.095883,-0.0820611l0.094825,-0.0831419l0.0938769,-0.0843067l0.0928149,-0.0853667l0.0916898,-0.0863787l0.0907238,-0.0875538l0.0897291,-0.0886626l0.0886626,-0.0897291l0.0875935,-0.0907649l0.086339,-0.0916336l0.0854044,-0.09287l0.0843058,-0.0938477l0.0830337,-0.0947156l0.082091,-0.0959319l0.0808767,-0.0967941l0.0796935,-0.097763l0.0785782,-0.0987591l0.0774064,-0.0997308l0.0762187,-0.100643l0.0749976,-0.101557l0.0738924,-0.102602l0.0726185,-0.103404l0.0713737,-0.104293l0.0701446,-0.105175l0.0689242,-0.106113l0.0677252,-0.107036l0.0663431,-0.107706l0.0651444,-0.108705l0.0638983,-0.109568l0.0625493,-0.110305l0.0612143,-0.111062l0.0599424,-0.111982l0.0586575,-0.112802l0.0572796,-0.113523l0.0559227,-0.114254l0.0545665,-0.11504l0.0532413,-0.11587l0.0518757,-0.116612l0.0504624,-0.117274l0.0490222,-0.117905l0.047683,-0.118815l0.0462849,-0.119487l0.0448038,-0.120083l0.0434248,-0.120889l0.0419443,-0.12144l0.0405071,-0.122207l0.0390644,-0.12285l0.0375495,-0.123421l0.0360804,-0.124084l0.0345848,-0.124735l0.0331112,-0.125442l0.0315821,-0.125964l0.0300422,-0.126521l0.0285232,-0.127199l0.0269874,-0.12778l0.0254289,-0.128349l0.0238569,-0.128861l0.0222939,-0.129532l0.0207223,-0.13005l0.0190975,-0.130491l0.0175065,-0.131137l0.0159004,-0.13169l0.0142731,-0.132187l0.0126321,-0.132658l0.0109763,-0.133118l0.00931366,-0.133673l0.00765389,-0.134287l0.00598229,-0.1347l0.00428064,-0.135072l0.00257007,-0.135581l0.000887412,-0.14088l0,-16.9906l-0.000887412,-0.14088l-0.00257007,-0.135581l-0.00428064,-0.135072l-0.00598229,-0.1347l-0.00765389,-0.134287l-0.00931366,-0.133673l-0.0109763,-0.133118l-0.0126321,-0.132658l-0.0142731,-0.132187l-0.0159004,-0.13169l-0.0175065,-0.131137l-0.0190975,-0.130491l-0.0207223,-0.13005l-0.0222939,-0.129532l-0.0238569,-0.128861l-0.0254289,-0.128349l-0.0269874,-0.12778l-0.0285232,-0.127199l-0.0300422,-0.126521l-0.0315821,-0.125964l-0.0331112,-0.125442l-0.0345848,-0.124735l-0.0360804,-0.124084l-0.0375495,-0.123421l-0.0390644,-0.12285l-0.0405071,-0.122207l-0.0419443,-0.12144l-0.0434248,-0.120889l-0.0448038,-0.120083l-0.0462849,-0.119487l-0.047683,-0.118815l-0.0490222,-0.117905l-0.0504624,-0.117274l-0.0518757,-0.116612l-0.0532413,-0.11587l-0.0545665,-0.11504l-0.0559227,-0.114254l-0.0572796,-0.113523l-0.0586575,-0.112802l-0.0599424,-0.111982l-0.0612143,-0.111062l-0.0625493,-0.110305l-0.0638983,-0.109568l-0.0651444,-0.108705l-0.0663431,-0.107706l-0.0677252,-0.107036l-0.0689242,-0.106113l-0.0701446,-0.105175l-0.0713737,-0.104293l-0.0726185,-0.103404l-0.0738924,-0.102602l-0.0749976,-0.101557l-0.0762187,-0.100643l-0.0774064,-0.0997308l-0.0785782,-0.0987591l-0.0796935,-0.097763l-0.0808767,-0.0967941l-0.082091,-0.0959319l-0.0830337,-0.0947156l-0.0843058,-0.0938477l-0.0854044,-0.09287l-0.086339,-0.0916336l-0.0875935,-0.0907649l-0.0886626,-0.0897291l-0.0897291,-0.0886626l-0.0907238,-0.0875538l-0.0916898,-0.0863787l-0.0928149,-0.0853667l-0.0938769,-0.0843067l-0.094825,-0.0831419l-0.095883,-0.0820611l-0.096719,-0.0808164l-0.0978044,-0.0797132l-0.0988506,-0.078665l-0.0996243,-0.0773346l-0.100604,-0.0761783l-0.101581,-0.0750118l-0.102577,-0.0738747l-0.103476,-0.0726589l-0.104333,-0.0714154l-0.105097,-0.070093l-0.106155,-0.0689469l-0.106984,-0.0677062l-0.10775,-0.0663528l-0.108651,-0.0651291l-0.109571,-0.063878l-0.110342,-0.062584l-0.111032,-0.0611839l-0.112061,-0.0599924l-0.112817,-0.0586719l-0.113443,-0.0572466l-0.114268,-0.0559227l-0.115026,-0.0545665l-0.115785,-0.0531959l-0.116711,-0.051906l-0.117275,-0.0504765l-0.117863,-0.0489906l-0.118941,-0.047739l-0.119459,-0.0462881l-0.119986,-0.0447674l-0.120905,-0.0434254l-0.121417,-0.0419364l-0.122168,-0.0404845l-0.122938,-0.0390879l-0.123407,-0.0375496l-0.124173,-0.0361022l-0.124741,-0.0346045l-0.125326,-0.0330807l-0.125922,-0.031568l-0.126601,-0.0300503l-0.127165,-0.0285295l-0.127734,-0.0269607l-0.128412,-0.0254442l-0.128939,-0.0238688l-0.129469,-0.0222971l-0.129984,-0.0206977l-0.13062,-0.0191186l-0.131142,-0.0175192l-0.131622,-0.0158922l-0.132109,-0.0142647l-0.132736,-0.0126254l-0.133202,-0.0109973l-0.133501,-0.00930264l-0.134278,-0.00763933l-0.134872,-0.0059893l-0.134998,-0.00429232l-0.135581,-0.00255601l-0.140958,-0.000902457l-15.9904,0l-0.140958,0.000902457l-0.135581,0.00255601l-0.134998,0.00429232l-0.134872,0.0059893l-0.134278,0.00763933l-0.133501,0.00930264l-0.133202,0.0109973l-0.132736,0.0126254l-0.132109,0.0142647l-0.131622,0.0158922l-0.131142,0.0175192l-0.13062,0.0191186l-0.129984,0.0206977l-0.129469,0.0222971l-0.128939,0.0238688l-0.128412,0.0254442l-0.127734,0.0269607l-0.127165,0.0285295l-0.126601,0.0300503l-0.125922,0.031568l-0.125326,0.0330807l-0.124741,0.0346045l-0.124173,0.0361022l-0.123407,0.0375496l-0.122938,0.0390879l-0.122168,0.0404845l-0.121417,0.0419364l-0.120905,0.0434254l-0.119986,0.0447674l-0.119487,0.0462992l-0.118927,0.0477279l-0.117819,0.0489782l-0.117319,0.0504956l-0.116704,0.0518994l-0.115746,0.0531812l-0.115051,0.0545813l-0.114308,0.055939l-0.113418,0.0572303l-0.11281,0.0586719l-0.112051,0.0599829l-0.111017,0.0611835l-0.110384,0.0626041l-0.109572,0.0638784l-0.10864,0.0651184l-0.107705,0.0663296l-0.107014,0.0677295l-0.106182,0.0689595l-0.105059,0.0700674l-0.104345,0.0714284l-0.103483,0.0726589l-0.10257,0.0738748l-0.101609,0.0750267l-0.100564,0.0761479l-0.0996372,0.07735l-0.0988577,0.078665l-0.0977974,0.0797132l-0.0967468,0.0808338l-0.0958835,0.0820616l-0.0948116,0.0831241l-0.0938278,0.084269l-0.0928279,0.0853851l-0.0917525,0.0864378l-0.0907177,0.0875344l-0.0896804,0.0886214l-0.0886621,0.0897286l-0.0876071,0.0907863l-0.086367,0.0916559l-0.0853629,0.0928248l-0.0842983,0.0938472l-0.0830541,0.0947389l-0.082091,0.0959319l-0.0808975,0.0968188l-0.0797009,0.0977635l-0.0785581,0.0987339l-0.0774064,0.0997308l-0.0762187,0.100643l-0.0749976,0.101557l-0.0738924,0.102602l-0.0726382,0.103432l-0.0713615,0.104265l-0.0701376,0.105175l-0.0689313,0.106113l-0.0677181,0.107036l-0.0663688,0.107736l-0.0651262,0.108674l-0.0638983,0.109568l-0.0625135,0.110242l-0.061235,0.111125l-0.0599737,0.112014l-0.0586166,0.112737l-0.0572962,0.113556l-0.0559227,0.114254l-0.0545825,0.115074l-0.0532485,0.11587l-0.0518298,0.116508l-0.0504481,0.117274l-0.0490804,0.118045l-0.0476688,0.118745l-0.046257,0.119451l-0.0448511,0.120191l-0.0434059,0.120817l-0.0419373,0.12144l-0.0405019,0.122171l-0.0390385,0.122812l-0.0375721,0.123495l-0.0360913,0.124122l-0.0345919,0.124735l-0.0331012,0.125404l-0.0315725,0.125926l-0.0300442,0.126559l-0.0285388,0.127238l-0.0269793,0.127742l-0.0254289,0.128349l-0.0238641,0.1289l-0.0222876,0.129454l-0.0207083,0.13005l-0.019116,0.130569l-0.0175012,0.131098l-0.0159004,0.13169l-0.0142689,0.132148l-0.012625,0.132658l-0.0109828,0.133196l-0.0093234,0.133713l-0.00765646,0.134209l-0.00597354,0.134661l-0.00428188,0.135111l-0.0025708,0.13562l-0.000894686,0.14088l0,16.9905l0.000894686,0.14088l0.0025708,0.13562l0.00428188,0.135111l0.00597354,0.134661l0.00765646,0.134209l0.0093234,0.133713l0.0109828,0.133196l0.012625,0.132658l0.0142689,0.132148l0.0159004,0.13169l0.0175012,0.131098l0.019116,0.130569l0.0207083,0.13005l0.0222876,0.129454l0.0238641,0.1289l0.0254289,0.128349l0.0269793,0.127742l0.0285388,0.127238l0.0300442,0.126559l0.0315725,0.125926l0.0331012,0.125404l0.0345919,0.124735l0.0360913,0.124122l0.0375721,0.123495l0.0390385,0.122812l0.0405019,0.122171l0.0419373,0.12144l0.0434059,0.120817l0.0448511,0.120191l0.046257,0.119451l0.0476688,0.118745l0.0490804,0.118045l0.0504481,0.117274l0.0518298,0.116508l0.0532485,0.11587l0.0545825,0.115074l0.0559227,0.114254l0.0572962,0.113556l0.0586166,0.112737l0.0599737,0.112014l0.061235,0.111125l0.0625135,0.110242l0.0638983,0.109568l0.0651262,0.108674l0.0663688,0.107736l0.0677181,0.107036l0.0689313,0.106113l0.0701376,0.105175l0.0713615,0.104265l0.0726382,0.103432l0.0738924,0.102602l0.0749976,0.101557l0.0762187,0.100643l0.0774064,0.0997308l0.0785581,0.0987339l0.0797009,0.0977635l0.0808975,0.0968188l0.082091,0.0959319l0.0830541,0.0947389l0.0842983,0.0938472l0.0853629,0.0928248l0.086367,0.0916559l0.0876071,0.0907863l0.0886621,0.0897286l0.0896804,0.0886214l0.0907177,0.0875344l0.0917525,0.0864378l0.0928279,0.0853851l0.0938278,0.084269l0.0948116,0.0831241l0.0958835,0.0820616l0.0967468,0.0808338l0.0977974,0.0797132l0.0988577,0.078665l0.0996372,0.07735l0.100564,0.0761479l0.101609,0.0750267l0.10257,0.0738748l0.103483,0.0726589l0.104345,0.0714284l0.105059,0.0700674l0.106182,0.0689595l0.107014,0.0677295l0.107705,0.0663296l0.10864,0.0651184l0.109572,0.0638784l0.110384,0.0626041l0.111017,0.0611835l0.112051,0.0599829l0.11281,0.0586719l0.113418,0.0572303l0.114308,0.055939l0.115051,0.0545813l0.115746,0.0531812l0.116704,0.0518994l0.117319,0.0504956l0.117819,0.0489782l0.118927,0.0477279l0.119487,0.0462992l0.119986,0.0447674l0.120905,0.0434254l0.121417,0.0419364l0.122168,0.0404845l0.122938,0.0390879l0.123407,0.0375496l0.124173,0.0361022l0.124741,0.0346045l0.125326,0.0330807l0.125922,0.031568l0.126601,0.0300503l0.127165,0.0285295l0.127734,0.0269607l0.128412,0.0254442l0.128939,0.0238688l0.129469,0.0222971l0.129984,0.0206977l0.13062,0.0191186l0.131142,0.0175192l0.131622,0.0158922l0.132109,0.0142647l0.132736,0.0126254l0.133202,0.0109973l0.133501,0.00930264l0.134278,0.00763933l0.134872,0.0059893l0.134998,0.00429232l0.135581,0.00255601l0.140958,0.000902457ZM139.087,446.391l-0.169233,-0.00108348l-0.173649,-0.00327367l-0.173271,-0.00550924l-0.172404,-0.00765601l-0.172005,-0.00978567l-0.171725,-0.0119661l-0.170967,-0.0141152l-0.170344,-0.0162027l-0.169881,-0.0183431l-0.169215,-0.0204313l-0.168574,-0.0225198l-0.167879,-0.0245721l-0.16733,-0.0266445l-0.166628,-0.0286967l-0.165908,-0.0307124l-0.165154,-0.0327245l-0.164551,-0.0347315l-0.163807,-0.0367502l-0.162994,-0.0386888l-0.162327,-0.0406945l-0.161546,-0.0426412l-0.160689,-0.0445767l-0.159848,-0.0464744l-0.159141,-0.0484223l-0.158137,-0.0502793l-0.157369,-0.0521498l-0.156614,-0.0540932l-0.155557,-0.0558715l-0.154907,-0.0577967l-0.153803,-0.0595961l-0.152762,-0.0613064l-0.152173,-0.0632593l-0.151039,-0.0650091l-0.149941,-0.0666803l-0.149168,-0.0685376l-0.148134,-0.0702765l-0.147115,-0.0719938l-0.146211,-0.0737776l-0.144994,-0.0754109l-0.143927,-0.0770468l-0.143086,-0.0788572l-0.141846,-0.0804475l-0.140752,-0.082056l-0.139746,-0.0837629l-0.138727,-0.0854345l-0.137432,-0.0869814l-0.136279,-0.0885061l-0.135367,-0.0902811l-0.134015,-0.0917388l-0.132828,-0.093263l-0.131626,-0.0948018l-0.130474,-0.0963405l-0.129388,-0.097974l-0.128121,-0.0994625l-0.126722,-0.100838l-0.125573,-0.102352l-0.124381,-0.103922l-0.122986,-0.105257l-0.121768,-0.106757l-0.120445,-0.108175l-0.119107,-0.109557l-0.117828,-0.111003l-0.116492,-0.112405l-0.115111,-0.113752l-0.113711,-0.115079l-0.112316,-0.116392l-0.11109,-0.117893l-0.109579,-0.119158l-0.108129,-0.120378l-0.106827,-0.121856l-0.105228,-0.12297l-0.103827,-0.124261l-0.102413,-0.125622l-0.100913,-0.12683l-0.0994061,-0.128075l-0.0979032,-0.129277l-0.0964016,-0.130541l-0.0947841,-0.131611l-0.0932837,-0.13283l-0.0917897,-0.134112l-0.0901948,-0.135252l-0.0885824,-0.136364l-0.0869448,-0.137426l-0.0854113,-0.138648l-0.083755,-0.13976l-0.0820681,-0.140724l-0.080506,-0.141972l-0.0788056,-0.143011l-0.077088,-0.143979l-0.0754182,-0.145051l-0.0737117,-0.14609l-0.0720101,-0.147121l-0.0702753,-0.148159l-0.0684863,-0.149028l-0.066782,-0.15012l-0.0649925,-0.151084l-0.0631891,-0.151978l-0.0613976,-0.152944l-0.0595742,-0.15384l-0.057729,-0.154701l-0.055907,-0.155613l-0.0540764,-0.156591l-0.0521805,-0.157398l-0.0502966,-0.15823l-0.0483997,-0.159084l-0.0464853,-0.159867l-0.0445733,-0.160727l-0.0426206,-0.161468l-0.04069,-0.162291l-0.0387109,-0.163067l-0.0367249,-0.163734l-0.034745,-0.164511l-0.0327398,-0.16525l-0.0307171,-0.165916l-0.0286902,-0.166643l-0.0266339,-0.167264l-0.0245907,-0.167963l-0.0225058,-0.168586l-0.0204231,-0.169148l-0.0183389,-0.169842l-0.0162191,-0.170422l-0.0140977,-0.170973l-0.0119614,-0.171545l-0.00981658,-0.172074l-0.00765576,-0.172583l-0.00548765,-0.173158l-0.00329092,-0.173609l-0.00107524,-0.16931l0,-17.0095l0.00107524,-0.16931l0.00329092,-0.173609l0.00548765,-0.173158l0.00765576,-0.172583l0.00981658,-0.172074l0.0119614,-0.171545l0.0140977,-0.170973l0.0162191,-0.170422l0.0183389,-0.169842l0.0204231,-0.169148l0.0225058,-0.168586l0.0245907,-0.167963l0.0266339,-0.167264l0.0286902,-0.166643l0.0307171,-0.165916l0.0327398,-0.16525l0.034745,-0.164511l0.0367249,-0.163734l0.0387109,-0.163067l0.04069,-0.162291l0.0426206,-0.161468l0.0445733,-0.160727l0.0464853,-0.159867l0.0483997,-0.159084l0.0502966,-0.15823l0.0521805,-0.157398l0.0540764,-0.156591l0.055907,-0.155613l0.057729,-0.154701l0.0595742,-0.15384l0.0613976,-0.152944l0.0631891,-0.151978l0.0649925,-0.151084l0.066782,-0.15012l0.0684863,-0.149028l0.0702753,-0.148159l0.0720101,-0.147121l0.0737117,-0.14609l0.0754182,-0.145051l0.077088,-0.143979l0.0788056,-0.143011l0.080506,-0.141972l0.0820681,-0.140724l0.083755,-0.13976l0.0854113,-0.138648l0.0869448,-0.137426l0.0885824,-0.136364l0.0901948,-0.135252l0.0917897,-0.134112l0.0932837,-0.13283l0.0947841,-0.131611l0.0964016,-0.130541l0.0979032,-0.129277l0.0994061,-0.128075l0.100913,-0.12683l0.102413,-0.125622l0.103827,-0.124261l0.105228,-0.12297l0.106827,-0.121856l0.108129,-0.120378l0.109579,-0.119158l0.11109,-0.117893l0.112316,-0.116392l0.113711,-0.115079l0.115111,-0.113752l0.116492,-0.112405l0.117828,-0.111003l0.119107,-0.109557l0.120445,-0.108175l0.121768,-0.106757l0.122986,-0.105257l0.124381,-0.103922l0.125573,-0.102352l0.126722,-0.100838l0.128121,-0.0994625l0.129388,-0.097974l0.130474,-0.0963405l0.131626,-0.0948018l0.132828,-0.093263l0.134015,-0.0917388l0.135367,-0.0902811l0.136279,-0.0885061l0.137432,-0.0869814l0.138727,-0.0854345l0.139746,-0.0837629l0.140752,-0.082056l0.141846,-0.0804475l0.143086,-0.0788572l0.143927,-0.0770468l0.144994,-0.0754109l0.146211,-0.0737776l0.147115,-0.0719938l0.148134,-0.0702765l0.149168,-0.0685376l0.149941,-0.0666803l0.151039,-0.0650091l0.152173,-0.0632593l0.152762,-0.0613064l0.153803,-0.0595961l0.154907,-0.0577967l0.155557,-0.0558715l0.156614,-0.0540932l0.157369,-0.0521498l0.158137,-0.0502793l0.159141,-0.0484223l0.159848,-0.0464744l0.160689,-0.0445767l0.161546,-0.0426412l0.162327,-0.0406945l0.162994,-0.0386888l0.163807,-0.0367502l0.164551,-0.0347315l0.165154,-0.0327245l0.165908,-0.0307124l0.166628,-0.0286967l0.16733,-0.0266445l0.167879,-0.0245721l0.168574,-0.0225198l0.169215,-0.0204313l0.169881,-0.0183431l0.170344,-0.0162027l0.170967,-0.0141152l0.171725,-0.0119661l0.172005,-0.00978567l0.172404,-0.00765601l0.173271,-0.00550924l0.173649,-0.00327367l0.169233,-0.00108348l16.0096,0l0.169233,0.00108348l0.173649,0.00327367l0.173271,0.00550924l0.172404,0.00765601l0.172005,0.00978567l0.171725,0.0119661l0.170967,0.0141152l0.170344,0.0162027l0.169881,0.0183431l0.169215,0.0204313l0.168574,0.0225198l0.167879,0.0245721l0.16733,0.0266445l0.166628,0.0286967l0.165908,0.0307124l0.165154,0.0327245l0.164551,0.0347315l0.163807,0.0367502l0.162994,0.0386888l0.162327,0.0406945l0.161546,0.0426412l0.160689,0.0445767l0.159848,0.0464744l0.159141,0.0484223l0.158137,0.0502793l0.157369,0.0521498l0.156614,0.0540932l0.155557,0.0558715l0.154907,0.0577967l0.153832,0.0596072l0.152716,0.0612954l0.152161,0.0632469l0.151083,0.0650282l0.149917,0.0666737l0.149145,0.0685228l0.148174,0.0702913l0.147139,0.0720101l0.14617,0.0737612l0.145003,0.0754109l0.1439,0.0770373l0.143104,0.0788568l0.141872,0.0804676l0.140753,0.0820564l0.139719,0.0837521l0.138699,0.0854112l0.137478,0.0870047l0.136289,0.0885187l0.135329,0.0902555l0.134043,0.0917518l0.132819,0.093263l0.131635,0.0948018l0.130485,0.0963554l0.129348,0.0979436l0.12815,0.0994779l0.126713,0.100838l0.125582,0.102352l0.124393,0.10394l0.122987,0.105258l0.121738,0.106739l0.120412,0.108137l0.119136,0.109575l0.117891,0.111062l0.116454,0.112385l0.115079,0.113711l0.113711,0.115079l0.112346,0.116413l0.111102,0.117915l0.109538,0.119113l0.108138,0.120377l0.106848,0.12188l0.105228,0.12297l0.103847,0.124286l0.102404,0.125623l0.100893,0.126805l0.0994061,0.128075l0.0979032,0.129277l0.0964016,0.130541l0.0947841,0.131611l0.0933034,0.132858l0.0917614,0.134084l0.0902038,0.135252l0.0885734,0.136364l0.0869538,0.137426l0.0854209,0.138678l0.0837368,0.13973l0.0820681,0.140724l0.0804702,0.141909l0.0788584,0.143074l0.0770873,0.144012l0.0753933,0.144986l0.0737282,0.146122l0.0720101,0.147121l0.0702913,0.148192l0.0684774,0.149028l0.066736,0.150016l0.0650102,0.151083l0.0632474,0.152118l0.0613514,0.152874l0.0595784,0.153804l0.0577603,0.154809l0.0558721,0.155541l0.0540854,0.156591l0.0521593,0.157361l0.0503028,0.158192l0.0484223,0.159159l0.0464962,0.159905l0.0445644,0.160728l0.0426107,0.16143l0.0406804,0.162253l0.0387289,0.163105l0.0367245,0.163773l0.0347368,0.164473l0.0327398,0.16525l0.0307243,0.165955l0.0286678,0.166565l0.0266519,0.167264l0.0245931,0.168041l0.0225006,0.168547l0.0204231,0.169148l0.0183347,0.169803l0.0162281,0.170422l0.0141042,0.171051l0.0119551,0.171584l0.00980314,0.171996l0.00766302,0.172544l0.00548889,0.173197l0.00329165,0.173648l0.00106649,0.16931l0,17.0095l-0.00106649,0.16931l-0.00329165,0.173648l-0.00548889,0.173197l-0.00766302,0.172544l-0.00980314,0.171996l-0.0119551,0.171584l-0.0141042,0.171051l-0.0162281,0.170422l-0.0183347,0.169803l-0.0204231,0.169148l-0.0225006,0.168547l-0.0245931,0.168041l-0.0266519,0.167264l-0.0286678,0.166565l-0.0307243,0.165955l-0.0327398,0.16525l-0.0347368,0.164473l-0.0367245,0.163773l-0.0387289,0.163105l-0.0406804,0.162253l-0.0426107,0.16143l-0.0445644,0.160728l-0.0464962,0.159905l-0.0484223,0.159159l-0.0503028,0.158192l-0.0521593,0.157361l-0.0540854,0.156591l-0.0558721,0.155541l-0.0577603,0.154809l-0.0595784,0.153804l-0.0613514,0.152874l-0.0632474,0.152118l-0.0650102,0.151083l-0.066736,0.150016l-0.0684774,0.149028l-0.0702913,0.148192l-0.0720101,0.147121l-0.0737282,0.146122l-0.0753933,0.144986l-0.0770873,0.144012l-0.0788584,0.143074l-0.0804702,0.141909l-0.0820681,0.140724l-0.0837368,0.13973l-0.0854209,0.138678l-0.0869538,0.137426l-0.0885734,0.136364l-0.0902038,0.135252l-0.0917614,0.134084l-0.0933034,0.132858l-0.0947841,0.131611l-0.0964016,0.130541l-0.0979032,0.129277l-0.0994061,0.128075l-0.100893,0.126805l-0.102404,0.125623l-0.103847,0.124286l-0.105228,0.12297l-0.106848,0.12188l-0.108138,0.120377l-0.109538,0.119113l-0.111102,0.117915l-0.112346,0.116413l-0.113711,0.115079l-0.115079,0.113711l-0.116454,0.112385l-0.117891,0.111062l-0.119136,0.109575l-0.120412,0.108137l-0.121738,0.106739l-0.122987,0.105258l-0.124393,0.10394l-0.125582,0.102352l-0.126713,0.100838l-0.12815,0.0994779l-0.129348,0.0979436l-0.130485,0.0963554l-0.131635,0.0948018l-0.132819,0.093263l-0.134043,0.0917518l-0.135329,0.0902555l-0.136289,0.0885187l-0.137478,0.0870047l-0.138699,0.0854112l-0.139719,0.0837521l-0.140753,0.0820564l-0.141872,0.0804676l-0.143104,0.0788568l-0.1439,0.0770373l-0.145003,0.0754109l-0.14617,0.0737612l-0.147139,0.0720101l-0.148174,0.0702913l-0.149145,0.0685228l-0.149917,0.0666737l-0.151083,0.0650282l-0.152161,0.0632469l-0.152716,0.0612954l-0.153832,0.0596072l-0.154907,0.0577967l-0.155557,0.0558715l-0.156614,0.0540932l-0.157369,0.0521498l-0.158137,0.0502793l-0.159141,0.0484223l-0.159848,0.0464744l-0.160689,0.0445767l-0.161546,0.0426412l-0.162327,0.0406945l-0.162994,0.0386888l-0.163807,0.0367502l-0.164551,0.0347315l-0.165154,0.0327245l-0.165908,0.0307124l-0.166628,0.0286967l-0.16733,0.0266445l-0.167879,0.0245721l-0.168574,0.0225198l-0.169215,0.0204313l-0.169881,0.0183431l-0.170344,0.0162027l-0.170967,0.0141152l-0.171725,0.0119661l-0.172005,0.00978567l-0.172404,0.00765601l-0.173271,0.00550924l-0.173649,0.00327367l-0.169233,0.00108348l-16.0096,0Z" style="fill:#000;"/><path d="M185,24.6122c0,-2.5478 -1.813,-4.6122 -4.049,-4.6122l-71.902,0c-2.236,0 -4.049,2.0644 -4.049,4.6122l0,0.7745c0,2.5477 1.813,4.6133 4.049,4.6133l71.902,0c2.236,0 4.049,-2.0656 4.049,-4.6133l0,-0.7745Z" style="fill:#a7a9ac;fill-rule:nonzero;"/><g id="type"><text x="71px" y="487.427px" style="font-family:Myriad Web Pro;font-size:26px;fill:#000;stroke-width:0.25px;stroke-linejoin:round;stroke:#000;">1</text><text x="71px" y="530.573px" style="font-family:Myriad Web Pro;font-size:26px;fill:#000;">4</text><text x="71px" y="573.719px" style="font-family:Myriad Web Pro;font-size:26px;fill:#000;stroke-width:0.25px;stroke-linejoin:round;stroke:#010001;">7</text><text x="71px" y="625.259px" style="font-family:Myriad Web Pro;font-size:32px;font-weight:700;fill:#000;">*</text><text x="141.009px" y="487.427px" style="font-family:Myriad Web Pro;font-size:26px;fill:#000;stroke-width:0.25px;stroke-linejoin:round;stroke:#010001;">2</text><text x="141.009px" y="530.573px" style="font-family:Myriad Web Pro;font-size:26px;fill:#000;">5</text><text x="141.009px" y="573.719px" style="font-family:Myriad Web Pro;font-size:26px;fill:#000;stroke-width:0.25px;stroke-linejoin:round;stroke:#010001;">8</text><text x="141.009px" y="616.864px" style="font-family:Myriad Web Pro;font-size:26px;fill:#000;stroke-width:0.25px;stroke-linejoin:round;stroke:#010001;">0</text><text x="211.017px" y="487.427px" style="font-family:Myriad Web Pro;font-size:26px;fill:#000;stroke-width:0.25px;stroke-linejoin:round;stroke:#010001;">3</text><text x="211.017px" y="530.573px" style="font-family:Myriad Web Pro;font-size:26px;fill:#000;stroke-width:0.25px;stroke-linejoin:round;stroke:#010001;">6</text><text x="211.017px" y="573.719px" style="font-family:Myriad Web Pro;font-size:26px;fill:#000;stroke-width:0.25px;stroke-linejoin:round;stroke:#010001;">9</text><text x="211.017px" y="616.864px" style="font-family:Myriad Web Pro;font-size:24px;font-weight:700;fill:#000;">#</text><path d="M138.55,225.729l-16.407,14.47c-0.496,0.436 -1.253,0.39 -1.692,-0.109l-15.066,-17.081c-0.439,-0.497 -0.392,-1.257 0.104,-1.694l16.405,-14.47c0.497,-0.437 1.256,-0.388 1.695,0.107l15.066,17.084c0.439,0.498 0.39,1.255 -0.105,1.693M185.411,183.238c-0.151,-4.367 -3.508,-2.97 -4.638,-2.604c4.554,-2.828 8.478,-11.147 7.452,-14.741c-0.802,-2.804 -2.656,-1.843 -4.914,0.346c6.594,-14.885 -3.17,-22.875 -3.171,-22.865c-1.68,-1.105 -2.877,0.381 -2.851,2.592c0.339,17.902 -12.747,28.25 -27.037,36.831c-10.744,6.94 -14.548,18.62 -15.866,26.971c-0.328,1.023 -1.1,0.536 -1.472,0.22l-8.264,-9.372c-0.902,-1.021 -2.174,-1.522 -3.437,-1.478c-0.977,0.033 -1.949,0.392 -2.74,1.089l-0.372,0.33l-0.006,-0.007l-0.008,0.007l-1.996,-2.263c-0.59,-0.668 -1.396,-1.019 -2.18,-1.029c-0.606,-0.004 -1.199,0.197 -1.67,0.612l-1.102,0.971c-1.085,0.957 -1.116,2.698 -0.068,3.886l1.996,2.262l-13.586,11.982c-1.813,1.6 -1.985,4.364 -0.386,6.175l47.066,53.367c0.897,1.016 2.162,1.517 3.42,1.478c0.984,-0.03 1.961,-0.391 2.756,-1.091l18.991,-16.752c1.814,-1.599 1.985,-4.364 0.387,-6.175l-15.927,-18.059c-0.009,-0.015 -0.014,-0.028 -0.025,-0.041c-0.585,-0.933 1.067,-0.753 1.067,-0.753l0.004,-0.016c2.564,0.086 4.479,-0.508 5.837,-1.422c2.061,-1.386 -0.283,-2.408 -0.645,-3.415c3.18,1.531 9.433,0.227 10.991,-1.783c1.216,-1.569 -0.878,-2.226 -2.877,-2.676c5.045,-2.343 9.073,-4.686 11.234,-10.254c1.267,-3.262 -2.218,-3.358 -5.691,-2.043c2.833,-2.835 5.677,-6.702 7.093,-11.656c1.603,-5.607 -0.489,-8.43 -5.007,-4.646c4.111,-4.028 7.804,-9.37 7.642,-13.978" style="fill:#505050;fill-rule:nonzero;"/></g></g></svg>