<?xml version="1.0" standalone="no"?><!DOCTYPE svg PUBLIC "-//W3C//DTD SVG 1.1//EN" "http://www.w3.org/Graphics/SVG/1.1/DTD/svg11.dtd"><svg width="100%" height="100%" viewBox="0 0 640 681" version="1.1" xmlns="http://www.w3.org/2000/svg" xmlns:xlink="http://www.w3.org/1999/xlink" xml:space="preserve" style="fill-rule:evenodd;clip-rule:evenodd;stroke-linejoin:round;stroke-miterlimit:1.41421;"><g id="clinic-gold"><rect x="80" y="281" width="480" height="400" style="fill:#d0b069;"/><path d="M640,241l-320,-241l-320,241l0,40l640,0l0,-40Z" style="fill:#5c8561;fill-rule:nonzero;"/><path d="M343.333,194.333l0,46.667l-46.666,0l0,-46.667l-46.667,0l0,-46.666l46.667,0l0,-46.667l46.666,0l0,46.667l46.667,0l0,46.666l-46.667,0Z" style="fill:#fff;"/><rect x="340" y="421" width="140" height="260" style="fill:#965b33;"/><rect x="140" y="421" width="60" height="80" style="fill:#fef5d2;"/><rect x="140" y="511" width="60" height="80" style="fill:#fef5d2;"/><rect x="210" y="421" width="60" height="80" style="fill:#fef5d2;"/><rect x="210" y="511" width="60" height="80" style="fill:#fef5d2;"/></g></svg>