<?xml version="1.0" standalone="no"?>
<!DOCTYPE svg PUBLIC "-//W3C//DTD SVG 1.1//EN" "http://www.w3.org/Graphics/SVG/1.1/DTD/svg11.dtd">
<svg width="100%" height="100%" viewBox="0 0 1920 1200" version="1.1" xmlns="http://www.w3.org/2000/svg" xmlns:xlink="http://www.w3.org/1999/xlink" xml:space="preserve" style="fill-rule:evenodd;clip-rule:evenodd;stroke-linejoin:round;stroke-miterlimit:1.41421;">
    <g id="scene-inside">
        <g id="background">
            <rect id="Land" x="0" y="600" width="1920" height="600" style="fill:rgb(255,250,233);"/>
            <rect id="Sky" x="0" y="0" width="1920" height="900" style="fill:rgb(224,234,228);"/>
        </g>
        <rect x="0" y="551.44" width="1920" height="348.56" style="fill:rgb(120,177,177);fill-opacity:0.5;"/>
        <g id="clinic-gold">
            <rect x="828.953" y="642.561" width="1091.05" height="333.087" style="fill:rgb(62,100,100);"/>
            <rect id="(Rectangle)" x="806" y="642.561" width="1114" height="20" style="fill:rgb(162,117,19);"/>
            <rect x="307.761" y="219.219" width="366.574" height="680.781" style="fill:rgb(71,32,6);fill-opacity:0.913804;"/>
            <path d="M297.761,899.933L297.761,199.152L684.335,199.152L684.335,899.933L664.335,899.933L664.335,219.152L317.761,219.152L317.761,899.933L297.761,899.933Z" style="fill:rgb(162,117,19);"/>
            <g id="sign">
                <path d="M832,328C832,325.348 830.946,322.804 829.071,320.929C827.196,319.054 824.652,318 822,318C801.776,318 756.224,318 736,318C733.348,318 730.804,319.054 728.929,320.929C727.054,322.804 726,325.348 726,328C726,358.775 726,450 726,450L832,450C832,450 832,358.775 832,328Z" style="fill:rgb(120,177,177);"/>
                <path d="M785.667,362.748L785.667,376.082L772.333,376.082L772.333,362.748L759,362.748L759,349.415L772.333,349.415L772.333,336.082L785.667,336.082L785.667,349.415L799,349.415L799,362.748L785.667,362.748Z" style="fill:white;"/>
                <rect x="749" y="417.959" width="60" height="8" style="fill:rgb(203,230,230);"/>
                <rect x="740" y="399.693" width="78" height="8" style="fill:rgb(203,230,230);"/>
            </g>
        </g>
        <g id="Layer 1">
            <rect x="920.501" y="480.204" width="238.452" height="144.377" style="fill:white;"/>
            <path d="M1155.11,483.544L924.725,483.544L924.725,623.176L1155.09,623.268L1155.11,483.544ZM1164.79,479.946L1164.79,626.256C1164.79,628.558 1163.12,630.855 1160.82,630.855L919.133,630.855C916.831,630.855 914.713,628.558 914.713,626.256L914.713,594.309L914.713,503.56L914.713,479.946C914.713,475.344 918.697,472.025 923.299,472.025L1156.65,472.025C1161.26,472.025 1164.79,475.344 1164.79,479.946" style="fill:rgb(200,200,200);fill-rule:nonzero;"/>
            <path d="M886.326,630.855L886.326,635.919C886.326,635.919 892.57,642.561 907.61,642.561L1172.5,642.561C1187.54,642.561 1193.51,635.919 1193.51,635.919L1193.51,630.855L886.326,630.855Z" style="fill:rgb(180,180,180);fill-rule:nonzero;"/>
            <path d="M1059.91,634.695L1019.92,634.695L1016.88,634.695C1016.88,634.695 1016.93,638.535 1019.66,638.535L1060.18,638.535C1062.91,638.535 1062.96,634.695 1062.96,634.695L1059.91,634.695Z" style="fill:white;fill-rule:nonzero;"/>
            <g id="Layer 11">
                <path d="M1032.93,544.562L1022.96,553.356C1022.66,553.621 1022.2,553.593 1021.93,553.29L1012.77,542.909C1012.51,542.607 1012.54,542.145 1012.84,541.879L1022.81,533.085C1023.11,532.819 1023.57,532.849 1023.84,533.15L1033,543.533C1033.26,543.836 1033.23,544.296 1032.93,544.562M1061.41,518.738C1061.32,516.084 1059.28,516.933 1058.59,517.155C1061.36,515.437 1063.75,510.381 1063.12,508.196C1062.63,506.492 1061.51,507.076 1060.13,508.407C1064.14,499.361 1058.21,494.505 1058.21,494.51C1057.19,493.839 1056.46,494.742 1056.47,496.086C1056.68,506.966 1048.73,513.254 1040.04,518.47C1033.51,522.688 1031.2,529.787 1030.4,534.861C1030.2,535.484 1029.73,535.187 1029.51,534.995L1024.48,529.3C1023.94,528.678 1023.16,528.374 1022.39,528.401C1021.8,528.421 1021.21,528.64 1020.73,529.063L1020.5,529.264L1020.5,529.259L1020.5,529.264L1019.28,527.888C1018.92,527.482 1018.43,527.269 1017.96,527.263C1017.59,527.261 1017.23,527.382 1016.94,527.635L1016.27,528.225C1015.61,528.806 1015.59,529.864 1016.23,530.587L1017.44,531.962L1009.19,539.244C1008.09,540.216 1007.98,541.895 1008.95,542.997L1037.56,575.429C1038.1,576.047 1038.87,576.352 1039.63,576.328C1040.23,576.311 1040.83,576.091 1041.31,575.665L1052.85,565.485C1053.95,564.513 1054.06,562.832 1053.09,561.732L1043.41,550.756C1043.4,550.747 1043.4,550.739 1043.39,550.731C1043.04,550.164 1044.04,550.274 1044.04,550.274L1044.04,550.264C1045.6,550.316 1046.76,549.955 1047.59,549.399C1048.84,548.557 1047.42,547.937 1047.2,547.324C1049.13,548.254 1052.93,547.463 1053.88,546.241C1054.62,545.287 1053.35,544.887 1052.13,544.615C1055.2,543.19 1057.64,541.766 1058.96,538.382C1059.73,536.4 1057.61,536.341 1055.5,537.14C1057.22,535.418 1058.95,533.067 1059.81,530.057C1060.78,526.649 1059.51,524.934 1056.77,527.233C1059.27,524.785 1061.51,521.538 1061.41,518.738" style="fill:rgb(101,100,100);fill-rule:nonzero;"/>
                <path d="M967.144,600.473L967.101,600.473L965.209,611.182L963.123,611.182L966.434,594.28L972.003,607.053L977.573,594.28L980.884,611.182L978.799,611.182L976.906,600.473L976.863,600.473L972.003,611.526L967.144,600.473Z" style="fill:rgb(101,100,100);fill-rule:nonzero;"/>
                <path d="M984.196,594.969L992.905,594.969L992.905,596.817L986.217,596.817L986.217,601.355L992.711,601.355L992.711,603.204L986.217,603.204L986.217,609.332L992.905,609.332L992.905,611.182L984.196,611.182L984.196,594.969Z" style="fill:rgb(101,100,100);fill-rule:nonzero;"/>
                <path d="M998.753,609.332L999.463,609.332C1003.59,609.332 1007.16,607.784 1007.16,603.075C1007.16,598.345 1003.59,596.817 999.463,596.817L998.753,596.817L998.753,609.332ZM996.732,594.969L1000.09,594.969C1005.05,594.969 1009.18,597.592 1009.18,602.989C1009.18,608.515 1005.14,611.181 1000.02,611.181L996.732,611.181L996.732,594.969Z" style="fill:rgb(101,100,100);fill-rule:nonzero;"/>
                <rect x="1012.21" y="594.969" width="2.021" height="16.213" style="fill:rgb(101,100,100);fill-rule:nonzero;"/>
                <path d="M1030.15,598.065C1028.99,597.033 1027.39,596.474 1025.87,596.474C1022.23,596.474 1019.46,599.505 1019.46,603.096C1019.46,606.644 1022.21,609.676 1025.83,609.676C1027.42,609.676 1028.94,609.074 1030.15,607.999L1030.15,610.386C1028.9,611.117 1027.31,611.526 1025.89,611.526C1021.27,611.526 1017.44,607.849 1017.44,603.161C1017.44,598.366 1021.29,594.624 1026.06,594.624C1027.48,594.624 1028.92,594.969 1030.15,595.721L1030.15,598.065Z" style="fill:rgb(101,100,100);fill-rule:nonzero;"/>
                <path d="M1043.67,600.473L1043.63,600.473L1041.74,611.182L1039.65,611.182L1042.96,594.28L1048.53,607.053L1054.1,594.28L1057.41,611.182L1055.33,611.182L1053.43,600.473L1053.39,600.473L1048.53,611.526L1043.67,600.473Z" style="fill:rgb(140,140,140);fill-rule:nonzero;"/>
                <path d="M1073.69,603.075C1073.69,599.505 1071.02,596.517 1067.22,596.517C1063.41,596.517 1060.75,599.505 1060.75,603.075C1060.75,606.774 1063.71,609.633 1067.22,609.633C1070.72,609.633 1073.69,606.774 1073.69,603.075M1075.71,603.075C1075.71,607.892 1071.9,611.526 1067.22,611.526C1062.53,611.526 1058.72,607.892 1058.72,603.075C1058.72,598.43 1062.57,594.624 1067.22,594.624C1071.86,594.624 1075.71,598.43 1075.71,603.075" style="fill:rgb(140,140,140);fill-rule:nonzero;"/>
                <path d="M1080.59,609.375L1082.14,609.375C1084.01,609.375 1085.97,608.816 1085.97,606.515C1085.97,604.236 1083.64,603.763 1081.84,603.763L1080.59,603.763L1080.59,609.375ZM1080.59,602.151L1081.11,602.151C1083.02,602.151 1084.59,601.763 1084.59,599.441C1084.59,597.162 1083.04,596.775 1081.15,596.775L1080.59,596.775L1080.59,602.151ZM1078.57,594.968L1080.55,594.968C1083.6,594.968 1086.48,595.764 1086.48,599.419C1086.48,600.602 1085.84,601.978 1084.74,602.494L1084.74,602.537C1086.66,602.881 1087.99,604.752 1087.99,606.644C1087.99,609.891 1085.21,611.182 1082.36,611.182L1078.57,611.182L1078.57,594.968Z" style="fill:rgb(140,140,140);fill-rule:nonzero;"/>
                <rect x="1091.69" y="594.969" width="2.021" height="16.213" style="fill:rgb(140,140,140);fill-rule:nonzero;"/>
                <path d="M1100.7,609.332L1105.62,609.332L1105.62,611.181L1098.68,611.181L1098.68,594.969L1100.7,594.969L1100.7,609.332Z" style="fill:rgb(140,140,140);fill-rule:nonzero;"/>
                <path d="M1108.03,594.969L1116.74,594.969L1116.74,596.817L1110.05,596.817L1110.05,601.355L1116.55,601.355L1116.55,603.204L1110.05,603.204L1110.05,609.332L1116.74,609.332L1116.74,611.182L1108.03,611.182L1108.03,594.969Z" style="fill:rgb(140,140,140);fill-rule:nonzero;"/>
                <path d="M1121.5,597.829L1121.16,597.829L1121.16,595.435L1120.52,595.435L1120.52,595.126L1122.14,595.126L1122.14,595.435L1121.5,595.435L1121.5,597.829Z" style="fill:rgb(140,140,140);fill-rule:nonzero;"/>
                <path d="M1123.18,596.044L1123.18,596.044L1122.86,597.829L1122.52,597.829L1123.07,595.011L1124,597.141L1124.92,595.011L1125.48,597.829L1125.13,597.829L1124.81,596.044L1124.81,596.044L1124,597.887L1123.18,596.044Z" style="fill:rgb(140,140,140);fill-rule:nonzero;"/>
            </g>
        </g>
    </g>
</svg>
