<?xml version="1.0" encoding="utf-8"?>
<!-- Generator: Adobe Illustrator 17.0.0, SVG Export Plug-In . SVG Version: 6.00 Build 0)  -->
<!DOCTYPE svg PUBLIC "-//W3C//DTD SVG 1.1//EN" "http://www.w3.org/Graphics/SVG/1.1/DTD/svg11.dtd">
<svg version="1.1" id="Layer_1" xmlns="http://www.w3.org/2000/svg" xmlns:xlink="http://www.w3.org/1999/xlink" x="0px" y="0px"
	 width="612px" height="792px" viewBox="0 0 612 792" enable-background="new 0 0 612 792" xml:space="preserve">
<g id="Backdrop">
	<g id="scene-1">
		<rect y="396" fill="#FFFAE9" width="612" height="191.25"/>
		<rect y="204.75" fill="#D4E4EE" width="612" height="191.25"/>
		<path fill="#C3CFC8" d="M0,325.875l26.205-14.918l43.961-12.003c0,0,32.683,17.722,44.491,21.509
			c8.816,2.828,43.624,2.692,43.624,2.692s13.16-6.372,18.99-11.171c6.068-4.996,23.176-18.809,23.176-18.809l17.21,9.379
			c0,0,18.878,25.633,19.086,26.126c0.209,0.493,35.232,1.66,34.941,1.782s14.469-8.107,14.469-8.107l17.574-21.684
			c0,0,17.026-28.543,15.253-25.625c-3.113,5.122,8.35-10.311,14.711-11.076c9.515-1.144,13.057,4.086,21.229,3.473
			s10.88-4.507,14.998-5.205c7.356-1.247,16.39,13.735,16.39,13.735s10.461,15.428,16.797,20.218
			c6.336,4.79,13.424,15.137,22.139,17.903c8.715,2.765,36.768,5.576,36.768,5.576s15.602,11.038,26.775,12.911
			c11.173,1.874,36.314,7.217,43.319,7.985c7.005,0.768,35.023,1.259,42.237,0.737c7.214-0.521,37.657-15.428,37.657-15.428V396H0
			V325.875L0,325.875z"/>
		<path fill="#EDF6FF" d="M315.604,280.748l4.631-8.463l12.129-13.638l10.162,4.481c0,0,6.661,1.474,11.78,0.765
			c5.12-0.709,16.092-6.182,16.092-6.182s4.197,0.737,7.854,4.169s8.633,11.661,11.905,15.914s6.9,12.334,6.9,12.334l-5.138,4.304
			l-12.513-10.095l-5.505,14.49l-9.893-14.206l-6.584,23.534l-6.891-27.447l-13.666,11.882l-10.549-12.45L315.604,280.748
			L315.604,280.748z"/>
		<path fill="#A3B5AC" d="M350.456,280.758l-12.664,31.565l-0.828-19.928L350.456,280.758z"/>
		<path fill="#A3B5AC" d="M363.984,294.882l4.715,18.692l5.077-14.946l-9.715-13.87"/>
		<path fill="#A3B5AC" d="M379.478,284.42l7.424,18.621l5.084-8.703C391.986,294.338,379.44,284.586,379.478,284.42z"/>
		<path fill="#A3B5AC" d="M321.453,280.421l2.978,16.946l1.835-17.227L321.453,280.421z"/>
		<path fill="#A3B5AC" d="M197.964,304.965l-3.184,7.438l-3.266-11.97L197.964,304.965L197.964,304.965z"/>
		<path fill="#A3B5AC" d="M58.339,304.481l-1.423,5.29l8.317-3.5l-3.201-1.897L58.339,304.481L58.339,304.481z"/>
		<path fill="#A3B5AC" d="M204.077,305.277l5.844,8.802l2.129-9.789L204.077,305.277L204.077,305.277z"/>
		<path fill="#A3B5AC" d="M72.613,304.54l-1.441,1.078l3.641,4.406l4.145-4.869C78.959,305.154,72.613,304.54,72.613,304.54z"/>
		<path fill="#EDF6FF" d="M200.322,293.083l-8.829,7.358l6.471,4.521l10.222,0.503l9.47-2.912L200.322,293.083L200.322,293.083z"/>
		<path fill="#EDF6FF" d="M70.166,298.953l-21.379,5.838l13.238-0.398l5.994,3.513l4.583-3.344l9.919,0.92L70.166,298.953
			L70.166,298.953z"/>
	</g>
</g>
<g id="Back_Hills">
	<path id="hills-middle-gorund" fill="#B5BE98" d="M612,374.365c0,0-26.444-12.951-40.644-16.367
		c-17.774-4.277-44.545-8.836-66.001-9.293c-21.02-0.448-41.995,3.115-62.733,6.551s-42.416,14.572-61.693,14.064
		c-18.865-0.497-30.327-10.539-53.967-17.111c-23.64-6.572-48.038-9.106-72.089-7.003c-24.176,2.114-56.037,14.19-72.965,19.686
		s-32.222,9.923-48.701,13.359c-17.032,3.552-35.492,7.001-53.494,7.953c-18.57,0.981-44.639-0.092-57.924-2.065
		C13.915,382.969,0,374.365,0,374.365v22.312h612V374.365L612,374.365z"/>
</g>
<g id="Front_hills">
	<path id="hills-forground" fill="#BED17A" d="M0,376.49c0,0,21.685-15.285,34.19-19.615c13.896-4.811,32.487-9.841,49.189-9.252
		c20.012,0.706,50.694,9.597,70.883,13.49c16.763,3.233,33.15,10.045,50.252,9.87c19.338-0.198,42.14-4.803,65.779-11.06
		s56.953-10.709,80.632-9.183c21.414,1.381,44.373,13.087,61.439,18.344c13.712,4.224,26.777,10.726,40.953,13.198
		c18.401,3.209,46.205,5.877,69.451,6.055c23.48,0.179,56.475-0.757,71.426-4.98c9.692-2.737,17.807-6.869,17.807-6.869V398.8H0
		V376.49L0,376.49z"/>
</g>
<g id="Clinic__x2B__man">
	<g id="clinic-gold">
		<path fill="#5C8561" d="M552.393,373.825l-21.056-15.913l-21.056,15.913v2.641h42.112V373.825z"/>
		<rect x="515.545" y="378.414" fill="#D0B069" width="31.584" height="26.412"/>
		<path fill="#FFFFFF" d="M532.872,370.744v3.081h-3.071v-3.081h-3.071v-3.081h3.071v-3.081h3.071v3.081h3.071v3.081H532.872z"/>
		<rect x="532.653" y="387.659" fill="#965B33" width="9.212" height="17.168"/>
		<rect x="519.493" y="387.659" fill="#FEF5D2" width="3.948" height="5.282"/>
		<rect x="519.493" y="393.601" fill="#FEF5D2" width="3.948" height="5.282"/>
		<rect x="524.099" y="387.659" fill="#FEF5D2" width="3.948" height="5.282"/>
		<rect x="524.099" y="393.601" fill="#FEF5D2" width="3.948" height="5.282"/>
	</g>
	<ellipse fill="#323232" cx="504.448" cy="385.057" rx="2.498" ry="2.27"/>
	<path fill="#323232" d="M509.428,390.734c-0.405-1.667-2.008-2.978-3.551-2.978l-1.294-0.033h-1.266
		c-1.543,0-3.147,1.307-3.551,2.974l-1.38,6.768c0,1.257,2.196,1.257,2.196,0l1.315-6.168l-0.079,5.067l-0.872,12.921
		c0,0.702,0.442,1.264,1.215,1.264c0.774,0,1.312-0.491,1.312-1.193l0.825-10.634h0.598l0.825,10.635
		c0,0.702,0.573,1.226,1.347,1.226c0.773,0,1.18-0.592,1.18-1.294l-0.872-12.919l-0.079-5.072l1.315,6.168
		c0,1.257,2.196,1.257,2.196,0L509.428,390.734z"/>
	<polygon fill="#FFFFFF" points="506.085,390.237 505.035,390.237 505.035,389.294 503.986,389.294 503.986,390.237 
		502.936,390.237 502.936,391.18 503.986,391.18 503.986,392.122 505.035,392.122 505.035,391.18 506.085,391.18 	"/>
</g>
<g id="Path">
	
		<linearGradient id="path-R-L_1_" gradientUnits="userSpaceOnUse" x1="0.9986" y1="0.7036" x2="1.9986" y2="0.7036" gradientTransform="matrix(612.7997 0 0 147.2687 -612.6846 396.9089)">
		<stop  offset="0" style="stop-color:#FBEEC9"/>
		<stop  offset="1" style="stop-color:#F5DEAB"/>
	</linearGradient>
	<path id="path-R-L" fill="url(#path-R-L_1_)" d="M611.834,426.582l-38.439,0.684c0,0-24.52,0.597-23.925,5.395
		c0.404,3.264,18.083,4.993,23.413,5.404c8.254,0.636,14.249,1.91,12.858,4.855c-1.398,2.96-15.83,2.21-23.03,1.731
		c-7.587-0.505-45.426-0.508-45.289,4.732c0.158,6.022,39.879,9.404,47.293,17.963c9.187,10.605-15.367,23.851-29.512,32.989
		c-16.335,10.553-40.555,20.737-63.81,28.774c-22.245,7.688-45.895,11.029-69.295,13.556c-25.064,2.707-54.043,2.506-81.086,2.687
		c-66.991,0.448-320.859,0-320.859,0v28.673c0,0,254.312,1.025,321.286,0c26.926-0.412,54.459-2.239,80.552-6.151
		c25.697-3.853,51.894-8.527,76.004-17.321c24.109-8.795,52.095-22.198,68.652-35.446c13.971-11.179,34.053-30.7,30.69-44.041
		c-3.851-15.277-49.375-16.665-50.074-22.064c-0.452-3.494,49.225-1.126,49.225-1.126s20.481,1.254,19.791-4.792
		c-0.311-2.721-7.853-5.767-25.743-7.214c-3.703-0.3-12.876-0.895-13.076-3.113c-0.305-3.393,10.654-3.411,16.085-3.504
		c11.022-0.189,38.302-0.12,38.302-0.12l-0.011-2.549L611.834,426.582z"/>
</g>
<g id="Village">
	<g id="village">
		<path fill="#BB8555" d="M154.731,409.002c0-0.889,0-2.959-25.828-16.123c0-0.043,0-0.083,0-0.119c0-2.417-0.904-3.973-2.307-3.973
			s-2.314,1.556-2.314,3.973c0,0.043,0,0.083,0,0.119c-25.83,13.164-25.83,15.234-25.83,16.123c0,0.569,0.007,2.244,5.301,4.092
			c-0.194,7.231,0.021,8.454,0.098,8.863l0.117,0.653l2.015,1.078l0.32,0.124c2.673,0.66,9.385,1.855,16.006,2.266l1.327,0.084
			l0.617,0.019c0.827,0.029,1.654,0.055,2.46,0.055c1.661,0,3.585-0.103,5.593-0.27h0.012c7.42-0.624,15.958-2.161,16.694-2.897
			c0.528-0.514,0.576-0.597,0.473-9.982C154.724,411.239,154.731,409.571,154.731,409.002L154.731,409.002z M121.193,423.265
			c-5.878-0.452-11.581-1.467-14.081-2.065l-0.64-0.34c-0.062-0.889-0.11-2.814-0.007-6.925c0.091,0.027,0.196,0.048,0.292,0.069
			c0.23,0.055,0.466,0.11,0.695,0.166c0.507,0.126,1.014,0.244,1.549,0.356c0.265,0.055,0.528,0.11,0.798,0.165
			c0.535,0.105,1.085,0.21,1.64,0.306c0.265,0.05,0.528,0.091,0.805,0.139c0.647,0.105,1.307,0.203,1.974,0.285
			c0.187,0.029,0.375,0.057,0.562,0.076c0.868,0.112,1.752,0.21,2.646,0.294c0.21,0.02,0.418,0.034,0.626,0.048
			c0.695,0.062,1.389,0.117,2.098,0.16c0.326,0.02,0.66,0.034,0.992,0.055c0.598,0.034,1.202,0.062,1.807,0.083
			c0.361,0.014,0.729,0.027,1.09,0.034c0.229,0.007,0.459,0.014,0.688,0.021C123.033,417.27,121.733,419.818,121.193,423.265
			L121.193,423.265z M146.75,421.035c-2.168,0.5-8.421,1.716-14.741,2.23c-0.542-3.439-1.841-5.995-3.544-7.065
			c0.237-0.007,0.466-0.014,0.702-0.021c0.354-0.007,0.715-0.02,1.071-0.034c0.617-0.021,1.222-0.05,1.833-0.083
			c0.333-0.021,0.66-0.036,0.992-0.055c0.703-0.05,1.403-0.105,2.092-0.16c0.215-0.021,0.43-0.035,0.64-0.055
			c0.895-0.083,1.771-0.182,2.632-0.294c0.222-0.027,0.438-0.062,0.66-0.089c0.639-0.083,1.264-0.174,1.883-0.279
			c0.292-0.048,0.576-0.096,0.861-0.146c0.535-0.089,1.057-0.187,1.57-0.292c0.292-0.055,0.576-0.117,0.861-0.173
			c0.514-0.112,1.008-0.222,1.494-0.349c0.251-0.062,0.5-0.117,0.743-0.179c0.083-0.021,0.174-0.043,0.251-0.062
			C146.784,418.116,146.777,420.103,146.75,421.035L146.75,421.035z"/>
		<path fill="#CCA374" d="M91.233,399.925c0-0.471,0-1.567-13.679-8.539c0-0.023,0-0.044,0-0.063c0-1.28-0.479-2.104-1.222-2.104
			c-0.743,0-1.225,0.824-1.225,2.104c0,0.022,0,0.044,0,0.063c-13.68,6.972-13.68,8.068-13.68,8.539
			c0,0.301,0.004,1.189,2.808,2.167c-0.103,3.83,0.011,4.478,0.052,4.695l0.062,0.346l1.067,0.571l0.169,0.066
			c1.416,0.35,4.971,0.983,8.477,1.2l0.703,0.044l0.327,0.01c0.438,0.015,0.876,0.029,1.303,0.029c0.88,0,1.899-0.055,2.962-0.143
			h0.007c3.93-0.331,8.452-1.145,8.842-1.534c0.28-0.272,0.305-0.316,0.251-5.287C91.229,401.11,91.233,400.227,91.233,399.925
			L91.233,399.925z M73.469,407.48c-3.113-0.239-6.134-0.777-7.458-1.093l-0.339-0.18c-0.033-0.471-0.058-1.49-0.004-3.668
			c0.048,0.014,0.104,0.026,0.154,0.037c0.121,0.029,0.247,0.059,0.368,0.087c0.268,0.067,0.537,0.129,0.82,0.189
			c0.14,0.029,0.28,0.059,0.423,0.087c0.283,0.056,0.574,0.111,0.868,0.162c0.14,0.026,0.28,0.048,0.427,0.074
			c0.343,0.056,0.692,0.107,1.046,0.151c0.099,0.015,0.199,0.03,0.298,0.04c0.46,0.059,0.928,0.111,1.401,0.155
			c0.111,0.01,0.221,0.018,0.331,0.026c0.368,0.033,0.736,0.062,1.112,0.085c0.172,0.01,0.35,0.018,0.525,0.029
			c0.316,0.018,0.637,0.033,0.957,0.044c0.191,0.008,0.386,0.014,0.577,0.018c0.121,0.004,0.243,0.008,0.365,0.011
			C74.444,404.304,73.755,405.654,73.469,407.48L73.469,407.48z M87.005,406.298c-1.148,0.265-4.46,0.909-7.807,1.181
			c-0.287-1.822-0.975-3.175-1.877-3.742c0.125-0.004,0.247-0.008,0.372-0.011c0.188-0.004,0.379-0.01,0.567-0.018
			c0.327-0.011,0.647-0.026,0.971-0.044c0.176-0.011,0.35-0.019,0.525-0.029c0.372-0.026,0.743-0.055,1.108-0.085
			c0.114-0.011,0.228-0.019,0.339-0.029c0.474-0.044,0.938-0.096,1.394-0.155c0.118-0.014,0.232-0.033,0.35-0.047
			c0.338-0.044,0.67-0.092,0.997-0.148c0.155-0.026,0.305-0.051,0.456-0.077c0.283-0.047,0.559-0.099,0.832-0.154
			c0.155-0.029,0.305-0.062,0.456-0.091c0.272-0.059,0.534-0.118,0.791-0.185c0.133-0.033,0.265-0.062,0.394-0.095
			c0.044-0.011,0.092-0.022,0.133-0.033C87.023,404.753,87.02,405.805,87.005,406.298L87.005,406.298z"/>
		<path fill="#231F20" d="M38.934,436.58l2.339-0.067c-0.768-0.026-1.546-0.067-2.322-0.119
			C38.943,436.463,38.934,436.522,38.934,436.58L38.934,436.58z"/>
		<path fill="#AD7739" d="M74.833,419.124c0-1.091,0-3.631-31.69-19.781c0-0.052,0-0.094,0-0.146c0-2.965-1.117-4.874-2.83-4.874
			c-1.722,0-2.839,1.918-2.839,4.874c0,0.052,0,0.103,0,0.146c-31.688,16.15-31.688,18.69-31.688,19.781
			c0,0.701,0.009,2.754,6.502,5.021c-0.306,11.37,0.102,11.719,0.888,12.332c1.279,1.006,12.81,3.026,21.878,3.598l1.619,0.103
			l0.768,0.015c1.014,0.035,2.029,0.07,3.009,0.07c2.036,0,4.396-0.129,6.851-0.334h0.026c9.085-0.757,19.569-2.642,20.49-3.561
			c0.631-0.63,0.698-0.733,0.578-12.249C74.824,421.86,74.833,419.824,74.833,419.124L74.833,419.124z M33.691,436.614
			c-8.191-0.622-15.742-2.097-18.051-2.719c-0.078-0.938-0.155-3.231-0.026-8.727c0.12,0.033,0.255,0.059,0.375,0.094
			c0.255,0.068,0.528,0.126,0.792,0.196c0.639,0.161,1.296,0.306,1.977,0.452c0.308,0.059,0.607,0.126,0.912,0.188
			c0.692,0.135,1.39,0.264,2.105,0.391c0.299,0.052,0.589,0.102,0.886,0.155c0.853,0.135,1.73,0.264,2.618,0.382
			c0.17,0.026,0.332,0.052,0.502,0.07c1.091,0.135,2.199,0.264,3.332,0.366c0.155,0.015,0.316,0.024,0.469,0.042
			c0.956,0.085,1.918,0.161,2.889,0.223c0.334,0.015,0.666,0.033,1.006,0.059c0.818,0.044,1.645,0.085,2.472,0.111
			c0.375,0.018,0.751,0.026,1.126,0.033c0.314,0.009,0.631,0.026,0.945,0.026C35.94,429.268,34.348,432.394,33.691,436.614
			L33.691,436.614z M65.047,433.887c-2.666,0.613-10.338,2.105-18.086,2.727c-0.666-4.22-2.258-7.346-4.346-8.668
			c0.323-0.009,0.648-0.017,0.971-0.033c0.358-0.009,0.716-0.018,1.082-0.035c0.853-0.026,1.697-0.068,2.54-0.12
			c0.325-0.017,0.639-0.033,0.965-0.05c1.006-0.068,2.012-0.146,2.991-0.231c0.126-0.009,0.264-0.015,0.384-0.033
			c1.141-0.111,2.258-0.231,3.358-0.375c0.17-0.026,0.332-0.052,0.502-0.068c0.895-0.12,1.765-0.249,2.625-0.384
			c0.299-0.052,0.589-0.103,0.888-0.153c0.716-0.129,1.423-0.258,2.112-0.393c0.308-0.061,0.615-0.12,0.912-0.188
			c0.692-0.144,1.355-0.308,2.003-0.469c0.249-0.059,0.513-0.12,0.75-0.188c0.12-0.033,0.238-0.059,0.349-0.085
			C65.1,430.332,65.073,432.752,65.047,433.887L65.047,433.887z"/>
		<path fill="#925B1D" d="M158.624,461.456c0-2.632,0-5.615-41.73-27.943c-0.231-0.126-0.491-0.225-0.752-0.286
			c-0.098-0.027-0.188-0.046-0.268-0.073c-0.241-0.25-0.518-0.465-0.832-0.635c-7.569-4.031-14.099-7.406-17.196-8.993
			c0-0.098,0-0.188,0-0.286c0-5.677-2.132-9.35-5.427-9.35c-3.306,0-5.439,3.673-5.439,9.35c0,0.099,0,0.188,0,0.286
			c-4.576,2.348-16.667,8.598-28.642,15.181c-32.125,17.655-32.125,20.241-32.125,22.74c0,1.344,0.016,5.276,12.466,9.63
			c-0.591,21.862,0.188,22.479,1.692,23.653c2.456,1.926,24.568,5.822,41.961,6.906l3.118,0.197l1.316,0.025
			c1.997,0.073,3.976,0.117,5.92,0.117c3.886,0,8.382-0.232,13.067-0.626h0.126v-0.009c17.428-1.461,37.508-5.07,39.283-6.826
			c1.208-1.199,1.341-1.344,1.11-23.483C158.605,466.704,158.624,462.79,158.624,461.456L158.624,461.456z M79.725,495.007
			c-15.69-1.199-30.183-4.031-34.597-5.23c-0.145-1.8-0.305-6.198-0.046-16.74c0.126,0.037,0.268,0.062,0.403,0.099
			c1.279,0.332,2.589,0.663,3.951,0.967c0.231,0.053,0.474,0.108,0.715,0.151c1.316,0.296,2.669,0.573,4.049,0.835
			c0.151,0.025,0.303,0.062,0.465,0.09c1.486,0.277,3.008,0.536,4.558,0.777c0.286,0.046,0.573,0.092,0.86,0.135
			c1.568,0.243,3.162,0.466,4.783,0.663c0.161,0.018,0.33,0.037,0.493,0.062c1.63,0.197,3.286,0.385,4.971,0.548
			c0.117,0.009,0.223,0.025,0.339,0.034c1.738,0.172,3.503,0.314,5.285,0.44c0.225,0.018,0.438,0.035,0.663,0.044
			c1.818,0.126,3.645,0.234,5.491,0.314c0.016,0,0.035,0,0.053,0c1.908,0.08,3.834,0.145,5.776,0.179c0.046,0,0.092,0,0.135,0
			C84.051,480.901,80.988,486.902,79.725,495.007L79.725,495.007z M139.859,489.758c-5.113,1.183-19.829,4.04-34.679,5.239
			c-1.273-8.096-4.345-14.096-8.348-16.623c0.064,0,0.126-0.009,0.197-0.009c1.917-0.034,3.833-0.099,5.723-0.179
			c0.018,0,0.037,0,0.055,0c1.862-0.08,3.707-0.188,5.535-0.314c0.197-0.009,0.404-0.025,0.601-0.044
			c1.818-0.126,3.609-0.277,5.381-0.447c0.055,0,0.099-0.009,0.145-0.018c1.772-0.17,3.52-0.367,5.239-0.582
			c0.108-0.009,0.206-0.027,0.305-0.037c1.683-0.206,3.331-0.438,4.962-0.69c0.215-0.035,0.429-0.062,0.644-0.098
			c1.621-0.25,3.224-0.527,4.774-0.814c0.027-0.009,0.055-0.009,0.08-0.018c1.541-0.296,3.045-0.601,4.515-0.931
			c0.151-0.037,0.305-0.062,0.447-0.099c1.433-0.323,2.832-0.672,4.184-1.03c0.08-0.018,0.17-0.037,0.25-0.064
			C139.948,482.942,139.911,487.592,139.859,489.758L139.859,489.758z"/>
	</g>
</g>
<g id="pregnant_lady">
	<g id="anc-trimester1_1_">
		<g id="Layer5_1_">
			<g id="Layer4_1_">
				<path fill="#F47B63" d="M63.178,478.36c0-2.006-1.638-3.635-3.655-3.635s-3.654,1.629-3.654,3.635s1.637,3.635,3.654,3.635
					S63.178,480.366,63.178,478.36"/>
				<path fill="#F47B63" d="M57.551,491.537l-3.515-2.506l2.633-2.564l1.227,5.425C57.805,491.758,57.692,491.637,57.551,491.537
					 M62.982,487.035c-0.49-0.947-1.749-2.678-1.749-2.678c-1.366-1.893-4.267-1.674-5.919-0.068c0,0-3.497,3.395-4.205,4.091
					c-0.708,0.694-0.486,1.752,0.17,2.219l4.93,3.515c0.514,0.367,1.185,0.466,1.677,0.128l-5.456,10.613l6.574-0.111
					c-0.183,2.151-0.351,3.881-0.351,3.881l-0.787,8.891c-0.08,0.906,0.593,1.674,1.505,1.752c0.913,0.08,1.715-0.489,1.795-1.395
					l1.163-13.129l2.998-0.006c0,0-0.586-9.727-0.586-9.731c0.121-1.664,0.336-1.89,0-3.869
					C64.54,489.953,63.567,488.165,62.982,487.035L62.982,487.035z"/>
			</g>
		</g>
	</g>
</g>
<g id="CHW">
	<g id="chw-nepali">
		<g id="chw-female-full">
			<path fill="#64A2C8" d="M124.612,478.562c0,2.108-1.703,3.826-3.821,3.826c-2.123,0-3.826-1.718-3.826-3.826
				c0-2.118,1.703-3.837,3.826-3.837C122.91,474.725,124.612,476.444,124.612,478.562"/>
			<path fill="#64A2C8" d="M129.675,498.245c0,0-2.016-9.762-2.968-11.723v-0.015c-0.956-1.957-1.913-3.135-5.54-3.135h-0.75
				c-3.627,0-4.583,1.178-5.54,3.135v0.015c-0.956,1.961-2.972,11.723-2.972,11.723c-0.151,0.658,0.254,1.317,0.926,1.464
				c0.089,0.029,0.177,0.045,0.265,0.045c0.57,0,1.067-0.386,1.199-0.953l2.719-9.664l-2.648,24.457h2.938l0.409,6.101
				c0,0.493,0.405,0.908,0.898,0.908c0.522,0,0.942-0.416,0.942-0.908l0.394-6.101h1.692l0.394,6.101
				c0,0.493,0.415,0.908,0.938,0.908c0.493,0,0.898-0.416,0.898-0.908l0.408-6.101h2.94l-2.645-24.457l2.718,9.664
				c0.133,0.567,0.64,0.953,1.196,0.953c0.088,0,0.176-0.015,0.283-0.045C129.422,499.562,129.827,498.903,129.675,498.245"/>
			<path fill="#FFFFFF" d="M121.64,489.593v1.699h-1.699v-1.699h-1.699v-1.699h1.699v-1.699h1.699v1.699h1.699v1.699H121.64z"/>
		</g>
	</g>
	<g id="Layer_9">
	</g>
</g>
<g id="Chickens">
	<g id="chickens_1_">
		<path fill="#AD7739" d="M8.109,494.772c-0.168-0.578,0.441-0.426,0.441-0.426c-0.183-0.502,0.624-0.365,1.065,0.289
			s1.202,1.384,2.403,1.521c1.202,0.137,1.993,0.426,2.677-0.548c0.708-1.367,1.595-1.597,1.874-1.635l0.012-0.025
			c-0.084-0.004-0.152-0.073-0.152-0.158c0-0.078,0.057-0.14,0.131-0.154c-0.004-0.014-0.009-0.028-0.009-0.044
			c0-0.088,0.072-0.16,0.16-0.16c0.035,0,0.067,0.014,0.093,0.034c0.028-0.047,0.077-0.079,0.135-0.079
			c0.048,0,0.09,0.022,0.119,0.056c0.027-0.051,0.078-0.086,0.14-0.086c0.078,0,0.139,0.057,0.154,0.13
			c0.029-0.029,0.069-0.046,0.113-0.046c0.088,0,0.16,0.071,0.16,0.16c0,0.029-0.01,0.054-0.023,0.078
			c0.015-0.004,0.03-0.009,0.046-0.009c0.088,0,0.16,0.072,0.16,0.16c0,0.03-0.01,0.057-0.025,0.081
			c0.059,0.024,0.101,0.08,0.101,0.148c0,0.066-0.04,0.123-0.097,0.147c0.04,0.029,0.067,0.074,0.067,0.126
			c0,0.07-0.046,0.128-0.109,0.15c0.016,0.02,0.025,0.033,0.025,0.033c0.377,0.296,0.42,0.813,0.42,0.813
			c-0.295-0.251-0.547-0.221-0.555-0.22c0.224,0.454,0.078,0.661-0.063,0.647c-0.154-0.015-0.19-0.139-0.176-0.283l-0.021,0.032
			c0.03,0.852,0.538,1.08,0.354,2.148c-0.276,1.6-1.039,2.801-2.103,3.069c-0.975,0.246-0.837,1.308-1.643,1.461
			c-0.045,0.009-0.099,0.016-0.16,0.023c0.063,0.198,0.23,0.719,0.294,0.912c0.08,0.239,0.687,0.479,0.958,0.527
			s0.255,0.048,0.383,0.096s0.208,0.112,0.064,0.112s-0.559-0.032-0.639-0.032s0.319,0.208,0.383,0.319
			c0.064,0.112-0.463-0.192-0.974-0.383s-0.686,0.064-0.862,0.144c-0.163,0.074-0.319,0.048-0.192-0.064
			c0.128-0.112,0.223-0.208,0.223-0.208c-0.128-0.128-0.399-0.16-0.607-0.096s-0.575,0.208-0.495,0.032s0.559-0.128,0.559-0.335
			s-0.128-0.814-0.223-0.958c-0.046-0.07-0.134-0.121-0.213-0.154c-0.211-0.049-0.425-0.115-0.631-0.207
			c-1.232-0.289-1.293-1.247-1.551-1.521c-0.259-0.274-0.107-0.426-0.107-0.426c-0.289-0.03-0.122-0.441-0.122-0.441
			c-0.715,0.076-0.715-0.7-0.715-0.7c-0.548,0.03-0.517-0.472-0.517-0.472c-0.395-0.061-0.243-0.639-0.243-0.639
			c-0.867-0.365-0.289-0.928-0.289-0.928c-0.806-0.548-0.076-0.867-0.076-0.867c-0.776-0.076-0.289-0.639-0.289-0.639
			C7.515,494.909,8.109,494.772,8.109,494.772z M17.503,493.76c0.002-0.004,0.004-0.006,0.006-0.009
			c-0.003,0.001-0.007,0.001-0.011,0.002L17.503,493.76z M17.629,494.183L17.629,494.183
			C17.629,494.184,17.629,494.183,17.629,494.183L17.629,494.183z M13.476,503.274c0.272,0.204,0.367,0.048,0.272-0.239
			c-0.079-0.237-0.3-0.671-0.374-0.814c-0.098-0.002-0.203-0.007-0.311-0.017C13.071,502.444,13.128,503.013,13.476,503.274
			L13.476,503.274z"/>
		<path fill="#984A3C" d="M26.228,491.437c-0.141-0.488,0.372-0.359,0.372-0.359c-0.154-0.424,0.526-0.308,0.899,0.244
			c0.372,0.552,1.014,1.168,2.028,1.284s1.682,0.359,2.26-0.462c0.598-1.154,1.347-1.348,1.582-1.38l0.01-0.021
			c-0.071-0.004-0.128-0.061-0.128-0.134c0-0.066,0.048-0.118,0.11-0.13c-0.004-0.012-0.008-0.024-0.008-0.037
			c0-0.074,0.06-0.135,0.135-0.135c0.03,0,0.056,0.012,0.079,0.028c0.024-0.039,0.065-0.067,0.114-0.067
			c0.041,0,0.076,0.019,0.1,0.047c0.023-0.043,0.066-0.073,0.118-0.073c0.065,0,0.118,0.048,0.13,0.11
			c0.024-0.024,0.058-0.039,0.095-0.039c0.074,0,0.135,0.06,0.135,0.135c0,0.024-0.008,0.046-0.019,0.066
			c0.013-0.004,0.025-0.008,0.039-0.008c0.074,0,0.135,0.06,0.135,0.135c0,0.025-0.009,0.048-0.021,0.068
			c0.05,0.02,0.085,0.068,0.085,0.125c0,0.056-0.034,0.104-0.082,0.124c0.034,0.025,0.057,0.062,0.057,0.107
			c0,0.059-0.039,0.108-0.092,0.126c0.014,0.017,0.021,0.028,0.021,0.028c0.318,0.25,0.354,0.686,0.354,0.686
			c-0.249-0.212-0.461-0.186-0.469-0.185c0.189,0.384,0.066,0.558-0.053,0.546c-0.13-0.013-0.16-0.117-0.149-0.239l-0.018,0.027
			c0.026,0.719,0.454,0.911,0.299,1.813c-0.233,1.35-0.877,2.364-1.775,2.59c-0.823,0.207-0.706,1.104-1.387,1.233
			c-0.038,0.007-0.084,0.014-0.135,0.019c0.053,0.167,0.194,0.607,0.248,0.769c0.067,0.202,0.579,0.404,0.809,0.445
			c0.229,0.04,0.215,0.04,0.323,0.081s0.175,0.094,0.054,0.094s-0.472-0.027-0.539-0.027s0.27,0.175,0.324,0.27
			s-0.391-0.162-0.822-0.324c-0.431-0.161-0.579,0.054-0.728,0.121c-0.137,0.062-0.27,0.041-0.162-0.054
			c0.108-0.094,0.189-0.175,0.189-0.175c-0.108-0.108-0.337-0.135-0.512-0.081c-0.175,0.054-0.485,0.175-0.418,0.027
			c0.068-0.148,0.472-0.108,0.472-0.283s-0.108-0.687-0.189-0.809c-0.039-0.059-0.113-0.102-0.18-0.13
			c-0.178-0.041-0.358-0.098-0.532-0.175c-1.04-0.244-1.091-1.053-1.309-1.284s-0.09-0.359-0.09-0.359
			c-0.244-0.026-0.103-0.372-0.103-0.372c-0.603,0.064-0.603-0.59-0.603-0.59c-0.462,0.026-0.437-0.398-0.437-0.398
			c-0.334-0.051-0.205-0.539-0.205-0.539c-0.732-0.308-0.244-0.783-0.244-0.783c-0.68-0.462-0.064-0.732-0.064-0.732
			c-0.655-0.064-0.244-0.539-0.244-0.539C25.728,491.553,26.228,491.437,26.228,491.437L26.228,491.437z M34.157,490.584
			c0.001-0.003,0.004-0.005,0.005-0.008c-0.003,0.001-0.006,0.001-0.009,0.002L34.157,490.584z M34.264,490.94L34.264,490.94
			C34.264,490.941,34.264,490.94,34.264,490.94C34.264,490.941,34.264,490.94,34.264,490.94z M30.759,498.613
			c0.229,0.172,0.31,0.04,0.229-0.202c-0.067-0.2-0.253-0.566-0.316-0.687c-0.083-0.002-0.171-0.006-0.263-0.014
			C30.416,497.913,30.465,498.393,30.759,498.613L30.759,498.613z"/>
		<path fill="#C38923" d="M23.941,489.907c0.084-0.291-0.222-0.214-0.222-0.214c0.092-0.253-0.314-0.184-0.536,0.145
			c-0.222,0.329-0.605,0.697-1.21,0.766c-0.605,0.069-1.003,0.214-1.347-0.276c-0.357-0.688-0.803-0.804-0.943-0.823l-0.006-0.012
			c0.042-0.002,0.077-0.037,0.077-0.08c0-0.039-0.029-0.07-0.066-0.077c0.002-0.007,0.004-0.014,0.004-0.022
			c0-0.044-0.036-0.08-0.08-0.08c-0.018,0-0.034,0.007-0.047,0.017c-0.014-0.023-0.039-0.04-0.068-0.04
			c-0.024,0-0.045,0.011-0.06,0.028c-0.013-0.025-0.039-0.043-0.07-0.043c-0.039,0-0.07,0.029-0.077,0.066
			c-0.015-0.014-0.035-0.023-0.057-0.023c-0.044,0-0.08,0.036-0.08,0.08c0,0.014,0.005,0.027,0.012,0.039
			c-0.007-0.002-0.015-0.005-0.023-0.005c-0.044,0-0.08,0.036-0.08,0.08c0,0.015,0.005,0.029,0.013,0.041
			c-0.03,0.012-0.051,0.04-0.051,0.074c0,0.033,0.02,0.062,0.049,0.074c-0.02,0.015-0.034,0.037-0.034,0.064
			c0,0.035,0.023,0.064,0.055,0.075c-0.008,0.01-0.013,0.017-0.013,0.017c-0.19,0.149-0.211,0.409-0.211,0.409
			c0.148-0.126,0.275-0.111,0.28-0.111c-0.113,0.229-0.039,0.333,0.032,0.326c0.078-0.008,0.095-0.07,0.089-0.143l0.011,0.016
			c-0.015,0.429-0.271,0.543-0.178,1.081c0.139,0.805,0.523,1.41,1.059,1.545c0.491,0.124,0.421,0.658,0.827,0.735
			c0.023,0.004,0.05,0.008,0.08,0.012c-0.032,0.099-0.116,0.362-0.148,0.459c-0.04,0.121-0.346,0.241-0.482,0.265
			c-0.137,0.024-0.128,0.024-0.193,0.048c-0.064,0.024-0.105,0.056-0.032,0.056s0.281-0.016,0.321-0.016
			c0.04,0-0.161,0.105-0.193,0.161c-0.032,0.056,0.233-0.096,0.49-0.193c0.257-0.096,0.345,0.032,0.434,0.072
			c0.082,0.037,0.161,0.024,0.096-0.032c-0.064-0.056-0.112-0.104-0.112-0.104c0.064-0.064,0.201-0.08,0.305-0.048
			c0.104,0.032,0.289,0.105,0.249,0.016c-0.04-0.088-0.281-0.064-0.281-0.169c0-0.104,0.064-0.41,0.112-0.482
			c0.023-0.035,0.068-0.061,0.107-0.078c0.106-0.024,0.214-0.058,0.317-0.104c0.62-0.145,0.651-0.628,0.781-0.766
			s0.054-0.214,0.054-0.214c0.145-0.015,0.061-0.222,0.061-0.222c0.36,0.038,0.36-0.352,0.36-0.352
			c0.276,0.015,0.26-0.237,0.26-0.237c0.199-0.031,0.122-0.322,0.122-0.322c0.436-0.184,0.146-0.467,0.146-0.467
			c0.406-0.276,0.038-0.436,0.038-0.436c0.39-0.038,0.146-0.322,0.146-0.322C24.239,489.976,23.941,489.907,23.941,489.907
			L23.941,489.907z M19.212,489.397c-0.001-0.002-0.002-0.003-0.003-0.005c0.002,0,0.004,0.001,0.005,0.001L19.212,489.397z
			 M19.149,489.61L19.149,489.61L19.149,489.61L19.149,489.61z M21.239,494.186c-0.137,0.103-0.185,0.024-0.137-0.12
			c0.04-0.119,0.151-0.338,0.188-0.41c0.049-0.001,0.102-0.003,0.157-0.008C21.443,493.768,21.414,494.054,21.239,494.186
			L21.239,494.186z"/>
		<path fill="#E9A721" d="M37.803,499.044c0.297-1.026-0.782-0.756-0.782-0.756c0.324-0.891-1.107-0.648-1.89,0.513
			s-2.133,2.457-4.265,2.7c-2.133,0.243-3.537,0.756-4.751-0.972c-1.257-2.426-2.831-2.834-3.326-2.902l-0.022-0.044
			c0.15-0.008,0.27-0.129,0.27-0.281c0-0.138-0.101-0.248-0.232-0.273c0.007-0.025,0.016-0.051,0.016-0.078
			c0-0.156-0.127-0.283-0.284-0.283c-0.063,0-0.118,0.024-0.165,0.06c-0.049-0.083-0.136-0.141-0.239-0.141
			c-0.085,0-0.159,0.039-0.211,0.099c-0.047-0.09-0.139-0.153-0.248-0.153c-0.138,0-0.247,0.101-0.273,0.231
			c-0.051-0.051-0.122-0.082-0.2-0.082c-0.156,0-0.283,0.127-0.283,0.283c0,0.051,0.017,0.096,0.041,0.138
			c-0.026-0.008-0.052-0.016-0.081-0.016c-0.156,0-0.283,0.127-0.283,0.283c0,0.053,0.019,0.1,0.044,0.143
			c-0.105,0.042-0.179,0.143-0.179,0.262c0,0.117,0.071,0.218,0.173,0.261c-0.07,0.052-0.119,0.131-0.119,0.224
			c0,0.125,0.082,0.227,0.193,0.266c-0.028,0.036-0.045,0.059-0.045,0.059c-0.669,0.526-0.745,1.443-0.745,1.443
			c0.523-0.445,0.97-0.392,0.986-0.39c-0.397,0.807-0.139,1.173,0.112,1.149c0.274-0.027,0.337-0.246,0.313-0.503l0.037,0.057
			c-0.054,1.512-0.955,1.916-0.628,3.812c0.489,2.839,1.844,4.971,3.733,5.447c1.73,0.436,1.485,2.322,2.916,2.593
			c0.081,0.015,0.176,0.029,0.284,0.041c-0.112,0.351-0.408,1.277-0.522,1.618c-0.142,0.425-1.219,0.85-1.7,0.935
			c-0.482,0.085-0.453,0.085-0.68,0.17c-0.227,0.085-0.369,0.199-0.114,0.199s0.992-0.057,1.134-0.057s-0.567,0.369-0.68,0.567
			c-0.114,0.199,0.822-0.34,1.729-0.68c0.907-0.339,1.218,0.113,1.53,0.255c0.289,0.131,0.567,0.085,0.34-0.113
			s-0.396-0.368-0.396-0.368c0.227-0.227,0.708-0.284,1.077-0.17c0.368,0.114,1.02,0.369,0.879,0.057
			c-0.142-0.312-0.992-0.227-0.992-0.595s0.226-1.445,0.396-1.7c0.082-0.124,0.239-0.214,0.378-0.274
			c0.374-0.086,0.754-0.205,1.119-0.368c2.186-0.513,2.294-2.214,2.753-2.7c0.459-0.486,0.189-0.756,0.189-0.756
			c0.513-0.054,0.216-0.783,0.216-0.783c1.268,0.135,1.269-1.242,1.269-1.242c0.972,0.054,0.918-0.837,0.918-0.837
			c0.702-0.108,0.432-1.134,0.432-1.134c1.539-0.648,0.513-1.647,0.513-1.647c1.431-0.972,0.135-1.539,0.135-1.539
			c1.377-0.135,0.513-1.134,0.513-1.134C38.856,499.287,37.803,499.044,37.803,499.044L37.803,499.044z M21.13,497.249
			c-0.003-0.006-0.008-0.011-0.011-0.017c0.006,0.002,0.013,0.002,0.019,0.004L21.13,497.249z M20.905,497.999V498V497.999
			C20.905,498,20.905,497.999,20.905,497.999z M28.277,514.134c-0.482,0.362-0.652,0.085-0.482-0.425
			c0.141-0.421,0.533-1.191,0.664-1.445c0.174-0.003,0.359-0.012,0.552-0.029C28.996,512.661,28.894,513.671,28.277,514.134z"/>
	</g>
</g>
<g id="Lake">
	<path fill="#63A3C8" d="M408.202,414.664c64.083,0.516,114.025,4.668,114.025,9.714c0,5.395-57.088,9.768-127.51,9.768
		c-51.91,0-96.575-2.376-116.47-5.786c-6.288,0.15-12.872,0.229-19.654,0.229c-44.132,0-79.909-3.369-79.909-7.525
		s35.776-7.525,79.909-7.525c6.902,0,13.599,0.082,19.987,0.237c7.64-2.721,33.358-4.723,63.908-4.723
		C376.278,409.053,404.156,411.502,408.202,414.664L408.202,414.664z"/>
</g>
<g id="Random_Trees">
	<g id="Tree">
		<g id="Layer_1_1_">
			<path fill="#D0B069" d="M248.242,417.007c0.003-0.003,6.526-0.006,6.526-0.006c-0.211,1.061-0.869,2.93-2.901,4.576
				c-3.087,2.5-8.24,3.767-15.32,3.767c-3.034,0-5.416,0.936-7.283,2.864c-2.789,2.881-3.873,7.353-4.293,10.618l1.557,25.015v0.006
				c0,1.164-4.58,2.104-10.229,2.104s-10.231-0.941-10.231-2.104c0-0.002,0.002-0.003,0.002-0.006h-0.005l2.19-32.4l-0.016-0.002
				c0.003-0.092,0.259-9.778-4.547-14.743c-1.866-1.928-4.249-2.862-7.283-2.862c-7.08,0-12.234-1.27-15.32-3.767
				c-2.151-1.744-2.808-3.731-2.978-4.762l6.339,0.002c0.209,0.192,0.525,0.505,0.88,0.722c1.533,0.936,4.7,2.05,11.079,2.05
				c4.62,0,8.467,1.56,11.433,4.636c2.056,2.131,3.427,4.754,4.342,7.364c0.122-2.38,0.513-4.517,1.17-6.38
				c0.443-1.259,1.014-2.401,1.699-3.421c-1.419-0.691-2.876-1.649-4.219-2.979c-0.588-0.586-1.231-1.156-1.618-1.889
				c-0.769-1.456-2.422-4.537-2.995-6.849c-0.22-0.889-0.238-2.637-0.342-3.577h4.493c0.465,3.518,1.604,7.162,3.605,9.152
				c1.405,1.393,3.018,2.224,4.459,2.722c0.713-0.485,1.48-0.9,2.301-1.232c4.123-1.68,7.603-4.101,10.059-7.004
				c1.635-1.928,2.709-4.06,3.118-5.971l9.164-0.002c-0.869,8.534-8.258,17.025-18.922,21.369
				c-3.697,1.505-3.276,9.284-2.204,14.751c0.813-1.63,1.844-3.187,3.152-4.545c2.968-3.076,6.816-4.634,11.437-4.634
				C244.053,419.587,247.097,417.935,248.242,417.007L248.242,417.007z"/>
			<path fill="#5C8561" d="M270.032,416.996h-37.733c1.6-3.542,5.289-6.458,10.083-8.085c0.866-2.015,3.444-3.477,6.49-3.477
				c2.397,0,4.505,0.906,5.715,2.274c1.396,0.168,2.739,0.434,4.017,0.789c0.775-0.371,1.696-0.586,2.686-0.586
				c2.742,0,4.966,1.646,4.966,3.678c0,0.218-0.03,0.432-0.076,0.641C267.901,413.608,269.229,415.224,270.032,416.996
				L270.032,416.996z M200.101,395.014c2.271,0.941,6.06,3.2,6.121,3.444c0.573,2.312,2.226,5.393,2.995,6.849
				c0.04,0.076,0.083,0.151,0.129,0.224c-0.056-0.074-0.112-0.149-0.167-0.224l-48.803-0.002c1.385-3.07,3.921-5.796,7.266-7.946
				c-0.406-0.716-0.629-1.497-0.629-2.315c0-3.453,3.949-6.25,8.822-6.25c1.839,0,3.542,0.398,4.954,1.079
				c1.513-1.497,3.332-2.836,5.397-3.978c0.402-1.903,2.436-3.352,4.888-3.352c0.842,0,1.635,0.172,2.329,0.473
				c3.16-0.853,6.606-1.324,10.215-1.324c1.452,0,2.878,0.076,4.271,0.223c0.49-0.295,1.093-0.474,1.75-0.474
				c1.073,0,2.009,0.468,2.522,1.167c0.017,0.005,0.033,0.008,0.048,0.011c4.313-3.092,9.755-5.445,15.879-6.752
				c-0.031-0.137-0.055-0.275-0.073-0.413c-0.484-3.828,3.366-7.47,8.605-8.134c4.243-0.538,8.094,1.045,9.66,3.7
				c0.825-0.154,1.705-0.239,2.616-0.239c4.873,0,8.822,2.387,8.822,5.33c0,0.608-0.17,1.192-0.482,1.734
				c8.4,3.154,14.826,8.448,17.698,14.804l-46.167,0.002c0.519,0.763,0.967,1.552,1.332,2.365L200.101,395.014L200.101,395.014z"/>
		</g>
	</g>
	<g id="Tree_2_">
		<g id="Layer_1_3_">
			<path fill="#D0B069" d="M300.862,432.323c-0.003-0.003-5.42-0.006-5.42-0.006c0.175,0.985,0.722,2.72,2.41,4.247
				c2.564,2.321,6.844,3.497,12.724,3.497c2.52,0,4.498,0.869,6.049,2.658c2.316,2.674,3.217,6.825,3.565,9.856l-1.293,23.22v0.006
				c0,1.08,3.804,1.953,8.496,1.953s8.497-0.873,8.497-1.953c0-0.001-0.001-0.003-0.001-0.006h0.004l-1.819-30.075l0.013-0.001
				c-0.003-0.085-0.215-9.077,3.776-13.685c1.549-1.79,3.529-2.657,6.049-2.657c5.88,0,10.161-1.179,12.724-3.497
				c1.786-1.619,2.332-3.463,2.474-4.42l-5.265,0.001c-0.174,0.178-0.436,0.469-0.731,0.67c-1.273,0.869-3.903,1.903-9.202,1.903
				c-3.837,0-7.032,1.448-9.496,4.303c-1.707,1.978-2.846,4.413-3.607,6.835c-0.101-2.209-0.426-4.193-0.972-5.922
				c-0.368-1.168-0.842-2.228-1.411-3.175c1.179-0.641,2.389-1.53,3.504-2.765c0.488-0.544,1.022-1.073,1.343-1.753
				c0.638-1.352,2.011-4.212,2.487-6.358c0.183-0.825,0.198-2.448,0.284-3.32h-3.732c-0.386,3.266-1.332,6.648-2.995,8.495
				c-1.167,1.293-2.507,2.065-3.704,2.527c-0.592-0.45-1.229-0.835-1.911-1.144c-3.424-1.559-6.314-3.806-8.355-6.501
				c-1.358-1.79-2.25-3.769-2.59-5.542l-7.611-0.001c0.722,7.921,6.858,15.803,15.716,19.835c3.07,1.397,2.721,8.618,1.831,13.693
				c-0.675-1.513-1.531-2.958-2.618-4.219c-2.465-2.855-5.661-4.302-9.499-4.302C304.341,434.718,301.813,433.184,300.862,432.323
				L300.862,432.323z"/>
			<path fill="#5C8561" d="M282.764,432.313h31.34c-1.329-3.288-4.393-5.994-8.374-7.504c-0.719-1.871-2.861-3.227-5.391-3.227
				c-1.991,0-3.741,0.841-4.747,2.111c-1.159,0.156-2.275,0.402-3.336,0.733c-0.644-0.345-1.408-0.544-2.231-0.544
				c-2.277,0-4.125,1.528-4.125,3.414c0,0.203,0.025,0.401,0.063,0.595C284.534,429.168,283.431,430.668,282.764,432.313
				L282.764,432.313z M340.845,411.908c-1.886,0.873-5.033,2.971-5.084,3.197c-0.476,2.146-1.849,5.006-2.487,6.358
				c-0.034,0.071-0.069,0.14-0.107,0.208c0.047-0.069,0.093-0.138,0.138-0.208l40.534-0.001c-1.15-2.849-3.257-5.38-6.034-7.375
				c0.337-0.665,0.522-1.39,0.522-2.149c0-3.206-3.28-5.802-7.327-5.802c-1.527,0-2.942,0.369-4.115,1.002
				c-1.257-1.39-2.767-2.632-4.482-3.692c-0.334-1.766-2.024-3.111-4.06-3.111c-0.7,0-1.358,0.159-1.934,0.439
				c-2.625-0.792-5.486-1.229-8.484-1.229c-1.206,0-2.39,0.071-3.547,0.207c-0.407-0.274-0.908-0.44-1.454-0.44
				c-0.891,0-1.669,0.434-2.095,1.083c-0.014,0.004-0.027,0.007-0.04,0.01c-3.582-2.87-8.102-5.055-13.188-6.268
				c0.026-0.127,0.045-0.255,0.061-0.384c0.402-3.553-2.796-6.934-7.147-7.551c-3.524-0.5-6.722,0.97-8.023,3.434
				c-0.685-0.143-1.416-0.222-2.173-0.222c-4.047,0-7.327,2.215-7.327,4.947c0,0.565,0.141,1.106,0.4,1.61
				c-6.976,2.928-12.314,7.842-14.699,13.742l38.344,0.001c-0.431,0.708-0.803,1.441-1.106,2.195L340.845,411.908L340.845,411.908z"
				/>
		</g>
	</g>
	<g id="Tree_1_">
		<g id="Layer_1_2_">
			<path fill="#D0B069" d="M276.938,466.344c-0.003-0.003-5.42-0.006-5.42-0.006c0.175,0.985,0.722,2.72,2.41,4.247
				c2.564,2.321,6.844,3.497,12.724,3.497c2.52,0,4.498,0.869,6.049,2.658c2.316,2.674,3.217,6.825,3.565,9.856l-1.293,23.22v0.006
				c0,1.08,3.804,1.953,8.496,1.953s8.497-0.873,8.497-1.953c0-0.001-0.001-0.003-0.001-0.006h0.004l-1.819-30.075l0.013-0.001
				c-0.003-0.085-0.215-9.077,3.776-13.685c1.549-1.79,3.529-2.657,6.049-2.657c5.88,0,10.161-1.179,12.724-3.497
				c1.786-1.619,2.332-3.463,2.474-4.42l-5.265,0.001c-0.174,0.178-0.436,0.469-0.731,0.67c-1.273,0.869-3.903,1.903-9.202,1.903
				c-3.837,0-7.032,1.448-9.496,4.303c-1.707,1.978-2.846,4.413-3.607,6.835c-0.101-2.209-0.426-4.193-0.972-5.922
				c-0.368-1.168-0.842-2.228-1.411-3.175c1.179-0.641,2.389-1.53,3.504-2.765c0.488-0.544,1.022-1.073,1.343-1.753
				c0.638-1.352,2.011-4.212,2.487-6.358c0.183-0.825,0.198-2.448,0.284-3.32h-3.732c-0.386,3.266-1.332,6.648-2.995,8.495
				c-1.167,1.293-2.507,2.065-3.704,2.527c-0.592-0.45-1.229-0.835-1.911-1.144c-3.424-1.559-6.314-3.806-8.355-6.501
				c-1.358-1.79-2.25-3.769-2.59-5.542l-7.611-0.001c0.722,7.921,6.858,15.803,15.716,19.835c3.07,1.397,2.721,8.618,1.831,13.693
				c-0.675-1.513-1.531-2.958-2.618-4.219c-2.465-2.855-5.661-4.302-9.499-4.302C280.416,468.739,277.889,467.206,276.938,466.344
				L276.938,466.344z"/>
			<path fill="#5C8561" d="M258.84,466.334h31.34c-1.329-3.288-4.393-5.994-8.374-7.504c-0.719-1.871-2.86-3.227-5.391-3.227
				c-1.991,0-3.741,0.841-4.747,2.111c-1.159,0.156-2.275,0.402-3.336,0.733c-0.644-0.345-1.408-0.544-2.231-0.544
				c-2.277,0-4.125,1.528-4.125,3.414c0,0.203,0.025,0.401,0.063,0.595C260.609,463.189,259.507,464.689,258.84,466.334
				L258.84,466.334z M316.921,445.929c-1.886,0.873-5.033,2.971-5.084,3.197c-0.476,2.146-1.849,5.006-2.487,6.358
				c-0.034,0.071-0.069,0.14-0.107,0.208c0.047-0.069,0.093-0.138,0.138-0.208l40.534-0.001c-1.15-2.849-3.257-5.38-6.034-7.375
				c0.337-0.665,0.522-1.39,0.522-2.149c0-3.206-3.28-5.802-7.327-5.802c-1.527,0-2.942,0.369-4.115,1.002
				c-1.257-1.39-2.767-2.632-4.482-3.692c-0.334-1.766-2.024-3.111-4.06-3.111c-0.7,0-1.358,0.159-1.934,0.439
				c-2.625-0.792-5.486-1.229-8.484-1.229c-1.206,0-2.39,0.071-3.547,0.207c-0.407-0.274-0.908-0.44-1.454-0.44
				c-0.891,0-1.669,0.434-2.095,1.083c-0.014,0.004-0.027,0.007-0.04,0.01c-3.582-2.87-8.102-5.055-13.188-6.268
				c0.026-0.127,0.045-0.255,0.061-0.384c0.402-3.553-2.796-6.934-7.147-7.551c-3.524-0.5-6.722,0.97-8.023,3.434
				c-0.685-0.143-1.416-0.222-2.173-0.222c-4.047,0-7.327,2.215-7.327,4.947c0,0.565,0.141,1.106,0.4,1.61
				c-6.976,2.928-12.314,7.842-14.699,13.742l38.344,0.001c-0.431,0.708-0.803,1.441-1.106,2.195L316.921,445.929L316.921,445.929z"
				/>
		</g>
	</g>
	<g id="Tree_3_">
		<g id="Layer_1_4_">
			<path fill="#D0B069" d="M417.241,405.431c0.003-0.004,6.723-0.008,6.723-0.008c-0.217,1.366-0.895,3.773-2.989,5.891
				c-3.18,3.219-8.489,4.85-15.783,4.85c-3.125,0-5.579,1.205-7.503,3.687c-2.873,3.71-3.99,9.468-4.422,13.671l1.604,32.209v0.008
				c0,1.498-4.718,2.709-10.538,2.709s-10.54-1.211-10.54-2.709c0-0.002,0.002-0.004,0.002-0.008h-0.005l2.256-41.719l-0.016-0.002
				c0.003-0.118,0.267-12.591-4.684-18.983c-1.922-2.482-4.377-3.685-7.503-3.685c-7.294,0-12.603-1.635-15.783-4.85
				c-2.216-2.245-2.893-4.804-3.068-6.131l6.53,0.002c0.215,0.247,0.54,0.65,0.907,0.93c1.58,1.205,4.842,2.639,11.414,2.639
				c4.76,0,8.722,2.008,11.778,5.969c2.118,2.743,3.53,6.122,4.474,9.482c0.125-3.065,0.529-5.816,1.205-8.214
				c0.456-1.621,1.044-3.091,1.75-4.404c-1.462-0.89-2.963-2.123-4.347-3.836c-0.606-0.755-1.268-1.488-1.666-2.432
				c-0.792-1.875-2.495-5.842-3.085-8.819c-0.227-1.144-0.245-3.395-0.352-4.606h4.629c0.479,4.53,1.652,9.221,3.714,11.784
				c1.448,1.793,3.109,2.864,4.594,3.505c0.734-0.625,1.525-1.159,2.37-1.587c4.247-2.163,7.832-5.28,10.363-9.018
				c1.684-2.482,2.791-5.227,3.212-7.688l9.44-0.002c-0.895,10.988-8.507,21.921-19.493,27.515
				c-3.808,1.938-3.374,11.954-2.271,18.994c0.837-2.099,1.899-4.103,3.247-5.853c3.058-3.961,7.022-5.967,11.782-5.967
				C412.927,408.753,416.062,406.626,417.241,405.431L417.241,405.431z"/>
			<path fill="#5C8561" d="M439.689,405.417h-38.872c1.649-4.561,5.449-8.315,10.387-10.41c0.892-2.595,3.548-4.477,6.686-4.477
				c2.47,0,4.641,1.167,5.888,2.928c1.438,0.217,2.822,0.558,4.138,1.016c0.799-0.478,1.747-0.755,2.767-0.755
				c2.825,0,5.116,2.119,5.116,4.736c0,0.281-0.031,0.556-0.079,0.825C437.494,401.055,438.862,403.135,439.689,405.417
				L439.689,405.417z M367.648,377.112c2.34,1.211,6.243,4.121,6.305,4.435c0.59,2.976,2.293,6.944,3.085,8.819
				c0.042,0.098,0.086,0.195,0.133,0.289c-0.058-0.095-0.115-0.192-0.172-0.289l-50.276-0.002c1.427-3.953,4.04-7.463,7.485-10.231
				c-0.418-0.922-0.648-1.928-0.648-2.98c0-4.447,4.069-8.048,9.089-8.048c1.895,0,3.649,0.512,5.103,1.39
				c1.559-1.928,3.432-3.651,5.56-5.121c0.415-2.45,2.51-4.316,5.036-4.316c0.868,0,1.684,0.221,2.399,0.609
				c3.256-1.099,6.805-1.705,10.523-1.705c1.496,0,2.965,0.098,4.4,0.287c0.505-0.38,1.126-0.611,1.803-0.611
				c1.106,0,2.07,0.603,2.598,1.502c0.018,0.006,0.034,0.01,0.05,0.014c4.443-3.981,10.049-7.011,16.358-8.694
				c-0.032-0.177-0.056-0.353-0.076-0.532c-0.498-4.929,3.468-9.618,8.865-10.474c4.371-0.693,8.338,1.346,9.951,4.764
				c0.85-0.199,1.756-0.307,2.695-0.307c5.02,0,9.089,3.073,9.089,6.863c0,0.783-0.175,1.534-0.497,2.233
				c8.653,4.061,15.273,10.878,18.232,19.062l-47.56,0.002c0.535,0.982,0.996,1.998,1.372,3.045L367.648,377.112L367.648,377.112z"
				/>
		</g>
	</g>
	<g id="Tree_4_">
		<g id="Layer_1_5_">
			<path fill="#D0B069" d="M439.594,468.248c0.003-0.003,6.184-0.007,6.184-0.007c-0.2,1.169-0.823,3.23-2.749,5.044
				c-2.925,2.756-7.809,4.152-14.518,4.152c-2.875,0-5.132,1.032-6.901,3.157c-2.643,3.176-3.67,8.105-4.068,11.704l1.475,27.574
				v0.007c0,1.283-4.34,2.319-9.693,2.319s-9.695-1.037-9.695-2.319c0-0.002,0.001-0.003,0.001-0.007h-0.004l2.075-35.716
				l-0.015-0.002c0.003-0.101,0.245-10.779-4.309-16.252c-1.768-2.125-4.026-3.155-6.901-3.155c-6.709,0-11.593-1.4-14.518-4.152
				c-2.038-1.922-2.661-4.113-2.822-5.249l6.007,0.002c0.198,0.211,0.497,0.557,0.834,0.796c1.453,1.032,4.454,2.259,10.499,2.259
				c4.378,0,8.023,1.719,10.835,5.11c1.948,2.349,3.247,5.241,4.115,8.117c0.115-2.624,0.486-4.979,1.109-7.032
				c0.42-1.388,0.961-2.646,1.61-3.771c-1.345-0.762-2.726-1.817-3.998-3.284c-0.557-0.647-1.166-1.274-1.533-2.082
				c-0.728-1.605-2.295-5.002-2.838-7.55c-0.209-0.98-0.226-2.907-0.324-3.943h4.258c0.441,3.878,1.52,7.895,3.417,10.088
				c1.332,1.535,2.86,2.452,4.226,3c0.676-0.535,1.403-0.992,2.18-1.358c3.907-1.852,7.204-4.52,9.532-7.72
				c1.549-2.125,2.567-4.475,2.955-6.582l8.684-0.002c-0.823,9.407-7.825,18.767-17.931,23.556
				c-3.503,1.659-3.104,10.234-2.089,16.261c0.77-1.797,1.747-3.513,2.987-5.01c2.813-3.391,6.459-5.108,10.838-5.108
				C435.625,471.093,438.509,469.271,439.594,468.248L439.594,468.248z"/>
			<path fill="#5C8561" d="M460.243,468.236h-35.757c1.517-3.905,5.012-7.118,9.555-8.912c0.82-2.221,3.264-3.833,6.15-3.833
				c2.272,0,4.269,0.999,5.416,2.507c1.323,0.186,2.596,0.478,3.806,0.87c0.735-0.409,1.607-0.646,2.545-0.646
				c2.599,0,4.706,1.814,4.706,4.054c0,0.241-0.028,0.476-0.072,0.707C458.224,464.502,459.482,466.283,460.243,468.236
				L460.243,468.236z M393.975,444.004c2.152,1.037,5.743,3.528,5.8,3.796c0.543,2.548,2.109,5.945,2.838,7.55
				c0.038,0.084,0.079,0.167,0.122,0.247c-0.053-0.082-0.106-0.164-0.158-0.247l-46.247-0.002c1.313-3.384,3.716-6.389,6.885-8.759
				c-0.384-0.789-0.596-1.651-0.596-2.552c0-3.807,3.743-6.89,8.36-6.89c1.743,0,3.357,0.438,4.694,1.19
				c1.434-1.651,3.157-3.126,5.114-4.385c0.381-2.098,2.309-3.695,4.632-3.695c0.798,0,1.549,0.189,2.207,0.521
				c2.995-0.941,6.26-1.46,9.68-1.46c1.376,0,2.727,0.084,4.047,0.246c0.464-0.325,1.036-0.523,1.658-0.523
				c1.017,0,1.904,0.516,2.39,1.286c0.016,0.005,0.031,0.009,0.046,0.012c4.087-3.408,9.244-6.002,15.047-7.443
				c-0.03-0.151-0.052-0.303-0.069-0.456c-0.458-4.219,3.19-8.234,8.155-8.967c4.02-0.593,7.67,1.152,9.154,4.078
				c0.782-0.17,1.616-0.263,2.479-0.263c4.618,0,8.36,2.631,8.36,5.875c0,0.671-0.161,1.314-0.457,1.912
				c7.96,3.477,14.049,9.312,16.771,16.319L421.14,441.4c0.492,0.841,0.916,1.711,1.262,2.607L393.975,444.004L393.975,444.004z"/>
		</g>
	</g>
</g>
<g id="Kids">
	<g id="soccer-kids">
		<path d="M241.041,490.536c-0.506-1.039-1.538-1.685-2.694-1.685c-0.455,0-0.895,0.102-1.308,0.303
			c-1.483,0.723-2.102,2.519-1.379,4.004c0.506,1.039,1.538,1.685,2.694,1.685c0.455,0,0.895-0.102,1.308-0.303
			C241.146,493.817,241.764,492.021,241.041,490.536z M239.952,490.05l-0.309,0.94l-0.966,0.119l-0.874-0.644l0.165-0.675
			l1.151-0.255L239.952,490.05L239.952,490.05z M237.122,489.322c0.387-0.188,0.799-0.284,1.226-0.284
			c0.179,0,0.355,0.017,0.527,0.049l0.107,0.287l-1.086,0.241l-0.795-0.04l-0.027-0.228
			C237.089,489.339,237.105,489.33,237.122,489.322L237.122,489.322z M237.671,490.599l0.876,0.646l-0.178,0.917l-1.145,0.379
			l-0.579-0.383l0.209-1.307L237.671,490.599L237.671,490.599z M236.897,489.445l0.024,0.207l-0.543,0.615l-0.411,0.1
			C236.194,489.999,236.508,489.68,236.897,489.445L236.897,489.445z M235.843,490.589l0.561-0.136l0.271,0.336l-0.214,1.337
			l-0.439,0.214l-0.47-0.305C235.519,491.533,235.622,491.033,235.843,490.589L235.843,490.589z M236.259,493.72
			c-0.169-0.19-0.314-0.406-0.43-0.644c-0.126-0.26-0.209-0.529-0.251-0.801l0.388,0.252l0.371,0.761L236.259,493.72z
			 M238.355,494.656c-0.739,0-1.425-0.282-1.936-0.771l0.08-0.436l0.724,0.203l1.18,0.806l0.018,0.196
			C238.399,494.654,238.377,494.656,238.355,494.656L238.355,494.656z M239.266,493.905l-0.783,0.382l-1.122-0.766l-0.038-0.817
			l1.116-0.37l0.827,0.458V493.905L239.266,493.905L239.266,493.905z M240.128,494.02l-0.676-0.147v-1.084l0.73-0.674l0.952,0.08
			C241.045,492.899,240.692,493.559,240.128,494.02L240.128,494.02z M240.21,491.931l-0.406-0.833l0.328-0.998l0.435,0.023
			c0.117,0.152,0.22,0.317,0.307,0.495c0.218,0.448,0.305,0.927,0.278,1.392L240.21,491.931L240.21,491.931z"/>
		<path fill="#E9A721" d="M260.126,468.361c-1.576,0-2.845,1.269-2.845,2.845s1.269,2.845,2.845,2.845s2.845-1.269,2.845-2.845
			S261.702,468.361,260.126,468.361z"/>
		<path fill="#78B1B1" d="M247.497,470.071c-1.576,0-2.845,1.269-2.845,2.845s1.269,2.845,2.845,2.845s2.845-1.269,2.845-2.845
			S249.073,470.071,247.497,470.071z"/>
		<path fill="#B5BD21" d="M235.58,465.486c1.271,0,2.294,1.023,2.294,2.294s-1.023,2.294-2.294,2.294
			c-1.271,0-2.295-1.023-2.295-2.294S234.309,465.486,235.58,465.486z"/>
		<path fill="#78B1B1" d="M245.465,476.575c-0.813,0-1.197,0.384-1.626,0.813l-3.455,3.455c-0.445,0.445-0.61,0.843-0.61,1.423
			c0,0.813,1.243,1.196,1.931,0.508l2.947-2.947c1.626,0,2.235,4.065,1.626,5.691l-2.439,6.504c-0.676,1.801,1.86,2.355,2.439,0.813
			l2.439-6.503c0,0,0.813,1.626,2.439,1.626h4.878c1.626,0,1.626-2.439,0-2.439h-4.065c-0.813,0-0.813-1.626-0.813-2.439
			c0-3.251-1.626-6.503-3.251-6.503L245.465,476.575L245.465,476.575L245.465,476.575z"/>
		<path fill="#E9A721" d="M262.158,474.864c-0.606,0-1.604,0.219-2.439,0.813l-5.284,3.76c-1.434,1.02-0.118,2.816,1.219,1.931
			l3.456-2.286c0,0,2.277,4.884,1.422,7.164c-0.028,0.076-0.053,0.145-0.05,0.203l-3.557,9.45c-0.408,1.089,0.377,1.739,1.168,1.728
			c0.519-0.007,1.016-0.314,1.271-0.915l4.42-10.467c0,0,0.813,4.877,4.064,4.878c1.954,0,3.388,0,4.471,0
			c1.219,0,1.219-1.22,1.219-1.22s0-1.219-1.219-1.219c-0.813,0-2.845,0-3.658,0c-1.735,0-1.626-2.605-1.626-4.065
			c0-2.439-1.627-6.503-1.627-6.503l4.878,3.251c1.474,0.983,2.751-0.757,1.321-1.829l-5.386-3.862
			c-0.981-0.699-1.296-0.813-2.439-0.813C263.784,474.864,262.971,474.864,262.158,474.864L262.158,474.864z"/>
		<path fill="#B5BD21" d="M236.402,476.052c-0.064,0.721-0.013,1.427,0.161,1.889l1.967,5.244c0.545,1.452-1.5,1.899-1.967,0.656
			l-1.967-5.244c0,0-0.656,1.311-1.967,1.311h-3.933c-1.311,0-1.311-1.967,0-1.967h3.278c0.656,0,0.656-1.311,0.656-1.967
			c0-2.622,1.311-5.244,2.622-5.244h1.967l0,0c0.656,0,0.966,0.31,1.311,0.655l2.786,2.786c0.359,0.359,0.492,0.68,0.492,1.147
			c0,0.655-1.002,0.964-1.557,0.409l-2.376-2.376c-0.422,0-0.759,0.339-1.005,0.843c0.621,0.601,1.391,1.35,1.616,1.581
			c0.396,0.406,0.292,0.964,0.121,1.163c-0.171,0.198-0.625,0.48-1.149,0.027C237.258,476.796,236.816,476.428,236.402,476.052
			L236.402,476.052z"/>
	</g>
</g>
</svg>
