<?xml version="1.0" standalone="no"?><!DOCTYPE svg PUBLIC "-//W3C//DTD SVG 1.1//EN" "http://www.w3.org/Graphics/SVG/1.1/DTD/svg11.dtd"><svg width="100%" height="100%" viewBox="0 0 500 334" version="1.1" xmlns="http://www.w3.org/2000/svg" xmlns:xlink="http://www.w3.org/1999/xlink" xml:space="preserve" style="fill-rule:evenodd;clip-rule:evenodd;stroke-linejoin:round;stroke-miterlimit:1.41421;"><path d="M500,180.307c0,-9.939 0,-21.203 -157.576,-105.515c-0.874,-0.476 -1.853,-0.848 -2.84,-1.082c-0.372,-0.104 -0.71,-0.173 -1.013,-0.277c-0.909,-0.944 -1.956,-1.758 -3.142,-2.398c-28.581,-15.221 -53.239,-27.966 -64.935,-33.957c0,-0.372 0,-0.71 0,-1.082c0,-21.438 -8.052,-35.308 -20.494,-35.308c-12.485,0 -20.537,13.87 -20.537,35.308c0,0.372 0,0.71 0,1.082c-17.281,8.866 -62.935,32.467 -108.156,57.325c-121.307,66.666 -121.307,76.432 -121.307,85.87c0,5.073 0.061,19.922 47.074,36.363c-2.234,82.554 0.71,84.883 6.389,89.316c9.273,7.273 92.771,21.983 158.45,26.078l11.775,0.745l4.97,0.095c7.541,0.277 15.013,0.442 22.355,0.442c14.675,0 31.654,-0.875 49.342,-2.364l0.476,0l0,-0.035c65.81,-5.515 141.637,-19.142 148.338,-25.774c4.563,-4.529 5.065,-5.074 4.19,-88.676c46.572,-16.337 46.641,-31.117 46.641,-36.156ZM202.069,307c-59.246,-4.528 -113.974,-15.221 -130.64,-19.749c-0.546,-6.796 -1.152,-23.403 -0.174,-63.212c0.477,0.138 1.013,0.234 1.524,0.372c4.831,1.256 9.775,2.502 14.918,3.654c0.874,0.199 1.792,0.407 2.701,0.571c4.97,1.117 10.078,2.165 15.29,3.152c0.572,0.095 1.143,0.234 1.758,0.338c5.61,1.047 11.359,2.026 17.212,2.935c1.082,0.173 2.165,0.346 3.247,0.51c5.922,0.918 11.939,1.758 18.06,2.503c0.606,0.069 1.247,0.138 1.862,0.233c6.156,0.745 12.407,1.455 18.77,2.07c0.442,0.034 0.84,0.095 1.282,0.129c6.563,0.65 13.229,1.187 19.956,1.663c0.849,0.069 1.654,0.13 2.503,0.164c6.865,0.477 13.766,0.883 20.736,1.186c0.06,0 0.129,0 0.199,0c7.203,0.304 14.476,0.546 21.809,0.676c0.173,0 0.347,0 0.511,0c-15.186,9.541 -26.753,32.199 -31.524,62.805ZM429.143,287.182c-19.308,4.467 -74.875,15.255 -130.953,19.783c-4.805,-30.571 -16.406,-53.229 -31.523,-62.77c0.242,0 0.476,-0.035 0.744,-0.035c7.238,-0.13 14.476,-0.372 21.611,-0.675c0.069,0 0.138,0 0.207,0c7.031,-0.303 14,-0.71 20.901,-1.186c0.744,-0.035 1.524,-0.096 2.268,-0.165c6.866,-0.476 13.628,-1.047 20.321,-1.688c0.207,0 0.372,-0.035 0.545,-0.069c6.693,-0.641 13.29,-1.386 19.784,-2.2c0.407,-0.034 0.779,-0.103 1.151,-0.138c6.355,-0.779 12.58,-1.654 18.736,-2.606c0.814,-0.13 1.619,-0.234 2.433,-0.372c6.121,-0.944 12.173,-1.992 18.026,-3.074c0.104,-0.035 0.208,-0.035 0.303,-0.069c5.818,-1.117 11.498,-2.269 17.048,-3.515c0.571,-0.139 1.151,-0.234 1.688,-0.373c5.411,-1.22 10.693,-2.536 15.801,-3.887c0.303,-0.069 0.64,-0.139 0.943,-0.243c0.304,37.542 0.165,55.1 -0.034,63.282Z" style="fill:#925b1d;fill-rule:nonzero;"/></svg>