<?xml version="1.0" standalone="no"?><!DOCTYPE svg PUBLIC "-//W3C//DTD SVG 1.1//EN" "http://www.w3.org/Graphics/SVG/1.1/DTD/svg11.dtd"><svg width="100%" height="100%" viewBox="0 0 1920 164" version="1.1" xmlns="http://www.w3.org/2000/svg" xmlns:xlink="http://www.w3.org/1999/xlink" xml:space="preserve" style="fill-rule:evenodd;clip-rule:evenodd;stroke-linejoin:round;stroke-miterlimit:1.41421;"><path id="hills-middle-gorund" d="M1920,94c0,0 -82.9616,-40.6291 -127.511,-51.3481c-55.7619,-13.417 -139.749,-27.7204 -207.061,-29.1539c-65.9448,-1.40438 -131.75,9.77382 -196.809,20.553c-65.0594,10.7791 -133.071,45.715 -193.547,44.1218c-59.1844,-1.55915 -95.1435,-33.0638 -169.309,-53.6809c-74.1652,-20.6171 -150.708,-28.5684 -226.162,-21.9709c-75.8452,6.63169 -175.801,44.5171 -228.909,61.7611c-53.1081,17.2439 -101.089,31.13 -152.787,41.9111c-53.4352,11.1434 -111.347,21.9651 -167.825,24.9492c-58.2581,3.0782 -140.043,-0.289617 -181.723,-6.48001c-24.7022,-3.6688 -68.3574,-30.6624 -68.3574,-30.6624l0,70l1920,0l0,-70Z" style="fill:#b5be98;"/></svg>