<?xml version="1.0" encoding="utf-8"?>
<!-- Generator: Adobe Illustrator 15.0.0, SVG Export Plug-In . SVG Version: 6.00 Build 0)  -->
<!DOCTYPE svg PUBLIC "-//W3C//DTD SVG 1.1//EN" "http://www.w3.org/Graphics/SVG/1.1/DTD/svg11.dtd">
<svg version="1.1" id="Layer_1" xmlns="http://www.w3.org/2000/svg" xmlns:xlink="http://www.w3.org/1999/xlink" x="0px" y="0px"
	 width="100px" height="100px" viewBox="0 0 100 100" enable-background="new 0 0 100 100" xml:space="preserve">
<rect x="26" y="54" fill="#323232" width="7" height="17"/>
<rect x="40" y="35" fill="#323232" width="7" height="36"/>
<rect x="54" y="44" fill="#323232" width="7" height="27"/>
<rect x="68" y="31" fill="#323232" width="7" height="40"/>
<path fill="#323232" d="M82.92,17.482H18.394c-3.344,0-6.079,2.736-6.079,6.079v54.173c0,3.344,2.735,6.08,6.079,6.08H82.92
	c3.344,0,6.08-2.736,6.08-6.08V23.561C89,20.218,86.264,17.482,82.92,17.482L82.92,17.482z M80.895,75.708H20.42v-50.12h60.475
	V75.708z"/>
<path d="M52.284,39.272"/>
</svg>
