<?xml version="1.0" encoding="utf-8"?>
<!-- Generator: Adobe Illustrator 15.0.0, SVG Export Plug-In . SVG Version: 6.00 Build 0)  -->
<!DOCTYPE svg PUBLIC "-//W3C//DTD SVG 1.1//EN" "http://www.w3.org/Graphics/SVG/1.1/DTD/svg11.dtd">
<svg version="1.1" id="Layer_1" xmlns="http://www.w3.org/2000/svg" xmlns:xlink="http://www.w3.org/1999/xlink" x="0px" y="0px"
	 width="100px" height="100px" viewBox="0 0 100 100" enable-background="new 0 0 100 100" xml:space="preserve">
<g>
	<path fill-rule="evenodd" clip-rule="evenodd" fill="#323232" d="M55.952,15.454c0-3.73-3.046-6.76-6.797-6.76
		c-3.75,0-6.794,3.029-6.794,6.76s3.044,6.76,6.794,6.76C52.906,22.214,55.952,19.185,55.952,15.454z"/>
	<path fill-rule="evenodd" clip-rule="evenodd" fill="#323232" d="M63.246,42.998L52.335,26.605
		c-2.541-3.521-7.935-3.113-11.007-0.127c0,0-6.503,6.314-7.819,7.607c-1.316,1.291-0.903,3.258,0.317,4.127l9.168,6.537
		c0.955,0.682,2.203,0.867,3.118,0.238l-9.849,19.527h11.928c-0.341,4-0.652,7.218-0.652,7.218l-1.464,16.532
		c-0.147,1.686,1.103,3.112,2.798,3.259c1.697,0.148,3.19-0.909,3.338-2.595l2.162-24.414h7.678c0,0-0.375-9.503-0.372-9.509
		c1.839-1.717,2.991-4.249,2.991-6.953C64.67,46.234,64.145,44.435,63.246,42.998z M45.488,39.957l-6.537-4.66l4.897-4.767
		l2.281,10.089C45.959,40.369,45.749,40.142,45.488,39.957z"/>
</g>
</svg>
