<?xml version="1.0" encoding="utf-8"?>
<!-- Generator: Adobe Illustrator 15.0.0, SVG Export Plug-In . SVG Version: 6.00 Build 0)  -->
<!DOCTYPE svg PUBLIC "-//W3C//DTD SVG 1.1//EN" "http://www.w3.org/Graphics/SVG/1.1/DTD/svg11.dtd">
<svg version="1.1" id="Layer_1" xmlns="http://www.w3.org/2000/svg" xmlns:xlink="http://www.w3.org/1999/xlink" x="0px" y="0px"
	 width="100px" height="100px" viewBox="0 0 100 100" enable-background="new 0 0 100 100" xml:space="preserve">
<g>
	<path fill="#323232" d="M25.886,49.133c3.935,0,7.503,1.601,10.086,4.185l-3.362,3.362c-1.723-1.723-4.101-2.79-6.725-2.79
		c-2.623,0-5.001,1.067-6.724,2.79L15.8,53.318C18.384,50.734,21.952,49.133,25.886,49.133L25.886,49.133z M9.067,46.585
		c4.493-4.493,10.466-6.967,16.819-6.967c6.354,0,12.327,2.474,16.819,6.967l-3.364,3.364c-3.594-3.595-8.372-5.573-13.455-5.573
		c-5.083,0-9.861,1.979-13.455,5.573L9.067,46.585z M38.849,32.723c3.966,1.677,7.527,4.078,10.584,7.135l-3.363,3.364
		c-5.392-5.391-12.56-8.36-20.183-8.36s-14.792,2.969-20.182,8.36L2.34,39.858C5.397,36.8,8.959,34.4,12.924,32.723
		c4.107-1.737,8.469-2.618,12.962-2.618C30.381,30.105,34.742,30.986,38.849,32.723L38.849,32.723z M23.508,61.026
		c0,1.313,1.065,2.378,2.378,2.378c1.314,0,2.378-1.065,2.378-2.378c0-1.314-1.064-2.379-2.378-2.379
		C24.573,58.647,23.508,59.712,23.508,61.026L23.508,61.026z M23.508,61.026"/>
</g>
<circle fill="#323232" cx="75.279" cy="61.29" r="2.378"/>
<path fill="#323232" d="M75.279,34.357c3.958,0,7.796,0.775,11.409,2.303c2.259,0.955,4.369,2.178,6.307,3.651L81.583,51.724
	c-1.92-1.018-4.071-1.558-6.304-1.558s-4.384,0.54-6.304,1.558L57.563,40.312c1.938-1.474,4.048-2.697,6.308-3.652
	C67.483,35.132,71.321,34.357,75.279,34.357 M75.279,30.369c-4.494,0-8.855,0.881-12.962,2.618
	c-3.966,1.677-7.527,4.078-10.584,7.135l0.116,0.116l0.018,0.017l16.688,16.689c1.723-1.723,4.102-2.79,6.724-2.79
	c2.624,0,5.001,1.066,6.725,2.79l16.822-16.822c-3.057-3.057-6.618-5.458-10.584-7.135C84.134,31.25,79.774,30.369,75.279,30.369
	L75.279,30.369z"/>
</svg>
