<?xml version="1.0" encoding="utf-8"?>
<!-- Generator: Adobe Illustrator 15.0.0, SVG Export Plug-In . SVG Version: 6.00 Build 0)  -->
<!DOCTYPE svg PUBLIC "-//W3C//DTD SVG 1.1//EN" "http://www.w3.org/Graphics/SVG/1.1/DTD/svg11.dtd">
<svg version="1.1" id="Layer_1" xmlns="http://www.w3.org/2000/svg" xmlns:xlink="http://www.w3.org/1999/xlink" x="0px" y="0px"
	 width="100px" height="100px" viewBox="0 0 100 100" enable-background="new 0 0 100 100" xml:space="preserve">
<g>
	<circle fill="#323232" cx="26.857" cy="27.17" r="5.601"/>
	<circle fill="#323232" cx="45.597" cy="27.17" r="5.601"/>
	<circle fill="#323232" cx="26.857" cy="44.706" r="5.601"/>
	<circle fill="#323232" cx="45.597" cy="44.706" r="5.601"/>
	<circle fill="#323232" cx="26.857" cy="62.112" r="5.601"/>
	<path fill="#323232" d="M79.445,64.694H59.829V9.834H12.621v69.609h25.975c0.969,6.079,6.206,10.752,12.551,10.752h28.299
		c7.039,0,12.761-5.719,12.761-12.753C92.206,70.411,86.482,64.694,79.445,64.694z M15.025,12.236h42.408v52.46h-6.287
		c-0.223,0-0.43,0.048-0.646,0.061c0.431-0.785,0.704-1.684,0.704-2.645c0-3.094-2.509-5.601-5.607-5.601
		c-3.091,0-5.605,2.507-5.605,5.601c0,2.354,1.462,4.358,3.517,5.187c-2.984,2.251-4.951,5.756-5.076,9.748H15.025V12.236z
		 M51.146,87.795c-5.71,0-10.353-4.643-10.353-10.357c0-5.703,4.643-10.347,10.353-10.347h13.238l0.102,20.704H51.146z"/>
</g>
</svg>
