<?xml version="1.0" encoding="utf-8"?>
<!-- Generator: Adobe Illustrator 15.0.0, SVG Export Plug-In . SVG Version: 6.00 Build 0)  -->
<!DOCTYPE svg PUBLIC "-//W3C//DTD SVG 1.1//EN" "http://www.w3.org/Graphics/SVG/1.1/DTD/svg11.dtd">
<svg version="1.1" id="Layer_1" xmlns="http://www.w3.org/2000/svg" xmlns:xlink="http://www.w3.org/1999/xlink" x="0px" y="0px"
	 width="400px" height="400px" viewBox="0 0 400 400" enable-background="new 0 0 400 400" xml:space="preserve">
<g>
	<path fill-rule="evenodd" clip-rule="evenodd" fill="#323232" d="M303,115.852v-0.289c0-5.814-2.602-9.566-5.998-9.566
		S291,109.748,291,115.562v0.287c-63,31.682-62.247,36.666-62.247,38.805c0,1.373,0.126,5.398,12.937,9.855
		c-0.139,5.189-0.13,9.072-0.13,12.021c-11.365-5.977-20.831-10.852-25.726-13.346c0.006-0.178,0.019-0.357,0.019-0.531
		c0-10.609-4.226-17.461-10.416-17.461c-6.203,0-10.437,6.852-10.437,17.461c0,0.174,0,0.348,0,0.531
		c-5,2.76-16.199,8.422-29.236,15.309c0.004-3.301,0.09-7.744,0.023-13.883c12.678-4.432,12.205-8.441,12.205-9.811
		c0-2.139,1.008-7.127-62.992-38.807c0-0.098,0-0.191,0-0.285c0-5.811-1.64-9.568-5.032-9.568c-3.396,0-5.314,3.758-5.314,9.568
		c0,0.094,0.14,0.191,0.142,0.285c-62.492,31.68-62.425,36.668-62.425,38.807c0,1.369,0.051,5.396,12.855,9.855
		c-0.605,22.303,0.213,23.002,1.764,24.201c2.523,1.963,25.27,5.945,43.155,7.049l3.205,0.201l0.298-3.176
		c0.004-0.051,0.015-0.094,0.022-0.141c0.4,0.016,0.804,0.045,1.202,0.059l-0.014,3.291c2.002,0.076,3.992,0.32,5.939,0.32
		c4.021,0,8.672-0.461,13.521-0.461h0.045c4.041,0,8.215-0.98,12.287-1.494c-55.197,30.455-55.209,35.045-55.209,39.579
		c0,2.508,0.027,9.799,23.389,17.93c-1.115,40.83,0.357,41.952,3.178,44.131c4.609,3.6,46.109,10.867,78.74,12.886l5.844,0.355
		l0.541-5.805c0.006-0.088,0.018-0.164,0.029-0.26c0.641,0.035,1.287,0.078,1.93,0.1l-0.031,6.013
		c3.75,0.143,7.465,0.224,11.111,0.224c7.291,0,15.258-0.441,24.064-1.17L230,308.482v-0.014c33-2.734,70.857-9.471,74.178-12.738
		c2.264-2.236,2.748-2.498,2.322-43.838c23.137-8.092,23.288-15.398,23.288-17.896c0-4.352,0.017-9.238-54.282-39.205
		c3.639,0.398,7.416,0.734,11.16,0.967l3.214,0.203l0.308-3.178c0.004-0.049,0.02-0.092,0.029-0.139
		c0.396,0.012,0.802,0.041,1.196,0.055L291.396,196c2.006,0.07,3.999,0.127,5.944,0.127c4.025,0,8.68-0.244,13.523-0.646
		l0.043-0.006c17.949-1.494,38.609-5.199,40.383-6.975c1.27-1.238,1.389-1.428,1.15-24.035c12.686-4.432,12.879-8.441,12.879-9.807
		C365.318,152.518,364,147.531,303,115.852z M97.463,189.125c-16.141-1.236-31.041-4.121-35.586-5.342
		c-0.152-1.844-0.307-6.344-0.051-17.127c0.238,0.061,0.5,0.115,0.74,0.18c0.506,0.133,1.037,0.252,1.555,0.379
		c1.268,0.311,2.559,0.607,3.896,0.889c0.596,0.127,1.195,0.248,1.803,0.369c1.357,0.271,2.746,0.525,4.16,0.766
		c0.582,0.104,1.154,0.201,1.746,0.295c1.688,0.27,3.41,0.521,5.164,0.752c0.336,0.041,0.654,0.09,0.986,0.135
		c2.146,0.27,4.336,0.51,6.566,0.717c0.312,0.029,0.627,0.047,0.934,0.078c1.879,0.168,3.775,0.311,5.703,0.441
		c0.656,0.037,1.314,0.076,1.979,0.111c1.611,0.088,3.234,0.16,4.873,0.219c0.736,0.029,1.477,0.055,2.221,0.07
		c0.627,0.016,1.244,0.045,1.873,0.059C101.908,174.705,98.764,180.846,97.463,189.125z M123.641,189.125
		c-1.303-8.277-4.457-14.42-8.574-17.014c0.643-0.014,1.277-0.041,1.918-0.062c0.713-0.014,1.42-0.037,2.133-0.066
		c1.686-0.057,3.354-0.135,5.012-0.223c0.633-0.043,1.264-0.072,1.895-0.105c1.99-0.129,3.959-0.279,5.898-0.461
		c0.254-0.025,0.512-0.041,0.762-0.062c2.25-0.215,4.451-0.455,6.613-0.727c0.34-0.047,0.66-0.096,0.99-0.139
		c1.758-0.23,3.484-0.48,5.174-0.75c0.59-0.098,1.164-0.203,1.746-0.297c1.42-0.244,2.809-0.504,4.168-0.773
		c0.605-0.125,1.203-0.244,1.795-0.371c1.355-0.289,2.668-0.59,3.957-0.908c0.492-0.119,1.002-0.234,1.482-0.363
		c0.23-0.062,0.475-0.111,0.697-0.174c0.072,8.09,0.061,12.717,0.025,15.404c-1.748,0.93-3.514,1.873-5.301,2.83
		C146.867,186.262,135.305,188.184,123.641,189.125z M181.834,296.637c-29.447-2.246-56.639-7.525-64.934-9.762
		c-0.275-3.363-0.566-11.561-0.088-31.246c0.24,0.061,0.506,0.113,0.75,0.178c2.398,0.629,4.863,1.232,7.404,1.807
		c0.439,0.098,0.893,0.195,1.34,0.291c2.475,0.543,5.006,1.062,7.596,1.549c0.293,0.061,0.576,0.113,0.873,0.17
		c2.783,0.516,5.645,0.996,8.547,1.445c0.541,0.082,1.076,0.17,1.613,0.248c2.939,0.451,5.93,0.865,8.977,1.24
		c0.307,0.047,0.615,0.072,0.92,0.111c3.061,0.371,6.174,0.717,9.324,1.02c0.215,0.02,0.424,0.043,0.637,0.064
		c3.26,0.316,6.576,0.582,9.92,0.814c0.412,0.033,0.828,0.061,1.246,0.086c3.406,0.229,6.842,0.428,10.309,0.582
		c0.037,0.004,0.068,0.004,0.105,0.004c3.586,0.158,7.199,0.268,10.836,0.33c0.082,0,0.168,0.004,0.256,0.008
		C189.949,270.297,184.207,281.51,181.834,296.637z M277.074,259.523c2.895-0.545,5.711-1.129,8.469-1.738
		c0.279-0.064,0.568-0.121,0.846-0.184c2.693-0.604,5.309-1.252,7.844-1.92c0.154-0.039,0.316-0.072,0.471-0.115
		c0.154,18.555,0.082,27.225-0.02,31.268c-9.604,2.209-37.215,7.535-65.078,9.783c-2.381-15.111-8.152-26.32-15.664-31.045
		c0.121-0.004,0.24,0.379,0.367,0.379c3.6-0.072,7.191,0.049,10.74,0.049c0.037,0,0.068,0,0.104,0c3.494,0,6.957-0.734,10.389-0.979
		c0.375-0.018,0.754-0.238,1.127-0.269c3.416-0.234,6.785-0.607,10.105-0.931c0.094-0.006,0.186-0.062,0.271-0.076
		c3.326-0.32,6.611-0.705,9.838-1.099c0.195-0.021,0.389-0.06,0.582-0.085c3.154-0.387,6.254-0.829,9.301-1.286
		c0.402-0.07,0.799-0.132,1.203-0.196c3.047-0.475,6.047-0.982,8.959-1.527C276.975,259.542,277.023,259.535,277.074,259.523z
		 M284.004,188.977c-9.119-0.697-18.051-1.949-24.891-3.139c-2.424-1.303-4.92-2.637-7.512-4.018
		c-0.443-0.242-0.918-0.416-1.406-0.537c-0.178-0.045-0.348-0.09-0.512-0.127c-0.406-0.434-0.893-0.783-1.416-1.084
		c-0.059-2.738-0.059-6.957,0.1-13.566c0.229,0.064,0.473,0.115,0.703,0.174c0.549,0.143,1.121,0.273,1.68,0.408
		c1.223,0.295,2.465,0.578,3.746,0.854c0.637,0.133,1.283,0.268,1.938,0.398c1.297,0.254,2.617,0.498,3.965,0.73
		c0.643,0.109,1.279,0.223,1.941,0.328c1.564,0.25,3.16,0.482,4.779,0.693c0.457,0.064,0.906,0.131,1.369,0.189
		c2.092,0.264,4.23,0.496,6.402,0.703c0.496,0.041,1.01,0.08,1.506,0.121c1.676,0.146,3.367,0.283,5.078,0.395
		c0.797,0.051,1.602,0.088,2.41,0.137c1.443,0.072,2.898,0.143,4.369,0.195c0.877,0.035,1.764,0.064,2.645,0.082
		c0.557,0.012,1.105,0.039,1.666,0.051C288.447,174.559,285.305,180.699,284.004,188.977z M345.834,183.613
		c-5.248,1.215-20.377,4.129-35.658,5.363c-1.309-8.277-4.461-14.424-8.578-17.012c0.57-0.012,1.133-0.039,1.703-0.051
		c0.865-0.021,1.725-0.049,2.59-0.082c1.484-0.053,2.959-0.123,4.434-0.199c0.801-0.049,1.609-0.084,2.404-0.135
		c1.703-0.113,3.389-0.246,5.057-0.393c0.518-0.043,1.041-0.084,1.551-0.127c2.162-0.205,4.287-0.438,6.371-0.703
		c0.541-0.07,1.061-0.148,1.59-0.221c1.551-0.211,3.068-0.424,4.555-0.666c0.709-0.117,1.398-0.238,2.09-0.357
		c1.291-0.219,2.557-0.455,3.801-0.701c0.697-0.139,1.393-0.281,2.076-0.422c1.24-0.27,2.432-0.541,3.607-0.83
		c0.605-0.146,1.205-0.285,1.795-0.439c0.197-0.055,0.418-0.096,0.613-0.15C345.922,176.604,345.891,181.377,345.834,183.613z"/>
</g>
</svg>
