<?xml version="1.0" encoding="utf-8"?>
<!-- Generator: Adobe Illustrator 15.0.0, SVG Export Plug-In . SVG Version: 6.00 Build 0)  -->
<!DOCTYPE svg PUBLIC "-//W3C//DTD SVG 1.1//EN" "http://www.w3.org/Graphics/SVG/1.1/DTD/svg11.dtd">
<svg version="1.1" id="Layer_1" xmlns="http://www.w3.org/2000/svg" xmlns:xlink="http://www.w3.org/1999/xlink" x="0px" y="0px"
	 width="600px" height="330px" viewBox="0 0 600 330" enable-background="new 0 0 600 330" xml:space="preserve">
<g>
	<path fill="#646464" d="M572.928,228.864c0.173-0.537,0.276-1.115,0.276-1.707v-62.909c0-2.989-2.42-5.398-5.399-5.398h-30.056
		v66.955c0,1.075-0.198,2.103-0.538,3.061h-3.523c0.174-0.537,0.276-1.115,0.276-1.707v-86.403c0-2.98-2.42-5.399-5.399-5.399
		h-47.16c-2.98,0-5.4,2.419-5.4,5.399v86.403c0,0.592,0.105,1.17,0.284,1.707h-3.524c-0.341-0.958-0.538-1.984-0.538-3.061V158.85
		H442.89c-2.985,0-5.397,2.409-5.397,5.398v62.909c0,0.592,0.104,1.17,0.275,1.707h-9.279v11.161H581.49v-11.161H572.928z
		 M453.688,206.816h-7.738v-7.739h7.738V206.816z M453.688,193.229h-7.738v-7.748h7.738V193.229z M453.688,180.082h-7.738v-7.738
		h7.738V180.082z M465.743,206.816h-7.74v-7.739h7.74V206.816z M465.743,193.229h-7.74v-7.748h7.74V193.229z M465.743,180.082h-7.74
		v-7.738h7.74V180.082z M517,228.508h-22.728v-28.355H517V228.508z M504.983,180.098c-10.515,0-19.035-8.521-19.035-19.035
		c0-10.514,8.528-19.035,19.035-19.035c10.514,0,19.034,8.521,19.034,19.035C524.019,171.575,515.497,180.098,504.983,180.098
		L504.983,180.098z M554.129,206.816h-7.738v-7.739h7.738V206.816z M554.129,193.229h-7.738v-7.748h7.738V193.229z M554.129,180.082
		h-7.738v-7.738h7.738V180.082z M566.185,206.816h-7.737v-7.739h7.737V206.816z M566.185,193.229h-7.737v-7.748h7.737V193.229z
		 M566.185,180.082h-7.737v-7.738h7.737V180.082z M509.71,156.343H517v9.447h-7.29v7.288h-9.447v-7.288h-7.295v-9.447h7.295v-7.296
		h9.447V156.343z"/>
</g>
<g>
	<path fill="#CC8C21" d="M90.166,202.124c1.578,0,2.864-1.281,2.864-2.854c0-1.569-1.286-2.851-2.864-2.851
		c-1.576,0-2.858,1.279-2.858,2.851C87.308,200.842,88.59,202.124,90.166,202.124z"/>
	<path fill="#CC8C21" d="M92.919,203.566h-5.327c-1.411,0-2.556,0.836-2.556,2.248l-0.007,7.752h2.338l0.57,10h5.126l0.569-10h1.843
		l-0.005-7.752C95.471,204.402,94.329,203.566,92.919,203.566z"/>
</g>
<g>
	<path fill="#CC8C21" d="M77.636,198.432c1.578,0,2.863-1.281,2.863-2.854c0-1.569-1.285-2.854-2.863-2.854
		c-1.576,0-2.858,1.281-2.858,2.854C74.777,197.15,76.06,198.432,77.636,198.432z"/>
	<path fill="#CC8C21" d="M80.388,199.568h-5.326c-1.411,0-2.556,0.834-2.556,2.246l-0.007,7.752h2.338l0.569,10h5.127l0.569-10
		h1.843l-0.005-7.752C82.94,200.404,81.799,199.568,80.388,199.568z"/>
</g>
<g>
	<path fill="#CC8C21" d="M38.8,175.659c3.308,0,6.008-2.692,6.008-5.997c0.001-3.307-2.7-5.994-6.008-5.994
		c-3.313,0-6.006,2.688-6.006,5.994C32.794,172.967,35.486,175.659,38.8,175.659z"/>
	<path fill="#CC8C21" d="M44.574,177.579H33.39c-2.964,0-5.366,2.257-5.366,5.223l-0.018,16.767h3.962l1.164,22H44.19l1.163-22
		h4.591l-0.01-16.767C49.935,179.835,47.534,177.579,44.574,177.579z"/>
</g>
<g>
	<path fill="#CC8C21" d="M41.926,125.771c1.584,0,2.877-1.289,2.877-2.871c0.001-1.583-1.293-2.871-2.877-2.871
		c-1.587,0-2.876,1.288-2.876,2.871C39.05,124.481,40.339,125.771,41.926,125.771z"/>
	<path fill="#CC8C21" d="M44.691,126.579h-5.356c-1.419,0-2.57,1.312-2.57,2.733l-0.008,8.267H39v10h6v-10h2.264l-0.004-8.267
		C47.26,127.891,46.109,126.579,44.691,126.579z"/>
</g>
<g>
	<path fill="#CC8C21" d="M26.937,97.666c1.98,0,3.597-1.611,3.597-3.59c0.001-1.979-1.616-3.588-3.597-3.588
		c-1.983,0-3.595,1.609-3.595,3.588S24.953,97.666,26.937,97.666z"/>
	<path fill="#CC8C21" d="M30.394,98.579h-6.695c-1.774,0-3.213,1.266-3.213,3.041l-0.01,9.959H23v13h8v-13h2.608l-0.005-9.959
		C33.604,99.845,32.166,98.579,30.394,98.579z"/>
</g>
<g>
	<path fill="#CC8C21" d="M165.926,105.771c1.584,0,2.877-1.289,2.877-2.871c0.001-1.583-1.293-2.871-2.877-2.871
		c-1.587,0-2.876,1.288-2.876,2.871C163.05,104.481,164.339,105.771,165.926,105.771z"/>
	<path fill="#CC8C21" d="M168.691,106.579h-5.356c-1.419,0-2.57,1.312-2.57,2.733l-0.008,8.267H163v10h6v-10h2.264l-0.004-8.267
		C171.26,107.891,170.109,106.579,168.691,106.579z"/>
</g>
<g>
	<path fill="#CC8C21" d="M154.937,139.666c1.98,0,3.597-1.611,3.597-3.59c0.001-1.979-1.616-3.588-3.597-3.588
		c-1.983,0-3.595,1.609-3.595,3.588S152.953,139.666,154.937,139.666z"/>
	<path fill="#CC8C21" d="M158.394,140.579h-6.695c-1.774,0-3.213,1.266-3.213,3.041l-0.01,9.959H151v13h8v-13h2.608l-0.005-9.959
		C161.604,141.845,160.166,140.579,158.394,140.579z"/>
</g>
<g>
	<path fill="#B88161" d="M141,65.343V65.22c0-2.479-1.051-4.08-2.499-4.08c-1.448,0-2.501,1.601-2.501,4.08v0.122
		c-27,13.512-26.688,15.637-26.688,16.549c0,0.586-0.017,2.303,5.447,4.203c-0.06,2.213-0.091,3.869-0.091,5.127
		c-4.848-2.549-8.902-4.628-10.989-5.692c0.002-0.076-0.001-0.152-0.001-0.227c0-4.524-1.695-7.446-4.335-7.446
		c-2.645,0-4.343,2.923-4.343,7.447c0,0.074,0,0.148,0,0.229c-2,1.177-7.02,3.592-12.58,6.529c0.002-1.408-0.018-3.303-0.046-5.92
		c5.407-1.891,5.348-3.601,5.348-4.185c0-0.912,0.278-3.039-26.722-16.55c0-0.041,0-0.081,0-0.121c0-2.479-0.869-4.081-2.316-4.081
		c-1.448,0-2.352,1.603-2.352,4.081c0,0.04,0.017,0.081,0.018,0.121C29.7,78.915,29.706,81.042,29.706,81.954
		c0,0.584,0.011,2.302,5.472,4.203c-0.258,9.512,0.086,9.81,0.747,10.321c1.076,0.837,10.774,2.535,18.401,3.006l1.365,0.086
		l0.127-1.354c0.002-0.021,0.006-0.04,0.009-0.06c0.171,0.007,0.343,0.019,0.513,0.024l-0.006,1.404
		c0.854,0.032,1.702,0.164,2.533,0.164c1.715,0,3.698-0.169,5.767-0.169h0.019c1.724,0,3.504-0.445,5.24-0.665
		c-23.54,12.988-23.545,14.933-23.545,16.866c0,1.069,0.012,4.172,9.975,7.64c-0.476,17.412,0.152,17.887,1.355,18.818
		c1.966,1.535,19.664,4.632,33.58,5.492l2.492,0.151l0.23-2.476c0.003-0.037,0.008-0.07,0.013-0.111
		c0.273,0.015,0.549,0.033,0.823,0.042l-0.014,2.564c1.6,0.061,3.184,0.095,4.738,0.095c3.109,0,6.655-0.188,10.411-0.499
		l0.048-0.003v-0.006c14-1.166,30.07-4.039,31.486-5.433c0.965-0.954,1.098-1.065,0.916-18.695c9.867-3.451,9.895-6.567,9.895-7.633
		c0-1.855-0.012-3.939-23.168-16.719c1.551,0.169,3.153,0.313,4.75,0.412l1.367,0.087l0.128-1.354
		c0.002-0.021,0.007-0.039,0.011-0.059c0.168,0.005,0.342,0.018,0.51,0.023l-0.008,1.407c0.855,0.03,1.705,0.055,2.535,0.055
		c1.717,0,3.701-0.104,5.768-0.276l0.018-0.002c7.655-0.638,16.466-2.218,17.223-2.975c0.541-0.528,0.592-0.609,0.49-10.25
		c5.41-1.891,5.574-3.601,5.574-4.183C167.494,80.979,167,78.854,141,65.343z M53.181,96.592
		c-6.884-0.527-13.238-1.758-15.177-2.278c-0.064-0.786-0.131-2.705-0.021-7.304c0.102,0.025,0.213,0.049,0.315,0.076
		c0.216,0.057,0.442,0.107,0.663,0.162c0.541,0.132,1.092,0.259,1.662,0.379c0.254,0.054,0.51,0.105,0.769,0.157
		c0.579,0.115,1.171,0.224,1.774,0.326c0.248,0.044,0.492,0.086,0.744,0.126c0.72,0.115,1.455,0.223,2.203,0.32
		c0.143,0.018,0.278,0.039,0.42,0.058c0.916,0.115,1.85,0.218,2.801,0.306c0.133,0.013,0.268,0.021,0.398,0.033
		c0.801,0.072,1.609,0.133,2.432,0.188c0.28,0.016,0.561,0.032,0.844,0.048c0.688,0.037,1.38,0.068,2.078,0.093
		c0.314,0.013,0.63,0.023,0.947,0.03c0.268,0.007,0.53,0.02,0.799,0.025C55.076,90.443,53.735,93.061,53.181,96.592z M64.345,96.592
		c-0.556-3.53-1.901-6.149-3.657-7.256c0.274-0.006,0.545-0.018,0.818-0.026c0.304-0.006,0.605-0.017,0.909-0.028
		c0.719-0.024,1.431-0.058,2.138-0.096c0.27-0.018,0.539-0.03,0.808-0.045c0.849-0.055,1.688-0.119,2.516-0.196
		c0.108-0.011,0.219-0.018,0.325-0.026c0.959-0.092,1.898-0.194,2.82-0.311c0.145-0.02,0.281-0.04,0.422-0.059
		c0.75-0.099,1.486-0.205,2.207-0.32c0.251-0.041,0.496-0.086,0.744-0.126c0.605-0.104,1.198-0.215,1.777-0.33
		c0.259-0.054,0.514-0.104,0.766-0.158c0.578-0.123,1.138-0.252,1.688-0.388c0.21-0.051,0.428-0.1,0.633-0.154
		c0.098-0.027,0.202-0.048,0.297-0.074c0.031,3.45,0.026,5.423,0.011,6.569c-0.745,0.396-1.498,0.799-2.261,1.208
		C74.25,95.371,69.318,96.189,64.345,96.592z M89.162,142.443c-12.559-0.958-24.154-3.21-27.692-4.163
		c-0.117-1.438-0.241-4.931-0.037-13.326c0.103,0.026,0.216,0.049,0.319,0.076c1.023,0.269,2.074,0.525,3.158,0.771
		c0.188,0.042,0.381,0.083,0.571,0.124c1.056,0.231,2.135,0.453,3.239,0.66c0.125,0.026,0.246,0.049,0.372,0.073
		c1.188,0.22,2.407,0.425,3.646,0.616c0.23,0.035,0.459,0.072,0.688,0.105c1.254,0.192,2.529,0.369,3.828,0.529
		c0.131,0.02,0.263,0.03,0.393,0.047c1.306,0.158,2.633,0.306,3.977,0.436c0.092,0.008,0.181,0.018,0.271,0.027
		c1.391,0.135,2.805,0.248,4.23,0.347c0.176,0.015,0.354,0.026,0.531,0.037c1.453,0.098,2.918,0.183,4.396,0.248
		c0.016,0.002,0.029,0.002,0.045,0.002c1.529,0.067,3.07,0.114,4.621,0.141c0.035,0,0.072,0.002,0.109,0.003
		C92.623,131.208,90.174,135.992,89.162,142.443z M129.779,126.615c1.234-0.232,2.436-0.481,3.611-0.741
		c0.119-0.027,0.242-0.052,0.36-0.078c1.149-0.258,2.265-0.534,3.346-0.819c0.065-0.017,0.135-0.03,0.2-0.049
		c0.066,7.913,0.035,11.61-0.008,13.335c-4.096,0.941-15.871,3.213-27.754,4.172c-1.016-6.444-3.477-11.225-6.681-13.239
		c0.052-0.002,0.103,0.262,0.157,0.262c1.535-0.031,3.066,0.122,4.58,0.122c0.016,0,0.029,0,0.044,0c1.49,0,2.967-0.415,4.431-0.518
		c0.16-0.008,0.321-0.152,0.48-0.166c1.457-0.1,2.894-0.284,4.31-0.422c0.04-0.002,0.079-0.039,0.116-0.045
		c1.418-0.137,2.819-0.307,4.195-0.476c0.083-0.009,0.166-0.028,0.248-0.039c1.346-0.165,2.667-0.356,3.967-0.551
		c0.172-0.028,0.341-0.056,0.513-0.083c1.3-0.202,2.579-0.419,3.821-0.653C129.736,126.622,129.758,126.62,129.779,126.615z
		 M132.734,96.529c-3.889-0.297-7.698-0.832-10.615-1.339c-1.033-0.555-2.098-1.125-3.203-1.713c-0.189-0.104-0.392-0.178-0.6-0.229
		c-0.076-0.019-0.148-0.038-0.219-0.054c-0.173-0.185-0.381-0.334-0.604-0.462c-0.025-1.168-0.025-2.967,0.042-5.786
		c0.098,0.027,0.202,0.049,0.3,0.074c0.234,0.061,0.479,0.116,0.717,0.174c0.521,0.126,1.051,0.247,1.598,0.364
		c0.271,0.057,0.547,0.114,0.826,0.17c0.553,0.108,1.116,0.212,1.69,0.312c0.274,0.047,0.546,0.095,0.828,0.14
		c0.667,0.106,1.348,0.206,2.038,0.296c0.195,0.027,0.387,0.056,0.584,0.081c0.893,0.112,1.805,0.211,2.73,0.3
		c0.212,0.018,0.431,0.034,0.643,0.052c0.715,0.062,1.436,0.12,2.165,0.168c0.34,0.021,0.684,0.037,1.028,0.059
		c0.615,0.03,1.236,0.062,1.863,0.083c0.374,0.015,0.752,0.027,1.128,0.035c0.237,0.005,0.472,0.017,0.71,0.021
		C134.629,90.379,133.289,92.998,132.734,96.529z M159.103,94.242c-2.237,0.518-8.689,1.761-15.207,2.287
		c-0.558-3.53-1.902-6.151-3.658-7.255c0.243-0.005,0.483-0.017,0.727-0.021c0.369-0.01,0.735-0.021,1.104-0.035
		c0.633-0.022,1.262-0.053,1.891-0.085c0.342-0.021,0.687-0.036,1.025-0.058c0.727-0.048,1.445-0.104,2.156-0.167
		c0.221-0.019,0.444-0.036,0.662-0.055c0.922-0.087,1.828-0.187,2.717-0.3c0.23-0.03,0.452-0.062,0.678-0.094
		c0.661-0.09,1.309-0.181,1.942-0.284c0.303-0.05,0.597-0.102,0.892-0.152c0.551-0.094,1.09-0.194,1.621-0.299
		c0.297-0.06,0.594-0.12,0.885-0.181c0.529-0.114,1.037-0.23,1.539-0.354c0.258-0.062,0.514-0.122,0.766-0.188
		c0.084-0.023,0.178-0.041,0.261-0.064C159.141,91.251,159.127,93.287,159.103,94.242z"/>
</g>
<g>
	<ellipse fill="#CC8C21" cx="61.216" cy="171.397" rx="4.483" ry="4.634"/>
	<path fill="#CC8C21" d="M69.168,179.96c-0.224-0.675-1.492-2.722-4.941-2.741l-6.752,0.014c-3.348-0.188-4.683,1.793-4.892,2.674
		c0,0-2.265,7.217-1.874,8.888c0.238,1.042,2.996,2.063,4.91,3.008L52.11,205.57H57v16.478c0,0.929,0.572,1.681,1.5,1.681
		c0.93,0,1.5-0.752,1.5-1.681V205.57h3v16.478c0,0.929,0.572,1.681,1.5,1.681s1.5-0.752,1.5-1.681V205.57h4.124l-3.438-14.041
		c1.711-0.904,4.169-1.913,4.388-2.856C71.465,186.979,69.168,179.96,69.168,179.96z M61.633,189.533
		c-0.098,0-0.188,0.045-0.274,0.045h-0.005c-0.336,0-0.641-0.081-0.909-0.111c-1.732-0.203-2.225-0.874-2.244-1.523
		c-0.315,0.14-0.66,0.207-1.026,0.207c-1.406,0-2.543-1.164-2.543-2.592c0-1.432,1.137-2.592,2.543-2.592
		c1.381,0,2.54,1.121,2.577,2.518c0.44-0.313,0.249-0.469,1.249-0.528v0.01c1-0.096,0.878,0,0.878,0
		c1.695,0.376,5.442,2.067,5.442,2.067S65.293,189.553,61.633,189.533z"/>
</g>
<g>
	<path fill="#808080" d="M69.367,45.461h-2.926l-2.219-3.478h-0.024v3.478h-2.351v-9.043h3.514c1.787,0,3.143,0.852,3.143,2.782
		c0,1.248-0.695,2.327-1.979,2.555L69.367,45.461z M64.198,40.473h0.228c0.768,0,1.632-0.144,1.632-1.127
		c0-0.983-0.864-1.127-1.632-1.127h-0.228V40.473z"/>
	<path fill="#808080" d="M72.084,39.309v3.287c0,0.779,0.192,1.331,1.092,1.331c0.9,0,1.091-0.552,1.091-1.331v-3.287h2.184v3.706
		c0,2.027-1.428,2.651-3.274,2.651c-1.846,0-3.274-0.624-3.274-2.651v-3.706H72.084z"/>
	<path fill="#808080" d="M80.191,40.316h0.024c0.419-0.756,1.139-1.091,1.99-1.091h0.42v2.099c-0.3-0.168-0.588-0.204-0.924-0.204
		c-1.211,0-1.511,0.804-1.511,1.859v2.482h-2.183v-6.153h2.183L80.191,40.316L80.191,40.316z"/>
	<path fill="#808080" d="M90.438,45.461h-2.184v-0.683H88.23c-0.384,0.612-1.14,0.888-1.859,0.888c-1.822,0-3.106-1.523-3.106-3.287
		c0-1.763,1.26-3.274,3.083-3.274c0.707,0,1.451,0.264,1.906,0.804v-0.6h2.184V45.461z M85.52,42.392
		c0,0.78,0.516,1.379,1.403,1.379c0.887,0,1.403-0.6,1.403-1.379c0-0.755-0.516-1.391-1.403-1.391
		C86.036,41,85.52,41.637,85.52,42.392z"/>
	<path fill="#808080" d="M94.227,45.461h-2.183v-9.955h2.183V45.461z"/>
	<path fill="#808080" d="M103.287,42.463l1.463-3.154h2.446l-3.214,6.153h-1.392l-3.226-6.153h2.446L103.287,42.463z"/>
	<path fill="#808080" d="M110.294,36.947c0,0.671-0.552,1.223-1.224,1.223c-0.671,0-1.223-0.552-1.223-1.223
		c0-0.672,0.552-1.224,1.223-1.224C109.742,35.724,110.294,36.274,110.294,36.947z M110.162,45.461h-2.183v-6.153h2.183V45.461z"/>
	<path fill="#808080" d="M113.93,45.461h-2.183v-9.955h2.183V45.461z"/>
	<path fill="#808080" d="M117.696,45.461h-2.183v-9.955h2.183V45.461z"/>
	<path fill="#808080" d="M126.071,45.461h-2.184v-0.683h-0.023c-0.384,0.612-1.14,0.888-1.859,0.888
		c-1.822,0-3.106-1.523-3.106-3.287c0-1.763,1.26-3.274,3.083-3.274c0.707,0,1.451,0.264,1.906,0.804v-0.6h2.184L126.071,45.461
		L126.071,45.461z M121.153,42.392c0,0.78,0.516,1.379,1.403,1.379c0.887,0,1.403-0.6,1.403-1.379c0-0.755-0.516-1.391-1.403-1.391
		C121.669,41,121.153,41.637,121.153,42.392z"/>
	<path fill="#808080" d="M134.469,44.863c0,2.614-1.295,3.67-3.562,3.67c-1.416,0-3.311-0.731-3.502-2.351h2.446
		c0.06,0.216,0.216,0.372,0.407,0.468c0.192,0.096,0.42,0.144,0.624,0.144c1.176,0,1.403-0.768,1.403-1.763v-0.288
		c-0.563,0.564-1.14,0.84-1.955,0.84c-1.799,0-3.034-1.367-3.034-3.143c0-1.799,1.271-3.334,3.154-3.334
		c0.72,0,1.379,0.24,1.811,0.852h0.024v-0.649h2.183L134.469,44.863L134.469,44.863z M129.552,42.344
		c0,0.779,0.516,1.379,1.403,1.379c0.887,0,1.403-0.6,1.403-1.379c0-0.756-0.516-1.392-1.403-1.392
		C130.068,40.952,129.552,41.587,129.552,42.344z"/>
	<path fill="#808080" d="M142.433,42.751h-4.594c0,0.887,0.468,1.367,1.367,1.367c0.468,0,0.804-0.156,1.044-0.563h2.099
		c-0.348,1.451-1.727,2.111-3.13,2.111c-2.039,0-3.562-1.151-3.562-3.274c0-2.051,1.403-3.286,3.406-3.286
		c2.135,0,3.37,1.319,3.37,3.418V42.751L142.433,42.751z M140.406,41.493c-0.108-0.588-0.648-0.972-1.235-0.972
		c-0.636,0-1.164,0.336-1.296,0.972H140.406z"/>
</g>
<g>
	<g>
		<path fill="none" stroke="#B3B3B3" stroke-width="2" stroke-miterlimit="10" d="M178.369,175.326
			c0.796-0.635,1.59-1.242,2.383-1.823"/>
		<path fill="none" stroke="#B3B3B3" stroke-width="2" stroke-miterlimit="10" stroke-dasharray="6.4533,6.4533" d="M186.13,169.932
			c18.729-11.167,35.935-8.504,46.554-4.691"/>
		<path fill="none" stroke="#B3B3B3" stroke-width="2" stroke-miterlimit="10" d="M235.688,166.411
			c0.992,0.42,1.903,0.839,2.727,1.241"/>
		<g>
			<path fill="#B3B3B3" d="M243.655,170.639c-2.992-0.47-6.945-0.623-9.781-0.031l3.826-3.307l0.824-4.989
				C239.498,165.04,241.693,168.331,243.655,170.639z"/>
		</g>
	</g>
</g>
<g>
	<g>
		<path fill="none" stroke="#B3B3B3" stroke-width="2" stroke-miterlimit="10" d="M252.613,223.52
			c-0.688,0.75-1.379,1.477-2.071,2.17"/>
		<path fill="none" stroke="#B3B3B3" stroke-width="2" stroke-miterlimit="10" stroke-dasharray="6.4533,6.4533" d="M245.782,230.05
			c-16.771,13.937-34.181,13.974-45.263,11.854"/>
		<path fill="none" stroke="#B3B3B3" stroke-width="2" stroke-miterlimit="10" d="M197.369,241.212
			c-1.045-0.262-2.01-0.535-2.885-0.804"/>
		<g>
			<path fill="#B3B3B3" d="M188.843,238.271c3.029,0,6.958-0.461,9.668-1.486l-3.267,3.861l-0.042,5.056
				C193.817,243.156,191.139,240.245,188.843,238.271z"/>
		</g>
	</g>
</g>
<g>
	<g>
		<path fill="none" stroke="#B3B3B3" stroke-width="2" stroke-miterlimit="10" d="M360.001,193.574
			c0.977-0.289,1.94-0.555,2.892-0.799"/>
		<path fill="none" stroke="#B3B3B3" stroke-width="2" stroke-miterlimit="10" stroke-dasharray="5.7828,5.7828" d="
			M368.547,191.542c25.98-4.619,41.604,7.401,49.54,16.786"/>
		<path fill="none" stroke="#B3B3B3" stroke-width="2" stroke-miterlimit="10" d="M419.892,210.581
			c0.651,0.858,1.231,1.678,1.744,2.438"/>
		<g>
			<path fill="#B3B3B3" d="M424.668,218.234c-2.353-1.908-5.693-4.026-8.444-4.938l4.974-0.938l3.217-3.898
				C423.883,211.307,424.129,215.253,424.668,218.234z"/>
		</g>
	</g>
</g>
<g>
	<g>
		<path fill="none" stroke="#B3B3B3" stroke-width="2" stroke-miterlimit="10" d="M412.768,255.096
			c-0.992,0.213-1.978,0.403-2.941,0.575"/>
		<path fill="none" stroke="#B3B3B3" stroke-width="2" stroke-miterlimit="10" stroke-dasharray="5.7828,5.7828" d="
			M404.092,256.466c-26.259,2.615-40.912-10.575-48.104-20.545"/>
		<path fill="none" stroke="#B3B3B3" stroke-width="2" stroke-miterlimit="10" d="M354.358,233.538
			c-0.583-0.906-1.104-1.769-1.556-2.563"/>
		<g>
			<path fill="#B3B3B3" d="M350.183,225.542c2.199,2.082,5.368,4.45,8.04,5.569l-5.022,0.556l-3.507,3.644
				C350.434,232.509,350.492,228.555,350.183,225.542z"/>
		</g>
	</g>
</g>
<g>
	<polygon fill="#576E60" points="370,63.579 359,63.579 359,79.24 339.275,63.236 290,103.629 290,109.579 388,109.579 388,103.629 
		370,89.039 	"/>
	<path fill="#576E60" d="M299,113.579v62h33v-22h14v22h34v-62h-40.854H299z M352,128.579v8h-9v9h-8v-9h-9v-8h9v-9h8v9H352z"/>
</g>
<g>
	<path d="M198.719,119.764c-0.432-0.36-0.983-0.6-1.559-0.6c-0.432,0-1.008,0.252-1.008,0.755c0,0.528,0.636,0.732,1.044,0.864
		l0.6,0.18c1.259,0.372,2.23,1.007,2.23,2.471c0,0.899-0.216,1.823-0.936,2.435c-0.707,0.6-1.655,0.852-2.566,0.852
		c-1.14,0-2.255-0.384-3.179-1.031l1.008-1.895c0.588,0.516,1.283,0.936,2.087,0.936c0.552,0,1.14-0.276,1.14-0.912
		c0-0.66-0.924-0.887-1.428-1.031c-1.475-0.42-2.446-0.804-2.446-2.555c0-1.835,1.308-3.034,3.118-3.034
		c0.911,0,2.027,0.288,2.83,0.744L198.719,119.764z"/>
	<path d="M205.797,122.33c-0.324-0.24-0.708-0.432-1.128-0.432c-0.839,0-1.499,0.648-1.499,1.499c0,0.888,0.636,1.511,1.535,1.511
		c0.384,0,0.804-0.156,1.092-0.419v1.847c-0.479,0.24-1.008,0.348-1.535,0.348c-1.823,0-3.347-1.355-3.347-3.214
		c0-1.979,1.512-3.346,3.442-3.346c0.504,0,1.008,0.12,1.439,0.36L205.797,122.33L205.797,122.33z"/>
	<path d="M209.513,121.334h0.024c0.419-0.756,1.139-1.091,1.99-1.091h0.42v2.099c-0.3-0.168-0.588-0.204-0.923-0.204
		c-1.212,0-1.512,0.804-1.512,1.859v2.482h-2.183v-6.153h2.183L209.513,121.334L209.513,121.334z"/>
	<path d="M219.363,123.769h-4.594c0,0.887,0.468,1.367,1.367,1.367c0.468,0,0.804-0.156,1.044-0.562h2.099
		c-0.348,1.451-1.727,2.111-3.13,2.111c-2.039,0-3.562-1.151-3.562-3.274c0-2.051,1.403-3.286,3.406-3.286
		c2.135,0,3.37,1.319,3.37,3.418V123.769L219.363,123.769z M217.337,122.51c-0.108-0.588-0.648-0.972-1.235-0.972
		c-0.636,0-1.164,0.336-1.296,0.972H217.337z"/>
	<path d="M226.948,123.769h-4.594c0,0.887,0.468,1.367,1.367,1.367c0.468,0,0.804-0.156,1.044-0.562h2.099
		c-0.348,1.451-1.727,2.111-3.13,2.111c-2.039,0-3.562-1.151-3.562-3.274c0-2.051,1.403-3.286,3.406-3.286
		c2.135,0,3.37,1.319,3.37,3.418V123.769L226.948,123.769z M224.922,122.51c-0.108-0.588-0.648-0.972-1.235-0.972
		c-0.636,0-1.164,0.336-1.296,0.972H224.922z"/>
	<path d="M230.359,121.119h0.024c0.503-0.744,1.115-0.996,1.967-0.996c1.655,0,2.314,1.043,2.314,2.555v3.802h-2.183v-2.999
		c0-0.587,0.096-1.619-0.983-1.619c-0.888,0-1.14,0.66-1.14,1.427v3.19h-2.183v-6.153h2.183L230.359,121.119L230.359,121.119z"/>
	<path d="M238.548,117.964c0,0.671-0.552,1.223-1.224,1.223c-0.671,0-1.223-0.552-1.223-1.223c0-0.672,0.552-1.224,1.223-1.224
		C237.996,116.741,238.548,117.292,238.548,117.964z M238.416,126.479h-2.183v-6.153h2.183V126.479z"/>
	<path d="M242.189,121.119h0.024c0.503-0.744,1.115-0.996,1.967-0.996c1.655,0,2.314,1.043,2.314,2.555v3.802h-2.183v-2.999
		c0-0.587,0.096-1.619-0.983-1.619c-0.888,0-1.14,0.66-1.14,1.427v3.19h-2.183v-6.153h2.183L242.189,121.119L242.189,121.119z"/>
	<path d="M254.866,125.879c0,2.614-1.295,3.67-3.562,3.67c-1.415,0-3.311-0.731-3.502-2.351h2.446
		c0.06,0.216,0.216,0.372,0.408,0.468c0.191,0.096,0.419,0.144,0.623,0.144c1.176,0,1.403-0.768,1.403-1.763v-0.288
		c-0.563,0.564-1.14,0.84-1.955,0.84c-1.799,0-3.034-1.367-3.034-3.143c0-1.799,1.271-3.334,3.154-3.334
		c0.72,0,1.379,0.24,1.811,0.852h0.024v-0.648h2.183L254.866,125.879L254.866,125.879z M249.949,123.362
		c0,0.779,0.516,1.379,1.403,1.379c0.887,0,1.403-0.6,1.403-1.379c0-0.756-0.516-1.392-1.403-1.392
		C250.465,121.97,249.949,122.605,249.949,123.362z"/>
	<path d="M198.144,138.33c-0.324-0.24-0.708-0.432-1.127-0.432c-0.84,0-1.5,0.648-1.5,1.499c0,0.888,0.636,1.511,1.535,1.511
		c0.384,0,0.804-0.156,1.092-0.419v1.847c-0.479,0.24-1.008,0.348-1.535,0.348c-1.823,0-3.347-1.355-3.347-3.214
		c0-1.979,1.512-3.346,3.442-3.346c0.504,0,1.008,0.12,1.439,0.36L198.144,138.33L198.144,138.33z"/>
	<path d="M206.358,142.479h-2.184v-0.684h-0.023c-0.384,0.612-1.14,0.888-1.859,0.888c-1.822,0-3.106-1.523-3.106-3.287
		c0-1.763,1.26-3.274,3.083-3.274c0.707,0,1.451,0.264,1.906,0.804v-0.6h2.184L206.358,142.479L206.358,142.479z M201.44,139.41
		c0,0.78,0.516,1.379,1.403,1.379c0.887,0,1.403-0.6,1.403-1.379c0-0.755-0.516-1.391-1.403-1.391
		C201.956,138.019,201.44,138.654,201.44,139.41z"/>
	<path d="M211.973,137.911c-0.336-0.18-0.804-0.3-1.175-0.3c-0.252,0-0.684,0.108-0.684,0.419c0,0.42,0.684,0.479,0.983,0.54
		c1.02,0.204,1.787,0.684,1.787,1.823c0,1.619-1.476,2.291-2.902,2.291c-0.876,0-1.739-0.252-2.483-0.708l0.792-1.523
		c0.443,0.312,1.188,0.624,1.727,0.624c0.276,0,0.684-0.132,0.684-0.468c0-0.479-0.684-0.503-1.367-0.684
		c-0.684-0.18-1.367-0.516-1.367-1.619c0-1.511,1.367-2.183,2.711-2.183c0.695,0,1.391,0.108,2.026,0.396L211.973,137.911z"/>
	<path d="M220.523,139.769h-4.594c0,0.887,0.468,1.367,1.367,1.367c0.468,0,0.804-0.156,1.044-0.562h2.099
		c-0.348,1.451-1.727,2.111-3.13,2.111c-2.039,0-3.562-1.151-3.562-3.274c0-2.051,1.403-3.286,3.406-3.286
		c2.135,0,3.37,1.319,3.37,3.418V139.769L220.523,139.769z M218.497,138.51c-0.108-0.588-0.648-0.972-1.235-0.972
		c-0.636,0-1.164,0.336-1.296,0.972H218.497z"/>
	<path d="M230.748,141.795h-0.023c-0.384,0.612-1.14,0.888-1.859,0.888c-1.822,0-3.106-1.523-3.106-3.287
		c0-1.763,1.26-3.274,3.083-3.274c0.707,0,1.451,0.264,1.906,0.804v-4.402h2.184v9.955h-2.184L230.748,141.795L230.748,141.795z
		 M228.014,139.41c0,0.78,0.516,1.379,1.403,1.379s1.403-0.6,1.403-1.379c0-0.755-0.516-1.391-1.403-1.391
		S228.014,138.654,228.014,139.41z"/>
	<path d="M240.895,139.769h-4.594c0,0.887,0.468,1.367,1.367,1.367c0.468,0,0.804-0.156,1.044-0.562h2.099
		c-0.348,1.451-1.727,2.111-3.13,2.111c-2.039,0-3.562-1.151-3.562-3.274c0-2.051,1.403-3.286,3.406-3.286
		c2.135,0,3.37,1.319,3.37,3.418V139.769L240.895,139.769z M238.868,138.51c-0.108-0.588-0.648-0.972-1.235-0.972
		c-0.636,0-1.164,0.336-1.296,0.972H238.868z"/>
	<path d="M244.509,142.479h-2.183v-4.354h-0.708v-1.799h0.708v-1.847h2.183v1.847h1.235v1.799h-1.235V142.479z"/>
	<path d="M253.063,139.769h-4.594c0,0.887,0.468,1.367,1.367,1.367c0.468,0,0.804-0.156,1.044-0.562h2.099
		c-0.348,1.451-1.727,2.111-3.13,2.111c-2.039,0-3.562-1.151-3.562-3.274c0-2.051,1.403-3.286,3.406-3.286
		c2.135,0,3.37,1.319,3.37,3.418V139.769L253.063,139.769z M251.037,138.51c-0.108-0.588-0.648-0.972-1.235-0.972
		c-0.636,0-1.164,0.336-1.296,0.972H251.037z"/>
	<path d="M258.76,138.33c-0.324-0.24-0.708-0.432-1.128-0.432c-0.839,0-1.499,0.648-1.499,1.499c0,0.888,0.636,1.511,1.535,1.511
		c0.384,0,0.804-0.156,1.092-0.419v1.847c-0.479,0.24-1.008,0.348-1.535,0.348c-1.823,0-3.347-1.355-3.347-3.214
		c0-1.979,1.512-3.346,3.442-3.346c0.504,0,1.008,0.12,1.439,0.36L258.76,138.33L258.76,138.33z"/>
	<path d="M262.765,142.479h-2.183v-4.354h-0.708v-1.799h0.708v-1.847h2.183v1.847H264v1.799h-1.235V142.479z"/>
	<path d="M267.252,133.964c0,0.671-0.552,1.223-1.224,1.223c-0.671,0-1.223-0.552-1.223-1.223c0-0.672,0.552-1.224,1.223-1.224
		C266.7,132.741,267.252,133.292,267.252,133.964z M267.12,142.479h-2.183v-6.153h2.183V142.479z"/>
	<path d="M275.688,139.41c0,2.087-1.727,3.274-3.706,3.274c-1.967,0-3.706-1.176-3.706-3.274c0-2.098,1.728-3.286,3.706-3.286
		C273.962,136.123,275.688,137.311,275.688,139.41z M270.579,139.41c0,0.78,0.516,1.379,1.403,1.379c0.887,0,1.403-0.6,1.403-1.379
		c0-0.755-0.516-1.391-1.403-1.391C271.095,138.019,270.579,138.654,270.579,139.41z"/>
	<path d="M279.074,137.119h0.024c0.503-0.744,1.115-0.996,1.967-0.996c1.655,0,2.314,1.043,2.314,2.555v3.802h-2.183v-2.999
		c0-0.587,0.096-1.619-0.983-1.619c-0.888,0-1.14,0.66-1.14,1.427v3.19h-2.183v-6.153h2.183v0.793H279.074z"/>
</g>
<g>
	<path d="M413.356,110.691h-2.93l-2.219-3.478h-0.023v3.478h-2.352v-9.043h3.514c1.787,0,3.146,0.852,3.146,2.782
		c0,1.248-0.695,2.327-1.979,2.555L413.356,110.691z M408.188,105.703h0.229c0.768,0,1.632-0.144,1.632-1.127
		c0-0.983-0.864-1.127-1.632-1.127h-0.229V105.703z"/>
	<path d="M420.284,107.98h-4.594c0,0.887,0.468,1.367,1.363,1.367c0.472,0,0.808-0.156,1.044-0.563h2.103
		c-0.352,1.451-1.729,2.111-3.13,2.111c-2.039,0-3.562-1.151-3.562-3.274c0-2.051,1.403-3.286,3.406-3.286
		c2.135,0,3.37,1.319,3.37,3.418V107.98z M418.258,106.722c-0.104-0.588-0.646-0.972-1.231-0.972c-0.64,0-1.164,0.336-1.3,0.972
		H418.258z"/>
	<path d="M423.658,105.235h0.021c0.396-0.612,1.144-0.899,1.859-0.899c1.835,0,3.104,1.535,3.104,3.298
		c0,1.775-1.261,3.262-3.081,3.262c-0.708,0-1.438-0.252-1.906-0.792v3.658h-2.187v-9.223h2.187L423.658,105.235L423.658,105.235z
		 M423.587,107.621c0,0.78,0.516,1.379,1.403,1.379c0.887,0,1.398-0.6,1.398-1.379c0-0.755-0.516-1.391-1.398-1.391
		C424.103,106.23,423.587,106.866,423.587,107.621z"/>
	<path d="M436.911,107.621c0,2.087-1.729,3.274-3.706,3.274c-1.967,0-3.706-1.176-3.706-3.274c0-2.098,1.728-3.286,3.706-3.286
		C435.183,104.334,436.911,105.522,436.911,107.621z M431.802,107.621c0,0.78,0.52,1.379,1.403,1.379s1.403-0.6,1.403-1.379
		c0-0.755-0.52-1.391-1.403-1.391S431.802,106.866,431.802,107.621z"/>
	<path d="M440.296,105.546h0.024c0.419-0.756,1.139-1.091,1.986-1.091h0.424v2.099c-0.304-0.168-0.592-0.204-0.928-0.204
		c-1.211,0-1.511,0.804-1.511,1.859v2.482h-2.183v-6.153h2.183L440.296,105.546L440.296,105.546z"/>
	<path d="M446.278,110.691h-2.187v-4.354h-0.708v-1.799h0.708v-1.847h2.187v1.847h1.231v1.799h-1.231V110.691z"/>
	<path d="M450.767,102.177c0,0.671-0.552,1.223-1.224,1.223c-0.671,0-1.223-0.552-1.223-1.223c0-0.672,0.552-1.224,1.223-1.224
		C450.215,100.953,450.767,101.504,450.767,102.177z M450.635,110.691h-2.183v-6.153h2.183V110.691z"/>
	<path d="M454.407,105.331h0.021c0.503-0.744,1.115-0.996,1.971-0.996c1.651,0,2.312,1.043,2.312,2.555v3.802h-2.183v-2.999
		c0-0.587,0.096-1.619-0.983-1.619c-0.888,0-1.14,0.66-1.14,1.427v3.19h-2.187v-6.153h2.187L454.407,105.331L454.407,105.331z"/>
	<path d="M467.085,110.092c0,2.614-1.295,3.67-3.562,3.67c-1.416,0-3.312-0.729-3.504-2.351h2.444
		c0.062,0.216,0.216,0.372,0.407,0.468c0.191,0.096,0.42,0.144,0.624,0.144c1.176,0,1.403-0.768,1.403-1.763v-0.288
		c-0.563,0.564-1.144,0.84-1.955,0.84c-1.8,0-3.034-1.367-3.034-3.143c0-1.799,1.271-3.334,3.154-3.334
		c0.72,0,1.379,0.24,1.811,0.852h0.024v-0.648h2.183L467.085,110.092L467.085,110.092z M462.168,107.574
		c0,0.779,0.516,1.379,1.403,1.379c0.887,0,1.399-0.6,1.399-1.379c0-0.756-0.516-1.392-1.399-1.392
		C462.684,106.182,462.168,106.818,462.168,107.574z"/>
	<path d="M475.548,104.539h1.8v2.171h2.17v1.799h-2.17v2.183h-1.8v-2.183h-2.171v-1.799h2.171V104.539z"/>
	<path d="M261.2,119.829h1.8V122h2.17v1.799H263v2.183h-1.8v-2.183h-2.171V122h2.171V119.829z"/>
	<path d="M410.227,122.542c-0.32-0.24-0.708-0.432-1.127-0.432c-0.84,0-1.5,0.647-1.5,1.499c0,0.888,0.64,1.511,1.535,1.511
		c0.384,0,0.808-0.156,1.092-0.419v1.847c-0.479,0.24-1.008,0.348-1.531,0.348c-1.823,0-3.351-1.355-3.351-3.214
		c0-1.979,1.516-3.346,3.442-3.346c0.504,0,1.008,0.12,1.438,0.36L410.227,122.542L410.227,122.542z"/>
	<path d="M418.441,126.691h-2.185v-0.684h-0.021c-0.388,0.612-1.144,0.888-1.859,0.888c-1.822,0-3.104-1.523-3.104-3.287
		c0-1.763,1.262-3.274,3.084-3.274c0.704,0,1.448,0.264,1.903,0.804v-0.6h2.188v6.153H418.441z M413.523,123.621
		c0,0.78,0.516,1.379,1.399,1.379c0.891,0,1.403-0.6,1.403-1.379c0-0.755-0.517-1.391-1.403-1.391
		C414.039,122.23,413.523,122.866,413.523,123.621z"/>
	<path d="M424.056,122.122c-0.336-0.18-0.804-0.3-1.175-0.3c-0.252,0-0.684,0.108-0.684,0.419c0,0.42,0.684,0.48,0.979,0.54
		c1.021,0.204,1.787,0.684,1.787,1.823c0,1.619-1.476,2.291-2.898,2.291c-0.876,0-1.739-0.252-2.483-0.708l0.792-1.523
		c0.443,0.312,1.188,0.624,1.727,0.624c0.276,0,0.688-0.132,0.688-0.468c0-0.479-0.688-0.503-1.367-0.684
		c-0.684-0.18-1.367-0.516-1.367-1.619c0-1.511,1.367-2.183,2.711-2.183c0.695,0,1.395,0.108,2.026,0.396L424.056,122.122z"/>
	<path d="M432.606,123.98h-4.598c0,0.887,0.472,1.367,1.367,1.367c0.468,0,0.804-0.156,1.044-0.563h2.102
		c-0.351,1.451-1.729,2.111-3.133,2.111c-2.039,0-3.562-1.151-3.562-3.274c0-2.051,1.403-3.286,3.406-3.286
		c2.135,0,3.369,1.319,3.369,3.418L432.606,123.98L432.606,123.98z M430.58,122.722c-0.108-0.588-0.648-0.972-1.235-0.972
		c-0.636,0-1.164,0.336-1.296,0.972H430.58z"/>
	<path d="M442.831,126.007h-0.023c-0.384,0.612-1.14,0.888-1.855,0.888c-1.822,0-3.106-1.523-3.106-3.287
		c0-1.763,1.263-3.274,3.083-3.274c0.707,0,1.451,0.264,1.906,0.804v-4.402h2.184v9.955h-2.184L442.831,126.007L442.831,126.007z
		 M440.097,123.621c0,0.78,0.52,1.379,1.403,1.379s1.403-0.6,1.403-1.379c0-0.755-0.52-1.391-1.403-1.391
		S440.097,122.866,440.097,123.621z"/>
	<path d="M452.978,123.98h-4.594c0,0.887,0.468,1.367,1.367,1.367c0.468,0,0.804-0.156,1.044-0.563h2.099
		c-0.348,1.451-1.727,2.111-3.13,2.111c-2.039,0-3.562-1.151-3.562-3.274c0-2.051,1.403-3.286,3.406-3.286
		c2.135,0,3.366,1.319,3.366,3.418L452.978,123.98L452.978,123.98z M450.951,122.722c-0.108-0.588-0.648-0.972-1.235-0.972
		c-0.636,0-1.164,0.336-1.296,0.972H450.951z"/>
	<path d="M456.592,126.691h-2.183v-4.354h-0.708v-1.799h0.708v-1.847h2.183v1.847h1.235v1.799h-1.235V126.691z"/>
	<path d="M465.146,123.98h-4.595c0,0.887,0.468,1.367,1.367,1.367c0.468,0,0.804-0.156,1.044-0.563h2.1
		c-0.349,1.451-1.728,2.111-3.131,2.111c-2.039,0-3.562-1.151-3.562-3.274c0-2.051,1.403-3.286,3.406-3.286
		c2.135,0,3.366,1.319,3.366,3.418L465.146,123.98L465.146,123.98z M463.12,122.722c-0.108-0.588-0.648-0.972-1.235-0.972
		c-0.636,0-1.164,0.336-1.296,0.972H463.12z"/>
	<path d="M470.843,122.542c-0.324-0.24-0.708-0.432-1.128-0.432c-0.839,0-1.499,0.647-1.499,1.499c0,0.888,0.636,1.511,1.535,1.511
		c0.384,0,0.804-0.156,1.092-0.419v1.847c-0.479,0.24-1.008,0.348-1.535,0.348c-1.819,0-3.347-1.355-3.347-3.214
		c0-1.979,1.512-3.346,3.442-3.346c0.504,0,1.008,0.12,1.438,0.36L470.843,122.542L470.843,122.542z"/>
	<path d="M474.848,126.691h-2.183v-4.354h-0.708v-1.799h0.708v-1.847h2.183v1.847h1.235v1.799h-1.235V126.691z"/>
	<path d="M479.335,118.177c0,0.671-0.552,1.223-1.224,1.223c-0.671,0-1.227-0.552-1.227-1.223c0-0.672,0.556-1.224,1.227-1.224
		C478.783,116.953,479.335,117.504,479.335,118.177z M479.203,126.691h-2.187v-6.153h2.187V126.691z"/>
	<path d="M487.771,123.621c0,2.087-1.729,3.274-3.705,3.274c-1.971,0-3.706-1.176-3.706-3.274c0-2.098,1.728-3.286,3.706-3.286
		C486.045,120.334,487.771,121.522,487.771,123.621z M482.662,123.621c0,0.78,0.516,1.379,1.403,1.379
		c0.887,0,1.399-0.6,1.399-1.379c0-0.755-0.516-1.391-1.399-1.391C483.178,122.23,482.662,122.866,482.662,123.621z"/>
	<path d="M491.157,121.331h0.021c0.503-0.744,1.115-0.996,1.971-0.996c1.651,0,2.312,1.043,2.312,2.555v3.802h-2.183v-2.999
		c0-0.587,0.096-1.619-0.983-1.619c-0.888,0-1.14,0.66-1.14,1.427v3.19h-2.187v-6.153h2.187L491.157,121.331L491.157,121.331z"/>
</g>
<g>
	<path d="M194.196,258.411v1.512h2.579v1.99h-2.579v3.551h-2.351v-9.043h5.193v1.99H194.196L194.196,258.411z"/>
	<path d="M205.243,262.395c0,2.086-1.727,3.272-3.706,3.272c-1.967,0-3.706-1.176-3.706-3.272c0-2.098,1.728-3.287,3.706-3.287
		C203.517,259.107,205.243,260.296,205.243,262.395z M200.134,262.395c0,0.778,0.516,1.379,1.403,1.379
		c0.887,0,1.403-0.601,1.403-1.379c0-0.756-0.516-1.392-1.403-1.392C200.65,261.003,200.134,261.639,200.134,262.395z"/>
	<path d="M208.623,265.464h-2.183v-9.955h2.183V265.464z"/>
	<path d="M212.388,265.464h-2.183v-9.955h2.183V265.464z"/>
	<path d="M220.996,262.395c0,2.086-1.728,3.272-3.706,3.272c-1.967,0-3.706-1.176-3.706-3.272c0-2.098,1.728-3.287,3.706-3.287
		S220.996,260.296,220.996,262.395z M215.887,262.395c0,0.778,0.516,1.379,1.403,1.379c0.887,0,1.403-0.601,1.403-1.379
		c0-0.756-0.516-1.392-1.403-1.392C216.403,261.003,215.887,261.639,215.887,262.395z"/>
	<path d="M224.977,262.646l1.547-3.334h1.295l1.548,3.334l1.547-3.334h2.41l-3.214,6.149h-1.415l-1.523-3.368l-1.523,3.368h-1.415
		l-3.214-6.149h2.423L224.977,262.646z"/>
	<path d="M240.612,259.312v3.287c0,0.776,0.192,1.33,1.092,1.33s1.091-0.554,1.091-1.33v-3.287h2.184v3.705
		c0,2.024-1.428,2.649-3.274,2.649c-1.848,0-3.274-0.625-3.274-2.649v-3.705H240.612z"/>
	<path d="M248.684,260.007h0.024c0.396-0.612,1.14-0.899,1.859-0.899c1.835,0,3.105,1.535,3.105,3.301
		c0,1.773-1.259,3.262-3.082,3.262c-0.707,0-1.439-0.252-1.907-0.791v3.657H246.5v-9.226h2.183L248.684,260.007L248.684,260.007z
		 M248.612,262.395c0,0.778,0.516,1.379,1.403,1.379c0.887,0,1.403-0.601,1.403-1.379c0-0.756-0.517-1.392-1.403-1.392
		C249.128,261.003,248.612,261.639,248.612,262.395z"/>
	<path d="M198.526,281.464h-2.184v-0.685h-0.023c-0.384,0.611-1.14,0.888-1.859,0.888c-1.822,0-3.106-1.522-3.106-3.287
		c0-1.763,1.26-3.272,3.083-3.272c0.707,0,1.451,0.266,1.906,0.806v-0.603h2.184L198.526,281.464L198.526,281.464z M193.608,278.395
		c0,0.778,0.516,1.379,1.403,1.379c0.887,0,1.403-0.601,1.403-1.379c0-0.756-0.516-1.392-1.403-1.392
		C194.124,277.003,193.608,277.639,193.608,278.395z"/>
	<path d="M204.771,280.779h-0.023c-0.384,0.613-1.14,0.89-1.859,0.89c-1.822,0-3.106-1.522-3.106-3.287
		c0-1.764,1.26-3.274,3.083-3.274c0.707,0,1.451,0.268,1.906,0.807v-4.4h2.184v9.953h-2.184L204.771,280.779L204.771,280.779z
		 M202.037,278.395c0,0.778,0.516,1.379,1.403,1.379c0.887,0,1.403-0.601,1.403-1.379c0-0.756-0.516-1.392-1.403-1.392
		C202.553,277.003,202.037,277.639,202.037,278.395z"/>
	<path d="M211.626,278.466l1.463-3.153h2.446l-3.214,6.151h-1.392l-3.226-6.151h2.446L211.626,278.466z"/>
	<path d="M218.633,272.948c0,0.671-0.552,1.223-1.224,1.223c-0.671,0-1.223-0.552-1.223-1.223c0-0.673,0.552-1.224,1.223-1.224
		C218.081,271.727,218.633,272.275,218.633,272.948z M218.501,281.464h-2.183v-6.153h2.183V281.464z"/>
	<path d="M224.546,277.314c-0.324-0.24-0.708-0.436-1.127-0.436c-0.84,0-1.5,0.646-1.5,1.5c0,0.891,0.636,1.514,1.535,1.514
		c0.384,0,0.804-0.156,1.092-0.42v1.848c-0.479,0.24-1.008,0.349-1.535,0.349c-1.823,0-3.347-1.354-3.347-3.215
		c0-1.979,1.512-3.347,3.442-3.347c0.504,0,1.008,0.121,1.439,0.357L224.546,277.314L224.546,277.314z"/>
	<path d="M232.358,278.753h-4.594c0,0.888,0.468,1.367,1.367,1.367c0.468,0,0.804-0.156,1.044-0.562h2.099
		c-0.348,1.448-1.727,2.108-3.13,2.108c-2.039,0-3.562-1.149-3.562-3.272c0-2.054,1.403-3.285,3.406-3.285
		c2.135,0,3.37,1.315,3.37,3.418V278.753L232.358,278.753z M230.332,277.494c-0.108-0.588-0.648-0.973-1.235-0.973
		c-0.636,0-1.164,0.336-1.296,0.973H230.332z"/>
</g>
<g>
	<path fill="#808080" d="M497.253,252.734h3.334c2.521,0,4.594,1.979,4.594,4.521c0,2.543-2.087,4.521-4.594,4.521h-3.334V252.734z
		 M499.604,259.788h0.527c1.403,0,2.604-0.769,2.604-2.531c0-1.618-1.068-2.53-2.579-2.53h-0.556L499.604,259.788L499.604,259.788z"
		/>
	<path fill="#808080" d="M508.726,253.264c0,0.67-0.552,1.223-1.224,1.223c-0.671,0-1.223-0.553-1.223-1.223
		c0-0.673,0.552-1.226,1.223-1.226C508.174,252.04,508.726,252.591,508.726,253.264z M508.594,261.777h-2.183v-6.153h2.183V261.777z
		"/>
	<path fill="#808080" d="M514.167,257.208c-0.336-0.181-0.804-0.3-1.175-0.3c-0.252,0-0.688,0.107-0.688,0.419
		c0,0.42,0.688,0.479,0.983,0.54c1.02,0.204,1.787,0.686,1.787,1.822c0,1.619-1.479,2.291-2.902,2.291
		c-0.876,0-1.739-0.252-2.479-0.707l0.792-1.522c0.439,0.312,1.188,0.623,1.727,0.623c0.276,0,0.687-0.132,0.687-0.468
		c0-0.479-0.687-0.504-1.366-0.686c-0.688-0.182-1.367-0.518-1.367-1.617c0-1.514,1.367-2.186,2.711-2.186
		c0.695,0,1.391,0.105,2.026,0.396L514.167,257.208z"/>
	<path fill="#808080" d="M518.777,261.777h-2.187v-4.354h-0.708v-1.799h0.708v-1.847h2.187v1.847h1.231v1.799h-1.231V261.777z"/>
	<path fill="#808080" d="M523.173,256.632h0.024c0.419-0.756,1.139-1.09,1.986-1.09h0.424v2.099
		c-0.304-0.168-0.592-0.203-0.928-0.203c-1.211,0-1.511,0.806-1.511,1.858v2.481h-2.183v-6.153h2.183L523.173,256.632
		L523.173,256.632z"/>
	<path fill="#808080" d="M528.831,253.264c0,0.67-0.552,1.223-1.224,1.223c-0.675,0-1.227-0.553-1.227-1.223
		c0-0.673,0.552-1.226,1.227-1.226C528.279,252.04,528.831,252.591,528.831,253.264z M528.699,261.777h-2.187v-6.153h2.187V261.777z
		"/>
	<path fill="#808080" d="M534.744,257.628c-0.324-0.239-0.708-0.433-1.127-0.433c-0.84,0-1.5,0.646-1.5,1.5
		c0,0.888,0.636,1.511,1.535,1.511c0.384,0,0.804-0.156,1.092-0.419v1.847c-0.479,0.24-1.008,0.349-1.535,0.349
		c-1.823,0-3.347-1.354-3.347-3.213c0-1.979,1.512-3.347,3.438-3.347c0.504,0,1.009,0.119,1.439,0.358L534.744,257.628
		L534.744,257.628z"/>
	<path fill="#808080" d="M538.744,261.777h-2.187v-4.354h-0.704v-1.799h0.704v-1.847h2.187v1.847h1.234v1.799h-1.234V261.777z"/>
	<path fill="#808080" d="M547.456,251.823v4.581h0.024c0.503-0.672,1.111-0.981,1.967-0.981c1.559,0,2.312,1.031,2.312,2.591v3.766
		h-2.183v-3.152c0-0.723-0.108-1.463-0.983-1.463c-0.859,0-1.14,0.742-1.14,1.463v3.152h-2.185v-9.953L547.456,251.823
		L547.456,251.823z"/>
	<path fill="#808080" d="M559.72,259.066h-4.594c0,0.888,0.468,1.367,1.367,1.367c0.468,0,0.804-0.156,1.044-0.562h2.099
		c-0.348,1.449-1.727,2.109-3.13,2.109c-2.039,0-3.562-1.15-3.562-3.273c0-2.051,1.399-3.285,3.402-3.285
		c2.139,0,3.37,1.318,3.37,3.418L559.72,259.066L559.72,259.066z M557.693,257.809c-0.108-0.588-0.648-0.972-1.235-0.972
		c-0.636,0-1.164,0.336-1.296,0.972H557.693z"/>
	<path fill="#808080" d="M567.707,261.777h-2.184v-0.688H565.5c-0.384,0.613-1.14,0.891-1.859,0.891
		c-1.818,0-3.104-1.522-3.104-3.287c0-1.762,1.26-3.272,3.083-3.272c0.707,0,1.451,0.265,1.906,0.804v-0.601h2.184L567.707,261.777
		L567.707,261.777z M562.789,258.708c0,0.778,0.516,1.379,1.403,1.379c0.887,0,1.399-0.601,1.399-1.379
		c0-0.756-0.516-1.392-1.399-1.392C563.305,257.316,562.789,257.952,562.789,258.708z"/>
	<path fill="#808080" d="M571.495,261.777h-2.183v-9.955h2.183V261.777z"/>
	<path fill="#808080" d="M575.577,261.777h-2.183v-4.354h-0.709v-1.799h0.709v-1.847h2.183v1.847h1.235v1.799h-1.235V261.777z"/>
	<path fill="#808080" d="M579.973,251.823v4.581h0.024c0.503-0.672,1.115-0.981,1.967-0.981c1.562,0,2.314,1.031,2.314,2.591v3.766
		h-2.187v-3.152c0-0.723-0.104-1.463-0.979-1.463c-0.863,0-1.144,0.742-1.144,1.463v3.152h-2.183v-9.953L579.973,251.823
		L579.973,251.823z"/>
	<path fill="#808080" d="M501.643,273.628c-0.32-0.239-0.708-0.433-1.127-0.433c-0.84,0-1.5,0.646-1.5,1.5
		c0,0.888,0.64,1.511,1.535,1.511c0.384,0,0.808-0.156,1.092-0.419v1.847c-0.479,0.24-1.008,0.349-1.531,0.349
		c-1.823,0-3.351-1.354-3.351-3.213c0-1.979,1.516-3.347,3.442-3.347c0.504,0,1.008,0.119,1.438,0.358L501.643,273.628
		L501.643,273.628z"/>
	<path fill="#808080" d="M509.456,275.066h-4.594c0,0.888,0.468,1.367,1.363,1.367c0.472,0,0.808-0.156,1.048-0.562h2.099
		c-0.348,1.449-1.729,2.109-3.13,2.109c-2.039,0-3.562-1.15-3.562-3.273c0-2.051,1.403-3.285,3.406-3.285
		c2.135,0,3.37,1.318,3.37,3.418V275.066L509.456,275.066z M507.43,273.809c-0.104-0.588-0.646-0.972-1.231-0.972
		c-0.64,0-1.164,0.336-1.296,0.972H507.43z"/>
	<path fill="#808080" d="M512.867,272.417h0.021c0.503-0.744,1.115-0.996,1.971-0.996c1.651,0,2.312,1.043,2.312,2.556v3.803h-2.183
		v-3c0-0.586,0.096-1.616-0.983-1.616c-0.888,0-1.14,0.657-1.14,1.427v3.188h-2.187v-6.15h2.187L512.867,272.417L512.867,272.417z"
		/>
	<path fill="#808080" d="M521.176,277.777h-2.183v-4.354h-0.708v-1.799h0.708v-1.847h2.183v1.847h1.235v1.799h-1.235V277.777z"/>
	<path fill="#808080" d="M529.731,275.066h-4.598c0,0.888,0.472,1.367,1.367,1.367c0.468,0,0.804-0.156,1.044-0.562h2.103
		c-0.352,1.449-1.729,2.109-3.134,2.109c-2.035,0-3.562-1.15-3.562-3.273c0-2.051,1.403-3.285,3.406-3.285
		c2.135,0,3.368,1.318,3.368,3.418L529.731,275.066L529.731,275.066z M527.705,273.809c-0.108-0.588-0.648-0.972-1.235-0.972
		c-0.636,0-1.164,0.336-1.296,0.972H527.705z"/>
	<path fill="#808080" d="M533.143,272.632h0.024c0.419-0.756,1.139-1.09,1.99-1.09h0.42v2.099c-0.3-0.168-0.588-0.203-0.923-0.203
		c-1.212,0-1.516,0.806-1.516,1.858v2.481h-2.183v-6.153h2.183L533.143,272.632L533.143,272.632z"/>
</g>
<g>
	<path fill="#808080" d="M253.698,54.964h2.818v1.991h-5.169v-9.043h2.351L253.698,54.964L253.698,54.964z"/>
	<path fill="#808080" d="M264.523,53.885c0,2.087-1.728,3.274-3.706,3.274c-1.967,0-3.706-1.176-3.706-3.274
		c0-2.098,1.728-3.286,3.706-3.286S264.523,51.787,264.523,53.885z M259.414,53.885c0,0.78,0.516,1.379,1.403,1.379
		c0.887,0,1.403-0.6,1.403-1.379c0-0.755-0.516-1.391-1.403-1.391C259.93,52.494,259.414,53.129,259.414,53.885z"/>
	<path fill="#808080" d="M270.188,52.806c-0.324-0.24-0.708-0.432-1.127-0.432c-0.84,0-1.5,0.648-1.5,1.499
		c0,0.888,0.636,1.511,1.535,1.511c0.384,0,0.804-0.156,1.092-0.419v1.847c-0.479,0.24-1.008,0.348-1.535,0.348
		c-1.823,0-3.347-1.355-3.347-3.214c0-1.979,1.512-3.346,3.442-3.346c0.504,0,1.008,0.12,1.439,0.36L270.188,52.806L270.188,52.806z
		"/>
	<path fill="#808080" d="M278.404,56.955h-2.184v-0.684h-0.023c-0.384,0.612-1.14,0.888-1.859,0.888
		c-1.822,0-3.106-1.523-3.106-3.287c0-1.763,1.26-3.274,3.083-3.274c0.707,0,1.451,0.264,1.906,0.804v-0.6h2.184L278.404,56.955
		L278.404,56.955z M273.486,53.885c0,0.78,0.516,1.379,1.403,1.379c0.887,0,1.403-0.6,1.403-1.379c0-0.755-0.516-1.391-1.403-1.391
		C274.002,52.494,273.486,53.129,273.486,53.885z"/>
	<path fill="#808080" d="M282.193,56.955h-2.183V47h2.183V56.955z"/>
	<path fill="#808080" d="M290.413,47v4.582h0.024c0.503-0.672,1.115-0.983,1.967-0.983c1.559,0,2.314,1.031,2.314,2.59v3.766h-2.183
		v-3.154c0-0.72-0.108-1.463-0.983-1.463c-0.863,0-1.14,0.744-1.14,1.463v3.154h-2.183V47H290.413z"/>
	<path fill="#808080" d="M302.677,54.245h-4.594c0,0.887,0.468,1.367,1.367,1.367c0.468,0,0.804-0.156,1.044-0.563h2.099
		c-0.348,1.451-1.727,2.111-3.13,2.111c-2.039,0-3.562-1.151-3.562-3.274c0-2.051,1.403-3.286,3.406-3.286
		c2.134,0,3.37,1.319,3.37,3.418V54.245z M300.65,52.986c-0.108-0.588-0.648-0.972-1.235-0.972c-0.636,0-1.164,0.336-1.296,0.972
		H300.65z"/>
	<path fill="#808080" d="M310.664,56.955h-2.184v-0.684h-0.023c-0.384,0.612-1.14,0.888-1.859,0.888
		c-1.822,0-3.104-1.523-3.104-3.287c0-1.763,1.26-3.274,3.083-3.274c0.707,0,1.451,0.264,1.906,0.804v-0.6h2.184L310.664,56.955
		L310.664,56.955z M305.746,53.885c0,0.78,0.516,1.379,1.403,1.379c0.887,0,1.399-0.6,1.399-1.379c0-0.755-0.516-1.391-1.399-1.391
		C306.262,52.494,305.746,53.129,305.746,53.885z"/>
	<path fill="#808080" d="M314.452,56.955h-2.187V47h2.187V56.955z"/>
	<path fill="#808080" d="M318.534,56.955h-2.187v-4.354h-0.708v-1.799h0.708v-1.847h2.187v1.847h1.231v1.799h-1.231V56.955z"/>
	<path fill="#808080" d="M322.93,47v4.582h0.024c0.503-0.672,1.115-0.983,1.967-0.983c1.562,0,2.314,1.031,2.314,2.59v3.766h-2.187
		v-3.154c0-0.72-0.104-1.463-0.979-1.463c-0.863,0-1.144,0.744-1.144,1.463v3.154h-2.183V47H322.93z"/>
	<path fill="#808080" d="M253.698,72.955h-2.183v-4.354h-0.768v-1.799h0.768v-0.779c0-0.852,0.024-1.475,0.624-2.159
		c0.539-0.636,1.318-0.983,2.146-0.983c0.336,0,0.636,0.06,0.936,0.216v1.883c-0.252-0.108-0.479-0.204-0.768-0.204
		c-0.563,0-0.756,0.336-0.756,1.032v0.995h1.523v1.799h-1.523v4.353H253.698z"/>
	<path fill="#808080" d="M262.95,72.955h-2.184v-0.684h-0.023c-0.384,0.612-1.14,0.888-1.859,0.888
		c-1.822,0-3.106-1.523-3.106-3.287c0-1.763,1.26-3.274,3.083-3.274c0.707,0,1.451,0.264,1.906,0.804v-0.6h2.184L262.95,72.955
		L262.95,72.955z M258.032,69.885c0,0.78,0.516,1.379,1.403,1.379s1.403-0.6,1.403-1.379c0-0.755-0.516-1.391-1.403-1.391
		S258.032,69.129,258.032,69.885z"/>
	<path fill="#808080" d="M269.045,68.806c-0.324-0.24-0.708-0.432-1.128-0.432c-0.839,0-1.499,0.648-1.499,1.499
		c0,0.888,0.636,1.511,1.535,1.511c0.384,0,0.804-0.156,1.092-0.419v1.847c-0.479,0.24-1.008,0.348-1.535,0.348
		c-1.823,0-3.347-1.355-3.347-3.214c0-1.979,1.512-3.346,3.442-3.346c0.504,0,1.008,0.12,1.439,0.36L269.045,68.806L269.045,68.806z
		"/>
	<path fill="#808080" d="M272.863,64.439c0,0.671-0.552,1.223-1.224,1.223c-0.671,0-1.223-0.552-1.223-1.223
		c0-0.672,0.552-1.224,1.223-1.224C272.312,63.217,272.863,63.768,272.863,64.439z M272.731,72.955h-2.183v-6.153h2.183V72.955z"/>
	<path fill="#808080" d="M276.501,72.955h-2.183V63h2.183V72.955z"/>
	<path fill="#808080" d="M280.401,64.439c0,0.671-0.552,1.223-1.224,1.223c-0.671,0-1.223-0.552-1.223-1.223
		c0-0.672,0.552-1.224,1.223-1.224C279.85,63.217,280.401,63.768,280.401,64.439z M280.27,72.955h-2.183v-6.153h2.183V72.955z"/>
	<path fill="#808080" d="M284.318,72.955h-2.183v-4.354h-0.708v-1.799h0.708v-1.847h2.183v1.847h1.235v1.799h-1.235V72.955z"/>
	<path fill="#808080" d="M285.952,66.803h2.519l1.643,3.154l1.607-3.154h2.482l-4.929,9.223h-2.447l2.1-3.91L285.952,66.803z"/>
</g>
<g>
	<path d="M360.268,279.259h-2.926l-2.219-3.478h-0.024v3.478h-2.351v-9.043h3.514c1.787,0,3.146,0.853,3.146,2.783
		c0,1.248-0.695,2.326-1.979,2.556L360.268,279.259z M355.099,274.271h0.229c0.768,0,1.632-0.146,1.632-1.127
		c0-0.983-0.864-1.127-1.632-1.127h-0.229V274.271z"/>
	<path d="M367.195,276.55H362.6c0,0.888,0.472,1.367,1.367,1.367c0.468,0,0.808-0.156,1.044-0.563h2.103
		c-0.352,1.451-1.729,2.11-3.13,2.11c-2.039,0-3.562-1.149-3.562-3.272c0-2.051,1.403-3.287,3.406-3.287
		c2.135,0,3.37,1.32,3.37,3.42L367.195,276.55L367.195,276.55z M365.169,275.29c-0.108-0.588-0.646-0.972-1.235-0.972
		c-0.636,0-1.164,0.336-1.296,0.972H365.169z"/>
	<path d="M372.34,274.689c-0.336-0.182-0.804-0.299-1.175-0.299c-0.252,0-0.684,0.105-0.684,0.418c0,0.42,0.684,0.479,0.979,0.541
		c1.021,0.201,1.787,0.684,1.787,1.82c0,1.619-1.476,2.291-2.902,2.291c-0.876,0-1.735-0.252-2.479-0.709l0.792-1.521
		c0.439,0.312,1.188,0.623,1.727,0.623c0.276,0,0.688-0.131,0.688-0.47c0-0.479-0.688-0.502-1.367-0.684
		c-0.688-0.181-1.367-0.517-1.367-1.619c0-1.511,1.367-2.185,2.711-2.185c0.695,0,1.393,0.107,2.026,0.396L372.34,274.689z"/>
	<path d="M381.502,276.189c0,2.086-1.728,3.271-3.706,3.271c-1.967,0-3.706-1.176-3.706-3.271c0-2.101,1.729-3.287,3.706-3.287
		C379.774,272.902,381.502,274.091,381.502,276.189z M376.393,276.189c0,0.777,0.52,1.379,1.403,1.379s1.403-0.604,1.403-1.379
		c0-0.756-0.52-1.395-1.403-1.395S376.393,275.436,376.393,276.189z"/>
	<path d="M384.825,273.107v3.287c0,0.775,0.188,1.33,1.092,1.33s1.091-0.555,1.091-1.33v-3.287h2.188v3.705
		c0,2.025-1.432,2.648-3.274,2.648c-1.848,0-3.271-0.623-3.271-2.648v-3.705H384.825z"/>
	<path d="M392.933,274.114h0.024c0.419-0.757,1.139-1.091,1.99-1.091h0.42v2.099c-0.3-0.168-0.588-0.203-0.923-0.203
		c-1.212,0-1.516,0.804-1.516,1.858v2.479h-2.183v-6.15h2.183L392.933,274.114L392.933,274.114z"/>
	<path d="M400.883,275.109c-0.324-0.24-0.708-0.436-1.128-0.436c-0.839,0-1.499,0.648-1.499,1.5c0,0.891,0.636,1.514,1.535,1.514
		c0.384,0,0.804-0.156,1.092-0.42v1.848c-0.479,0.24-1.008,0.349-1.535,0.349c-1.819,0-3.347-1.354-3.347-3.215
		c0-1.979,1.512-3.347,3.442-3.347c0.504,0,1.008,0.121,1.438,0.359L400.883,275.109L400.883,275.109z"/>
	<path d="M408.695,276.55H404.1c0,0.888,0.472,1.367,1.367,1.367c0.468,0,0.808-0.156,1.044-0.563h2.103
		c-0.352,1.451-1.729,2.11-3.13,2.11c-2.039,0-3.562-1.149-3.562-3.272c0-2.051,1.403-3.287,3.406-3.287
		c2.135,0,3.37,1.32,3.37,3.42L408.695,276.55L408.695,276.55z M406.669,275.29c-0.108-0.588-0.646-0.972-1.235-0.972
		c-0.636,0-1.164,0.336-1.296,0.972H406.669z"/>
	<path d="M359.429,295.259h-2.184v-0.684h-0.023c-0.384,0.612-1.14,0.889-1.855,0.889c-1.822,0-3.106-1.522-3.106-3.286
		c0-1.765,1.26-3.275,3.083-3.275c0.707,0,1.451,0.268,1.906,0.807v-0.602h2.184L359.429,295.259L359.429,295.259z M354.511,292.189
		c0,0.777,0.52,1.379,1.403,1.379s1.403-0.604,1.403-1.379c0-0.756-0.52-1.395-1.403-1.395S354.511,291.436,354.511,292.189z"/>
	<path d="M363.218,295.259h-2.183v-9.954h2.183V295.259z"/>
	<path d="M366.982,295.259H364.8v-9.954h2.187L366.982,295.259L366.982,295.259z"/>
	<path d="M375.591,292.189c0,2.086-1.727,3.271-3.706,3.271c-1.967,0-3.706-1.176-3.706-3.271c0-2.101,1.729-3.287,3.706-3.287
		C373.864,288.902,375.591,290.091,375.591,292.189z M370.481,292.189c0,0.777,0.516,1.379,1.399,1.379
		c0.891,0,1.403-0.604,1.403-1.379c0-0.756-0.519-1.395-1.403-1.395C370.997,290.798,370.481,291.436,370.481,292.189z"/>
	<path d="M381.257,291.109c-0.324-0.24-0.708-0.436-1.127-0.436c-0.84,0-1.5,0.648-1.5,1.5c0,0.891,0.636,1.514,1.535,1.514
		c0.384,0,0.804-0.156,1.092-0.42v1.848c-0.479,0.24-1.008,0.349-1.535,0.349c-1.819,0-3.347-1.354-3.347-3.215
		c0-1.979,1.512-3.347,3.442-3.347c0.504,0,1.008,0.121,1.438,0.359L381.257,291.109L381.257,291.109z"/>
	<path d="M389.472,295.259h-2.184v-0.684h-0.023c-0.384,0.612-1.14,0.889-1.855,0.889c-1.822,0-3.106-1.522-3.106-3.286
		c0-1.765,1.262-3.275,3.083-3.275c0.707,0,1.451,0.268,1.906,0.807v-0.602h2.184L389.472,295.259L389.472,295.259z
		 M384.554,292.189c0,0.777,0.52,1.379,1.403,1.379s1.403-0.604,1.403-1.379c0-0.756-0.52-1.395-1.403-1.395
		S384.554,291.436,384.554,292.189z"/>
	<path d="M393.566,295.259h-2.187v-4.354h-0.708v-1.799h0.708v-1.848h2.187v1.848h1.231v1.799h-1.231V295.259z"/>
	<path d="M398.054,286.744c0,0.671-0.552,1.224-1.224,1.224c-0.671,0-1.223-0.553-1.223-1.224c0-0.672,0.552-1.225,1.223-1.225
		C397.502,285.521,398.054,286.072,398.054,286.744z M397.922,295.259h-2.183v-6.151h2.183V295.259z"/>
	<path d="M406.491,292.189c0,2.086-1.729,3.271-3.706,3.271c-1.967,0-3.706-1.176-3.706-3.271c0-2.101,1.728-3.287,3.706-3.287
		C404.765,288.902,406.491,290.091,406.491,292.189z M401.382,292.189c0,0.777,0.52,1.379,1.403,1.379s1.403-0.604,1.403-1.379
		c0-0.756-0.52-1.395-1.403-1.395S401.382,291.436,401.382,292.189z"/>
	<path d="M409.877,289.898h0.024c0.503-0.744,1.111-0.996,1.967-0.996c1.655,0,2.312,1.043,2.312,2.556v3.804H412v-3
		c0-0.587,0.096-1.619-0.983-1.619c-0.888,0-1.14,0.659-1.14,1.428v3.188h-2.183v-6.151h2.183V289.898L409.877,289.898z"/>
</g>
<g>
	<rect x="265.406" y="161.317" fill="#FFFFFF" width="75.443" height="47.257"/>
	<g>
		<g>
			<path d="M286.327,196.152h-0.01l-0.48,2.723h-0.531l0.842-4.295l1.413,3.245l1.416-3.245l0.842,4.295h-0.529l-0.481-2.723h-0.012
				l-1.235,2.811L286.327,196.152z"/>
			<path d="M290.305,194.755h2.213v0.47h-1.699v1.154h1.65v0.469h-1.65v1.558h1.699v0.471h-2.213V194.755z"/>
			<path d="M293.096,194.755h0.852c1.261,0,2.311,0.665,2.311,2.038c0,1.404-1.028,2.082-2.328,2.082h-0.834L293.096,194.755
				L293.096,194.755z M293.608,198.404h0.18c1.05,0,1.955-0.394,1.955-1.588c0-1.202-0.904-1.592-1.955-1.592h-0.18V198.404z"/>
			<path d="M297.327,198.875h-0.514v-4.12h0.514V198.875z"/>
			<path d="M301.131,195.541c-0.297-0.264-0.699-0.404-1.088-0.404c-0.922,0-1.628,0.771-1.628,1.684
				c0,0.902,0.699,1.671,1.618,1.671c0.404,0,0.791-0.152,1.098-0.427v0.607c-0.316,0.188-0.721,0.291-1.082,0.291
				c-1.176,0-2.146-0.936-2.146-2.127c0-1.219,0.977-2.17,2.188-2.17c0.363,0,0.729,0.089,1.041,0.279v0.598h-0.002L301.131,195.541
				L301.131,195.541z"/>
			<path d="M306.938,195.466h-0.012l-1.438,3.546l-1.434-3.546h-0.011l-0.705,3.409h-0.25l0.884-4.257l1.516,3.747l1.518-3.747
				l0.885,4.257h-0.25L306.938,195.466z"/>
			<path d="M312.49,196.814c0,1.158-0.979,2.115-2.135,2.115c-1.158,0-2.138-0.957-2.138-2.115s0.975-2.115,2.138-2.115
				C311.513,194.699,312.49,195.656,312.49,196.814z M308.48,196.814c0,1.016,0.846,1.869,1.875,1.869
				c1.021,0,1.875-0.859,1.875-1.869c0-1.017-0.854-1.869-1.875-1.869C309.326,194.945,308.48,195.799,308.48,196.814z"/>
			<path d="M313.224,198.875v-4.12h0.825c0.312,0,0.607,0.022,0.854,0.241c0.25,0.219,0.344,0.523,0.344,0.85
				c0,0.379-0.147,0.656-0.476,0.842c0.508,0.105,0.853,0.515,0.853,1.037c0,0.332-0.126,0.635-0.383,0.854
				c-0.289,0.244-0.595,0.294-0.962,0.294h-1.056V198.875L313.224,198.875z M313.486,196.622h0.453c0.278,0,0.503,0.017,0.736-0.151
				c0.235-0.17,0.307-0.379,0.307-0.662c0-0.268-0.104-0.531-0.339-0.678c-0.207-0.133-0.464-0.133-0.704-0.133h-0.453V196.622z
				 M313.486,198.627h0.629c0.288,0,0.588,0.014,0.84-0.158c0.25-0.168,0.402-0.426,0.402-0.732c0-0.299-0.146-0.6-0.425-0.735
				c-0.252-0.125-0.596-0.132-0.871-0.132h-0.577v1.759L313.486,198.627L313.486,198.627z"/>
			<path d="M316.637,198.875h-0.262v-4.12h0.262V198.875z"/>
			<path d="M317.863,198.627h1.049v0.245H317.6v-4.117h0.265L317.863,198.627L317.863,198.627z"/>
			<path d="M319.712,195v1.498h1.659v0.246h-1.659v1.883h1.704v0.245h-1.967v-4.118h1.967v0.243h-1.704V195z"/>
		</g>
		<rect x="269.662" y="165.586" fill="#58595B" width="66.929" height="3.793"/>
		<rect x="269.662" y="169.379" fill="#64A2C8" width="66.929" height="2.275"/>
		<path fill="#58595B" d="M307.906,179.7c-0.02-0.595-0.478-0.401-0.631-0.353c0.619-0.386,1.151-1.515,1.012-2.005
			c-0.109-0.379-0.359-0.25-0.665,0.05c0.896-2.021-0.431-3.106-0.431-3.105c-0.229-0.15-0.392,0.051-0.39,0.352
			c0.047,2.433-1.729,3.838-3.672,5.002c-1.457,0.942-1.976,2.529-2.151,3.662c-0.045,0.141-0.15,0.072-0.201,0.03l-1.122-1.272
			c-0.121-0.141-0.295-0.205-0.467-0.201c-0.131,0.006-0.266,0.053-0.371,0.148l-0.051,0.045v-0.001l-0.002,0.001l-0.27-0.309
			c-0.079-0.09-0.189-0.139-0.296-0.139c-0.083,0-0.163,0.024-0.227,0.082l-0.15,0.131c-0.147,0.132-0.152,0.365-0.009,0.526
			l0.27,0.31l-1.845,1.627c-0.247,0.217-0.268,0.591-0.053,0.84l6.394,7.244c0.118,0.14,0.292,0.207,0.463,0.201
			c0.135-0.004,0.269-0.051,0.375-0.147l2.578-2.276c0.244-0.215,0.268-0.591,0.051-0.838l-2.163-2.449
			c0-0.002-0.001-0.004-0.003-0.006c-0.079-0.127,0.144-0.104,0.144-0.104v-0.003c0.352,0.013,0.61-0.067,0.797-0.191
			c0.277-0.188-0.041-0.327-0.09-0.462c0.432,0.205,1.28,0.031,1.492-0.242c0.164-0.213-0.117-0.304-0.391-0.365
			c0.683-0.317,1.23-0.637,1.523-1.393c0.173-0.443-0.301-0.455-0.772-0.275c0.387-0.387,0.772-0.91,0.965-1.582
			c0.219-0.764-0.066-1.145-0.68-0.633C307.427,181.051,307.928,180.326,307.906,179.7z M301.544,185.471l-2.229,1.965
			c-0.066,0.06-0.169,0.055-0.229-0.014l-2.046-2.322c-0.059-0.063-0.052-0.168,0.015-0.229l2.227-1.965
			c0.067-0.059,0.172-0.051,0.231,0.014l2.043,2.322C301.615,185.309,301.611,185.41,301.544,185.471z"/>
		<rect x="293.178" y="166.346" fill="#64A2C8" width="4.551" height="3.033"/>
		<rect x="299.246" y="166.346" fill="#CC8C21" width="4.551" height="3.033"/>
		<rect x="305.314" y="166.346" fill="#78B1B1" width="4.551" height="3.033"/>
		<g>
			<path fill="#B3B3B3" d="M340.85,161.317h-75.443v47.257h75.443V161.317z M336.58,204.309h-66.9V165.59h66.9V204.309z"/>
			<path fill="#B3B3B3" d="M260.898,211.637c0,0,1.695,8.228,7.762,8.228v0.004h68.933v-0.004c6.068,0,7.764-8.228,7.764-8.228
				H260.898z M311.012,217.045h-15.769v-2.586h15.769V217.045z"/>
			<path fill="#B3B3B3" d="M317.984,192.625"/>
		</g>
	</g>
</g>
<g>
	<g>
		<path fill="#B3B3B3" d="M182.326,189.357c-1.328,0-2.408-1.078-2.408-2.406v-3.033c0-1.338-1.076-2.414-2.412-2.414h-1.609
			c-1.33,0-2.406,1.076-2.406,2.414v3.033c0,1.328-1.084,2.406-2.414,2.406h-15.273c-1.336,0-2.414,1.082-2.414,2.414v54.316
			c0,1.337,1.078,2.415,2.414,2.415h26.523c1.332,0,2.416-1.078,2.416-2.415v-54.316
			C184.742,190.439,183.663,189.357,182.326,189.357L182.326,189.357z"/>
		<path fill="#FFFFFF" d="M158.664,236.09c0-1.332,1.076-2.412,2.414-2.412c1.33,0,2.408,1.08,2.408,2.412s-1.078,2.416-2.408,2.416
			C159.74,238.506,158.664,237.422,158.664,236.09L158.664,236.09z"/>
		<path fill="#FFFFFF" d="M161.078,225.693c1.33,0,2.408,1.078,2.408,2.406c0,1.33-1.078,2.414-2.408,2.414
			c-1.338,0-2.414-1.084-2.414-2.414C158.664,226.771,159.74,225.693,161.078,225.693L161.078,225.693z"/>
		<path fill="#FFFFFF" d="M158.664,220.111c0-1.332,1.076-2.408,2.414-2.408c1.33,0,2.408,1.076,2.408,2.408
			c0,1.334-1.078,2.412-2.408,2.412C159.74,222.523,158.664,221.445,158.664,220.111L158.664,220.111z"/>
		<path fill="#FFFFFF" d="M173.961,244.398h-10.098c-0.666,0-1.208-0.537-1.208-1.2c0-0.673,0.542-1.21,1.208-1.21h10.098
			c0.671,0,1.205,0.537,1.205,1.21C175.166,243.861,174.632,244.398,173.961,244.398L173.961,244.398z"/>
		<path fill="#FFFFFF" d="M168.914,225.693c1.332,0,2.408,1.078,2.408,2.406c0,1.33-1.076,2.414-2.408,2.414
			c-1.336,0-2.414-1.084-2.414-2.414C166.5,226.771,167.578,225.693,168.914,225.693L168.914,225.693z"/>
		<path fill="#FFFFFF" d="M166.5,220.111c0-1.332,1.078-2.408,2.414-2.408c1.332,0,2.408,1.076,2.408,2.408
			c0,1.334-1.076,2.412-2.408,2.412C167.578,222.523,166.5,221.445,166.5,220.111L166.5,220.111z"/>
		<path fill="#FFFFFF" d="M168.914,233.678c1.332,0,2.408,1.08,2.408,2.412s-1.076,2.416-2.408,2.416
			c-1.336,0-2.414-1.084-2.414-2.416S167.578,233.678,168.914,233.678L168.914,233.678z"/>
		<path fill="#FFFFFF" d="M176.75,238.506c-1.328,0-2.412-1.084-2.412-2.416s1.084-2.412,2.412-2.412
			c1.332,0,2.416,1.08,2.416,2.412S178.082,238.506,176.75,238.506L176.75,238.506z"/>
		<path fill="#FFFFFF" d="M176.75,230.516c-1.328,0-2.412-1.086-2.412-2.416c0-1.328,1.084-2.406,2.412-2.406
			c1.332,0,2.416,1.078,2.416,2.406C179.166,229.43,178.082,230.516,176.75,230.516L176.75,230.516z"/>
		<path fill="#FFFFFF" d="M176.75,222.523c-1.328,0-2.412-1.078-2.412-2.412c0-1.332,1.084-2.408,2.412-2.408
			c1.332,0,2.416,1.076,2.416,2.408C179.166,221.445,178.082,222.523,176.75,222.523L176.75,222.523z"/>
		<path fill="#FFFFFF" d="M180.674,210.73c0,1.332-1.084,2.408-2.416,2.408h-18.387c-1.337,0-2.414-1.076-2.414-2.408v-13.299
			c0-1.332,1.077-2.41,2.414-2.41h18.387c1.332,0,2.416,1.078,2.416,2.41V210.73z"/>
		<path fill="#FFFFFF" d="M180.674,210.73"/>
	</g>
	<path fill="#787878" d="M172.953,201.27c-0.016-0.426-0.344-0.289-0.453-0.254c0.444-0.274,0.828-1.088,0.727-1.438
		c-0.078-0.273-0.258-0.182-0.48,0.031c0.645-1.452-0.309-2.233-0.309-2.231c-0.164-0.108-0.281,0.036-0.277,0.252
		c0.031,1.749-1.246,2.761-2.643,3.599c-1.049,0.679-1.42,1.818-1.549,2.636c-0.032,0.101-0.106,0.051-0.145,0.021l-0.807-0.916
		c-0.088-0.1-0.211-0.147-0.335-0.143c-0.097,0.003-0.191,0.038-0.269,0.105l-0.035,0.03h-0.001h-0.001l-0.195-0.221
		c-0.058-0.064-0.137-0.101-0.213-0.101c-0.06,0-0.117,0.021-0.162,0.06l-0.109,0.098c-0.105,0.091-0.108,0.263-0.006,0.378
		l0.195,0.223l-1.328,1.17c-0.177,0.154-0.193,0.425-0.037,0.604l4.598,5.212c0.088,0.099,0.211,0.148,0.334,0.146
		c0.098-0.005,0.191-0.039,0.269-0.106l1.855-1.638c0.177-0.156,0.194-0.427,0.038-0.603l-1.555-1.766
		c-0.003-0.002-0.003-0.003-0.004-0.004c-0.057-0.092,0.105-0.073,0.105-0.073v-0.001c0.25,0.008,0.438-0.051,0.57-0.139
		c0.2-0.137-0.027-0.236-0.064-0.336c0.312,0.152,0.922,0.023,1.074-0.174c0.119-0.152-0.086-0.217-0.282-0.262
		c0.493-0.229,0.888-0.457,1.098-1c0.124-0.318-0.216-0.328-0.556-0.199c0.278-0.277,0.556-0.654,0.693-1.141
		c0.156-0.548-0.048-0.82-0.488-0.453C172.608,202.242,172.969,201.721,172.953,201.27z M168.375,205.421l-1.603,1.413
		c-0.048,0.043-0.122,0.039-0.165-0.01l-1.472-1.67c-0.042-0.049-0.038-0.123,0.011-0.164l1.602-1.414
		c0.049-0.042,0.123-0.038,0.166,0.012l1.472,1.666C168.428,205.305,168.424,205.378,168.375,205.421z"/>
</g>
<g>
	<polygon fill="#B4B4B4" points="473.438,283.604 434.188,283.604 438.549,276.404 469.076,276.404 	"/>
	<rect x="419.412" y="224.404" fill="#B4B4B4" width="68.801" height="50.4"/>
	<rect x="424.137" y="227.529" fill="#FFFFFF" width="59.2" height="37.601"/>
	<g>
		<path d="M435.008,260.104h-0.014l-0.541,3.064h-0.598l0.948-4.836l1.593,3.654l1.594-3.654l0.948,4.836h-0.598l-0.541-3.064
			h-0.014l-1.389,3.162L435.008,260.104z"/>
		<path d="M439.479,258.529h2.491v0.529h-1.914v1.299h1.858v0.529h-1.858v1.754h1.914v0.527h-2.491V258.529z"/>
		<path d="M442.607,258.529h0.961c1.42,0,2.602,0.75,2.602,2.296c0,1.582-1.156,2.344-2.621,2.344h-0.94L442.607,258.529
			L442.607,258.529z M443.186,262.641h0.203c1.184,0,2.203-0.443,2.203-1.791c0-1.354-1.021-1.789-2.203-1.789h-0.203V262.641z"/>
		<path d="M447.365,263.169h-0.578v-4.64h0.578V263.169z"/>
		<path d="M451.635,259.415c-0.332-0.295-0.787-0.455-1.224-0.455c-1.04,0-1.833,0.867-1.833,1.896c0,1.016,0.786,1.884,1.82,1.884
			c0.454,0,0.892-0.173,1.235-0.479v0.684c-0.354,0.209-0.812,0.326-1.217,0.326c-1.323,0-2.418-1.053-2.418-2.395
			c0-1.371,1.102-2.441,2.467-2.441c0.406,0,0.818,0.099,1.168,0.314L451.635,259.415L451.635,259.415z"/>
		<path d="M458.178,259.329h-0.013l-1.617,3.994l-1.612-3.994h-0.013l-0.794,3.84h-0.283l0.998-4.793l1.703,4.222l1.711-4.222
			l0.996,4.793h-0.283L458.178,259.329z"/>
		<path d="M464.424,260.85c0,1.305-1.102,2.381-2.406,2.381c-1.304,0-2.405-1.076-2.405-2.381c0-1.306,1.096-2.382,2.405-2.382
			C463.322,258.468,464.424,259.545,464.424,260.85z M459.907,260.85c0,1.145,0.953,2.104,2.109,2.104
			c1.15,0,2.111-0.967,2.111-2.104c0-1.146-0.961-2.104-2.111-2.104C460.861,258.745,459.907,259.704,459.907,260.85z"/>
		<path d="M465.24,263.169v-4.64h0.929c0.351,0,0.683,0.025,0.96,0.271c0.283,0.247,0.387,0.592,0.387,0.96
			c0,0.425-0.166,0.738-0.535,0.947c0.572,0.117,0.96,0.578,0.96,1.169c0,0.375-0.143,0.714-0.431,0.96
			c-0.326,0.276-0.672,0.332-1.084,0.332H465.24L465.24,263.169z M465.535,260.634h0.512c0.312,0,0.564,0.019,0.83-0.172
			c0.264-0.19,0.344-0.426,0.344-0.745c0-0.302-0.114-0.597-0.381-0.763c-0.234-0.147-0.522-0.147-0.793-0.147h-0.512V260.634
			L465.535,260.634z M465.535,262.893h0.708c0.325,0,0.664,0.014,0.946-0.179c0.283-0.19,0.455-0.479,0.455-0.823
			c0-0.339-0.166-0.678-0.479-0.83c-0.282-0.144-0.671-0.148-0.978-0.148h-0.652V262.893z"/>
		<path d="M469.072,263.169h-0.295v-4.64h0.295V263.169z"/>
		<path d="M470.441,262.893h1.181v0.276h-1.478v-4.64h0.297V262.893z"/>
		<path d="M472.51,258.807v1.687h1.871v0.276h-1.871v2.123h1.92v0.275h-2.215v-4.641h2.215v0.277L472.51,258.807L472.51,258.807z"/>
	</g>
	<rect x="424.145" y="227.529" fill="#58595B" width="59.213" height="4.802"/>
	<rect x="424.145" y="231.725" fill="#64A2C8" width="59.213" height="3.006"/>
	<path fill="#58595B" d="M459.268,241.562c-0.021-0.668-0.535-0.453-0.711-0.397c0.697-0.435,1.3-1.705,1.142-2.256
		c-0.122-0.431-0.404-0.283-0.751,0.052c1.009-2.277-0.484-3.499-0.484-3.497c-0.255-0.17-0.439,0.06-0.437,0.396
		c0.053,2.74-1.949,4.322-4.138,5.637c-1.645,1.062-2.227,2.85-2.428,4.127c-0.05,0.156-0.168,0.082-0.225,0.034l-1.265-1.435
		c-0.139-0.156-0.334-0.233-0.524-0.228c-0.15,0.006-0.299,0.062-0.42,0.168l-0.058,0.049h-0.001h-0.003l-0.303-0.346
		c-0.092-0.104-0.215-0.156-0.334-0.158c-0.094,0-0.185,0.03-0.255,0.093l-0.169,0.149c-0.166,0.146-0.173,0.413-0.013,0.596
		l0.308,0.347l-2.08,1.834c-0.279,0.244-0.304,0.668-0.06,0.944l7.201,8.165c0.137,0.155,0.331,0.23,0.523,0.227
		c0.15-0.004,0.3-0.06,0.422-0.166l2.906-2.563c0.276-0.243,0.301-0.667,0.059-0.944l-2.438-2.764
		c-0.001-0.002-0.002-0.004-0.002-0.004c-0.091-0.145,0.159-0.117,0.159-0.117v-0.002c0.396,0.014,0.688-0.078,0.896-0.218
		c0.314-0.212-0.044-0.368-0.102-0.522c0.488,0.234,1.443,0.035,1.684-0.271c0.185-0.24-0.134-0.342-0.44-0.409
		c0.771-0.356,1.39-0.718,1.719-1.567c0.193-0.5-0.341-0.515-0.868-0.312c0.434-0.434,0.868-1.026,1.084-1.783
		c0.246-0.857-0.076-1.291-0.767-0.712C458.729,243.085,459.293,242.27,459.268,241.562z M452.098,248.064l-2.511,2.213
		c-0.075,0.066-0.189,0.062-0.257-0.017l-2.306-2.614c-0.067-0.076-0.061-0.192,0.017-0.26l2.51-2.214
		c0.075-0.065,0.191-0.059,0.258,0.017l2.308,2.615C452.182,247.882,452.174,247.997,452.098,248.064z"/>
	<rect x="442.727" y="228.598" fill="#64A2C8" width="6.399" height="3.199"/>
	<rect x="449.926" y="228.598" fill="#CC8C21" width="6.4" height="3.199"/>
	<rect x="457.126" y="228.598" fill="#78B1B1" width="4.8" height="3.199"/>
</g>
<g>
	<g>
		<ellipse fill="#64A2C8" cx="122.534" cy="170.831" rx="9.996" ry="10.115"/>
		<path fill="#64A2C8" d="M142.458,196.045c-1.618-7.428-8.037-13.545-14.208-13.545h-5.179l-5.067,0.268
			c-6.171,0-12.59,5.987-14.207,13.416l-5.52,30.316c0,7,8.787,7,8.787,0l5.263-27.674l-0.315,22.479l-3.492,57.521
			c0,3.129,1.768,5.607,4.859,5.607c3.101,0,5.252-1.807,5.252-4.936l3.299-46.999h2.393l3.299,46.99
			c0,3.129,2.292,5.265,5.391,5.265c3.092,0,4.72-2.736,4.72-5.865l-3.491-57.607l-0.315-22.43l5.262,27.647c0,7,8.786,7,8.786,0
			L142.458,196.045z"/>
	</g>
	<g>
		
			<rect x="121.125" y="197.55" fill="#FFFFFF" stroke="#FFFFFF" stroke-width="0.3712" stroke-miterlimit="10" width="3.652" height="3.652"/>
		
			<rect x="121.125" y="190.271" fill="#FFFFFF" stroke="#FFFFFF" stroke-width="0.3712" stroke-miterlimit="10" width="3.652" height="3.651"/>
		
			<rect x="124.769" y="193.906" fill="#FFFFFF" stroke="#FFFFFF" stroke-width="0.3712" stroke-miterlimit="10" width="3.652" height="3.652"/>
		
			<rect x="121.125" y="193.906" fill="#FFFFFF" stroke="#FFFFFF" stroke-width="0.3712" stroke-miterlimit="10" width="3.652" height="3.652"/>
		
			<rect x="117.463" y="193.906" fill="#FFFFFF" stroke="#FFFFFF" stroke-width="0.3712" stroke-miterlimit="10" width="3.652" height="3.652"/>
	</g>
</g>
<g>
	<rect x="66.528" y="250.106" fill="#89AC96" width="36" height="32"/>
	<polygon fill="#89AC96" points="84.6,249.106 89.666,249.106 91.325,251.106 94.744,251.106 91.233,247.106 84.6,247.106 
		77.825,247.106 74.313,251.106 77.735,251.106 79.391,249.106 	"/>
	<g>
		<circle fill="#FFFFFF" cx="79.865" cy="261.238" r="1.479"/>
		<circle fill="#FFFFFF" cx="84.815" cy="261.238" r="1.479"/>
		<circle fill="#FFFFFF" cx="79.865" cy="265.871" r="1.479"/>
		<circle fill="#FFFFFF" cx="84.815" cy="265.871" r="1.479"/>
		<circle fill="#FFFFFF" cx="79.865" cy="270.468" r="1.479"/>
		<path fill="#FFFFFF" d="M93.758,271.15h-5.183v-14.492H76.104v18.388h6.862c0.256,1.606,1.639,2.845,3.314,2.845h7.477
			c1.859,0,3.37-1.515,3.37-3.369C97.128,272.661,95.616,271.15,93.758,271.15z M76.74,257.294h11.202v13.857h-1.661
			c-0.059,0-0.113,0.014-0.17,0.016c0.113-0.207,0.186-0.44,0.186-0.694c0-0.817-0.662-1.479-1.481-1.479
			c-0.816,0-1.48,0.662-1.48,1.479c0,0.618,0.386,1.147,0.929,1.366c-0.788,0.599-1.308,1.521-1.341,2.576h-6.183L76.74,257.294
			L76.74,257.294z M86.281,277.253c-1.508,0-2.734-1.229-2.734-2.735c0-1.507,1.227-2.733,2.734-2.733h3.498l0.026,5.469H86.281
			L86.281,277.253z"/>
	</g>
</g>
</svg>
