<?xml version="1.0" encoding="utf-8"?>
<!-- Generator: Adobe Illustrator 15.0.0, SVG Export Plug-In . SVG Version: 6.00 Build 0)  -->
<!DOCTYPE svg PUBLIC "-//W3C//DTD SVG 1.1//EN" "http://www.w3.org/Graphics/SVG/1.1/DTD/svg11.dtd">
<svg version="1.1" id="Layer_1" xmlns="http://www.w3.org/2000/svg" xmlns:xlink="http://www.w3.org/1999/xlink" x="0px" y="0px"
	 width="960px" height="600px" viewBox="0 0 960 600" enable-background="new 0 0 960 600" xml:space="preserve">
<g>
	<path fill="#646464" d="M898.719,181.781c0.27-0.837,0.431-1.736,0.431-2.658V81.207c0-4.652-3.766-8.402-8.404-8.402h-46.782
		V177.02c0,1.673-0.307,3.271-0.836,4.761h-5.487c0.271-0.837,0.432-1.736,0.432-2.658V44.639c0-4.64-3.766-8.405-8.405-8.405
		h-73.404c-4.64,0-8.405,3.766-8.405,8.405v134.483c0,0.922,0.161,1.821,0.441,2.658h-5.486c-0.53-1.489-0.837-3.088-0.837-4.761
		V72.804h-45.661c-4.649,0-8.402,3.75-8.402,8.402v97.916c0,0.922,0.158,1.821,0.429,2.658h-14.444v17.374h238.147v-17.374H898.719z
		 M713.121,147.464h-12.046v-12.047h12.046V147.464z M713.121,126.314h-12.046v-12.06h12.046V126.314z M713.121,105.852h-12.046
		V93.806h12.046V105.852z M731.886,147.464H719.84v-12.047h12.046V147.464z M731.886,126.314H719.84v-12.06h12.046V126.314z
		 M731.886,105.852H719.84V93.806h12.046V105.852z M811.666,181.227h-35.374v-44.136h35.374V181.227z M792.964,105.876
		c-16.365,0-29.628-13.265-29.628-29.628c0-16.365,13.275-29.628,29.628-29.628c16.363,0,29.628,13.263,29.628,29.628
		C822.592,92.612,809.327,105.876,792.964,105.876L792.964,105.876z M869.459,147.464h-12.046v-12.047h12.046V147.464z
		 M869.459,126.314h-12.046v-12.06h12.046V126.314z M869.459,105.852h-12.046V93.806h12.046V105.852z M888.224,147.464h-12.046
		v-12.047h12.046V147.464z M888.224,126.314h-12.046v-12.06h12.046V126.314z M888.224,105.852h-12.046V93.806h12.046V105.852z
		 M800.321,68.902h11.345v14.704h-11.345v11.345h-14.705V83.606h-11.354V68.902h11.354V57.546h14.705V68.902z M800.321,62.293"/>
</g>
<g>
	<path fill="#F47B63" d="M874.365,367.954c0-8.139,6.635-14.737,14.817-14.737s14.813,6.599,14.813,14.737
		c0,8.137-6.632,14.734-14.813,14.734C881,382.688,874.365,376.091,874.365,367.954z"/>
	<path fill="#F47B63" d="M855.353,438.83c0,5.892,2.519,11,6.527,14.742c0.004,0.003-0.812,20.095-0.812,20.095h16.734l4.719,53.823
		c0.322,3.675,3.576,6.446,7.276,6.125c3.692-0.32,6.427-3.486,6.1-7.163c0,0-3.188-36.438-3.188-36.442
		c0,0-0.686-7.543-1.425-16.343h26.011l-21.479-41.946c2,1.371,4.717,1.486,6.804,0l19.989-14.193
		c2.658-1.897,3.565-6.159,0.691-8.976c-2.872-2.818-17.053-16.572-17.053-16.572c-6.698-6.512-18.46-7.396-23.997,0.281
		c0,0-23.794,35.742-23.794,35.748C856.502,431.144,855.353,434.865,855.353,438.83z M895.781,422.819l4.971-21.995l10.679,10.394
		l-14.247,10.163C896.613,421.784,896.153,422.278,895.781,422.819z"/>
</g>
<g>
	<path fill="#CC8C21" d="M57.861,139.887c1.854,0,3.366-1.508,3.366-3.36c0.001-1.852-1.513-3.359-3.366-3.359
		c-1.857,0-3.365,1.507-3.365,3.359S56.004,139.887,57.861,139.887z"/>
	<path fill="#CC8C21" d="M61.098,141.667h-6.269c-1.659,0-3.008,1.6-3.008,3.263l-0.009,9.737H54v11h8v-11h2.106l-0.005-9.737
		C64.102,143.267,62.756,141.667,61.098,141.667z"/>
</g>
<g>
	<path fill="#CC8C21" d="M39.153,117.104c2.315,0,4.207-1.885,4.207-4.2c0.002-2.315-1.892-4.198-4.207-4.198
		c-2.321,0-4.207,1.883-4.207,4.198S36.832,117.104,39.153,117.104z"/>
	<path fill="#CC8C21" d="M43.196,117.667h-7.834c-2.074,0-3.759,1.875-3.759,3.953l-0.011,12.047H34v16h10v-16h2.959l-0.007-12.047
		C46.952,119.542,45.271,117.667,43.196,117.667z"/>
</g>
<g>
	<path fill="#B88161" d="M168,63.646v-0.144c0-2.901-0.805-4.775-2.5-4.775c-1.692,0-2.5,1.874-2.5,4.775v0.142
		c-32,15.811-31.553,18.297-31.553,19.364c0,0.687-0.181,2.695,6.212,4.919c-0.069,2.59-0.452,4.527-0.452,6
		C131.535,90.942,127,88.51,124,87.265c0-0.089,0-0.178,0-0.265c0-5.294-1.904-8.713-4.994-8.713C115.91,78.287,114,81.706,114,87
		c0,0.087,0,0.174,0,0.265c-3,1.377-8.026,4.203-14.531,7.64c0-1.648,0.072-3.866,0.038-6.928c6.328-2.213,6.011-4.213,6.011-4.897
		c0-1.067,0.482-3.556-31.518-19.365c0-0.047,0-0.094,0-0.141c0-2.9-0.721-4.775-2.414-4.775c-1.695,0-2.604,1.875-2.604,4.775
		c0,0.047,0.094,0.095,0.094,0.141C37.893,79.524,37.938,82.013,37.938,83.08c0,0.684,0.031,2.694,6.422,4.919
		c-0.303,11.129,0.108,11.478,0.882,12.076c1.259,0.98,12.614,2.967,21.536,3.518l1.601,0.1l0.149-1.584
		c0.002-0.026,0.007-0.047,0.011-0.07c0.2,0.007,0.402,0.021,0.6,0.028l-0.007,1.644c1.001,0.038,1.993-0.161,2.965-0.161
		c2.007,0,4.327-0.55,6.748-0.55h0.021c2.017,0,4.1-0.17,6.131-0.426c-27.544,15.197-27.549,17.648-27.549,19.91
		c0,1.251,0.012,4.971,11.67,9.028c-0.557,20.375,0.179,20.973,1.587,22.062c2.301,1.796,23.01,5.443,39.293,6.449l2.915,0.188
		l0.27-2.891c0.003-0.043,0.01-0.08,0.016-0.127c0.319,0.016,0.641,0.039,0.962,0.05l-0.015,3.002
		c1.871,0.071,3.724,0.112,5.544,0.112c3.637,0,7.321-0.22,11.718-0.583L131,159.77v-0.006c17.6-1.364,35.648-4.726,37.306-6.357
		c1.128-1.116,1.516-1.246,1.303-21.875c11.547-4.038,11.695-7.684,11.695-8.931c0-2.17,0.04-4.608-27.054-19.562
		c1.815,0.199,3.721,0.366,5.585,0.482l1.617,0.101l0.156-1.585c0.004-0.025,0.013-0.046,0.016-0.069
		c0.199,0.005,0.401,0.021,0.598,0.027l-0.007,1.647c0.999,0.035,1.995,0.064,2.968,0.064c2.008,0,4.33-0.123,6.746-0.323
		l0.022-0.003c8.957-0.746,19.268-2.594,20.152-3.479c0.633-0.619,0.693-0.714,0.575-11.994c6.33-2.213,6.421-4.213,6.421-4.894
		C199.1,81.941,198,79.454,168,63.646z M65.441,100.209c-8.054-0.617-15.489-2.057-17.758-2.666
		c-0.075-0.919-0.153-3.166-0.024-8.545c0.118,0.03,0.248,0.057,0.368,0.089c0.252,0.067,0.517,0.126,0.776,0.189
		c0.633,0.154,1.277,0.303,1.945,0.443c0.296,0.062,0.597,0.124,0.898,0.184c0.679,0.136,1.37,0.261,2.076,0.381
		c0.29,0.052,0.577,0.101,0.871,0.147c0.843,0.135,1.703,0.261,2.578,0.375c0.167,0.021,0.326,0.046,0.491,0.067
		c1.072,0.135,2.163,0.256,3.275,0.358c0.158,0.015,0.312,0.023,0.467,0.04c0.938,0.084,1.885,0.155,2.847,0.219
		c0.327,0.02,0.655,0.038,0.987,0.057c0.805,0.043,1.615,0.079,2.432,0.108c0.367,0.014,0.737,0.027,1.107,0.035
		c0.314,0.008,0.619,0.023,0.936,0.029C67.659,93.013,66.089,96.078,65.441,100.209z M78.504,100.209
		c-0.648-4.131-2.225-7.196-4.278-8.491c0.321-0.006,0.638-0.02,0.958-0.03c0.354-0.008,0.708-0.021,1.064-0.035
		c0.84-0.028,1.673-0.066,2.501-0.111c0.315-0.02,0.63-0.036,0.945-0.052c0.992-0.064,1.975-0.14,2.942-0.23
		c0.126-0.013,0.257-0.021,0.381-0.031c1.122-0.107,2.222-0.228,3.3-0.363c0.169-0.022,0.33-0.047,0.493-0.069
		c0.878-0.115,1.74-0.241,2.584-0.375c0.293-0.047,0.579-0.101,0.87-0.147c0.708-0.123,1.401-0.251,2.078-0.387
		c0.303-0.062,0.603-0.122,0.897-0.185c0.676-0.144,1.33-0.294,1.975-0.453c0.245-0.06,0.5-0.117,0.739-0.181
		c0.115-0.032,0.235-0.056,0.349-0.087c0.036,4.036,0.03,6.346,0.013,7.686c-0.873,0.464-1.753,0.935-2.646,1.413
		C90.095,98.78,84.325,99.739,78.504,100.209z M107.544,153.858c-14.695-1.121-28.264-3.756-32.402-4.871
		c-0.139-1.679-0.282-5.77-0.043-15.593c0.118,0.031,0.251,0.057,0.373,0.089c1.197,0.315,2.427,0.616,3.695,0.902
		c0.217,0.049,0.444,0.097,0.668,0.146c1.236,0.271,2.498,0.53,3.79,0.771c0.146,0.031,0.287,0.057,0.435,0.086
		c1.392,0.257,2.817,0.496,4.265,0.721c0.271,0.041,0.539,0.085,0.806,0.123c1.468,0.226,2.96,0.433,4.479,0.62
		c0.153,0.023,0.308,0.036,0.46,0.055c1.527,0.186,3.081,0.357,4.653,0.51c0.107,0.008,0.211,0.02,0.317,0.032
		c1.628,0.158,3.281,0.289,4.949,0.405c0.204,0.017,0.414,0.031,0.622,0.044c1.701,0.114,3.414,0.214,5.145,0.29
		c0.019,0.002,0.033,0.002,0.053,0.002c1.79,0.078,3.591,0.133,5.406,0.164c0.042,0,0.085,0.002,0.128,0.003
		C111.594,140.715,108.727,146.311,107.544,153.858z M155.068,135.339c1.446-0.272,2.852-0.564,4.227-0.868
		c0.14-0.031,0.283-0.06,0.422-0.091c1.345-0.301,2.65-0.624,3.915-0.958c0.076-0.02,0.157-0.036,0.233-0.057
		c0.079,9.259,0.042,13.585-0.008,15.603c-4.793,1.101-18.57,3.76-32.476,4.881c-1.188-7.541-4.067-13.133-7.817-15.491
		c0.062-0.002,0.12,0.403,0.185,0.403c1.796-0.036,3.588,0.239,5.359,0.239c0.018,0,0.034,0,0.053,0c1.742,0,3.47-0.583,5.183-0.702
		c0.188-0.01,0.376-0.226,0.563-0.242c1.702-0.117,3.385-0.356,5.041-0.518c0.046-0.002,0.094-0.059,0.137-0.065
		c1.659-0.16,3.298-0.364,4.909-0.562c0.098-0.011,0.194-0.036,0.29-0.049c1.573-0.193,3.121-0.417,4.643-0.646
		c0.2-0.033,0.397-0.067,0.598-0.1c1.521-0.235,3.019-0.49,4.473-0.763C155.02,135.348,155.044,135.344,155.068,135.339z
		 M158.526,100.135c-4.549-0.348-9.007-0.973-12.42-1.567c-1.209-0.649-2.454-1.315-3.749-2.003c-0.221-0.122-0.459-0.208-0.7-0.27
		c-0.089-0.021-0.174-0.044-0.258-0.062c-0.2-0.217-0.444-0.391-0.704-0.542c-0.03-1.366-0.03-3.472,0.049-6.77
		c0.115,0.032,0.236,0.058,0.351,0.087c0.274,0.071,0.561,0.136,0.84,0.204c0.61,0.147,1.229,0.289,1.868,0.425
		c0.316,0.066,0.641,0.133,0.968,0.2c0.646,0.126,1.304,0.247,1.978,0.364c0.321,0.055,0.637,0.111,0.969,0.163
		c0.781,0.125,1.577,0.241,2.385,0.346c0.228,0.032,0.453,0.065,0.684,0.096c1.044,0.131,2.111,0.246,3.194,0.35
		c0.248,0.021,0.505,0.04,0.752,0.061c0.837,0.072,1.68,0.14,2.533,0.196c0.398,0.025,0.8,0.044,1.204,0.068
		c0.719,0.036,1.446,0.071,2.18,0.097c0.436,0.019,0.88,0.032,1.319,0.042c0.278,0.005,0.552,0.02,0.831,0.025
		C160.745,92.941,159.177,96.004,158.526,100.135z M189.379,97.458c-2.616,0.606-10.166,2.061-17.792,2.677
		c-0.652-4.131-2.228-7.197-4.28-8.489c0.285-0.005,0.565-0.02,0.851-0.025c0.432-0.012,0.86-0.026,1.292-0.042
		c0.74-0.025,1.477-0.061,2.212-0.099c0.4-0.023,0.805-0.042,1.198-0.066c0.852-0.057,1.692-0.124,2.525-0.196
		c0.258-0.022,0.519-0.043,0.774-0.064c1.078-0.102,2.14-0.219,3.179-0.351c0.27-0.036,0.529-0.074,0.791-0.11
		c0.774-0.105,1.533-0.211,2.275-0.333c0.354-0.058,0.698-0.118,1.043-0.177c0.643-0.109,1.275-0.228,1.896-0.35
		c0.348-0.07,0.696-0.141,1.033-0.211c0.62-0.133,1.215-0.27,1.803-0.414c0.302-0.073,0.6-0.142,0.896-0.219
		c0.099-0.027,0.207-0.048,0.304-0.075C189.425,93.961,189.408,96.342,189.379,97.458z"/>
</g>
<g>
	<g>
		<path fill="none" stroke="#B3B3B3" stroke-width="2.86" stroke-miterlimit="10" d="M282.921,377.598
			c0.448-1.386,0.917-2.736,1.403-4.056"/>
		<path fill="none" stroke="#B3B3B3" stroke-width="2.86" stroke-miterlimit="10" stroke-dasharray="9.2282,9.2282" d="
			M287.918,365.045c13.52-28.096,36.135-38.501,51.807-42.34"/>
		<path fill="none" stroke="#B3B3B3" stroke-width="2.86" stroke-miterlimit="10" d="M344.235,321.732
			c1.517-0.283,2.935-0.502,4.233-0.674"/>
		<g>
			<path fill="#B3B3B3" d="M357.079,320.484c-3.938,1.802-8.774,4.736-11.688,7.682l1.952-6.963l-2.954-6.6
				C347.704,317.089,352.918,319.282,357.079,320.484z"/>
		</g>
	</g>
</g>
<g>
	<g>
		<path fill="none" stroke="#B3B3B3" stroke-width="2.86" stroke-miterlimit="10" d="M590.371,270.347
			c0.448-1.385,0.916-2.736,1.402-4.055"/>
		<path fill="none" stroke="#B3B3B3" stroke-width="2.86" stroke-miterlimit="10" stroke-dasharray="9.2282,9.2282" d="
			M595.367,257.795c13.52-28.096,36.135-38.501,51.807-42.34"/>
		<path fill="none" stroke="#B3B3B3" stroke-width="2.86" stroke-miterlimit="10" d="M651.686,214.482
			c1.519-0.283,2.937-0.502,4.234-0.673"/>
		<g>
			<path fill="#B3B3B3" d="M664.529,213.234c-3.939,1.802-8.774,4.736-11.689,7.682l1.953-6.963l-2.953-6.6
				C655.154,209.839,660.369,212.032,664.529,213.234z"/>
		</g>
	</g>
</g>
<g>
	<g>
		<path fill="none" stroke="#B3B3B3" stroke-width="2.86" stroke-miterlimit="10" d="M686.924,238.991
			c-0.266,1.431-0.557,2.832-0.869,4.202"/>
		<path fill="none" stroke="#B3B3B3" stroke-width="2.86" stroke-miterlimit="10" stroke-dasharray="9.2282,9.2282" d="
			M683.586,252.082c-9.788,29.604-30.875,42.834-45.922,48.66"/>
		<path fill="none" stroke="#B3B3B3" stroke-width="2.86" stroke-miterlimit="10" d="M633.315,302.287
			c-1.469,0.477-2.847,0.876-4.112,1.212"/>
		<g>
			<path fill="#B3B3B3" d="M620.739,305.178c3.675-2.294,8.092-5.827,10.603-9.124l-1.04,7.157l3.779,6.165
				C630.473,307.338,625.02,305.835,620.739,305.178z"/>
		</g>
	</g>
</g>
<g>
	<g>
		<path fill="none" stroke="#B3B3B3" stroke-width="2.86" stroke-miterlimit="10" d="M453.189,424.82
			c-0.867,1.156-1.748,2.282-2.644,3.38"/>
		<path fill="none" stroke="#B3B3B3" stroke-width="2.86" stroke-miterlimit="10" stroke-dasharray="8.7321,8.7321" d="
			M444.752,434.731c-34.434,35.622-83.691,34.163-109.294,30.343"/>
		<path fill="none" stroke="#B3B3B3" stroke-width="2.86" stroke-miterlimit="10" d="M331.148,464.375
			c-1.525-0.268-2.934-0.537-4.211-0.797"/>
		<g>
			<path fill="#B3B3B3" d="M318.545,461.576c4.293-0.579,9.772-1.982,13.417-3.954l-3.892,6.096l0.907,7.173
				C326.528,467.549,322.177,463.935,318.545,461.576z"/>
		</g>
	</g>
</g>
<g>
	<g>
		<path fill="none" stroke="#B3B3B3" stroke-width="2.86" stroke-miterlimit="10" d="M619.193,341.027
			c1.231-0.777,2.455-1.519,3.669-2.226"/>
		<path fill="none" stroke="#B3B3B3" stroke-width="2.86" stroke-miterlimit="10" stroke-dasharray="8.2707,8.2707" d="
			M630.16,334.91c33.962-16.458,60.137-5.973,74.709,3.863"/>
		<path fill="none" stroke="#B3B3B3" stroke-width="2.86" stroke-miterlimit="10" d="M708.226,341.169
			c1.229,0.929,2.348,1.83,3.348,2.677"/>
		<g>
			<path fill="#B3B3B3" d="M717.771,349.846c-3.978-1.716-9.396-3.335-13.535-3.522l6.475-3.22l2.917-6.617
				C714.006,340.613,715.875,345.952,717.771,349.846z"/>
		</g>
	</g>
</g>
<g>
	<g>
		<path fill="none" stroke="#B3B3B3" stroke-width="2.86" stroke-miterlimit="10" d="M308.761,154.55
			c1.396-0.413,2.775-0.794,4.136-1.144"/>
		<path fill="none" stroke="#B3B3B3" stroke-width="2.86" stroke-miterlimit="10" stroke-dasharray="8.2708,8.2708" d="
			M320.977,151.643c37.156-6.611,59.496,10.593,70.85,24.018"/>
		<path fill="none" stroke="#B3B3B3" stroke-width="2.86" stroke-miterlimit="10" d="M394.404,178.88
			c0.932,1.228,1.762,2.398,2.494,3.486"/>
		<g>
			<path fill="#B3B3B3" d="M401.234,189.823c-3.362-2.731-8.139-5.763-12.07-7.068l7.107-1.339l4.604-5.575
				C400.119,179.915,400.467,185.561,401.234,189.823z"/>
		</g>
	</g>
</g>
<g>
	<g>
		<path fill="none" stroke="#B3B3B3" stroke-width="2.86" stroke-miterlimit="10" d="M718.232,393.016
			c-1.211,0.81-2.412,1.584-3.607,2.323"/>
		<path fill="none" stroke="#B3B3B3" stroke-width="2.86" stroke-miterlimit="10" stroke-dasharray="8.2709,8.2709" d="
			M707.436,399.427c-33.502,17.373-59.952,7.601-74.786-1.836"/>
		<path fill="none" stroke="#B3B3B3" stroke-width="2.86" stroke-miterlimit="10" d="M629.229,395.286
			c-1.255-0.896-2.396-1.765-3.419-2.585"/>
		<g>
			<path fill="#B3B3B3" d="M619.449,386.873c4.022,1.605,9.483,3.079,13.627,3.152l-6.386,3.396l-2.735,6.693
				C623.465,395.999,621.451,390.713,619.449,386.873z"/>
		</g>
	</g>
</g>
<g>
	<g>
		<path fill="none" stroke="#B3B3B3" stroke-width="2.86" stroke-miterlimit="10" d="M374.207,271.134
			c-1.424,0.305-2.828,0.579-4.211,0.824"/>
		<path fill="none" stroke="#B3B3B3" stroke-width="2.86" stroke-miterlimit="10" stroke-dasharray="8.2709,8.2709" d="
			M361.804,273.096c-37.554,3.741-58.509-15.126-68.798-29.381"/>
		<path fill="none" stroke="#B3B3B3" stroke-width="2.86" stroke-miterlimit="10" d="M290.681,240.307
			c-0.835-1.295-1.573-2.526-2.22-3.667"/>
		<g>
			<path fill="#B3B3B3" d="M284.709,228.872c3.143,2.98,7.672,6.37,11.493,7.972l-7.188,0.791l-5.019,5.206
				C285.062,238.836,285.148,233.181,284.709,228.872z"/>
		</g>
	</g>
</g>
<g>
	<polygon fill="#576E60" points="510,158 495,158 495,181.236 466.628,158.35 396,216.112 396,224 536,224 536,216.112 510,195.248 
			"/>
	<path fill="#576E60" d="M409,230v89h46v-32h21v32h49v-89h-58.731H409z M484,252v11h-12v13h-12v-13h-12v-11h12v-13h12v13H484z"/>
</g>
<g>
	<rect x="606.629" y="157.354" fill="#78B1B1" width="51" height="46"/>
	<polygon fill="#78B1B1" points="632.336,154.354 639.58,154.354 641.951,157.354 646.842,157.354 641.82,151.354 632.336,151.354 
		622.646,151.354 617.624,157.354 622.52,157.354 624.886,154.354 	"/>
	<g>
		<circle fill="#FFFFFF" cx="625.833" cy="172.992" r="2.116"/>
		<circle fill="#FFFFFF" cx="632.911" cy="172.992" r="2.116"/>
		<circle fill="#FFFFFF" cx="625.833" cy="179.616" r="2.116"/>
		<circle fill="#FFFFFF" cx="632.911" cy="179.616" r="2.116"/>
		<circle fill="#FFFFFF" cx="625.833" cy="186.19" r="2.116"/>
		<path fill="#FFFFFF" d="M645.699,187.166h-7.411v-20.723h-17.833v26.294h9.812c0.365,2.297,2.344,4.062,4.74,4.062h10.691
			c2.658,0,4.818-2.16,4.818-4.818C650.52,189.326,648.357,187.166,645.699,187.166z M621.363,167.35h16.021v19.818h-2.375
			c-0.084,0-0.163,0.019-0.243,0.021c0.161-0.296,0.266-0.635,0.266-0.998c0-1.169-0.947-2.116-2.119-2.116
			c-1.168,0-2.118,0.947-2.118,2.116c0,0.889,0.554,1.646,1.33,1.959c-1.127,0.853-1.87,2.174-1.918,3.684h-8.841V167.35H621.363z
			 M635.009,195.892c-2.155,0-3.909-1.754-3.909-3.91s1.754-3.91,3.909-3.91h5.001l0.038,7.82H635.009z"/>
	</g>
</g>
<g>
	<path fill="#CC8C21" d="M123.89,229.126c2.257,0,4.096-1.834,4.096-4.085c0-2.247-1.839-4.08-4.096-4.08
		c-2.254,0-4.088,1.833-4.088,4.08C119.802,227.292,121.636,229.126,123.89,229.126z"/>
	<path fill="#CC8C21" d="M127.826,231h-7.617c-2.019,0-3.655,1.546-3.655,3.564L116.544,246h3.344l0.815,14h7.329l0.814-14h2.636
		l-0.007-11.436C131.476,232.546,129.843,231,127.826,231z"/>
</g>
<g>
	<path fill="#CC8C21" d="M105.972,223.841c2.257,0,4.095-1.833,4.095-4.084c0-2.248-1.838-4.081-4.095-4.081
		c-2.254,0-4.088,1.833-4.088,4.081C101.884,222.008,103.718,223.841,105.972,223.841z"/>
	<path fill="#CC8C21" d="M109.906,226h-7.616c-2.018,0-3.654,1.046-3.654,3.064L98.626,240h3.343l0.814,14h7.331l0.814-14h2.636
		l-0.007-10.936C113.558,227.046,111.925,226,109.906,226z"/>
</g>
<g>
	<path fill="#CC8C21" d="M50.437,191.265c4.729,0,8.591-3.85,8.591-8.575c0.002-4.727-3.861-8.571-8.591-8.571
		c-4.738,0-8.589,3.845-8.589,8.571C41.848,187.415,45.698,191.265,50.437,191.265z"/>
	<path fill="#CC8C21" d="M58.694,194H42.7c-4.239,0-7.675,3.498-7.675,7.739L35.001,226h5.665l1.664,31h15.815l1.662-31h6.564
		l-0.014-24.261C66.358,197.499,62.927,194,58.694,194z"/>
</g>
<g>
	<path fill="#CC8C21" d="M82.491,191.797c3.543,0,6.411-2.964,6.411-6.624c0-3.66-2.868-6.631-6.411-6.631s-6.413,2.971-6.413,6.631
		C76.078,188.833,78.948,191.797,82.491,191.797z"/>
	<path fill="#CC8C21" d="M93.863,197.417c-0.32-0.965-2.135-3.893-7.066-3.92l-9.655,0.021c-4.788-0.268-6.696,2.562-6.995,3.819
		c0,0-3.239,10.321-2.681,12.71c0.341,1.489,4.285,3.429,7.022,4.78L69.471,235h6.862v22.61c0,1.328,0.674,2.403,2,2.403
		c1.33,0,2-1.075,2-2.403V235h5v22.61c0,1.328,0.674,2.403,2,2.403c1.327,0,2-1.075,2-2.403V235h5.896l-4.917-20.568
		c2.447-1.292,5.962-2.973,6.274-4.324C97.146,207.688,93.863,197.417,93.863,197.417z M83.087,211.521
		c-0.14,0-0.269,0.48-0.392,0.48h-0.008c-0.479,0-0.916-0.531-1.3-0.575c-2.477-0.291-3.182-1.455-3.21-2.385
		c-0.449,0.195-0.942,0.191-1.467,0.191c-2.011,0-3.637-1.718-3.637-3.758c0-2.048,1.626-3.733,3.637-3.733
		c1.975,0,3.206,1.59,3.261,3.586c0.629-0.45,0.361-0.684,1.361-0.771v0.014c2-0.138,1.68,0,1.68,0
		c2.424,0.538,7.995,3.164,7.995,3.164S88.321,211.548,83.087,211.521z"/>
</g>
<g>
	<path fill="#CC8C21" d="M164.638,401.124c3.293,0,5.977-2.676,5.977-5.962c0-3.28-2.684-5.953-5.977-5.953
		c-3.288,0-5.964,2.673-5.964,5.953C158.674,398.448,161.35,401.124,164.638,401.124z"/>
	<path fill="#CC8C21" d="M170.382,405h-11.115c-2.944,0-5.332,1.312-5.332,4.257L153.921,425h4.877l1.189,22h10.696l1.188-22h3.845
		l-0.01-15.743C175.707,406.312,173.324,405,170.382,405z"/>
</g>
<g>
	<path fill="#CC8C21" d="M138.492,393.412c3.294,0,5.976-2.676,5.976-5.959c0-3.28-2.682-5.954-5.976-5.954
		c-3.288,0-5.963,2.674-5.963,5.954C132.529,390.736,135.204,393.412,138.492,393.412z"/>
	<path fill="#CC8C21" d="M144.235,396h-11.113c-2.944,0-5.332,1.312-5.332,4.258L127.776,416h4.878l1.187,22h10.697l1.188-22h3.845
		l-0.01-15.742C149.562,397.312,147.179,396,144.235,396z"/>
</g>
<g>
	<path fill="#CC8C21" d="M57.463,345.88c6.902,0,12.535-5.618,12.535-12.513c0.001-6.896-5.633-12.508-12.535-12.508
		c-6.913,0-12.531,5.611-12.531,12.508C44.932,340.262,50.55,345.88,57.463,345.88z"/>
	<path fill="#CC8C21" d="M69.511,351H46.174c-6.183,0-11.195,4.258-11.195,10.445L34.942,396h8.266l2.429,46H68.71l2.428-46h9.579
		l-0.021-34.555C80.695,355.258,75.688,351,69.511,351z"/>
</g>
<g>
	<path fill="#CC8C21" d="M104.233,346.657c5.169,0,9.354-4.324,9.354-9.664c0-5.343-4.186-9.675-9.354-9.675
		s-9.356,4.332-9.356,9.675C94.877,342.333,99.064,346.657,104.233,346.657z"/>
	<path fill="#CC8C21" d="M120.826,354.855c-0.467-1.407-3.114-5.681-10.311-5.719l-14.087,0.029
		c-6.986-0.391-9.771,3.738-10.208,5.572c0,0-4.724,15.06-3.91,18.545c0.498,2.173,6.252,4.156,10.245,6.126L85.235,408H96v34.684
		c0,1.938,0.564,3.508,2.5,3.508c1.94,0,2.5-1.57,2.5-3.508V408h8v34.684c0,1.938,0.564,3.508,2.5,3.508s2.5-1.57,2.5-3.508V408
		h8.82l-7.174-29.162c3.569-1.887,8.698-3.917,9.154-5.887C125.617,369.421,120.826,354.855,120.826,354.855z M105.103,374.864
		c-0.202,0-0.391,0.136-0.572,0.136h-0.01c-0.7,0-1.337-0.207-1.896-0.271c-3.615-0.424-4.642-1.84-4.683-3.195
		c-0.659,0.285-1.378,0.42-2.142,0.42c-2.934,0-5.306-2.438-5.306-5.413c0-2.988,2.372-5.41,5.306-5.41
		c2.881,0,5.908,2.338,5.986,5.25c0.919-0.657-0.786-0.979,3.214-1.106v0.021c1-0.2,1.225,0,1.225,0
		c3.537,0.785,11.051,4.333,11.051,4.333S112.74,374.908,105.103,374.864z"/>
</g>
<g>
	<path d="M225.845,83.481h5.006c3.78,0,6.896,2.971,6.896,6.788s-3.133,6.788-6.896,6.788h-5.006V83.481z M229.374,94.068h0.792
		c2.106,0,3.907-1.152,3.907-3.799c0-2.431-1.603-3.799-3.871-3.799h-0.828V94.068z"/>
	<path d="M243.023,84.273c0,1.008-0.828,1.836-1.837,1.836c-1.008,0-1.837-0.828-1.837-1.836c0-1.008,0.829-1.837,1.837-1.837
		C242.195,82.437,243.023,83.265,243.023,84.273z M242.825,97.057h-3.277V87.82h3.277V97.057z"/>
	<path d="M251.156,90.197c-0.505-0.271-1.207-0.45-1.765-0.45c-0.378,0-1.026,0.162-1.026,0.63c0,0.63,1.026,0.72,1.477,0.811
		c1.53,0.306,2.683,1.026,2.683,2.737c0,2.431-2.215,3.439-4.357,3.439c-1.314,0-2.61-0.378-3.728-1.062l1.188-2.287
		c0.666,0.468,1.783,0.937,2.593,0.937c0.414,0,1.026-0.198,1.026-0.703c0-0.72-1.026-0.756-2.053-1.026
		c-1.027-0.27-2.053-0.774-2.053-2.431c0-2.269,2.053-3.277,4.069-3.277c1.045,0,2.089,0.162,3.043,0.594L251.156,90.197z"/>
	<path d="M263.953,92.988h-6.896c0,1.333,0.702,2.053,2.053,2.053c0.702,0,1.206-0.234,1.566-0.846h3.151
		c-0.522,2.179-2.593,3.169-4.699,3.169c-3.062,0-5.348-1.729-5.348-4.916c0-3.079,2.106-4.934,5.113-4.934
		c3.205,0,5.06,1.981,5.06,5.132V92.988z M260.91,91.097c-0.162-0.882-0.973-1.458-1.854-1.458c-0.954,0-1.747,0.504-1.944,1.458
		H260.91z"/>
	<path d="M275.905,97.057h-3.277v-1.026h-0.036c-0.576,0.918-1.71,1.333-2.791,1.333c-2.736,0-4.663-2.287-4.663-4.934
		c0-2.646,1.891-4.916,4.628-4.916c1.062,0,2.178,0.396,2.862,1.207v-0.9h3.277V97.057z M268.522,92.448
		c0,1.17,0.774,2.071,2.106,2.071c1.333,0,2.107-0.9,2.107-2.071c0-1.134-0.774-2.088-2.107-2.088
		C269.297,90.359,268.522,91.313,268.522,92.448z"/>
	<path d="M284.292,90.197c-0.505-0.271-1.207-0.45-1.765-0.45c-0.379,0-1.026,0.162-1.026,0.63c0,0.63,1.026,0.72,1.477,0.811
		c1.53,0.306,2.683,1.026,2.683,2.737c0,2.431-2.215,3.439-4.357,3.439c-1.314,0-2.611-0.378-3.728-1.062l1.188-2.287
		c0.666,0.468,1.783,0.937,2.593,0.937c0.414,0,1.026-0.198,1.026-0.703c0-0.72-1.026-0.756-2.053-1.026
		c-1.027-0.27-2.053-0.774-2.053-2.431c0-2.269,2.053-3.277,4.069-3.277c1.045,0,2.089,0.162,3.043,0.594L284.292,90.197z"/>
	<path d="M297.089,92.988h-6.896c0,1.333,0.702,2.053,2.053,2.053c0.702,0,1.206-0.234,1.566-0.846h3.151
		c-0.522,2.179-2.593,3.169-4.699,3.169c-3.062,0-5.348-1.729-5.348-4.916c0-3.079,2.106-4.934,5.113-4.934
		c3.205,0,5.06,1.981,5.06,5.132V92.988L297.089,92.988z M294.046,91.097c-0.162-0.882-0.973-1.458-1.854-1.458
		c-0.954,0-1.747,0.504-1.944,1.458H294.046z"/>
	<path d="M311.577,90.197c-0.505-0.271-1.207-0.45-1.766-0.45c-0.379,0-1.025,0.162-1.025,0.63c0,0.63,1.025,0.72,1.477,0.811
		c1.53,0.306,2.684,1.026,2.684,2.737c0,2.431-2.215,3.439-4.357,3.439c-1.313,0-2.611-0.378-3.728-1.062l1.188-2.287
		c0.666,0.468,1.783,0.937,2.593,0.937c0.414,0,1.026-0.198,1.026-0.703c0-0.72-1.026-0.756-2.053-1.026
		c-1.027-0.27-2.053-0.774-2.053-2.431c0-2.269,2.053-3.277,4.069-3.277c1.045,0,2.089,0.162,3.043,0.594L311.577,90.197z"/>
	<path d="M317.995,87.82v4.934c0,1.17,0.288,1.999,1.638,1.999c1.352,0,1.64-0.828,1.64-1.999V87.82h3.276v5.563
		c0,3.043-2.143,3.979-4.916,3.979c-2.771,0-4.915-0.937-4.915-3.979V87.82H317.995z"/>
	<path d="M330.123,89.333h0.036c0.63-1.135,1.71-1.639,2.988-1.639h0.631v3.151c-0.45-0.252-0.884-0.306-1.388-0.306
		c-1.817,0-2.269,1.207-2.269,2.791v3.727h-3.277V87.82h3.277L330.123,89.333L330.123,89.333z"/>
	<path d="M340.332,92.556l2.197-4.735h3.673l-4.825,9.237h-2.089l-4.844-9.237h3.674L340.332,92.556z"/>
	<path d="M356.412,92.988h-6.896c0,1.333,0.702,2.053,2.054,2.053c0.702,0,1.206-0.234,1.565-0.846h3.151
		c-0.522,2.179-2.593,3.169-4.699,3.169c-3.062,0-5.348-1.729-5.348-4.916c0-3.079,2.105-4.934,5.112-4.934
		c3.205,0,5.061,1.981,5.061,5.132V92.988L356.412,92.988z M353.369,91.097c-0.162-0.882-0.973-1.458-1.854-1.458
		c-0.954,0-1.747,0.504-1.943,1.458H353.369z"/>
	<path d="M361.66,84.273c0,1.008-0.828,1.836-1.837,1.836c-1.008,0-1.837-0.828-1.837-1.836c0-1.008,0.829-1.837,1.837-1.837
		C360.832,82.437,361.66,83.265,361.66,84.273z M361.462,97.057h-3.277V87.82h3.277V97.057z"/>
	<path d="M367.08,97.057h-3.277V82.113h3.277V97.057z"/>
	<path d="M372.697,97.057h-3.277V82.113h3.277V97.057z"/>
	<path d="M385.232,97.057h-3.277v-1.026h-0.036c-0.576,0.918-1.71,1.333-2.791,1.333c-2.736,0-4.663-2.287-4.663-4.934
		c0-2.646,1.892-4.916,4.627-4.916c1.062,0,2.18,0.396,2.863,1.207v-0.9h3.277V97.057L385.232,97.057z M377.85,92.448
		c0,1.17,0.774,2.071,2.107,2.071c1.332,0,2.105-0.9,2.105-2.071c0-1.134-0.773-2.088-2.105-2.088
		C378.624,90.359,377.85,91.313,377.85,92.448z"/>
	<path d="M390.886,89.009h0.036c0.756-1.116,1.674-1.495,2.953-1.495c2.484,0,3.475,1.566,3.475,3.835v5.708h-3.276v-4.501
		c0-0.882,0.145-2.431-1.478-2.431c-1.332,0-1.71,0.99-1.71,2.143v4.79h-3.276V87.82h3.276V89.009L390.886,89.009z"/>
	<path d="M406.387,90.827c-0.485-0.36-1.062-0.648-1.691-0.648c-1.262,0-2.251,0.972-2.251,2.25c0,1.333,0.955,2.269,2.305,2.269
		c0.576,0,1.207-0.234,1.639-0.63v2.772c-0.72,0.36-1.513,0.522-2.305,0.522c-2.736,0-5.023-2.035-5.023-4.826
		c0-2.971,2.27-5.023,5.168-5.023c0.757,0,1.513,0.18,2.16,0.541L406.387,90.827L406.387,90.827z"/>
	<path d="M418.076,92.988h-6.896c0,1.333,0.702,2.053,2.054,2.053c0.701,0,1.206-0.234,1.565-0.846h3.151
		c-0.522,2.179-2.593,3.169-4.699,3.169c-3.062,0-5.348-1.729-5.348-4.916c0-3.079,2.105-4.934,5.112-4.934
		c3.205,0,5.061,1.981,5.061,5.132V92.988L418.076,92.988z M415.033,91.097c-0.162-0.882-0.974-1.458-1.854-1.458
		c-0.954,0-1.747,0.504-1.943,1.458H415.033z"/>
</g>
<g>
	<path d="M258.602,492.621c-0.721-0.973-1.891-1.495-3.097-1.495c-2.161,0-3.619,1.656-3.619,3.763c0,2.144,1.476,3.691,3.673,3.691
		c1.152,0,2.305-0.558,3.043-1.44v4.231c-1.171,0.36-2.017,0.63-3.115,0.63c-1.891,0-3.691-0.72-5.096-1.999
		c-1.494-1.35-2.179-3.115-2.179-5.131c0-1.854,0.702-3.637,1.999-4.97c1.332-1.368,3.259-2.196,5.168-2.196
		c1.134,0,2.178,0.252,3.223,0.684V492.621z"/>
	<path d="M264.229,486.697v6.878h0.036c0.756-1.008,1.674-1.478,2.953-1.478c2.34,0,3.475,1.549,3.475,3.89v5.653h-3.277v-4.734
		c0-1.081-0.162-2.197-1.477-2.197c-1.296,0-1.71,1.116-1.71,2.197v4.734h-3.277v-14.943H264.229z"/>
	<path d="M276.48,488.857c0,1.008-0.828,1.836-1.837,1.836c-1.008,0-1.837-0.828-1.837-1.836c0-1.009,0.829-1.838,1.837-1.838
		C275.652,487.021,276.48,487.849,276.48,488.857z M276.282,501.641h-3.277v-9.236h3.277V501.641z"/>
	<path d="M281.9,501.641h-3.277v-14.943h3.277V501.641z"/>
	<path d="M291.221,500.615h-0.036c-0.576,0.918-1.71,1.333-2.791,1.333c-2.736,0-4.663-2.287-4.663-4.935
		c0-2.646,1.891-4.916,4.628-4.916c1.062,0,2.179,0.396,2.862,1.207v-6.607h3.277v14.943h-3.277V500.615z M287.115,497.032
		c0,1.17,0.774,2.071,2.107,2.071c1.332,0,2.106-0.9,2.106-2.071c0-1.134-0.774-2.088-2.106-2.088
		C287.89,494.943,287.115,495.897,287.115,497.032z"/>
	<path d="M300.089,486.697v6.878h0.036c0.756-1.008,1.674-1.478,2.953-1.478c2.34,0,3.475,1.549,3.475,3.89v5.653h-3.277v-4.734
		c0-1.081-0.162-2.197-1.477-2.197c-1.296,0-1.71,1.116-1.71,2.197v4.734h-3.277v-14.943H300.089z"/>
	<path d="M319.379,497.032c0,3.133-2.593,4.916-5.562,4.916c-2.953,0-5.563-1.766-5.563-4.916c0-3.151,2.593-4.935,5.563-4.935
		C316.786,492.098,319.379,493.881,319.379,497.032z M311.709,497.032c0,1.17,0.773,2.071,2.106,2.071
		c1.332,0,2.105-0.9,2.105-2.071c0-1.134-0.773-2.088-2.105-2.088C312.482,494.943,311.709,495.897,311.709,497.032z"/>
	<path d="M331.628,497.032c0,3.133-2.593,4.916-5.562,4.916c-2.953,0-5.563-1.766-5.563-4.916c0-3.151,2.593-4.935,5.563-4.935
		C329.035,492.098,331.628,493.881,331.628,497.032z M323.958,497.032c0,1.17,0.773,2.071,2.106,2.071
		c1.332,0,2.105-0.9,2.105-2.071c0-1.134-0.773-2.088-2.105-2.088C324.731,494.943,323.958,495.897,323.958,497.032z"/>
	<path d="M340.354,500.615h-0.035c-0.576,0.918-1.71,1.333-2.791,1.333c-2.736,0-4.663-2.287-4.663-4.935
		c0-2.646,1.891-4.916,4.628-4.916c1.062,0,2.178,0.396,2.861,1.207v-6.607h3.277v14.943h-3.277V500.615z M336.249,497.032
		c0,1.17,0.774,2.071,2.107,2.071c1.331,0,2.105-0.9,2.105-2.071c0-1.134-0.774-2.088-2.105-2.088
		C337.023,494.943,336.249,495.897,336.249,497.032z"/>
	<path d="M356.05,488.857c0,1.008-0.828,1.836-1.837,1.836c-1.008,0-1.837-0.828-1.837-1.836c0-1.009,0.829-1.838,1.837-1.838
		C355.222,487.021,356.05,487.849,356.05,488.857z M355.852,501.641h-3.276v-9.236h3.276V501.641z"/>
	<path d="M361.479,493.557h0.036c0.774-1.025,1.729-1.458,2.917-1.458c1.332,0,2.484,0.541,3.15,1.766
		c0.631-1.152,1.873-1.766,3.133-1.766c2.341,0,3.151,1.531,3.151,3.655v5.888h-3.277v-4.41c0-0.955,0.036-2.521-1.351-2.521
		c-1.513,0-1.566,1.422-1.566,2.521v4.41h-3.276v-4.41c0-1.026,0-2.594-1.459-2.594c-1.458,0-1.458,1.566-1.458,2.594v4.41h-3.276
		v-9.236h3.276V493.557L361.479,493.557z"/>
	<path d="M379.504,493.557h0.036c0.774-1.025,1.729-1.458,2.917-1.458c1.332,0,2.484,0.541,3.15,1.766
		c0.631-1.152,1.873-1.766,3.133-1.766c2.341,0,3.15,1.531,3.15,3.655v5.888h-3.276v-4.41c0-0.955,0.036-2.521-1.352-2.521
		c-1.512,0-1.565,1.422-1.565,2.521v4.41h-3.276v-4.41c0-1.026,0-2.594-1.459-2.594c-1.458,0-1.458,1.566-1.458,2.594v4.41h-3.277
		v-9.236h3.277V493.557L379.504,493.557z"/>
	<path d="M397.425,492.404v4.934c0,1.17,0.288,1.999,1.638,1.999c1.352,0,1.64-0.828,1.64-1.999v-4.934h3.276v5.562
		c0,3.043-2.143,3.979-4.915,3.979s-4.915-0.938-4.915-3.979v-5.562H397.425z"/>
	<path d="M409.553,493.593h0.036c0.756-1.116,1.674-1.495,2.952-1.495c2.485,0,3.476,1.566,3.476,3.835v5.708h-3.276v-4.501
		c0-0.882,0.145-2.431-1.478-2.431c-1.332,0-1.71,0.99-1.71,2.143v4.79h-3.276v-9.236h3.276V493.593L409.553,493.593z"/>
	<path d="M421.804,488.857c0,1.008-0.828,1.836-1.837,1.836c-1.008,0-1.837-0.828-1.837-1.836c0-1.009,0.829-1.838,1.837-1.838
		C420.976,487.021,421.804,487.849,421.804,488.857z M421.605,501.641h-3.277v-9.236h3.277V501.641z"/>
	<path d="M432.331,498.922v2.719h-9.362l4.339-6.518h-3.763v-2.719h9.219l-4.321,6.518H432.331z"/>
	<path d="M444.208,501.641h-3.277v-1.025h-0.036c-0.575,0.918-1.71,1.333-2.791,1.333c-2.735,0-4.662-2.287-4.662-4.935
		c0-2.646,1.891-4.916,4.628-4.916c1.062,0,2.178,0.396,2.861,1.207v-0.899h3.277V501.641z M436.825,497.032
		c0,1.17,0.773,2.071,2.105,2.071c1.333,0,2.107-0.9,2.107-2.071c0-1.134-0.774-2.088-2.107-2.088
		C437.6,494.943,436.825,495.897,436.825,497.032z"/>
	<path d="M450.314,501.641h-3.276v-6.535h-1.062v-2.701h1.062v-2.773h3.276v2.773h1.854v2.701h-1.854V501.641z"/>
	<path d="M457.018,488.857c0,1.008-0.827,1.836-1.837,1.836c-1.008,0-1.837-0.828-1.837-1.836c0-1.009,0.829-1.838,1.837-1.838
		C456.189,487.021,457.018,487.849,457.018,488.857z M456.819,501.641h-3.277v-9.236h3.277V501.641z"/>
	<path d="M469.648,497.032c0,3.133-2.594,4.916-5.563,4.916c-2.953,0-5.562-1.766-5.562-4.916c0-3.151,2.593-4.935,5.562-4.935
		S469.648,493.881,469.648,497.032z M461.979,497.032c0,1.17,0.773,2.071,2.106,2.071c1.332,0,2.106-0.9,2.106-2.071
		c0-1.134-0.774-2.088-2.106-2.088C462.752,494.943,461.979,495.897,461.979,497.032z"/>
	<path d="M474.691,493.593h0.035c0.757-1.116,1.675-1.495,2.952-1.495c2.485,0,3.477,1.566,3.477,3.835v5.708h-3.277v-4.501
		c0-0.882,0.146-2.431-1.477-2.431c-1.332,0-1.71,0.99-1.71,2.143v4.79h-3.277v-9.236h3.277V493.593L474.691,493.593z"/>
	<path d="M489.454,494.781c-0.505-0.271-1.207-0.45-1.765-0.45c-0.38,0-1.026,0.162-1.026,0.63c0,0.63,1.026,0.72,1.477,0.812
		c1.53,0.306,2.684,1.025,2.684,2.736c0,2.432-2.215,3.439-4.357,3.439c-1.313,0-2.61-0.378-3.728-1.062l1.188-2.287
		c0.666,0.469,1.783,0.938,2.593,0.938c0.414,0,1.026-0.198,1.026-0.703c0-0.72-1.026-0.756-2.053-1.026
		c-1.027-0.27-2.053-0.773-2.053-2.431c0-2.269,2.053-3.277,4.068-3.277c1.045,0,2.089,0.162,3.043,0.595L489.454,494.781z"/>
</g>
<g>
	<path d="M711.918,256.241h5.006c3.781,0,6.896,2.971,6.896,6.788c0,3.817-3.133,6.788-6.896,6.788h-5.006V256.241z
		 M715.447,266.828h0.792c2.105,0,3.907-1.152,3.907-3.799c0-2.431-1.604-3.799-3.871-3.799h-0.828V266.828z"/>
	<path d="M728.952,262.093h0.036c0.63-1.135,1.71-1.639,2.987-1.639h0.632v3.151c-0.45-0.252-0.884-0.306-1.388-0.306
		c-1.817,0-2.269,1.207-2.269,2.791v3.727h-3.277v-9.237h3.277L728.952,262.093L728.952,262.093z"/>
	<path d="M737.186,260.58v4.934c0,1.17,0.288,1.999,1.639,1.999s1.639-0.828,1.639-1.999v-4.934h3.277v5.563
		c0,3.043-2.144,3.979-4.916,3.979s-4.915-0.937-4.915-3.979v-5.563H737.186z"/>
	<path d="M756.197,268.917c0,3.925-1.945,5.51-5.349,5.51c-2.125,0-4.97-1.098-5.258-3.529h3.673
		c0.09,0.324,0.324,0.558,0.612,0.702s0.63,0.216,0.937,0.216c1.766,0,2.106-1.152,2.106-2.646v-0.433
		c-0.847,0.847-1.711,1.261-2.935,1.261c-2.701,0-4.557-2.053-4.557-4.718c0-2.701,1.908-5.005,4.735-5.005
		c1.08,0,2.07,0.36,2.719,1.278h0.036v-0.972h3.277v8.336H756.197z M748.814,265.136c0,1.17,0.773,2.07,2.105,2.07
		c1.333,0,2.107-0.9,2.107-2.07c0-1.135-0.774-2.089-2.107-2.089C749.589,263.047,748.814,264.001,748.814,265.136z"/>
	<path d="M771.244,262.957c-0.505-0.271-1.207-0.45-1.766-0.45c-0.378,0-1.025,0.162-1.025,0.63c0,0.63,1.025,0.72,1.477,0.811
		c1.53,0.306,2.684,1.026,2.684,2.737c0,2.431-2.215,3.439-4.357,3.439c-1.313,0-2.609-0.378-3.728-1.062l1.188-2.287
		c0.666,0.468,1.783,0.937,2.593,0.937c0.414,0,1.026-0.198,1.026-0.703c0-0.72-1.026-0.756-2.053-1.026
		c-1.027-0.27-2.054-0.774-2.054-2.431c0-2.269,2.054-3.277,4.069-3.277c1.045,0,2.089,0.162,3.043,0.594L771.244,262.957z"/>
	<path d="M778.123,269.817h-3.276v-6.536h-1.062v-2.701h1.062v-2.773h3.276v2.773h1.854v2.701h-1.854V269.817z"/>
	<path d="M791.859,265.208c0,3.133-2.594,4.916-5.563,4.916c-2.953,0-5.562-1.765-5.562-4.916s2.593-4.934,5.562-4.934
		S791.859,262.057,791.859,265.208z M784.189,265.208c0,1.17,0.772,2.071,2.105,2.071c1.332,0,2.106-0.9,2.106-2.071
		c0-1.134-0.774-2.088-2.106-2.088C784.963,263.119,784.189,264.073,784.189,265.208z"/>
	<path d="M800.318,263.587c-0.486-0.36-1.062-0.648-1.692-0.648c-1.261,0-2.251,0.972-2.251,2.25c0,1.333,0.955,2.269,2.305,2.269
		c0.576,0,1.207-0.234,1.64-0.63v2.772c-0.721,0.36-1.514,0.522-2.306,0.522c-2.735,0-5.022-2.035-5.022-4.826
		c0-2.971,2.269-5.023,5.168-5.023c0.756,0,1.512,0.18,2.16,0.541L800.318,263.587L800.318,263.587z"/>
	<path d="M805.857,263.911l3.402-3.331h4.483l-4.628,4.268l4.915,4.969h-4.591l-3.584-3.763v3.763h-3.276v-14.944h3.276v9.038
		H805.857z"/>
	<path d="M825.135,261.732h0.036c0.774-1.026,1.729-1.458,2.917-1.458c1.332,0,2.484,0.541,3.15,1.765
		c0.631-1.152,1.873-1.765,3.133-1.765c2.341,0,3.151,1.531,3.151,3.655v5.888h-3.277v-4.411c0-0.955,0.036-2.521-1.351-2.521
		c-1.513,0-1.566,1.422-1.566,2.521v4.411h-3.276v-4.411c0-1.026,0-2.593-1.459-2.593c-1.458,0-1.458,1.566-1.458,2.593v4.411
		h-3.276v-9.237h3.276V261.732L825.135,261.732z"/>
	<path d="M850.391,265.208c0,3.133-2.593,4.916-5.562,4.916c-2.953,0-5.563-1.765-5.563-4.916s2.594-4.934,5.563-4.934
		S850.391,262.057,850.391,265.208z M842.721,265.208c0,1.17,0.773,2.071,2.106,2.071c1.332,0,2.105-0.9,2.105-2.071
		c0-1.134-0.773-2.088-2.105-2.088C843.494,263.119,842.721,264.073,842.721,265.208z"/>
	<path d="M855.435,261.769h0.036c0.756-1.116,1.674-1.495,2.953-1.495c2.484,0,3.476,1.566,3.476,3.835v5.708h-3.277v-4.501
		c0-0.882,0.145-2.431-1.478-2.431c-1.331,0-1.71,0.99-1.71,2.143v4.79h-3.276v-9.237h3.276V261.769z"/>
	<path d="M867.686,257.033c0,1.008-0.827,1.836-1.837,1.836c-1.008,0-1.837-0.828-1.837-1.836c0-1.008,0.829-1.837,1.837-1.837
		C866.857,255.196,867.686,256.025,867.686,257.033z M867.487,269.817h-3.277v-9.237h3.277V269.817z"/>
	<path d="M873.529,269.817h-3.276v-6.536h-1.062v-2.701h1.062v-2.773h3.276v2.773h1.854v2.701h-1.854V269.817z"/>
	<path d="M887.265,265.208c0,3.133-2.593,4.916-5.562,4.916c-2.953,0-5.563-1.765-5.563-4.916s2.594-4.934,5.563-4.934
		S887.265,262.057,887.265,265.208z M879.595,265.208c0,1.17,0.773,2.071,2.106,2.071c1.332,0,2.105-0.9,2.105-2.071
		c0-1.134-0.773-2.088-2.105-2.088C880.368,263.119,879.595,264.073,879.595,265.208z"/>
	<path d="M892.309,262.093h0.036c0.63-1.135,1.71-1.639,2.988-1.639h0.631v3.151c-0.45-0.252-0.883-0.306-1.387-0.306
		c-1.818,0-2.27,1.207-2.27,2.791v3.727h-3.276v-9.237h3.276L892.309,262.093L892.309,262.093z"/>
	<path d="M900.765,257.033c0,1.008-0.827,1.836-1.837,1.836c-1.008,0-1.837-0.828-1.837-1.836c0-1.008,0.829-1.837,1.837-1.837
		C899.938,255.196,900.765,256.025,900.765,257.033z M900.566,269.817h-3.277v-9.237h3.277V269.817z"/>
	<path d="M906.193,261.769h0.035c0.757-1.116,1.675-1.495,2.952-1.495c2.485,0,3.477,1.566,3.477,3.835v5.708h-3.277v-4.501
		c0-0.882,0.146-2.431-1.477-2.431c-1.332,0-1.71,0.99-1.71,2.143v4.79h-3.277v-9.237h3.277V261.769L906.193,261.769z"/>
	<path d="M925.186,268.917c0,3.925-1.944,5.51-5.348,5.51c-2.125,0-4.97-1.098-5.258-3.529h3.673
		c0.09,0.324,0.324,0.558,0.612,0.702s0.63,0.216,0.937,0.216c1.766,0,2.106-1.152,2.106-2.646v-0.433
		c-0.848,0.847-1.711,1.261-2.936,1.261c-2.701,0-4.556-2.053-4.556-4.718c0-2.701,1.908-5.005,4.735-5.005
		c1.08,0,2.069,0.36,2.719,1.278h0.036v-0.972h3.276v8.336H925.186z M917.803,265.136c0,1.17,0.774,2.07,2.106,2.07
		c1.333,0,2.106-0.9,2.106-2.07c0-1.135-0.773-2.089-2.106-2.089C918.577,263.047,917.803,264.001,917.803,265.136z"/>
</g>
<g>
	<path d="M648.738,447.601l-0.938,2.359h-3.745l5.223-13.576h3.854l5.113,13.576h-3.763l-0.884-2.359H648.738z M651.205,440.579
		h-0.036l-1.458,4.321h2.936L651.205,440.579z"/>
	<path d="M662.798,441.912h0.036c0.756-1.116,1.674-1.495,2.953-1.495c2.484,0,3.475,1.566,3.475,3.835v5.708h-3.276v-4.501
		c0-0.882,0.145-2.431-1.478-2.431c-1.332,0-1.71,0.989-1.71,2.143v4.79h-3.276v-9.237h3.276V441.912z"/>
	<path d="M675.23,449.96h-3.276v-6.536h-1.062v-2.701h1.062v-2.772h3.276v2.772h1.854v2.701h-1.854V449.96z"/>
	<path d="M688.039,445.891h-6.896c0,1.333,0.702,2.054,2.054,2.054c0.702,0,1.206-0.234,1.565-0.847h3.151
		c-0.522,2.18-2.593,3.169-4.699,3.169c-3.062,0-5.348-1.729-5.348-4.916c0-3.078,2.105-4.934,5.112-4.934
		c3.205,0,5.061,1.98,5.061,5.132V445.891L688.039,445.891z M684.996,444c-0.162-0.882-0.973-1.458-1.854-1.458
		c-0.954,0-1.747,0.504-1.943,1.458H684.996z"/>
	<path d="M693.12,441.912h0.036c0.756-1.116,1.674-1.495,2.953-1.495c2.483,0,3.475,1.566,3.475,3.835v5.708h-3.277v-4.501
		c0-0.882,0.146-2.431-1.477-2.431c-1.332,0-1.71,0.989-1.71,2.143v4.79h-3.277v-9.237h3.277V441.912z"/>
	<path d="M712.095,449.96h-3.276v-1.026h-0.036c-0.576,0.918-1.71,1.333-2.791,1.333c-2.736,0-4.663-2.286-4.663-4.934
		s1.891-4.916,4.628-4.916c1.062,0,2.178,0.396,2.862,1.207v-0.9h3.276V449.96L712.095,449.96z M704.712,445.351
		c0,1.171,0.774,2.071,2.106,2.071c1.333,0,2.106-0.899,2.106-2.071c0-1.134-0.773-2.089-2.106-2.089
		C705.486,443.262,704.712,444.216,704.712,445.351z"/>
	<path d="M718.201,449.96h-3.276v-6.536h-1.062v-2.701h1.062v-2.772h3.276v2.772h1.854v2.701h-1.854V449.96z"/>
	<path d="M731.595,449.96h-3.276v-1.026h-0.036c-0.576,0.918-1.71,1.333-2.791,1.333c-2.736,0-4.663-2.286-4.663-4.934
		s1.891-4.916,4.628-4.916c1.062,0,2.178,0.396,2.862,1.207v-0.9h3.276V449.96L731.595,449.96z M724.212,445.351
		c0,1.171,0.774,2.071,2.106,2.071c1.333,0,2.106-0.899,2.106-2.071c0-1.134-0.773-2.089-2.106-2.089
		C724.986,443.262,724.212,444.216,724.212,445.351z"/>
	<path d="M737.243,449.96h-3.277v-14.944h3.277V449.96z"/>
	<path d="M752.957,443.73c-0.486-0.36-1.062-0.648-1.692-0.648c-1.261,0-2.251,0.972-2.251,2.25c0,1.333,0.955,2.269,2.306,2.269
		c0.575,0,1.207-0.233,1.639-0.63v2.773c-0.72,0.359-1.513,0.521-2.305,0.521c-2.736,0-5.023-2.034-5.023-4.825
		c0-2.972,2.269-5.023,5.168-5.023c0.756,0,1.512,0.18,2.16,0.54L752.957,443.73L752.957,443.73z"/>
	<path d="M765.251,449.96h-3.277v-1.026h-0.036c-0.575,0.918-1.71,1.333-2.791,1.333c-2.735,0-4.662-2.286-4.662-4.934
		s1.891-4.916,4.628-4.916c1.062,0,2.178,0.396,2.861,1.207v-0.9h3.277V449.96L765.251,449.96z M757.868,445.351
		c0,1.171,0.773,2.071,2.105,2.071c1.333,0,2.107-0.899,2.107-2.071c0-1.134-0.774-2.089-2.107-2.089
		C758.643,443.262,757.868,444.216,757.868,445.351z"/>
	<path d="M770.904,442.236h0.036c0.63-1.135,1.71-1.64,2.987-1.64h0.631v3.151c-0.449-0.252-0.883-0.306-1.387-0.306
		c-1.818,0-2.269,1.207-2.269,2.791v3.727h-3.277v-9.237h3.277L770.904,442.236L770.904,442.236z"/>
	<path d="M785.656,445.891h-6.896c0,1.333,0.702,2.054,2.053,2.054c0.702,0,1.206-0.234,1.566-0.847h3.151
		c-0.522,2.18-2.594,3.169-4.699,3.169c-3.062,0-5.348-1.729-5.348-4.916c0-3.078,2.105-4.934,5.112-4.934
		c3.205,0,5.061,1.98,5.061,5.132V445.891L785.656,445.891z M782.613,444c-0.162-0.882-0.974-1.458-1.854-1.458
		c-0.954,0-1.747,0.504-1.943,1.458H782.613z"/>
</g>
<path fill="#64A2C8" d="M-53.962,221.563"/>
<g>
	<rect x="469.071" y="302.34" fill="#FFFFFF" width="117.881" height="73.839"/>
	<g>
		<g>
			<path d="M501.761,356.771h-0.017l-0.751,4.252h-0.83l1.316-6.71l2.208,5.071l2.212-5.071l1.314,6.71h-0.826l-0.752-4.252h-0.019
				l-1.931,4.39L501.761,356.771z"/>
			<path d="M507.977,354.585h3.456v0.735h-2.652v1.803h2.577v0.732h-2.577v2.434h2.652v0.733h-3.456V354.585z"/>
			<path d="M512.336,354.585h1.332c1.97,0,3.609,1.041,3.609,3.186c0,2.194-1.605,3.252-3.637,3.252h-1.305V354.585z
				 M513.137,360.289h0.282c1.64,0,3.054-0.615,3.054-2.483c0-1.877-1.414-2.485-3.054-2.485h-0.282V360.289z"/>
			<path d="M518.948,361.022h-0.803v-6.438h0.803V361.022z"/>
			<path d="M524.892,355.814c-0.462-0.41-1.092-0.632-1.7-0.632c-1.441,0-2.543,1.202-2.543,2.63c0,1.41,1.093,2.61,2.527,2.61
				c0.632,0,1.237-0.238,1.716-0.666v0.949c-0.495,0.292-1.127,0.454-1.689,0.454c-1.838,0-3.354-1.459-3.354-3.322
				c0-1.904,1.526-3.391,3.421-3.391c0.565,0,1.137,0.138,1.625,0.438v0.932h-0.003V355.814z"/>
			<path d="M533.964,355.696h-0.019l-2.246,5.54l-2.238-5.54h-0.016l-1.102,5.326h-0.393l1.383-6.65l2.365,5.856l2.373-5.856
				l1.383,6.65h-0.393L533.964,355.696z"/>
			<path d="M542.642,357.803c0,1.811-1.528,3.307-3.336,3.307c-1.81,0-3.339-1.496-3.339-3.307c0-1.81,1.521-3.304,3.339-3.304
				C541.113,354.499,542.642,355.994,542.642,357.803z M536.376,357.803c0,1.588,1.322,2.92,2.93,2.92
				c1.596,0,2.928-1.341,2.928-2.92c0-1.585-1.332-2.919-2.928-2.919C537.698,354.884,536.376,356.218,536.376,357.803z"/>
			<path d="M543.787,361.022v-6.438h1.288c0.487,0,0.95,0.035,1.334,0.376c0.392,0.342,0.537,0.818,0.537,1.33
				c0,0.592-0.229,1.023-0.743,1.315c0.795,0.162,1.333,0.803,1.333,1.619c0,0.519-0.197,0.992-0.598,1.335
				c-0.451,0.381-0.93,0.459-1.503,0.459h-1.649L543.787,361.022L543.787,361.022z M544.197,357.504h0.709
				c0.436,0,0.785,0.025,1.151-0.237c0.369-0.266,0.479-0.591,0.479-1.035c0-0.417-0.162-0.83-0.53-1.059
				c-0.322-0.207-0.724-0.207-1.1-0.207h-0.709V357.504z M544.197,360.636h0.982c0.451,0,0.918,0.022,1.312-0.247
				c0.392-0.264,0.631-0.665,0.631-1.145c0-0.468-0.229-0.938-0.665-1.149c-0.392-0.196-0.929-0.207-1.359-0.207h-0.902v2.748
				H544.197z"/>
			<path d="M549.119,361.022h-0.409v-6.438h0.409V361.022z"/>
			<path d="M551.035,360.636h1.64v0.384h-2.05v-6.435h0.41V360.636z"/>
			<path d="M553.925,354.969v2.341h2.592v0.384h-2.592v2.942h2.663v0.384h-3.075v-6.437h3.075v0.381h-2.663V354.969z"/>
		</g>
		<rect x="475.722" y="309.009" fill="#58595B" width="104.577" height="5.927"/>
		<rect x="475.722" y="314.936" fill="#64A2C8" width="104.577" height="3.557"/>
		<path fill="#58595B" d="M535.478,331.062c-0.027-0.927-0.743-0.627-0.984-0.551c0.968-0.602,1.802-2.365,1.581-3.13
			c-0.17-0.595-0.562-0.392-1.04,0.074c1.398-3.158-0.673-4.853-0.673-4.85c-0.357-0.236-0.611,0.078-0.605,0.549
			c0.073,3.798-2.703,5.995-5.737,7.815c-2.278,1.472-3.087,3.951-3.365,5.722c-0.07,0.219-0.234,0.113-0.312,0.046l-1.754-1.988
			c-0.19-0.218-0.46-0.321-0.729-0.314c-0.207,0.009-0.415,0.081-0.581,0.232l-0.078,0.07v-0.002l-0.003,0.002l-0.422-0.481
			c-0.124-0.141-0.297-0.215-0.463-0.218c-0.129-0.001-0.253,0.042-0.354,0.129l-0.234,0.205c-0.23,0.205-0.237,0.571-0.014,0.824
			l0.421,0.481l-2.883,2.541c-0.387,0.341-0.419,0.925-0.083,1.312l9.99,11.322c0.187,0.217,0.457,0.321,0.722,0.313
			c0.213-0.006,0.42-0.081,0.586-0.23l4.029-3.557c0.384-0.337,0.419-0.925,0.08-1.311l-3.38-3.828c0-0.001-0.002-0.004-0.005-0.007
			c-0.124-0.199,0.225-0.162,0.225-0.162v-0.005c0.548,0.021,0.954-0.105,1.243-0.3c0.435-0.295-0.062-0.51-0.138-0.722
			c0.673,0.322,1.999,0.049,2.33-0.379c0.257-0.332-0.185-0.473-0.609-0.57c1.067-0.497,1.925-0.994,2.381-2.175
			c0.271-0.692-0.47-0.711-1.206-0.43c0.604-0.605,1.206-1.425,1.507-2.473c0.34-1.192-0.105-1.789-1.063-0.987
			C534.729,333.173,535.513,332.041,535.478,331.062z M525.537,340.079l-3.483,3.069c-0.103,0.093-0.265,0.084-0.356-0.021
			L518.5,339.5c-0.091-0.103-0.082-0.265,0.023-0.358l3.479-3.068c0.104-0.094,0.267-0.081,0.36,0.021l3.194,3.627
			C525.65,339.824,525.642,339.983,525.537,340.079z"/>
		<rect x="512.465" y="310.195" fill="#64A2C8" width="7.11" height="4.74"/>
		<rect x="521.945" y="310.195" fill="#CC8C21" width="7.113" height="4.74"/>
		<rect x="531.429" y="310.195" fill="#78B1B1" width="7.111" height="4.74"/>
		<g>
			<path fill="#B3B3B3" d="M586.952,302.34H469.071v73.839h117.881V302.34z M580.282,369.512H475.749v-60.498h104.533V369.512z
				 M580.282,369.512"/>
			<path fill="#B3B3B3" d="M462.028,380.963c0,0,2.648,12.854,12.129,12.854v0.007h107.709v-0.007
				c9.48,0,12.129-12.854,12.129-12.854H462.028z M540.331,389.414h-24.639v-4.04h24.639V389.414z M540.331,389.414"/>
			<path fill="#B3B3B3" d="M551.227,351.257"/>
		</g>
	</g>
</g>
<g>
	<g>
		<path fill="#B3B3B3" d="M294.051,148.072c-1.66,0-3.01-1.348-3.01-3.009v-3.791c0-1.673-1.346-3.018-3.017-3.018h-2.011
			c-1.662,0-3.009,1.345-3.009,3.018v3.791c0,1.661-1.354,3.009-3.018,3.009h-19.091c-1.671,0-3.019,1.353-3.019,3.018v67.896
			c0,1.671,1.348,3.019,3.019,3.019h33.154c1.664,0,3.02-1.348,3.02-3.019V151.09C297.07,149.425,295.722,148.072,294.051,148.072
			L294.051,148.072z"/>
		<path fill="#FFFFFF" d="M264.473,206.488c0-1.665,1.346-3.017,3.019-3.017c1.661,0,3.009,1.352,3.009,3.017
			c0,1.664-1.348,3.02-3.009,3.02C265.818,209.508,264.473,208.152,264.473,206.488L264.473,206.488z"/>
		<path fill="#FFFFFF" d="M267.491,193.491c1.661,0,3.009,1.348,3.009,3.009c0,1.662-1.348,3.019-3.009,3.019
			c-1.673,0-3.019-1.356-3.019-3.019C264.473,194.839,265.818,193.491,267.491,193.491L267.491,193.491z"/>
		<path fill="#FFFFFF" d="M264.473,186.514c0-1.663,1.346-3.01,3.019-3.01c1.661,0,3.009,1.347,3.009,3.01
			c0,1.669-1.348,3.017-3.009,3.017C265.818,189.53,264.473,188.183,264.473,186.514L264.473,186.514z"/>
		<path fill="#FFFFFF" d="M283.594,216.874h-12.622c-0.832,0-1.51-0.673-1.51-1.501c0-0.841,0.678-1.512,1.51-1.512h12.622
			c0.839,0,1.507,0.671,1.507,1.512C285.101,216.201,284.433,216.874,283.594,216.874L283.594,216.874z"/>
		<path fill="#FFFFFF" d="M277.285,193.491c1.665,0,3.01,1.348,3.01,3.009c0,1.662-1.345,3.019-3.01,3.019
			c-1.67,0-3.018-1.356-3.018-3.019C274.268,194.839,275.615,193.491,277.285,193.491L277.285,193.491z"/>
		<path fill="#FFFFFF" d="M274.268,186.514c0-1.663,1.348-3.01,3.018-3.01c1.665,0,3.01,1.347,3.01,3.01
			c0,1.669-1.345,3.017-3.01,3.017C275.615,189.53,274.268,188.183,274.268,186.514L274.268,186.514z"/>
		<path fill="#FFFFFF" d="M277.285,203.472c1.665,0,3.01,1.352,3.01,3.017c0,1.664-1.345,3.02-3.01,3.02
			c-1.67,0-3.018-1.355-3.018-3.02C274.268,204.823,275.615,203.472,277.285,203.472L277.285,203.472z"/>
		<path fill="#FFFFFF" d="M287.08,209.508c-1.66,0-3.016-1.355-3.016-3.02c0-1.665,1.355-3.017,3.016-3.017
			c1.665,0,3.021,1.352,3.021,3.017C290.101,208.152,288.745,209.508,287.08,209.508L287.08,209.508z"/>
		<path fill="#FFFFFF" d="M287.08,199.519c-1.66,0-3.016-1.356-3.016-3.019c0-1.661,1.355-3.009,3.016-3.009
			c1.665,0,3.021,1.348,3.021,3.009C290.101,198.162,288.745,199.519,287.08,199.519L287.08,199.519z"/>
		<path fill="#FFFFFF" d="M287.08,189.53c-1.66,0-3.016-1.348-3.016-3.017c0-1.663,1.355-3.01,3.016-3.01
			c1.665,0,3.021,1.347,3.021,3.01C290.101,188.183,288.745,189.53,287.08,189.53L287.08,189.53z"/>
		<path fill="#FFFFFF" d="M291.984,174.789c0,1.665-1.354,3.011-3.02,3.011h-22.983c-1.671,0-3.018-1.346-3.018-3.011v-16.625
			c0-1.665,1.347-3.013,3.018-3.013h22.983c1.665,0,3.02,1.348,3.02,3.013V174.789z"/>
		<path fill="#FFFFFF" d="M291.984,174.789"/>
	</g>
	<path fill="#787878" d="M282.334,162.963c-0.019-0.532-0.429-0.363-0.565-0.317c0.555-0.346,1.034-1.36,0.908-1.799
		c-0.098-0.344-0.323-0.227-0.601,0.041c0.805-1.817-0.386-2.794-0.386-2.792c-0.205-0.136-0.352,0.046-0.348,0.316
		c0.04,2.186-1.557,3.45-3.303,4.497c-1.311,0.848-1.774,2.273-1.937,3.294c-0.04,0.125-0.133,0.063-0.18,0.025l-1.009-1.145
		c-0.109-0.124-0.265-0.186-0.419-0.179c-0.12,0.004-0.239,0.048-0.336,0.133l-0.044,0.039h-0.001h-0.002l-0.243-0.276
		c-0.072-0.081-0.171-0.124-0.266-0.124c-0.075,0-0.146,0.023-0.204,0.072l-0.136,0.122c-0.132,0.113-0.136,0.327-0.008,0.473
		l0.244,0.276l-1.66,1.463c-0.221,0.194-0.241,0.531-0.047,0.755l5.747,6.515c0.11,0.124,0.264,0.186,0.418,0.182
		c0.122-0.005,0.239-0.049,0.336-0.133l2.319-2.047c0.222-0.195,0.242-0.532,0.048-0.753l-1.944-2.206
		c-0.003-0.003-0.003-0.004-0.004-0.005c-0.071-0.115,0.131-0.092,0.131-0.092v-0.001c0.313,0.009,0.547-0.064,0.713-0.174
		c0.251-0.17-0.034-0.295-0.08-0.419c0.39,0.189,1.153,0.028,1.343-0.217c0.148-0.192-0.107-0.271-0.353-0.327
		c0.617-0.287,1.11-0.571,1.372-1.252c0.155-0.396-0.27-0.41-0.694-0.249c0.348-0.347,0.694-0.817,0.867-1.424
		c0.195-0.685-0.061-1.027-0.611-0.566C281.903,164.178,282.354,163.525,282.334,162.963z M276.611,168.151l-2.003,1.767
		c-0.061,0.054-0.152,0.048-0.206-0.013l-1.84-2.087c-0.053-0.061-0.048-0.153,0.013-0.206l2.003-1.768
		c0.062-0.052,0.154-0.047,0.208,0.015l1.839,2.084C276.678,168.005,276.673,168.098,276.611,168.151z"/>
</g>
<g>
	<g>
		<path fill="#B3B3B3" d="M294.283,399.072c-1.66,0-3.01-1.348-3.01-3.009v-3.791c0-1.673-1.346-3.018-3.017-3.018h-2.011
			c-1.662,0-3.009,1.345-3.009,3.018v3.791c0,1.661-1.354,3.009-3.018,3.009h-19.091c-1.671,0-3.019,1.353-3.019,3.018v67.896
			c0,1.671,1.348,3.019,3.019,3.019h33.154c1.664,0,3.02-1.348,3.02-3.019V402.09C297.303,400.425,295.954,399.072,294.283,399.072
			L294.283,399.072z"/>
		<path fill="#FFFFFF" d="M264.705,457.488c0-1.665,1.346-3.017,3.019-3.017c1.661,0,3.009,1.352,3.009,3.017
			c0,1.664-1.348,3.02-3.009,3.02C266.051,460.508,264.705,459.152,264.705,457.488L264.705,457.488z"/>
		<path fill="#FFFFFF" d="M267.724,444.491c1.661,0,3.009,1.348,3.009,3.009c0,1.662-1.348,3.019-3.009,3.019
			c-1.673,0-3.019-1.356-3.019-3.019C264.705,445.839,266.051,444.491,267.724,444.491L267.724,444.491z"/>
		<path fill="#FFFFFF" d="M264.705,437.514c0-1.663,1.346-3.01,3.019-3.01c1.661,0,3.009,1.347,3.009,3.01
			c0,1.669-1.348,3.017-3.009,3.017C266.051,440.53,264.705,439.183,264.705,437.514L264.705,437.514z"/>
		<path fill="#FFFFFF" d="M283.826,467.874h-12.622c-0.832,0-1.51-0.673-1.51-1.501c0-0.841,0.678-1.512,1.51-1.512h12.622
			c0.839,0,1.507,0.671,1.507,1.512C285.333,467.201,284.665,467.874,283.826,467.874L283.826,467.874z"/>
		<path fill="#FFFFFF" d="M277.518,444.491c1.665,0,3.01,1.348,3.01,3.009c0,1.662-1.345,3.019-3.01,3.019
			c-1.67,0-3.018-1.356-3.018-3.019C274.5,445.839,275.848,444.491,277.518,444.491L277.518,444.491z"/>
		<path fill="#FFFFFF" d="M274.5,437.514c0-1.663,1.348-3.01,3.018-3.01c1.665,0,3.01,1.347,3.01,3.01
			c0,1.669-1.345,3.017-3.01,3.017C275.848,440.53,274.5,439.183,274.5,437.514L274.5,437.514z"/>
		<path fill="#FFFFFF" d="M277.518,454.472c1.665,0,3.01,1.352,3.01,3.017c0,1.664-1.345,3.02-3.01,3.02
			c-1.67,0-3.018-1.355-3.018-3.02C274.5,455.823,275.848,454.472,277.518,454.472L277.518,454.472z"/>
		<path fill="#FFFFFF" d="M287.312,460.508c-1.66,0-3.016-1.355-3.016-3.02c0-1.665,1.355-3.017,3.016-3.017
			c1.665,0,3.021,1.352,3.021,3.017C290.333,459.152,288.978,460.508,287.312,460.508L287.312,460.508z"/>
		<path fill="#FFFFFF" d="M287.312,450.519c-1.66,0-3.016-1.356-3.016-3.019c0-1.661,1.355-3.009,3.016-3.009
			c1.665,0,3.021,1.348,3.021,3.009C290.333,449.162,288.978,450.519,287.312,450.519L287.312,450.519z"/>
		<path fill="#FFFFFF" d="M287.312,440.53c-1.66,0-3.016-1.348-3.016-3.017c0-1.663,1.355-3.01,3.016-3.01
			c1.665,0,3.021,1.347,3.021,3.01C290.333,439.183,288.978,440.53,287.312,440.53L287.312,440.53z"/>
		<path fill="#FFFFFF" d="M292.217,425.789c0,1.665-1.354,3.011-3.02,3.011h-22.983c-1.671,0-3.018-1.346-3.018-3.011v-16.625
			c0-1.665,1.347-3.013,3.018-3.013h22.983c1.665,0,3.02,1.348,3.02,3.013V425.789z"/>
		<path fill="#FFFFFF" d="M292.217,425.789"/>
	</g>
	<path fill="#787878" d="M282.566,413.963c-0.019-0.532-0.429-0.363-0.565-0.317c0.555-0.346,1.034-1.36,0.908-1.799
		c-0.098-0.344-0.323-0.227-0.601,0.041c0.805-1.817-0.386-2.794-0.386-2.792c-0.205-0.136-0.352,0.046-0.348,0.316
		c0.04,2.186-1.557,3.45-3.303,4.497c-1.311,0.848-1.774,2.273-1.937,3.294c-0.04,0.125-0.133,0.063-0.18,0.025l-1.009-1.145
		c-0.109-0.124-0.265-0.186-0.419-0.179c-0.12,0.004-0.239,0.048-0.336,0.133l-0.044,0.039h-0.001h-0.002l-0.243-0.276
		c-0.072-0.081-0.171-0.124-0.266-0.124c-0.075,0-0.146,0.023-0.204,0.072l-0.136,0.122c-0.132,0.113-0.136,0.327-0.008,0.473
		l0.244,0.276l-1.66,1.463c-0.221,0.194-0.241,0.531-0.047,0.755l5.747,6.515c0.11,0.124,0.264,0.186,0.418,0.182
		c0.122-0.005,0.239-0.049,0.336-0.133l2.319-2.047c0.222-0.195,0.242-0.532,0.048-0.753l-1.944-2.206
		c-0.003-0.003-0.003-0.004-0.004-0.005c-0.071-0.115,0.131-0.092,0.131-0.092v-0.001c0.313,0.009,0.547-0.064,0.713-0.174
		c0.251-0.17-0.034-0.295-0.08-0.419c0.39,0.189,1.153,0.028,1.343-0.217c0.148-0.192-0.107-0.271-0.353-0.327
		c0.617-0.287,1.11-0.571,1.372-1.252c0.155-0.396-0.27-0.41-0.694-0.249c0.348-0.347,0.694-0.817,0.867-1.424
		c0.195-0.685-0.061-1.027-0.611-0.566C282.136,415.178,282.586,414.525,282.566,413.963z M276.844,419.151l-2.003,1.767
		c-0.061,0.054-0.152,0.048-0.206-0.013l-1.84-2.087c-0.053-0.061-0.048-0.153,0.013-0.206l2.003-1.768
		c0.062-0.052,0.154-0.047,0.208,0.015l1.839,2.084C276.91,419.005,276.905,419.098,276.844,419.151z"/>
</g>
<g>
	<g>
		<path fill="#B3B3B3" d="M777.283,333.072c-1.66,0-3.01-1.348-3.01-3.009v-3.791c0-1.673-1.346-3.018-3.017-3.018h-2.011
			c-1.662,0-3.009,1.345-3.009,3.018v3.791c0,1.661-1.354,3.009-3.018,3.009h-19.091c-1.671,0-3.019,1.353-3.019,3.018v67.896
			c0,1.671,1.348,3.019,3.019,3.019h33.154c1.664,0,3.02-1.348,3.02-3.019V336.09C780.303,334.425,778.954,333.072,777.283,333.072
			L777.283,333.072z"/>
		<path fill="#FFFFFF" d="M747.705,391.488c0-1.665,1.346-3.017,3.019-3.017c1.661,0,3.009,1.352,3.009,3.017
			c0,1.664-1.348,3.02-3.009,3.02C749.051,394.508,747.705,393.152,747.705,391.488L747.705,391.488z"/>
		<path fill="#FFFFFF" d="M750.724,378.491c1.661,0,3.009,1.348,3.009,3.009c0,1.662-1.348,3.019-3.009,3.019
			c-1.673,0-3.019-1.356-3.019-3.019C747.705,379.839,749.051,378.491,750.724,378.491L750.724,378.491z"/>
		<path fill="#FFFFFF" d="M747.705,371.514c0-1.663,1.346-3.01,3.019-3.01c1.661,0,3.009,1.347,3.009,3.01
			c0,1.669-1.348,3.017-3.009,3.017C749.051,374.53,747.705,373.183,747.705,371.514L747.705,371.514z"/>
		<path fill="#FFFFFF" d="M766.826,401.874h-12.622c-0.832,0-1.51-0.673-1.51-1.501c0-0.841,0.678-1.512,1.51-1.512h12.622
			c0.839,0,1.507,0.671,1.507,1.512C768.333,401.201,767.665,401.874,766.826,401.874L766.826,401.874z"/>
		<path fill="#FFFFFF" d="M760.518,378.491c1.665,0,3.01,1.348,3.01,3.009c0,1.662-1.345,3.019-3.01,3.019
			c-1.67,0-3.018-1.356-3.018-3.019C757.5,379.839,758.848,378.491,760.518,378.491L760.518,378.491z"/>
		<path fill="#FFFFFF" d="M757.5,371.514c0-1.663,1.348-3.01,3.018-3.01c1.665,0,3.01,1.347,3.01,3.01
			c0,1.669-1.345,3.017-3.01,3.017C758.848,374.53,757.5,373.183,757.5,371.514L757.5,371.514z"/>
		<path fill="#FFFFFF" d="M760.518,388.472c1.665,0,3.01,1.352,3.01,3.017c0,1.664-1.345,3.02-3.01,3.02
			c-1.67,0-3.018-1.355-3.018-3.02C757.5,389.823,758.848,388.472,760.518,388.472L760.518,388.472z"/>
		<path fill="#FFFFFF" d="M770.312,394.508c-1.66,0-3.016-1.355-3.016-3.02c0-1.665,1.355-3.017,3.016-3.017
			c1.665,0,3.021,1.352,3.021,3.017C773.333,393.152,771.978,394.508,770.312,394.508L770.312,394.508z"/>
		<path fill="#FFFFFF" d="M770.312,384.519c-1.66,0-3.016-1.356-3.016-3.019c0-1.661,1.355-3.009,3.016-3.009
			c1.665,0,3.021,1.348,3.021,3.009C773.333,383.162,771.978,384.519,770.312,384.519L770.312,384.519z"/>
		<path fill="#FFFFFF" d="M770.312,374.53c-1.66,0-3.016-1.348-3.016-3.017c0-1.663,1.355-3.01,3.016-3.01
			c1.665,0,3.021,1.347,3.021,3.01C773.333,373.183,771.978,374.53,770.312,374.53L770.312,374.53z"/>
		<path fill="#FFFFFF" d="M775.217,359.789c0,1.665-1.354,3.011-3.02,3.011h-22.983c-1.671,0-3.018-1.346-3.018-3.011v-16.625
			c0-1.665,1.347-3.013,3.018-3.013h22.983c1.665,0,3.02,1.348,3.02,3.013V359.789z"/>
		<path fill="#FFFFFF" d="M775.217,359.789"/>
	</g>
	<path fill="#787878" d="M765.566,347.963c-0.019-0.532-0.429-0.363-0.565-0.317c0.555-0.346,1.034-1.36,0.908-1.799
		c-0.098-0.344-0.323-0.227-0.601,0.041c0.805-1.817-0.386-2.794-0.386-2.792c-0.205-0.136-0.352,0.046-0.348,0.316
		c0.04,2.186-1.557,3.45-3.303,4.497c-1.311,0.848-1.774,2.273-1.937,3.294c-0.04,0.125-0.133,0.063-0.18,0.025l-1.009-1.145
		c-0.109-0.124-0.265-0.186-0.419-0.179c-0.12,0.004-0.239,0.048-0.336,0.133l-0.044,0.039h-0.001h-0.002l-0.243-0.276
		c-0.072-0.081-0.171-0.124-0.266-0.124c-0.075,0-0.146,0.023-0.204,0.072l-0.136,0.122c-0.132,0.113-0.136,0.327-0.008,0.473
		l0.244,0.276l-1.66,1.463c-0.221,0.194-0.241,0.531-0.047,0.755l5.747,6.515c0.11,0.124,0.264,0.186,0.418,0.182
		c0.122-0.005,0.239-0.049,0.336-0.133l2.319-2.047c0.222-0.195,0.242-0.532,0.048-0.753l-1.944-2.206
		c-0.003-0.003-0.003-0.004-0.004-0.005c-0.071-0.115,0.131-0.092,0.131-0.092v-0.001c0.313,0.009,0.547-0.064,0.713-0.174
		c0.251-0.17-0.034-0.295-0.08-0.419c0.39,0.189,1.153,0.028,1.343-0.217c0.148-0.192-0.107-0.271-0.353-0.327
		c0.617-0.287,1.11-0.571,1.372-1.252c0.155-0.396-0.27-0.41-0.694-0.249c0.348-0.347,0.694-0.817,0.867-1.424
		c0.195-0.685-0.061-1.027-0.611-0.566C765.136,349.178,765.586,348.525,765.566,347.963z M759.844,353.151l-2.003,1.767
		c-0.061,0.054-0.152,0.048-0.206-0.013l-1.84-2.087c-0.053-0.061-0.048-0.153,0.013-0.206l2.003-1.768
		c0.062-0.052,0.154-0.047,0.208,0.015l1.839,2.084C759.91,353.005,759.905,353.098,759.844,353.151z"/>
</g>
<g>
	<polygon fill="#B4B4B4" points="749.275,232.759 700.213,232.759 705.665,223.759 743.824,223.759 	"/>
	<rect x="681.744" y="158.759" fill="#B4B4B4" width="86" height="63"/>
	<rect x="687.649" y="162.667" fill="#FFFFFF" width="74" height="47"/>
	<g>
		<path d="M701.237,203.385h-0.017l-0.677,3.83h-0.746l1.186-6.045l1.991,4.568l1.991-4.568l1.186,6.045h-0.746l-0.677-3.83h-0.016
			l-1.737,3.953L701.237,203.385z"/>
		<path d="M706.826,201.416h3.114v0.662h-2.393v1.623h2.323v0.662h-2.323v2.192h2.393v0.661h-3.114V201.416z"/>
		<path d="M710.738,201.416h1.2c1.775,0,3.253,0.938,3.253,2.869c0,1.977-1.446,2.93-3.276,2.93h-1.177V201.416z M711.461,206.554
			h0.254c1.478,0,2.753-0.554,2.753-2.238c0-1.692-1.275-2.238-2.753-2.238h-0.254V206.554z"/>
		<path d="M716.686,207.215h-0.724v-5.799h0.724V207.215z"/>
		<path d="M722.022,202.523c-0.415-0.369-0.984-0.569-1.53-0.569c-1.3,0-2.292,1.084-2.292,2.369c0,1.269,0.983,2.354,2.276,2.354
			c0.568,0,1.114-0.216,1.545-0.6v0.854c-0.444,0.262-1.015,0.408-1.521,0.408c-1.653,0-3.022-1.315-3.022-2.992
			c0-1.715,1.377-3.053,3.084-3.053c0.509,0,1.023,0.123,1.461,0.393V202.523L722.022,202.523z"/>
		<path d="M730.201,202.416h-0.017l-2.021,4.991l-2.015-4.991h-0.017l-0.992,4.799h-0.354l1.246-5.991l2.13,5.275l2.138-5.275
			l1.246,5.991h-0.354L730.201,202.416z"/>
		<path d="M738.008,204.315c0,1.63-1.377,2.977-3.007,2.977c-1.631,0-3.008-1.346-3.008-2.977s1.369-2.976,3.008-2.976
			C736.631,201.339,738.008,202.685,738.008,204.315z M732.362,204.315c0,1.431,1.191,2.63,2.639,2.63
			c1.438,0,2.638-1.208,2.638-2.63c0-1.43-1.2-2.63-2.638-2.63C733.555,201.686,732.362,202.885,732.362,204.315z"/>
		<path d="M739.028,207.215v-5.799h1.161c0.438,0,0.854,0.031,1.199,0.339c0.354,0.308,0.484,0.738,0.484,1.199
			c0,0.531-0.208,0.923-0.67,1.185c0.716,0.146,1.2,0.723,1.2,1.461c0,0.469-0.178,0.893-0.538,1.2
			c-0.408,0.346-0.839,0.415-1.354,0.415H739.028z M739.397,204.046h0.639c0.392,0,0.707,0.023,1.038-0.215
			c0.33-0.238,0.431-0.531,0.431-0.931c0-0.377-0.146-0.746-0.478-0.954c-0.292-0.185-0.653-0.185-0.991-0.185h-0.639V204.046z
			 M739.397,206.869h0.885c0.406,0,0.83,0.016,1.184-0.223c0.354-0.238,0.569-0.6,0.569-1.03c0-0.423-0.208-0.846-0.601-1.038
			c-0.354-0.177-0.839-0.185-1.223-0.185h-0.814V206.869z"/>
		<path d="M743.819,207.215h-0.369v-5.799h0.369V207.215z"/>
		<path d="M745.529,206.869h1.477v0.346h-1.846v-5.799h0.369V206.869z"/>
		<path d="M748.116,201.762v2.107h2.338v0.346h-2.338v2.653h2.398v0.346h-2.769v-5.799h2.769v0.346h-2.398V201.762z"/>
	</g>
	<rect x="687.659" y="162.667" fill="#58595B" width="74.015" height="6"/>
	<rect x="687.659" y="167.908" fill="#64A2C8" width="74.015" height="3.759"/>
	<path fill="#58595B" d="M731.563,180.209c-0.027-0.837-0.671-0.568-0.889-0.499c0.871-0.542,1.623-2.132,1.426-2.82
		c-0.153-0.536-0.507-0.353-0.939,0.065c1.261-2.847-0.605-4.374-0.605-4.372c-0.318-0.211-0.55,0.073-0.545,0.495
		c0.064,3.425-2.438,5.403-5.172,7.045c-2.055,1.328-2.782,3.561-3.034,5.158c-0.062,0.196-0.211,0.103-0.28,0.043l-1.581-1.793
		c-0.173-0.195-0.416-0.292-0.656-0.283c-0.188,0.007-0.374,0.075-0.525,0.209l-0.07,0.062l-0.001-0.001l-0.003,0.001l-0.38-0.433
		c-0.114-0.128-0.269-0.195-0.417-0.197c-0.116-0.001-0.229,0.038-0.318,0.116l-0.212,0.187c-0.207,0.183-0.215,0.516-0.015,0.744
		l0.384,0.433l-2.6,2.292c-0.349,0.306-0.38,0.834-0.074,1.181l9.003,10.207c0.171,0.194,0.413,0.29,0.654,0.283
		c0.188-0.005,0.374-0.074,0.526-0.208l3.633-3.205c0.347-0.305,0.377-0.833,0.073-1.18l-3.046-3.455
		c-0.002-0.003-0.004-0.005-0.004-0.005c-0.111-0.181,0.201-0.146,0.201-0.146v-0.003c0.493,0.016,0.859-0.098,1.119-0.272
		c0.395-0.264-0.056-0.46-0.125-0.654c0.609,0.293,1.804,0.044,2.103-0.34c0.231-0.3-0.168-0.425-0.55-0.511
		c0.963-0.448,1.734-0.896,2.147-1.96c0.242-0.625-0.426-0.643-1.087-0.391c0.542-0.542,1.087-1.283,1.356-2.229
		c0.307-1.073-0.096-1.614-0.958-0.89C730.889,182.111,731.595,181.09,731.563,180.209z M722.601,188.335l-3.139,2.767
		c-0.094,0.083-0.238,0.075-0.321-0.021l-2.882-3.267c-0.084-0.096-0.075-0.242,0.021-0.326l3.137-2.767
		c0.095-0.083,0.239-0.073,0.323,0.021l2.883,3.268C722.705,188.106,722.695,188.25,722.601,188.335z"/>
	<rect x="710.886" y="164" fill="#64A2C8" width="8" height="4"/>
	<rect x="719.886" y="164" fill="#CC8C21" width="8" height="4"/>
	<rect x="728.886" y="164" fill="#78B1B1" width="6" height="4"/>
</g>
<g>
	<path fill="#64A2C8" d="M232.179,124.705c0,7.632-6.164,13.851-13.834,13.851c-7.685,0-13.851-6.219-13.851-13.851
		c0-7.668,6.166-13.89,13.851-13.89C226.015,110.815,232.179,117.037,232.179,124.705L232.179,124.705z"/>
	<path fill="#64A2C8" d="M250.508,195.965c0,0-7.297-35.343-10.745-42.441c0,0,0,0,0-0.054c-3.462-7.084-6.927-11.348-20.057-11.348
		h-2.716c-13.13,0-16.594,4.264-20.056,11.348c0,0.054,0,0.054,0,0.054c-3.462,7.099-10.76,42.441-10.76,42.441
		c-0.547,2.383,0.918,4.767,3.354,5.299c0.321,0.106,0.64,0.162,0.961,0.162c2.062,0,3.861-1.398,4.339-3.449l9.842-34.985
		l-9.588,58.45h9.254l2.864,52.177c0,1.783,1.466,3.289,3.25,3.289c1.891,0,3.409-1.506,3.409-3.289l2.811-52.177h3.356
		l2.811,52.177c0,1.783,1.503,3.289,3.395,3.289c1.784,0,3.25-1.506,3.25-3.289l2.86-52.177h9.258l-9.576-58.45l9.842,34.985
		c0.48,2.051,2.316,3.449,4.329,3.449c0.319,0,0.638-0.056,1.024-0.162C249.591,200.731,251.056,198.348,250.508,195.965
		L250.508,195.965z"/>
	<g>
		
			<rect x="215.796" y="160.402" fill-rule="evenodd" clip-rule="evenodd" fill="#FFFFFF" stroke="#FFFFFF" stroke-width="0.5" stroke-miterlimit="10" width="4.92" height="4.92"/>
		
			<rect x="215.796" y="150.598" fill-rule="evenodd" clip-rule="evenodd" fill="#FFFFFF" stroke="#FFFFFF" stroke-width="0.5" stroke-miterlimit="10" width="4.92" height="4.92"/>
		
			<rect x="220.705" y="155.493" fill-rule="evenodd" clip-rule="evenodd" fill="#FFFFFF" stroke="#FFFFFF" stroke-width="0.5" stroke-miterlimit="10" width="4.92" height="4.92"/>
		
			<rect x="215.796" y="155.493" fill-rule="evenodd" clip-rule="evenodd" fill="#FFFFFF" stroke="#FFFFFF" stroke-width="0.5" stroke-miterlimit="10" width="4.92" height="4.92"/>
		
			<rect x="210.863" y="155.493" fill-rule="evenodd" clip-rule="evenodd" fill="#FFFFFF" stroke="#FFFFFF" stroke-width="0.5" stroke-miterlimit="10" width="4.92" height="4.92"/>
	</g>
</g>
<g>
	<path fill="#64A2C8" d="M839.512,316.039c0,7.633-6.164,13.852-13.834,13.852c-7.684,0-13.85-6.219-13.85-13.852
		c0-7.668,6.166-13.889,13.85-13.889C833.348,302.15,839.512,308.371,839.512,316.039L839.512,316.039z"/>
	<path fill="#64A2C8" d="M857.842,387.299c0,0-7.297-35.342-10.746-42.441c0,0,0,0,0-0.053c-3.461-7.084-6.926-11.348-20.057-11.348
		h-2.715c-13.131,0-16.594,4.264-20.057,11.348c0,0.053,0,0.053,0,0.053c-3.461,7.1-10.76,42.441-10.76,42.441
		c-0.547,2.383,0.918,4.768,3.355,5.299c0.32,0.107,0.639,0.162,0.961,0.162c2.061,0,3.861-1.398,4.338-3.449l9.842-34.984
		l-9.588,58.449h9.254l2.865,52.178c0,1.783,1.465,3.289,3.25,3.289c1.891,0,3.408-1.506,3.408-3.289l2.811-52.178h3.357
		l2.811,52.178c0,1.783,1.502,3.289,3.395,3.289c1.783,0,3.25-1.506,3.25-3.289l2.859-52.178h9.258l-9.576-58.449l9.842,34.984
		c0.48,2.051,2.316,3.449,4.33,3.449c0.318,0,0.637-0.055,1.023-0.162C856.924,392.066,858.389,389.682,857.842,387.299
		L857.842,387.299z"/>
	<g>
		
			<rect x="823.129" y="351.736" fill-rule="evenodd" clip-rule="evenodd" fill="#FFFFFF" stroke="#FFFFFF" stroke-width="0.5" stroke-miterlimit="10" width="4.92" height="4.92"/>
		
			<rect x="823.129" y="341.932" fill-rule="evenodd" clip-rule="evenodd" fill="#FFFFFF" stroke="#FFFFFF" stroke-width="0.5" stroke-miterlimit="10" width="4.92" height="4.92"/>
		
			<rect x="828.038" y="346.828" fill-rule="evenodd" clip-rule="evenodd" fill="#FFFFFF" stroke="#FFFFFF" stroke-width="0.5" stroke-miterlimit="10" width="4.92" height="4.92"/>
		
			<rect x="823.129" y="346.828" fill-rule="evenodd" clip-rule="evenodd" fill="#FFFFFF" stroke="#FFFFFF" stroke-width="0.5" stroke-miterlimit="10" width="4.92" height="4.92"/>
		
			<rect x="818.196" y="346.828" fill-rule="evenodd" clip-rule="evenodd" fill="#FFFFFF" stroke="#FFFFFF" stroke-width="0.5" stroke-miterlimit="10" width="4.92" height="4.92"/>
	</g>
</g>
<g>
	<g>
		<ellipse fill-rule="evenodd" clip-rule="evenodd" fill="#64A2C8" cx="216.36" cy="363.493" rx="13.466" ry="13.626"/>
		<path fill-rule="evenodd" clip-rule="evenodd" fill="#64A2C8" d="M243.2,397.338c-2.18-10.006-10.826-17.54-19.14-17.54
			l-6.978,0.079l-6.826,0.031c-8.313,0-16.961,7.404-19.139,17.411l-7.436,40.181c0,10,11.837,10,11.837,0l7.09-36.787
			l-0.425,30.531l-4.704,77.611c0,4.216,2.382,7.617,6.547,7.617c4.177,0,7.075-2.438,7.075-6.652l4.444-63.32h3.224l4.444,63.338
			c0,4.215,3.087,7.11,7.262,7.11c4.166,0,6.358-3.676,6.358-7.893l-4.702-77.603l-0.425-30.709l7.089,36.756
			c0,10,11.837,10,11.837,0L243.2,397.338z"/>
	</g>
	<g>
		
			<rect x="214.463" y="399.488" fill-rule="evenodd" clip-rule="evenodd" fill="#FFFFFF" stroke="#FFFFFF" stroke-width="0.5" stroke-miterlimit="10" width="4.92" height="4.92"/>
		
			<rect x="214.463" y="389.684" fill-rule="evenodd" clip-rule="evenodd" fill="#FFFFFF" stroke="#FFFFFF" stroke-width="0.5" stroke-miterlimit="10" width="4.92" height="4.92"/>
		
			<rect x="219.372" y="394.58" fill-rule="evenodd" clip-rule="evenodd" fill="#FFFFFF" stroke="#FFFFFF" stroke-width="0.5" stroke-miterlimit="10" width="4.92" height="4.92"/>
		
			<rect x="214.463" y="394.58" fill-rule="evenodd" clip-rule="evenodd" fill="#FFFFFF" stroke="#FFFFFF" stroke-width="0.5" stroke-miterlimit="10" width="4.92" height="4.92"/>
		
			<rect x="209.53" y="394.58" fill-rule="evenodd" clip-rule="evenodd" fill="#FFFFFF" stroke="#FFFFFF" stroke-width="0.5" stroke-miterlimit="10" width="4.92" height="4.92"/>
	</g>
</g>
<g>
	<path fill="#89AC96" d="M403.466,260.642c6.321,0,11.926,2.868,15.523,7.343l8.203-15.209
		c-6.092-6.442-17.358-10.292-24.049-10.292c-6.965,0-16.382,3.821-23.428,10.626l8.368,14.729
		C391.673,263.454,397.222,260.642,403.466,260.642z M415.558,276.662c0,6.773-5.418,12.26-12.111,12.26
		c-6.691,0-12.1-5.487-12.1-12.26c0-6.777,5.407-12.263,12.1-12.263C410.14,264.396,415.558,269.885,415.558,276.662z
		 M443.395,340.646c2.339,8.385-8.187,12.961-10.69,4.797l-6.335-19.95L420.92,314h-3.141l18.25,62H415v42.222
		c0,4.43-0.838,7.125-4.615,7.11c-4.09,0.014-4.379-2.502-4.379-6.973l-0.27-42.36h-5.194l-0.173,42.36
		c0,4.471-0.398,6.817-4.115,6.803c-3.436,0.015-4.254-2.512-4.254-6.941V376h-20.762l18.249-62h-3.141l-5.448,11.833l-6.335,19.265
		c-2.506,8.166-13.03,5.287-10.692-3.097l11.698-37.491c1.446-4.382,6.642-9.511,16.166-9.511h0.76h22.276h0.76
		c9.523,0,14.719,5.083,16.166,9.465L443.395,340.646z"/>
	<g>
		
			<rect x="401.312" y="253.851" fill-rule="evenodd" clip-rule="evenodd" fill="#FFFFFF" stroke="#FFFFFF" stroke-width="0.4289" stroke-miterlimit="10" width="4.22" height="4.22"/>
		
			<rect x="401.312" y="245.44" fill-rule="evenodd" clip-rule="evenodd" fill="#FFFFFF" stroke="#FFFFFF" stroke-width="0.4289" stroke-miterlimit="10" width="4.22" height="4.221"/>
		
			<rect x="405.522" y="249.641" fill-rule="evenodd" clip-rule="evenodd" fill="#FFFFFF" stroke="#FFFFFF" stroke-width="0.4289" stroke-miterlimit="10" width="4.22" height="4.22"/>
		
			<rect x="401.312" y="249.641" fill-rule="evenodd" clip-rule="evenodd" fill="#FFFFFF" stroke="#FFFFFF" stroke-width="0.4289" stroke-miterlimit="10" width="4.22" height="4.22"/>
		
			<rect x="397.08" y="249.641" fill-rule="evenodd" clip-rule="evenodd" fill="#FFFFFF" stroke="#FFFFFF" stroke-width="0.4289" stroke-miterlimit="10" width="4.221" height="4.22"/>
	</g>
</g>
</svg>
